<?xml version="1.0" encoding="UTF-8"?>
<svg id="Layer_1" data-name="Layer 1" xmlns="http://www.w3.org/2000/svg" xmlns:xlink="http://www.w3.org/1999/xlink" viewBox="0 0 1216 810">
  <defs>
    <style>
      .cls-1 {
        opacity: .7;
      }

      .cls-1, .cls-2, .cls-3, .cls-4, .cls-5, .cls-6, .cls-7, .cls-8, .cls-9, .cls-10, .cls-11, .cls-12, .cls-13, .cls-14 {
        stroke-width: 0px;
      }

      .cls-1, .cls-3, .cls-4, .cls-5, .cls-6, .cls-7, .cls-8, .cls-9, .cls-10, .cls-11, .cls-14 {
        isolation: isolate;
      }

      .cls-1, .cls-8 {
        fill: #007b91;
      }

      .cls-15 {
        clip-path: url(#clippath);
      }

      .cls-2 {
        fill: none;
      }

      .cls-3 {
        fill: #afcd5f;
      }

      .cls-3, .cls-5, .cls-11 {
        opacity: .9;
      }

      .cls-4 {
        opacity: .4;
      }

      .cls-4, .cls-5 {
        fill: #969ba0;
      }

      .cls-6 {
        opacity: .6;
      }

      .cls-6, .cls-7, .cls-13, .cls-14 {
        fill: #fff;
      }

      .cls-7, .cls-9, .cls-10 {
        opacity: .8;
      }

      .cls-16 {
        clip-path: url(#clippath-1);
      }

      .cls-8, .cls-14 {
        opacity: .3;
      }

      .cls-9 {
        fill: #d76b00;
      }

      .cls-10 {
        fill: #ffac2a;
      }

      .cls-11 {
        fill: #da2323;
      }

      .cls-12 {
        fill: #454440;
      }
    </style>
    <clipPath id="clippath">
      <circle class="cls-2" cx="378.5" cy="568.1" r="86.6"/>
    </clipPath>
    <clipPath id="clippath-1">
      <circle class="cls-2" cx="1007.3" cy="568.1" r="86.6" transform="translate(-106.68 878.66) rotate(-45)"/>
    </clipPath>
  </defs>
  <g id="Ebene_3" data-name="Ebene 3">
    <path class="cls-4" d="M1111.8,638.6c0-16.9-236.5-30.6-528.2-30.6-337.1,0-547.2,13.7-547.2,30.6s223.4,33.1,547.2,30.6h4.5c-35.9,5-57.1,11.1-57.1,17.8,0,16.4,129.1,29.7,288.3,29.7s288.3-13.3,288.3-29.7c0-11.5-63.3-21.5-156-26.4,98.8-5.6,160.2-13.4,160.2-22Z"/>
    <path class="cls-12" d="M215.3,400.8l-10.3-32.6,2.9.2c3.3.2,14.1.9,17.2,3.2,3.1,2.3,6.9,11,7.6,12.7l.3.7-2.6,8.1-15.1,7.7ZM210.5,372.5l7.1,22.6,9.4-4.8,1.6-5.1c-1.7-3.8-4.5-9.2-6.1-10.4-1.1-1-6.6-1.8-12-2.3Z"/>
    <g>
      <path class="cls-13" d="M63.2,611.2s-.7,6.5-5.1,11.1c-3.5,3.6-4,8.6-4.1,10.7-.2,3,.5,5.3,5.1,5.3h24.5s2.5-4.1,1.5-11.9c-.7-5.2-4.6-16.4-4.6-16.4l-17.3,1.2Z"/>
      <path class="cls-12" d="M84.8,640.3h-25.7c-2.5,0-4.4-.6-5.6-1.9-1.6-1.7-1.6-4-1.5-5.5.3-5.1,1.9-9.1,4.7-12,3.9-4,4.5-9.8,4.6-9.9l.2-1.7,20.6-1.4.5,1.4c.2.5,4,11.4,4.7,16.8,1.1,8.4-1.7,13-1.8,13.2l-.7,1ZM64.9,613.1c-.5,2.4-1.9,7-5.4,10.6-3.1,3.2-3.4,7.9-3.5,9.4-.1,1.3.1,2.1.4,2.5.4.4,1.4.7,2.7.7h23.3c.6-1.5,1.4-4.8.8-9.6-.5-3.9-3-11.4-4-14.6l-14.3,1Z"/>
    </g>
    <path class="cls-12" d="M83.7,634h-29.7c-.6,0-1.1-.5-1.1-1.1s.5-1.1,1.1-1.1h29.7c.6,0,1.1.5,1.1,1.1s-.5,1.1-1.1,1.1Z"/>
    <g>
      <path class="cls-13" d="M145.4,611.8l-.5,22s13.6,2.2,27.7,3.1c17.4,1,28.3-.5,28.3-.5,0,0,1.8-11.7-8.7-13.8-7.6-1.5-16.8-4.1-22.3-8.2s-4.9-6.1-4.9-6.1l-19.6,3.5Z"/>
      <path class="cls-12" d="M184.4,639.2c-3.5,0-7.5-.1-11.9-.4-14.1-.8-27.8-3.1-27.9-3.1l-1.7-.3.6-25.4,24.3-4.4-.7,2.8c.1.4.8,1.8,4.1,4.3,4.1,3.1,11.6,5.8,21.5,7.8,9.8,2,11,11.4,10.3,16.1l-.2,1.5-1.5.2c-.5.1-6.6.9-16.9.9ZM146.9,632.1c4.1.6,14.8,2.1,25.8,2.8,13.2.8,22.7.1,26.3-.3,0-2.8-.7-8.7-7.2-10.1-10.6-2.1-18.4-5-23.1-8.5-3-2.2-4.4-4.1-5.1-5.4l-16.2,3-.5,18.5Z"/>
    </g>
    <path class="cls-13" d="M164.9,532.4c-2-48.6-8.4-114.3-8.5-114.9l-.2-2.1-19.7,1.1-70-11.6-.3,2.2c0,.3-4,5.2-4,5.2,0,0-3.8,39.1-4.6,87.4s3.6,116.4,3.6,116.4l9.4.7,18.4,1.4s1.6-35.7,5.8-65.5c3.1-22.2,11.1-62.6,13.7-72.8,0,0,14.4,37.9,18.4,53.3,4,15.5,3.8,33.3,7.2,51.1,3.6,18.8,8.3,32,8.3,32,0,0,6.1-.4,14.4-1.1,6.5-.6,13.7-2.2,13.7-2.2,0,0-3.6-32.3-5.6-80.6Z"/>
    <path class="cls-5" d="M163,532.7c-2-48.6-6.6-110.8-6.8-113.2l5-3.3-19.7,1.1-70-11.6-.3,2.2c0,.3-1.8,3.6-1.8,3.6,0,0-3.6,40-4.4,88.3-.5,33.7.9,105.3.9,105.3l2.7,11.1,7,1.3,8.3.1s4.7-33.6,8.8-63.4c3.1-22.2,13.1-63.3,15.6-73.4l10,24.1s4.1-2.3,6.3,3.3c8.4,21,13.5,43.8,16.8,66.1,1.5,10.5,3,28.6,3,28.6l7,13.3s2,.7,10.2,0c6.5-.6,7.9-2.9,7.9-2.9,0,0-4.5-32.3-6.5-80.6Z"/>
    <path class="cls-12" d="M85.8,620.4l-1.9-.2c-.1,0-7.3-.6-13.6-1.3-6.3-.7-8.9-1.3-9-1.3l-1.1-.2-4-10.4v-.4c0-.7-1.2-73.1-.6-106.8.8-47.8,4.6-87.2,4.6-87.6l.1-.6.4-.5c1.4-1.7,3.1-3.8,3.6-4.6l.5-3.9,71.8,11.9,21.4-1.2.4,4c0,.5,6,74.5,8,123.4.2,4.3.3,7.9.5,11,.5,13.6.7,17.3,1.6,28.7,2.1,25.1,2.6,33,2.6,33.1l.1,1.7-1.7.4c-.2.1-6.2,1.3-12.7,1.9-4.8.4-9.7.8-11.5.7-1.1-.1-2-1-1.9-2.1s1-1.9,2.1-1.9c1.7.1,7.8-.4,11-.7,4.3-.4,8.4-1.1,10.6-1.5-.2-3.5-.9-12.6-2.4-31.3-1-11.5-1.1-15.2-1.7-28.9-.1-3.1-.3-6.7-.5-11-2-48.9-8-122.6-8-123.2v-.2l-18.1,1-68.2-11.3v.2c-.1.6-.1.9-4,5.7-.5,5.1-3.8,42.2-4.5,86.7-.5,32.5.5,100.8.6,106.3l3,7.7c1.2.2,3.7.6,7.6,1.1,4.3.5,9,.9,11.6,1.2.9-6.8,4-31.2,7.7-56.2,6.5-44.6,12.7-64.2,16.4-75.9.9-2.9,1.6-5.2,2.1-7.2.3-1.1,1.4-1.7,2.4-1.4,1.1.3,1.7,1.4,1.4,2.4-.5,2.1-1.3,4.4-2.2,7.4-3.7,11.6-9.8,31.1-16.3,75.3-4.3,29.4-7.9,57.8-7.9,58.1l-.3,1.9Z"/>
    <path class="cls-12" d="M142.6,612.6c-.7,0-1.4-.4-1.8-1l-3.5-6.5v-.4c0-.2-2.4-22.8-4.2-32-3.4-17.8-4.4-23.2-8.4-38.7-3.9-15.2-17-49.1-17.2-49.5-.4-1,.1-2.2,1.1-2.6,1-.4,2.2.1,2.6,1.1.5,1.4,13.4,34.5,17.3,49.9,4,15.6,5,21,8.4,38.9,1.7,8.8,3.8,28.7,4.2,31.9l3.1,5.8c.5,1,.2,2.2-.8,2.7-.1.3-.5.4-.8.4Z"/>
    <path class="cls-13" d="M175.2,327.3c-3.1-13.3-18.9-32.2-39.9-43.5-17.1-9.2-25.1-16.4-39.4-10.2-14.3,6.1-34.2,30.9-39.8,40.1s-2.1,11.5-2.1,11.5l23.5,6.1s-3.6,11.5-11.5,38.9c-8.4,29.1-13,55.2-13,55.2l110.4,18.4s16.7-95.1,11.8-116.5Z"/>
    <path class="cls-13" d="M175.2,327.3c-3.1-13.3-18.9-32.2-39.9-43.5-17.1-9.2-18.3-13.3-32.6-7.2s-32.7,28.6-38.3,37.8c-5.6,9.2-3.6,13.8-3.6,13.8l16.7,3.1s-3.6,11.5-11.5,38.9c-8.4,29.1-9.9,46.3-9.9,46.3,0,0,3.7,14.4,34.2,18.4,30.5,4,73.1,9,73.1,9,0,0,16.7-95.2,11.8-116.6Z"/>
    <path class="cls-14" d="M175.2,327.3c-3.1-13.3-18.9-32.2-39.9-43.5-17.1-9.2-18.3-13.3-32.6-7.2s-32.7,28.6-38.3,37.8c-5.6,9.2-3.6,13.8-3.6,13.8l22.2,4.6s-3.3,10.5-9.9,34.2c-8.1,29.2-12.5,59.3-12.5,59.3,0,0,7.4,6.2,30.4,9,23.1,2.8,72.4,8.5,72.4,8.5,0,0,16.7-95.1,11.8-116.5Z"/>
    <path class="cls-12" d="M176,335.9c-1.1,0-1.9-.8-2-1.9-.1-2.6-.4-4.7-.8-6.3-1.7-7.4-7.8-16.9-16.4-25.4-.8-.8-.8-2,0-2.8s2-.8,2.8,0c9.2,9.2,15.6,19.1,17.5,27.4.4,1.8.7,4.2.8,7,.1,1.1-.8,2-1.9,2.1.1-.1,0-.1,0-.1Z"/>
    <path class="cls-12" d="M165.1,446.1l-1.9-.3c-.2,0-24.4-3.4-58.3-7.1-32.1-3.5-44.2-9.7-44.7-10l-.5-.3-7-12.4.2-.8c.1-.4,10.1-36.9,15.6-56.9.3-1.1,1.4-1.7,2.5-1.4,1.1.3,1.7,1.4,1.4,2.5-5.1,18.4-13.9,50.7-15.4,56.1l5.6,9.9c2.5,1.2,15.1,6.3,42.8,9.3,28.5,3.1,50.2,6,56.5,6.8,1.9-10.9,11.1-66.1,12.2-97,0-1.1,1-2,2.1-1.9,1.1,0,2,1,1.9,2.1-1.2,34.5-12.5,98.8-12.6,99.5l-.4,1.9Z"/>
    <path class="cls-12" d="M127.8,367.9h-.2c-.6-.1-.9-.7-.8-1.2,2.8-15.2,4.9-27.2,6.2-31.7,5.9-21.4,4.6-33.5,4.6-33.6-.1-.6.3-1.1.9-1.2.6-.1,1.1.3,1.2.9.1.5,1.4,12.6-4.7,34.4-1.2,4.4-3.4,16.4-6.1,31.5-.2.5-.6.9-1.1.9Z"/>
    <path class="cls-13" d="M55.3,316.2c-2,3-3.3,8-3.8,10.4-1.4,7.6.4,13.6,7,18.3,11.6,8.4,33.5,14.9,33.5,14.9l13.4-10.8.1-11.1s-5.5-3.7-12-7.6c-9.4-5.7-16.2-11.7-22.6-15"/>
    <path class="cls-14" d="M63.2,316.4c-5.6,8.6-11.3,23.9-4.7,28.6,11.6,8.4,33.5,14.9,33.5,14.9l13.4-10.9.1-11.1s-5.5-3.7-12-7.6c-9.4-5.7-16.2-11.7-22.6-15"/>
    <path class="cls-12" d="M92.3,362.2l-41.2-17.2-.3-.9c-.1-.4-2.9-9.8-1.4-17.8.1-.7,1.3-6.8,3.8-10.8.5-.9.9-1.7,1.3-2.4,3.7-6,12.7-17.6,22-27.3,5.1-5.3,13.5-11.8,13.8-12.1l.5-.4h.6c1.2-.1,29.4-1.4,46.8,7.9,1,.5,1.3,1.7.8,2.7s-1.7,1.3-2.7.8c-15-8.1-39.9-7.6-44.1-7.5-1.9,1.5-8.7,7-12.9,11.3-9.2,9.4-17.9,20.7-21.5,26.5-.4.6-.8,1.3-1.2,2.2l-.1.2c-1.8,2.7-2.9,7.2-3.3,9.4-1.1,5.7.4,12.6,1,15l37.2,15.6,11.7-9.5-.1-8.8c-4-2.5-19.8-12.6-26.7-17.3h-8.3c-1.1,0-2-.9-2-2s.9-2,2-2h9.7l.5.3c7.5,5,27.9,18,28.1,18.1l.9.6.2,12.9-15.1,12.5Z"/>
    <g>
      <path class="cls-13" d="M92.1,352.2s-.3-10.4,10.8-15.5l17,10.7s8.4-9.3,13.5-10.2c2.2-.4,9.9-1.3,13,0,13,5.4,10.9,15.8,10.9,15.8l-27.4,1.6-14.5,5.6-23.3-8Z"/>
      <path class="cls-12" d="M115.6,362.2l-25.4-8.5v-1.4c0-.5-.3-11.8,12-17.4l1-.4,16.5,10.4c2.6-2.7,8.9-8.8,13.5-9.6.1,0,9.8-1.7,14.2.1,7.4,3.1,10.4,7.7,11.5,11.1,1.3,3.8.7,6.8.6,6.9l-.3,1.5-28.7,1.6-14.9,5.7ZM94.2,350.8l21.3,7.1,14.1-5.4,26-1.5c-.1-2.7-1.3-8.6-9.8-12.1-2.3-.9-8.9-.4-11.9.1-3.2.6-9.3,6.2-12.4,9.6l-1.1,1.2-17.5-11c-6.8,3.7-8.4,9.4-8.7,12Z"/>
    </g>
    <path class="cls-13" d="M235.3,418.3l-31.5-67.9c-2.9-6.3-11.4-11-19-10.5l-62.2,3.5c-3.8.2-6.5,1.8-8.2,3.9-4.2,5.4-11.9,15.6-14.1,19.6-1.3,2.5-2.1,5.3-.6,8.6l31.5,67.9c2.9,6.3,11.4,11,19,10.5l62.2-3.5c3.8-.2,6.5-1.8,8.2-3.9,3.5-4.2,10.2-13.2,14.3-19.9,1.5-2.3,1.9-5.1.4-8.3Z"/>
    <path class="cls-11" d="M235.7,420.7l-29.3-66c-2.9-6.3-4-9.4-8-10.5l-72.5,4.2c-3.8.2-6.5,1.8-8.2,3.9-4.2,5.4-11.9,15.6-14.1,19.6-1.3,2.5-2.1,5.3-.6,8.6l31.5,67.9c2.9,6.3,9.1,5.7,16.7,5.3l59.4-3.5c3.8-.2,11.5-6.1,13.2-8.2,3.5-4.2,10.2-3.7,14.4-10.4,1.3-2.4-1.1-7.8-2.5-10.9Z"/>
    <path class="cls-12" d="M148.3,455.5c-9.2,0-14.3-2.9-17.7-10.2l-32.5-69c-2.1-4.4-.6-8,.6-10.4,2.7-5.1,13.1-18.4,14.2-19.9,2.1-2.8,5.6-4.4,9.6-4.6l63.5-3.3c9.7-.5,14.5,2.1,18.5,10l32.5,69.4c1.6,3.5,1.5,7.1-.4,10.1-4.3,7.1-11.2,16.2-14.5,20.2-1.6,1.9-4.6,4.3-9.6,4.6-2.1.1-55.6,3.1-64.2,3.1ZM188.4,342.1c-.6,0-1.3,0-2,.1l-63.5,3.3c-3.7.2-5.7,1.8-6.7,3.1-4.2,5.3-11.8,15.4-13.9,19.3-1.4,2.6-1.5,4.6-.5,6.8l32.5,69c2.7,5.7,6.5,7.9,14,7.9,8.5,0,63.6-3.1,64.1-3.1,2.8-.2,5.2-1.2,6.7-3.1,3.2-3.9,9.9-12.8,14.1-19.7,1.2-1.9,1.3-4.1.2-6.3l-32.5-69.3c-2.5-5.5-5.1-8-12.5-8Z"/>
    <path class="cls-12" d="M163.3,435c-12.4,0-15.4-4.4-18.5-11.1l-31.5-67.9c-1.5-3.2-1.3-5.7.7-8.4.3-.5,1-.6,1.5-.3.5.3.6,1,.3,1.5-1.3,1.8-1.8,3.5-.5,6.3l31.5,67.9c2.7,5.9,4.7,10.1,17.4,9.9,12.8-.2,62.2-3.5,62.7-3.5,3.3-.2,6-1.4,7.4-3.4.3-.5,1-.6,1.5-.3s.6,1,.3,1.5c-1.8,2.6-5,4.1-9,4.3-.5,0-49.9,3.3-62.8,3.5h-1Z"/>
    <g>
      <g>
        <path class="cls-13" d="M182.8,266c-.8,3-2.7,2.9-2.5,5.3s2,8.7,1.1,10.6c-1.5,3.3-6.2,2.4-6.2,2.4,0,0-5.6,9-8.2,9.4-5.9,1-12.1-2.7-12.1-2.7l-9.6,11.2s-6.6-1.2-12.2-8.2c-5.6-7-7.6-15.6-7.6-15.6,0,0,4.2.5,7.7-3.1,5.2-5.4,6.4-12.7,6.6-17.8.4-10.3,2.9-20.6,6.3-23.9,2.6-2.6,5-2.5,7.5-.8s4.2-.3,6.7-.5c4.5-.3,2.9,2.3,6.7,3.3,3.1.8,4.3-1.5,7.4-1.2,3.2.3,2.5,3,4.6,4.3,2.8,1.8,4.5.7,6.6,1.8,1.7.9,1.9,2.8,1.6,4.2-.8,3.5-3.6,4.9-3.6,4.9,0,0,.5,5.1.5,7.8.1,2.9-.7,6.4-1.3,8.6Z"/>
        <path class="cls-12" d="M146.2,304.5l-1.1-.2c-.3-.1-7.4-1.4-13.4-9-5.8-7.3-7.9-16-7.9-16.4l-.6-2.7,2.8.3c.1,0,3.3.3,6-2.5,3.8-3.8,5.8-9.4,6.1-16.5.4-9.6,2.6-21.1,6.9-25.2,3.1-3,6.5-3.4,10-1.1.8.5,1.2.4,2.5-.1.8-.3,1.8-.6,2.9-.7,3.3-.2,4.5.9,5.6,2.2.5.6.8.9,1.8,1.2.9.3,1.5.1,2.6-.4s2.5-1,4.5-.8c2.9.3,3.9,2.1,4.5,3.3.3.7.6,1.1,1,1.3,1.2.8,2,.8,3,.9s2.2.1,3.5.8c2.2,1.2,3.2,3.7,2.6,6.4-.6,2.8-2.3,4.5-3.5,5.4.1,1.7.4,4.8.4,6.8,0,3.3-1,7.4-1.4,8.9h0c-.5,1.9-1.4,2.9-1.9,3.5s-.5.6-.5,1.1c.1.7.3,1.8.5,2.9.8,4.1,1.3,7,.4,8.7-1.4,3-4.6,3.8-6.9,3.7-2.3,3.7-6.1,8.8-8.8,9.3-4.8.8-9.6-1-11.9-2.2l-9.7,11.1ZM128.3,280.3c.9,2.9,3,8.1,6.5,12.5,3.8,4.7,8,6.6,9.9,7.2l9.9-11.5,1.4.9c.1,0,5.6,3.3,10.7,2.4,1-.4,4.2-4.4,6.8-8.5l.7-1.1,1.3.2s3.2.5,4-1.3c.3-.9-.4-4.5-.7-6.3-.3-1.3-.5-2.5-.5-3.3-.2-2.1.8-3.2,1.4-4,.5-.6.9-1,1.1-2h0c.4-1.4,1.3-5.1,1.3-7.9,0-2.6-.4-7.6-.5-7.6l-.1-1.4,1.2-.6c.1,0,2-1.1,2.6-3.5.1-.4.3-1.6-.6-2-.5-.3-1-.3-1.8-.4-1.2-.1-2.9-.2-4.9-1.5-1.3-.8-1.9-2-2.3-2.8-.5-1-.6-1.1-1.4-1.2-1-.1-1.6.2-2.6.6-1.3.5-2.9,1.2-5.2.6s-3.2-1.8-3.8-2.6c-.5-.7-.7-.8-2.2-.7-.6,0-1.2.3-1.8.5-1.5.6-3.6,1.3-6.1-.3-1.7-1.1-3-1.4-5,.6-2.9,2.8-5.3,12.5-5.7,22.5-.3,8.1-2.7,14.6-7.2,19.1-2.1,2.2-4.6,3.1-6.4,3.4ZM182.8,266h0Z"/>
      </g>
      <path class="cls-12" d="M152.2,270.8h-.2l-5.7-1.1-.1-.8c0-.2-.4-6.1.6-10.1.6-2.5,2.2-4.2,4.2-4.5.9-.2,1.9.1,2.6.7,2.5,1.9,3,7.2,3,7.8s-.4,1.1-1,1.1-1.1-.4-1.1-1c-.2-1.9-.9-5.3-2.2-6.3-.3-.2-.6-.3-1-.3-1.2.2-2.1,1.2-2.5,2.9-.7,2.9-.6,6.9-.6,8.6l4.1.8c.6.1.9.7.8,1.2,0,.6-.4,1-.9,1Z"/>
      <g>
        <path class="cls-12" d="M155.6,262.8s3.6-1.2,5-5.6c.6-2,3.2-6,7.5-6.8,4.8-.9,11.5,1.4,15.4,2.3,0,0,4.8-8,.7-12.2-1.3-1.3-4.8-.4-7.8-1.1-1.2-.3-.9-3.2-2-3.7-1.9-1-5,.2-6.5-.4-2.1-.9-3.6-1.1-5.6-2.4-1.9-1.4-5.9.3-7.5.2-4.9-.5-6.1,1.1-7.6,2.7-6,7-8.3,31.6-8.3,31.6l6.5-1.4s2.9-12.2,5.9-12.4c5.5-.4,4.3,9.2,4.3,9.2Z"/>
        <path class="cls-12" d="M137.8,268.6l.1-1.4c.1-1,2.4-25,8.5-32.1l.1-.1c1.5-1.7,3-3.5,8.4-3,.4,0,1.2-.1,2-.3,1.9-.4,4.3-.8,6,.3,1.2.8,2.2,1.2,3.4,1.6.6.2,1.3.4,2,.7.4.2,1.3.1,2.1,0,1.4-.1,3.1-.3,4.4.4.9.5,1.2,1.6,1.5,2.5.1.4.3,1,.4,1.2,1.1.2,2.3.3,3.5.3,1.9,0,3.7.1,4.7,1.1,4.6,4.7-.3,13.1-.5,13.4l-.4.6-.7-.2c-.9-.2-1.9-.5-3-.7-3.8-1-8.5-2.2-12-1.6-3.9.7-6.2,4.4-6.7,6.1-1.5,4.8-5.5,6.2-5.6,6.2l-1.6.5.2-1.7c.2-1.5.3-5.7-1.3-7.4-.5-.5-1.1-.7-1.9-.7s-3.1,4-4.9,11.6l-.2.6-8.5,2.1ZM152.9,234c-2.8,0-3.7,1-4.8,2.3l-.1.1c-4.9,5.7-7.3,24.3-7.9,29.6l4.5-.9c1-4.2,3.5-12.4,6.7-12.6,1.4-.1,2.7.4,3.6,1.4,1.7,1.8,2,5,1.9,7.1,1-.7,2.1-2,2.8-4,.8-2.4,3.7-6.7,8.3-7.6,4-.8,8.9.5,12.9,1.6.7.2,1.5.4,2.1.5,1-1.9,3.3-7.3.5-10.2-.4-.4-1.9-.5-3.2-.5s-2.7,0-4.1-.4c-1.3-.3-1.6-1.7-1.9-2.6-.1-.4-.3-1.1-.4-1.2-.8-.4-2.1-.3-3.2-.2-1.2.1-2.3.2-3.2-.2-.7-.3-1.3-.5-1.9-.7-1.3-.4-2.5-.9-3.9-1.9-.9-.6-2.8-.3-4.4,0-1,.2-1.9.4-2.7.3-.5.1-1.1.1-1.6.1Z"/>
      </g>
      <path class="cls-12" d="M141.5,268.4c-2,0-3.3-.9-3.4-1-.5-.4-.5-1-.2-1.5.4-.5,1-.5,1.5-.2.1,0,1,.7,2.6.6,2.6-.2,4.1-2.1,4.2-2.1.4-.4,1-.5,1.5-.1.4.4.5,1,.1,1.5-.1.1-2.1,2.5-5.6,2.8-.3,0-.5,0-.7,0Z"/>
      <path class="cls-12" d="M172.4,287.7h-.2c-5.9-1-9.2-4.3-9.4-4.4-.4-.4-.4-1.1,0-1.5s1.1-.4,1.5,0c0,0,3.1,3,8.3,3.9.6.1,1,.6.9,1.2-.1.4-.6.8-1.1.8Z"/>
      <ellipse class="cls-12" cx="171.73" cy="267.93" rx="1.6" ry="1.1" transform="translate(-140.74 207.58) rotate(-46.41)"/>
      <path class="cls-12" d="M177.8,265.3c-.2,0-.4,0-.5-.2-3.8-2.3-8.5-3.2-8.6-3.2-.6-.1-.9-.7-.8-1.2.1-.6.7-.9,1.2-.8.2,0,5.2,1,9.3,3.5.5.3.7.9.4,1.4-.3.4-.6.5-1,.5Z"/>
      <path class="cls-12" d="M172.2,268.7c-.1,0-.3,0-.4-.1-.3-.2-.3-.6-.1-.9.3-.4.5-.7.4-.8h0s-.1-.1-.4-.2c-.9-.3-1.8.1-1.8.1-.3.2-.7,0-.8-.3-.2-.3,0-.7.3-.8.1,0,1.3-.6,2.7-.2.7.2,1.1.5,1.2,1,.3.8-.3,1.5-.6,2-.1.1-.3.2-.5.2Z"/>
    </g>
    <g>
      <line class="cls-2" x1="87.5" y1="325.7" x2="98.3" y2="308.9"/>
      <path class="cls-12" d="M87.5,327.7c-.4,0-.7-.1-1.1-.3-.9-.6-1.2-1.8-.6-2.8l10.7-16.9c.6-.9,1.8-1.2,2.8-.6.9.6,1.2,1.8.6,2.8l-10.7,16.9c-.4.6-1,.9-1.7.9Z"/>
    </g>
    <path class="cls-12" d="M179.4,633.3c-21.9,0-34.9-4.5-35.4-4.7s-.8-.8-.6-1.3.8-.8,1.3-.6c.1,0,13.2,4.5,34.7,4.5,17.8,0,21-.5,21.5-.6.1-.1.3-.1.5-.1.6,0,1.1.5,1.1,1,0,.3-.1.6-.3.8-.4.3-1.1,1-22.8,1ZM200.3,631.5h0ZM200.3,631.5h0ZM200.3,631.5h0Z"/>
    <path class="cls-12" d="M159.3,293.1c-.1,0-.2,0-.4-.1-5.3-1.9-9.6-6.1-9.8-6.3-.4-.4-.4-1.1,0-1.5s1.1-.4,1.5,0c0,0,4.2,4.1,9.1,5.8.5.2.8.8.6,1.3-.2.6-.6.8-1,.8Z"/>
    <g>
      <line class="cls-2" x1="166.2" y1="328.8" x2="158.8" y2="341.4"/>
      <path class="cls-12" d="M158.8,343.4c-.3,0-.7-.1-1-.3-1-.6-1.3-1.8-.7-2.7l7.3-12.6c.6-1,1.8-1.3,2.7-.7,1,.6,1.3,1.8.7,2.7l-7.3,12.6c-.3.6-1,1-1.7,1Z"/>
    </g>
    <path class="cls-12" d="M218.9,380.5c-.5,0-.9-.3-1-.8-.2-.6.2-1.1.7-1.3l7.3-2.1c.6-.2,1.1.2,1.3.7.2.6-.2,1.1-.7,1.3l-7.3,2.1c-.1.1-.2.1-.3.1Z"/>
    <path class="cls-12" d="M220.7,386.4c-.5,0-.9-.3-1-.8-.2-.6.2-1.1.7-1.3l9.1-2.4c.6-.2,1.1.2,1.3.7.2.6-.2,1.1-.7,1.3l-9.1,2.4c-.1.1-.2.1-.3.1Z"/>
    <path class="cls-8" d="M1064.8,488.5h-443.5c-44,0-80-36-80-80v-176.9c0-44,36-80,80-80h443.5c44,0,80,36,80,80v176.9c0,44-36,80-80,80Z"/>
    <g>
      <path class="cls-13" d="M1073.1,314.6c34.2-31.5,34.3-89.2-11.7-95.8,57-146.4-110.7-145-97.6-32.2-38.3-13.7-75,38.1-40.1,80.1-33.9,5.8-70.6,49.1-36.8,112l14.7,11.2,176.8,41.2c66.9-25.7,62.8-106.9-5.3-116.5Z"/>
      <path class="cls-12" d="M1071.3,426.8c-.8,0-1.5-.5-1.8-1.2-.4-1,.1-2.2,1.1-2.6,38.6-16.1,51.5-49.5,47.2-73.8-2-11.4-7.7-21.2-16.3-28.5-9.4-7.9-22.4-12.5-37.4-13.1l-4.8-.2,3.5-3.3c19.3-17.7,28.2-44.9,21.7-66-4.5-14.6-16-24-32.3-26.4l-2.5-.4.9-2.3c17.3-44.4,15.3-80.6-5.5-99.4-14.7-13.2-36.6-15.3-55.7-5.4-24.2,12.5-36.4,39.8-32.5,73.1l.4,3.2-3-1.1c-8.9-3.2-24.3-2.8-36.9,5.7-7.5,5.1-16.6,14.9-17.3,32.8-.5,12.7,6.4,27.6,14.2,36.2,3.4-.5,6.8-.7,9.7-.3,4.5.5,8,2.9,8.6,5.8.3,1.8-.5,3.5-2.2,4.4-2.4,1.3-6.5,2.1-12.2-1.4-1.8-1.1-3.5-2.5-5.3-4.3-5.4,1-10.4,2.5-12.5,3.4-15.4,6.8-28.2,21.2-34.1,38.4-5.1,14.8-7.7,38.9,8.8,69.7.5,1,.2,2.2-.8,2.7s-2.2.2-2.7-.8c-17.2-32-14.5-57.3-9.1-72.9,6.3-18.2,19.8-33.5,36.2-40.7,2-.9,6.2-2.2,11-3.2-7.8-9.5-14.1-24.2-13.6-37.2.7-19.6,10.7-30.4,19-36,10.8-7.3,25.8-10.1,37.5-7.1-3-33.6,10-61.2,35-74.1,20.7-10.7,44.3-8.3,60.3,6,21.7,19.6,24.4,56.5,7.4,101.5,16.6,3.2,28.3,13.3,33.1,28.7,6.6,21.3-1.4,48.3-19.5,67,28.4,2.8,48.5,19.5,52.9,44.5,4.6,25.7-9,61.2-49.6,78.1-.4.5-.6.5-.9.5ZM917.9,258c.7.6,1.5,1.1,2.2,1.6,3.2,2,6,2.4,8.2,1.2.2-.1.2-.2.2-.2,0-.4-1.5-2.2-5.1-2.6-1.6-.2-3.5-.2-5.5,0Z"/>
      <path class="cls-12" d="M996.9,295l-1.4-1.9c-.3-.4-30.5-39.1-51.3-63.4-.7-.8-.6-2.1.2-2.8.8-.7,2.1-.6,2.8.2,18.3,21.4,43.7,53.7,50,61.7,5.8-6.2,26.2-28,43-44.3.8-.8,2.1-.8,2.8,0,.8.8.8,2.1,0,2.8-19.5,19-44.2,45.6-44.4,45.9l-1.7,1.8Z"/>
      <path class="cls-12" d="M997.7,200.7c-.5,0-.9-.2-1.3-.5-.8-.7-.9-2-.2-2.8l30.6-34.7c.7-.8,2-.9,2.8-.2s.9,2,.2,2.8l-30.6,34.7c-.4.4-1,.7-1.5.7Z"/>
      <path class="cls-12" d="M1060.4,369.7c-.4,0-.8-.1-1.1-.4l-20.2-14.2c-.9-.6-1.1-1.9-.5-2.8s1.9-1.1,2.8-.5l20.2,14.2c.9.6,1.1,1.9.5,2.8-.5.6-1.1.9-1.7.9Z"/>
    </g>
    <path class="cls-12" d="M997.4,401.7h0c-1.1,0-2-.9-2-2l.1-257.3c0-1.1.9-2,2-2h0c1.1,0,2,.9,2,2l-.1,257.3c0,1.1-.9,2-2,2Z"/>
    <path class="cls-12" d="M997.8,368.6c-.8,0-1.6-.5-1.9-1.4-.3-1.1.3-2.2,1.3-2.5l73.8-23.1c1-.3,2.2.3,2.5,1.3s-.3,2.2-1.3,2.5l-73.8,23.1c-.2.1-.5.1-.6.1Z"/>
    <g>
      <path class="cls-13" d="M662,279.5h-276.4c-12.3,0-18.9-3.9-17.8-16.8s3.2-36.6,5.1-45.7c2.1-9.9,7.4-16.4,16.4-16.4h195.1c13,0,22.8,5.7,30.7,11,11.2,7.4,54.4,32.5,60.2,42,7.8,12.9.6,25.9-13.3,25.9Z"/>
      <path class="cls-13" d="M662,286.9h-276.4c-6,0-14.6-.7-20.3-6.8-3.9-4.2-5.6-10.3-4.9-17.9,2-23.9,3.8-39.6,5.2-46.6,3-14.1,11.6-22.3,23.6-22.3h195.1c14.6,0,25.8,6.2,34.8,12.2,2.5,1.6,6.8,4.3,11.7,7.4,29.4,18.2,46.1,29.5,50.7,36.9,5.2,8.5,5.7,18.1,1.5,25.6-4.1,7.2-11.9,11.5-21,11.5ZM389.2,208c-1.9,0-7,0-9.2,10.6-1.3,6.2-3.1,22.1-5,44.8-.3,3.3.1,5.7,1.1,6.8.7.8,2.9,2.1,9.4,2.1h276.5c3.7,0,6.7-1.5,8.1-4,1.6-2.9,1.2-6.8-1.2-10.8-3.5-5.8-34.3-24.9-45.8-32-5.3-3.3-9.5-5.9-12.1-7.6-7.1-4.7-15.5-9.7-26.7-9.7h-195.1v-.2Z"/>
    </g>
    <g>
      <path class="cls-13" d="M617.3,270.6h-8.6c-3.4,0-6.2,2.8-6.2,6.2v16.5c0,3.4,2.8,6.2,6.2,6.2h8.6c3.4,0,6.2-2.8,6.2-6.2v-16.5c0-3.4-2.8-6.2-6.2-6.2Z"/>
      <path class="cls-13" d="M617.3,306.9h-8.6c-7.5,0-13.6-6.1-13.6-13.6v-16.5c0-7.5,6.1-13.6,13.6-13.6h8.6c7.5,0,13.6,6.1,13.6,13.6v16.5c0,7.5-6.1,13.6-13.6,13.6ZM609.8,292.2h6.4v-14.3h-6.4v14.3ZM617.3,277.9h0Z"/>
    </g>
    <path class="cls-13" d="M784.2,600.1c-21.6,0-40.5,0-54.6-.2-9-.1-20.5-.2-33.9-.3-112.6-.9-346.9-2.7-377-6.1-42.9-4.8-99.8-14.5-123.3-24.4-14.4-6-21.3-17.8-21.3-36v-40.7l5.7-1.3c9.5-2.1,33.6-8,45.1-12.3.2-10.4.9-34.5,4.2-46.3,6.2-22,31.8-29.2,41.5-31.2l43.8-77.3,1.7-22.4,5.8-.8c1-.1,100.3-14.1,212.8-16.4,108.3-2.1,134,.1,166.5,3l4.9.4c25.9,2.3,52.8,10,80,23.1,53.1,25.6,110.3,65.2,120.6,72.4,17.4,1.6,136,12.8,178.4,21.3,55.6,11.1,88.9,30.1,101.8,58,13,28.2,3.3,75.4.9,85.9l3.7,12.1-9.3,23.3-3.5,1c-.7.2-16.4,4.4-56.4,8.6-31.3,3.3-62.6,5.3-62.9,5.3h-.4c-1.9.1-170.3,1.3-274.8,1.3ZM188.8,504.2v29c0,15.1,5.9,19.7,12.3,22.4,21.3,9,76.1,18.5,119.3,23.4,29.3,3.3,271.9,5.2,375.5,6,13.4.1,24.9.2,33.9.3,81.1.7,320.6-.9,329.1-1,2.7-.2,32.4-2.1,62.1-5.3,28.3-3,44.1-6,50.6-7.4l4.6-11.5-3.4-11,.5-2c.1-.5,12.7-51.7.5-78.2-10.8-23.3-40.6-39.6-91.3-49.7-44-8.8-177.5-21.1-178.8-21.2l-2-.2-1.6-1.2c-.6-.4-62.9-44.7-120.1-72.3-25.6-12.3-50.8-19.6-74.9-21.7l-4.9-.4c-32.1-2.8-57.4-5-164.9-2.9-96,1.9-182.4,12.4-205.2,15.4l-1.1,13.9-49,86.4-3.7.5c-.3,0-28.1,3.9-33,21.2-3,10.7-3.7,37.7-3.7,47.2v4.5l-4.1,2c-9.4,4.7-35,11-46.7,13.8ZM1176.8,577.9h0Z"/>
    <path class="cls-13" d="M303.6,315.9c-12.9,0-25-5.6-33.4-15.4l-61-71.4c-5.3-6.2-13-9.7-21.1-9.7h-63.1v-51.1l68.9-7.7c1.6-.2,3.2-.3,4.9-.3,12.9,0,25,5.6,33.4,15.4l74.7,87.4c5.3,6.2,13,9.7,21.1,9.7h13.3l-12.6,43h-25.1v.1Z"/>
    <path class="cls-13" d="M327.9,281c-10.5,0-20.4-4.6-27.2-12.6l-74.7-87.4c-7.7-9-19.4-13.7-31.2-12.3l-61.8,6.9v35.8h55.2c10.5,0,20.4,4.6,27.2,12.6l61,71.4c6.8,8,16.8,12.6,27.2,12.6h19l7.9-26.9h-2.6v-.1Z"/>
    <path class="cls-6" d="M215.4,223.9l61,71.4c6.8,8,16.8,12.6,27.2,12.6h19l5.2-17.9c-10.5,0-20.4-4.6-27.2-12.6l-74.6-87.4c-7.7-9-19.4-13.7-31.2-12.3l-61.8,6.9v27h55.2c10.5-.2,20.4,4.4,27.2,12.3Z"/>
    <path class="cls-10" d="M215.4,223.9l61,71.4c6.8,8,16.8,12.6,27.2,12.6h19l5.3-19.9c-10.5,0-22.6-1.1-29.3-9.1l-75.5-88c-7.7-9-16.5-14.5-28.3-13.2l-61.8,6.9v27h55.2c10.5-.2,20.4,4.4,27.2,12.3Z"/>
    <polygon class="cls-13" points="282.5 284.5 300.7 268.4 233.6 189.9 215.4 206 282.5 284.5"/>
    <path class="cls-12" d="M324.1,309.9h-20.4c-11.1,0-21.6-4.8-28.8-13.3l-61-71.4c-6.4-7.5-15.8-11.9-25.7-11.9h-57.2v-39.6l63.5-7.1c12.5-1.4,24.8,3.5,32.9,13l74.7,87.4c6.4,7.5,15.8,11.9,25.7,11.9h5.2l-8.9,31ZM277.9,294c6.4,7.5,15.8,11.9,25.7,11.9h17.5l6.7-22.9c-11,0-21.5-4.9-28.7-13.3l-74.7-87.4c-7.3-8.5-18.3-12.9-29.5-11.7l-60,6.7v32.1h53.2c11.1,0,21.6,4.8,28.8,13.3l61,71.3Z"/>
    <path class="cls-12" d="M325.9,297.5h-19.5c-9.1,0-17.6-4-23.5-10.8l-68.3-79.9c-6.6-7.7-16.3-12.2-26.5-12.2h-55.1c-.6,0-1.1-.5-1.1-1.1s.5-1.1,1.1-1.1h55.2c10.8,0,21,4.7,28,12.9l68.3,79.9c5.5,6.4,13.5,10.1,21.9,10.1h19.5c.6,0,1.1.5,1.1,1.1s-.5,1.1-1.1,1.1Z"/>
    <path class="cls-12" d="M215.4,207.1c-.3,0-.6-.1-.8-.4-.4-.4-.3-1.1.1-1.5l18.2-16.1c.4-.4,1.1-.3,1.5.1s.3,1.1-.1,1.5l-18.2,16.1c-.2.2-.4.3-.7.3Z"/>
    <path class="cls-12" d="M283.2,285.3c-.3,0-.6-.1-.8-.4-.4-.4-.3-1.1.1-1.5l18.2-16.1c.4-.4,1.1-.3,1.5.1s.3,1.1-.1,1.5l-18.2,16.1c-.2.2-.4.3-.7.3Z"/>
    <g>
      <path class="cls-13" d="M662,279.5h-276.4c-12.3,0-18.9-3.9-17.8-16.8s3.2-36.6,5.1-45.7c2.1-9.9,7.4-16.4,16.4-16.4h195.1c13,0,22.8,5.7,30.7,11,11.2,7.4,54.4,32.5,60.2,42,7.8,12.9.6,25.9-13.3,25.9Z"/>
      <path class="cls-12" d="M662,281.5h-276.4c-7.9,0-13.1-1.6-16.3-5.1-2.9-3.1-4-7.7-3.5-13.9,1.4-16.3,3.4-37.5,5.1-45.9,2.5-11.6,9-18,18.4-18h195.1c13.1,0,23,5.4,31.8,11.3,2.5,1.7,6.9,4.4,11.9,7.5,23.3,14.4,44.6,28,48.9,35.1,4.1,6.8,4.7,14.4,1.4,20.2-3.2,5.6-9.1,8.8-16.4,8.8ZM389.2,202.6c-9.4,0-13,8.1-14.5,14.8-1.4,6.5-3.1,22.2-5.1,45.4-.4,5,.4,8.6,2.5,10.8,2.4,2.6,6.6,3.8,13.4,3.8h276.5c5.7,0,10.4-2.5,12.8-6.7,2.6-4.6,2.1-10.5-1.3-16.2-4.2-6.9-31.4-23.7-47.6-33.8-5-3.1-9.4-5.8-12-7.6-8.3-5.5-17.6-10.6-29.6-10.6h-195.1v.1Z"/>
    </g>
    <g>
      <path class="cls-13" d="M438.4,270.6h-8.6c-3.4,0-6.2,2.8-6.2,6.2v16.5c0,3.4,2.8,6.2,6.2,6.2h8.6c3.4,0,6.2-2.8,6.2-6.2v-16.5c0-3.4-2.7-6.2-6.2-6.2Z"/>
      <path class="cls-12" d="M438.4,301.6h-8.6c-4.5,0-8.2-3.7-8.2-8.2v-16.5c0-4.5,3.7-8.2,8.2-8.2h8.6c4.5,0,8.2,3.7,8.2,8.2v16.5c0,4.5-3.6,8.2-8.2,8.2ZM429.8,272.6c-2.3,0-4.2,1.9-4.2,4.2v16.5c0,2.3,1.9,4.2,4.2,4.2h8.6c2.3,0,4.2-1.9,4.2-4.2v-16.5c0-2.3-1.9-4.2-4.2-4.2h-8.6Z"/>
    </g>
    <g>
      <path class="cls-13" d="M617.3,270.6h-8.6c-3.4,0-6.2,2.8-6.2,6.2v16.5c0,3.4,2.8,6.2,6.2,6.2h8.6c3.4,0,6.2-2.8,6.2-6.2v-16.5c0-3.4-2.8-6.2-6.2-6.2Z"/>
      <path class="cls-12" d="M617.3,301.6h-8.6c-4.5,0-8.2-3.7-8.2-8.2v-16.5c0-4.5,3.7-8.2,8.2-8.2h8.6c4.5,0,8.2,3.7,8.2,8.2v16.5c0,4.5-3.7,8.2-8.2,8.2ZM608.7,272.6c-2.3,0-4.2,1.9-4.2,4.2v16.5c0,2.3,1.9,4.2,4.2,4.2h8.6c2.3,0,4.2-1.9,4.2-4.2v-16.5c0-2.3-1.9-4.2-4.2-4.2h-8.6Z"/>
    </g>
    <path class="cls-13" d="M1179.6,573.7c-25.8,13.5-120.6,17.9-120.6,17.9l-755.3-3.4s-55.3-12.3-105.5-25.8c-9.7-2.6-16.8-11.2-16.8-29.2v-34.8l11-16.2s-1.2-27.7,4.9-48.2c2.8-9.4,15-20.3,42.6-25.9,10.7-2.2,23.8-8.4,23.8-8.4l50.3-77.6,10.5-15.4s97.1-12.7,210.5-14.9c113.4-2.2,136.1.4,170.6,3.4,25.8,2.2,51.6,10.1,77.4,22.4,25.8,12.3,121.2,73,121.2,73,0,0,134.7,12.3,179.6,21.3,44.9,9,83.1,24.7,96.5,53.9,13.5,29.2,0,83.1,0,83.1,0,0,13.6,17.3-.7,24.8Z"/>
    <path class="cls-10" d="M1177.5,576.5l-39.1,9.1-78,6-218.9-1-111.8,1.2-398.2-2.1s-68.4-10-118.1-23.1c-9.6-2.5-21.7-14.2-21.7-31.5v-33.6s0-8.7,11.1-14.1v-47.7c0-20.6,21-26.7,21-26.7l24.5-4.9,83.4-79.6.5-13.4s104.1-14,211-16.1c112.2-2.2,146,2.1,172.6,5.6,25.4,3.3,45.9,10.3,71.4,22.3,25.5,11.9,120,70.5,120,70.5,0,0,133.3,11.9,177.7,20.6,44.4,8.7,82.2,23.9,95.5,52.1,13.3,28.2,0,80.2,0,80.2l4.2,11.5-7.1,14.7Z"/>
    <path class="cls-12" d="M480.4,591c-1.1,0-2-.9-2-2v-21c0-55.6-45.2-100.8-100.8-100.8s-100.7,45.2-100.7,100.8v11.2c0,1.1-.9,2-2,2s-2-.9-2-2v-11.2c0-57.8,47-104.8,104.8-104.8s104.8,47,104.8,104.8v21c-.1,1.1-1,2-2.1,2Z"/>
    <path class="cls-12" d="M903.5,591.3c-1.1,0-2-.9-2-2v-21.3c0-57.8,47-104.8,104.8-104.8s104.8,47,104.8,104.8l.7,18.9c0,1.1-.8,2-1.9,2.1h-.1c-1.1,0-2-.8-2-1.9l-.7-19c0-55.6-45.2-100.8-100.8-100.8s-100.8,45.2-100.8,100.8v21.3c0,1-.9,1.9-2,1.9Z"/>
    <path class="cls-13" d="M302.1,389.2s21.3-25.7,37-39.1c15.7-13.5,31.4-27.9,31.4-27.9,0,0,142.5-19,292.9-11.2,41.8,2.2,68.1,13.5,96.5,28.1,43.8,22.4,73.6,49.3,73.6,49.3l13.5,17-509.1-16.9-35.8.7Z"/>
    <path class="cls-12" d="M852.9,407.5l-5-.3c-1.2-.1-119.4-7.2-269.9-10.4-195.4-4.1-277.9-3.5-278.7-3.5h-4.3l2.7-3.3c.1-.2,13.6-16.4,35.1-37.2,20.1-19.4,34.2-30.8,34.4-30.9l.4-.3.5-.1c1.1-.2,111.9-16.1,292.5-12.6,60.8,1.2,69.5,8.1,81.5,17.7,4.2,3.4,8.6,6.9,15.9,10.6,39.2,20.1,57.6,35.8,67.5,44.3,1.2,1,2.2,1.9,3.2,2.7,10.7,8.8,20.7,19.6,20.8,19.7l3.4,3.6ZM314.4,389.3c31.8,0,115.1.4,263.7,3.5,133,2.8,240.8,8.7,265,10.1-3.8-3.9-10.2-10.2-16.9-15.7-.9-.8-2-1.7-3.2-2.7-9.8-8.4-28-23.9-66.8-43.8-7.7-3.9-12.4-7.7-16.6-11-11.4-9.1-19.6-15.7-79.1-16.8-173.8-3.3-282.8,11.3-291.3,12.5-2.5,2-15.7,12.9-33.7,30.3-15.7,15.1-27,27.8-32,33.6h10.9Z"/>
    <path class="cls-13" d="M1086,437.8s18,20.2,23.6,25.8,12.3,7.9,30.3,7.9,43.8-1.1,43.8-1.1l-19.4-26.6-78.3-6Z"/>
    <path class="cls-13" d="M761.6,308.7l-20.2,4.5s97.1,58.2,132.9,89.3c0,0,19.8-4,29.9-11.9"/>
    <path class="cls-12" d="M873.8,405.4l-.8-.6c-52.4-43.4-131.8-89.3-132.6-89.8l-4.4-2.6,25.2-5.6c1.1-.2,2.1.4,2.4,1.5s-.4,2.1-1.5,2.4l-15.2,3.4c17.4,10.3,82.5,49.4,127.9,87,4-1,19.8-5.4,28.2-11.9.9-.7,2.1-.5,2.8.4s.5,2.1-.3,2.8c-10.3,8-29.8,12.7-30.7,12.9l-1,.1Z"/>
    <path class="cls-12" d="M409.2,471.2c-1.1,0-2-.9-2-1.9,0-.3-.9-30.7.4-50.1.9-12.6,4.1-26.9,4.2-27.5.2-1.1,1.3-1.7,2.4-1.5s1.8,1.3,1.5,2.4c0,.1-3.3,14.7-4.1,27-1.4,19.2-.4,49.4-.4,49.7.1.9-.8,1.9-2,1.9.1,0,0,0,0,0Z"/>
    <path class="cls-12" d="M643.7,592.4h-.2c-1.1-.1-1.9-1-1.8-2.1,2.3-30.1-.1-98.9-5.5-153.4-5.5-56.4-22.2-124.7-22.4-125.4-.3-1.1.4-2.2,1.5-2.4,1.1-.3,2.2.4,2.4,1.5.2.7,16.9,69.3,22.5,126,5.5,55.6,7.9,123.3,5.5,154.1-.1.9-.9,1.7-2,1.7Z"/>
    <path class="cls-12" d="M884.1,456.9c-1.1,0-2-.9-2-2-.1-8.1,0-9.8,0-10.5v-.4c-.1-.7-.3-2.3-.7-7.2-1.2-14.1-8.6-32.5-8.7-32.7-.4-1,.1-2.2,1.1-2.6s2.2.1,2.6,1.1c.3.8,7.7,19.1,9,33.8.4,4.8.6,6.4.7,7,.1.5.1.7,0,1.1,0,.5-.1,2.2,0,10.2,0,1.3-.9,2.2-2,2.2h0Z"/>
    <path class="cls-12" d="M449.6,443.3c-8.1,0-12.3-4.5-12.3-8.9s4.1-8.9,13.4-8.9h47.1c.6,0,1.1.5,1.1,1.1s-.5,1.1-1.1,1.1h-47.1c-7.8,0-11.3,3.4-11.3,6.8s3.5,6.8,10.2,6.8c.6,0,1.1.5,1.1,1.1s-.5.9-1.1.9Z"/>
    <path class="cls-13" d="M193.1,454.2s36.5,3.4,60.8-3.5c24.5-7,25.2-27.2,25.2-27.2,0,0-26,1.1-35.6,0-12.6-1.4-8.4-15.4-8.4-15.4,0,0-7.7.7-20.3,6.3-22.4,9.9-21.7,39.8-21.7,39.8Z"/>
    <path class="cls-12" d="M435.5,416.8h0c-82.1-3.3-163.7-2.9-164.5-2.9h0c-.6,0-1-.5-1.1-1,0-.6.5-1.1,1-1.1.8,0,82.4-.4,164.6,2.9.6,0,1,.5,1,1.1s-.4,1-1,1Z"/>
    <path class="cls-12" d="M784.2,594.7c-21.6,0-40.5,0-54.6-.2-9-.1-20.5-.2-33.9-.3-112.5-.9-346.6-2.7-376.5-6-42.5-4.8-98.8-14.3-121.9-24-12.3-5.2-18.1-15-18.1-31v-34.8c0-.4.1-9.7,11.2-15.8,0-6.4.4-35.7,4-48.5,6.1-21.8,35.2-27.1,40.1-27.9l84.9-80.8,1.5-19,1.6-.2c1-.1,100-14.1,212.1-16.3,108-2.1,133.6.1,165.9,2.9l4.9.4c25.3,2.2,51.5,9.8,78.1,22.6,55.4,26.7,115.3,68.8,121.1,72.8,9.3.9,136.2,12.7,179.2,21.3,53.8,10.8,85.8,28.7,97.9,55,13,28.2,1.7,77.7.3,83.8l3.6,11.7-7.6,19-1,.3c-.6.2-16,4.3-55.5,8.4-31.2,3.3-62.3,5.3-62.6,5.3h-.1c-1.8.1-170.2,1.3-274.6,1.3ZM324.9,309.9l-1.3,17.3-87,82.7-.6.1c-.3,0-31.6,4.3-37.5,25.1-3.8,13.6-3.9,48.3-3.9,48.6v1.2l-1.1.6c-9.9,4.9-10.1,12.5-10.1,12.8v34.8c0,18.4,8.3,24.3,15.6,27.3,22.7,9.6,78.5,19,120.8,23.7,29.6,3.3,263.6,5.1,376,6,13.4.1,24.9.2,33.9.3,81.8.7,324.4-1,329.3-1,1.5-.1,31.9-2.1,62.4-5.3,33.8-3.6,50-7.1,53.9-8.1l6.3-15.9-3.5-11.4.1-.5c.1-.5,13.1-53.5.1-81.7-11.5-25-42.6-42.3-95.1-52.8-44.3-8.9-178-21.2-179.4-21.3h-.5l-.4-.3c-.6-.4-63.3-45-120.9-72.8-26.2-12.6-52-20.1-76.7-22.3l-4.9-.4c-32.2-2.8-57.7-5.1-165.5-2.9-104.1,2.2-196.9,14.4-210,16.2ZM1176.8,577.9h0Z"/>
    <path class="cls-12" d="M215.8,456.4c-14.4,0-21.8-1.8-22.3-1.9-.6-.1-.9-.7-.8-1.3.1-.6.7-.9,1.3-.8.2,0,17,4.1,49.2,0,28-3.6,33.5-22.6,34.5-27.6-4.6.1-21.2.2-33-.4-3.9-.2-6.8-1.6-8.6-4.1-3.5-4.9-1.5-12.3-1.4-12.6.2-.6.7-.9,1.3-.7.6.2.9.7.7,1.3,0,.1-1.8,6.7,1.1,10.8,1.4,2,3.8,3.1,7,3.2,13.8.7,34,.4,34.2.4h1.2l-.1,1.2c0,.3-3.3,26.4-36.5,30.6-11.2,1.5-20.4,1.9-27.8,1.9Z"/>
    <path class="cls-12" d="M276.2,548.9h-.2l-94.8-14.6c-.6-.1-1-.6-.9-1.2.1-.6.6-1,1.2-.9l94.8,14.6c.6.1,1,.6.9,1.2,0,.5-.5.9-1,.9Z"/>
    <path class="cls-12" d="M891.7,564.9c-.9,0-87,0-177.5-1.4s-231.9-2.1-233.3-2.1c-.6,0-1-.5-1-1.1s.5-1,1.1-1h0c1.4,0,142.9.7,233.4,2.1,90.5,1.4,176.6,1.4,177.4,1.4.6,0,1.1.5,1.1,1.1s-.6,1-1.2,1Z"/>
    <path class="cls-12" d="M1109.4,561.4c-.6,0-1-.5-1-1,0-.6.4-1.1,1-1.1l58.7-1.4,11.5-9.9c.4-.4,1.1-.3,1.5.1.4.4.3,1.1-.1,1.5l-12.1,10.3-59.5,1.5h0Z"/>
    <path class="cls-12" d="M677,262.8h-308.6c-.6,0-1.1-.5-1.1-1.1s.5-1.1,1.1-1.1h308.6c.6,0,1.1.5,1.1,1.1s-.6,1.1-1.1,1.1Z"/>
    <path class="cls-12" d="M615.9,247h-153.6c-8.7,0-11-5-12.9-9l-.3-.5c-6.1-12.6-15.1-35.6-15.2-35.9-.2-.5.1-1.1.6-1.4.5-.2,1.1.1,1.4.6.1.2,9.1,23.2,15.2,35.7l.3.5c1.9,4,3.7,7.8,11,7.8h153.7c7,0,10.9-2.5,11-2.6l.1-.1,19.7-10.5c.5-.3,1.1-.1,1.4.4.3.5.1,1.1-.4,1.4l-19.9,10.8c-.5.3-4.7,2.8-12.1,2.8Z"/>
    <path class="cls-13" d="M708.9,658.1c-3,0-7.5-.1-13.8-.5-12.9-.9-16.8-1.7-17.7-1.9l-4.4-1.2-.6-4.5c-.2-1.4-4.7-36.1-4.1-93,1-90.9,10.7-129.3,11.2-130.9l1.5-5.7,108.5,12.2,1,20.7v.2c-.4,21.6-.2,81.3,4.9,97.4,1.4,4.4,19.4,40.3,35.7,71.7l2.7,5.1-4.6,3.5c-.4.3-9.3,7-16.8,11.1-7.9,4.3-16.3,6.3-16.7,6.3l-5.1,1.2-2.5-4.6c-.2-.3-17.2-32.1-33.8-58.9-5.8-9.4-14.2-32.9-21.3-54.7-1.1,4.5-2.3,9.8-3.8,15.8-6.6,27.2-9,103.2-9.1,103.9l-.2,5.9-5.9.7c-.1,0-1.7.2-5.1.2ZM685.4,643c2.3.3,5.8.6,10.6.9,4.7.3,8.2.4,10.8.5.8-19.4,3.4-76.2,9.2-100.2s8.4-35.2,9.1-37.9c-3.2-10.4-5.4-17.8-5.6-18.8-1.1-3.6,1-7.4,4.6-8.5s7.4,1,8.5,4.6c6.3,21.6,24.6,80.9,33.5,95.4,12.9,20.9,26,44.7,31.5,54.7,2.4-.8,5.4-2,8.3-3.6,3.5-1.9,7.5-4.5,10.5-6.6-9.1-17.6-31.8-62-33.9-68.7-6.6-21.1-5.6-95.8-5.5-101.5l-.4-8.7-84.9-9.5c-2.7,13.7-8.7,52.3-9.5,121.8-.6,43.7,2,74.5,3.2,86.1Z"/>
    <g>
      <path class="cls-13" d="M822.2,395.4s10.5,37.9,15.1,54.3c4.5,16.4,14.3,16.2,14.5,25.9.2,8.8-16.4,12.8-21.8,12.6-2.9-.1-5.2-1-7.2-5.6-.9-2.1-1.7-5.8-1-8.2-2-8.7,1.7-16.2,1.7-16.2l-22.7-55.9,21.4-6.9Z"/>
      <path class="cls-13" d="M830.2,494h-.5c-5.7-.2-9.6-3.1-12.3-9-1.2-2.7-2.2-6.8-1.6-10.6-1.2-6.9.2-12.9,1.4-16.2l-24.2-59.5,33.1-10.6,1.6,5.8s10.5,37.9,15.1,54.3c2,7.2,5,10.4,7.9,13.5,3.1,3.3,6.6,7,6.8,13.9.1,2.5-.7,6.3-4.3,9.9-6.2,6.1-17.9,8.5-23,8.5ZM829.3,482.4s.2.1.8.1c3.3.1,11.7-2,15-5.2.6-.6.9-1.1.9-1.5,0-2.3-.9-3.3-3.6-6.1-3.3-3.5-7.9-8.4-10.7-18.3-3.4-12.4-10.3-37.2-13.4-48.5l-9.8,3.1,21.3,52.5-1.1,2.3s-2.7,5.9-1.2,12.4l.3,1.5-.5,1.5c-.2.6.1,2.7.8,4.1.7,1.7,1.2,2.1,1.2,2.1h0Z"/>
    </g>
    <g>
      <circle class="cls-13" cx="377.8" cy="568" r="86.4"/>
      <path class="cls-12" d="M377.8,656.4c-48.8,0-88.4-39.7-88.4-88.4s39.7-88.4,88.4-88.4,88.4,39.7,88.4,88.4-39.6,88.4-88.4,88.4ZM377.8,483.5c-46.6,0-84.4,37.9-84.4,84.4s37.9,84.4,84.4,84.4,84.4-37.9,84.4-84.4-37.8-84.4-84.4-84.4Z"/>
    </g>
    <path class="cls-12" d="M377.8,582c-7.7,0-14-6.3-14-14s6.3-14,14-14,14,6.3,14,14-6.3,14-14,14ZM377.8,558c-5.5,0-10,4.5-10,10s4.5,10,10,10,10-4.5,10-10-4.5-10-10-10Z"/>
    <path class="cls-12" d="M1007.4,629.1c-33.7,0-61.1-27.4-61.1-61.1s27.4-61.1,61.1-61.1,61.1,27.4,61.1,61.1-27.4,61.1-61.1,61.1ZM1007.4,510.8c-31.5,0-57.1,25.6-57.1,57.1s25.6,57.1,57.1,57.1,57.1-25.6,57.1-57.1-25.6-57.1-57.1-57.1Z"/>
    <path class="cls-12" d="M1181,474.1c-.2,0-18.5,0-41.2-1.6-17.8-1.2-25.1-2.3-31-8.2s-23.4-25.7-23.6-25.9c-.4-.4-.3-1.1.1-1.5s1.1-.3,1.5.1c.2.2,18,20.2,23.5,25.8,5.4,5.4,12,6.3,29.6,7.6,22.7,1.6,40.9,1.6,41.1,1.6.6,0,1.1.5,1.1,1.1s-.5,1-1.1,1Z"/>
    <path class="cls-12" d="M861,428h0c-.3,0-29.3-.8-143.3-5.6-98.1-4.2-179.4-4.9-180.2-4.9-.6,0-1-.5-1-1.1s.5-1,1.1-1h0c.8,0,82.2.7,180.3,4.9,114,4.8,142.9,5.6,143.2,5.6.6,0,1,.5,1,1.1-.1.5-.5,1-1.1,1Z"/>
    <path class="cls-12" d="M1162.8,444.8h-.2c-.5-.1-54.7-8-185-13.3-.6,0-1-.5-1-1.1s.5-1,1.1-1c130.4,5.3,184.7,13.2,185.3,13.3.6.1,1,.6.9,1.2-.1.5-.6.9-1.1.9Z"/>
    <g>
      <g class="cls-15">
        <path class="cls-13" d="M378.5,481.4c-47.8,0-86.6,38.8-86.6,86.6s38.8,86.6,86.6,86.6,86.6-38.8,86.6-86.6-38.8-86.6-86.6-86.6ZM378.5,633.5c-36.2,0-65.5-29.3-65.5-65.5s29.3-65.5,65.5-65.5,65.5,29.3,65.5,65.5c-.1,36.2-29.4,65.5-65.5,65.5Z"/>
      </g>
      <circle class="cls-13" cx="378.5" cy="568.1" r="65.5"/>
      <path class="cls-12" d="M369.9,622.4l-1.2-.2c-16.5-3-30.6-13.2-38.6-28l-.6-1.1,34.2-11.1c-3.5-3.7-5.5-8.7-5.5-13.8,0-.8.1-1.6.2-2.5l-34.1,11.1-.2-1.2c-.3-2.5-.5-5-.5-7.4,0-14.2,5.4-27.7,15.2-38l.9-.9,21.1,29c2.9-5.2,8-8.9,13.9-10.1l-21.1-29,1.1-.5c7.5-3.6,15.5-5.4,23.9-5.4s16.4,1.8,23.9,5.4l1.1.5-21.1,29c5.9,1.1,11,4.9,13.9,10.1l21.1-29,.9.9c9.8,10.3,15.2,23.8,15.2,38,0,2.4-.2,4.9-.5,7.4l-.2,1.2-34.1-11.1c.1.8.2,1.6.2,2.5,0,5.1-2,10.1-5.5,13.8l34.2,11.1-.6,1.1c-8,14.8-22.1,25-38.6,28l-1.2.2v-35.9c-5.4,2.5-11.8,2.5-17.2,0v35.9h-.2ZM389.2,582.9v36.9c14.9-3.1,27.7-12.3,35.3-25.6l-35.1-11.4,1.4-1.2c3.8-3.5,6-8.4,6-13.5,0-1.3-.1-2.5-.4-3.8l-.4-1.8,35.1,11.4c.2-2,.3-3.9.3-5.8,0-13.2-4.9-25.8-13.8-35.6l-21.7,29.9-.7-1.7c-2.6-5.9-8.3-10-14.7-10.7l-1.8-.2,21.7-29.9c-6.9-3.1-14.2-4.7-21.8-4.7s-14.9,1.6-21.8,4.7l21.7,29.9-1.8.2c-6.4.7-12.1,4.8-14.7,10.7l-.7,1.7-21.7-29.9c-8.9,9.8-13.8,22.4-13.8,35.6,0,1.9.1,3.9.3,5.8l35.1-11.4-.4,1.8c-.3,1.3-.4,2.5-.4,3.8,0,5.1,2.2,10.1,6,13.5l1.4,1.2-35.1,11.4c7.6,13.3,20.3,22.5,35.3,25.6v-36.9l1.6.9c5.5,3.2,12.7,3.2,18.2,0l1.4-.9Z"/>
      <path class="cls-12" d="M378.5,656.7c-48.9,0-88.6-39.8-88.6-88.6s39.8-88.6,88.6-88.6,88.6,39.8,88.6,88.6-39.7,88.6-88.6,88.6ZM378.5,483.4c-46.7,0-84.6,38-84.6,84.6s38,84.6,84.6,84.6,84.6-38,84.6-84.6-37.9-84.6-84.6-84.6Z"/>
      <path class="cls-12" d="M378.5,635.5c-37.2,0-67.5-30.3-67.5-67.5s30.3-67.5,67.5-67.5,67.5,30.3,67.5,67.5-30.3,67.5-67.5,67.5ZM378.5,504.6c-35,0-63.5,28.5-63.5,63.5s28.5,63.5,63.5,63.5,63.5-28.5,63.5-63.5-28.5-63.5-63.5-63.5Z"/>
      <path class="cls-12" d="M378.5,589.3c-2.2,0-4.4-.3-6.6-1.1-5.4-1.8-9.8-5.5-12.4-10.6s-3-10.8-1.3-16.2c3.6-11.1,15.6-17.3,26.8-13.6h0c11.1,3.6,17.3,15.6,13.6,26.8-1.8,5.4-5.5,9.8-10.6,12.4-2.9,1.6-6.2,2.3-9.5,2.3ZM378.5,550.8c-7.3,0-14.1,4.6-16.4,11.9-1.4,4.4-1.1,9.1,1,13.2,2.1,4.1,5.7,7.2,10,8.6s9.1,1.1,13.2-1,7.2-5.7,8.6-10c2.9-9-2-18.8-11.1-21.7h0c-1.7-.7-3.5-1-5.3-1Z"/>
      <path class="cls-12" d="M378.4,589.3c-4.5,0-8.8-1.4-12.4-4.1-9.5-6.9-11.6-20.2-4.7-29.7h0c6.9-9.5,20.2-11.6,29.7-4.7,4.6,3.3,7.6,8.3,8.5,13.9.9,5.6-.5,11.2-3.8,15.8s-8.3,7.6-13.9,8.5c-1.1.2-2.2.3-3.4.3ZM364.5,557.9c-5.6,7.7-3.9,18.5,3.8,24.1,3.7,2.7,8.3,3.8,12.8,3.1,4.6-.7,8.6-3.2,11.3-6.9,2.7-3.7,3.8-8.3,3.1-12.8-.7-4.6-3.2-8.6-6.9-11.3-7.7-5.6-18.5-3.9-24.1,3.8h0Z"/>
      <path class="cls-12" d="M378.5,589.3c-6.6,0-13.1-3-17.2-8.8h0c-3.3-4.6-4.7-10.2-3.8-15.8s3.9-10.5,8.5-13.9c4.6-3.3,10.2-4.7,15.8-3.8,5.6.9,10.5,3.9,13.9,8.5,6.9,9.5,4.8,22.8-4.7,29.7-3.8,2.8-8.2,4.1-12.5,4.1ZM364.5,578.2c5.6,7.7,16.4,9.4,24.1,3.8,7.7-5.6,9.4-16.4,3.8-24.1-2.7-3.7-6.7-6.2-11.3-6.9-4.6-.7-9.1.4-12.8,3.1-3.7,2.7-6.2,6.7-6.9,11.3-.7,4.5.4,9.1,3.1,12.8h0Z"/>
      <path class="cls-12" d="M378.5,589.3c-3.3,0-6.6-.8-9.6-2.3-5.1-2.6-8.8-7-10.6-12.4-3.6-11.1,2.5-23.2,13.6-26.8s23.2,2.5,26.8,13.6c1.8,5.4,1.3,11.2-1.3,16.2s-7,8.8-12.4,10.6c-2.1.8-4.3,1.1-6.5,1.1ZM378.5,550.8c-1.8,0-3.6.3-5.3.8-9,2.9-14,12.7-11.1,21.7,1.4,4.4,4.5,8,8.6,10,4.1,2.1,8.8,2.5,13.2,1h0c4.4-1.4,8-4.5,10-8.6,2.1-4.1,2.5-8.8,1-13.2-2.4-7-9.1-11.7-16.4-11.7Z"/>
      <path class="cls-13" d="M378.5,595.7c-15.2,0-27.7-12.4-27.7-27.7s12.4-27.7,27.7-27.7,27.7,12.4,27.7,27.7-12.5,27.7-27.7,27.7ZM378.5,557.2c-6,0-10.8,4.9-10.8,10.8s4.9,10.8,10.8,10.8,10.8-4.9,10.8-10.8-4.8-10.8-10.8-10.8Z"/>
      <path class="cls-12" d="M378.5,589.3c-11.7,0-21.2-9.5-21.2-21.2s9.5-21.2,21.2-21.2,21.2,9.5,21.2,21.2-9.5,21.2-21.2,21.2ZM378.5,550.8c-9.5,0-17.3,7.7-17.3,17.3s7.7,17.3,17.3,17.3,17.3-7.7,17.3-17.3-7.8-17.3-17.3-17.3Z"/>
    </g>
    <g>
      <g class="cls-16">
        <path class="cls-13" d="M1007.3,481.4c-47.8,0-86.6,38.8-86.6,86.6s38.8,86.6,86.6,86.6,86.6-38.8,86.6-86.6-38.8-86.6-86.6-86.6ZM1007.3,633.5c-36.2,0-65.5-29.3-65.5-65.5s29.3-65.5,65.5-65.5,65.5,29.3,65.5,65.5-29.4,65.5-65.5,65.5Z"/>
      </g>
      <circle class="cls-13" cx="1007.3" cy="568.1" r="65.5" transform="translate(285.18 1471.39) rotate(-80.78)"/>
      <path class="cls-12" d="M1015.9,622.4v-35.9c-5.4,2.5-11.8,2.5-17.2,0v35.9l-1.2-.2c-16.5-3-30.6-13.2-38.6-28l-.6-1.1,34.2-11.1c-3.5-3.7-5.5-8.7-5.5-13.8,0-.8.1-1.6.2-2.5l-34.2,11-.2-1.2c-.3-2.5-.5-5-.5-7.4,0-14.2,5.4-27.7,15.2-38l.9-.9,21.1,29c2.9-5.2,8-8.9,13.9-10.1l-21.1-29,1.1-.5c7.5-3.6,15.5-5.4,23.9-5.4s16.4,1.8,23.9,5.4l1.1.5-21.1,29c5.9,1.1,11,4.9,13.9,10.1l21.1-29,.9.9c9.8,10.3,15.2,23.8,15.2,38,0,2.4-.2,4.9-.5,7.4l-.2,1.2-34.1-11.1c.1.8.2,1.7.2,2.5,0,5.1-2,10.1-5.5,13.8l34.2,11.1-.6,1.1c-8,14.8-22.1,25-38.6,28l-1.3.3ZM961.4,594.2c7.6,13.3,20.3,22.5,35.3,25.6v-36.9l1.6.9c5.5,3.2,12.7,3.2,18.2,0l1.6-.9v36.9c14.9-3.1,27.7-12.3,35.3-25.6l-35.1-11.4,1.4-1.2c3.8-3.5,6-8.4,6-13.5,0-1.3-.1-2.5-.4-3.8l-.4-1.8,35.1,11.4c.2-2,.3-3.9.3-5.8,0-13.2-4.9-25.8-13.8-35.6l-21.7,29.9-.7-1.7c-2.6-5.9-8.3-10-14.7-10.7l-1.8-.2,21.7-29.9c-6.9-3.1-14.2-4.7-21.8-4.7s-14.9,1.6-21.8,4.7l21.7,29.9-1.8.2c-6.4.7-12.1,4.8-14.7,10.7l-.7,1.7-21.7-29.9c-8.9,9.8-13.8,22.4-13.8,35.6,0,1.9.1,3.9.3,5.8l35.1-11.4-.4,1.8c-.3,1.3-.4,2.5-.4,3.8,0,5.1,2.2,10.1,6,13.5l1.4,1.2-35.3,11.4Z"/>
      <path class="cls-12" d="M1007.3,656.7c-48.9,0-88.6-39.8-88.6-88.6s39.8-88.6,88.6-88.6,88.6,39.8,88.6,88.6-39.7,88.6-88.6,88.6ZM1007.3,483.4c-46.7,0-84.6,38-84.6,84.6s38,84.6,84.6,84.6,84.6-38,84.6-84.6-37.9-84.6-84.6-84.6Z"/>
      <path class="cls-12" d="M1007.3,635.5c-37.2,0-67.5-30.3-67.5-67.5s30.3-67.5,67.5-67.5,67.5,30.3,67.5,67.5-30.3,67.5-67.5,67.5ZM1007.3,504.6c-35,0-63.5,28.5-63.5,63.5s28.5,63.5,63.5,63.5,63.5-28.5,63.5-63.5-28.5-63.5-63.5-63.5Z"/>
      <path class="cls-12" d="M1007.3,589.3c-2.2,0-4.4-.3-6.6-1-5.4-1.8-9.8-5.5-12.4-10.6-2.6-5.1-3-10.8-1.3-16.2,3.6-11.1,15.6-17.3,26.8-13.6h0c11.1,3.6,17.3,15.6,13.6,26.8-2.8,8.9-11.2,14.6-20.1,14.6ZM1007.3,550.8c-7.3,0-14.1,4.6-16.4,11.9-1.4,4.4-1.1,9.1,1,13.2,2.1,4.1,5.7,7.2,10,8.6,9.1,2.9,18.8-2,21.7-11.1,1.4-4.4,1.1-9.1-1-13.2-2.1-4.1-5.7-7.2-10-8.6h0c-1.7-.5-3.5-.8-5.3-.8Z"/>
      <path class="cls-12" d="M1007.3,589.3c-4.5,0-8.8-1.4-12.4-4.1-9.5-6.9-11.6-20.2-4.7-29.7h0c6.9-9.5,20.2-11.6,29.7-4.7,4.6,3.3,7.6,8.3,8.5,13.9s-.5,11.2-3.8,15.8-8.3,7.6-13.9,8.5c-1.2.2-2.3.3-3.4.3ZM993.3,557.9c-5.6,7.7-3.9,18.5,3.8,24.1s18.5,3.9,24.1-3.8c2.7-3.7,3.8-8.3,3.1-12.8-.7-4.6-3.2-8.6-6.9-11.3-7.7-5.6-18.5-3.9-24.1,3.8h0Z"/>
      <path class="cls-12" d="M1007.3,589.3c-6.6,0-13.1-3-17.2-8.8h0c-3.3-4.6-4.7-10.2-3.8-15.8s3.9-10.5,8.5-13.9c4.6-3.3,10.2-4.7,15.8-3.8s10.5,3.9,13.9,8.5c6.9,9.5,4.8,22.8-4.7,29.7-3.8,2.8-8.1,4.1-12.5,4.1ZM993.3,578.2c5.6,7.7,16.4,9.4,24.1,3.8s9.4-16.4,3.8-24.1c-5.6-7.7-16.4-9.4-24.1-3.8-3.7,2.7-6.2,6.7-6.9,11.3-.7,4.5.4,9.1,3.1,12.8h0Z"/>
      <path class="cls-12" d="M1007.3,589.3c-9,0-17.3-5.7-20.2-14.7-3.6-11.1,2.5-23.2,13.6-26.8s23.2,2.5,26.8,13.6c1.8,5.4,1.3,11.2-1.3,16.2-2.6,5.1-7,8.8-12.4,10.6-2.1.8-4.3,1.1-6.5,1.1ZM1007.3,550.8c-1.8,0-3.6.3-5.3.8-9,2.9-14,12.7-11.1,21.7s12.7,14,21.7,11.1h0c4.4-1.4,8-4.5,10-8.6,2.1-4.1,2.5-8.8,1-13.2-2.3-7.1-9-11.8-16.3-11.8Z"/>
      <path class="cls-13" d="M1007.3,595.7c-15.2,0-27.7-12.4-27.7-27.7s12.4-27.7,27.7-27.7,27.7,12.4,27.7,27.7-12.5,27.7-27.7,27.7ZM1007.3,557.2c-6,0-10.8,4.9-10.8,10.8s4.9,10.8,10.8,10.8,10.8-4.9,10.8-10.8-4.8-10.8-10.8-10.8Z"/>
      <path class="cls-12" d="M1007.3,589.3c-11.7,0-21.2-9.5-21.2-21.2s9.5-21.2,21.2-21.2,21.2,9.5,21.2,21.2-9.5,21.2-21.2,21.2ZM1007.3,550.8c-9.5,0-17.3,7.7-17.3,17.3s7.7,17.3,17.3,17.3,17.3-7.7,17.3-17.3-7.8-17.3-17.3-17.3Z"/>
    </g>
    <path class="cls-13" d="M937.6,629.1c-37.6,0-68.8-4.6-70.6-4.9l-7.4-1.1,1.3-7.4c.9-5.3,22.1-129.2,37.6-162.9,6.6-14.3,20.8-23.1,22.4-24.1,1-.6,5.6-3.3,11.9-4.7,9.7-2.1,18.4,0,25.4,6,13.5,11.6,13.6,27.4,13.7,37.9,0,1.4,0,2.8.1,4.1.1,4.3-.8,10.5-2.1,18.3-1.9,11.8-4.4,28.1-1.8,35.5,11.9,33.9,24.5,88.9,25,91.3l1.8,7.8-7.9,1.1c-16.6,2.3-33.6,3.1-49.4,3.1ZM876.6,610.7c17,2,60,6.1,100.1,1.8-4-16.7-13.7-56.1-22.7-81.8-3.8-10.9-1.2-27.7,1.2-42.6,1-6.4,2-12.5,1.9-15.5,0-1.4-.1-2.9-.1-4.5-.1-9.6-.1-19.6-8.6-26.9-8.2-7.1-19.5-.2-19.9.1l-.2.1h0c-.1.1-11.7,7-16.6,17.6-12.6,27.4-30.2,123.9-35.1,151.7ZM924.6,435.1h0Z"/>
    <path class="cls-12" d="M1139.8,472c-.5,0-1-.4-1-1,0-.1-.9-8-12.1-14.6-11.4-6.7-27.8-4.1-27.9-4.1-.6.1-1.1-.3-1.2-.9-.1-.6.3-1.1.9-1.2.7-.1,17.3-2.8,29.4,4.3,12.2,7.2,13.1,15.8,13.1,16.2-.1.8-.6,1.3-1.2,1.3h0Z"/>
    <g>
      <path class="cls-13" d="M907.5,451.4l-19.9,21.9-38.1-1.3-15.7-9.4-1-1.7,2.1,7.3,4.2,8.4,1.2,3.7s29.2,13.6,50.7,10.4c13.2-2,23.2-11.2,28.2-15.9"/>
      <path class="cls-13" d="M883.9,497.9c-21.7,0-45.5-11-46.6-11.5l-2.7-1.2-2-6-4.3-8.5-16.5-57.8,26.8,44.7,12.7,7.6,33.1,1.1,17.8-19.6c2.5-2.8,6.9-3,9.6-.5,2.8,2.5,3,6.9.5,9.6l-22.1,24.3-34.2-1.2c9.7,3.2,22.9,6.4,33.7,4.8,10.3-1.5,18.5-8.3,24.4-14.1,2.7-2.6,7-2.5,9.7.2,2.6,2.7,2.5,7-.2,9.7-4.4,4.2-16,15.4-31.9,17.8-2.4.5-5,.6-7.8.6Z"/>
    </g>
    <g>
      <path class="cls-13" d="M900.5,459.8l-12.9,13.5-38.1-1.3-15.7-9.4-1-1.7,2.1,7.3,4.2,8.4-1.6,3.1s33,14.1,53.5,10.9c13.2-2.1,23.2-11.2,28.2-15.9"/>
      <path class="cls-12" d="M884.3,493.1c-20.4,0-46.4-11-47.6-11.6l-1.9-.8,2.1-4.1-3.9-7.8-6.3-21.9,8.6,14.3,14.8,8.9,36.7,1.3,12.3-12.9c.8-.8,2-.8,2.8-.1.8.8.8,2,.1,2.8l-13.6,14.2-39.5-1.4-12.5-7.5.3.9,4.6,9.1-1.1,2.1c7.3,2.9,33.6,12.6,50.4,10,11.9-1.9,21.1-9.7,27.1-15.4.8-.8,2.1-.7,2.8.1.8.8.7,2.1-.1,2.8-6.3,6.1-16.2,14.4-29.2,16.5-2.2.3-4.5.5-6.9.5Z"/>
    </g>
    <g>
      <path class="cls-13" d="M689.2,641.2s3,16.9-3.1,30.6l26.9,3s-2.7-8.3-2.6-15c0-6.8,1.1-19.8,1.1-19.8l-22.3,1.2Z"/>
      <path class="cls-12" d="M715.9,677.2l-32.7-3.6,1.1-2.5c5.8-13,3-29.3,3-29.5l-.4-2.2,26.7-1.4-.2,2.3c0,.1-1,13-1,19.6s2.5,14.3,2.5,14.4l1,2.9ZM688.9,670.2l21.3,2.4c-.8-3.1-1.9-8.2-1.9-12.7,0-5.1.6-13.6.9-17.6l-17.8.9c.7,4.7,1.5,16.3-2.5,27Z"/>
    </g>
    <g>
      <path class="cls-13" d="M792,626.1s17.7,17,14.2,38.7l17-5.4,7.5-11.3s-.5-6.3-5.1-11.4c-4.6-5.1-11.9-10.5-12.2-21l-21.4,10.4Z"/>
      <path class="cls-12" d="M803.7,667.7l.5-3.2c3.3-20.4-13.5-36.8-13.7-36.9l-2.1-2,26.8-13,.1,3.1c.2,7.9,4.9,12.8,9.1,17,.9.9,1.8,1.8,2.6,2.7,5,5.6,5.6,12.3,5.6,12.6l.1.7-8.2,12.5-20.8,6.5ZM795.3,626.8c4.4,5,14.6,18.5,13.3,35.3l13.4-4.2,6.7-10.1c-.3-1.6-1.3-5.9-4.5-9.6-.8-.8-1.6-1.7-2.5-2.6-4-4-8.8-9-10-16.7l-16.4,7.9Z"/>
    </g>
    <g>
      <path class="cls-12" d="M727.9,249.1s-17.9-1.4-17,7.8c1,9.2,13.8,15.8,24.8,16.6s19.4-13.9-7.8-24.4Z"/>
      <path class="cls-13" d="M736.6,279.3c-.4,0-.9,0-1.3-.1-13.8-1.1-28.8-9.5-30.1-21.8-.4-3.4.7-6.6,3.1-9,5.7-5.9,17.7-5.3,20.1-5.1l.8.1.8.3c22.6,8.7,22.7,20.1,21.7,24.6-1.6,6.5-7.9,11-15.1,11ZM716.6,256.4c.6,5.1,10.1,10.7,19.5,11.4,2.2.2,3.9-.9,4.2-2,.3-1.3-1.6-6.1-13.7-11-4.1-.2-8.7.5-10,1.6Z"/>
    </g>
    <g>
      <path class="cls-12" d="M707.6,270c-7.3,15.2,15.7,29.9,34.2,16.8,19.7-14,11.2,3.8,15.4-11.1s-41.6-22.5-49.6-5.7Z"/>
      <path class="cls-13" d="M726.4,297.6c-7.3,0-13.9-2.6-18.4-6.5-7.5-6.3-9.6-15.4-5.6-23.7h0c7-14.7,32-15,46.5-9.5,10.9,4.1,16.1,11.3,13.9,19.2-.9,3.4-1.2,4.8-1.2,5.3-.6,4.1-3.8,5-4.7,5.1-1.4.3-2.9,0-4.1-.7-1.2.4-3.5,1.6-7.6,4.5-6.3,4.5-12.7,6.3-18.8,6.3ZM712.8,272.5h0c-2.3,4.7.7,8.2,2.7,9.9,5,4.2,14.3,5.9,23-.3,5.4-3.8,9.5-6,12.8-6.6.1-.4.2-.8.4-1.3.3-1.2-2.1-3.5-6.9-5.3-13.6-5.2-29.2-2.3-32,3.6Z"/>
    </g>
    <g>
      <path class="cls-13" d="M759.8,288l.4-7.5s4.8-.9,9.5-5.3c2.9-2.8,4.7-8.2,6.4-13.3,1.9-5.7.6-13.6.6-13.6,0,0,.8-8.7.1-14.3-.7-5.6-1.4-11-8.5-16.8-12.1-9.8-35.7-8.3-42,10.5-2,5.9-.3,13.3-.3,13.3,0,0-6.2-1.1-2.7,9l4,7.7,6.3,3.4s1.1,13.6,1.2,20.8c.2,7.2,0,12.1,0,12.1,0,0-4.8,2.9-8.3,4.5-3.6,1.6-5.8,6.1-5.8,6.1,0,0,1.3,2.9,3.1,4.6s7.7,5.9,7.7,5.9c0,0,19.5-1.8,28.7-10.2,4.2-3.9,3.9-11.1,4.3-15.4l-4.7-1.5Z"/>
      <path class="cls-13" d="M729.5,321l-1.7-1.2c-1-.7-6.3-4.5-8.3-6.4-2.5-2.4-4.1-5.7-4.4-6.4l-1.1-2.5,1.3-2.5c.5-1,3.5-6.4,8.6-8.7,1.6-.7,3.5-1.8,5-2.6v-8.6c-.1-4.9-.7-13-1-17.4l-5-2.8-5-9.6-.1-.4c-.8-2.2-3.1-9,.9-13.6.3-.4.6-.7,1-1-.2-3.2-.2-7.5,1.2-11.4,3.2-9.5,10.3-16.3,20-19.1,10.7-3.1,22.9-.8,31.1,5.9,9,7.3,9.9,14.6,10.6,20.6.7,5.3.2,12.6,0,14.9.3,2.4,1.1,9.6-.9,15.5-1.8,5.6-3.9,11.9-7.9,15.7-2.4,2.2-4.8,3.8-6.8,4.8l3.5,1.1-.4,4.7c-.1.6-.1,1.3-.1,2.1-.3,4.9-.7,12.2-6,17.1-4.5,4.2-11.4,7.4-20.3,9.7-6.4,1.6-11.6,2.1-11.8,2.1h-2.4ZM727.3,304.8c0,.1.1.1.1.1.8.8,3.2,2.6,5.3,4.1,6-.8,17.7-3.3,23.3-8.5,1.4-1.3,1.9-4.3,2.1-7l-4.3-1.3.9-16.5,4.4-.9h0s3.3-.8,6.6-3.9c1.9-1.8,3.6-7.1,4.9-10.9,1.2-3.6.6-9,.4-10.8l-.1-.7.1-.7c.2-2.2.6-9,.1-13.1-.7-5.2-1.1-8.7-6.4-13-5.3-4.3-13.6-5.8-20.6-3.8-4.2,1.2-9.8,4.2-12.3,11.7-1.2,3.5-.5,8.5-.2,10.2l1.9,8.4-5-.9c0,.1.1.3.1.4l3,5.8,7.4,4.1.2,3.1c0,.6,1.1,13.8,1.3,21.1.2,7.3,0,12.3,0,12.5l-.1,3.1-2.6,1.6c-.2.1-5.1,3.2-9,4.9-.6.1-1,.4-1.5.9ZM724.8,246.6q.1,0,0,0h0Z"/>
    </g>
    <g>
      <path class="cls-13" d="M657,443.5s-1.6,2.6-5.1,5.4c-3.6,2.9-8.2,6.3-8.2,6.3l-6.3,11.3s-5.1,3.3-9.7,1.1c-4.5-2.2-5.7-3.9-5.7-3.9,0,0,.2-12.2,9.6-22.8,5.6-6.3,32.3-24.9,32.3-24.9l4.5,16.4"/>
      <path class="cls-13" d="M631.1,474.7c-2,0-4.1-.4-6.2-1.4-5.3-2.6-7.4-4.9-8.2-6.1l-1.1-1.6v-1.9c0-.6.4-14.7,11.2-26.9,5.9-6.7,30.6-24,33.4-25.9l7.3-5.1,6.8,25c.9,3.4-1.1,6.8-4.4,7.7-3.4.9-6.8-1.1-7.7-4.4l-2.1-7.7c-9.6,6.9-20.9,15.5-23.9,18.8-5.2,5.8-7,12.3-7.7,15.9.5.3,1,.6,1.7.9.5.3,1.5.1,2.4-.2l6-10.8,1.1-.8s4.6-3.4,8-6.1c2.5-2,3.6-3.8,3.6-3.8,1.8-3,5.6-3.9,8.6-2.1,3,1.8,3.9,5.7,2.1,8.7-.2.4-2.3,3.7-6.5,7.1-2.6,2.1-5.7,4.4-7.3,5.6l-6.4,11.5-1.3.9c-.3.3-4.4,2.7-9.4,2.7Z"/>
    </g>
    <path class="cls-13" d="M656.9,453l-17-29.2,34.9-47.3,42.5-80.2,3.4,17.5c.5,2.4,11,58.1-6.5,83.4-16.6,23.9-50.3,50.3-51.7,51.4l-5.6,4.4ZM655,424.6l5.5,9.5c10.2-8.5,31.9-27.3,43.4-44.1,8.4-12.1,8.6-36.3,7-54.7l-25.4,47.9-.3.4-30.2,41Z"/>
    <path class="cls-13" d="M810.5,500.4l-7.4-.4c-1.6-.1-39.8-2.2-64.8-11.7l-3.6-1.4-.4-3.8c-.3-2.6-7-64.9,7.8-129.4,2.4-10.4,5.6-23.1,8.4-34.2,2.9-11.6,5.7-22.6,6.3-26l-3.2-1.3.5-13.2,7.3,1.6c1,.2,24.7,5.4,35.5,20.3,9.7,13.5,29.3,73.5,31.6,80.3l.1.4,15.8,64.3-38.4,13.8c1.9,16.7,3.6,32.2,3.8,33.5l.7,7.2ZM746.5,477.9c16.6,5.5,38.5,8,49.9,9-1.8-16.5-6.2-55.3-8-65.3-2.2-11.8-2.9-24.5-3-27.8l-14.4-48.5c-1-3.3.9-6.8,4.3-7.8,3.3-1,6.8.9,7.8,4.3l30,101.9,16.3-5.9-13.1-53c-5.9-18.1-22.5-66.6-29.7-76.6-3.9-5.4-11.2-9.5-17.5-12.1-.7,4-3,12.9-6.4,26.4-2.8,11.1-6,23.7-8.3,34-12.3,53.5-9.1,106.8-7.9,121.4ZM757.6,293.8h0Z"/>
    <path class="cls-13" d="M691,482.9c-3.6,0-8.9-.2-15.3-1.3-10-1.7-15.9-5.5-16.5-5.9l-3.7-2.4,1-4.3c.1-.6,15-64.8,18-85.8,8.1-57.2,14.7-66.8,27.6-81.5,9.7-11,28.1-18.9,28.9-19.2l7.6-3.2,2.4,18.2-3.5,2.1c-.1.1-9.8,6.1-17,16.7-3.9,5.8-6.9,10.8-9.2,22.7-9.6,49.8-9.8,136.6-9.8,137.4v5.7l-5.7.6c-.2,0-1.9.2-4.8.2ZM669.8,467c2,.8,4.6,1.6,7.9,2.2,4.4.7,8.2,1,11.1,1.1.2-21,1.5-89.9,10-133.6,1.5-7.6,3.3-13.1,5.6-17.9-6.7,9.7-11.5,23.8-17.5,66.3-2.6,18.2-13.5,66.3-17.1,81.9Z"/>
    <g>
      <path class="cls-12" d="M727.9,249.1s-17.9-1.4-17,7.8c1,9.2,13.8,15.8,24.8,16.6s19.4-13.9-7.8-24.4Z"/>
      <path class="cls-12" d="M736.6,275.6h-1c-12-.9-25.6-8.2-26.6-18.4-.2-2.3.5-4.4,2-6,4.7-4.8,15.8-4.1,17.1-4h.3l.3.1c5.2,2,21.8,9.3,19.3,20.3-1.2,4.6-5.9,8-11.4,8ZM725.4,251c-3.7,0-9.4.5-11.7,2.9-.7.8-1,1.7-.9,2.8.8,7.9,12.5,14,23,14.8,4,.3,7.5-1.8,8.2-4.9.9-4.1-3-10.3-16.6-15.5-.5-.1-1.2-.1-2-.1Z"/>
    </g>
    <g>
      <path class="cls-12" d="M707.6,270c-7.3,15.2,15.7,29.9,34.2,16.8,19.7-14,11.2,3.8,15.4-11.1s-41.6-22.5-49.6-5.7Z"/>
      <path class="cls-12" d="M726.4,293.9c-6.3,0-12-2.3-16-5.6-6.1-5.1-7.9-12.5-4.7-19.2h0c5.9-12.2,28.3-12.7,41.7-7.6,9,3.4,13.3,8.8,11.6,14.7-1,3.6-1.2,5.2-1.3,5.8-.2,1.1-.7,1.8-1.7,2-.2,0-1.4.2-2.2-1-.4-.1-2.8-.4-11,5.4-5.4,3.9-11.1,5.5-16.4,5.5ZM709.4,270.8h0c-2.4,5.1-1.1,10.4,3.6,14.4,6.1,5.1,17.3,7.2,27.6-.1,6.4-4.5,10.7-6.5,13.6-6.1.2-1,.5-2.2,1-3.8,1.5-5.2-5.9-8.6-9.2-9.9-13-5-32.3-3.6-36.6,5.5Z"/>
    </g>
    <g>
      <path class="cls-13" d="M640.9,460.8l-3.5,5.7s-5.1,3.3-9.7,1.1c-4.5-2.2-5.7-3.9-5.7-3.9,0,0,.2-12.2,9.6-22.8,5.6-6.3,32.3-24.9,32.3-24.9l4.5,16.4"/>
      <path class="cls-12" d="M631.2,470c-1.3,0-2.7-.2-4.1-.9-4.7-2.3-6-4.1-6.3-4.5l-.3-.4v-.5c0-.5.3-12.9,10-23.8,5.7-6.4,31.5-24.4,32.5-25.2l1.8-1.3,5.2,18.6c.2.8-.3,1.7-1.1,1.9s-1.7-.3-1.9-1.1l-3.9-14.2c-6.1,4.3-25.6,18.2-30.2,23.4-7.8,8.8-9,18.7-9.2,21.2.5.5,1.9,1.7,4.7,3,3.1,1.5,6.8-.2,7.8-.8l3.3-5.4c.5-.7,1.4-1,2.2-.5.7.5,1,1.4.5,2.2l-3.7,6.1-.3.2c-.1,0-3.3,2-7,2Z"/>
    </g>
    <g>
      <path class="cls-13" d="M822.2,395.4s10.5,37.9,15.1,54.3c4.5,16.4,14.3,16.2,14.5,25.9.2,9.8-19.7,13.3-22.5,12.3-2.8-1.1-5.6-7.8-7.2-14.1-2.2-9.1,1.4-15,1.4-15l-22.7-56.4,21.4-7Z"/>
      <path class="cls-12" d="M830.8,490.1c-1,0-1.7-.1-2.2-.3-4.9-1.9-7.9-13.3-8.4-15.6-1.8-7.8.2-13.4,1.1-15.6l-23.2-57.6,25.5-8.2.6,2s10.5,37.9,15.1,54.3c2.2,8.1,5.7,11.8,8.8,15.1,2.9,3,5.6,5.9,5.7,11.3.1,2.3-.8,5.8-5.2,8.9-5.3,3.8-13.5,5.7-17.8,5.7ZM803.4,403.6l22.3,55.4-.5.9c-.1.2-3.1,5.4-1.2,13.5,1.7,7.1,4.4,12.2,5.9,12.7,1.5.4,11.4-1,16.8-5.1,2.1-1.6,3.1-3.4,3-5.2-.1-3.9-1.9-5.8-4.6-8.7-3.2-3.4-7.3-7.7-9.8-16.8-3.9-14.1-12.3-44.3-14.5-52.3l-17.4,5.6Z"/>
    </g>
    <path class="cls-13" d="M714.5,315l-34.3,64.9-32.8,44.3,11.3,19.4s34.2-26.6,50.4-50,5.4-78.6,5.4-78.6Z"/>
    <path class="cls-9" d="M721.1,317.5l-34.2,55.3-39,52.2,10.4,18.3s38.6-25.8,54.8-49.1,8-76.7,8-76.7Z"/>
    <path class="cls-12" d="M658.1,446.5l-13.1-22.5,33.5-45.2,36.9-69.7,1.1,5.5c.4,2.3,10.7,56.3-5.8,80.1-16.2,23.4-49.4,49.3-50.8,50.4l-1.8,1.4ZM649.8,424.3l9.5,16.3c7.2-5.8,34.4-28.3,48.2-48.1,12.5-18.1,8.3-56.6,6.1-71.3l-31.7,59.8-32.1,43.3Z"/>
    <path class="cls-13" d="M726,485.6s22.9,78.7,34.2,97.1c16.8,27.3,34,59.2,34,59.2,0,0,7.8-1.8,14.9-5.7,7.2-3.9,16-11.2,16-11.2,0,0-4.4-11.4-17.3-35-6.9-12.7-16.6-29.8-19-37.2-6.5-20.7-5.2-99.5-5.2-99.5l-.7-14.7-98.3-7.5s-9.4,66.9-10.4,108.4c-.7,29,4.6,109.2,4.6,109.2l35,1.8s3.4-79.7,10.2-107.9,7.7-35.4,7.7-35.4"/>
    <path class="cls-7" d="M728.7,493s19.6,69.9,31,88.3c16.8,27.3,34.2,61.2,34.2,61.2,0,0,11-3.7,18.1-7.6,7.2-3.9,13.3-9.8,13.3-9.8,0,0-6.5-11.6-18.5-34.7-7.5-14.3-16-31.7-18.3-39-6.5-20.7-3.8-93.9-3.8-93.9l5.6-18.6-97.8-6.4s-9,47.6-10.2,127.3c-.4,29.1,3.7,89.9,3.7,89.9l28,1.4s-.5-69.9,6.3-98.1c6.8-28.2,10.9-47.3,10.9-47.3"/>
    <path class="cls-12" d="M708.9,653.2c-2.9,0-7.2-.1-13.4-.5-13.1-.9-16.4-1.7-16.7-1.8l-1.3-.3-.2-1.3c0-.4-4.6-35.8-4-92.3.5-47.2,3.5-79.9,5.8-99,2.6-20.8,5-30.3,5.1-30.7l.4-1.7,100.2,11.2.8,16.4v.1c0,.8-1.2,78.8,5.1,98.9,1.8,5.7,24.4,49.9,36.1,72.5l.8,1.5-1.4,1c-.4.3-9,6.8-16.2,10.7-7.3,4-15.1,5.8-15.4,5.9l-1.5.3-.7-1.3c-.2-.3-17.3-32.2-33.9-59.1-7.1-11.5-18.4-45.4-26.1-70.1-1.4,5.9-3.9,16.3-7.8,32.7-6.7,27.7-9.2,104.1-9.2,104.9l-.1,1.7-1.7.2c-.1,0-1.4.1-4.7.1ZM681,647.3c1.9.3,6.1.8,14.7,1.4,8.5.6,13.4.6,15.7.5.4-12.1,3-77.9,9.2-103.9,6.7-27.9,9.2-38.6,9.2-38.7,0-.2.1-.3.2-.5-3.4-11.1-5.7-19.1-6-20.1-.3-1.1.3-2.2,1.4-2.5,1.1-.3,2.2.3,2.5,1.4.2.8,22.9,78.6,34,96.6,14.7,23.9,29.8,51.5,33.3,58,2.5-.7,7.9-2.4,13-5.1,5.3-2.9,11.7-7.4,14.4-9.4-5.2-10.1-33.4-64.7-35.5-71.6-6.5-20.6-5.3-96-5.3-100.1l-.7-12.9-93.4-10.5c-1.8,8.3-9.6,47.7-10.5,127.1-.5,49.9,3,83.2,3.8,90.3Z"/>
    <path class="cls-13" d="M772.3,289.9s-9.9,1.1-25.1-1c-15.2-2.2-29.4,12.5-29.4,12.5,0,0-13.3,17.4-15.8,32.1-2.6,14.7-12.5,105.7-12.5,105.7l61.6,6.9,21.2-156.2Z"/>
    <path class="cls-6" d="M772.3,289.9s-9.9,1.1-25.1-1c-15.2-2.2-29.4,12.5-29.4,12.5,0,0-13.3,17.4-15.8,32.1-2.6,14.7-12.9,105.3-12.9,105.3l61.6,6.9,21.6-155.8Z"/>
    <path class="cls-12" d="M752.7,447.9l-65.6-7.3.2-2c.4-3.7,10.1-90.8,12.7-105.4,2.6-15,15.7-32.2,16.2-33l.2-.2c.6-.6,15.1-15.4,31.1-13.1,15.3,2.2,24.1,5.9,24.5,6l1.4.6-20.7,154.4ZM691.5,437l57.7,6.4,19.8-147.3c-3-1.1-10.8-3.6-22.1-5.2-13.4-1.9-26.5,10.7-27.6,11.9-1.1,1.4-13,17.7-15.4,31.1-2.3,13.2-10.9,89.8-12.4,103.1Z"/>
    <g>
      <path class="cls-12" d="M736.3,254.7c14.8,8.9,8.3,10.3,13.1,15.6,4.8,5.2,12.4-8,21.9-16,2.5-2.1-1.7-8.3-.8-12.2,2.4-10.7,2.9-18.5-3.2-23.2-12.1-9.4-31.1-5.5-36.5,14.8-5,18.6,2.7,19.3,5.5,21Z"/>
      <path class="cls-12" d="M751.8,273.4h0c-1.5,0-2.8-.6-3.9-1.8-2-2.2-2.4-4-2.8-5.4-.5-2.1-1-4.4-9.9-9.8l-1-.5c-3.6-1.6-10.2-4.7-5.4-22.8,2.7-10,8.7-17.1,17-19.9,7.6-2.6,16.1-1.1,22.7,4.1,7.6,5.9,6.1,15.7,4,25.2-.3,1.2.3,3.2.8,5,.8,2.9,1.8,6.3-.7,8.3-3,2.5-5.7,5.5-8.4,8.4-4.8,5.1-8.5,9.2-12.4,9.2ZM753.3,216c-2.1,0-4.2.3-6.2,1-7,2.4-12.1,8.5-14.4,17.2-3.9,14.8.4,16.8,3.2,18.1.5.2,1,.4,1.4.7h0c9.6,5.8,10.9,8.8,11.7,12.3.3,1.3.5,2.2,1.8,3.6.4.5.7.5,1,.5h0c2.1,0,6-4.2,9.4-8,2.6-2.9,5.6-6.1,8.8-8.7.4-.4-.3-3-.6-4.2-.6-2.2-1.3-4.7-.8-6.9,2.4-10.4,2.7-17.2-2.5-21.2-3.8-2.9-8.3-4.4-12.8-4.4Z"/>
    </g>
    <g>
      <path class="cls-13" d="M759.8,288l.4-7.5s4.8-.9,9.5-5.3c2.9-2.8,4.7-8.2,6.4-13.3,1.9-5.7.6-13.6.6-13.6,0,0,.8-8.7.1-14.3-.7-5.6-1.4-11-8.5-16.8-12.1-9.8-35.7-8.3-42,10.5-2,5.9-.3,13.3-.3,13.3,0,0-6.2-1.1-2.7,9l4,7.7,6.3,3.4s1.1,13.6,1.2,20.8c.2,7.2,0,12.1,0,12.1,0,0-4.8,2.9-8.3,4.5-3.6,1.6-5.8,6.1-5.8,6.1,0,0,1.3,2.9,3.1,4.6s7.7,5.9,7.7,5.9c0,0,19.5-1.8,28.7-10.2,4.2-3.9,3.9-11.1,4.3-15.4l-4.7-1.5Z"/>
      <path class="cls-12" d="M730.6,317.1l-.6-.4c-.2-.2-6-4.3-7.9-6.1-2.1-2-3.5-5.1-3.5-5.2l-.4-.9.4-.9c.1-.2,2.6-5.1,6.8-7,2.5-1.1,5.7-3,7.2-3.9,0-1.8.1-5.8,0-10.9-.1-5.9-.9-16.3-1.2-19.6l-5.8-3.2-4.4-8.5c-1.6-4.7-1.6-7.9.2-9.9.6-.7,1.4-1.2,2.1-1.4-.4-2.8-.7-7.8.7-12.2,2.8-8.3,9-14.2,17.5-16.6,9.5-2.8,20.4-.7,27.7,5.2,7.8,6.3,8.5,12.3,9.3,18.1.7,5.3.1,13-.1,14.5.2,1.5,1.1,8.7-.7,14.2-1.7,5.1-3.6,11-6.9,14.1-3.4,3.2-7,4.8-8.9,5.4l-.2,4.6,4.4,1.4-.1,1.6c-.1.7-.1,1.4-.1,2.2-.2,4.5-.6,10.7-4.7,14.5-9.6,8.8-29.1,10.7-29.9,10.8l-.9.1ZM722.7,304.6c.5.9,1.3,2.2,2.2,3,1.2,1.2,4.9,3.9,6.8,5.3,3.5-.4,19.2-2.6,26.8-9.6,3-2.7,3.2-7.8,3.5-11.8v-.7l-4.3-1.3.6-10.6,1.5-.3s4.3-.9,8.5-4.8c2.6-2.5,4.4-8,5.9-12.5,1.7-5.2.5-12.5.5-12.6v-.6c0-.1.8-8.5.1-13.9-.7-5.5-1.3-10.2-7.8-15.5-6.2-5.1-15.9-6.9-24.1-4.5-7.2,2.1-12.4,7.1-14.8,14.1-1.8,5.3-.3,12.1-.3,12.2l.7,2.9-3-.5h0s-.7-.1-1.1.3c-.2.2-1,1.5.5,5.9l3.7,7,6.7,3.7.1,1.1c0,.6,1.1,13.7,1.2,20.9.2,7.2,0,12,0,12.2v1.1l-.9.6c-.2.1-4.9,3-8.6,4.7-1.9.8-3.6,2.9-4.4,4.2Z"/>
    </g>
    <path class="cls-12" d="M778.3,231.6s-4.1-4.1-12.4-5.7c-9.3-1.8-22.6,3.3-22.6,3.3,0,0-1.6,9.3-3.4,14.4-1.8,5.1-5.5,7.7-5.5,7.7,0,0-6.2-3.5-7.8-12.6-1.6-9,3.4-31.4,27.4-29.1,21,2,24.3,22,24.3,22Z"/>
    <path class="cls-12" d="M757,281c-9.7,0-14.7-4.6-14.9-4.9-.4-.4-.4-1.1,0-1.5s1.1-.4,1.5,0c.1.1,6.5,5.9,18.8,3.8.6-.1,1.1.3,1.2.9.1.6-.3,1.1-.9,1.2-2,.4-3.9.5-5.7.5Z"/>
    <path class="cls-12" d="M760,270h-.1c-9.9-.9-9.7-5.8-9.7-6l.1-1.2,1.2.2c.1,0,8.1,1.4,14.4.3.6-.1,1.1.3,1.2.9.1.6-.3,1.1-.9,1.2-4.8.8-10.4.4-13.2,0,.9.9,2.8,2.1,7.2,2.5.6.1,1,.6.9,1.1-.1.6-.6,1-1.1,1Z"/>
    <path class="cls-12" d="M762.8,261.7h-.8c-.6,0-1-.5-1-1.1s.6-1,1.1-1c.9.1,3.6,0,4.6-1,.3-.3.5-.7.4-1.3,0-.5-.7-1.5-1.3-2.3-1.3-1.9-2.9-4.2-2.5-6.8.1-.6.6-1,1.2-.9.6.1,1,.6.9,1.2-.3,1.8,1,3.7,2.1,5.3.9,1.2,1.6,2.3,1.7,3.4.1,1.2-.3,2.2-1,2.9-1.4,1.4-4,1.6-5.4,1.6Z"/>
    <path class="cls-12" d="M746.1,244.2c-.4,0-.8-.2-.9-.6-.3-.5,0-1.1.5-1.4.3-.1,7.1-3.5,13.9-.7.5.2.8.8.6,1.4-.2.5-.8.8-1.4.6-5.9-2.4-12.1.6-12.2.7h-.5Z"/>
    <ellipse class="cls-12" cx="751.61" cy="248.5" rx="1.8" ry="1.2" transform="translate(224.29 838.93) rotate(-66.53)"/>
    <ellipse class="cls-12" cx="769.02" cy="248.34" rx="1.6" ry="1.1" transform="translate(234.92 854.8) rotate(-66.53)"/>
    <path class="cls-12" d="M749,248.6c-.2,0-.3-.1-.5-.2-.3-.3-.3-.7,0-1,0,0,1-1.1,2.7-1.3.9-.1,2.5-.3,3.2,1.2.1.3,0,.7-.4.9s-.7,0-.9-.4-.5-.5-1.7-.4c-1.1.1-1.8.9-1.8.9-.3.2-.5.3-.6.3Z"/>
    <path class="cls-12" d="M767.4,248.2c-.1,0-.3,0-.4-.1-.3-.2-.4-.7-.1-1,0,0,.9-1.2,2.4-1.4.6-.1,2.3-.3,2.9,1.3.1.3,0,.7-.4.9-.3.1-.7,0-.9-.4s-.4-.6-1.5-.4c-1,.1-1.6.9-1.6.9,0,.1-.2.2-.4.2Z"/>
    <path class="cls-12" d="M767.4,243.5c-.4,0-.8-.3-1-.7-.2-.5.1-1.1.6-1.3.6-.2,5.9-2,8.9-.3.5.3.7.9.4,1.4s-.9.7-1.4.4c-1.9-1-5.8,0-7.2.5h-.3Z"/>
    <g>
      <path class="cls-13" d="M688.5,664.6s-13.7,9.5-21.3,10.6-19,3.9-20.9,7.6l-1.8,3.7s5.8,6.5,42.1,7.3c18.8.4,28.8-1.2,28.8-1.2,0,0,.7-4.6,0-11.1-.7-6.6-3.9-13.4-3.9-13.4,0,0-6,4.3-12.6,1.1s-10.4-4.6-10.4-4.6Z"/>
      <path class="cls-12" d="M692.5,695.9c-1.9,0-3.9,0-6-.1-36.1-.8-42.9-7.2-43.5-8l-.9-1,2.4-4.9c2.7-5.4,17.8-8,22.4-8.7,7.1-1,20.3-10.2,20.4-10.3l.9-.6,1,.4c.2.1,3.9,1.5,10.5,4.6,5.4,2.6,10.4-.8,10.6-1l2-1.4,1,2.2c.1.3,3.3,7.3,4,14.1s0,11.5,0,11.7l-.2,1.4-1.4.2c-.5.1-8.3,1.4-23.2,1.4ZM647,685.9c2.9,1.6,12.6,5.4,39.6,5.9,14.3.3,23.5-.6,26.9-1,.1-1.8.3-5.1-.2-9.1-.4-4.1-1.9-8.4-2.9-10.8-2.6,1.2-7.4,2.5-12.5.1-4.5-2.2-7.7-3.5-9.2-4.1-3.2,2.2-14.3,9.3-21.3,10.3-9.8,1.4-18.3,4.3-19.4,6.5l-1,2.2Z"/>
    </g>
    <g>
      <path class="cls-13" d="M805.6,651.2s.1,3.7-.6,8.6c-.7,5.3-3.8,15.8-6.9,21.2-2.7,4.7-4.2,7.6-4.6,10.3-.7,4.5,1.1,7.3,1.1,7.3,0,0,14.6,3.2,25.4-10.4,5.3-6.7,10.2-17.4,13.9-26,3.8-8.9,5.3-14.9,5.3-14.9,0,0-.8-4.2-5.3-7.2-3.9-2.6-8.7-4.1-8.7-4.1,0,0,.3,9.8-7.2,11.1s-8.8,2.1-12.4,4.1Z"/>
      <path class="cls-12" d="M798.5,700.8c-2.5,0-4.1-.3-4.3-.4l-.8-.2-.4-.7c-.2-.3-2.2-3.5-1.4-8.7.4-3,1.9-5.8,4.9-11,2.8-4.9,5.9-15,6.7-20.5.6-4.7.6-8.2.6-8.2v-1.2l1.8-1c3.1-1.7,4.9-2.7,12.2-4,5.7-1,5.6-8.8,5.6-9.1l-.1-2.8,2.7.8c.2.1,5.1,1.6,9.2,4.3,5.2,3.4,6.1,8.3,6.2,8.5l.1.4-.1.4c-.1.3-1.5,6.3-5.4,15.3-4.3,9.8-8.9,19.9-14.2,26.4-8.2,10.1-17.8,11.7-23.3,11.7ZM795.9,696.7c3.2.4,14,.8,22.5-9.8,5-6.2,9.7-16.4,13.6-25.5,3.1-7.2,4.6-12.6,5.1-14.1-.3-.9-1.3-3.5-4.3-5.5-1.9-1.3-4.1-2.3-5.8-3-.6,4.1-2.9,9.3-8.7,10.3-6.4,1.1-7.9,1.9-10.7,3.4,0,1.5-.2,4.3-.6,7.6-.7,5.2-3.8,16.1-7.2,21.9-2.7,4.7-4,7.3-4.4,9.6-.3,2.4.1,4.2.5,5.1Z"/>
    </g>
    <path class="cls-13" d="M791.2,395.6s.9,11.8,3.3,24.9c2.4,13,8.9,73.2,8.9,73.2,0,0-47.1-6.2-62.9-11.3,0,0-7.1-63.1,7.7-127.3,6.6-28.6,17.9-58.2,16-67.9,0,0,17.9,2.7,27.3,15.8,9.4,13.1,30.8,80,30.8,80l14.5,58.7s-7.1,2-14.2,4.5c-7.1,2.5-13.7,5.5-13.7,5.5l-28.4-90.7"/>
    <path class="cls-9" d="M791.2,395.6s.9,11.8,3.3,24.9c2.4,13,8.9,73.2,8.9,73.2,0,0-47.1-6.2-62.9-11.3,0,0-7.1-63.1,7.7-127.3,6-25.9,15.8-64.4,15.8-64.4l-3.3-3.6s-.4-.3-.4-.7c0,0,20.9,2.8,30.3,15.9,9.4,13.1,31.7,80.7,31.7,80.7l14.5,58.7-27.9,10-28.4-90.7"/>
    <path class="cls-12" d="M805.7,495.8l-2.3-.1c-1.6-.1-39.1-2.1-63.5-11.4l-1.1-.4-.1-1.2c-.1-.6-6.9-64.2,7.7-128,2.4-10.3,5.5-23,8.4-34.2,3.2-12.6,5.9-23.4,6.4-26.6.4-2.9-1.5-3.9-1.8-4.1l-1.2-.6.1-2.8.1-2.4,2.3.5c.9.2,23.1,5.1,32.9,18.6,9.5,13.2,30.1,76.4,31,79.1v.1l14.9,60.5-31.6,11.4-12.3-41.9c.3,2.5.7,5.1,1.2,7.6,2.4,13,8.7,70.9,8.9,73.4v2.5ZM742.4,481c20.3,7.4,50.2,10,58.7,10.6-1.2-11.3-6.6-59.4-8.6-70.7-2.2-12.2-2.9-25.8-3-27.7l-14.4-49.1c-.3-1.1.3-2.2,1.4-2.5,1.1-.3,2.2.3,2.5,1.4l31.3,106.3,24.2-8.7-14-56.9c-.8-2.4-21.4-65.4-30.4-77.9-6.3-8.7-18.8-13.6-25.7-15.8.6,1.2.8,2.8.5,4.6-.5,3.4-3.1,13.8-6.4,27-2.8,11.1-6,23.8-8.3,34.1-13.4,58.2-8.6,116.3-7.8,125.3Z"/>
    <path class="cls-13" d="M733.5,288s-23.2,12.4-31.2,23.2c-10.4,14.1-13.5,15.8-21.6,73-3,21.5-17.5,86.4-17.5,86.4,0,0,4.3,4.1,15.9,5.6,11.6,1.4,15.6-.3,15.6-.3,0,0,.5-86.9,10.4-137.9,2.4-12.3,5.5-18.1,10.2-25,8.1-12,18.9-18.5,18.9-18.5l-.7-6.5Z"/>
    <path class="cls-9" d="M733.6,288.8s-21.1,8-29.1,18.8c-4.4,6-12.3,23.1-12.3,23.1,0,0-2.1,3.6-3.5,9.6-2.9,11.9-5.2,21.6-8.7,46.7-3,21.5-17.7,83.7-17.7,83.7,0,0,6.8,3.5,16.6,4.6,9.7,1.1,16.3.9,16.3.9,0,0,.1-87.4,9.9-138.4,2.4-12.3,5.5-18.1,10.2-25,8.1-12,18.9-18.5,18.9-18.5l-.6-5.5Z"/>
    <path class="cls-12" d="M690.9,478.6c-3.4,0-8.4-.2-14.6-1.3-9.3-1.6-14.7-5.1-14.9-5.2l-1.2-.8.3-1.4c.2-.6,15.1-65,18.1-86.2,8.3-58.5,15.2-66.3,26.5-79.2,9.1-10.3,26.6-17.8,27.3-18.1l2.4-1,1.3,9.9-1.1.7c-.1.1-10.5,6.5-18.3,17.9-4.8,7.1-7.6,12.7-9.9,24.3-9.7,50.2-9.9,137.4-9.9,138.2v1.8l-1.8.2c.1.1-1.5.2-4.2.2ZM664.8,469.4c1.9,1,6.2,2.9,12.2,4,7.4,1.3,13.3,1.3,16.1,1.2.1-13.1,1-90.7,10-137.1,2.4-12.2,5.4-18.3,10.5-25.8,6.8-10.1,15.4-16.3,18.4-18.4l-.3-2.1c-5.1,2.4-16.9,8.5-23.5,16-11.3,12.8-17.5,19.9-25.6,77.2-2.7,19.5-15.5,75.3-17.8,85Z"/>
    <path class="cls-12" d="M690.1,689.9c-3.5,0-7.3-.1-11.3-.3-23.1-1.3-32.5-5.6-32.9-5.8-.5-.2-.7-.9-.5-1.4s.9-.8,1.4-.5c.1,0,9.5,4.3,32.1,5.6,22.8,1.3,36.9-1.7,37.1-1.7.6-.1,1.1.2,1.2.8.1.6-.2,1.1-.8,1.2-.2.1-10,2.1-26.3,2.1Z"/>
    <path class="cls-12" d="M794.4,694.7q-.1,0,0,0c-.6,0-1.1-.5-1.1-1.1s.5-1,1.1-1h0c.4,0,9.7,0,15-3.2,6.3-3.8,10.3-10.5,14.4-19.5,7.1-15.7,10.3-25.6,10.4-25.7.2-.6.8-.9,1.3-.7.6.2.9.8.7,1.3,0,.1-3.3,10.1-10.4,25.9-4.2,9.4-8.5,16.4-15.2,20.5-5.9,3.4-15.3,3.5-16.2,3.5Z"/>
    <path class="cls-12" d="M640.7,457.4c-1.3,0-2.3-.4-3-1.1-1.7-1.5-2.1-4-.9-6.5,1.8-3.8,5.3-9.7,5.5-9.9.5-.7,1.4-1,2.2-.5.7.5,1,1.4.5,2.2,0,.1-3.6,6-5.3,9.6-.6,1.2-.5,2.3.1,2.8.7.6,1.9.4,3.2-.5s2.5-1.7,3.6-2.4c2.7-1.7,4.6-3,6.3-4.8,1.9-2,2.7-3.9,3.1-4.8-1.7-2.1-7.1-9-9.5-14.8-.3-.8.1-1.7.9-2.1.8-.3,1.7.1,2.1.9,2.6,6.4,9.4,14.5,9.5,14.6l.5.6-.1.7c0,.1-.6,3.5-4.1,7.1-2,2.1-4.2,3.5-6.9,5.3-1.1.7-2.2,1.5-3.5,2.3-1.7.9-3,1.3-4.2,1.3Z"/>
    <path class="cls-12" d="M628.3,467.7h-.1c-.6-.1-1-.6-.9-1.2.7-7.1,2.7-12.4,3.7-14.1.3-.5,1-.6,1.5-.3s.6,1,.3,1.5c-.8,1.3-2.7,6.1-3.4,13.2-.1.5-.5.9-1.1.9Z"/>
    <path class="cls-12" d="M633.3,468.1h-.2c-.6-.1-1-.6-.9-1.2.9-5.4,2.5-7.8,2.6-7.9.3-.5,1-.6,1.5-.3s.6,1,.3,1.5c0,.1-1.4,2.1-2.2,7-.1.5-.6.9-1.1.9Z"/>
    <path class="cls-12" d="M792.9,395.8c-.4,0-.8-.2-.9-.6-.3-.5,0-1.2.5-1.4l14-6.9c.5-.3,1.1,0,1.4.5.3.5,0,1.2-.5,1.4l-14,6.9c-.2,0-.3.1-.5.1Z"/>
    <path class="cls-12" d="M794,398.4c-.5,0-.9-.3-1-.8-.1-.6.2-1.1.8-1.3l20-4.8c.6-.1,1.1.2,1.3.8.1.6-.2,1.1-.8,1.3l-20,4.8h-.3Z"/>
    <path class="cls-12" d="M787.7,462.9c-8.7,0-24.7-1.5-27.4-12.1-4-15.5-4.1-25.4-4.1-25.8v-1l37.9-3.2c.6,0,1.1.4,1.1,1s-.4,1.1-1,1.1l-36,3c.1,2.9.8,11.8,4,24.4,3.3,12.7,30.6,10.4,30.8,10.3.6-.1,1.1.4,1.1.9.1.6-.4,1.1-.9,1.1-.3.1-2.4.3-5.5.3Z"/>
    <path class="cls-12" d="M674.1,449.7c-1,0-1.7-.2-1.7-.3-.5-.2-.8-.8-.6-1.4.2-.5.8-.8,1.4-.6,0,0,1.2.4,2.4-.2,1.2-.6,2.1-1.8,2.8-3.8,1.8-5.3,4.1-20.9,4.7-25.1l-7.6-1.3c-.6-.1-1-.6-.9-1.2s.6-1,1.2-.9l9.6,1.6-.1,1c-.1.8-2.8,20.2-4.9,26.5-.9,2.5-2.2,4.2-3.9,5-.9.6-1.7.7-2.4.7Z"/>
    <path class="cls-12" d="M739.2,454.2h-.1l-42.7-5c-.6-.1-1-.6-.9-1.2.1-.6.6-1,1.2-.9l42.7,5c.6.1,1,.6.9,1.2-.1.5-.6.9-1.1.9Z"/>
    <path class="cls-12" d="M66.9,448.6c-4.3,0-7.1-1.2-7.2-1.3-.5-.2-.8-.9-.5-1.4.2-.5.8-.8,1.4-.5.6.3,14.3,5.9,26.9-10.7.4-.5,1-.6,1.5-.2.5.4.6,1,.2,1.5-7.1,9.3-14.7,11.9-19.8,12.5-.9,0-1.7.1-2.5.1Z"/>
    <g>
      <path class="cls-13" d="M827.2,471.7l6.9,16.2s-5.2,1.2-8.2-.7c-2.4-1.6-4.7-6.9-4.2-10.8.5-4,5.5-4.7,5.5-4.7Z"/>
      <path class="cls-12" d="M830.5,490.3c-1.9,0-4-.3-5.7-1.4-3.2-2.1-5.6-8.1-5.1-12.7.5-4.3,4.8-6.1,7.2-6.5l1.5-.2,8.4,19.9-2.3.5c-.3,0-1.9.4-4,.4ZM826.1,474.1c-1,.4-2.2,1.2-2.4,2.5-.4,3.3,1.5,7.8,3.3,8.9,1.1.7,2.8.8,4.3.7l-5.2-12.1Z"/>
    </g>
    <path class="cls-12" d="M839.8,486.5c-.5,0-1-.4-1-.9l-.9-5.8c-.1-.6.3-1.1.9-1.2.6-.1,1.1.3,1.2.9l.9,5.8c.1.6-.3,1.1-.9,1.2h-.2Z"/>
    <path class="cls-12" d="M845.4,484.1c-.5,0-1-.4-1-1l-.5-5.8c0-.6.4-1.1,1-1.1s1.1.4,1.1,1l.5,5.8c0,.6-.4,1.1-1.1,1.1.1,0,0,0,0,0Z"/>
    <path class="cls-13" d="M954.5,675.9l-23.3-67.9,45.5-6.6,16.7,65.7-5.2,2c-10.4,4.1-27.9,6.1-28.7,6.2l-5,.6ZM948,618.3l15.1,43.8c4.1-.6,10-1.6,15.2-3l-11.1-43.6-19.2,2.8Z"/>
    <g>
      <path class="cls-12" d="M953.7,369.9c2.8,1.2,7.9,1.8,11.4,3.6,5.6,3,11.3,16.1,5.3,22.3-5.5,5.7-.6,7.8-2.8,13.1-1.6,3.7-6.1,3.6-6.9,8-1.4,7.5-9.1,7-14.2,4.9-5.9-2.4-10.7-11.8-10.7-11.8l4.6.9s7.6-9.6,4.2-11.9c-2.6-1.8-3.3.4-4.9.2-1.6-.2-2.8.2-1.9-3.6,1-4.2-4.4-14.1-.9-14,5,.1,2.6-1.4-.6-2.9-14.6-7.2-18.9,2.8-18.9,2.8l-1.2-2s-.3-3.7,8.8-10.5c3.4-2.5,10.6-3.6,12.4-3.4,6.7.8,12.5,2.7,16.3,4.3Z"/>
      <path class="cls-13" d="M952.9,428.4c-3.6,0-6.8-1.1-8.4-1.8-7.5-3.1-12.8-13.1-13.4-14.3l-5-9.7,12,2.4c.2-.2.3-.5.4-.7-1.2-.1-3.5-.4-5.1-2.7-1.9-2.6-1.1-5.9-.8-7.3.1-.9-.6-3.6-1-5-.7-2.6-1.4-5.2-1.1-7.5-5.9-1.8-7.9.9-8.4,1.7l-3.8,10.2-5.5-9.7-1.8-3v-1c-.2-2.5.9-7.7,10.9-15.2,4.6-3.5,13.1-4.7,16.1-4.4,8.2.9,14.7,3.3,17.9,4.6h0c.8.3,2.2.7,3.6,1,2.6.6,5.6,1.4,8.2,2.8,4.9,2.6,9.3,9.6,10.3,16.5.9,5.6-.5,10.6-3.8,14.1-1.4,1.4-1.4,1.5-1.1,3.2.3,1.9.8,4.7-.7,8.3-1.3,3.1-3.7,4.7-5.2,5.8-.5.3-1.2.8-1.3,1v.1c-1,5.1-3.9,7.7-6.2,8.9-2.2,1.3-4.6,1.7-6.8,1.7ZM944.7,413.9c1.3,1.4,2.6,2.6,3.8,3.1,2.7,1.1,5.2,1.2,6.2.6.2-.1.6-.3.9-1.6.9-4.5,3.9-6.6,5.8-7.9.6-.4,1.3-.9,1.4-1.1.3-.7.2-1.1,0-2.4-.6-3.4-.9-7.4,3.9-12.3,1.3-1.4,1.2-3.8,1-5.1-.7-4.2-3.3-8-4.9-8.9-1.5-.8-3.8-1.3-5.8-1.9-1.9-.5-3.7-.9-5.2-1.6-2.1-.9-7.7-3.1-14.8-3.8-.7,0-2.6.2-4.5.7,2,.5,4.1,1.3,6.3,2.4,2.8,1.4,7.4,3.6,6.2,8.4-.5,2.1-1.8,3.2-3.2,3.8.1.2.1.4.1.6.6,2.1,1.2,4.3,1.3,6.4,1.3.1,2.8.5,4.4,1.6,1.7,1.1,2.8,2.9,3.1,5,.6,4.6-3.4,10.6-6,14ZM938,376.3h0Z"/>
    </g>
    <g>
      <path class="cls-12" d="M951.1,380.6s-2.9-18.4,7.9-19.6c8.8-.9,5.2,5.2,9.1,4.7,10-1.4,13.2,5.3,10.2,11.6-3,6.4,3.5,4.3,2.8,13.3-.8,9-7.2,12.6-15.6,11.6-5.9-.7-5.3-8.1-5.3-8.1l-9.1-13.5Z"/>
      <path class="cls-13" d="M968.1,407.7c-1,0-2-.1-3.1-.2-6.4-.7-9.7-6.2-10-11.7l-8.8-13.2-.2-1.1c-.2-1.4-2-13.5,3.5-20.6,2.2-2.9,5.4-4.7,9.1-5.1,6.7-.7,9.7,1.8,11.3,4.5,7.3-.3,11,3,12.6,5.2,2.8,3.8,3.1,9.1.8,14.1,0,.1-.1.1-.1.2,1.4,1.7,3.9,4.8,3.4,11.3-.4,5.3-2.6,9.7-6.1,12.6-3.4,2.6-7.6,4-12.4,4ZM966,397h.2c3.2.4,5.9-.2,7.5-1.5,1.3-1.1,2.1-2.9,2.3-5.4.2-2.3-.2-2.8-1-3.8-1.4-1.6-4.2-5-1.3-11.3.6-1.4.8-2.7.3-3.4-.5-.6-2.1-1.2-5-.8-2.5.4-5.9-.2-7.8-4.7-.3,0-.8,0-1.4.1-.8.1-1.3.4-1.8,1-1.8,2.3-2,7.7-1.6,11.4l9.4,14-.1,1.8c-.3,1,0,2.3.3,2.6h0Z"/>
    </g>
    <g>
      <path class="cls-13" d="M938.8,366.4c-4.3,0-13.4,2.2-17.5,6.4s-5.8,8.7-6.1,11.1c-.4,2.3-1,6.6-1.6,8s-4.4,2.5-6.1,5.2.7,5.6.7,5.6c0,0,.6,5.1,1.5,9.6s4.5,8.7,4.5,8.7c0,0,3.5,2.2,6.2,3.1,2.9.9,6.7,1.5,6.7,1.5l1.3,7.5-5.9,4.8s.5,2.8,13.5,2.1c15.2-.9,18.5,1.3,18.5,1.3,0,0-5.1-7-5.7-19-.7-13.5,20.9-29.2,17.2-36.8-7.2-15.1-15.6-19.1-27.2-19.1Z"/>
      <path class="cls-13" d="M984.5,470l-33.5-22.4c-1-.3-4.9-1-14.6-.5-5.3.3-19.5,1.1-21.2-8.1l-.8-4.3,4.4-3.6c-.2-.1-.5-.1-.7-.2-3.5-1.1-7.3-3.4-8-3.9l-1-.6-.7-.9c-.5-.6-4.7-5.8-6-11.9-.7-3.1-1.1-6.5-1.4-8.5-1.9-3.5-2.4-8.1.2-12.1,1.7-2.6,4.1-4.2,5.7-5.3.3-1.3.5-3.1.7-4l.2-1.1c.3-1.9,1.9-8.8,8.2-15.1,5.8-5.8,17-8.5,22.7-8.5h0c15.9,0,26,6.9,33.8,23.1,3.7,7.7-1.8,15.1-7.7,23-4,5.4-9,12.2-8.8,16.6.5,9.4,4.2,15,4.3,15l24.2,33.3ZM919.2,415.3c1.1.6,2.5,1.4,3.4,1.6,2,.6,4.8,1.1,5.7,1.3l5.1.9,2.3,13.4c2.6-.1,5-.2,7.1-.2-.7-2.9-1.2-6.1-1.4-9.8-.5-9.6,6-18.4,11.7-26.1,2.1-2.8,5.1-6.8,5.8-8.8-5.8-11.6-11.6-13.8-20.1-13.9h0c-3.1,0-10,1.9-12.3,4.2-2.8,2.8-3.9,5.8-4.1,7.1l-.2,1c-.7,4.6-1.2,6.9-1.9,8.7-1.2,2.7-3.4,4.1-5,5.2l.2,1.9s.5,4.8,1.4,8.9c.3,1.5,1.4,3.3,2.3,4.6Z"/>
    </g>
    <g>
      <path class="cls-13" d="M960.5,490.6s14.6-7.1,17.9-6.8c0,0,2.4,5.9,6.6,16.8,4.2,10.8,8.4,33.9,8.4,33.9l10.1,11.2s2.1,8-3.1,11.2-16.2,4.7-16.2,4.7l-5.3-10.1,1.1-14.7-19.5-46.2Z"/>
      <path class="cls-13" d="M979.2,571.3l-9.4-17.9,1.1-15.1-22-51.9,7.6-3.7c17-8.3,21-7.8,22.9-7.6l5.2.6,2,4.9c.1.2,2.5,6.2,6.7,16.9,3.6,9.4,7.1,26.5,8.4,33l9.9,10.9.6,2.1c1.4,5.4,1.5,15.9-7.2,21.1-6.5,3.9-17.4,5.6-19.6,5.8l-6.2.9ZM988,549.6l1,1.9c2.3-.5,4.5-1.2,6-1.9h0l-6.5-7.1-.5,7.1ZM972.1,495.2l7.2,17.1c-.9-3.2-1.8-6.1-2.6-8.4-1.4-3.6-2.6-6.7-3.6-9.1-.3.1-.7.2-1,.4Z"/>
    </g>
    <path class="cls-13" d="M955.3,448.6l45.1,9.8s4.7,50.6-2.4,69.5c-9.7,25.7-33,21.5-41.2,18.5-28.6-10.5-27.2-64.3-27.2-64.3l25.7-33.5Z"/>
    <path class="cls-13" d="M971.9,555.9c-6.5,0-13.4-1-17.7-2.5-33.2-12.2-32.1-69-32.1-71.4l.1-2.5,31-38.3,4,.4c.5.1,13,1.4,24.6,3.6,12.1,2.2,21.5,5.8,21.9,6l4.2,1.6.4,4.5c.6,6.5,5.7,64.5-11.8,89.5-3.9,5.5-11.3,8.6-22,9-.8.1-1.7.1-2.6.1ZM936.8,484.8c.1,15,4.1,48,22.4,54.7,7.3,2.7,23.2,2,25.3-1.1,11.1-16,10.9-55.9,9.6-74.9-3.5-1.1-8.9-2.6-15-3.8-7.3-1.3-15.1-2.4-19.6-2.9l-22.7,28Z"/>
    <path class="cls-1" d="M955.7,447.2l45.4,10.1s5,49.4-5.6,75.8c-7.2,17.8-27.2,17.5-38.8,13.3-28.6-10.5-27.2-64.3-27.2-64.3l26.2-34.9Z"/>
    <path class="cls-12" d="M972,550.5c-6.6,0-12.9-1.1-15.9-2.2-12.4-4.5-21.2-17.5-25.6-37.5-3.2-14.8-2.9-28.1-2.9-28.7v-.7l28-34.6,1.1.1c.1,0,12.8,1.4,24.2,3.5,11.6,2.1,20.6,5.5,21,5.7l1.2.4.1,1.2c.2,2.5,5.8,62-10.8,85.9-3.7,5.3-12.3,6.9-20.4,6.9ZM931.5,482.9c0,6.1.6,52.4,25.9,61.7,7,2.6,26.9,3.6,31.6-3.1,14.5-20.8,11-73.2,10.2-82-2.8-1-10.2-3.5-19.1-5.1-9.4-1.7-19.6-3-22.9-3.3l-25.7,31.8Z"/>
    <g>
      <path class="cls-13" d="M890.4,660.3s-1,16.1-8.4,20.3c-7.3,4.2-15.7,2.8-22,3.1s-8.7,4.2-8.7,4.2c0,0,2.8,6.6,13.3,8.4,10.5,1.7,18.1,1.2,24.5,2.1,12.9,1.7,16.4-3.1,16.4-3.1,0,0-3.1-7.7-1.7-14.7,1.4-7,2.4-12.6,2.4-12.6l-15.8-7.7Z"/>
      <path class="cls-12" d="M894.2,700.8c-1.6,0-3.5-.1-5.5-.4-2.5-.3-5.1-.5-8.2-.6-4.6-.2-9.9-.4-16.3-1.5-11.4-1.9-14.7-9.3-14.8-9.6l-.4-1,.6-.9c.1-.2,3.1-4.7,10.3-5.1,1.5-.1,3.2-.1,4.9-.1,5.2,0,11.1.1,16.2-2.8,5.2-3,7.1-14.5,7.4-18.7l.2-3,19.8,9.7-.3,1.5c0,.1-1.1,5.7-2.5,12.6-1.3,6.3,1.6,13.5,1.6,13.5l.4,1-.6.9c-.4.6-3.4,4.5-12.8,4.5ZM853.7,688.1c1.2,1.7,4.3,5,11.2,6.2,6.2,1,11.3,1.3,15.8,1.5,3,.1,5.9.3,8.6.6,8.4,1.1,12.3-.7,13.8-1.7-.9-2.6-2.5-8.7-1.4-14.5,1-4.8,1.8-8.9,2.2-11.1l-11.8-5.8c-.7,5.1-2.9,15.4-9.1,19-6.1,3.5-12.8,3.4-18.2,3.4h-4.6c-3.5.2-5.5,1.5-6.5,2.4Z"/>
    </g>
    <g>
      <path class="cls-13" d="M962.7,656.5s6.6,13.3,4.9,20.3c-1,4.1-4.2,7.7-15.5,12.4-6.9,2.8-7.8,7.1-7.8,7.1,0,0,6.5,6.6,18.8,3.9,16.4-3.5,22-8.4,26.9-12.6s4.9-4.2,4.9-4.2c0,0,0-4.4-1.7-6.6-2.1-2.7-4.2-4.2-6.3-7.3s-5.9-17.8-5.9-17.8l-18.3,4.8Z"/>
      <path class="cls-12" d="M957.3,702.7c-9.3,0-14.3-4.9-14.5-5.1l-.8-.8.2-1.1c.1-.5,1.4-5.3,9-8.5,10.8-4.5,13.5-7.6,14.4-11,1.3-5.1-3-15.4-4.7-18.9l-1.1-2.2,22.5-6,.5,1.9c1.5,5.5,4.3,15.1,5.7,17.2,1.1,1.6,2.2,2.8,3.3,4,.9,1,1.9,2,2.9,3.3,2.1,2.7,2.2,7.3,2.2,7.8v.9l-5.7,4.9c-4.8,4.2-10.9,9.3-27.6,12.9-2.4.6-4.4.7-6.3.7ZM946.6,695.6c2.1,1.5,7.5,4.4,16,2.6,15.8-3.4,21.1-8,25.9-12l4.3-3.7c-.1-1.5-.5-3.5-1.3-4.5-.8-1.1-1.7-2-2.6-2.9-1.2-1.3-2.5-2.6-3.8-4.5-1.8-2.7-4.5-12.2-5.7-16.5l-13.9,3.8c1.9,4.3,5.5,13.5,4,19.4-1.4,5.5-6.1,9.3-16.7,13.8-3.8,1.4-5.4,3.3-6.2,4.5Z"/>
    </g>
    <g>
      <path class="cls-12" d="M939.6,613.1l19.2,55.9s17.8-1.7,27.6-5.6l-14-54.8-32.8,4.5Z"/>
      <path class="cls-12" d="M957.4,671.2l-20.5-59.7,37-5.1,14.8,58.3-1.6.6c-9.9,3.9-27.4,5.6-28.1,5.7l-1.6.2ZM942.3,614.8l17.9,52.1c4.2-.5,16-2,23.8-4.7l-13-51.4-28.7,4Z"/>
    </g>
    <g>
      <path class="cls-12" d="M889.5,605.4l-5.6,54.8-.1,5.9s14.9,6.1,24,5.8l17.3-63-35.6-3.5Z"/>
      <path class="cls-12" d="M907.2,673.9c-9.4,0-23.5-5.7-24.1-5.9l-1.3-.5.1-7.4,5.8-56.8,39.9,3.8-18.3,66.7h-1.5c-.1.1-.4.1-.6.1ZM885.8,664.7c3.5,1.3,13.4,4.9,20.5,5.1l16.3-59.3-31.3-3-5.4,52.8-.1,4.4Z"/>
    </g>
    <g>
      <path class="cls-13" d="M905.6,489.3c4.9-4.8,7.8-9.3,7.8-9.3l4.9-38.7s-9.3,8.2-15.6,15.1c-6.3,7-11.3,13-11.3,13l14.2,19.9Z"/>
      <path class="cls-12" d="M905.3,492.4l-16.4-22.9,1-1.2c0-.1,5.1-6.2,11.3-13.1,6.3-7,15.4-15,15.8-15.3l4-3.5-5.6,44.3-.2.4c-.1.2-3.1,4.8-8.1,9.7l-1.8,1.6ZM893.9,469.7l11.9,16.6c3-3.2,5-6,5.6-6.9l4.2-32.9c-3.3,3-7.9,7.4-11.5,11.4-4.5,5-8.4,9.7-10.2,11.8Z"/>
    </g>
    <path class="cls-13" d="M923.5,433.9s-12.6,9.1-18.5,22c-15.3,33.2-37,161-37,161,0,0,62.9,9.4,117.7,1.7,0,0-12.9-56.6-24.8-90.5-4.9-14,3.8-45.4,3.5-55.9s1.4-25.9-11.2-36.7c-12.5-10.6-29.7-1.6-29.7-1.6Z"/>
    <path class="cls-3" d="M930.5,432.9s-18.2,7.3-23.8,20.3c-1.9,4.4-8.7,26.7-10.8,33.9-.6,2.1,5.9-2.3,3.8,9.1-13.4,48.6-25.1,120.8-25.1,120.8,0,0,60.1,9.4,111.1,1.7,0,0-13.3-55.9-24.3-89.8-4.6-14,4.9-46.1,4.5-56.6-.3-10.5,1.3-25.9-10.4-36.7-11.6-10.7-25-2.7-25-2.7Z"/>
    <path class="cls-12" d="M938,623.7c-38,0-69.8-4.7-70.3-4.8l-2-.3.3-2c.9-5.2,22-128.5,37.2-161.5,6-13.2,19.4-21.2,20.3-21.7.5-.3,4.6-2.8,10.2-4,8-1.7,15.1-.1,20.8,4.8,11.6,10,11.7,23.8,11.8,33.9,0,1.5,0,2.9.1,4.2.1,3.8-.9,10-2,17.2-2.1,13.1-4.6,29.4-1.6,38.1,11.8,33.6,24.7,90.1,24.9,90.7l.5,2.1-2.2.3c-15.9,2.2-32.4,3-48,3ZM870.3,615.3c11,1.5,65,8.1,113,1.8-2.5-10.6-13.8-58.4-24.2-88.1-3.4-9.6-.7-26.5,1.4-40,1.1-7,2.1-13,1.9-16.5,0-1.4-.1-2.8-.1-4.3-.1-9.8-.2-22.1-10.4-30.9-4.7-4-10.5-5.4-17.2-3.9-5.2,1.1-9,3.5-9.1,3.5h-.1c-.1.1-13.2,7.8-18.8,20-13.8,30.2-33.5,141.9-36.4,158.4ZM924.6,435.1h0Z"/>
    <path class="cls-13" d="M945.2,462.9l11.2,22.4s8-4.5,12.2-5.9,9.4-3.5,9.4-3.5c0,0-3.5-10.5-12.2-25.2-6.4-10.8-13.3-16.8-13.3-16.8"/>
    <path class="cls-3" d="M945.2,462.9l13.6,27.9s8-4.5,12.2-5.9,9.4-3.5,9.4-3.5c0,0-5.9-16.1-14.7-30.7-6.4-10.8-12.9-16.2-12.9-16.2"/>
    <path class="cls-12" d="M958.4,494.2l-16.3-26.7c-.6-.9-.3-2.2.7-2.7.9-.6,2.2-.3,2.7.7l14.4,23.6c2.4-1.1,6.7-3.2,9.8-4.2,2.8-.9,6.8-2.3,9.2-3.1-2.1-4.9-7.9-18.4-14.8-29.9-6-10.1-10.5-12.9-10.5-12.9-.9-.6-1.2-1.8-.7-2.7.6-.9,1.8-1.2,2.7-.7.2.1,5.3,3.2,11.9,14.3,8.7,14.6,15.8,32.2,15.9,32.4l.8,1.9-2,.7c-.1,0-7,2.5-11.2,3.9-4,1.3-10.8,4.7-10.9,4.8l-1.7.6Z"/>
    <path class="cls-12" d="M952.5,699.9c-4.3,0-6.9-.8-7.1-.9-.6-.2-.9-.8-.7-1.3s.8-.9,1.3-.7c.1,0,8.4,2.6,20.1-1.9,8.4-3.3,15.3-8.4,18.6-10.9,6-4.5,9-6.8,9.1-6.8.5-.4,1.1-.3,1.5.2s.3,1.1-.2,1.5c0,0-3,2.3-9.1,6.8-3.4,2.5-10.5,7.8-19.1,11.1-5.7,2.3-10.7,2.9-14.4,2.9Z"/>
    <path class="cls-12" d="M891.7,694.9c-6.9,0-20.5-1.1-27.8-2.5-7.7-1.5-10.4-5.5-10.5-5.7-.3-.5-.2-1.1.3-1.5.5-.3,1.1-.2,1.4.3,0,.1,2.4,3.5,9.1,4.8,7.2,1.4,20.6,2.4,27.4,2.4,6.4,0,11.4-2,11.5-2,.5-.2,1.2,0,1.4.6.2.5,0,1.1-.6,1.4-.1.1-5.4,2.2-12.2,2.2Z"/>
    <g>
      <path class="cls-13" d="M938.8,366.4c-4.3,0-13.4,2.2-17.5,6.4s-5.8,8.7-6.1,11.1c-.4,2.3-1,6.6-1.6,8s-5.5,3.7-7.4,6.2c-1.6,2.1,1.9,5.4,1.9,5.4,0,0,.7,4.2,1.6,8.7.9,4.5,4.5,8.7,4.5,8.7,0,0,3.5,2.2,6.2,3.1,2.9.9,6.7,1.5,6.7,1.5l1.3,7.5-6.7,4.2s1.3,3.4,14.3,2.6c15.2-.9,18.5-1.9,18.5-1.9,0,0-.7-1.5-3.1-3.6-3.3-2.8-4.9-8.4-3.3-13.5,4.1-12.9,21.6-28,17.9-35.6-7.2-14.8-15.6-18.8-27.2-18.8Z"/>
      <path class="cls-12" d="M932.4,441.9c-9.8,0-12.1-2.7-12.6-4l-.6-1.5,7-4.4-.8-4.8c-1.4-.3-3.6-.7-5.5-1.3-2.9-.9-6.6-3.2-6.7-3.3l-.3-.2-.2-.2c-.2-.2-3.8-4.7-4.9-9.6-.7-3.5-1.3-6.8-1.6-8.2-1.9-2.1-3.4-5.1-1.6-7.5,1.2-1.6,3.2-3,4.9-4.2.8-.6,1.9-1.3,2.2-1.7.4-1.1,1-4.5,1.3-6.4l.2-1.1c.3-1.5,1.5-7,6.7-12.2,4.5-4.5,14-7,18.9-7h0c13.7,0,22.1,5.9,29,20.1,2.6,5.4-2.4,12.5-8.2,20.6-3.9,5.5-7.9,11.2-9.6,16.4-1.3,4.1-.2,9,2.7,11.4,2.7,2.3,3.5,4,3.6,4.2l.9,2.1-2.2.7c-.4.1-3.9,1.1-18.9,2-1.3.1-2.6.1-3.7.1ZM925.4,437.2c1.8.5,4.9,1,10.4.7,7.7-.5,12.3-.9,14.9-1.3-.2-.2-.5-.4-.7-.6-4-3.5-5.7-10-3.9-15.6,1.9-5.8,6.1-11.8,10.2-17.5,4.6-6.5,9.4-13.3,7.8-16.6-7.1-14.7-15.3-17.8-25.4-17.8h0c-4.2,0-12.5,2.2-16.1,5.8-4.5,4.5-5.4,9.1-5.6,10l-.2,1.1c-.5,3.3-1,6.1-1.6,7.4-.5,1.2-1.8,2.1-3.6,3.3-1.4,1-3.2,2.2-4,3.3-.2.3.5,1.7,1.6,2.7l.5.5.1.7s.7,4.2,1.6,8.7c.7,3.4,3.1,6.7,3.8,7.6.9.5,3.5,2.1,5.5,2.7,2.7.8,6.4,1.4,6.4,1.4l1.4.2,1.8,10.2-4.9,3.1Z"/>
    </g>
    <path class="cls-12" d="M953.7,369.9c2.8,1.2,7.9,1.8,11.4,3.6,5.6,3,11.3,16.1,5.3,22.3-5.5,5.7-.6,7.8-2.8,13.1-1.6,3.7-6.1,3.6-6.9,8-1.4,7.5-9.1,7-14.2,4.9-5.9-2.4-10.7-11.8-10.7-11.8l4.6.9s7.6-9.6,4.2-11.9c-2.6-1.8-3.3.4-4.9.2-1.6-.2-2.8.2-1.9-3.6,1-4.2-4.4-14.1-.9-14,5,.1,2.6-1.4-.6-2.9-14.6-7.2-18.9,2.8-18.9,2.8l-1.2-2s-.3-3.7,8.8-10.5c3.4-2.5,10.6-3.6,12.4-3.4,6.7.8,12.5,2.7,16.3,4.3Z"/>
    <path class="cls-12" d="M926.3,426c-2.5,0-6.1-.8-9.5-2.1-.5-.2-.8-.8-.6-1.4.2-.5.8-.8,1.4-.6,3.3,1.2,6.8,2,9,1.9,6-.2,8-.5,8-.5.6-.1,1.1.3,1.2.9.1.6-.3,1.1-.9,1.2-.1,0-2,.3-8.3.5-.1.1-.2.1-.3.1Z"/>
    <ellipse class="cls-12" cx="924.17" cy="394.13" rx="2.1" ry="1.6" transform="translate(337.46 1209.74) rotate(-77.37)"/>
    <path class="cls-12" d="M926.9,396h-.2c-.4-.1-.6-.5-.4-.9.2-.5,0-.9-.2-1.1-.3-.4-.7-.6-1.2-.7-.7,0-.9.6-.9.9,0,.4-.3.7-.7.7s-.7-.3-.7-.7c0-.1,0-1,.7-1.7.4-.4.9-.6,1.6-.6.9,0,1.7.5,2.2,1.2s.6,1.5.4,2.3c0,.4-.3.6-.6.6Z"/>
    <path class="cls-12" d="M928.1,390c-.2,0-.5-.1-.7-.3-2.7-2.3-4.9-1.3-4.9-1.3-.5.3-1.2,0-1.4-.5-.3-.5,0-1.1.5-1.4.1-.1,3.5-1.7,7.2,1.5.4.4.5,1,.1,1.5-.2.4-.5.5-.8.5Z"/>
    <path class="cls-12" d="M951.1,380.6s-2.9-18.4,7.9-19.6c8.8-.9,5.2,5.2,9.1,4.7,10-1.4,13.2,5.3,10.2,11.6-3,6.4,3.5,4.3,2.8,13.3-.8,9-7.2,12.6-15.6,11.6-5.9-.7-5.3-8.1-5.3-8.1l-9.1-13.5Z"/>
    <path class="cls-12" d="M917.1,414.3c-.5,0-1,0-1.5-.1-.6-.1-1-.6-.9-1.2s.6-1,1.2-.9c2.4.2,4.1-.2,5.1-1.2.2-.2.3-.4.4-.6-1.8-.1-4.8-.4-6.5-.6-3.1-.5-5.8-1.3-6.5-1.5-.6-.2-.9-.8-.7-1.3.2-.6.8-.9,1.3-.7.7.2,3.2,1,6.1,1.4,2.3.3,7.6.7,7.7.7l1.1.1-.1,1.1c0,.2-.2,1.9-1.8,3.3-1.2,1-2.8,1.5-4.9,1.5Z"/>
    <path class="cls-12" d="M946.2,413.8h-.2l-10.7-1.9c-.6-.1-1-.6-.9-1.2s.6-1,1.2-.9l10.7,1.9c.6.1,1,.6.9,1.2-.1.6-.5.9-1,.9Z"/>
    <path class="cls-13" d="M934.4,451.4s-2.1,9.4,2.1,26.9c5.2,21.9,26.5,43.7,26.5,43.7v-10.5s-13.9-26.7-17.5-38.1c-4.2-13.3-2.4-28.3,14-32.5l-4.7-5.2s-11.3-1.8-20.4,15.7Z"/>
    <path class="cls-1" d="M934.7,451.4c-1.7,6.6-2.8,8.4,1.4,25.9,5.3,21.9,28.3,47.2,28.3,47.2l-1-17.8s-11.4-13-15-24.5c-4.2-13.3-11.2-34.9,11.2-41.2l-4.7-4.9c0-.1-16.3.8-20.2,15.3Z"/>
    <path class="cls-12" d="M968.6,530.6c-.5,0-1-.2-1.4-.6-.7-.7-18.4-17.9-29.4-42.9-4.5-10.2-8.9-25-4.3-37.2,5.7-15,18.9-16,19.4-16.1h.3l.3.1c.2,0,2,.5,3.9,2.4,1.6,1.6,3.2,3.6,3.3,3.6l2.2,2.6-3.4.6c-6.8,1.2-11.6,5.5-13.1,11.8-2.8,11.9,4.1,26.3,8.6,35.7l.3.7c4.3,9,17.2,20.6,17.3,20.7.8.7.9,2,.2,2.8s-2,.9-2.8.2c-.6-.5-13.6-12.3-18.3-21.9l-.3-.7c-4.8-10-12.1-25.1-8.9-38.4,1.6-6.7,6.3-11.8,13-14l-.9-.9c-.8-.8-1.4-1.1-1.8-1.3-2,.3-11.3,2.2-15.6,13.5-4.2,10.9,0,24.6,4.2,34.2,10.7,24.2,28.4,41.5,28.6,41.6.8.8.8,2,0,2.8-.4.5-.9.7-1.4.7Z"/>
    <path class="cls-12" d="M990.6,522.7h-.2c-.6-.1-1-.6-.9-1.2,5.8-33,2.1-65.7,2.1-66.1-.1-.6.3-1.1.9-1.2.6-.1,1.1.3,1.2.9,0,.3,3.8,33.4-2.1,66.7,0,.5-.5.9-1,.9Z"/>
    <path class="cls-12" d="M966.2,545h-.3c-.6-.1-.9-.7-.7-1.3.1-.2,5.2-19.9,5.2-31.9,0-.6.5-1.1,1.1-1.1s1.1.5,1.1,1.1c0,12.2-5.1,31.6-5.3,32.4-.2.5-.7.8-1.1.8Z"/>
    <g>
      <path class="cls-13" d="M960.5,490.6s14.6-7.1,17.9-6.8c0,0,2.4,5.9,6.6,16.8,4.2,10.8,8.4,33.9,8.4,33.9l10.1,11.2s2.4,8.3-2.8,11.4c-5.2,3.1-16.5,4.4-16.5,4.4l-5.3-10.1,1.1-14.7-19.5-46.1Z"/>
      <path class="cls-12" d="M983.1,563.7l-6.2-11.8,1.1-14.8-20.1-47.4,1.7-.8c3.6-1.7,15.4-7.4,19-6.9l1.2.1.4,1.1c0,.1,2.5,6.1,6.7,16.8,3.9,10.1,7.7,30,8.4,33.7l10.1,11.1.1.4c.1.4,2.8,9.8-3.7,13.7-5.5,3.3-16.9,4.6-17.3,4.7l-1.4.1ZM980.9,551.1l4.4,8.3c3.1-.4,10.6-1.7,14.4-4,3.3-2,2.4-7.2,2-8.7l-10.2-11.2-.1-.6c0-.2-4.2-23-8.3-33.5-3-7.8-5.1-13-6.1-15.4-2.6.6-8.6,3-14.1,5.6l19,44.8-1,14.7Z"/>
    </g>
    <path class="cls-12" d="M987.3,562.3h0c-.6,0-1.1-.5-1.1-1.1l.2-5.2-2-5.3c-.2-.5.1-1.1.6-1.4.5-.2,1.2.1,1.4.6l2.2,5.7-.2,5.6c-.1.7-.5,1.1-1.1,1.1Z"/>
    <path class="cls-12" d="M951.6,537.9c-5.7,0-10.2-1.5-13.6-4.4-6.3-5.5-6.5-14.5-6.4-17.7-3.6-.1-15.3-.3-24.6-.9-11.2-.7-17.7-2.8-18-2.8-.6-.2-.9-.8-.7-1.3.2-.6.8-.9,1.3-.7.1,0,6.5,2.1,17.4,2.7,11,.7,25.4.9,25.6.9h1.2l-.1,1.2c0,.1-1.2,11.1,5.6,17,4.9,4.3,12.7,5,23.2,2.3.6-.1,1.1.2,1.3.8.1.6-.2,1.1-.8,1.3-4.2,1-8,1.6-11.4,1.6Z"/>
    <path class="cls-12" d="M993.8,559.1q-.1,0,0,0c-.6,0-1.1-.5-1.1-1.1l.2-5.1c0-.6.5-1,1.1-1s1,.5,1,1.1l-.2,5.1c0,.6-.5,1-1,1Z"/>
    <path class="cls-12" d="M998.6,558.2h0c-.7,0-1.1-.6-1-1.1l.5-6.1c0-.6.5-1,1.1-1s1,.5,1,1.1l-.5,6.1c0,.6-.5,1-1.1,1Z"/>
  </g>
</svg>