<svg xmlns="http://www.w3.org/2000/svg" viewBox="0 0 800 530"><defs><clipPath id="basic_people_consultation_discussion_svg__clippath"><path d="M629.2 330.46H192.53l-14.49-20.98-48.74 3.29V62.83h499.9z" class="basic_people_consultation_discussion_svg__cls-2"/></clipPath><clipPath id="basic_people_consultation_discussion_svg__clippath-1"><path d="M550.4 412.93H225.21c-30.51 0-55.17-24.76-55.17-55.17V105.11c0-30.51 24.76-55.17 55.17-55.17H550.4c30.51 0 55.17 24.76 55.17 55.17v252.65c0 30.42-24.66 55.17-55.17 55.17" class="basic_people_consultation_discussion_svg__cls-2"/></clipPath><style>.basic_people_consultation_discussion_svg__cls-2,.basic_people_consultation_discussion_svg__cls-3,.basic_people_consultation_discussion_svg__cls-7{stroke-width:0}.basic_people_consultation_discussion_svg__cls-10,.basic_people_consultation_discussion_svg__cls-11,.basic_people_consultation_discussion_svg__cls-2,.basic_people_consultation_discussion_svg__cls-9{fill:none}.basic_people_consultation_discussion_svg__cls-9{stroke-width:2.4px;stroke:#454440;stroke-linecap:round}.basic_people_consultation_discussion_svg__cls-10,.basic_people_consultation_discussion_svg__cls-11,.basic_people_consultation_discussion_svg__cls-12{stroke:#454440;stroke-linecap:round}.basic_people_consultation_discussion_svg__cls-10,.basic_people_consultation_discussion_svg__cls-12{stroke-width:4.03px}.basic_people_consultation_discussion_svg__cls-12,.basic_people_consultation_discussion_svg__cls-7{fill:#fff}.basic_people_consultation_discussion_svg__cls-11{stroke-width:2.88px}.basic_people_consultation_discussion_svg__cls-3{fill:#454440}</style></defs><g style="clip-path:url(#basic_people_consultation_discussion_svg__clippath)"><rect id="basic_people_consultation_discussion_svg__Ebene_2" width="415.63" height="381.33" x="170.1" y="95.1" data-name="Ebene 2" rx="50.88" ry="50.88" style="stroke-width:0;fill:#dedcd2"/></g><g id="basic_people_consultation_discussion_svg__Ebene_1" data-name="Ebene 1"><path d="M592.05 342.02c.67-5.85 3.93-11.71 3.55-20.63s-6.52-37.23-7.96-42.8c-4.7-18.52-17.85-71.77-17.85-71.77s-32.72-12.95-64.67-25.24c-4.03-1.54-7.39-2.21-11.03-3.45l2.21-35.12 5.76-.93s10.84-23.83 2.97-27.19c-3.45-1.54-6.24.29-6.24.29s1.63-7.48 0-16.31c-1.34-7.39-.19-13.72-10.84-21.69-14.01-11.71-39.82-10.75-52.68 2.21-4.32 4.32-7.58 8.06-8.73 17.94-1.15 9.4-1.13 18.14-1.13 18.14l3.99 8.48s-3.12 15.39-2.66 20.95c.42 5.16 1.17 11.88 4.49 19.29 1.93 4.31 7.59 11.26 7.59 11.44-6.52 2.97-11.99 5.66-23.6 10.08-12.47 4.8-51.72 23.03-51.72 23.03s-7.2 16.79-13.05 34.06-19.48 90.2-15.26 105.84 36.56 19 36.56 19l-3.74 11.9 192.77-28.02c-3.36 2.49-3.65 7.29-3.65 7.29s-7.2.29-7.87 2.88c-.67 2.49.29 4.32.29 4.32s-.67.48-1.44 2.49c-1.82 4.99 3.17 8.54 3.17 8.54s15.16 7.58 20.34 8.54c13.15-.67 15.35-1.82 15.35-1.82s4.99-6.14 4.41-11.23c-.48-5.09 2.59-8.44 2.97-11.23.67-5.18 2.78-13.24-2.3-19.29Z" style="stroke-linecap:round;fill:#fff;stroke:#fff;stroke-width:11.51px"/><path d="M397.35 311.22s-36.37-20.73-62.95-30.61c-4.41-5.76-10.46-12.19-16.89-15.06-.38-.19-.67-.29-1.06-.48-1.15-14.78-.1-26-.1-26s9.98-.77 15.64-4.8 7.48-11.9 14.68-33.2c6.91-20.34-1.44-28.31-2.21-33.2s2.21-15.93 2.21-15.93c-.86-6.62-5.09-39.53-13.05-50.38-4.8-6.52-19.29-18.81-40.21-22.36-15.16-2.59-38.44 2.29-53.99 11.12-15.54 8.83-23.13 22.46-25.72 40.79-.48 3.45-1.12 21.41-.44 27.93 1.73 18.52-28.32 33.8-11.53 52.32s-1.85 22.53-10.2 30.59c-6.33 5.95-8.54 20.59-3.55 33.25-17.56 5.85-17.59 5.78-17.59 5.78s18.42 22.74 20.82 55.75 51.91 45.48 51.91 45.48l182.99 22.93c-4.7-39.05-28.79-93.94-28.79-93.94Z" style="fill:#fff;stroke:#fff;stroke-width:11.51px"/><path d="m451.18 399.31 56.81-13.72 64.77 14.96-74.37 21.21-36.84-11.42" style="stroke:#454440;stroke-linecap:round;stroke-width:4.03px;fill:#fff;stroke-linejoin:round"/><path fill="none" stroke="#454440" stroke-width="4.03" d="m647.6 338.28-305.52 44.14" class="basic_people_consultation_discussion_svg__cls-10"/><path fill="#FFF" stroke-width="0" d="M363.96 209.03s38.29-16.89 49.99-23.03c13.91-7.2 35.5-17.27 35.5-17.27s23.8.29 55.56 12.67 59.78 24.66 59.78 24.66 13.72 56.42 17.27 75.13c4.7 18.52 13.82 48.07 9.02 65.63L367.7 379.25l3.74-11.9s-32.43-3.36-36.56-19c-4.32-15.64 14.39-97.87 16.7-109.2 2.49-11.51 12.38-30.13 12.38-30.13Z" class="basic_people_consultation_discussion_svg__cls-7"/><path d="m450.9 367.55-76.76 12.76 3.74-11.9s-30.42-1.25-34.64-16.89c-4.32-15.64 4.8-72.06 11.23-95.19s14.39-42.41 14.39-42.41l70.81-31.28s-2.4 27.06-.67 56.13c1.44 22.84 3.07 41.64 4.8 67.94 1.63 26.48 7.1 60.84 7.1 60.84m43.56-183.95s11.51 5.76 22.93 10.17c11.51 4.51 54.21 21.4 54.21 21.4s12.86 51.91 17.56 70.53 10.17 39.92 1.44 63.71l-123.11 16.12s6.81-32.34 9.69-51.14c2.88-18.81 11.61-90.2 11.61-90.2l5.66-40.59Z" style="fill:#19889c;isolation:isolate;opacity:.9;stroke-width:0"/><path fill="none" stroke="#454440" stroke-width="4.03" d="M450.8 170.45s22.45-1.34 54.31 11.03c31.86 12.38 64.39 26 64.39 26s14.59 53.64 18.04 72.06c1.44 5.37 2.88 12.67 4.61 19.48m3.45 24c1.34 9.02-2.59 17.08-4.51 23.8l-223.38 32.43 3.74-11.9s-32.43-3.36-36.56-19c-4.32-15.64 10.56-88.95 16.31-106.22 5.85-17.27 12.67-33.01 12.67-33.01s37.81-18.23 50.18-23.03c3.26-1.25 6.24-2.4 9.02-3.55" class="basic_people_consultation_discussion_svg__cls-10"/><path fill="#FFF" stroke="#454440" stroke-width="4.03" d="M443.12 157.88s-2.3 10.94-2.59 26.68c1.54 16.7 22.45 18.81 22.45 18.81s6.91 2.02 18.04-6.62c9.4-7.29 12.76-15.93 12.76-15.93l-.06-28.09c-3.68-1.97-33.24-6.26-50.61 5.16Z" class="basic_people_consultation_discussion_svg__cls-12"/><path fill="#FFF" stroke="#454440" stroke-width="4.03" d="m493.69 181.97 2.4-41.45h5.76s10.27-21.78 2.21-25.24c-2.59-1.25-5.76 1.06-5.76 1.06s1.82-10.65.1-19.86c-1.44-7.87-2.88-13.34-11.13-20.15-10.17-8.25-38.19-10.17-51.62 3.36-4.51 4.51-7.48 8.83-9.31 20.25-.86 8.92-.77 15.06-.77 15.06l3.84 8.25s-2.21 13.82-2.02 20.25c.19 6.52 1.63 12.95 3.36 17.75 4.41 10.84 14.78 19.57 14.78 19.57s17.08 5.47 25.52.48c4.22-3.36 8.73-8.35 12.95-12.28" class="basic_people_consultation_discussion_svg__cls-12"/><path fill="none" stroke="#454440" stroke-width="2.88" d="M452.53 121.52c1.34 10.65-6.24 19.86-3.93 22.55 2.59 2.88 7 2.21 12.19 2.02" class="basic_people_consultation_discussion_svg__cls-11"/><path fill="none" stroke="#454440" stroke-width="4.03" d="M562.78 229.95s-2.4 42.41-6.43 65.35c-4.61 26.1-10.36 31.38-10.36 31.38" class="basic_people_consultation_discussion_svg__cls-10"/><path fill="none" stroke="#454440" stroke-width="2.88" d="M445.14 152.7s11.23 1.34 29.94-.38c0 0-3.84 10.27-23.7 6.72m6.42 6.42s3.93.38 6.62-.38" class="basic_people_consultation_discussion_svg__cls-11"/><path fill="#FFF" stroke-width="0" d="M456.46 382.71s31.95-33.2 43.08-60.36c0 0 66.4-7 83.58-13.72 0 0-9.69 26.58-21.21 43.08-11.32 16.7-21.88 19.48-21.88 19.48l-83.58 11.51Z" class="basic_people_consultation_discussion_svg__cls-7"/><path d="M467.5 381.27s20.63-16.89 38.77-58.24c0 0 58.15-5.09 75.32-11.8 0 0-5.66 21.21-17.18 37.71-11.32 16.7-23.99 23.8-23.99 23.8l-72.93 8.54Z" style="stroke-width:0;fill:#da2323"/><path fill="none" stroke="#454440" stroke-width="4.03" d="M457.13 383.67s30.71-32.62 41.84-59.78c0 0 65.35-8.83 83.58-12.95 0 0-9.69 25.91-21.21 42.41-11.32 16.7-21.88 19.48-21.88 19.48z" class="basic_people_consultation_discussion_svg__cls-10"/><path fill="#FFF" stroke="#454440" stroke-width="4.03" d="M572.66 334.83s11.51.77 13.53 2.21c8.54 6.43 5.95 16.6 4.89 22.65-.38 2.97-3.74 6.43-3.17 11.8.58 5.37-4.61 11.8-4.61 11.8s-2.21 1.15-16.12 1.92c-5.47-1.06-21.4-9.02-21.4-9.02s-5.28-3.74-3.36-9.02c.67-2.02 1.44-2.69 1.44-2.69s-1.15-1.92-.29-4.51c.77-2.69 8.25-3.07 8.25-3.07s.29-6.72 5.57-8.54c5.28-1.92 8.54-2.69 8.54-2.69l6.72-10.84Z" class="basic_people_consultation_discussion_svg__cls-12"/><path fill="none" stroke="#454440" stroke-width="4.03" d="M443.7 317.27c-2.21-28.31-3.55-54.31-4.51-66.4-3.55-49.13 1.63-73.12 1.63-73.12m8.06 188.36c-.96-9.21-1.25-15.93-1.92-23.6m46.92-164.09s-1.06 21.01-4.7 49.99c-3.26 25.52-7.68 53.35-8.35 61.89-1.54 17.18-9.5 66.02-14.3 74.56m-.86-160.92s-3.74.19-8.73 7.58c-2.78 4.22-4.89 10.75-4.89 10.75s-6.33-1.92-7.96-3.65" class="basic_people_consultation_discussion_svg__cls-10"/><path fill="none" stroke="#454440" stroke-width="4.03" d="M464.71 204.42s12.67 1.54 15.93 20.92l7.87-2.59m-112.36-.29s2.88 21.11 7.39 35.5c2.97 9.5 7.1 20.25 8.54 29.27m41.93-107.95s-15.45 13.63-14.49 30.32l11.32 7.2-13.24 14.01s8.92 42.22 16.02 79.55m71.49-128.87s8.06 14.68 8.06 22.26l-9.5 7.2 12.19 11.13s-8.54 49.99-17.75 84.82c-.38 1.73-.86 3.45-1.44 4.99" class="basic_people_consultation_discussion_svg__cls-10"/><path fill="#FFF" stroke="#454440" stroke-width="4.03" d="M364.06 321.78s2.49-8.16 8.44-14.2c5.85-5.95 8.73-14.49 8.73-14.49s4.61.19 6.72 2.21 2.69 5.37 1.44 9.21c-1.44 4.7-2.88 8.64-3.26 11.61 0 0 5.18.38 9.98.38 3.36 0 24.28-.77 25.91-.19 3.84 1.25 3.84 7.58 3.84 7.58s6.43-3.07 11.32 1.44l2.69 8.54s-14.11 11.23-31.28 13.82c-10.08 5.37-21.69 4.61-27.83 3.45 0 0-11.9 4.89-16.41 4.89.1 0-10.65-20.82-.29-34.26Z" class="basic_people_consultation_discussion_svg__cls-12"/><path fill="none" stroke="#454440" stroke-width="4.03" d="M374.23 329.93s32.72 3.36 51.34-5.47m-36.76 15.45s31.57 1.44 47.98-11.13" class="basic_people_consultation_discussion_svg__cls-10"/><path fill="none" stroke="#454440" stroke-width="2.88" d="M451.28 132.36s-1.44 2.69-4.99 3.07c-5.28.48-14.59.67-16.7-2.49-2.97-4.51-3.55-12.28-3.55-12.28s13.05-2.02 26.29.58c0 0 3.84-1.34 8.64-.38 0 0 6.05-1.25 13.63-1.63 9.21-.58 17.94 1.06 17.94 1.06l4.8-.96" class="basic_people_consultation_discussion_svg__cls-11"/><path fill="none" stroke="#454440" stroke-width="2.88" d="M461.16 121.61s-1.54 11.42 5.47 13.43c5.47.96 14.01.29 17.27-1.92 4.51-3.17 3.84-12.47 3.84-12.47" class="basic_people_consultation_discussion_svg__cls-11"/><path fill="none" stroke="#454440" stroke-width="2.4" d="M469.22 123.05s4.32-3.36 10.27-.96m-41.64 1.44s4.51-4.32 9.69-.19" class="basic_people_consultation_discussion_svg__cls-9"/><path fill="none" stroke="#454440" stroke-width="2.88" d="M432.57 115.47s7-2.59 17.75.58m10.65-.67s8.92-3.26 21.97-1.06" class="basic_people_consultation_discussion_svg__cls-11"/><ellipse cx="473.51" cy="123.72" fill="#454440" stroke-width="0" class="basic_people_consultation_discussion_svg__cls-3" rx="3.07" ry="2.21" transform="rotate(-85.34 473.513 123.713)"/><ellipse cx="443.03" cy="124.3" fill="#454440" stroke-width="0" class="basic_people_consultation_discussion_svg__cls-3" rx="2.21" ry="3.45"/><path fill="none" stroke="#454440" stroke-width="2.4" d="M494.46 84.67s-5.47 6.43-4.51 18.71c.19 5.18 1.25 9.02 2.59 12.38m-45.19-37.61s11.03 6.72 32.82-5.66" class="basic_people_consultation_discussion_svg__cls-9"/><path fill="none" stroke="#454440" stroke-width="2.88" d="m421.44 121.04 5.56-.39M546.95 357.37l17.66 1.44s21.01-3.74 26.29-6.72m-45.97 13.54 18.71 4.22s17.56-3.07 24.37-4.51m-1.05 9.31c-11.61 6.43-27.73 4.22-27.73 4.22l-13.53-2.69" class="basic_people_consultation_discussion_svg__cls-11"/><path fill="none" stroke="#454440" stroke-width="4.03" d="m576.88 341.54-10.93 4.22" class="basic_people_consultation_discussion_svg__cls-10"/><g id="basic_people_consultation_discussion_svg__Ebene_2-2" data-name="Ebene 2" style="clip-path:url(#basic_people_consultation_discussion_svg__clippath-1)"><path fill="#FFF" stroke="#454440" stroke-width="4.03" d="M340.55 123.15s3.36 13.34 5.37 29.36c0 0-3.17 10.65-2.4 15.54s9.69 13.05 2.78 33.39c-7.2 21.3-9.21 28.5-14.87 32.53s-15.26 4.41-15.26 4.41-2.21 32.14 5.66 56.13l-100.27-.38s13.63-20.82 18.81-48.94c4.8-25.72.38-43.76.38-43.76l74.17-78.68 25.62.38Z" class="basic_people_consultation_discussion_svg__cls-12"/><path fill="#454440" stroke-width="0" d="M334.69 101.17c-4.7-6.52-17.66-18.62-38.57-22.17-15.16-2.59-40.11.86-55.65 9.69s-24.28 24.18-26.87 42.51c-3.07 21.4 1.92 38.57 6.33 50.76 5.85 16.41 14.11 31.47 19.57 35.79l.29.29.38.1c2.49.58 16.79 3.65 29.36 3.65 8.54 0 27.25-6.81 31.47-14.39 7.58-13.63 11.03-35.31 11.03-35.31.58-5.85 2.78-15.83 6.43-17.37 14.2-7.87 16.5 21.69 16.5 21.69.1-.1 5.95-13.15 7.48-30.32 1.54-17.18.67-33.2-7.77-44.91Z" class="basic_people_consultation_discussion_svg__cls-3"/><path fill="#FFF" stroke="#454440" stroke-width="4.03" d="M262.54 254.7s24.08-3.17 54.98 10.84c13.24 6.05 24.47 26.48 24.47 26.48" class="basic_people_consultation_discussion_svg__cls-12"/><path fill="#FFF" stroke-width="0" d="M429.59 417.73c-5.09-39.44-31.86-105.74-31.86-105.74s-37.81-22.45-71.49-34.83-76.48-19.29-126.28-6.05c-23.41 6.24-42.51 16.79-42.51 16.79s-11.13 26.29-8.73 59.3 14.59 73.79 14.59 73.79" class="basic_people_consultation_discussion_svg__cls-7"/><path d="M434.39 435.96c-17.27-71.97-34.54-115.15-34.54-115.15s-41.45-23.6-72.73-33.3c-35.5-10.94-57.86-14.11-86.65-12.86-50.09 2.21-75.42 20.05-75.42 20.05s-10.75 23.89-6.43 64.19c4.41 41.26 14.39 69.76 14.39 69.76l261.38 7.29Z" style="stroke-width:0;fill:#afcd5f"/><path fill="none" stroke="#454440" stroke-width="4.03" d="M434.39 444.6c-1.92-44.52-37.04-133.38-37.04-133.38s-47.79-27.25-73.79-34.06c-26-6.91-73.79-19.29-123.49-6.05-23.51 6.24-42.6 16.79-42.6 16.79s-11.13 26.29-8.73 59.3 12.76 79.93 12.76 79.93" class="basic_people_consultation_discussion_svg__cls-10"/><path fill="#FFF" stroke="#454440" stroke-width="4.03" d="M314.26 155.29s-3.17 9.98 0 24.08c1.82 7.77 4.03 14.39 4.03 14.39l6.81 1.25" class="basic_people_consultation_discussion_svg__cls-12"/><path fill="none" stroke="#454440" stroke-width="4.03" d="m333.06 158.46 2.79 15.64" class="basic_people_consultation_discussion_svg__cls-10"/><path fill="#FFF" stroke="#454440" stroke-width="4.03" d="M317.04 223.04s-1.54 10.27-1.25 30.42" class="basic_people_consultation_discussion_svg__cls-12"/><path fill="#454440" stroke-width="0" d="M213.6 132.84s-2.02 12.86-.77 26.1c1.73 18.52-27.64 33.58-10.84 52.1 16.79 18.52-1.63 22.45-9.98 30.51-9.5 9.02-11.51 37.81 10.08 49.51 7.29 3.93 14.01 5.09 30.42 4.61 46.54-1.25 64.1-32.82 68.99-51.72 10.84-42.12 10.65-71.87 10.65-71.87l-57.57-53.26-40.97 14.01Z" class="basic_people_consultation_discussion_svg__cls-3"/><path fill="none" stroke="#454440" stroke-width="4.03" d="M358.59 349.6s-4.8 13.43-7.68 26.87-2.97 22.55-2.97 22.55l3.93 41.74" class="basic_people_consultation_discussion_svg__cls-10"/></g><path fill="none" stroke="#454440" stroke-width="4.03" d="m498.2 117.39-1.53 6.53" class="basic_people_consultation_discussion_svg__cls-10"/></g></svg>