<?xml version="1.0" encoding="UTF-8"?>
<svg id="Layer_1" data-name="Layer 1" xmlns="http://www.w3.org/2000/svg" version="1.1" viewBox="0 0 1216 810">
  <defs>
    <style>
      .cls-1 {
        fill: none;
      }

      .cls-1, .cls-2, .cls-3, .cls-4, .cls-5, .cls-6, .cls-7, .cls-8, .cls-9 {
        stroke-width: 0px;
      }

      .cls-2 {
        fill: #da2323;
      }

      .cls-3 {
        opacity: .6;
      }

      .cls-3, .cls-4, .cls-8 {
        fill: #999;
      }

      .cls-3, .cls-4, .cls-8, .cls-9 {
        isolation: isolate;
      }

      .cls-4 {
        opacity: .4;
      }

      .cls-5 {
        fill: #ebaa3a;
      }

      .cls-6 {
        fill: #454440;
      }

      .cls-7 {
        fill: #fff;
      }

      .cls-8 {
        opacity: .8;
      }

      .cls-9 {
        fill: #dedcd2;
        opacity: .5;
      }
    </style>
  </defs>
  <g id="Ebene_5" data-name="Ebene 5">
    <path class="cls-9" d="M939.3,646.1l3.3-430.8c.5-64.1-51.1-116.5-115.2-117l-452.7-3.4c-64.1-.5-116.5,51.1-117,115.2l-3.3,436.1h684.9Z"/>
    <path class="cls-7" d="M254.7,482.8c-6.5,35.9-.8,59.7-.8,59.7l165.9-69.4,106.7-87.8s-13.3-50.1-25.7-59.4c-15.3-11.5-34.1-13.3-34.1-13.3,0,0,12.4-6.2,22.6-25.7,7.6-14.6,6.2-29.3,6.2-29.3l6.7-15.1s1.6-24.4.9-29.7c-4.4-33.7-18.2-36.8-18.2-36.8,0,0-1.1-8.9-6.2-13.7-24.7-23.7-68.8-6.8-68.8-6.8,0,0-30.7-12.3-48.9,20-7.8,13.8-12.2,28.4-14,47.9-3.3,35.5,1,75.8,1,75.8,0,0-32.5,6.8-42.7,16.5-7.7,7.3-16.8,24.8-25.3,51.4-11.3,35.4-20.5,89.2-25.3,115.7h0Z"/>
    <g>
      <path class="cls-7" d="M527.6,569l-23.6-174.6s16.1-98.5,56.9-122.1c6.5-3.7,16.5-7.5,28.6-11.1l74.5-15.7c35.2-5.1,69-7,84.4-2.5,33.5,9.8,53.7,8.1,90,30.4,15.9,9.8,67.2,53.2,21.5,96.3-27,25.5-88.3,57.1-88.3,57.1,0,0,.7,1.9-26.5,71.1-22.3,25.1-66.9,34.9-66.9,34.9"/>
      <path class="cls-7" d="M515.2,570.6l-23.8-176.4.3-1.8c.2-1,4.3-25.9,13.6-54.1,13.1-39.6,29.7-65.4,49.4-76.8,7.1-4.1,17.6-8.2,31.3-12.3l1-.2,74.9-15.8h.4c24.2-3.6,68-8.6,89.6-2.2,9.4,2.8,17.9,4.6,26,6.3,20.4,4.4,39.6,8.6,67,25.4,1.7,1,41.8,26.1,45.7,63.9,1.9,18.9-5.5,36.4-22.1,52.1-23.8,22.5-71.1,48.5-86.4,56.6-.5,1.5-1.1,3.2-1.8,5.2-4.3,12.2-12.3,33.1-23.6,61.9l-.8,2.1-1.5,1.7c-24.7,27.8-71.6,38.3-73.6,38.8l-5.3-24.4c.4,0,39-8.8,58.8-29.4,16.6-42.2,22.2-58,24.1-63.7l-2.6-6.6,10-5.2c.6-.3,60-31.1,85.5-55.1,10.8-10.2,15.5-20.5,14.4-31.4-2.2-21.2-25.8-40.2-33.9-45.2-23.8-14.6-39.4-18-59.2-22.3-8.6-1.9-17.4-3.8-27.7-6.8-12.1-3.5-42.2-2.4-78.7,2.8l-73.6,15.5c-14.4,4.3-21.8,7.7-25.4,9.8-28.6,16.5-45.8,84.3-50.5,111.5l23.3,172.8-24.8,3.3h0Z"/>
    </g>
    <g>
      <path class="cls-7" d="M701.8,185.9c-4.3-3.5-11.7,0-11.7,0,0,0,2-22.3-10.1-35.5-12.1-13.3-48.6-35.5-82.4,4.4,0,0-10.1,12.7-10.1,32.9s2.8,23.6,6,32.4c3.3,9.3,1.1,9.3,2.2,20s21.2,40.2,34.5,41.5c4.3.4,8.6,1.2,12.4.9,18.4,4.9,44.9,8.7,55.1-6.3l-7.2-52.3,7.8-1.3s3.8-9.3,5.5-15.5c2.1-7.9,4.4-16-2-21.2h0Z"/>
      <path class="cls-7" d="M671.2,298.8c-10,0-20.5-1.8-29.9-4.2-3.2,0-6.2-.3-9-.7-1.1-.1-2.1-.3-3.2-.4-12-1.1-23-12.5-30.2-21.9-6.7-8.7-14.2-21.2-15.1-30.4-.5-4.8-.4-7.9-.4-10.2s0-3.3-1.2-7c-.4-1-.7-1.9-1-2.9-2.9-7.8-5.6-15.1-5.6-33.6s11.5-38.8,12.8-40.4l.2-.3c18.5-21.8,37.7-26.6,50.5-26.8,21.6-.4,40.4,11.7,49.9,22.2,8.5,9.3,11.7,21.3,12.8,30.6,2.7.6,5.3,1.8,7.7,3.7h0c12.4,10,8.4,24.7,6.1,33.4v.2c-1.9,6.8-5.7,16-6.1,17l-2.6,6.2-2.9.5,6.3,45.3-2.6,3.8c-8.1,12-21.9,15.9-36.5,15.9h0ZM643.8,270.4l1.9.5c18.2,4.9,32.6,5.2,39.3,1.1l-8-58.1,12.6-2c1-2.7,2-5.6,2.6-7.8v-.2c.6-1.8,1.3-4.3,1.6-6.3l-17.9,9.2,2.3-21.9c.4-4.7,0-18.8-7-26.4-4.9-5.4-17.1-14.6-31.7-14.3-11.4.2-22.3,6.3-32.4,18.1-.8,1.2-7.5,10.9-7.5,25.4s1.6,18.6,4.1,25.3c.4,1,.8,2,1.1,3.1,2.6,7.3,2.7,10.9,2.6,15.6,0,1.9,0,3.8.2,7.1.3,2,3.5,9.3,9.9,17.7,6.8,9,12.3,12.6,13.9,13.1,1.2.1,2.5.3,3.7.4,2.6.3,5,.6,6.6.5h2.1c0-.1,0-.1,0-.1ZM694.3,195.3h0l6.7-8.4h0l-6.7,8.4c0-.1,0,0,0,0Z"/>
    </g>
    <path class="cls-7" d="M699.4,695.9c-13.8,0-27.4-.5-40.2-2-38.5-4.5-64.2-16.8-78.6-37.8-9.6-13.9-18.9-34.9-9-55.9,16.7-35.4,74.2-42.3,83.8-43.2l-7.7-27.6,9-59.5,77.8-5.9c3.2-22.8,12.4-86.9,19.8-117.1,5.4-22.1,22.4-38.5,44.2-42.8,21.6-4.2,43.2,4.5,56.5,22.7,14.2,19.5,25,55.8,29,97.3,3.8,39.1,11.1,130.4,11.2,131.3l.5,6.8-5.2,4.5c-.4.3-3.1,2.7-7.6,5.8l-.2,17.7c15.3,2.8,25,4.6,25.1,4.6l5.6,1,3.2,4.7c.3.5,1.5,2.3,3,5.3h.6c3.4-5,8.2-10,14.7-12.2,6.9-2.3,31.3-9,57.3.3,9.6,3.4,18.4,3.1,28.5,2.8,7.7-.3,15.7-.5,24.6.7,12,1.7,22.6,9.3,28.9,20.8,7,12.9,8,29.1,2.4,41.4-10.7,23.6-37,24.4-46.9,24.6-12.6.4-50.8-.3-80.6-.9l-39.3.7-1.7.2c-.6,0-62.4,5.6-127.5,8.4-7.6.3-15.4.8-23.7,1.2-18.4.9-38.1,2-57.5,2h0ZM661,583.7h-2.6c-21.3,1.9-54.8,11.7-62.4,27.9-3.5,7.5-1.2,17.3,6.9,29.1,22.8,33.2,94.7,29.2,152.5,26.1,8.4-.5,16.3-.9,24-1.2,50.6-2.2,99.2-6,118-7.6l.3-.8,51.4-1h.3c24.2.5,66.8,1.3,79.5,1,12-.3,20-1.9,23.1-8.8,2.1-4.6,1.4-11.8-1.5-17.2-1.6-2.9-4.4-6.4-9-7h0c-6.6-.9-13.1-.7-19.9-.5-11.3.4-24.1.8-38.5-4.3-17.4-6.2-35-1.5-39-.3-1,1-2.6,3.6-3.8,6.3l-3.4,8.2h-12.2c-.8,0-3.2-.2-16.3-2l-8.2-1.1-2.8-7.7c-.4-1-.7-1.9-1.1-2.7-6.2-1.2-16.7-3.1-29.7-5.4l-11.2-2,.6-55.3,6.5-3.9c1.9-1.2,3.6-2.3,5.1-3.3-1.8-22.6-7.4-91.1-10.5-123.5-3.5-36.3-12.7-68.5-24-84-7.1-9.8-18.1-14.3-29.4-12.1-11.6,2.3-20.3,10.8-23.2,22.7-4.6,18.7-10.1,52.2-14.2,79.5l22.6-24.6,4.3,27.6c1.8,11.3,2.2,19.3,2.5,26.4.2,3.5.3,6.8.7,10.4l1.2,13.6-47.2,3.6-22.8,24.7,3.1-23.3-50.6,3.8-4.9,32.5,16.2,58.2-19.3-1.6c-5.4-.4-8.9-.5-11.1-.5h0Z"/>
  </g>
  <g id="Ebene_3" data-name="Ebene 3">
    <ellipse class="cls-3" cx="640.5" cy="677.9" rx="524.9" ry="65.4"/>
    <path class="cls-7" d="M526.1,545.7l-29.9-.4c-9.9,0-17.9-1.3-17.9-11.2v-115.7c0-9.9,8-17.9,17.9-17.9h23.6c9.9,0,17.9,8,17.9,17.9v115.8c0,9.8-1.7,11.5-11.6,11.5h0Z"/>
    <path class="cls-6" d="M478.3,520c-1.6,0-2.9-1.3-2.9-2.9v-98.8c0-11.4,9.3-20.8,20.8-20.8h26.2c11.4,0,20.8,9.3,20.8,20.8v89.2c0,1.6-1.3,2.9-2.9,2.9s-2.9-1.3-2.9-2.9v-89.2c0-8.3-6.7-15-15-15h-26.2c-8.3,0-15,6.7-15,15v98.8c0,1.6-1.3,2.9-2.9,2.9h0Z"/>
    <g>
      <path class="cls-7" d="M840.8,52.4c-39.5-16.2-84.6,2.6-100.9,42.1-11,26.8-5.8,56.3,11.1,77.5-2.7,6.8-5.5,13.9-7.8,19.6-3.1,7.8.8,12.2,9.3,8.2,5.2-2.5,12.5-6.1,19.3-9.6,3.2,1.9,6.6,3.7,10.2,5.2,39.5,16.2,84.6-2.6,100.9-42.1,16.3-39.5-2.6-84.7-42.1-100.9h0Z"/>
      <path class="cls-7" d="M746.9,211.8c-5.4,0-8.9-2.5-10.5-4-5-4.6-6.1-12.1-3-20.1,1.5-3.7,3.3-8.5,5.6-14.2-16.7-24.3-20.1-55.6-8.9-83,18.4-44.8,69.8-66.2,114.6-47.8h0c21.7,8.9,38.6,25.7,47.7,47.4s9.1,45.5.2,67.2-25.7,38.6-47.4,47.7c-21.6,9-45.5,9.1-67.2.2-2.1-.9-4.2-1.9-6.4-3-6.1,3-11,5.5-14.6,7.2-3.8,1.7-7.2,2.4-10.1,2.4h0ZM772.3,178.2l5,2.9c3.3,1.9,6.1,3.4,8.8,4.5,16.5,6.8,34.7,6.7,51.1-.1,16.5-6.9,29.3-19.8,36-36.3,6.8-16.5,6.7-34.7,0-51.1-6.9-16.5-19.8-29.3-36.3-36-34.1-14-73.2,2.3-87.2,36.4-9.2,22.3-5.5,48,9.6,67l3.8,4.8-2.3,5.7c-1.5,3.7-2.8,7.1-4,10.1,3.1-1.5,6.6-3.3,10.5-5.2l5.1-2.7h0Z"/>
    </g>
    <path class="cls-6" d="M597.4,496.9H206.9c-1.9,0-3.5-1.6-3.5-3.5s1.6-3.5,3.5-3.5h390.5c1.9,0,3.5,1.6,3.5,3.5s-1.5,3.5-3.5,3.5Z"/>
    <g>
      <path class="cls-7" d="M840.8,52.4c-39.5-16.2-84.6,2.6-100.9,42.1-11,26.8-5.8,56.3,11.1,77.5-2.7,6.8-5.5,13.9-7.8,19.6-3.1,7.8.8,12.2,9.3,8.2,5.2-2.5,12.5-6.1,19.3-9.6,3.2,1.9,6.6,3.7,10.2,5.2,39.5,16.2,84.6-2.6,100.9-42.1,16.3-39.5-2.6-84.7-42.1-100.9h0Z"/>
      <path class="cls-6" d="M746.9,204.8c-2.9,0-4.7-1.1-5.7-2.1-2.8-2.6-3.3-7.2-1.2-12.4,1.8-4.5,4.1-10.4,7-17.7-17.2-22.8-21.1-53-10.3-79.4,16.9-41.2,64.2-61,105.4-44h0c20,8.2,35.5,23.7,43.9,43.6,8.3,19.9,8.4,41.9.2,61.8-8.2,20-23.7,35.5-43.6,43.9-19.9,8.3-41.9,8.4-61.8.2-2.9-1.2-5.8-2.6-9-4.4-7.6,3.8-13.5,6.8-17.7,8.7-2.9,1.3-5.3,1.8-7.2,1.8h0ZM811.5,50.1c-29.1,0-56.6,17.3-68.4,45.8-10.1,24.7-6.1,53,10.6,74l1.3,1.6-.8,1.9c-3.2,8.1-5.9,14.7-7.7,19.5-1.1,2.9-.8,4.5-.5,4.7.2.2,1.7.6,5.1-1,4.4-2.1,10.9-5.3,19.3-9.5l1.7-.9,1.7,1c3.6,2.1,6.7,3.7,9.7,5,18.2,7.5,38.3,7.4,56.5-.2s32.3-21.8,39.8-40.1c7.5-18.2,7.4-38.3-.2-56.5-7.6-18.2-21.8-32.3-40.1-39.8h0c-9.2-3.7-18.6-5.5-28-5.5h0Z"/>
    </g>
    <g>
      <g>
        <path class="cls-6" d="M852.1,143.7h-74l-9.6-42.2h90.8l-7.2,42.2ZM781.1,139.9h67.8l5.9-34.6h-81.5l7.8,34.6Z"/>
        <path class="cls-6" d="M848.8,153.6h-69l-13.4-60.9h-7.8c-1.1,0-1.9-.9-1.9-1.9s.9-1.9,1.9-1.9h10.9l13.4,60.9h66c1.1,0,1.9.9,1.9,1.9s-.9,1.9-2,1.9h0Z"/>
        <path class="cls-6" d="M851.5,125.1h-76c-1.1,0-1.9-.9-1.9-1.9s.9-1.9,1.9-1.9h76c1.1,0,1.9.9,1.9,1.9s-.9,1.9-1.9,1.9Z"/>
        <path class="cls-6" d="M801.6,143.4c-1,0-1.8-.7-1.9-1.7l-3.9-37.4c0-1,.6-2,1.7-2.1,1,0,2,.6,2.1,1.7l3.9,37.4c0,1-.6,2-1.7,2.1h-.2,0Z"/>
        <path class="cls-6" d="M826.6,142.8h-.2c-1-.1-1.8-1-1.7-2.1l3.3-36c0-1,1-1.8,2.1-1.7,1,0,1.8,1,1.7,2.1l-3.3,36c0,.9-1,1.7-1.9,1.7h0Z"/>
      </g>
      <circle class="cls-6" cx="793.3" cy="162.3" r="5.4"/>
      <circle class="cls-6" cx="833.8" cy="162.3" r="5.4"/>
    </g>
    <g>
      <polygon class="cls-7" points="668.4 482.5 870.5 467.2 869.1 602.4 766 642.9 685.1 613.6 661.4 528.5 668.4 482.5"/>
      <path class="cls-6" d="M766,646.6l-83.8-30.3-24.4-87.5,7.5-49.5,208.7-15.8-1.5,141.4-106.5,41.7h0ZM688,610.9l77.9,28.2,99.7-39.1,1.4-129-195.6,14.8-6.4,42.5,23,82.6Z"/>
    </g>
    <polygon class="cls-5" points="668.4 482.5 870.5 467.2 869.1 602.4 766 642.9 685.1 613.6 661.4 528.5 668.4 482.5"/>
    <path class="cls-6" d="M766,646.6l-83.8-30.3-24.4-87.5,7.5-49.5,208.7-15.8-1.5,141.4-106.5,41.7h0ZM688,610.9l77.9,28.2,99.7-39.1,1.4-129-195.6,14.8-6.4,42.5,23,82.6Z"/>
    <g>
      <path class="cls-7" d="M591.7,648.4c30.7,44.6,122.7,33.5,188.2,30.7s126.9-8.4,126.9-8.4l7-36.2-8.4-26.5s-216.1-40.4-248.2-37.6c-29.4,2.5-104.2,21.7-65.5,78Z"/>
      <path class="cls-6" d="M699.4,685.9c-13.4,0-26.6-.5-39.1-2-35.4-4.1-58.8-15.1-71.5-33.5h0c-11.8-17.1-14.5-32.6-8.2-45.9,5.4-11.5,17.3-20.9,35.3-28,18.4-7.2,36-9.2,41-9.6,32.2-2.8,240.3,36,249.1,37.7l2.1.4,9.3,29.3-7.6,39.7-2.6.2c-.6,0-62.2,5.6-127,8.4-7.6.3-15.5.8-23.8,1.2-18.3,1-37.8,2.1-57,2.1h0ZM594.6,646.4c26,37.8,101,33.7,161.3,30.4,8.3-.5,16.2-.9,23.9-1.2,57.1-2.4,111.7-7,124.1-8.1l6.3-32.8-7.5-23.6c-22.2-4.1-215.6-39.8-245.2-37.2-4.7.4-21.6,2.3-39.1,9.2-16,6.3-27,14.8-31.5,24.5-5.1,10.8-2.6,23.9,7.7,38.8h0Z"/>
    </g>
    <g>
      <path class="cls-7" d="M927.7,620.5s4.5-11.8,11.5-14.1,27.6-7.3,48.5.2c20,7.2,36.2,1.4,55.8,4.2,19.5,2.8,27.9,27.9,20.9,43.2s-24.1,16.4-35,16.7c-19,.6-100.2-1.4-100.2-1.4l-1.5-48.8h0Z"/>
      <path class="cls-6" d="M1019.5,674.3c-27.8,0-87.6-1.4-90.5-1.5h-3.3l-1.5-52.9.2-.7c.5-1.4,5.3-13.4,13.6-16.2,4.3-1.4,27.2-8.2,50.8.2,11.4,4.1,21.5,3.7,32.2,3.4,7.3-.3,14.8-.5,22.9.6,9,1.3,16.7,6.9,21.5,15.7,5.6,10.2,6.4,22.9,2.1,32.4-8.1,17.9-28.4,18.5-38.1,18.8-2.4.2-5.8.2-9.9.2h0ZM932.5,665.9c15.5.4,80.2,1.8,96.7,1.3,13.3-.4,26.4-2.4,32-14.7,3.4-7.4,2.6-18-1.9-26.2-3.8-6.9-9.6-11.2-16.4-12.1-7.5-1.1-14.7-.8-21.6-.6-10.9.4-22.2.8-34.8-3.8-21.4-7.7-42.2-1.5-46.2,0-4.1,1.4-7.7,8.3-9.1,11.4l1.3,44.8h0Z"/>
    </g>
    <path class="cls-5" d="M591.7,653.7c30.7,37.7,122.7,28.3,188.2,25.9s126.9-7.1,126.9-7.1l7-30.6-8.4-22.4s-216.1-34.2-248.2-31.8c-29.4,2.1-104.2,18.3-65.5,66h0Z"/>
    <path class="cls-6" d="M699.4,685.9c-13.4,0-26.6-.5-39.1-2-35.4-4.1-58.8-15.1-71.5-33.5h0c-11.8-17.1-14.5-32.6-8.2-45.9,5.4-11.5,17.3-20.9,35.3-28,18.4-7.2,36-9.2,41-9.6,32.2-2.8,240.3,36,249.1,37.7l1.4.3.8,1.2c.3.5,7.6,11.5,8.9,28.1,1.3,16.5-6.9,37-7.2,37.8l-.8,2-2.1.2c-.6,0-62.2,5.6-127,8.4-7.6.3-15.5.8-23.8,1.2-18.1,1-37.6,2.1-56.8,2.1h0ZM594.6,646.4c26,37.8,101,33.7,161.3,30.4,8.3-.5,16.2-.9,23.9-1.2,57.8-2.5,113-7.2,124.5-8.2,1.9-5.4,7-20.6,6-32.7-1-11.8-5.3-20.5-7.1-23.6-19.5-3.6-215.8-39.9-245.7-37.3-4.7.4-21.6,2.3-39.1,9.2-16,6.3-27,14.8-31.5,24.5-5.1,10.9-2.6,24,7.7,38.9h0Z"/>
    <g>
      <path class="cls-7" d="M899.2,616.7s22.2,3,26.6,3.4c5.8.4,9.1-1.3,15.1-1.8,6-.4,18,2.9,18,2.9l-1,48.4-83.3,1.6s1.8-45,24.6-54.5h0Z"/>
      <path class="cls-6" d="M870.8,674.7l.2-3.7c0-1.9,2.3-47.3,26.9-57.6l.9-.4h.9c.2,0,22.1,3.1,26.4,3.5,2.9.2,5.2-.2,7.8-.8,1.9-.4,4.1-.8,6.8-1,6.4-.5,17.9,2.6,19.2,3l2.6.7-1.1,54.5-90.6,1.8h0ZM899.7,620.3c-9.9,4.7-15.2,17.7-18,28-2.1,7.7-3,15.1-3.4,19.3l76.1-1.4.9-42.3c-4.1-1-10.7-2.3-14.1-2.1-2.2.2-4.1.5-5.9.9-2.8.6-5.8,1.2-9.7.9-4.1-.3-21.5-2.7-25.9-3.3h0Z"/>
    </g>
    <path class="cls-7" d="M527.6,569l-23.6-174.6s16.1-98.5,56.9-122.1c6.5-3.7,16.5-7.5,28.6-11.1l74.5-15.7c35.2-5.1,69-7,84.4-2.5,33.5,9.8,53.7,8.1,90,30.4,15.9,9.8,67.2,53.2,21.5,96.3-27,25.5-88.3,57.1-88.3,57.1,0,0,.7,1.9-26.5,71.1-22.3,25.1-66.9,34.9-66.9,34.9"/>
    <g>
      <path class="cls-7" d="M851.3,283.2c19.8,17.6,45,52.1,8.6,86.5-27,25.5-88.3,57.1-88.3,57.1,0,0,.7,1.9-26.5,71.1-22.3,25.1-66.9,34.9-66.9,34.9"/>
      <path class="cls-6" d="M678.1,536.2c-1.6,0-3.1-1.1-3.4-2.8-.4-1.9.8-3.8,2.7-4.2.4,0,43.2-9.7,64.6-33.3,21.1-53.6,25.1-66.2,25.9-68.9l-.8-2,2.8-1.4c.6-.3,61.2-31.6,87.5-56.6,11.7-11.1,17.6-23,17.4-35.4-.3-20.2-16.4-37.5-25.9-45.9-1.4-1.3-1.6-3.5-.3-4.9s3.5-1.6,4.9-.3c10.4,9.2,27.9,28.2,28.2,51.1.2,14.4-6.4,28.1-19.6,40.6-25.1,23.7-78,51.9-87.7,56.9-.5,1.6-1.3,4.2-2.8,8.4-4.2,12-12.4,33.3-23.5,61.6l-.2.6-.4.5c-22.8,25.7-66.9,35.5-68.8,35.9h-.6ZM768.3,428h0Z"/>
    </g>
    <g>
      <path class="cls-7" d="M664,245.4c35.2-5.1,69-7,84.4-2.5,32,9.3,60,12.2,85.4,27.7"/>
      <path class="cls-6" d="M833.8,274.1c-.6,0-1.2-.2-1.8-.5-17.5-10.6-36.8-15.3-57.3-20.2-8.8-2.1-17.8-4.3-27.3-7.1-13.5-3.9-44.5-3-82.9,2.6-1.9.3-3.7-1-4-3-.3-1.9,1-3.7,3-4,18.9-2.7,65-8.5,85.8-2.4,9.3,2.7,18.3,4.9,27,7,21,5.1,40.8,9.9,59.3,21.1,1.7,1,2.2,3.2,1.2,4.8-.7,1.1-1.8,1.7-3,1.7Z"/>
    </g>
    <g>
      <path class="cls-7" d="M527.6,569l-23.6-174.6s16.1-98.5,56.9-122.1c6.5-3.7,16.5-7.5,28.6-11.1"/>
      <path class="cls-6" d="M527.6,572.5c-1.7,0-3.2-1.3-3.5-3l-23.7-175.1v-.5c.8-4.1,17-100.5,58.7-124.6,6.5-3.7,16.4-7.6,29.4-11.5,1.8-.5,3.8.5,4.4,2.4s-.5,3.8-2.4,4.4c-12.3,3.7-21.9,7.4-27.9,10.8-37.4,21.6-53.8,111.5-55.1,119.1l23.5,174c.3,1.9-1.1,3.7-3,3.9h-.4Z"/>
    </g>
    <path class="cls-8" d="M541,569l-31.6-149.1s22.8-119.9,59.1-138.5c32.1-16.4,145.2-37.3,177.4-27.9,32.2,9.4,56.4,8.9,91.2,30.4,15.3,9.5,63.6,42.5,19.7,84.1-26,24.7-81.2,63.7-81.2,63.7,0,0-7.4-16.1-33.6,50.7-21.5,24.2-63.4,38-63.4,38"/>
    <path class="cls-6" d="M680.2,415l-26.5-65.5,79.4-21.2,76.9-46.6c1.7-1,3.8-.5,4.8,1.2s.5,3.8-1.2,4.8l-77.7,47.1-72.7,19.4,21.7,53.6c15.4-.6,100.2-4.8,141.8-26.1,1.7-.9,3.8-.2,4.7,1.5s.2,3.8-1.5,4.7c-19.8,10.2-50.6,17.8-91.6,22.7-30.4,3.6-55.3,4.3-55.6,4.3h-2.5q0,.1,0,.1Z"/>
    <path class="cls-5" d="M743.7,493.7c12.5-60,12.5-121.3,27.9-150.6,15.3-29.3,4.2-4.2,60,8.4s18.1,218.9,18.1,218.9"/>
    <path class="cls-7" d="M779.9,437.9c3.6,22.9,1.1,30.7,5.6,53.1,8.9,44.5,12.7,80.1,12.7,80.1,0,0,17.8,7.6,40.7,5.1s42.8-19.8,42.8-19.8c0,0-7.3-91.6-11.2-131.1-3.8-39.4-13.9-73.4-26.5-90.6-22.3-30.7-70.7-20.6-76.2,18.4"/>
    <path class="cls-5" d="M779.9,437.9c3.6,22.9,1.1,30.7,5.6,53.1,8.9,44.5,12.7,80.1,12.7,80.1,0,0,17.8,7.6,40.7,5.1s42.8-19.8,42.8-19.8c0,0-7.3-91.6-11.2-131.1-3.8-39.4-13.9-73.4-26.5-90.6-22.3-30.7-71.1-23.7-76.7,15.3"/>
    <path class="cls-6" d="M829.4,580.2c-18.6,0-31.9-5.6-32.6-5.9l-1.9-.8-.2-2c0-.4-3.9-36-12.7-79.8-2.5-12.3-2.8-20.2-3.3-28.6-.3-7-.7-14.2-2.3-24.6-.3-1.9,1-3.7,2.9-4s3.7,1,4,2.9c1.7,10.8,2.1,18.2,2.4,25.4.4,8.1.8,15.8,3.1,27.6,7.6,38,11.5,69.9,12.5,78.3,5,1.8,19.6,6.1,37.1,4.1,18.2-2,34.8-14.1,39.5-17.9-1.1-13.1-7.5-93.3-11-129.2-3.7-38-13.6-72-25.8-88.9-9.5-13-24.2-19-39.5-16.1-15.3,3-27.2,14.6-31,30.2-8.7,35.4-20.5,122.6-20.6,123.5-.3,1.9-2,3.3-3.9,3s-3.3-2-3-3.9c0-.9,12-88.4,20.7-124.2,4.5-18.3,18.5-31.8,36.4-35.4,18-3.5,35.3,3.5,46.5,18.8,13.1,18.1,23.3,52.6,27.1,92.3,3.8,39,11.1,130.2,11.2,131.1v1.8l-1.2,1.2c-.8.7-21,18-44.7,20.6-3.2.4-6.6.5-9.7.5h0Z"/>
    <g>
      <path class="cls-7" d="M810.9,547s5.1,35.6,6.4,64.9c1.5,35.6-1.3,35.6-1.3,35.6l68.7,7.6s-10.2-17.8-19.1-52.2c-8.9-34.3-13.2-68.8-13.2-68.8,0,0-7.2-3.7-22.4,0-15.3,3.9-19.1,12.8-19.1,12.8h0Z"/>
      <path class="cls-6" d="M891.1,659.3l-75.5-8.4.4-7c-1.6,0-2.6,1.1-2.8,1.6.2-.4,1.8-5.1.6-33.5-1.2-28.7-6.3-64.2-6.3-64.5v-1l.3-.9c.2-.4,4.7-10.5,21.4-14.7,16.1-4,24-.3,24.9,0l1.6.8.2,1.8c0,.3,4.4,34.7,13.1,68.4,8.7,33.4,18.6,51.1,18.7,51.3l3.4,6h0ZM820.6,644.4l58.1,6.5c-3.7-7.9-10.3-23.7-16.4-47.1-7.6-29.3-11.9-59-13-67.1-2.7-.7-8.7-1.5-18.4.9-10.8,2.7-15.1,8.1-16.3,10,.9,6.4,5.1,37.9,6.2,64.1.8,18.7.4,28-.2,32.7h0Z"/>
    </g>
    <g>
      <path class="cls-7" d="M872.6,616.8s-9.9-7.4-26-2.5c-9.7,3-11.5,19.9-15.5,28.5-2.7,5.8-9.2,4.8-9.2,4.8l-6-12.4s-6.3,3.3-9.3,17.7.4,25.6.4,25.6c0,0,9.8,6.2,17.8,9.5,5,2.1,43.7,2.6,76.3,2.1,19.6-.3,40.4-1.4,40.4-1.4,0,0,5-25.9-7-33.5-13.5-8.4-40.9-11.2-61.9-38.4h0Z"/>
      <path class="cls-6" d="M877,693.9c-21,0-48.5-.4-53.5-2.5-8.2-3.5-17.9-9.5-18.3-9.8l-1.1-.7-.4-1.3c0-.5-3.6-12.2-.5-27.3,3.2-15.6,10.3-19.7,11.1-20.1l3.2-1.7,6.6,13.7c1.3-.2,3-.9,3.9-2.8,1-2.2,2-5.2,2.9-8.4,2.8-9.1,6-19.4,14.7-22.1,17.6-5.4,28.6,2.7,29.1,3l.4.3.3.4c14.2,18.4,31.6,25.2,45.5,30.6,6.1,2.4,11.4,4.4,15.7,7.1,6,3.8,9.3,11.3,9.6,22.4.3,7.7-1,14.4-1.1,14.7l-.5,2.7h-2.7c-.2,0-21.2,1.2-40.6,1.5-2.6.2-12.4.3-24.3.3h0ZM810.1,676.4c2.8,1.7,10.1,6,16.1,8.6,3.9,1.6,37.5,2.4,74.9,1.8,15.1-.2,31.1-.9,37.5-1.2,1.1-7.9,1.4-22.6-5.8-27.1-3.7-2.3-8.7-4.3-14.5-6.5-13.8-5.4-32.8-12.8-48.1-32.4-1.8-1.1-9.9-5.6-22.5-1.7-5.2,1.6-7.8,10-10.1,17.4-1,3.4-2,6.6-3.3,9.2-3,6.4-9.7,7.3-12.9,6.8l-1.9-.3-4.6-9.7c-1.6,2.3-3.6,6.2-4.8,12.5-2.2,10.6-.7,19.4,0,22.6h0Z"/>
    </g>
    <g>
      <path class="cls-7" d="M938.8,670.3c-34.9,1.4-64.1,3.2-96.2.4-32.1-2.8-34.3-9.3-34.3-9.3"/>
      <path class="cls-6" d="M878.5,674.1c-11.9,0-23.7-.4-36-1.5-31.7-2.8-35.5-9.3-35.9-10.6-.3-1,.2-2.1,1.2-2.4.9-.3,2,0,2.4,1,.2.4,4.4,5.7,32.7,8.2,27.9,2.4,53.4,1.3,83,0,4.2-.2,8.5-.4,12.9-.5,1.1,0,1.9.8,2,1.8,0,1.1-.8,1.9-1.8,2-4.4.2-8.7.4-12.9.5-16.8.7-32.3,1.4-47.6,1.4h0ZM810.2,660.8h0ZM810.2,660.8h0Z"/>
    </g>
    <g>
      <path class="cls-7" d="M701.8,185.9c-4.3-3.5-11.7,0-11.7,0,0,0,2-22.3-10.1-35.5-12.1-13.3-48.6-35.5-82.4,4.4,0,0-10.1,12.7-10.1,32.9s2.8,23.6,6,32.4c3.3,9.3,1.1,9.3,2.2,20s21.2,40.2,34.5,41.5c4.3.4,8.6,1.2,12.4.9,18.4,4.9,44.9,8.7,55.1-6.3l-7.2-52.3,7.8-1.3s3.8-9.3,5.5-15.5c2.1-7.9,4.4-16-2-21.2h0Z"/>
      <path class="cls-6" d="M671.3,290.3c-9.6,0-19.9-1.9-29-4.3-2.9.1-6-.2-9-.6-1.1-.1-2.3-.3-3.4-.4-9.4-.9-19.2-12-24.3-18.6-6.2-8-12.7-19.2-13.4-26-.4-4.3-.4-7-.3-9.1,0-3.2,0-4.9-1.7-10-.4-1-.7-2-1.1-3-2.7-7.3-5.1-13.7-5.1-30.7s10.5-34.6,10.9-35.1h0c13.2-15.6,28-23.7,44.2-23.9,18.8-.3,35.1,10.2,43.4,19.4,9.4,10.4,11,25.3,11.1,33.1,3.1-.6,7.1-.5,10.3,2.1h0c8.1,6.5,5.4,16.6,3.2,24.6v.2c-1.8,6.3-5.6,15.6-5.7,15.9l-.7,1.8-6.4,1,7,50.3-.8,1.1c-6.1,9.2-17.2,12.2-29.3,12.2h0ZM643,279l.6.2c14.8,3.9,40.6,8.6,50.6-3.8l-7.5-54.3,9.2-1.5c1.2-3,3.5-9,4.6-13.3v-.2c2.4-8.5,3.4-14-.8-17.4h0c-2.2-1.8-6.9-.1-8,.4l-5.5,2.6.5-6.1c0-.2,1.7-20.9-9.2-32.9-7.3-8.1-21.7-17.4-38.1-17.1-14,.2-27.1,7.4-38.9,21.3-.5.6-9.3,12.5-9.3,30.7s2,21.3,4.6,28.2c.4,1,.7,2,1.1,3,2.3,6.4,2.2,9.1,2.1,12.6,0,2,0,4.4.3,8.2.9,9.1,20,37.3,31.4,38.4,1.2.1,2.4.3,3.6.4,3,.4,5.8.7,8.2.5h.5c0,.1,0,0,0,0h0Z"/>
    </g>
    <g>
      <path class="cls-7" d="M676.6,348.1l-66.3,8.9-19,28.5,6.3,20.9,13.7,13.6,18.6.3,6.7-10.7s11.1-3.9,16.1-7.1c5.1-3.2,11.4-8.9,11.4-8.9l19.6-1.9c0,.1,21.6-17.6-7.1-43.6h0Z"/>
      <path class="cls-6" d="M631.8,423.8l-22-.3-15.3-15.3-7.1-23.3,20.8-31.2,69.5-9.3,1.2,1.1c10.9,9.9,16.3,19.9,16.1,29.8-.3,11.9-8.7,18.9-9,19.2l-.8.7-19.6,1.9c-2,1.7-6.8,5.8-11,8.5-4.4,2.7-12.6,5.9-15.7,7l-7.1,11.2h0ZM612.8,416.5l15.2.2,6.3-10,1.2-.4s10.8-3.8,15.5-6.8c4.8-3,10.9-8.4,10.9-8.5l.9-.8,19.6-1.9c1.6-1.7,5.7-6.5,5.8-13.4,0-7.4-4.1-15.2-12.6-23.3l-63.1,8.4-17.4,26,5.6,18.5,12.1,12h0Z"/>
    </g>
    <g>
      <path class="cls-7" d="M680,241.7s-13.5,37.2-37.3,40.8"/>
      <path class="cls-6" d="M642.6,286c-1.7,0-3.2-1.2-3.5-3-.3-1.9,1-3.7,2.9-4,21.5-3.3,34.4-38.2,34.6-38.6.7-1.8,2.7-2.8,4.5-2.1s2.8,2.7,2.1,4.5c-.6,1.6-14.5,39.2-40.1,43.1,0,.1-.3.1-.5.1Z"/>
    </g>
    <g>
      <path class="cls-7" d="M963.8,617.4s-3.3,4.7-9.3,9.4c-5.7,4.5-10.7,24.5-1.4,36.1,2.5,3.1,7.6,6.3,13,6.7"/>
      <path class="cls-6" d="M966.1,673.1h-.2c-6.6-.4-12.6-4.4-15.5-7.9-4.7-5.8-6.7-14-5.7-23.1.9-7.9,3.9-14.9,7.6-18,5.5-4.4,8.6-8.7,8.6-8.7,1.1-1.6,3.3-1.9,4.9-.8,1.6,1.1,1.9,3.3.8,4.9,0,.2-3.7,5.1-10,10.1-1.6,1.3-4.3,6.3-5,13.2-.5,4.2-.5,12.1,4.2,18,1.9,2.4,6.3,5.1,10.5,5.4,1.9,0,3.4,1.8,3.3,3.7,0,1.8-1.7,3.2-3.5,3.2h0Z"/>
    </g>
    <path class="cls-6" d="M422.8,170.5c-2.2-1-21.9-9.8-34-6.1-14.4,4.4-26.8,12-32.2,59.8-3.4,29.7.7,62.1.9,63.4l.3,2.6,2.5.6c.3.1,1.1.2,2.3.2,3.3,0,9.6-1.2,16.7-9,8.7-9.6,41.8-96.9,45.5-106.8l1.3-3.3-3.3-1.4h0Z"/>
    <path class="cls-7" d="M324,637.3c-46-12.5-78.1-37.6-78.1-37.6,0,0,4.2-40.1,14-64.7,4.9-12.4,58.5-99.9,58.5-99.9,0,0-30.4-25.9-23.8-61.8,5-27.6,23-55,35.7-55.6,27.9-1.4,65.8-23.7,74.6-24.8,14-1.7.3,5.9,32.1,20.9,18.9,8.9,54.4,20.6,54.4,20.6,0,0,41.7,98.1,41.8,148.1,0,8.5-33.6,21.9-32.1,43.2,2.2,31.1,39,71.1,39,71.1l-216.1,40.5h0Z"/>
    <path class="cls-5" d="M501.1,525.7c-1.5-21.4,32.8-34.7,32.1-43.2-4.4-52.5-41.8-148.1-41.8-148.1,0,0-30.8-13.2-51.5-16-10.7,72.8-52.4-2.9-79.4,4.2-16,4.2-24,5.4-32.6,12-5.8,4.4-13.6,18.8-21.1,44.8-15.3,53.2-29.8,136.5-27,153.7,5.7,4.8,8.4,8,14.7,11.3-12.4,17.7-31,43-31.9,63.7-.9,23.4,3.4,24.5,3.4,24.5l64.2,31.3,210.1-67c-.2,0-37-40-39.2-71.2h0Z"/>
    <path class="cls-6" d="M327.6,664.7l-64.6-26.1-.5-1.5c-.4-1.1-9.3-27.5,3.6-51,16.5-29.9,28.3-44.3,36.1-53.9,5-6.1,8.3-10.2,10.2-15,1.4-3.6,1.4-5.7.9-6.5s-1.9-.8-1.9-.8c-1.9,0-3.5-1.5-3.6-3.4s1.5-3.5,3.4-3.6c.5,0,5.1,0,7.8,3.8,2.2,3.1,2.2,7.5-.1,13.1-2.3,5.8-6.1,10.4-11.3,16.8-7.6,9.4-19.2,23.6-35.4,52.9-9.8,17.8-5.1,38.3-3.6,43.8l59.3,24,206-62.3c-9.5-11.2-34.4-42.7-36.3-69.1-1.1-15.4,12.7-26.6,22.7-34.8,3.8-3.1,9.1-7.4,9.3-9.1,2.7-18.6,0-25.6-4.8-38.4-1.8-4.9-3.9-10.4-6.2-17.6-2.6-8.6-5.4-18.4-8.3-28.8-6.5-23.3-15.5-55.2-20.4-59.2-9.9-8.1-20.8-10-32.4-12-4.4-.8-8.9-1.5-13.2-2.7-1.9-.5-3-2.4-2.5-4.3s2.4-3,4.3-2.5c4.1,1.1,8.2,1.8,12.6,2.6,11.9,2.1,24.2,4.2,35.6,13.5,6.2,5.1,12.8,27.1,22.8,62.8,2.9,10.3,5.6,20.1,8.2,28.6,2.2,7,4.2,12.4,6,17.2,5.1,13.4,8.1,21.5,5.2,41.9-.6,4.4-5.3,8.3-11.9,13.6-9.4,7.6-21,17.1-20.2,28.9,2.1,29.5,37.8,68.6,38.1,69l3.8,4.1-218.7,66h0Z"/>
    <g>
      <path class="cls-7" d="M445.6,319.9l10.6,3.7s3.4,24.5-5.9,35.5c-10.2,12-37.2,11-57.4-9.3-20.3-20.3-36.3-38.9-36.3-38.9,0,0,9.4-2.6,16-5.1,8.9-3.3,12.9-9.6,17.7-27,2.6-9.4,4-14,4-14l-10.1-4.5s-7.4-6.3-6.7-31,36.5-60.3,36.5-60.3c28.6-5.2,53.2,5.1,66.1,19.4,13,14.3,8.9,50,8.9,50l-5.7,13.9s-.6,18.5-5.1,27.9c-7.3,15.2-16.8,22.2-23.1,25.3-9.9,5-19.6,1.9-19.6,1.9"/>
      <path class="cls-6" d="M430.3,370.4c-13.7,0-28.6-6.7-40-18.1-20.1-20.1-36.3-38.9-36.5-39l-3.6-4.2,5.3-1.5c.1,0,9.3-2.6,15.8-5,7.6-2.8,11-8.2,15.6-24.7,1.4-5.1,2.5-8.8,3.2-11.2l-7.7-3.4-.4-.3c-.9-.8-8.6-8.1-7.9-33.7.7-25.8,36-61.2,37.5-62.6l.8-.8,1.1-.2c32.2-5.9,57.5,7.4,69.4,20.5,13.9,15.3,9.9,51.3,9.8,52.8v.5l-5.7,13.8c0,3.5-1,19.6-5.4,28.6-7.6,15.9-17.6,23.4-24.7,27-11.1,5.5-21.8,2.3-22.3,2.1-1.8-.6-2.9-2.5-2.3-4.4.6-1.8,2.6-2.9,4.4-2.3,0,0,8.6,2.5,17-1.7,6.1-3.1,14.8-9.7,21.5-23.7,4.1-8.6,4.7-26.3,4.7-26.5v-.6l5.8-14.1c.4-4.1,3-34.7-8-46.8-10.6-11.6-33-23.4-61.8-18.5-5.1,5.2-34.1,36-34.7,57.1-.5,19.4,4.1,26.5,5.3,28l12.2,5.4-.9,3s-1.4,4.8-4,14c-4.6,16.6-8.8,25.2-19.9,29.4-3.5,1.3-7.7,2.6-11,3.6,5.8,6.6,18.2,20.2,32.5,34.6,10.5,10.5,24.2,16.5,36.5,16,6.9-.3,12.5-2.6,15.8-6.5,6.1-7.3,6.1-23,5.4-30.6l-8.5-3c-1.8-.6-2.8-2.6-2.1-4.5.6-1.8,2.6-2.8,4.5-2.1l12.6,4.4.3,2.1c0,1.1,3.5,26.2-6.7,38.2-4.6,5.4-12,8.6-20.9,9-.8-.2-1.4-.1-2-.1h0Z"/>
    </g>
    <path class="cls-6" d="M468.7,167.2c-8.9-5.7-49.5-17.8-80.6,16.6-18.6,20.6-10.6,56.2-10.6,56.2l1.3,8.3,4.2,12,9,1s-3.7-8.9-3.7-17,1.6-8.8,4.2-9.9c7.2-3,9.3,11.5,11.8,19.3,1,2.9,6.5,3.5,5.7-.6-1.3-7,2.5-17.1,2.5-17.1,0,0,5.4,3.5,26.9-8.2s24.7-26.8,24.7-26.8c0,0,3.2.8,11.7,10.6,5.5,6.3,11.7,6.7,11.7,6.7l3.2-9.5c-4.8-12.4-14.9-27.6-14.9-27.6,0,0,1.8-8.3-7.1-14h0Z"/>
    <g>
      <line class="cls-1" x1="385.4" y1="261" x2="402.5" y2="266.1"/>
      <path class="cls-6" d="M402.5,269.6c-.3,0-.7,0-1-.1l-17.1-5.1c-1.9-.5-2.9-2.5-2.4-4.4s2.5-2.9,4.4-2.4l17.1,5.1c1.9.5,2.9,2.5,2.4,4.4-.5,1.5-1.9,2.5-3.4,2.5Z"/>
    </g>
    <g>
      <polygon class="cls-7" points="676.5 623.5 509.6 567.9 446.2 619.4 494.7 669 635.2 696.5 693.2 692.9 676.5 623.5"/>
      <path class="cls-6" d="M635,700h-.4l-141.6-27.8-52-53.1,67.9-55.1,170.5,56.8,18.2,75.3-62.6,3.9h0ZM496.4,665.8l139.1,27.2,53.4-3.3-15.3-63.4-163.2-54.4-58.9,47.8,44.9,46.1h0Z"/>
    </g>
    <polygon class="cls-4" points="675.1 634.9 525.4 585 471.8 627.3 515.2 671.9 641.2 696.5 693.2 693.3 675.1 634.9"/>
    <g>
      <path class="cls-7" d="M447.8,308.2c-11.4.6-20.3-3.8-23.8-6s-8.9-7.3-8.9-7.3"/>
      <path class="cls-6" d="M445.6,311.7c-12,0-20.9-5-23.4-6.6-3.7-2.4-9.2-7.5-9.4-7.7-1.4-1.3-1.5-3.5,0-4.9,1.3-1.4,3.5-1.5,4.9-.2,0,0,5.2,4.9,8.3,6.9,2.3,1.4,10.5,6.1,21.7,5.5,1.9-.1,3.6,1.4,3.7,3.3s-1.4,3.6-3.3,3.7h-2.5Z"/>
    </g>
    <ellipse class="cls-6" cx="440" cy="247.7" rx="3.7" ry="2.6" transform="translate(-2 492) rotate(-58.3)"/>
    <ellipse class="cls-6" cx="473.3" cy="247.9" rx="3.4" ry="2.5" transform="translate(23.5 536.2) rotate(-60.3)"/>
    <g>
      <line class="cls-1" x1="425.7" y1="327" x2="433.8" y2="309.4"/>
      <path class="cls-6" d="M425.7,330.5c-.5,0-1-.1-1.5-.3-1.8-.8-2.5-2.9-1.7-4.6l8-17.5c.8-1.8,2.9-2.5,4.6-1.7,1.8.8,2.5,2.9,1.7,4.6l-8,17.5c-.5,1.2-1.7,2-3.1,2Z"/>
    </g>
    <path class="cls-7" d="M288.6,618.2s15.7,32,36,43.4c18.4,3.8,99.9,8.2,99.9,8.2,0,0,57.2,30.4,94,26.6s57.6-12,57.6-12l-36.8-66.4-38-14.6s-41.8-5.1-63.4-19c-17.6,2.3-73.4-10.9-73.4-10.9l-39.1,14.4-19.2,14.3-17.6,16h0Z"/>
    <path class="cls-4" d="M289.4,615.7s-5.4,2.3,9.2,23.2,44.9,27.5,44.9,27.5l81.4,4s57.6,29.8,94,26.2,57.2-11.4,57.2-11.4l-35.1-54.6-68.4-25.3s-10.7-7.7-32.1-20.9c-23.3-1.5-62.4-12.6-62.4-12.6l-49,12.7-39.7,31.2h0Z"/>
    <path class="cls-6" d="M516.6,697h-6.8c-44.5-1.6-81.4-23-87.4-26.7-4.9-.2-29.8-1-73.7-1s-36.5-8.7-49.2-25.1c-9.5-12.2-13.2-24.4-13.3-24.9l-.4-1.4.7-1.3c.4-.7,10.3-17.7,34.2-30.6,39.6-21.3,86.2-14.4,118.4-4.9h.5l.4.4c20.6,13.3,61.5,18.4,61.9,18.5h.4l49.5,19.6,29.1,67.1-3.6,1.2c-1.2.4-26.9,9.2-60.7,9.2h0ZM293.3,618.7c1.2,3.4,4.9,12.4,11.8,21.3,11.5,14.7,26.1,22.2,43.6,22.2,49.2,0,74.6,1,74.9,1.1h.9l.8.5c.4.2,39,24.5,84.7,26.1,28.5,1,52.5-5,61.3-7.6l-24.9-57.4-46-18.1c-4.8-.6-42.9-5.8-63.9-19.2-43.9-13-82.7-11.5-112.2,4.3-18.7,9.9-28.3,22.8-31,26.8h0Z"/>
    <path class="cls-6" d="M387.8,571.8c-4.7,0-9.4-.3-14.3-1-58.7-8.5-94.2-24.1-108.7-47.7-1-1.6-.5-3.8,1.2-4.8,1.6-1,3.8-.5,4.8,1.2,13.3,21.7,47.2,36.2,103.7,44.4,28.4,4.1,54.8-6.2,68.1-12.7,1.7-.9,3.8,0,4.7,1.6s0,3.8-1.6,4.7c-11.8,5.7-33.4,14.3-57.9,14.3h0Z"/>
    <path class="cls-6" d="M272.7,468.6h-.6c-1.9-.4-3.2-2.2-2.8-4.1,10.9-58.9,22.1-100.6,33.2-124.1,8.8-18.5,18.9-22.8,22.2-24.2,5.8-2.5,14-4.6,23.6-7,6.7-1.7,14.2-3.6,21.8-5.9,1.9-.6,3.8.5,4.4,2.3.6,1.9-.5,3.8-2.3,4.4-7.8,2.3-15.4,4.3-22.1,6-9.2,2.4-17.2,4.4-22.5,6.7-2.7,1.2-11,4.7-18.6,20.8-10.8,22.9-21.8,64.1-32.7,122.4-.4,1.6-1.9,2.8-3.6,2.8h0Z"/>
    <g>
      <path class="cls-7" d="M467.1,562.2h-88.1s-6.6,17.6,13.7,22.4c49.8,11.8,81.9,19.4,81.9,19.4,0,0,14.8-6.5,16-8.4s-7.8-18.2-7.8-18.2l-15.7-15.2h0Z"/>
      <path class="cls-6" d="M475.1,607.7l-1.1-.3s-32.1-7.6-81.9-19.4c-7.4-1.8-12.5-5.3-15.3-10.4-4.1-7.8-1-16.2-.9-16.6l.9-2.3h91.9l17.2,16.5.3.5c10.1,18.1,8.7,20.3,7.7,21.8-.5.8-1.8,2.7-17.5,9.7l-1.3.5h0ZM381.8,565.7c-.4,2.2-.5,5.6,1.1,8.6,1.8,3.3,5.4,5.6,10.7,6.9,44.3,10.5,74.6,17.7,80.8,19.2,5-2.2,10.4-4.9,12.7-6.3-.9-2.8-4-9.1-7-14.4l-14.4-13.9h-83.9ZM488.1,593.3h0Z"/>
    </g>
    <g>
      <path class="cls-7" d="M374.7,501.7c16,6.8,53.1,16.2,53.1,16.2l44.3,10.8,24.1,15.8-5.7,24.1-15.8,10.1-6.8,4.2-13.5-3.6-10.1-16.5s-12,1.3-21.5-1.9-16.5-8.2-16.5-8.2l-49.3-7.1s-12.7-18.6,17.7-43.9h0Z"/>
      <path class="cls-6" d="M468.5,586.7l-16.3-4.3-9.8-15.8c-4.1.2-13.1.3-20.8-2.2-8.2-2.7-14.6-6.8-16.7-8.2l-50-7.2-.9-1.3c-.6-.9-14.1-21.5,18.4-48.6l1.6-1.4,2,.8c15.6,6.6,52.2,15.9,52.6,16l44.9,10.9,26.6,17.5-6.6,27.8-17,10.9-8,5.1h0ZM456.7,576.3l10.7,2.8,5.5-3.4,14.6-9.4,4.8-20.3-21.5-14.2-43.8-10.5c-1.5-.4-34.7-8.9-51.6-15.6-21.5,18.7-18,32.5-16.1,36.7l48.4,7,.7.5s6.7,4.8,15.5,7.7c8.7,2.9,20,1.8,20.1,1.7l2.2-.2,10.5,17.2h0Z"/>
    </g>
    <path class="cls-6" d="M359.5,568.5c-1.4,0-2.8-.9-3.3-2.3-.2-.5-4.4-12.3-6.1-24.3-2.5-17.5,11-32.3,18.6-39.1-6.9-2.6-19.4-7.1-32.4-10.7-22.7-6.2-36.9,11.3-37.5,12.1-1.2,1.5-3.4,1.8-4.9.6s-1.8-3.4-.6-4.9c.7-.9,17.6-22,44.9-14.5,19.9,5.5,38.5,13,38.7,13.1l5.9,2.4-5.2,3.7c-.2.2-23.3,17-20.5,36.4,1.6,11.3,5.7,22.9,5.7,23,.6,1.8-.3,3.8-2.1,4.5h-1.2Z"/>
    <path class="cls-6" d="M337.2,489.7c-1.8,0-3.3-1.4-3.5-3.2l-8.9-115.9c-.1-1.9,1.3-3.6,3.2-3.8,1.9-.1,3.6,1.3,3.8,3.2l8.9,115.9c.1,1.9-1.3,3.6-3.2,3.8h-.3Z"/>
    <path class="cls-7" d="M736.2,530.2l-27.3,59.8c-3.9,8.4-15,15.2-25,15.2h-205.3c-9.9,0-15.5-6.8-12.4-15.2l43.6-117.6c3.4-9.2,14.7-16.7,25.2-16.7h216.4c10.5,0,15.5,7.5,11.3,16.7l-8.8,19.3"/>
    <path class="cls-6" d="M535.5,608.7h-57c-6.3,0-11.5-2.4-14.4-6.5-2.6-3.8-3.1-8.5-1.3-13.4l43.6-117.6c4-10.7,16.5-19,28.5-19h216.4c6.3,0,11.5,2.4,14.2,6.7,2.7,4.2,2.8,9.5.3,15l-8.8,19.3c-.8,1.8-2.9,2.5-4.6,1.7-1.8-.8-2.5-2.9-1.7-4.6l8.8-19.3c1.5-3.3,1.6-6.2.2-8.3-1.4-2.2-4.4-3.5-8.4-3.5h-216.3c-9,0-19,6.6-21.9,14.5l-43.6,117.6c-1,2.7-.9,5.1.4,7,1.6,2.2,4.7,3.5,8.6,3.5h57c1.9,0,3.5,1.6,3.5,3.5s-1.5,3.4-3.5,3.4h0Z"/>
    <path class="cls-6" d="M695.2,608.7h-97.2c-1.9,0-3.5-1.6-3.5-3.5s1.6-3.5,3.5-3.5h97.1c5.2,0,6.1-1.8,8.4-7.9.6-1.6,1.3-3.4,2.1-5.3l27.4-59.8c.8-1.8,2.9-2.5,4.6-1.7,1.8.8,2.5,2.9,1.7,4.6l-27.3,59.8c-.8,1.7-1.4,3.3-2,4.9-2.2,6.1-4.5,12.4-14.8,12.4Z"/>
    <g>
      <g>
        <path class="cls-7" d="M934.2,386.6c82.6-44.2,83.3-153.6,83.3-153.6,0,0-49.8-.9-83.3-29.3-33.5,28.4-83.3,29.3-83.3,29.3,0,0,.8,109.4,83.3,153.6Z"/>
        <path class="cls-7" d="M934.2,400.4l-5.7-3.1c-36.6-19.6-63.7-54.3-78.4-100.4-10.9-34.2-11.3-62.6-11.3-63.8v-12l11.9-.2c.4,0,46-1.3,75.7-26.5l7.8-6.6,7.8,6.6c29.7,25.2,75.3,26.5,75.7,26.5l11.9.3v11.9c0,1.2-.4,29.6-11.4,63.8-14.7,46.1-41.9,80.8-78.4,100.4l-5.6,3.1h0ZM863.7,244.1c1.1,10.5,3.6,27.5,9.6,46.1,12.2,37.7,32.6,65.4,60.9,82.5,55.5-33.7,67.8-101.8,70.5-128.6-16.4-2-45.8-7.8-70.5-25.2-24.7,17.4-54.1,23.3-70.5,25.2h0Z"/>
      </g>
      <g>
        <path class="cls-7" d="M934.2,386.6c82.6-44.2,83.3-153.6,83.3-153.6,0,0-49.8-.9-83.3-29.3-33.5,28.4-83.3,29.3-83.3,29.3,0,0,.8,109.4,83.3,153.6Z"/>
        <path class="cls-6" d="M934.2,390.5l-1.6-.9c-34.5-18.5-60.2-51.5-74.3-95.4-10.5-33-10.9-60.1-10.9-61.2v-3.4h3.4c.5-.1,49-1.3,81.2-28.6l2.2-1.9,2.2,1.9c32.2,27.3,80.7,28.5,81.2,28.5h3.4v3.5c0,1.1-.3,28.2-10.9,61.2-14,43.9-39.7,76.8-74.3,95.4l-1.6.9h0ZM854.4,236.3c.4,8.2,2.3,30.6,10.5,56.1,9.3,28.9,28.8,67.9,69.3,90.3,40.5-22.4,60-61.4,69.3-90.3,8.2-25.5,10.1-47.9,10.5-56.1-11.8-.7-50.7-4.9-79.8-28.2-29.1,23.3-67.9,27.5-79.8,28.2h0Z"/>
      </g>
      <path class="cls-6" d="M934.2,311.6l-29.1-23.5c-1.3-1.1-1.5-3-.5-4.3,1.1-1.3,3-1.5,4.3-.5l24.2,19.6,37-47.8c1-1.3,2.9-1.6,4.3-.5,1.3,1,1.6,2.9.5,4.3l-40.7,52.7h0Z"/>
      <path class="cls-6" d="M933.2,335.7c-24.9,0-45.1-20.2-45.1-45.1s20.2-45.1,45.1-45.1,17.8,2.7,25.2,7.7c1.4.9,1.8,2.8.8,4.2-.9,1.4-2.8,1.8-4.2.8-6.5-4.4-14-6.7-21.8-6.7-21.5,0-39,17.5-39,39s17.5,39,39,39,39-17.5,39-39-.8-9.3-2.5-13.7c-.6-1.6.2-3.3,1.8-3.9s3.3.2,3.9,1.8c1.9,5,2.8,10.4,2.8,15.8,0,25-20.1,45.2-45,45.2h0Z"/>
    </g>
    <path class="cls-6" d="M468,585.9h-.6l-87.6-18.8c-1.6-.4-2.7-2-2.3-3.6s2-2.7,3.6-2.3l87.6,18.8c1.6.4,2.7,2,2.3,3.6-.4,1.5-1.6,2.4-3,2.4h0Z"/>
    <path class="cls-6" d="M487.4,533.4c-1.4,0-2.8-.9-3.3-2.3l-8.4-22.5v-.4c-.2-.8-2.9-20.2-.3-31.7.8-3.3,2.2-6.4,3.9-10.1,4.4-9.5,9.8-21.3,6.2-42.6-5-30-10.1-58.8-10.1-59.1-.3-1.9.9-3.7,2.8-4.1,1.9-.3,3.7.9,4.1,2.8,0,.3,5.1,29.1,10.1,59.2,3.9,23.4-2.3,36.8-6.8,46.7s-2.8,6.2-3.4,8.8c-2.2,9.4,0,26.1.2,28.8l8.1,21.8c.7,1.8-.2,3.8-2.1,4.5-.2.2-.6.2-1,.2h0Z"/>
    <g>
      <polyline class="cls-7" points="463.9 541.9 475.4 548.3 478.5 558.4"/>
      <path class="cls-6" d="M478.5,560.3c-.8,0-1.6-.5-1.8-1.3l-2.9-9.4-10.7-6c-.9-.5-1.3-1.7-.7-2.6.5-.9,1.7-1.3,2.6-.7l12.1,6.7,3.4,10.9c.3,1-.2,2.1-1.2,2.4h-.8Z"/>
    </g>
    <g>
      <polyline class="cls-7" points="453.8 548.9 463.9 556.5 469.6 577.8"/>
      <path class="cls-6" d="M469.6,579.7c-.8,0-1.6-.6-1.8-1.4l-5.5-20.7-9.6-7.2c-.8-.6-1-1.8-.4-2.7.6-.8,1.8-1,2.7-.4l10.7,8,5.9,22c.3,1-.3,2.1-1.3,2.3h-.7Z"/>
    </g>
    <g>
      <polyline class="cls-7" points="615.4 373.4 603.3 390.5 602.7 408.9"/>
      <path class="cls-6" d="M602.7,410.8h0c-1.1,0-1.9-.9-1.9-2l.7-18.9,12.4-17.6c.6-.9,1.8-1.1,2.7-.5s1.1,1.8.5,2.7l-11.7,16.6-.6,17.8c-.2,1.1-1.1,1.9-2.1,1.9h0Z"/>
    </g>
    <g>
      <polyline class="cls-7" points="624.2 381 612.8 398.8 610.3 417.1"/>
      <path class="cls-6" d="M610.3,419h-.3c-1-.1-1.8-1.1-1.6-2.1l2.6-18.8,11.6-18.1c.6-.9,1.7-1.1,2.6-.6.9.6,1.1,1.7.6,2.6l-11.2,17.4-2.5,18c0,1-.9,1.6-1.8,1.6h0Z"/>
    </g>
    <g>
      <polyline class="cls-7" points="633.1 389.9 621.7 405.1 617.9 417.1"/>
      <path class="cls-6" d="M617.9,419.1c-.2,0-.4,0-.6-.1-1-.3-1.6-1.4-1.2-2.4l3.9-12.3,11.6-15.5c.6-.8,1.8-1,2.7-.4.8.6,1,1.8.4,2.7l-11.3,14.9-3.7,11.7c-.3.8-1,1.4-1.8,1.4h0Z"/>
    </g>
    <g>
      <path class="cls-7" d="M466.1,280.8c-4.3.2-9.9,1-14.2.8-7.8-.3-13.3-1.9-13.3-1.9"/>
      <path class="cls-6" d="M453.3,283.5h-1.4c-7.9-.3-13.5-1.9-13.7-2-1-.3-1.6-1.3-1.3-2.4.3-1,1.3-1.6,2.4-1.3,0,0,5.4,1.5,12.8,1.9,2.6.1,5.7-.2,8.8-.4,1.9-.2,3.6-.3,5.3-.4,1,0,1.9.8,2,1.8s-.8,1.9-1.8,2c-1.5.1-3.3.2-5.1.4-2.8.2-5.6.4-8,.4h0Z"/>
    </g>
    <g>
      <path class="cls-7" d="M457.6,275.2s11,1.9,12-3.8c1.2-6.7-6-10-4.4-24.9"/>
      <path class="cls-6" d="M461.4,277.5c-1.5,0-2.9-.1-4.1-.3-1-.2-1.7-1.2-1.6-2.2.2-1,1.2-1.7,2.2-1.6,1.9.3,9.3.9,9.8-2.3.4-2.2-.4-4-1.5-6.6-1.6-3.8-3.9-9-2.9-18.1,0-1,1-1.8,2.1-1.7,1,.1,1.8,1.1,1.7,2.1-.9,8.2,1.1,12.6,2.6,16.2,1.2,2.8,2.4,5.5,1.7,8.8-.7,4.4-5.6,5.7-10,5.7h0Z"/>
    </g>
    <g>
      <path class="cls-7" d="M454.2,287.9s-1,.3-2.9.3-3.4-.4-3.4-.4"/>
      <path class="cls-6" d="M451.3,290.1c-2.1,0-3.8-.5-3.9-.5-1-.3-1.6-1.3-1.3-2.4.3-1,1.3-1.6,2.4-1.3,0,0,1.3.3,2.9.3s2.4-.2,2.4-.2c1-.3,2.1.3,2.3,1.3.3,1-.3,2-1.3,2.3-.2.2-1.4.5-3.5.5h0Z"/>
    </g>
    <path class="cls-6" d="M444.2,247.2c-.5,0-1-.2-1.3-.7-2.1-3.2-6.9-.5-7.1-.4-.7.4-1.7.2-2.1-.5s-.2-1.7.5-2.1c2.6-1.5,8.2-3.2,11.2,1.4.5.7.3,1.6-.4,2.1-.2.1-.5.2-.8.2h0Z"/>
    <path class="cls-6" d="M478.2,248.4c-.4,0-.8-.1-1-.4-1-1-2.1-1.5-3.1-1.4-1.5,0-2.5,1.1-2.5,1.1-.6.6-1.5.7-2.2.1-.6-.6-.7-1.5,0-2.2.2-.2,2-2,4.7-2.1,1.9-.1,3.6.7,5.3,2.3.6.6.6,1.5,0,2.2-.4.3-.8.4-1.2.4h0Z"/>
    <path class="cls-6" d="M453.1,239.4c-.2,0-.5,0-.7-.1-11.4-4.4-19.6-2.2-19.7-2.2-1,.3-2.1-.3-2.3-1.3-.3-1,.3-2.1,1.3-2.3.4-.1,9.5-2.5,22.1,2.3,1,.4,1.5,1.5,1.1,2.5-.3.6-1,1.1-1.8,1.1h0Z"/>
    <path class="cls-6" d="M472.2,240.6c-.8,0-1.5-.4-1.8-1.2-.4-1,0-2.1,1-2.5.4-.1,8.7-3.5,15.2,0,.9.5,1.3,1.7.8,2.6s-1.7,1.3-2.6.8c-4.9-2.6-11.9.1-12,.2,0,0-.4.1-.6.1h0Z"/>
    <g>
      <path class="cls-7" d="M616.8,206.1s3.4,6.8,1.7,18.6-2.5,9.7-2.5,16.9,7.9,5.2,12.7,2.6"/>
      <path class="cls-6" d="M622,247.7c-1.9,0-3.7-.4-5.1-1.2-1.8-1.1-2.8-2.8-2.8-4.9,0-4.2.3-5.5.8-7.8.4-1.8,1-4.2,1.7-9.4,1.6-11-1.5-17.4-1.5-17.5-.5-.9,0-2.1.9-2.5.9-.5,2.1-.1,2.5.9,0,.3,3.6,7.4,1.9,19.7-.8,5.3-1.4,7.9-1.8,9.7-.5,2.2-.7,3.1-.7,6.9s.3,1.3,1,1.7c1.9,1.2,6,.8,8.9-.7.9-.5,2.1-.1,2.6.8s0,2.1-.8,2.6c-2.1,1-4.9,1.7-7.6,1.7h0Z"/>
    </g>
    <g>
      <path class="cls-7" d="M614.9,256s23.9-2.6,37.8-10.9"/>
      <path class="cls-6" d="M614.9,257.9c-1,0-1.8-.7-1.9-1.7,0-1,.6-2,1.7-2.1.2,0,23.6-2.7,37-10.6.9-.5,2.1-.2,2.6.7s.2,2.1-.7,2.6c-14.1,8.3-37.6,11-38.6,11.1h0Z"/>
    </g>
    <g>
      <path class="cls-7" d="M628.9,260.7s7.1-1,11.8-2.5"/>
      <path class="cls-6" d="M628.9,262.6c-.9,0-1.8-.7-1.9-1.7,0-1,.6-2,1.6-2.1,0,0,7-.9,11.5-2.5,1-.3,2.1.2,2.4,1.2.3,1-.2,2.1-1.2,2.4-4.9,1.6-11.9,2.6-12.2,2.6,0,0,0,.1-.2.1h0Z"/>
    </g>
    <ellipse class="cls-6" cx="645.9" cy="208.2" rx="2.3" ry="3.3" transform="translate(-9.5 384.2) rotate(-32.9)"/>
    <ellipse class="cls-6" cx="610.2" cy="214.8" rx="2.3" ry="3.3" transform="translate(-19.3 363.7) rotate(-32.7)"/>
    <path class="cls-6" d="M640.1,208.7c-.4,0-.8-.1-1.1-.4-.6-.6-.6-1.6,0-2.2,2.1-2.1,7.2-5.1,11.7-2.1.7.5.9,1.4.4,2.1s-1.4.9-2.1.4c-3.7-2.4-7.9,1.7-7.9,1.7-.3.3-.6.5-1,.5h0Z"/>
    <path class="cls-6" d="M604.9,215.7c-.3,0-.6-.1-.8-.2-.7-.5-.9-1.4-.4-2.1,1.3-1.9,4.8-4.8,9.4-2,.7.4.9,1.4.5,2.1s-1.4.9-2.1.5c-3.1-1.9-5,.8-5.2,1.1-.4.3-.9.6-1.4.6h0Z"/>
    <path class="cls-6" d="M630.5,200.3c-.7,0-1.4-.4-1.7-1.1-.5-.9,0-2.1.9-2.5,16.8-8.1,31.5-6,32.2-5.9,1,.2,1.8,1.1,1.6,2.2-.2,1-1.1,1.8-2.2,1.6-.2,0-14.2-2-29.9,5.5-.4.1-.7.2-.9.2h0Z"/>
    <path class="cls-6" d="M598.7,208.4c-.5,0-1-.2-1.4-.6-.7-.8-.7-2,0-2.7,5.1-4.7,12.4-3.4,12.7-3.3,1,.2,1.7,1.2,1.5,2.2s-1.2,1.7-2.2,1.5c0,0-5.8-1-9.4,2.4-.4.3-.9.5-1.3.5h.1Z"/>
    <path class="cls-6" d="M685.9,207.2h-.3c-1-.2-1.8-1.1-1.6-2.2l2.9-19.3c.2-1,1.1-1.8,2.2-1.6,1,.2,1.8,1.1,1.6,2.2l-2.9,19.3c-.2,1-1,1.6-1.9,1.6Z"/>
    <path class="cls-6" d="M678.1,209.4c-.6,0-1.1-.3-1.5-.8-4.9-6.5-5.7-17.3-2.6-34.1,1.5-8-1.4-13.9-4-17.4-3.3-4.4-8.4-7.6-13.5-8.6-4.4-.8-12.1.2-19.4,6-14.2,11.3-26.3,10.3-33.5,9.8-.8-.1-1.6-.1-2.3-.2-1.1,0-1.9-.9-1.8-2,0-1.1.9-1.9,2-1.8.7,0,1.6.1,2.5.2,7.1.6,17.7,1.4,30.8-8.9,8.2-6.5,17-7.7,22.4-6.7,6.1,1.1,11.8,4.8,15.8,10,4.4,5.8,6.1,13.1,4.7,20.4-2.9,15.5-2.3,25.6,1.9,31.1.6.8.5,2-.4,2.7-.3.1-.7.3-1.1.3h0Z"/>
    <g>
      <g>
        <path class="cls-7" d="M311.6,251.4c6-11.2,8.5-24.4,6.3-37.9-5.3-33-36.3-55.4-69.3-50.2-33,5.3-55.4,36.3-50.2,69.3,5.3,33,36.3,55.4,69.3,50.2,8.9-1.4,17-4.8,24-9.4,7.4,3.1,15.7,6.5,22,9.1,7.8,3.2,12.2-.6,8.3-9.2-2.7-5.9-6.7-14.3-10.4-21.9h0Z"/>
        <path class="cls-7" d="M258.1,295.1c-34.7,0-65.4-25.2-71-60.6-3-19,1.5-38,12.8-53.6s27.9-25.8,46.9-28.9c19-3,38,1.5,53.6,12.8s25.8,27.9,28.9,46.9c2.2,13.5.5,27.1-4.9,39.7,3.5,7.2,6.2,13,8.1,17.2,5.5,12.1.5,19.2-1.9,21.7-5,5.2-12.9,6.3-21.2,2.9-4.3-1.8-9.9-4.1-16.7-6.9-7.2,4-15,6.6-23.1,7.9-3.9.6-7.7.9-11.5.9h0ZM312,279.3h0ZM258.3,174.1c-2.6,0-5.2.2-7.9.6-12.9,2.1-24.3,9.1-31.9,19.7-7.7,10.6-10.8,23.6-8.7,36.5,4.3,26.7,29.5,44.9,56.1,40.6,6.9-1.1,13.5-3.7,19.4-7.7l5.1-3.4,5.7,2.4c3.7,1.5,7.1,3,10.2,4.2-1.5-3.1-3.2-6.7-5.1-10.6l-2.6-5.3,2.7-5.2c5.1-9.5,6.8-20.1,5.1-30.7-2.1-12.9-9.1-24.3-19.7-31.9-8.2-6-18.2-9.2-28.4-9.2h0Z"/>
      </g>
      <g>
        <path class="cls-7" d="M311.6,251.4c6-11.2,8.5-24.4,6.3-37.9-5.3-33-36.3-55.4-69.3-50.2-33,5.3-55.4,36.3-50.2,69.3,5.3,33,36.3,55.4,69.3,50.2,8.9-1.4,17-4.8,24-9.4,7.4,3.1,15.7,6.5,22,9.1,7.8,3.2,12.2-.6,8.3-9.2-2.7-5.9-6.7-14.3-10.4-21.9h0Z"/>
        <path class="cls-6" d="M258.1,287.1c-30.9,0-58.1-22.4-63.2-53.9-2.7-16.9,1.3-33.8,11.3-47.7s24.8-23,41.7-25.7c16.9-2.7,33.8,1.3,47.7,11.3s23,24.8,25.7,41.7c2.1,13.2.1,26.5-5.9,38.5,4.3,8.8,7.5,15.6,9.7,20.4,3.4,7.3,1.2,11.2-.4,12.8-2.7,2.8-7.2,3.2-12.4,1-5.1-2.1-11.9-4.9-20.3-8.4-7.3,4.6-15.3,7.6-23.8,9-3.3.8-6.7,1-10.1,1h0ZM258.3,166.1c-3,0-6.1.2-9.2.7-15,2.4-28.2,10.5-37.2,22.9-8.9,12.3-12.5,27.4-10.1,42.4,5,31,34.3,52.2,65.3,47.2,8.1-1.3,15.7-4.3,22.6-8.9l1.6-1,1.7.7c9.2,3.8,16.6,6.9,22,9.1,2.8,1.2,4.4.9,4.7.6.2-.2.6-1.7-.9-5.1-2.3-5-5.8-12.3-10.4-21.8l-.8-1.6.8-1.6c5.9-11.1,7.9-23.4,6-35.7-2.4-15-10.5-28.2-22.9-37.2-9.7-7-21.3-10.7-33.2-10.7h0Z"/>
      </g>
      <g>
        <path class="cls-6" d="M270.7,210.4c-1,0-1.8-.8-1.8-1.8v-11.2c0-5.4-4.4-9.7-9.7-9.7s-9.7,4.4-9.7,9.7v11.2c0,1-.8,1.8-1.8,1.8s-1.8-.8-1.8-1.8v-11.2c0-7.4,6-13.4,13.4-13.4s13.4,6,13.4,13.4v11.2c-.1.9-.9,1.8-2,1.8Z"/>
        <g>
          <path class="cls-7" d="M279,249.9h-39.6c-6.4,0-11.7-5.2-11.7-11.7v-20.2c0-6.4,5.2-11.7,11.7-11.7h39.6c6.4,0,11.7,5.2,11.7,11.7v20.2c-.1,6.5-5.3,11.7-11.7,11.7Z"/>
          <path class="cls-6" d="M279,251.8h-39.6c-7.5,0-13.6-6.1-13.6-13.6v-20.2c0-7.5,6.1-13.6,13.6-13.6h39.6c7.5,0,13.6,6.1,13.6,13.6v20.2c-.1,7.5-6.2,13.6-13.6,13.6ZM239.4,208.3c-5.4,0-9.8,4.4-9.8,9.8v20.2c0,5.4,4.4,9.8,9.8,9.8h39.6c5.4,0,9.8-4.4,9.8-9.8v-20.3c0-5.4-4.4-9.8-9.8-9.8h-39.6q0,0,0,0h0Z"/>
        </g>
        <circle class="cls-6" cx="259.3" cy="223.2" r="5.4"/>
        <path class="cls-6" d="M259.4,238.8c-1.7,0-3-1.4-3-3v-12.6c0-1.7,1.4-3,3-3s3,1.4,3,3v12.6c.1,1.7-1.3,3-3,3Z"/>
      </g>
    </g>
    <g>
      <path class="cls-7" d="M532.6,634s16.2-12,16-29.6c0,0-20.8-54.8-10.1-90.4,3.8-12.7,16.1-16.9,24.9-16,15.9,1.5,30.6,18.9,36.3,28.1,8.9,14.2,10.7,35,14.8,61.7,4.2,26.7,11.9,43.9,24.9,58.1s19.2,43.3,9.5,55.8c-5.8,7.5-22.5,13.1-38,10.7-15.4-2.4-30.9-11.9-33.8-13.6-3-1.8-14.2-8.3-14.2-8.3l-25.2,1.3s-9.2-9.4-13.2-24.3c-2.6-9.9.7-26.7,8.1-33.5Z"/>
      <path class="cls-6" d="M618.3,716.4c-2.6,0-5.3-.2-7.8-.6-7.1-1.1-19-4.4-34.8-13.9l-.3-.2c-2.4-1.5-10.6-6.2-13.3-7.8l-25.7,1.3-1.1-1.1c-.4-.4-9.9-10.2-14.1-25.9-2.9-10.6.5-29,9-36.9l.3-.2c.2-.2,14.4-11,14.6-26.1-2.4-6.5-20.4-57.3-10-92,4.3-14.2,17.8-19.6,28.6-18.5,17.2,1.7,32.6,19.5,39,29.7,7.9,12.6,10.4,29.5,13.5,50.9.6,3.9,1.2,7.9,1.8,12.1,4,25.4,11.1,42.2,24,56.3,6.7,7.3,12,18.6,14.1,30.3,2.3,12.5.7,23.4-4.4,30-5.8,7.6-19.7,12.6-33.4,12.6h0ZM563.8,686.9l.9.5c.5.3,11.3,6.6,14.3,8.3l.3.2c14.8,8.9,25.7,12,32.3,13,14.5,2.2,29.9-3.1,34.7-9.4,8.2-10.6,3.3-37.5-9.3-51.3-13.9-15.2-21.6-33.1-25.8-60-.7-4.2-1.2-8.2-1.8-12.2-3-20.6-5.4-36.9-12.5-48.2-5.3-8.5-19.2-25-33.7-26.4-5.8-.6-17.6,1.6-21.2,13.6-10.2,34,9.9,87.6,10.1,88.1l.2.6v.6c.2,18.3-15.4,30.8-17.3,32.3-6.4,6-9.2,21.4-6.9,29.8,3,11,9,18.9,11.3,21.7l24.4-1.2h0Z"/>
    </g>
    <path class="cls-6" d="M634.8,712c-13.8,0-17.1-8.5-22.5-22.4-1.5-3.9-3.2-8.3-5.4-13.1-4.1-9.2-11.9-20.2-20.1-31.8-11.7-16.6-25-35.5-31-53.8-10.4-31.8-13.4-64.6-7-76.3,10.1-18.3,26.3-14.1,26.5-14.1,1,.3,1.6,1.3,1.3,2.3s-1.3,1.6-2.3,1.3c-.6-.2-13.5-3.3-22.1,12.2-5.9,10.6-2.7,42.8,7.3,73.2,5.8,17.8,18.9,36.4,30.5,52.8,8.3,11.8,16.2,22.9,20.4,32.4,2.2,4.9,3.9,9.4,5.5,13.3,5.4,14,7.9,20.4,20,20,1.1,0,1.9.8,2,1.8,0,1.1-.8,1.9-1.8,2-.5,0-.9.2-1.3.2h0Z"/>
    <path class="cls-6" d="M611,714.3c-.4,0-.7,0-1-.3-9.6-6.2-12.8-13.7-17.7-25.2-4-9.5-9-21.2-19.6-37.7-20.3-31.4-25.4-51.5-25.6-52.3-.3-1,.4-2.1,1.4-2.3s2.1.4,2.3,1.4c0,.2,5.3,20.4,25.2,51.2,10.8,16.7,16.1,29.2,19.9,38.3,4.8,11.2,7.6,17.9,16.3,23.5.9.6,1.1,1.7.6,2.6-.5.5-1.2.8-1.8.8h0Z"/>
    <path class="cls-6" d="M587.3,707.2c-.7,0-1.3-.4-1.7-1,0,0-5.9-11.1-10.8-25.2-4.5-13-9.2-19.4-16.9-30l-.7-.9c-12.1-16.6-13.4-32.4-13.4-33,0-1,.7-2,1.8-2s2,.7,2,1.8,1.3,15.4,12.7,31.1l.7.9c7.6,10.5,12.7,17.5,17.4,31,4.8,13.8,10.5,24.5,10.6,24.6.5.9,0,2.1-.8,2.6h-.9,0Z"/>
    <g>
      <path class="cls-7" d="M677.5,627.2s11.1-8,19.6-29.2,9.1-27.3,11.7-37.7c4.2-17,7.4-41.9,38.2-50.4s32.4,39.8,32.4,48.8-1.1,36.1-8,52.5c-6.9,16.5-16.2,25.2-21.4,43.1-5.2,17.9-11.5,47.1-22.2,55.6s-38.2,1.6-38.2,1.6c0,0-8-20.2-12.7-26s-8-10.1-8-10.1c0,0-4.6-28,8.6-48.2h0Z"/>
      <path class="cls-6" d="M710.7,717.8c-10.2,0-20-2.3-21.8-2.8l-1.7-.4-.7-1.7c-2.2-5.5-8.6-20.6-12.2-25.1-4.8-5.8-7.9-10-8.1-10.2l-.5-.7v-.8c-.3-1.2-4.9-29.7,8.9-50.8l.4-.5.5-.4c.2-.2,10.5-7.9,18.4-27.6,6.8-17,8.5-24.1,10.2-31.7.4-1.8.8-3.6,1.3-5.6.4-1.4.7-2.9,1.1-4.5,4-17,9.5-40.2,39.6-48.5,8.1-2.2,15.2-1.1,21,3.3,6.5,4.9,11,13.8,13.6,26.5,2,9.8,2.2,19,2.2,22.5s-.2,34.8-8.2,53.9c-3,7.2-6.4,12.9-9.7,18.4-4.4,7.4-8.6,14.4-11.5,24.3-.8,2.8-1.7,6-2.6,9.3-5.1,18.8-11,40.2-20.8,48-4.8,3.9-12.2,5.1-19.4,5.1ZM692.3,708.6c8.3,1.8,26.4,4.3,33.5-1.3,8-6.4,14-28.4,18.4-44.4.9-3.3,1.8-6.5,2.6-9.4,3.1-10.8,7.7-18.5,12.2-26,3.2-5.3,6.5-10.8,9.3-17.5,6.1-14.5,7.7-39,7.7-51.2s-3.4-36-13.1-43.4c-4-3.1-8.9-3.7-14.9-2.1-26.2,7.2-30.9,27.2-34.7,43.3-.4,1.6-.7,3.1-1.1,4.6-.5,1.9-.9,3.7-1.3,5.5-1.8,7.8-3.5,15.2-10.5,32.7-7.8,19.4-17.8,28.3-20.3,30.3-10.8,16.9-8.4,39.9-7.8,44.5,1.1,1.4,3.8,4.9,7.3,9.3,4.4,5.1,10.6,19.8,12.7,25.1h0Z"/>
    </g>
    <path class="cls-6" d="M686.6,705.5c-.8,0-1.6-.5-1.8-1.4-4.9-17.3,3.6-34.5,12.6-52.8,4.9-9.9,10-20.2,12.8-30.5,4.1-15.1,4.7-29,5.1-41.2.4-11.3.8-22,3.9-32.1,6.5-21,25.7-38.3,26.6-39.1.8-.7,2-.6,2.7.2s.6,2-.2,2.7c-.2.2-19.3,17.4-25.5,37.4-2.9,9.6-3.3,20-3.8,31.1-.5,12.4-1,26.5-5.2,42.1-2.9,10.7-8.1,21.2-13.1,31.2-8.7,17.5-16.9,34.1-12.4,50,.3,1-.3,2.1-1.3,2.4h-.4,0Z"/>
    <path class="cls-6" d="M677,687.5h0c-1.1,0-1.9-.9-1.9-2s.6-14.4,8.7-30.5l.3-.6c7.8-15.5,13.9-27.8,17.6-49.8,1.5-9.2,0-24.3,0-24.4,0-1,.7-2,1.7-2.1s2,.7,2.1,1.7c0,.6,1.6,15.8,0,25.5-3.8,22.6-10,35.1-17.9,50.8l-.3.6c-7.7,15.4-8.3,28.8-8.3,28.9,0,1.1-1,1.9-2,1.9h0Z"/>
    <g>
      <line class="cls-1" x1="204.4" y1="536.5" x2="330.3" y2="525.5"/>
      <path class="cls-6" d="M204.4,540c-1.8,0-3.3-1.4-3.5-3.2-.2-1.9,1.3-3.6,3.2-3.8l125.9-11c1.9-.2,3.6,1.3,3.8,3.2.2,1.9-1.3,3.6-3.2,3.8l-125.9,11h-.3,0Z"/>
    </g>
    <g>
      <g>
        <path class="cls-7" d="M216.2,494.2l-10.1-22.7-111.5,10.1,18.6,43.9v152l92.9,12.7,124.2-12.7v-149.9l13.5-43.4-127.6,10h0Z"/>
        <path class="cls-7" d="M206,699.8l-102.3-14v-158.4l-22.9-54.2,131.2-11.8,10.2,22.8,134.9-10.6-17.3,55.4v157.1l-133.8,13.7h0ZM122.7,669.2l83.6,11.4,114.5-11.7v-142.8l9.8-31.4-120.2,9.5-10.1-22.7-91.7,8.3,14.2,33.7v145.7h0,0Z"/>
      </g>
      <path class="cls-7" d="M220.2,492.7l-14.1-21.2-111.5,10.1,18.6,43.9v152l95.4,11.8,121.6-11.8v-149.9l13.5-43.4-123.5,8.5h0Z"/>
      <path class="cls-7" d="M208.5,700.4l-106.3-13.2v-159.5l-23.6-55.7,133.4-12,13.2,22.3,133.9-10.3-17.8,57.3v158.2l-132.8,12.9h0ZM124.2,667.8l84.6,10.5,110.5-10.7v-141.7l9.2-29.5-115.2,8.8-13.1-22.1-89.5,8.1,13.6,32.1v144.5h0Z"/>
      <path class="cls-2" d="M224.7,505.1l-9.5-21.5-104.1,9.5,17.4,41.5v143.6l86.8,13.6,116-13.6v-141.5l12.6-41-119.2,9.4h0Z"/>
      <path class="cls-6" d="M208.6,692.9h-.4l-98.5-12.2v-154.5l-20.2-47.7,118.5-10.7,13.1,22.3,127.5-9.8-14.9,47.8v152.6l-125.1,12.2h0ZM116.7,674.4l92,11.4,118.1-11.5v-147.3l12.1-39-121.6,9.3-13.1-22.2-104.5,9.4,17,40.2v149.7h0Z"/>
      <path class="cls-6" d="M206.9,535.8h-.1l-93.8-7.6c-1,0-1.8-1-1.7-2.1s1-1.8,2.1-1.7l93.6,7.6,123.2-8.4c1.1,0,2,.7,2,1.8.1,1-.7,2-1.8,2l-123.5,8.4h0Z"/>
    </g>
    <path class="cls-6" d="M204.4,687c-1.1,0-1.9-.9-1.9-1.9v-145.3c0-1.1.9-1.9,1.9-1.9s1.9.9,1.9,1.9v145.3c0,1.1-.8,1.9-1.9,1.9Z"/>
    <path class="cls-6" d="M113.2,528.2c-.9,0-1.8-.7-1.9-1.7s.6-2,1.6-2.1l98-12.7c1,0,2,.6,2.1,1.6s-.6,2-1.6,2.1l-98,12.7h-.2Z"/>
    <path class="cls-6" d="M205.1,538.9h-.5c-1-.3-1.6-1.3-1.3-2.4l12-41.9c.3-1,1.3-1.6,2.4-1.3,1,.3,1.6,1.3,1.3,2.4l-12,41.9c-.4.9-1.1,1.4-1.9,1.4h0Z"/>
    <path class="cls-6" d="M1063.9,635c-.9,0-1.7-.6-1.9-1.5-1.7-7.3-10.8-11.4-24.4-11.2-15.7.3-36.1-.2-54.9-6.8-5.2-1.8-14.7-3.8-22.2-4-15.3-.3-28.8,3.2-28.9,3.3-1,.3-2.1-.3-2.3-1.3-.3-1,.3-2.1,1.3-2.3.6-.2,14.1-3.7,30-3.4,8,.2,17.9,2.2,23.4,4.2,18.2,6.4,38.2,6.9,53.5,6.5h1.4c21.2,0,25.7,9.8,26.7,14.1.2,1-.4,2-1.4,2.3h-.3,0Z"/>
  </g>
</svg>