<?xml version="1.0" encoding="UTF-8"?>
<svg id="Layer_1" xmlns="http://www.w3.org/2000/svg" version="1.1" xmlns:xlink="http://www.w3.org/1999/xlink" viewBox="0 0 1217 810">
  <!-- Generator: Adobe Illustrator 29.0.0, SVG Export Plug-In . SVG Version: 2.1.0 Build 186)  -->
  <defs>
    <style>
      .st0 {
        fill: #da2323;
      }

      .st1, .st2, .st3, .st4, .st5, .st6, .st7, .st8, .st9, .st10 {
        isolation: isolate;
      }

      .st1, .st5, .st9 {
        opacity: .6;
      }

      .st1, .st6, .st7, .st11, .st10 {
        fill: #ffac2a;
      }

      .st2, .st3, .st9, .st12 {
        fill: #969ba0;
      }

      .st2, .st4 {
        opacity: .7;
      }

      .st3, .st7, .st8 {
        opacity: .8;
      }

      .st13 {
        fill: #fff;
      }

      .st14 {
        mask: url(#mask);
      }

      .st4, .st8, .st15 {
        fill: #afcd5f;
      }

      .st5 {
        fill: #dedcd2;
      }

      .st6 {
        opacity: .5;
      }

      .st16 {
        fill: #464641;
      }

      .st17 {
        fill: #454440;
      }

      .st10 {
        opacity: .9;
      }
    </style>
    <mask id="mask" x="893.8" y="565.2" width="159.7" height="62.4" maskUnits="userSpaceOnUse">
      <g id="other_pet_leisure_svg__a">
        <path class="st13" d="M991,565.2c-18,0-47.7,5.2-47.7,5.2l-21,2.7-17.6,1.1s-4.9-4.1-10.2,9.6c-5.1,13.2,17.5,34.4,33.5,40.7,5.8,2.3,34.1,3.9,49-7.3,23.6-17.7,27.4-43.8,13.9-52"/>
      </g>
    </mask>
  </defs>
  <path class="st5" d="M893.6,646.8l1.3-447.6c0-52-42.2-94.2-94.2-94.2,0,0,0,0,0,0h-353.8c-52,0-94.2,42.2-94.2,94.2l-1.3,447.6h542.3Z"/>
  <path class="st13" d="M964.7,334.6l-8.8-.8.3-1.3-147.5-12s-8.5,43.2-12.8,84.5c-2.8,27.2-2.4,52.5-2.9,69.2l-.6-1.9c-.4,12.6-3.1,46.3-5,69.5l-3,24.4,2.7,63.6,2.9,10.9-3.7,12.2,10.8,16.2c.3,0,19.8,4.7,19.8,4.7l24.8-6.4,3.1-8.5-3.2-9.7s-1.7-22.7-1.6-33.4c.2-17.5,2.3-34.3,2.7-52.1,1.6-84.5,44-137.8,46.4-113,0,.5-5.1,2.4-4.8,16.1.2,12.8.2,25.9,0,36.4h0c0,7.8,0,15.2-.2,22.2l-1.6,37.8c-1.4,24.5-3.4,49.7-5.4,51.7-4,4,1,14.2-3.8,27.7s0,26.3,0,26.3c1.7-.5,3.3-.9,4.8-1.3.4,1.3.6,2.1.6,2.1,3.3-.9,6.4-2.3,9.4-4.1,13.2-1.9,17.9.9,17.9.9l9.6-8.8s.4-12.2,2.4-26.4c3.2-.6,7.1-2.4,10.2-6.9h5.2c0,0,18.9-148.4,25.1-199.6l6.3-90.3Z"/>
  <path class="st13" d="M816.9,681.4c-.6,0-1.2,0-1.8-.2-8.3-2-17.7-4.2-19.2-4.5-2.1-.3-4-1.5-5.1-3.3l-10.8-16.2c-1.2-1.9-1.6-4.2-.9-6.4l3.1-10.2-2.4-8.8c-.1-.5-.2-1.1-.2-1.6l-2.7-63.6c0-.4,0-.8,0-1.3l3-24.3c2.9-35,4.7-59.5,5-69,0-1.1.3-2.1.7-3,0-2.8,0-5.7.1-8.7.2-15.7.5-35.2,2.6-56.1,4.2-41.1,12.8-84.8,12.9-85.2.8-3.8,4.2-6.4,8-6.1l147.5,12c1.6.1,3,.7,4.2,1.7l4.4.4c4.1.4,7.2,4,6.9,8.1l-6.3,90.3c0,.1,0,.3,0,.4-6.2,50.7-24.9,198.1-25.1,199.6-.5,3.7-3.6,6.6-7.4,6.6h-1.7c-2,2.1-4.3,3.8-6.9,5-.8,7-1.4,14-1.7,21,0,2-1,4-2.5,5.3l-9.6,8.8c-2.7,2.5-5.9,3.2-8.8,1.1-.9-.3-4.5-1.1-11.7-.2-3.1,1.7-6.4,3.1-9.8,4-2,.6-4.1.3-5.8-.7-3.7.9-7.5-1.2-8.8-4.7-.2-.6-5.7-15.5,0-31.5,2.1-5.8,1.9-11,1.7-15.5-.2-4.8-.3-9.8,2.7-13.8.6-2.5,2.2-12.1,4.3-48l1.6-37.6c0-7.2.2-14.6.2-22,0-.3,0-.5,0-.8,0-13,0-24.9-.1-35.5,0-1.6,0-3.2,0-4.7-3.3,5.1-7.2,12.2-11,21.8-9.5,23.4-14.9,51.7-15.5,79.9-.2,8.8-.8,17.4-1.3,25.7-.6,9-1.2,17.5-1.3,26.3,0,9,1.2,27.5,1.5,31.8l2.9,8.8c.5,1.6.5,3.4,0,5l-3.1,8.5c-.9,2.4-2.8,4.1-5.2,4.8l-24.8,6.4c-.6.2-1.2.2-1.9.2M801.7,662.4c2.8.6,7.3,1.7,15.1,3.6l19.1-4.9.8-2.3-2.4-7.2c-.2-.6-.3-1.2-.4-1.8,0-.9-1.7-23.2-1.6-34.1,0-9.2.7-18.3,1.3-27.2.6-8.1,1.1-16.5,1.3-24.9.6-31.4,7-62.8,17.9-88.5,14.4-33.8,26.8-37.9,31.5-38,5-.2,11.2,3.1,12.2,12.9.2,1.8-.2,4.4-2.8,6.8-1.4,1.2-2.1,4.9-2,9.9.1,10.9.2,23.2.1,36.5,0,.3,0,.5,0,.8,0,7.3,0,14.5-.2,21.8l-1.6,37.8h0c-2.8,48.2-4.7,53.5-7,56.1,0,1,0,2.9,0,4.4.2,5.3.4,12.5-2.6,21.1-1.6,4.8-2.1,9.9-1.4,15,.8,0,1.5.3,2.2.6,1-.5,2-1,2.9-1.5.9-.5,1.9-.9,2.9-1,7.8-1.1,13.3-.8,17,0l4.1-3.8c.2-4.6.9-13.7,2.3-24,.5-3.2,2.9-5.8,6.1-6.4,2.2-.5,4.2-1.8,5.4-3.7,1.1-1.6,2.8-2.7,4.7-3.1,8.2-64.3,16.3-128.6,24.3-192.9l5.8-82.7h-1.4c-1.5-.3-3-.8-4.1-1.8l-136.2-11c-2.5,13.6-8.2,46.1-11.4,77.2-2.1,20.2-2.3,39.3-2.6,54.7,0,5-.1,9.7-.3,13.9,0,1.1-.3,2.2-.8,3.2-.7,14.8-3,42.7-4.8,64.8v.3s-3,23.8-3,23.8l2.7,62.2,2.7,10.1c.4,1.4.3,2.8,0,4.2l-2.7,8.8,7.1,10.7Z"/>
  <path class="st13" d="M787.2,348.4s42.9-1.3,88.5-8,77.3-18.3,77.3-18.3l-25.2-151.2-14.6-61.9s-31-6.6-78.4-3.9-34,12.9-34,12.9c0,0-10.4,73.3-8,75.7,1.2,1.2-40.7,24.4-36.7,59,4.2,35.7,31.1,95.7,31.1,95.7"/>
  <path class="st13" d="M782.7,355.6l-1.9-4.3c-1.1-2.5-27.4-61.3-31.7-97.7-3.7-32,26.2-54.9,36-62.4l.3-.2c0-2.5.2-5.9.6-10.7.6-6.5,1.5-15.3,2.9-26.2,1.7-14.1,3.7-28.2,4.5-34.1-1.4-2.4-1.8-5.3-1-8,1.8-6,8.2-11.9,41.9-13.8,47.7-2.7,78.9,3.7,80.2,4l4.3.9,15.7,66.6,26.2,156.9-5.4,2c-1.3.5-33,12-78.7,18.7-29.6,4.2-59.4,6.8-89.3,8h-4.7ZM799.4,190.5l.6.6-.2,3.2c-.2,3.5-2.3,5.1-6.1,8-9.1,7-33.4,25.6-30.6,49.6,3.4,28.8,22.5,75,28.6,89.3,12.3-.6,47-2.5,83-7.7,33.5-4.9,59.6-12.6,70.5-16.1l-24.2-145.1-13.5-57.2c-10-1.6-36.4-5-72.2-3-15.8.9-23.5,2.6-27.1,3.8l-.4,3c-4.2,29.7-8.2,62.9-8.3,71.5M976,328.1l5.8,51.8s-2.7,17-9.2,30c-6.4,12.9-10.5,17.5-14.6,19.6s-11.9,0-11.9,0l.8-22.5.8-15.1"/>
  <path class="st13" d="M952.8,437.5c-3.7,0-7.1-.7-8.5-1.1l-5.5-1.4,1-28.3.8-15.1,14,.7-.8,15.1-.6,16.1c.7,0,1.2,0,1.6-.2,3-1.6,6.6-6.8,11.5-16.5,5.1-10.3,7.8-23.6,8.4-27.1l-5.7-50.9,13.9-1.5,5.9,52.8v.9c-.3.7-3.1,18.2-10,32-6.5,13.1-11.5,19.5-17.6,22.7-2.5,1.3-5.6,1.8-8.4,1.8"/>
  <path class="st13" d="M840.4,98.9c44.2-2.3,83.6,4.7,83.6,4.7,0,0,50.4,71.5,61.8,130.4,11.4,59,9.5,119.9,9.5,119.9l-46.2-1.5s-8.8-98.9-8.8-101.2-34.3-90.1-34.3-90.1"/>
  <path class="st13" d="M1002,361.1l-59.4-1.9-.5-6.2c-2.5-28.1-8.1-91.6-8.7-100.8-1.9-6.4-21.6-57.3-33.9-88.6l13-5.1c33.9,86.6,34.7,90.8,34.8,92.5.2,3.6,4.8,56.2,8.2,94.6l32.9,1c0-17.5-.6-65.3-9.5-111.3-9.8-50.8-50.3-112.5-59-125.3-9.7-1.5-43-6-79.1-4.1l-.7-14c44.5-2.3,83.5,4.5,85.1,4.8l2.8.5,1.7,2.4c2.1,3,51.4,73.4,62.9,133.1,11.4,59.1,9.7,118.9,9.6,121.4l-.2,7ZM526.8,417.9c10.1-16.3-5.3-44-34.4-62.1-29.1-18-60.8-19.4-70.9-3.2-10.1,16.2,5.3,44,34.4,62,29.1,18,60.8,19.4,70.9,3.2"/>
  <path class="st13" d="M500.9,436.8c-14.8,0-32.2-5.2-49-15.6-15.1-9.4-27.4-21.6-34.5-34.5-7.9-14.2-8.7-27.7-2.3-38s18.9-15.6,35.1-14.8c14.7.7,31.1,6.2,46.2,15.6,15.1,9.4,27.4,21.6,34.5,34.5,7.9,14.2,8.7,27.7,2.3,38-6.2,9.9-18,14.9-32.3,14.9M447.3,349c-9.3,0-16.2,2.8-19.3,7.7-3.3,5.3-2.3,13.6,2.7,22.7,5.9,10.6,16.3,20.9,29.2,28.9,21.9,13.5,52,19.2,60.4,5.6,3.3-5.3,2.3-13.6-2.7-22.7-5.9-10.6-16.3-20.9-29.2-28.9-13-8-26.8-12.8-38.9-13.3-.8,0-1.5,0-2.2,0M501.5,301.3c-16.4-23.7-20.5-48.7-8.2-60.4,14.9-14.2,48.1-3.6,74.2,23.7,2.9,3,5.6,6.1,8,9.3"/>
  <path class="st13" d="M501.5,308.9c-2.5,0-4.8-1.2-6.2-3.3-19.2-27.8-22.1-56-7.2-70.2,18.2-17.4,55.5-6.8,84.9,24,3,3.2,5.9,6.5,8.5,9.8,2.6,3.3,2,8.1-1.3,10.7-3.3,2.6-8.1,2-10.7-1.3-2.4-3-4.9-5.9-7.5-8.7-19.9-20.8-50.8-35.6-63.4-23.5-9,8.6-5.1,29.9,9.2,50.6,2.4,3.5,1.5,8.2-1.9,10.6-1.3.9-2.8,1.3-4.3,1.3"/>
  <path class="st13" d="M692.7,237.6c15.6,79.1-5.3,96.4-43.7,104.6-38.4,8.2-76.7-16.5-94.8-83.4-18.1-66.9-4.5-129.3,34.8-137.2,40.9-8.2,90.1,46.7,103.8,116"/>
  <path class="st13" d="M634.8,350.1c-16.2,0-31.5-5.6-44.9-16.5-18.8-15.3-32.9-39.9-42-73.1-12.8-47.2-10.3-93.4,6.6-120.7,8.2-13.3,19.7-21.8,33.1-24.5,14.6-2.9,30.5,1,46,11.4,30.6,20.4,56.2,63.4,65.3,109.6,7.8,39.3,7,65.7-2.2,83.1-10.1,19-29.1,25.3-46.5,29-5.1,1.1-10.3,1.7-15.5,1.7M597.2,127.2c-2.4,0-4.7.2-7,.7-10,2-18.3,8.3-24.7,18.6-15,24.4-17,66.7-5.1,110.6,15.6,57.7,48.3,87.1,87.3,78.8,20.7-4.4,31.7-10.9,37.8-22.4,7.7-14.5,8-39,1-74.6-8.5-43-32-82.9-59.9-101.4-10.1-6.7-20.1-10.2-29.3-10.2M645.4,438.3c16.8,53,11,112.8-17.5,122.7-28.6,9.9-65.4-25-82.2-78s-7.2-103.9,21.4-113.8,61.6,16.2,78.4,69.1"/>
  <path class="st13" d="M617.8,570.3c-7.1,0-14.4-1.9-21.8-5.5-23.8-11.9-45.9-42.4-57.6-79.4-18.3-57.7-6.8-111.9,26.1-123.3,12-4.2,24.9-3.1,37.2,3.1,21.8,10.9,39.8,36.1,50.8,70.9,8.5,26.9,11.7,56.4,8.5,80.7-3.5,27.5-14.5,45.7-30.8,51.4-4,1.4-8.3,2.1-12.5,2.1M579.3,374.7c-3.3,0-6.6.6-9.8,1.7-24.3,8.4-31.9,56.2-16.6,104.4,10.5,33.3,29.7,60.3,50,70.4,8.2,4.1,15.8,5,22.5,2.7,10.5-3.6,18.1-17.8,20.8-39,2.8-22.3,0-49.3-8-74.2-9.6-30.4-25.4-53-43.2-61.9-5.3-2.7-10.5-4-15.7-4M562,259.5c28,25.5,42.9,61.2,28.4,77.9s-44.6,8.2-72.6-17.3c-28-25.5-40.1-60.7-26-77.7,12.3-14.7,42.1-8.4,70.1,17.1"/>
  <path class="st13" d="M570.2,353c-16.9,0-37.5-10-57-27.8-14.4-13.2-25.3-29.1-30.7-45-5.8-17.2-4.4-32.3,4-42.4,5.1-6.1,12.5-9.6,21.4-10.2,17.2-1.2,39.2,8.8,58.8,26.6,14.4,13.1,26.1,29.5,32,44.9,6.7,17.6,5.7,32.8-2.9,42.8-5.7,6.6-13.7,10.4-23.1,11-.8,0-1.6,0-2.5,0M510.8,241.6c-.6,0-1.3,0-1.9,0-5.1.4-9,2.1-11.6,5.2-11.4,13.6.5,45.4,25.3,68,17.4,15.9,35.8,24.9,49.3,24,5.6-.3,10-2.4,13.3-6.1,11-12.8-2-44.6-27.9-68.2-15.8-14.4-33.4-23.1-46.5-23.1"/>
  <path class="st13" d="M759.7,466s-9.9-89.4-23.9-107.5c-2-2.6-5.3-5.7-9.7-8.9-.2-2.5-2.1-5.7-8.2-11.5-11.8-11.2-40.5-31.2-44.2-46.8l-1.7-.2c-.5-1.9-.8-3.3-1-4-1.7-7.3-39.4-23.4-61.7-22.3-5.9.3-10.5,2.6-13.6,6.8-7.3,9.8-4,26.9-3.3,30-1.5,8.3-3.9,21.9-3.5,24.1.9,4.9,5.3,6.8,8.3,7.3,2.1,3.5,9.2,14.9,14.4,18.8,1.2.9,5.8,3.2,19.2-1.3l4,6c-5,.4-23.6,4.7-25.2,22.9-2,23.6-2,66.1-2,66.1l-29.2,5.6s-18.5.9-15.8,12,28.3,25,28.3,25l174.3,16.7-5.5-38.7Z"/>
  <path class="st13" d="M770.7,510l-181.1-17.4-.8-.5c-4.6-2.5-27.5-15.5-30.6-28-.9-3.8-.3-7.3,1.8-10.2,4.7-6.4,15.5-7.5,17.9-7.6l25.1-4.8c0-11.1.4-43,2-62.6.9-10.3,6.4-17,12.7-21.1h-.2c-4.3,0-7-1.1-8.7-2.3-5.1-3.8-11.3-13.2-14.5-18.4-4.5-1.3-8.9-4.6-10-10.6-.2-1.2-.6-3.3,3.4-24.9-4.1-19.6,2.2-30.1,4.3-32.9,3.9-5.3,9.9-8.3,17.1-8.7,10.5-.5,25.6,2.6,40.4,8.3,9,3.5,24.3,10.4,26,17.6l.2.8,1.8.2.8,3.2c2.5,10.3,19.4,24.5,31.7,34.8,4.2,3.5,8.2,6.9,11.2,9.7,5.3,5,8.2,8.8,9.2,12.2,3.4,2.5,6.5,5.4,9.2,8.8,14.3,18.6,23.7,100.1,24.8,109.8l6.3,44.5ZM592.4,483.5l167.4,16-4.7-33c-2.7-24.5-12.1-91.2-22.9-105.2-1.1-1.4-3.7-4.3-8.8-8l-1.8-1.3-.2-2.1c0-.7-.8-2.9-6.8-8.5-2.8-2.6-6.6-5.9-10.8-9.3-13-10.9-28.9-24.1-33.8-36.6l-2-.2-.8-3.1c-.5-1.8-.8-3.1-1-3.9-3.1-5.1-36.3-19.9-56.9-18.9-4.5.2-7.8,1.8-10.1,4.9-6.2,8.3-2.8,24.4-2.5,26.2l.2.9-.2.9c-3.3,18-3.5,22-3.5,22.6.5,2.5,3.3,3.1,4.4,3.3l2.2.3,1.1,1.9c3.8,6.4,9.6,14.8,13.2,17.5,0,0,3.5,1.9,14.9-2l3.4-1.1,10.5,15.5-8,.6c-.2,0-19.5,2-20.9,18.6-2,23.2-2,65.2-2,65.7v3.9l-33.6,6.4c-3.5.2-9.5,1.6-11.2,3.9-.3.5-.6,1.1-.3,2.4,1.5,6.1,15.3,16.1,25.2,21.6"/>
  <path class="st13" d="M564.8,259.5c26.7,24.3,37.3,56.8,23.8,72.5-13.6,15.7-46.2,8.7-73-15.6-26.7-24.3-37.4-56.8-23.8-72.5,13.6-15.7,46.2-8.7,72.9,15.6"/>
  <path class="st13" d="M564.8,259.5c28,25.5,44.2,59.8,29.8,76.5-14.4,16.7-48.8,9.6-76.8-15.9-28-25.5-38.9-59.7-24.5-76.4s43.5-9.7,71.5,15.8"/>
  <path class="st8" d="M564.8,259.5c28,25.5,44.2,59.8,29.8,76.5-14.4,16.7-48.8,9.6-76.8-15.9-28-25.5-38.9-59.7-24.5-76.4s43.5-9.7,71.5,15.8"/>
  <path class="st17" d="M603.3,391.6c-.5,0-1.1-.3-1.2-.9-8.1-23.8-22-48.2-41.4-72.4-.5-.6-.4-1.4.2-1.8.6-.5,1.4-.4,1.8.2h0c19.6,24.5,33.7,49.1,41.9,73.2.2.7-.2,1.4-.8,1.7-.1,0-.3,0-.4,0M536.1,290.2c-.3,0-.7-.1-.9-.4-24.6-24.9-46.1-40-46.3-40.1-.6-.4-.7-1.2-.3-1.8.4-.6,1.2-.7,1.8-.3.2.1,21.9,15.4,46.6,40.4.5.5.5,1.3,0,1.9-.3.3-.6.4-.9.4"/>
  <path class="st13" d="M520.8,415.3c9.5-15.3-5.4-41.6-33.1-58.8-27.8-17.2-57.9-18.8-67.4-3.5-9.5,15.3,5.4,41.6,33.1,58.8,27.8,17.2,58,18.8,67.4,3.5"/>
  <path class="st13" d="M526.8,417.9c10.1-16.3-5.3-44-34.4-62.1-29.1-18-60.8-19.4-70.9-3.2-10.1,16.2,5.3,44,34.4,62,29.1,18,60.8,19.4,70.9,3.2"/>
  <path class="st4" d="M526.8,417.9c10.1-16.3-5.3-44-34.4-62.1-29.1-18-60.8-19.4-70.9-3.2-10.1,16.2,5.3,44,34.4,62,29.1,18,60.8,19.4,70.9,3.2"/>
  <path class="st17" d="M496.7,428.1c-11.4,0-24.9-3.6-38.4-10.8-1.1-.5-1.6-1.8-1.1-2.9.5-1.1,1.8-1.6,2.9-1.1,0,0,.2,0,.3.1,24.9,13.3,50.5,13.7,58.5.9,8.8-14.2-5.8-39.2-32.4-55.7-13.1-8.1-27.1-13-39.5-13.6-11.9-.6-20.7,2.7-24.8,9.4-7,11.3,1,30.3,19.4,46.2.9.8,1,2.2.1,3.1-.8.9-2.1,1-3,.2-20.4-17.6-28.6-38.5-20.3-51.9,5-8.1,15.3-12.2,28.8-11.5,13.1.7,27.9,5.8,41.6,14.3s24.8,19.5,31.3,30.9c6.7,11.8,7.6,22.8,2.6,30.9-4.7,7.6-14.2,11.5-26,11.5M570.1,348.3c-15.4,0-34.8-8.9-52.3-25-.8-.9-.8-2.3,0-3.1.8-.8,2.1-.8,2.9-.1,24.5,22.6,52.6,30.4,65.5,18.2.8-.9,2.2-1,3.1-.2.9.8,1,2.2.2,3.1,0,0-.2.2-.2.2-4.8,4.6-11.5,6.9-19.2,6.9M501.5,303.5c-.7,0-1.4-.3-1.8-1-17.7-25.5-20.8-50.9-7.9-63.3,7.8-7.4,20.3-8.9,35.1-4.2,14.4,4.6,29.3,14.5,42.2,28,2.9,3,5.6,6.2,8.2,9.4.8.9.6,2.3-.3,3.1s-2.3.6-3.1-.3c0,0,0,0,0,0-2.4-3.1-5.1-6.2-7.9-9.1-25.2-26.4-57-37-71-23.7-11.1,10.6-7.6,34.3,8.5,57.5.7,1,.4,2.4-.6,3.1-.4.3-.8.4-1.3.4"/>
  <path class="st13" d="M686.6,223c17.2,63.3,9.2,108.4-27,116.1s-87.1-24.8-104.3-88.1c-17.2-63.3-1.8-120.9,34.5-128.7,36.3-7.7,79.6,37.3,96.8,100.7"/>
  <path class="st15" d="M691.8,237.7c17.1,72.7-3.3,95.2-41.9,103.5-38.6,8.2-76.9-16.2-94.9-82.5-18-66.3-1.3-126.8,37.2-135s82.2,40.1,99.6,114"/>
  <path class="st17" d="M562.7,275.4c-.9,0-1.7-.5-2-1.4-1.2-3-2.4-6-3.4-9-5.5-15.5-6.9-26.6-7-27.1,0-1.2.8-2.3,2.1-2.4,1.1,0,2.1.7,2.3,1.8,0,.1,1.4,11.1,6.7,26.1,1.1,3.2,2.2,6,3.3,8.8.5,1.1,0,2.4-1.2,2.9-.3.1-.6.2-.8.2M695.2,306.4c-.1,0-.2,0-.4,0-1.2-.2-2-1.3-1.8-2.5,0,0,0,0,0,0,3.7-22,1.7-47.4-5.8-75.5-8.3-31.1-23.3-59.3-42.3-79.2-18.3-19.2-38.2-28.1-54.8-24.6-27.9,6-43.8,44.5-38.7,93.8,0,1.2-1,2.2-2.2,2.2-1.1,0-2-.7-2.2-1.8-2.5-24.6,0-47.8,7.3-65.3,7.6-18.5,19.7-30,34.9-33.2,37.9-8.1,84.7,40.9,102.3,107,7.7,28.7,9.6,54.7,5.9,77.4-.2,1.1-1.1,1.9-2.2,1.9"/>
  <path class="st17" d="M631.8,227.9c-.6,0-1.1-.4-1.2-.9-11-33.9-26.2-68.3-45.2-102.4-.4-.6-.1-1.4.5-1.8s1.4-.1,1.8.5c19.1,34.2,34.4,68.8,45.4,102.9.2.7-.1,1.4-.8,1.7-.1,0-.3,0-.4,0M527.1,428.3c-.4,0-.8-.2-1-.5-35.1-44.6-105.6-73.1-106.4-73.4-.7-.3-1-1-.7-1.7.3-.7,1-1,1.7-.7h0c.7.3,71.9,29.1,107.5,74.2.4.6.3,1.4-.2,1.9-.2.2-.5.3-.8.3"/>
  <path class="st13" d="M892.8,512.2c26.7-21.3,38.8-50.7,26.8-65.7-11.9-15-43.3-9.8-70,11.5s-38.8,50.7-26.9,65.7c11.9,15,43.3,9.8,70-11.5"/>
  <path class="st13" d="M843.9,538.1c-11.1,0-20-3.7-25.6-10.8-7.1-9-7.8-21.9-1.9-36.3,5.4-13.3,16-26.6,29.7-37.6,29.7-23.7,64.1-28.3,78.2-10.6,14.1,17.7,1.9,50.2-27.8,73.9-13.7,10.9-29.1,18.2-43.3,20.5-3.2.5-6.4.8-9.3.8M898.6,443.7c-12.9,0-30,6.7-45.3,18.9-12.2,9.7-21.5,21.4-26.2,32.9-4.2,10.4-4.2,19.1.2,24.6,4.4,5.5,12.9,7.5,23.9,5.7,12.3-2,25.7-8.5,37.9-18.1,23.8-19,35.7-45.3,25.9-57.5-3.5-4.4-9.3-6.5-16.5-6.5"/>
  <path class="st13" d="M895,509c25.5-20.4,37.2-48.2,26-62.3s-41-9-66.5,11.4-37.2,48.2-26,62.3c11.2,14.1,41,9,66.5-11.4"/>
  <path class="st15" d="M849.3,460.2c-26.8,21.3-38.5,48.5-26.6,63.5,11.9,15,43.3,9.8,70-11.5s38.8-50.7,26.9-65.7-43.5-7.6-70.3,13.7"/>
  <path class="st17" d="M856.8,531c-1.2,0-2.2-1-2.2-2.2,0-1.1.8-2,1.9-2.2,9.8-1.2,23.2-6.3,31.3-14.9.9-.8,2.3-.8,3.1.1.7.8.8,2,0,2.9-8.8,9.4-23.4,15-34,16.3h-.3ZM907.1,500c-1.2,0-2.2-1-2.2-2.2,0-.6.2-1.1.6-1.5,16.4-18,22.1-37.8,13.8-48.1-8.4-10.5-27.3-9.5-49.5,2.6-1.1.6-2.4.2-3-.9-.6-1.1-.2-2.4.9-3,24.2-13.2,45.2-13.8,55.1-1.5s4.2,34-14,53.9c-.4.5-1,.7-1.6.7"/>
  <path class="st17" d="M822.3,536c-.7,0-1.3-.6-1.3-1.3,0-.2,0-.5.2-.7,29.4-50,98.5-88.1,99.2-88.5.6-.3,1.4-.1,1.8.5.3.6.1,1.4-.5,1.8-.7.4-69.2,38.1-98.2,87.5-.2.4-.7.7-1.1.7"/>
  <path class="st13" d="M650.1,442.7c16,50.7,5.6,99.9-23.3,109.9s-65.3-23.1-81.3-73.8c-16-50.7-5.6-99.9,23.3-109.9s65.3,23.1,81.4,73.8"/>
  <path class="st15" d="M650.1,442.7c16.8,53.1,12.2,108.8-18.5,119.4s-69.2-23.9-86-77-5.5-104.7,25.2-115.3,62.5,19.8,79.3,72.9"/>
  <path class="st17" d="M616.2,556.6c-25.2,0-53.3-26.2-69-66.4-.4-1.2.3-2.4,1.4-2.8,1.1-.3,2.2.2,2.7,1.2,17.2,44.1,49.4,70.7,74.7,62,27.7-9.5,37.4-57.6,21.8-107.1-10.2-32.3-29.5-58.9-50.4-69.4-9.8-4.9-19.5-6-28-3-22.1,7.6-33.5,41-27.7,81.1.2,1.2-.7,2.3-1.9,2.5s-2.3-.7-2.5-1.9c-2.9-20.1-1.6-39.6,3.6-54.9,5.5-16.1,14.8-26.9,27.1-31.1,9.7-3.3,20.6-2.2,31.5,3.3,21.9,11,42,38.6,52.6,72,7.9,24.9,9.8,50.2,5.3,71.3-4.5,21.5-15.1,36.2-29.8,41.3-3.6,1.2-7.4,1.9-11.3,1.9"/>
  <path class="st17" d="M606.3,556.5c-.7,0-1.3-.5-1.3-1.3-4-108.9-43.3-180.6-43.7-181.3-.4-.6-.1-1.4.5-1.8.6-.4,1.4-.1,1.8.5.4.7,39.9,72.9,44,182.5,0,.7-.5,1.3-1.3,1.4h0Z"/>
  <path class="st13" d="M680.1,620.7l4.9,53.5,14.8.4,3-62.1-22.6,8.2Z"/>
  <path class="st13" d="M706.9,682.4l-28.9-.8-6-66.1,38.8-14-3.9,80.9ZM691.9,666.8h.6s2.1-43.3,2.1-43.3l-6.4,2.3,3.7,41ZM546.4,608.5l-22.6-1-2.7,88.9h8.8c0,.1,9.3-70.2,9.3-70.2"/>
  <path class="st13" d="M536.5,704.2l-23.2-.3,3.2-104.2,30.3,1.3c4.2.2,7.4,3.7,7.2,7.9s-3.7,7.4-7.9,7.2l-14.9-.6-.5,17.9,1.1-8.1c.8-4.1,4.8-6.8,8.9-6,3.8.7,6.4,4.2,6.1,8l-10.2,77ZM654.3,625l5,49.3h9.7s.1-60.4.1-60.4"/>
  <path class="st13" d="M652.5,681.8l-5.7-56.1c-.4-4.2,2.6-7.9,6.7-8.3,3.6-.4,7,1.9,8.1,5.4v-9c0-4.2,3.4-7.6,7.6-7.6h0c4.2,0,7.6,3.4,7.6,7.6v67.9c-.1,0-24.3,0-24.3,0ZM881.8,684.9l21-31.8,36-7.6s24.8-2.6,40.7-1.2c17.1,1.6,34.1,9.3,34.1,9.3,0,0,2-.7,7-.3,16.4,12.6,53.8,21.5,53.8,21.5,0,0,4.7,10.2,6.7,18.4,1.7,6.8,16.4,3.8,14.8-5.5s-6-31.1-6-31.1c0,0-14.9-7.7-18.4-17.4s-2.3-19.4-8-42.7l4.5-3.7c19.8-9.3,56.6-35.5,44.2-61.7-7.1-15-26.5-14-34.5-8.5-8.4,5.7-13.6,17.3-13.6,17.3,0,0,1.7,5.6,8.2,4.5,6.4-1,16.7-11,19-4,3.1,9.4-18.2,37-42.6,41.7,0,0-36.7-21.2-74.2-16.8-31.4,3.6-50.8,7.9-63.6,9.1-12.8,1.2-14.7-2.9-17-4-7.2-3.9-28.4-21.3-35.3-23.3-5.7-1.6-9.8-2.4-9.8-2.4l-22-7.8,6.6,16.9s-5.6,4.4-9,10.7h.6c0,0-2.9,3.8-2.9,3.8,0,0-4.6,15.6.5,23.7s13.1,14.1,13.1,14.1c0,0,9.1,1.8,15.3-.8s8.5-5.6,8.5-5.6l5.8,12s-2.3,14,1.2,26.9c2.1,7.7,4.8,13.5,3.1,23.2-.9,5-2.9,9-7,17.6"/>
  <path class="st13" d="M1086.8,704c-6.1,0-11.1-3.5-12.5-9-1.2-4.9-3.5-10.7-5-14.1-9.5-2.5-36.2-10.2-51.2-20.6-1.2,0-2,0-2.3,0l-2.8,1.4-2.3-1.7c-.2,0-16.2-7.3-31.9-8.7-14-1.3-36,.8-39,1.1l-32.8,6.9-19.4,29.4c-2.1,3.2-6.5,4.1-9.7,2s-4.1-6.5-2-9.7l22.5-34.2,39.5-8.3c1-.1,25.7-2.7,42.1-1.2,14.7,1.3,29.1,6.8,34.3,9,1.6-.2,3.9-.2,6.8,0l2,.2,1.6,1.2c15.1,11.5,50.8,20.2,51.2,20.3l3.3.8,1.4,3.1c.2.4,4.4,9.6,6.7,17.9.7-.1,1.4-.5,1.6-.8v-.2c-1.2-7-4.1-21.4-5.4-27.8-5.2-3.2-15.5-10.3-18.8-19.5-1.9-5.3-2.6-10.4-3.4-16.8-.9-6.6-1.9-14.8-4.8-26.6l-1.1-4.3,8.7-7,.8-.4c9.3-4.4,22.6-12.7,32-22.9,10-10.8,13-20.8,8.9-29.5-1.7-3.8-5.1-6.5-9.1-7.5-5.6-1.5-12.1-.3-15.2,1.8-2.9,1.9-5.4,5-7.4,7.9.8-.4,1.7-.9,2.4-1.3,4.7-2.5,10.1-5.4,15.3-3.3,2.9,1.2,5,3.6,5.9,6.5,1.6,4.9.3,11-3.9,18.2-7.7,13.1-24.7,28.8-44,32.5l-2.6.5-2.2-1.3c-.3-.2-35.2-20-69.9-15.9-14,1.7-28,3.7-41.9,6-8.9,1.4-16,2.6-21.9,3.1-11.3,1-16.5-1.5-20.4-4.4l-.3-.3h-.2c-3.3-1.9-8.3-5.5-14.1-9.8-6.3-4.5-16.8-12.2-19.8-13-5.3-1.5-9.2-2.3-9.3-2.3h-.5c0,0-8.1-3-8.1-3l2.9,7.5-3.8,3h.1s-9.7,12.5-9.7,12.5c-1.3,5.2-2.1,13.4,0,16.8,3.2,5.1,7.8,9.3,10,11.2,2.9.4,7.1.5,9.7-.6,3.6-1.5,5.3-3.1,5.7-3.5l6.7-10.1,5,11.4,6.8,14-.4,2.2c0,.1-2,12.7,1,23.9.4,1.3.8,2.6,1.1,3.9,1.9,6.3,3.8,12.8,2.1,22.3-1,5.6-3,9.8-6.6,17.4l-.9,1.9c-1.6,3.5-5.8,5-9.3,3.3-3.5-1.6-5-5.8-3.4-9.3h0l.9-1.9c3.3-7,4.8-10.2,5.5-13.9,1.1-6.3,0-10.3-1.7-15.8-.4-1.3-.8-2.8-1.2-4.3-3-11.1-2.2-22.7-1.6-27.6l-1.3-2.6c-1,.5-2,1-3.2,1.5-8,3.3-18.2,1.4-19.4,1.2l-1.5-.3-1.3-.9c-.4-.3-9.2-6.8-14.8-16-4.8-7.8-3.5-19.3-2.2-25.4h-1c0-.1,1.9-3.6,1.9-3.6v-.4c.1,0,.5-1.3.5-1.3l1.4-1.8,1.2-2.1c1.9-3.4,4.2-6.5,6.9-9.3l-10.4-26.7,36,12.8c1.3.3,5,1.1,9.8,2.4,5,1.4,12.8,6.9,24.2,15.2,4.9,3.5,9.9,7.2,12.4,8.6,1,.5,1.8,1.1,2.4,1.5,1.3,1,3.2,2.4,10.8,1.7,5.4-.5,12.3-1.6,20.9-3,14.1-2.4,28.3-4.4,42.5-6.1,34.1-4,66.9,11.6,76.1,16.4,15.6-4.1,28.8-18.7,33.2-27.2-3.1,1.7-6.3,3.3-9.6,3.9-5,.8-13.4-1-16-9.3l-.8-2.5,1.1-2.4c.6-1.4,6.2-13.7,16.1-20.3,6.9-4.7,17.7-6.2,26.7-3.7,8.2,2.3,14.5,7.5,18.1,15,4.7,9.9,6.5,25.7-11.2,44.9-10.6,11.4-25.1,20.7-35.6,25.7l-.4.4c2.3,10.2,3.3,17.6,4.1,23.7.8,5.8,1.3,10,2.7,13.9,1.8,5.1,10.2,11,15.1,13.5l3,1.5.7,3.3c.2.9,4.5,22,6.1,31.4,1.3,8.1-3.9,15.2-12.4,17-1.2.2-2.4.4-3.6.4"/>
  <path class="st2" d="M1097.1,719.2c0,20.9-204.6,37.8-457.1,37.8s-457.1-16.9-457.1-37.8,180.4-41.8,457.1-37.8c252.4,3.6,457.1,16.9,457.1,37.8"/>
  <path class="st13" d="M911.9,636.8c2.2,4.3,17.2,33.5,19.7,39.6,5.8,14.3,5.7,35.3,5.7,35.3,0,0-5.4.5-7.4,2.7s-2.2,8-2.2,8h18l5.8-7.2s3.2-63.1-.8-87.7M835.5,298.5c0-28.7-4.6-57.8-7.2-71.9l14.2-21.2-11.5-59.3c2.6-3.7,4.5-7.5,5.2-10.5,1.5-6.7.2-12.9-.3-17.1l-.9-9.2,4.8-5.6s-.8-23.1-5.6-24.7-8,.8-8,.8c0,0-1.6-21.2-21.4-27.5-24.3-7.8-46.6,11.3-49.1,27.9-3.6,23.3,13.9,51.4,13.9,51.4,0,0,.3,1.1.9,2-11.8,8.8-26.6,19.8-37.6,32.1,0,0,12,134,17.6,155.6.6,2.4,1.5,5.2,2.5,8.1,7.3,22.6,26.6,59.9,26.6,59.9l6.9-2.8.2.4,33.1-13.8-5.8-21.6s21.5-13.1,21.5-53.1"/>
  <path class="st13" d="M776,398.9l-3.2-6.1c-.8-1.5-19.7-38-27-61-1-2.8-1.9-5.7-2.7-8.6-5.7-21.9-17.3-151.3-17.8-156.8l-.3-3.3,2.2-2.4c9.9-11.1,22.5-21,33.5-29.3-5-9.2-15.7-32-12.6-52.4,1.7-11,9.7-22.1,21-29,11.8-7.3,25.2-9,38-5,15.8,5,22.3,17.5,24.9,25.9,1.5,0,3,.4,4.5.9,2.9,1,9.8,3.3,10.8,31.6v3c0,0-4.5,5.4-4.5,5.4l.6,5.9.2,1.8c.6,4.3,1.5,10.7-.1,17.8-1,3.7-2.5,7.2-4.5,10.4l11.5,59.3-14.2,21.3c2.8,15.6,6.8,43,6.8,70.2s-13.2,49.1-20.5,55.9l6.3,23.2-45.9,19.2-.2-.5-6.7,2.7ZM740.8,168.4c4.2,47.1,12.9,134.8,17.1,151,.5,2.1,1.3,4.7,2.3,7.6v.2c5.3,16.4,17.3,41.2,23,52.6l7-2.8.2.4,20.3-8.5-5.6-20.8,4.9-2.8c.7-.4,17.8-11.9,17.8-46.6s-4.4-56.1-7.1-70.5l-.6-3,14.2-21.2-11.6-59.5,1.9-2.7c2.3-3.2,3.6-6.1,4-7.8,1-4.3.4-8.6,0-12.3-.1-.8-.2-1.5-.3-2.2v-.2s-1.2-12.4-1.2-12.4l4.9-5.7c-.4-5.8-1.2-11.6-2-14.7l-10.4,7.8-1-13.8c0-.6-1.6-16.2-16.1-20.9-11.4-3.7-20.8.6-25.4,3.4-7.3,4.5-12.9,11.9-13.9,18.5-3.1,20.2,12.7,46,12.9,46.2l.6,1,.2.9h0c0,.1,3.6,5.9,3.6,5.9l-6.6,5c-10.5,7.8-23.3,17.5-33.2,27.9"/>
  <path class="st13" d="M700.1,362.1s59.5,2.6,109.2,5.2,66.8,3,66.8,3c0,0-38.8,89.5-45,156.6s-5.7,91.4-5.7,91.4c0,0-40.3,4.8-129.1,4.6-60.9-.2-182.4-9.3-182.4-9.3,0,0-17-85.1-17.2-137,0-17.9,13.6-25.2,36.8-26.6,5.1-.3,8.8,13.8,8.8,13.8l25.1,9.8,101.3-23.6"/>
  <path class="st13" d="M703.7,631h-7.5c-60.5-.2-181.7-9.3-183-9.4l-6.2-.5-1.2-6.1c-.7-3.5-17.2-86.5-17.3-138.5,0-21.3,14.9-33,44.5-34.8,8.6-.5,13.4,8.4,16,15.8l19,7.5,98.8-23,3.7,15.9-103.8,24.2-31.3-12.3-1.1-4c-.7-2.6-1.7-5.2-2.9-7.6-23.4,2-26.7,9.9-26.6,18.3.1,42.6,12,109,15.9,129.3,25.6,1.8,123.5,8.7,175.5,8.8,66.4.2,105.8-2.5,121-3.8.2-11.7,1.3-37.7,5.7-84.7,2.6-28.5,11.1-63.9,25.2-105.4,4.9-14.4,10.2-28.7,15.9-42.8-10.2-.4-27.7-1.1-55.1-2.6-49.1-2.6-108.5-5.1-109.1-5.2l.7-16.3c.6,0,60.1,2.6,109.2,5.2,48.9,2.5,66.4,3,66.5,3l12.1.3-4.8,11.1c-.4.9-38.4,89.1-44.4,154.1-6,65.6-5.7,90.2-5.7,90.5v7.4c.1,0-7.2.9-7.2.9-1.6.2-39.6,4.6-122.6,4.6"/>
  <path class="st13" d="M680.1,620.7l8.2,97.2s1,.7,4.4.7,5.2-.7,5.2-.7l4.8-105.3-22.6,8.2Z"/>
  <path class="st17" d="M692.7,721c-3.7,0-5.3-.8-5.8-1.2l-.9-.7-8.4-100.2,27.8-10.1-5,110.6-1.5.6c-2,.6-4,.9-6.1.9M690.6,716c.5,0,1.2.1,2.1.1,1.2,0,2.1,0,2.9-.2l4.6-99.8-17.4,6.3,7.9,93.6Z"/>
  <path class="st13" d="M546.4,608.5l-22.6-1-2.7,91.7,8.8-1,9.3-71.9"/>
  <path class="st17" d="M518.6,702l2.9-97,25.1,1.1c1.4,0,2.4,1.2,2.3,2.5,0,1.4-1.2,2.4-2.5,2.4l-20.1-.9-2.6,86.3,4.1-.5,9.1-70c.2-1.3,1.4-2.3,2.7-2.1s2.3,1.4,2.1,2.7h0l-9.6,73.8-13.5,1.6Z"/>
  <path class="st13" d="M655.1,631.7l5.7,59.8s1.6.8,4,.7c2.9-.1,4.2-.7,4.2-.7v-77.6"/>
  <path class="st17" d="M664.4,694.5c-2.5,0-4.3-.8-4.5-.9l-1.3-.6-5.9-61.2c-.1-1.3.9-2.5,2.2-2.7s2.5.9,2.7,2.2l5.6,58.1c.5,0,1,.1,1.6,0,.7,0,1.4-.1,1.9-.2v-75.6c.1-1.4,1.2-2.5,2.6-2.5s2.5,1.1,2.5,2.5v79.3c-.1,0-1.7.6-1.7.6-.3.1-1.8.7-5,.8h-.6Z"/>
  <path class="st13" d="M758.5,364.8c16.3.8,34.1,1.6,50.8,2.5,49.7,2.6,66.8,3,66.8,3,0,0-25.4,89-31.6,156.1s-5.7,89-5.7,89c0,0-45.5,8.3-142.5,7.5-60.9-.5-182.4-9.3-182.4-9.3,0,0-17.3-104.9-16.1-138.2.6-15.9,10.7-21.8,28.9-23.6,12.5-1.3,41.6,11.7,41.6,11.7l100.5-13.4"/>
  <path class="st13" d="M700.1,362.1s24.1,2.2,56.3,3.8l-56.3-3.8Z"/>
  <path class="st17" d="M538,617.6h-.1c-16.1-1-24.2-1.8-24.3-1.8l-1.6-.2-.3-1.6c-.1-.7-13.5-67-17.3-131.6-.7-12.4,2.7-21,10.5-26.3,1-.7,2.4-.6,3.1.4.7,1,.6,2.4-.4,3.1,0,0-.1.1-.2.1-6.5,4.4-9.2,11.6-8.6,22.4,3.5,58.7,14.9,118.8,16.9,129.3,3.1.3,10.6.9,22.5,1.7,1.2.1,2.1,1.2,2,2.4-.1,1.1-1,2-2.1,2M721.2,625.3c-8.2,0-16.5,0-25.1-.3-38.3-.8-86.4-3.8-125.1-6.2l-13.8-.9c-1.2-.2-2.1-1.3-1.9-2.5.1-1.1,1.1-1.9,2.2-1.9l13.8.9c38.6,2.4,86.6,5.5,124.9,6.2,27.3.5,51.3.2,80.3-1,1.2-.1,2.3.8,2.4,2s-.8,2.3-2,2.4c0,0-.2,0-.2,0-20,.9-37.6,1.3-55.5,1.3M758.1,367h0l-58.1-2.7c-1.2,0-2.2-1.1-2.1-2.3s1.1-2.2,2.3-2.1l58.1,2.7c1.2.1,2.1,1.2,2,2.4,0,1.1-1,2-2.1,2"/>
  <path class="st13" d="M655.2,349.2c-1.8.9-41.9,9.7-44.2,31.8-2.5,23.6-3.3,64.4-3.3,64.4l-29.2,5.6s-18.5.9-15.8,12,28.3,25,28.3,25l174.3,16.7-5.5-38.7s-10.2-88.4-24.2-106.5c-5.5-7.1-21-18.6-44.2-23.8-25.2-5.6-41.5-.2-41.5-.2l5.4,13.6Z"/>
  <path class="st17" d="M767.8,507.2l-176.6-16.9c-4.9,1.7-32.1,10.7-41.6,5.6-1.8-.9-3.1-2.5-3.5-4.4-2.8-11.3-1.4-34.4-1.3-35.3v-1.7c0,0,60.7-10.9,60.7-10.9.2-8.5,1.1-44.2,4.1-64.8,1.5-10.4,7.8-17.4,19.3-21.5,1.2-.4,2.4.2,2.8,1.3.4,1.2-.2,2.4-1.3,2.8h0c-9.9,3.6-15.1,9.3-16.4,18-3.4,23-4.1,65.6-4.1,66v1.8s-60.8,10.9-60.8,10.9c-.3,5.6-.9,23.3,1.3,32.2.1.5.4,1,1.3,1.6,1.9,1,7.3,2.2,22-1.3,5.6-1.3,11-2.9,16.5-4.8l.5-.2h.5s171.5,16.5,171.5,16.5l-5.1-35.9c0-.9-8.6-84.8-25.3-105.9-7.6-9.7-21.3-16.5-30.7-19.4l-5.3-1.6c-1.2-.3-1.9-1.5-1.6-2.7.3-1.2,1.5-1.9,2.7-1.6,0,0,.2,0,.3,0l5.3,1.6c10,3.1,24.6,10.5,32.9,20.9,17.5,22.1,25.9,104.6,26.2,108.1l5.9,41.4Z"/>
  <path class="st13" d="M699,387c-4,16.4-18.9,71.7-18.9,71.7,0,0-27.8,0-43.6-.4s-40.8-2.9-40.8-2.9l-1,17.4s16.3,12.4,27.6,19.7c11.2,7.4,37.9,17.6,57.4,11.9,11.4-3.3,11.8-1.5,21.2-9.3,14.5-11.9,36.2-79.1,36.2-79.1"/>
  <path class="st17" d="M667.3,508.3c-18.3,0-37.9-8.6-46-13.9-11.2-7.3-27.5-19.7-27.7-19.8l-.9-.7,1.2-20.9,2.3.2c.2,0,25,2.5,40.6,2.8,13.4.3,35.5.4,41.8.4,2.5-9.3,14.9-55.4,18.4-70,.3-1.2,1.5-1.9,2.7-1.6,1.2.3,1.9,1.5,1.6,2.7h0c-3.9,16.2-18.7,71.2-18.9,71.7l-.4,1.6h-1.7c-.3,0-28,0-43.6-.4-12.9-.3-32-2-38.6-2.6l-.8,13.9c3.6,2.7,17,12.7,26.5,18.9,11.9,7.8,37.8,16.9,55.6,11.6,3-.9,5.2-1.4,7-1.8,5.1-1.2,6.8-1.6,13.4-7,3.9-3.2,11.1-13.3,22.9-43.1,7.1-18,12.6-34.8,12.6-35,.4-1.1,1.7-1.7,2.9-1.3,1.1.4,1.6,1.5,1.4,2.6-.9,2.8-22.1,68-36.9,80.2-7.4,6.1-9.7,6.6-15.2,7.9-1.8.4-4,.9-6.8,1.8-4.3,1.2-8.8,1.8-13.2,1.8"/>
  <path class="st13" d="M524.3,704c-4.4-.2-8.8-.6-13.2-1.2,0,0-1.8-5.6,7-8.2,9.3-2.7,38-17.5,42.3-31.4,2.3-7.4,2.1-28.7-2.6-44.7l36.2-8.8,5.7,19.2-19.7,65.7-32.6,9.8"/>
  <path class="st17" d="M524.3,706.2h-.1c-7.8-.5-13.2-1.2-13.4-1.2l-1.4-.2-.4-1.3c0-.3-.8-2.8.7-5.5,1.3-2.5,3.9-4.3,7.8-5.5,4.5-1.3,14-5.7,22.4-11.2,10.2-6.6,16.7-13.3,18.4-18.7,2.6-8.3,3-16.4,1.2-25.4-.2-1.2.6-2.4,1.8-2.6,1.2-.2,2.4.6,2.6,1.8h0c1.9,9.8,1.4,18.5-1.4,27.6-2.6,8.3-12.4,16-20.2,21.1-8.9,5.8-18.6,10.3-23.6,11.8-4,1.2-5.1,2.9-5.5,4.1,2.2.3,6.2.7,11.2,1,1.2.1,2.1,1.2,2,2.4,0,1.1-1,2-2.1,2"/>
  <path class="st13" d="M621.1,620.2s-13,38.1-14.4,53.5c-1.4,15.4,9.2,24.7-5.2,29.5s-19.5,5-39.7,5-28.4-1.3-29.1-3.4,30.5-25.2,35.5-31.5c11.8-15.1,25.4-78.6,25.4-78.6l27.6,25.5Z"/>
  <path class="st17" d="M565.1,710.4h-3.3c-27.4-.1-30.3-2.3-31.2-4.9-.8-2.3,1.1-3.6,8.1-8.6,7.9-5.6,21.2-15,27.6-24.9,20.8-31.8,25-77.2,25-77.6l.4-4.5,30.9,28.5c.8.9.8,2.3,0,3.1-.8.8-2.1.8-2.9.1l-24.4-22.5c-1.6,12.4-7.5,48.1-25.2,75.2-6.9,10.6-20.6,20.3-28.8,26.1-1.8,1.3-3.8,2.7-5.2,3.8,2.6.7,9.1,1.6,25.7,1.6,14.9,0,24.8-.1,39-4.9,7.4-2.5,6.7-5.4,5.1-12.6-.9-4-2-9.1-1.5-15,.9-9.2,5.4-23.7,9.3-36.4l.3-1.2c.4-1.2,1.6-1.8,2.8-1.5,1.2.4,1.8,1.6,1.5,2.8h0l-.4,1.1c-3.7,11.9-8.3,26.7-9.1,35.5-.5,5.2.5,9.6,1.4,13.6,1.6,7.2,3.1,14.1-8.1,17.8-13.8,4.6-23.5,5.1-37.1,5.1"/>
  <path class="st13" d="M636.3,489.8s-53.8-25.2-96.2-7.7c-22.1,9.1-7.2,71.7-7.2,71.7l18.7,76.1s18.2-4.3,30.2,1.4c0,0,5.9-37.1,5.9-62.6s-1-38.5-1-38.5h61.6l-12-40.4Z"/>
  <path class="st13" d="M730.5,489.5s-51-19.2-99.1-12c-23.3,3.5-25.5,36.6-31.7,63.5-5.8,24.8-19.7,76.5-19.7,76.5,0,0,33.4-2.8,46.4,15.5,15.4-19.7,34.9-93.9,34.9-93.9l66.8-.9,2.4-48.6Z"/>
  <path class="st11" d="M636.3,489.8s-17.3-12.1-42.8-13.1c-12.5-.5-23.1-.2-37.3,4.7-10.7,3.7-17.2,13.5-19.3,20.9-2.7,9.9-1.4,18.8,2.2,37,3.8,19,20.3,90.7,20.3,90.7,0,0,13.8-.4,25.5,2.8,0,0,8.2-15.2,9.2-47.7.8-26.8-4.3-53.9-4.3-53.9l58.5-1-12-40.4Z"/>
  <path class="st13" d="M732,488.4s-51-19.2-99.1-12c-23.3,3.5-25.5,36.6-31.7,63.5-5.8,24.8-19.7,76.5-19.7,76.5,0,0,36.3,6.8,50.7,16.6,15.4-19.7,30.7-95.1,30.7-95.1l66.8-.9,2.4-48.6Z"/>
  <path class="st17" d="M565.1,710.4h-3.3c-27.4-.1-30.3-2.3-31.2-4.9-.8-2.3,1.1-3.6,8.1-8.6,7.9-5.6,21.2-15,27.6-24.9,11.5-17.6,17.8-39.2,21.2-54.2.2-1.2,1.4-2,2.6-1.8,1.2.2,2,1.4,1.8,2.6,0,0,0,.1,0,.2-3.4,15.4-9.9,37.6-21.8,55.7-6.9,10.6-20.6,20.3-28.8,26-1.8,1.3-3.8,2.7-5.2,3.8,2.6.7,9.1,1.6,25.7,1.6,14.9,0,24.8-.1,39-4.9,7.4-2.5,6.7-5.4,5.1-12.6-.9-4-2-9.1-1.5-15,.9-9.2,5.4-23.7,9.3-36.4l.3-1.2c.4-1.2,1.6-1.8,2.8-1.5,1.2.4,1.8,1.6,1.5,2.8h0l-.4,1.1c-3.7,11.9-8.3,26.7-9.1,35.5-.5,5.2.5,9.6,1.4,13.6,1.6,7.2,3.1,14.1-8.1,17.8-13.8,4.6-23.5,5.1-37.1,5.1"/>
  <path class="st11" d="M732,488.4s-51-19.2-99.1-12c-23.3,3.5-25.5,36.6-31.7,63.5-5.8,24.8-19.7,76.5-19.7,76.5,0,0,36.3,6.8,50.7,16.6,15.4-19.7,30.7-95.1,30.7-95.1l66.8-.9,2.4-48.6Z"/>
  <path class="st17" d="M592,553.2c-1.1,0-2.1-.9-2.2-2-1.8-18.5-6.7-41.4-6.7-41.6-.3-1.2.3-2.4,1.5-2.8,1.2-.3,2.4.3,2.8,1.5,0,.1,0,.2,0,.3,0,.2,5,23.4,6.8,42.1.1,1.2-.7,2.3-2,2.4,0,0-.2,0-.3,0"/>
  <path class="st17" d="M592.2,533.2c-1.2,0-2.2-1.1-2.1-2.3,0-1.1.9-2,1.9-2.1l9.1-.7c1.2,0,2.2.9,2.3,2.2,0,1.1-.8,2.1-1.9,2.3l-9.2.7h-.2ZM579.2,633.1c-.1,0-.3,0-.4,0-15.1-3.1-26.5-1-26.7-1l-2.1.4-.5-2.1c-7-30.8-13.9-61.7-20.8-92.5-2.2-9.7-6.3-27.8-1.4-40.1,1.6-3.9,3.7-7.5,6.4-10.7.8-.9,2.2-1,3.1-.2.9.8,1,2.2.2,3.1,0,0-3.5,4.1-5.6,9.4-4.3,11-.5,28.2,1.6,37.5l.6,2.5c2.3,10.7,17,75.7,19.8,88,4.2-.5,14-1.2,26.2,1.3,1.2.3,2,1.4,1.7,2.6-.2,1-1.1,1.7-2.2,1.8"/>
  <path class="st17" d="M632.9,635.8l-1.8-.9c-21.8-11.3-49.7-16.4-50-16.4l-2.4-.4.6-2.3c.1-.5,14-51.9,19.7-76.4,1-4.4,2-9,2.8-13.5,4.8-23.9,9.7-48.5,30.7-51.7,48.1-7.2,99.7,12,100.2,12.1l1.5.6-2.6,52.3-66,.9c-2.7,11.3-18,73.5-31.7,94.1l-1.1,1.6ZM584.3,614.6c7.1,1.4,28.6,6.2,47.1,15.5,14.1-23.3,30.3-92,30.4-92.7l.4-1.7,65.3-.9,2.2-44.9c-8.8-3-54.1-17.7-96.5-11.4-18,2.7-22.4,24.8-27,48.1-.9,4.5-1.8,9.2-2.9,13.6-5,21.5-16.3,63.9-19.1,74.2"/>
  <path class="st13" d="M795.9,575.5c-14.6-2.3-1.9-120.6-14-121-19.5-.6-41.7-2.6-51.8,9.9s-46,117-46,117l-29.1-1.4"/>
  <path class="st17" d="M685.7,583.6l-23.8-.8c-1.2-.1-2.1-1.2-2-2.4.1-1.1,1-2,2.2-2l20.5.7c4.7-13.5,36.1-104.2,45.8-116.1,11-13.6,27.6-12.3,46.9-10.8,2.5.2,5.3.4,8.6.7,1.2,0,2.2,1.1,2.1,2.4s-1.1,2.2-2.4,2.1c0,0,0,0-.1,0-3.2-.3-6.1-.5-8.5-.7-18.8-1.4-33.6-2.6-43.1,9.2-7.8,9.6-33.2,80.3-45.6,116.3l-.5,1.6ZM659.8,556.8c-1.2,0-2.2-1-2.2-2.2,0-.2,0-.5.1-.7,0,0,2.5-7.9,4.8-21.2,2.2-12.3,2-18.8,2-18.8,0-1.2,1-2.2,2.3-2.2,1.1,0,2.1.9,2.2,2,0,.3.2,6.9-2.1,19.8-2.4,13.6-4.9,21.4-5,21.7-.3.9-1.1,1.5-2.1,1.5"/>
  <path class="st13" d="M874,380.3s-33.5,82.9-35.1,167.4c-.3,18.6-4.4,51-4.8,74.9-.2,17.4,3.2,30.3,3.2,30.3l-11.6,17.8s-19.5-7.4-33.9-6.6l-4.8-11.2,1-11.8-1-11.3-2.7-63.6,7.2-58.2s.5-17.5,1.1-26.5c1-15.9,0-44.9,3.2-76.5,4.2-41.3,12.8-84.5,12.8-84.5l147.5,12s-20.3,97.5-26.3,159.4c-1,9.6,1.9,22.3,1.6,29.5-2.4,53.4-5.6,72.5-10.4,92.5s-5.6,43.8-5.6,43.8l-9.6,8.8s-8-4.8-32.7,2.4c0,0-4.8-12.8,0-26.3,4.8-13.6-.2-23.7,3.8-27.7,4-4,7.8-99.3,7.8-99.3,0,0-.2-71-2.6-95.7-2.4-24.7-8.1-39.5-8.1-39.5"/>
  <path class="st13" d="M877.5,394.1s-34,78.7-35.6,163.2c-.3,18.6-2,42.2-2.3,66.1-.2,17.4,1.3,24.8,1.3,24.8l3.9,10.7-3.1,8.5-17.8,4.6s-10.2-7.9-20.2-7.3l-7.8-11.6,2.7-12.8-2.7-15.5-1.9-57,13.5-162.2,6.7-84.3,150.6,13.3s-27.8,260.6-32.6,280.5c-4.8,19.9-20.2,16.3-20.2,16.3l-9.6,8.8s1,22.3-23.7,29.5c0,0-4.8-12.8,0-26.3s1.6-30.3,1.6-30.3l3.9-89.6s1-71.7-1.4-96.4c-2.4-24.7-5.2-33-5.2-33"/>
  <path class="st0" d="M877.5,394.1s-34,78.7-35.6,163.2c-.3,18.6-1.3,37.9-1.6,61.8-.2,17.4.6,29.1.6,29.1l3.9,10.7-3.1,8.5-15.9,3.3s-17.6-4.3-27.6-3.8l-11.1-14,2.9-12.2-1.9-13.6-2.7-61.7s2.7-51.3,6.2-87.8c3.6-38,19.8-76.1,19.8-76.1l2.7-80.3,154,12.6s-31.2,261.2-36,281.1c-4.8,19.9-20.2,16.3-20.2,16.3l-9.6,8.8s1,22.3-23.7,29.5c0,0-4.8-12.8,0-26.3s1.6-30.3,1.6-30.3l3.9-89.5s1-71.7-1.4-96.5c-2.4-24.7-5.2-33-5.2-33"/>
  <path class="st17" d="M794.8,420.9h-.1c-1.2,0-2.1-1.1-2.1-2.3,0,0,0,0,0,0,.3-5.3.7-9.9,1.1-13.7,4.2-40.9,12.7-84.3,12.8-84.7.2-1.1,1.2-1.9,2.3-1.8l147.5,12c1.2.1,2.1,1.1,2,2.3,0,.2-1,19.2-7,68.6-.1,1.2-1.2,2.1-2.5,1.9-1.2-.1-2.1-1.2-1.9-2.5,4.9-40,6.4-60,6.8-66.1l-143.3-11.6c-1.7,8.9-8.7,46.6-12.3,82.4-.4,3.8-.8,8.4-1.1,13.6,0,1.2-1,2.1-2.2,2.1M820.7,675.1c-.1,0-.2,0-.3,0,0,0-10.7-1.4-20.7-.9-.8,0-1.5-.4-2-1l-12.5-19.1c-.3-.5-.4-1.1-.3-1.7l2.8-11.8-1.9-13.2v-.2s-2.7-61.7-2.7-61.7v-.2c0-.5,1.3-48.2,9.3-104.3.2-1.2,1.3-2.1,2.5-1.9s2.1,1.3,1.9,2.5h0c-7.9,54.8-9.2,101.6-9.3,103.7l2.7,61.5,1.9,13.5c0,.3,0,.5,0,.8l-2.7,11.3,11.3,17.2c8.9-.4,17.7.6,19.8.9l19.4-5,2.5-6.7-3-9c0-.2-.1-.4,0-.6,0-.1-.7-13.4-1.3-27.2-.2-1.2.7-2.3,1.9-2.5,1.2-.2,2.3.7,2.5,1.9,0,.1,0,.3,0,.4.5,12.6,1.2,24.8,1.3,26.8l3.1,9.4c.2.5.2,1,0,1.5l-3.1,8.5c-.2.7-.8,1.2-1.5,1.4l-21,5.4c-.2,0-.4,0-.6,0"/>
  <path class="st17" d="M875.6,670c-.9,0-1.7-.6-2.1-1.4-.2-.5-5-13.7,0-27.8,4.6-13,4.8-30.5,4.8-30.6v-.2c0-.6,5-58,3.5-148.8-.5-30.7-3.1-49.6-4.8-59.1-5.1,14.3-16.4,47.8-23.1,81.5-3.7,18.8-6.3,37.8-7.8,56.9,0,1.2-1.2,2.1-2.4,2-1.2,0-2.1-1.2-2-2.4,1.5-19.3,4.2-38.5,7.9-57.4,9-44.6,25.8-88.9,26-89.3.4-1.1,1.7-1.7,2.8-1.3.7.2,1.2.8,1.4,1.5.2.8,5.8,20.1,6.5,67.6,1.5,89.3-3.3,146.5-3.5,149.1,0,1.6-.3,18.6-5,32-3.4,9.5-1.7,18.8-.6,22.8,20.9-7.5,22.3-30.5,22.3-31.5,0-.6.3-1.1.7-1.5l9.6-8.8c.4-.4.9-.6,1.5-.6l20.2-.4c2-16.7,17-137.6,23-191.4.2-1.2,1.4-2,2.6-1.8,1.1.2,1.9,1.2,1.8,2.3-6.5,57.5-23.1,192-23.3,193.4-.1,1.1-1.1,1.9-2.2,2l-21.3.4-8.3,7.6c-.5,5-4.3,28.5-27.5,35.2-.2,0-.4,0-.6,0"/>
  <path class="st13" d="M825,663.2s0,23.7,3.5,32.2,1.2,18.5,1.2,18.5c0,0-29.7,4.4-65.2,1.6,0,0-.7-7.5,14.5-15.5s12.5-21.2,16.5-36.4c0,0,13.2-4.3,29.5-.4"/>
  <path class="st17" d="M788.9,718.7c-7.6,0-15.9-.3-24.5-1l-1.9-.2-.2-1.9c0-.9-.3-9.3,15.7-17.7,10.3-5.4,11.6-13.5,13.2-23.7.6-3.6,1.2-7.3,2.2-11.3l.3-1.2,1.2-.4c.6-.2,14-4.4,30.7-.4l1.7.4v1.8c0,.2,0,23.3,3.3,31.4,3.7,9.1,1.4,19.4,1.3,19.8l-.3,1.5-1.5.2c-.2,0-17.5,2.5-41.1,2.5M767.2,713.5c20.2,1.4,40.5.9,60.6-1.5.5-2.9,1.1-9.8-1.3-15.7-3.1-7.5-3.6-25.5-3.6-31.3-8.4-1.7-17.1-1.6-25.5.4-.8,3.3-1.3,6.5-1.8,9.6-1.7,10.5-3.2,20.4-15.5,26.9-9,4.7-11.9,9.1-12.8,11.5"/>
  <path class="st13" d="M888.2,662.5c-4.5,1.9-9.5,4.1-15,6.4,0,0,2,17.6-3.9,23.9s-4.5,21.6-4.5,21.6c0,0,3.1.4,22,1.5,10.8.6,28.2-.5,34.3-1.5,0,0,1.2-5.8-3.5-10.9-5.2-5.6-14.3-10.7-13-19.2l-.4-25.6-16,3.8Z"/>
  <path class="st17" d="M886.6,718.2c-5.1,0-9.1-.4-12-.7-1.1-.1-2.1-.2-2.9-.3-1.2,0-2.1-1.1-2.1-2.4s1.1-2.1,2.4-2.1l3,.3c3,.3,6.8.7,11.8.7,10.4,0,20.7-.7,31-2,0-1.4,0-3.6-.8-5.5-.3-.8-2.1-2-3.8-3.1-3.6-2.4-8.5-5.6-10.2-11.8-1.2-4.3-1.2-12.7-.2-25,0-1.2,1.1-2.2,2.3-2.1s2.2,1.1,2.1,2.3c0,0,0,.1,0,.2-1,11.5-.9,19.8,0,23.4,1.2,4.6,5,7.1,8.3,9.3,2.5,1.6,4.6,3,5.5,5.2,1.8,4.4.9,9.3.9,9.5l-.3,1.5-1.5.3c-.5,0-13.4,2.3-33.4,2.3h-.2Z"/>
  <path class="st13" d="M787.2,348.4s42.9-1.3,88.5-8,77.3-18.3,77.3-18.3l-25.2-151.2-14.6-68.4s-24-6.3-71.4-3.6-41,19.1-41,19.1c0,0-10.4,73.3-8,75.7,1.2,1.2-40.7,24.4-36.7,59,4.2,35.7,31.1,95.7,31.1,95.7M787.2,393.5c-2.2,13.3-4.8,32.8-2.9,39.6,5.4,19.4,12.5,30.9,12.5,30.9,0,0,14.1,1.7,17.2-17.3.5-3.2.2-7.2.2-12.7.1-8.1,4.1-26.6,4.1-26.6,0,0,4.8,2.1,6.4,5.4,4.8,10.1,12.4,6.2,12.4,6.2,0,0-2-17.2-13.2-26.8-6.8-5.9-12.4-12.9-16.7-20.7,0,0-5.2-2.3-13.2,4.4"/>
  <path class="st17" d="M797.4,466.3c-.6,0-.9,0-.9,0h-1.1c0-.1-.6-1.1-.6-1.1-.3-.5-7.2-12-12.7-31.4-1.6-5.6-.6-19.3,2.9-40.5.2-1.2,1.4-2,2.6-1.8,1.2.2,2,1.3,1.8,2.5-3.3,20-4.3,33.8-3,38.6,4.4,15.6,9.8,26.1,11.6,29.3,3-.1,11.4-1.7,13.7-15.5.3-1.9.3-4.2.2-7,0-1.8,0-3.5,0-5.3.1-8.2,4-26.3,4.1-27l.6-2.6,2.5,1.1c.6.2,5.7,2.5,7.5,6.5,1.4,2.9,3,4.6,5,5.4,1.1.4,2.1.4,2.9.2-.9-4.5-3.8-16.4-12.2-23.5-6.7-5.8-12.4-12.8-16.8-20.5-1.4-.2-5-.2-10.2,4.2-1,.7-2.4.5-3.1-.5-.6-.9-.5-2.1.2-2.9,8.9-7.5,15.2-4.9,15.5-4.7l.7.3.4.7c0,.1,5.5,10.9,16.2,20,11.7,10,13.9,27.5,14,28.2l.2,1.5-1.4.7c-.2,0-3.7,1.8-7.8.4-3.2-1.1-5.7-3.7-7.6-7.7-.5-1.1-1.7-2.1-2.8-2.9-1.1,5.5-3.3,17.4-3.4,23.2,0,1.9,0,3.6,0,5.2,0,3,0,5.5-.3,7.8-2.9,17.9-15.2,19.2-18.7,19.2"/>
  <path class="st13" d="M842.5,205.4l-51.3,76.9,28.7,90.9-40.2,16.1s-23.5-46.5-29.1-68-17.6-155.6-17.6-155.6c26-30.6,64.2-48.3,89.3-64.4"/>
  <path class="st3" d="M817.3,210.6s8.4,47.8,11.1,80.4c3.3,39.8-14.9,60.6-14.9,60.6l6.4,21.6-32.7,12.9s-24.4-49.4-27.1-62.7c-4.5-21.8-18-155.2-18-155.2,28.7-28.7,65.2-46.3,90.3-62.5"/>
  <path class="st13" d="M951.4,227.2l8.8,146.7-13.5,5.6s-47-23.1-71-94.9c-23.9-71.8-32.7-174.6-32.7-174.6h-21.5l-14.7,42.1s14.4,71.3,19.5,119c2.3,21.5,3.4,37.8-.8,52.6-2.9,10.4-7.1,20.8-11.4,27.9"/>
  <path class="st17" d="M814,353.8c-1.2,0-2.2-1-2.2-2.2,0-.4.1-.8.3-1.2,4.9-8,8.6-16.7,11.2-25.7,3.8-13.5,4-28.4.7-53.3-5.7-43-12.8-85.7-21.5-128.2-.3-1.2.4-2.4,1.6-2.7,1.2-.3,2.4.4,2.7,1.6,0,0,0,0,0,.1.1.6,12.3,58,21.6,128.5,2.8,21.3,3.7,38.8-.9,55.1-2.7,9.4-6.6,18.4-11.7,26.8-.4.7-1.1,1.1-1.9,1.1"/>
  <path class="st17" d="M778.6,392.1l-.9-1.8c-.9-1.8-22.7-43.9-28.2-65.4-5.6-21.5-18.2-153.4-18.7-159v-.9c0,0,.5-.7.5-.7,5.1-6,12.8-12.2,19.5-17.6,2-1.6,3.9-3.1,5.6-4.5.9-.8,2.3-.8,3.1.2.8.9.8,2.3-.2,3.1,0,0,0,0-.1.1-1.7,1.4-3.6,3-5.6,4.6-6.3,5.1-13.4,10.8-18.3,16.3,1.2,12.2,13.2,137.2,18.5,157.4,4.8,18.6,22.7,54.3,27,62.7l36.5-14.6-28.2-89.2v-.4l.4-46.6c0-1.2,1-2.2,2.2-2.2h0c1.2,0,2.2,1,2.2,2.2,0,0,0,0,0,0l-.4,46.3,29.2,92.5-44,17.7Z"/>
  <path class="st13" d="M945.3,409.9l-5.1-4-.4-20.4,6.7-19.7,9.6-22.9,21.7,3.8"/>
  <path class="st13" d="M976,328.1l5.8,51.8-6.2,24.1-10.9,20.2-7.4,3.9c-4,2.1-11.2,1.6-11.2,1.6l.8-22.5.8-15.1"/>
  <path class="st17" d="M951.3,432.5c-4,0-5.8-.6-6-.7l-1.5-.6.8-24.1.8-15.2c0-1.2,1-2.2,2.2-2.2s2.2,1,2.2,2.2c0,0,0,.1,0,.2l-.8,15.1-.7,20.6c1,.1,2.6.2,4.8.1,3.5-.2,8.1-3.7,9.8-5.2.9-1.3,6.7-9.6,10.5-19.5s5.7-21.4,6-23.3l-2.2-18.9c-.2-1.2.6-2.4,1.8-2.6s2.4.6,2.6,1.8c0,.1,0,.2,0,.3l2.3,19.5v.3c-.1.5-2.1,13.3-6.4,24.5-2.9,7.3-6.6,14.3-11.1,20.7l-.3.3c-.7.6-7,6.3-12.8,6.6-.8,0-1.5,0-2.1,0"/>
  <path class="st17" d="M945.3,412.1c-.5,0-1-.2-1.4-.5l-5.9-4.7-.4-21.9,6.9-20.2,10.3-24.5,23.5,4.1c1.2.2,2.1,1.3,1.9,2.5-.2,1.2-1.3,2.1-2.5,1.9,0,0-.1,0-.2,0l-20-3.5-8.9,21.2-6.6,19.2.3,19,4.2,3.4c1,.8,1.1,2.2.4,3.1-.4.5-1.1.8-1.7.8"/>
  <path class="st13" d="M901.4,100.9c7.5.8,15.1,1.9,22.6,3.1,0,0,50.4,71.2,61.8,130.1,11.4,59,9.5,119.9,9.5,119.9l-46.2-1.5s-8.8-98.9-8.8-101.2-34.3-90.1-34.3-90.1"/>
  <path class="st3" d="M986.9,239c-9.8-56.4-56.9-126.2-56.9-126.2,0,0-40.2-7.1-85.6-5.9,0,9.5,10.4,115.2,31.2,177.8,23.9,71.8,65.4,90.6,65.4,90.6l8.7-22.8,9.1.3,36.4,1.1s2.5-52.8-8.3-114.9"/>
  <path class="st17" d="M997.3,356.1l-50.4-1.6-.2-2c-.9-10-8.5-95.9-8.8-101.2-.9-3.9-20.9-55.5-34.1-89.5-.5-1.1,0-2.4,1-3,1.1-.5,2.4,0,3,1,0,.1.1.2.1.4,15.7,40.2,34.4,88.6,34.4,90.9,0,2.4,6.1,70.5,8.6,99.1l42,1.3c.3-10.1.8-54.4-8.2-108.3-5.3-31.8-22-67.6-35.2-92.1-8.3-15.5-17.3-30.6-27-45.2-3.1-.5-13.2-2-21.5-2.9-1.2-.2-2-1.4-1.8-2.6.2-1.1,1.1-1.8,2.2-1.8,7.6.8,15.1,1.9,22.7,3.1l.9.2.5.8c.1.2,13.4,19.6,27.8,46.4,13.3,24.8,30.3,61.1,35.7,93.5,10.3,61.7,8.2,110.9,8.2,111.4v2.2ZM938,251.2v.2-.2ZM942.5,379.2c-.4,0-.8-.1-1.2-.3-13.8-8.5-48.2-34.7-67.8-93.6-23.7-71.2-30.5-165.1-30.6-166.1-.2-1.2.7-2.3,1.9-2.5s2.3.7,2.5,1.9c0,0,0,.2,0,.3,0,.9,6.8,94.3,30.3,165,19.2,57.4,52.5,82.9,65.9,91.2,1,.7,1.4,2,.7,3.1-.4.6-1.1,1-1.9,1"/>
  <path class="st17" d="M800,114.3c-1.2,0-2.2-1-2.2-2.2,0-.7.4-1.4,1-1.8,10-6.4,17.7-10.2,23-11.1,26.2-4.9,61.3-2.4,79.8-.4,1.2,0,2.2,1,2.2,2.3s-1,2.2-2.3,2.2c-.1,0-.3,0-.4,0-18.3-1.9-52.9-4.4-78.5.4-4.7.9-12.1,4.5-21.5,10.5-.4.2-.8.4-1.2.3"/>
  <path class="st13" d="M835,109.3l4.8-5.6s-.8-23.1-5.6-24.7-8,.8-8,.8c0,0-1.6-21.2-21.4-27.5-24.3-7.8-46.6,11.3-49.1,27.9-3.6,23.3,13.9,51.4,13.9,51.4,0,0,8,14.4,19.9,20.7,5.9,3.2,16.3,8.6,26.3,5.6,10.2-3.1,18.6-15,20.3-22.4,1.5-6.7.2-12.9-.3-17.1"/>
  <path class="st17" d="M809.7,161c-8.6,0-16.5-4.2-21.2-6.7-12.2-6.5-20.2-20.4-20.8-21.6-1.1-1.7-17.9-29.3-14.2-52.9,1.5-9.5,8.5-19.2,18.5-25.3,10.4-6.4,22.3-8,33.5-4.4,16.3,5.2,21.1,20.1,22.5,26.5,1.7-.5,4.1-.7,6.9.3,5.4,1.8,6.8,17.5,7.1,26.7v.9s-5.3,6.2-5.3,6.2c-.8.9-2.2,1.1-3.1.3-.9-.8-1.1-2.2-.3-3.1,0,0,0,0,0,0l4.2-4.9c-.5-11.7-2.5-20.9-4.1-21.8-3.5-1.2-5.8.4-5.9.5l-3.2,2.3-.3-3.9c0-.8-1.8-19.8-19.8-25.6-10-3.2-20.6-1.8-29.9,4-8.7,5.4-15.2,14.1-16.4,22.2-3.5,22.2,13.5,49.6,13.6,49.9h0c0,.2,7.8,13.9,19,19.9,5.4,2.9,15.4,8.2,24.6,5.4,9.3-2.8,17.2-14,18.8-20.7,1.2-5.3.5-10.2,0-14.2l-.3-2.1c0-1.2.9-2.3,2.1-2.3,1.1,0,2.1.7,2.3,1.8l.3,2c.6,4.1,1.4,9.7,0,15.8-1.8,7.7-10.5,20.6-21.8,24-2.3.7-4.6,1-6.8,1"/>
  <path class="st17" d="M815.1,152.8c-.7,0-1.3-.6-1.3-1.4,0-.5.3-.9.7-1.2,3.7-1.7,5.9-3.7,7.2-5.4-9.5,5.1-20.3,6.3-20.9,6.3-.7,0-1.4-.4-1.4-1.2,0-.7.4-1.4,1.2-1.4.1,0,14-1.5,23.6-8.3.6-.4,1.4-.3,1.8.3.2.3.3.7.2,1,0,.3-1.3,6.8-10.6,11.1-.2,0-.4.1-.5.1M774.1,135.9c-6.7,0-11.1-.9-11.4-.9-.6-.1-1-.6-1-1.1l-2.1-18.6c0-.7.4-1.4,1.2-1.5.7,0,1.4.4,1.5,1.2h0l2,17.6c8.4,1.2,16.9.9,25.2-.9.7-.2,1.4.3,1.6,1s-.3,1.4-1,1.6c-5.2,1.1-10.5,1.7-15.9,1.7"/>
  <path class="st17" d="M811.1,137.5c-4,0-8.6-1.6-13.4-5.6-2.5.9-4,1.3-5.9,1.8l-1.8.5c-.7.2-1.4-.2-1.6-.9-.2-.7.2-1.4.9-1.6h0l1.8-.5c2.2-.6,4.4-1.3,6.6-2.1l.8-.3c5-1.8,11.8-4.5,20.4-8.7.6-.3,1.4,0,1.8.6,0,0,0,.1,0,.2.1.4,3.3,9.4-1.5,13.8-2,1.8-4.8,2.9-8.1,2.9M800.6,130.8c7.1,5.3,13.5,4.8,16.8,1.8,2.6-2.4,1.8-7.1,1.2-9.5-5.9,2.9-11.9,5.4-18.1,7.7"/>
  <path class="st17" d="M779.3,145.6c-1.1,0-2.2,0-3.3-.3-4-.7-9.7-3.2-14.2-10.9-.4-.6-.2-1.4.5-1.8.6-.4,1.4-.2,1.8.5,3.1,5.4,7.4,8.7,12.4,9.6,4.8.9,9-.7,10.6-2,3.3-2.6,2.2-7,2.2-7.2-.2-.7.3-1.4,1-1.6.7-.1,1.4.3,1.6.9,0,.2,1.5,6.2-3.1,9.9-1.9,1.5-5.4,2.9-9.5,2.9M819.5,122.6c-.7,0-1.3-.6-1.3-1.3,0-.1,0-.3,0-.4,1.5-4.9,5.6-18.2,5.8-21.2.4-7.2.2-19.8.2-20,0-.7.5-1.3,1.3-1.3,0,0,0,0,0,0,.7,0,1.3.6,1.3,1.3,0,.1.3,12.9-.2,20.2-.2,3.9-5.7,21.1-5.9,21.8-.2.6-.7.9-1.3.9"/>
  <path class="st17" d="M828.1,134.5c-.1,0-.3,0-.4,0-.7-.2-1.1-1-.8-1.6,0,0,0,0,0,0,0-.1,4.8-14.8-1.5-30.1-1.2-3-2.3-5.6-3.3-8.1-1.7-4.2-3.3-8.2-5.6-13.5-1.8-4.3-4.3-7-7.2-8.1-2.3-.8-4.9-.6-7,.5-2.8,1.4-5.2,4.5-7.3,7.7-.3.4-.6.9-.9,1.3-1.7,2.6-3.7,5.6-6.2,7.6-5.5,4.4-13.2,3.8-18.5-1.4-1.4-1.4-2.6-1.9-3.8-1.8-2,.3-3.2,2.7-3.2,2.7-.3.6-1.1.9-1.8.6s-.9-1.1-.6-1.8c0-.2,1.9-3.6,5.2-4.1,2-.3,4,.5,6,2.5,4.2,4.2,10.5,4.7,15,1.2,2.2-1.8,4-4.5,5.6-7l.9-1.4c2.3-3.5,5-6.9,8.4-8.6,1.4-.7,5-2.1,9.1-.6,3.6,1.3,6.6,4.6,8.7,9.6,2.3,5.3,3.9,9.3,5.6,13.6,1,2.5,2,5.1,3.3,8,6.7,16.2,1.8,31.3,1.6,32-.2.6-.7.9-1.2.9"/>
  <path class="st13" d="M761.7,189s16.7,28.7,29.9,46.6l-29.9-46.6Z"/>
  <path class="st17" d="M791.5,237.8c-.7,0-1.3-.3-1.8-.9-13.1-17.8-29.9-46.6-30-46.8-.7-1-.4-2.4.6-3.1,1-.7,2.4-.4,3.1.6,0,0,0,.2.1.2.2.3,16.8,28.8,29.8,46.4.7,1,.5,2.4-.5,3.1-.4.3-.8.4-1.3.4M805.5,461.6c-.6,0-1.2-.4-1.3-1.1-1.9-10.1-3-32.4-3.1-33.4,0-.7.5-1.3,1.2-1.4s1.3.5,1.4,1.2h0c0,.2,1.2,23.1,3,33,.1.7-.3,1.4-1.1,1.5,0,0-.2,0-.2,0M800.2,464c-.5,0-1.1-.4-1.2-.9-3.1-9.6-6.6-31.1-6.7-32-.1-.7.4-1.4,1.1-1.5.7-.1,1.4.4,1.5,1.1,0,.2,3.6,22.2,6.6,31.6.2.7-.2,1.4-.9,1.7-.1,0-.3,0-.4,0M776.5,295.9c-.7,0-1.3-.5-1.3-1.3,0-.6.4-1.1.9-1.3l15.5-5.4c.7-.2,1.4.1,1.7.8.2.7-.1,1.4-.8,1.7l-15.5,5.4c-.1,0-.3,0-.4,0M766,292c-.7,0-1.3-.6-1.3-1.3,0-.6.5-1.2,1.1-1.3l15.4-2.9c.7-.1,1.4.3,1.5,1.1.1.7-.3,1.4-1.1,1.5l-15.4,2.8h-.2ZM954.3,429c-.7,0-1.3-.6-1.3-1.3,0-.1,0-.2,0-.4l4.2-17,1.9-17c0-.7.7-1.2,1.5-1.2.7,0,1.2.7,1.2,1.5h0l-1.9,17.1c0,0,0,.1,0,.2l-4.2,17.1c-.1.6-.7,1-1.3,1M962.8,426.7c-.7,0-1.3-.6-1.3-1.3,0-.1,0-.2,0-.4,2.1-7.1,8.9-30.2,9.4-31.3.3-.7,1.1-.9,1.8-.6.7.3.9,1.1.6,1.8-.5,1.2-5.8,19.1-9.2,30.9-.2.6-.7.9-1.3.9"/>
  <path class="st16" d="M813.9,130.1c.8-.5.8-1.9,0-3.1s-2-1.7-2.9-1.2c-.8.5-.8,1.9,0,3.1.8,1.2,2,1.7,2.8,1.2"/>
  <path class="st13" d="M1067.9,593c19.8-9.3,56.6-35.5,44.2-61.7-7.1-15-26.5-14-34.5-8.5-8.4,5.7-11.4,17.1-11.4,17.1,0,0,1.8,5.3,8.3,4.3,6.4-1,14.4-10.5,16.7-3.5,3.1,9.5-18.2,37-42.6,41.7,0,0-38.3-19.8-69.6-17.4-18,1.3-45.8,6.2-58.2,8-7.5,1.1-14.9,2.6-20.1.9-4.9-1.6-24.1-14-28.8-18-14.2-11.8-24.8-10.3-24.8-10.3l-20.5-8.4,6.6,16.9-11.4,14.5s-4.6,15.6.5,23.7,13.1,14.1,13.1,14.1c0,0,9.1,1.8,15.3-.8s8.5-5.6,8.5-5.6l5.8,12s-2.3,14,1.2,26.9c2.1,7.7,4.8,13.5,3.1,23.2-2.3,12.8-22,48.5-22,48.5,0,0-6.1,1.5-9,3.4-3,1.8-4.1,8-4.1,8,0,0,14.2,2.1,18.9.3,4.7-1.8,7.8-6,7.8-6l17.5-25.9,24.6-37.2M998.1,655c.8,1,4.1,9,5,10.2,4.6,5.5,9.3,10.9,14,16.3,0,0,1.2,5.8-2.7,15.1s-9,14-9,14c0,0-2.8-.9-8.2,0s-6.2,9.4-6.2,9.4c0,0,5.9,1.9,17.6.4,5.8-1.5,13.8-12.5,20.6-21.5,6.7-8.9,10.7-20.4,10.7-20.4l-13.8-33"/>
  <path class="st17" d="M1000,723.2c-6.2,0-9.5-1-9.7-1.1l-1.7-.6.2-1.8c0-.4,1.2-10.2,8-11.4,3.7-.6,6.3-.5,7.8-.2,3.3-3.6,5.9-7.8,7.7-12.4,2.9-6.9,2.8-11.8,2.7-13.3-1.7-1.9-7.7-8.8-13.6-15.8-.6-.8-1.4-2.4-3-6-.6-1.5-1.3-2.9-2-4.3-.8-.9-.6-2.3.3-3.1,1-.8,2.4-.6,3.2.3.5.6,1.2,1.9,2.6,5.2.8,1.8,2,4.5,2.4,5,6.8,8.1,13.8,16.2,13.9,16.2l.4.4v.6c.2.3,1.4,6.6-2.7,16.4-4,9.7-9.4,14.6-9.6,14.8l-.9.8-1.2-.4s-2.5-.7-7.1,0c-2.2.4-3.4,3.3-4,5.6,2.5.4,7.4.9,14.6,0,4.8-1.4,12.2-11.3,18.2-19.2l1-1.4c5.4-7.2,9.1-16.3,10.1-19l-3.9-8.9c-.5-1.1,0-2.4,1.2-2.9,1.1-.5,2.4,0,2.9,1.1,0,0,0,0,0,0l4.6,10.5-.3.8c-.2.5-4.2,12-11.1,21l-1,1.4c-7.1,9.5-14.5,19.2-20.7,20.9h-.3c-3.4.5-6.4.7-8.9.7"/>
  <path class="st17" d="M898,662.4c-1.2,0-2.2-1-2.2-2.2,0-.4.1-.9.4-1.2l5.4-7.9.7-.2c.3,0,28.6-9.2,69.4-9.2s39.3,8.5,40,8.9c1.1.6,1.5,2,.9,3-.5,1-1.7,1.4-2.8,1-.2,0-17.7-8.4-38.1-8.4-36.5,0-62.8,7.4-67.3,8.8l-4.6,6.6c-.4.6-1.1,1-1.8,1M797.2,148.2c-.7,0-1.4-.1-2-.4-.9-.4-1.9-1.4-2-3.7-.2-6.6-2.3-9.6-2.3-9.6-.4-.6-.3-1.4.3-1.8.6-.4,1.4-.3,1.8.3,0,0,0,0,0,0,0,.1,2.6,3.5,2.8,11.1,0,1.1.4,1.4.6,1.4,1.3.7,4.9-.9,7-2.2.6-.4,1.4-.1,1.8.5.3.6.2,1.3-.4,1.7-.8.5-4.5,2.8-7.6,2.8"/>
  <path class="st16" d="M808.7,128.9c-.5,0-.8-.4-.8-.8,0-.2,0-.3.1-.4.9-1.4,3.6-3.7,7.1-2.1.4.2.6.7.4,1.1-.2.4-.7.6-1.1.4-3.1-1.4-5,1.4-5.1,1.5-.2.2-.4.4-.7.4M790,137.9c.8-.5.8-1.9,0-3.1s-2-1.7-2.9-1.2c-.8.5-.8,1.9,0,3.1.8,1.2,2,1.7,2.9,1.2"/>
  <path class="st16" d="M784.8,136.4c-.5,0-.8-.4-.8-.8,0-.2,0-.4.2-.5,1.1-1.4,4.2-3.5,7.6-1.6.4.2.6.7.4,1.1-.2.4-.7.6-1.1.4,0,0,0,0,0,0-3.1-1.7-5.5,1.1-5.6,1.2-.2.2-.4.3-.6.3"/>
  <path class="st17" d="M797.5,128.1c-.7,0-1.3-.6-1.3-1.3,0-.5.3-.9.7-1.1.4-.2,8.9-4.6,19.2-7.5.7-.2,1.4.2,1.6.9.2.7-.2,1.4-.9,1.6h0c-10.1,2.9-18.7,7.3-18.8,7.3-.2.1-.4.1-.6.1M771.3,135.7c-.7,0-1.3-.6-1.3-1.4,0-.5.3-1,.8-1.2.3-.1,7.7-2.9,18.5-4.6.7,0,1.4.5,1.4,1.2,0,.6-.4,1.2-1,1.4-10.5,1.6-17.9,4.4-18,4.4-.1,0-.3,0-.5,0M940.2,252.5c-.7,0-1.4-.5-1.4-1.2,0-.7.5-1.4,1.2-1.4l23.3-3.1c.7-.1,1.4.4,1.5,1.1s-.4,1.4-1.1,1.5l-23.3,3.1c0,0-.1,0-.2,0M951.1,244.7c-.7,0-1.3-.5-1.4-1.2,0-.7.4-1.3,1.1-1.4l16.3-3.9c.7-.2,1.4.3,1.6,1,.2.7-.3,1.4-1,1.6l-16.3,3.9h-.3ZM827.7,347.7c-1.2,0-2.2-1.1-2.1-2.3,0-1.1.9-2,2-2.1.4,0,40.2-2.4,71.5-8.9,1.2-.2,2.3.7,2.5,1.9.2,1.1-.5,2.2-1.6,2.5-31.6,6.5-71.7,8.9-72.1,9h-.1Z"/>
  <path class="st13" d="M911.9,636.8c2.2,4.3,17.2,33.5,19.7,39.6,1.2,3.2,2.2,6.4,2.9,9.7,2.8,12.5,2.8,25.6,2.8,25.6,0,0-5.4.5-7.4,2.7s-2.2,8-2.2,8h18l5.8-7.2s3.2-63.1-.8-87.7M828,556.8l-3-3.8s-13.1,7.2-4.7,21.7"/>
  <path class="st17" d="M820.4,577c-.8,0-1.5-.4-1.9-1.1-3-5.1-3.9-10-2.6-14.5,1.9-6.8,7.8-10.1,8.1-10.2l1.6-.9,4.2,5.3c.8.9.7,2.3-.2,3.1-.9.8-2.3.7-3.1-.2,0,0-.1-.1-.1-.2l-1.7-2.2c-2.1,1.7-3.7,3.9-4.5,6.5-.9,3.3-.2,7,2.2,11.1.6,1.1.3,2.4-.8,3-.3.2-.7.3-1.1.3M548,484.3c-3.1,0-6.7-.4-10.7-1.6-11.3-3.2-20-11.9-20.4-12.3l-.2-.2c-.2-.3-5.3-7.2-1-13,2.8-3.7,8-5.2,14.3-4.1,6.6,1.1,14.5,5.2,16.3,10.6,1.4,4.4,11.5,9.3,17.6,11.4l3.5,1.2-2.7,2.5c-.3.3-6,5.5-16.7,5.5M520.2,467.5c1.1,1,8.8,8.3,18.3,11,9.6,2.7,16.2,1,19.9-.8-5.5-2.3-14.4-6.9-16.2-12.6-.9-2.7-6.3-6.5-12.8-7.6-2.2-.4-7.6-.9-10.1,2.4-2.1,2.8.4,6.8.9,7.5M510.2,663.4h-100c-1.2,0-2.2-1-2.2-2.2s1-2.2,2.2-2.2h100c1.2,0,2.2,1,2.2,2.2s-1,2.2-2.2,2.2h0M647.3,663.4h-28.2c-1.2,0-2.2-1-2.2-2.2s1-2.2,2.2-2.2h28.2c1.2,0,2.2,1,2.2,2.2s-1,2.2-2.2,2.2h0M779,663.4h-69.6c-1.2,0-2.2-1-2.2-2.2s1-2.2,2.2-2.2h69.6c1.2,0,2.2,1,2.2,2.2s-1,2.2-2.2,2.2h0M860.5,663.4h-7.2c-1.2,0-2.2-1-2.2-2.2s1-2.2,2.2-2.2h7.2c1.2,0,2.2,1,2.2,2.2s-1,2.2-2.2,2.2h0"/>
  <path class="st13" d="M179.8,720.6h0c-63.9-.9-68.7-3-70.7-3.9-2.9-1.2-4.9-4-5.1-7.1-.7-8.9,11.9-17.8,17.3-21.2,9.6-6.1,23-11.6,28.3-13.6,4-8.5,18.9-38.2,39.9-52l1.9-1.2c26-16.2,67.9-19.2,74.7-19.5l25.2-8.9c.1,0,14-5,22.6-11.1,6.6-4.6,10.1-10.3,12.2-13.6.5-.7.9-1.4,1.2-1.9,5.8-8.6,7.5-14.1,8-16.1l-2-6.4,1.2-2.2c.4-.7,8.8-16.3,22.2-27.2,15-12.2,42.2-5.4,53.3,1.8,7.7,5,13.8,13.2,16.2,16.9,3.8,1.2,7.4,2.2,10.6,3.2,11.8,3.4,17.7,5.1,19.5,10.4,2.5,7.2-5,19.2-7.5,23.1-3,4.7-8.2,8.2-12.3,10.3,2.2,5.5,2.3,11.1-2.3,14.4-4.6,3.3-11.9,2.8-22.6,1.7-2.2-.2-4.2-.4-6.1-.5-3.2,1-11.1,11.5-16.8,22.3l-.2.5-21.6,27.4,24.9,31.2c2,2.5,1.6,6.2-.9,8.2s-6.2,1.6-8.2-.9l-30.6-38.4,26.6-33.9c.9-1.7,4-7.3,8-13,7.5-10.7,13.4-15.3,19.3-15,2.1.2,4.4.4,6.8.6,3.7.4,10,1,13.3.7-.6-1.7-1.4-3.3-2.4-4.8l-4.2-6.3,7.2-2.5c3.6-1.2,10.2-4.5,12.5-8.2,3.8-6,5.5-10.3,6-12.3-2.3-1-7.1-2.4-11.4-3.7-3.8-1.1-8.1-2.3-12.9-3.9l-2.1-.7-1.1-1.9c0,0-6.1-10-13.9-15-8.1-5.3-29.9-10.4-39.6-2.5-8.9,7.2-15.5,17.3-18.1,21.6l1.2,3.9v1c-.1,1.4-1,9.1-10.2,22.7-.3.4-.6.9-1,1.5-2.4,3.9-6.8,11-15.4,17-10,7-24.8,12.3-25.5,12.5l-26.8,9.5h-.9c-.5,0-44.8,2.1-69.9,17.9-.6.3-1.1.7-1.6,1-21.2,13.9-36.5,48.8-36.7,49.2l-1,2.3-2.3.9c-.2,0-17.4,6.5-28.4,13.4-5.1,3.2-8.4,6.3-10.2,8.4,6.1.7,22,1.8,62.7,2.4,3.2.2,5.7,2.9,5.6,6.1-.1,3-2.6,5.5-5.6,5.6"/>
  <path class="st13" d="M406.1,697l-111-13.2,8.1-95.7,2.8-1.7c3-1.8,5.3-3.3,7.4-4.8.4-.3,6.1-4.8,13.3-15.4,5.6-8.3,7.4-13.7,7.9-15.7l-2-6.5,1.3-2.4c.4-.7,8.9-16.4,22.3-27.4,15.2-12.4,42.8-5.5,54,1.7,7.7,5,13.7,13.1,16.3,16.9,3.8,1.2,7.2,2.2,10.4,3.1,11.6,3.4,18,5.2,19.9,10.8.6,1.8,2.6,7.5-7.6,23.6-2.9,4.7-7.9,8-12.1,10.2,2.8,7.2.7,12.2-2.8,14.7-5.1,3.6-13.8,2.8-23,1.8-2.1-.2-4.1-.4-5.9-.5-1.8.8-6.4,5.4-12.5,15.2l2.2,3.4c6.1,9.5,9.5,28,9.9,30v.4c0,0,0,.4,0,.4,0,1.3,1.4,32.4,1.2,44v7.1ZM308.9,672.5l84.4,10c-.2-12.8-1-32.5-1.1-35.7-.7-3.6-2.3-11.1-4.5-17.4l-3.6-7.3c-1.1-2.2-2.4-4.3-3.9-6.2l-2.7-3.4,2.2-3.8,1.4-2.3-3.1-18,7.3,11.4c10.1-14.8,16.4-16.4,20.5-16.2,2.1.1,4.4.4,6.8.6,3.4.3,9.1.9,12.4.7-.6-1.4-1.3-2.7-2.1-3.9l-4.7-7,7.9-2.7c3.5-1.2,10-4.5,12.1-7.9,3.5-5.5,5.2-9.5,5.9-11.7-2.4-1-6.9-2.3-10.9-3.4-3.8-1.1-8.1-2.3-12.9-3.9l-2.3-.7-1.2-2.1c0,0-6-9.9-13.7-14.8-8-5.2-29.4-10.3-38.9-2.5-8.7,7.1-15.2,16.9-17.8,21.2l1.2,3.8v1.2c-.1,1.4-1,9.3-10.3,23-8.7,12.8-15.6,18.1-16.4,18.6h-.1c-1.6,1.2-3.3,2.3-5.3,3.6l-6.5,76.9Z"/>
  <path class="st13" d="M371.7,698.5c0-1.5,27.5-.3,27.5-2.6,0-20.3-1.2-69.2-14.7-85l-59.9-24.2-33.6,16"/>
  <path class="st13" d="M400,678.2c.1-8.7-1.4-32.1-1.4-32.1,0,0-3.3-18.9-8.9-27.7"/>
  <path class="st17" d="M400,680.4h0c-1.2,0-2.2-1-2.2-2.2,0,0,0,0,0,0,.1-8.2-1.3-29.9-1.4-31.8-.3-1.6-3.5-18.8-8.6-26.7-.6-1.1-.3-2.4.8-3,1-.6,2.3-.3,2.9.6,5.8,9,9.1,27.7,9.2,28.5v.2c0,1,1.6,23.6,1.5,32.3,0,1.2-1,2.2-2.2,2.2h0"/>
  <path class="st13" d="M313.1,588.2s-27.2,14-43.7,17.6-49.7,3.9-76.8,21.7c-22.9,15.1-38.8,51.7-38.8,51.7,0,0-17.8,6.6-29.5,14-11.9,7.6-17.6,16-12.9,18.1,7.5,3.3,91.1,3.6,91.1,3.6v-5.7c0,0,2.6,2.1,16,2.6s57.4.5,57.4.5l14-.5-2.1-7.8,50.7,3.1s42.4,5.2,78.6,0c11.5.2,40.1,9.2,51.8,9,3.9,0,10.5-1.2,14.4-5,5.9-5.9,8.1-15.3,8.1-15.3l-26.1-3.7s-17.6-2.6-27.9-3.1-47.2-4.4-47.2-4.4"/>
  <path class="st13" d="M368.9,626.1s15.1-15.1,21.6-23.2,6.5-13.5,14.9-13,21.1,2.8,25.2,0-2.4-12.5-2.4-12.5c0,0,11.2-3.8,15.5-10.6,6.7-10.6,7.6-19.5,7.6-19.5,0,0-13.2-3.9-29-9,0,0-6.6-11-15.7-16.9-9-5.9-33.8-12.4-46.4-2.2-12.6,10.3-20.7,25.4-20.7,25.4l-.3,5.9s-2.2,9.3-8.5,18.2c-10.2,14.4-15.5,20.5-15.5,20.5"/>
  <path class="st17" d="M490,701.9c-1.2,0-2.2-1-2.2-2.2,0-.3,0-.6.2-.9.2-.4.3-.7.5-1.1l-23.6-3.3-27.9-3.1c-7-.8-14.1-1.4-21.1-2-1.2,0-2.2-1-2.3-2.2,0-1.2,1-2.2,2.2-2.3.1,0,.3,0,.4,0,.1,0,9.9.8,21.3,2l27.9,3.1,28.4,4-.3,2.2c0,.2-.3,1.8-1.5,4.5-.4.8-1.1,1.3-2,1.3"/>
  <path class="st9" d="M198.8,705.3c-4.6-3.8-14-10.1-14-10.1,0,0,46.2-2.3,78.8-10.5,12.1-3,18.5-7.1,18.6-11.8,27.5-.8,33.1-4,39.2-14.4,8.1-14,18.5-8.2,18.2-19.4,0-1.7-1-5.9-2.1-10-3.7-11.2-9.1-22.6-12.7-29.6l21.3,22.5s10.7,11.7,12.2-16.6,15.9-17.6,20.1-24.4c6.7-10.6-12.5-43.2-12.5-43.2,0,0,1.2-11.6,16.4-6.9,2.8.9,8.6-3.7,9.4-6.5s-11.3-11.1-23.9-.8-20.7,25.4-20.7,25.4l-2.5,10.7s-1.6,15.2-22.5,31.8c-21.7,17.3-54.3,23.9-54.3,23.9,0,0-43.4,1.2-67.1,16.6-23,15-38.8,51.7-38.8,51.7,0,0-17.8,6.6-29.5,14-11.9,7.6-25.8,11.5-21.1,13.6,7.5,3.3,91.1,3.6,91.1,3.6v-5.7c0,0,.9.7,4.3,1.4-2.9-1.3-5.3-3.2-7.9-5.4M275.9,712.4l14-.5s-11.1.3-25,.5h11ZM314.6,705.7l23.8,1.5s7.8.1,19.9-.3c-14.7-.2-30.1-.6-43.8-1.1"/>
  <path class="st17" d="M379,583.4h-.8c-5.1-.9-29.5-18.3-34.3-21.8l-.5-.4-5.9-15.7c-.4-1.1.1-2.4,1.3-2.9,1.1-.4,2.4.1,2.9,1.3,0,0,0,0,0,0l5.4,14.5c12.7,9.2,27.1,18.8,31.1,20.3l8.7-5.7c-2.8-8.5-6-16.8-9.3-25.1-5.7-13.8-1.9-24.6-1.7-25,.3-1.2,1.6-1.9,2.7-1.5s1.9,1.6,1.5,2.7c0,.1,0,.2-.1.3,0,0-3.4,9.7,1.6,21.8,3.6,8.9,6.9,17.9,10,27.1l.5,1.6-13.1,8.5ZM289.8,714.1c-1.1,0-2.1-.8-2.2-2,0-.1-1.4-11.4-9-14.1l-16.9-2.3c-1.2-.2-2.1-1.3-1.9-2.5.2-1.2,1.3-2.1,2.5-1.9l17.5,2.4c10.5,3.5,12.2,17.3,12.2,17.9.1,1.2-.7,2.3-2,2.4,0,0-.2,0-.2,0"/>
  <path class="st17" d="M235.5,698.3c-1.2,0-2.2-1.1-2.1-2.3,0-1.1.9-2,2-2.1,19.6-.6,48.9-5.8,52.9-15.7,5-12.6,4.1-21.7-2.9-26.9-14.1-10.6-45.6-16.1-54-16.1s-2.2-1-2.2-2.2,1-2.2,2.2-2.2c7.9,0,41.1,5.3,56.7,17,8.8,6.6,10.2,17.4,4.3,32.1-5.4,13.4-39.5,18-56.8,18.5h0ZM468.8,718.9c-1,0-2.1,0-3.3-.2-16.9-1.8-45-8.4-48.5-9.3-3.6.4-31.5,3.2-56,1.7-1.2,0-2.2-1.1-2.2-2.3,0-1.2,1.1-2.2,2.3-2.2,0,0,0,0,.1,0,25.7,1.5,55.4-1.7,55.7-1.7h.4s.4,0,.4,0c.3,0,30.6,7.4,48.3,9.3,11.4,1.2,16.1-5.1,17.8-8.3-5-1.9-10.2-3.4-15.4-4.5-4.7-1-8.6-1.7-12-2.2-4.2-.7-8.3-1.5-12.5-2.4-4.1-1-8.1-2.2-12-3.7-3.8-1.4-7.1-2.6-11.9-3.2-3.4-.5-14.2-1.4-20.8-1.9-8.2-.6-14.4-1.3-14.4-1.3l-2-.2v-2c0-.2.6-14.9-.4-23.5,0-1.2.9-2.3,2.1-2.3,1.1,0,2.1.7,2.3,1.8.8,7,.7,17.6.6,22.1,2.4.2,6.9.7,12.2,1.1,5.2.4,17.2,1.4,21.1,2,5.2.7,8.9,2.1,12.8,3.5,3.3,1.2,6.6,2.4,11.5,3.5,4.3,1,8,1.7,12.2,2.4,3.5.6,7.4,1.3,12.2,2.3,6.3,1.3,12.4,3.1,18.3,5.6l1.8.8-.5,1.9c-3,8.4-11.1,13.9-20,13.5M424.6,586.5c0,0-.1,0-.2,0-.6,0-14.8-2.4-20.2-5.3-1.4-.6-2.3-1.9-2.5-3.4-.5-3.7,4-8,4.5-8.4.5-.5,1.3-.5,1.8,0,0,0,3.7,3.7,9.6,4.9,5.8,1.2,12.4.3,16.9-2.2.7-.3,1.4,0,1.8.6.3.6,0,1.3-.5,1.7-6.1,3.4-13.6,3.5-18.7,2.5-4.9-1-8.4-3.4-10-4.7-1.4,1.5-3,3.8-2.8,5.3,0,.4.2.9,1.2,1.5,5,2.7,19.2,5,19.3,5,.7,0,1.2.7,1.1,1.5,0,.7-.7,1.2-1.3,1.2"/>
  <path class="st17" d="M204.6,717.2h-2.2c-8.6,0-84.3-.4-91.9-3.8-1.7-.7-2.8-2.3-2.9-4.1-.4-5.7,8.1-13.2,15.6-17.9,10.4-6.6,25.2-12.4,29-13.8,1.2-2.6,4.9-10.4,10.6-19.6,9.2-14.9,18.9-25.8,28.7-32.2,26.7-17.5,71.5-20,75.4-20.1,3.2-.8,47.1-11.5,63.4-37,6.8-10.7,8.4-16.8,8.7-18.4l-1.8-5.7.4-.8c.3-.6,8.5-15.7,21.3-26.1,13.4-10.9,39.1-4.5,49,2,8.1,5.3,14.2,14.3,15.9,16.9,4.3,1.4,8.3,2.5,11.9,3.6,10.6,3.1,15.9,4.6,17.1,8.1,1.7,4.8-3.8,14.6-7.2,20-3.4,5.3-10.3,8.9-14.1,10.5,2,3.7,4.7,10.2.4,13.2-3.8,2.7-11.8,1.9-20.2,1.1-2.2-.2-4.4-.4-6.5-.6-3,0-11,7.4-19.9,24.2-.6,1.1-1.9,1.5-3,.9s-1.5-1.9-.9-3h0c2.4-4.5,14.5-26.6,23.8-26.6h.4c2,.2,4.2.3,6.6.6,6.2.6,14.7,1.5,17.2-.3,1.3-.9-.5-5.8-2.9-9.5l-1.6-2.4,2.7-.9c.1,0,10.6-3.7,14.4-9.7,5.2-8.3,7.3-14.4,6.7-16.2-.7-1.4-7.9-3.4-14.2-5.2-3.8-1.1-8.1-2.3-12.8-3.8l-.8-.3-.4-.7c0-.1-6.5-10.7-15-16.2-8.8-5.7-32.2-11.7-43.8-2.3-10.5,8.5-17.9,20.8-19.7,24l1.5,4.9v.5c0,.3-.9,7.2-9.5,20.7-17.8,27.8-64.4,38.5-66.3,38.9h-.4c-.1,0-11.9.6-26.8,3.2-13.7,2.4-32.8,7.2-46.5,16.2-22.1,14.5-37.8,50.4-38,50.8l-.4.9-.9.3c-.2,0-17.7,6.6-29.1,13.8-9.5,6-13.7,11.8-13.6,13.8,0,.1,0,.2.3.4,5,2.2,55.7,3.3,88,3.4v-9c.1,0,3.6,3.8,3.6,3.8.5.3,3.8,1.7,14.7,2.1,13.3.5,56.9.5,57.3.5l11.1-.4-2.1-8,27.8,1.7c1.2.2,2.1,1.3,1.9,2.5-.1,1.1-1.1,1.9-2.2,1.9l-21.6-1.3,2,7.5-16.8.6c-.5,0-44.2,0-57.6-.5-6.9-.3-11.1-1-13.7-1.6v4.7Z"/>
  <path class="st17" d="M407.4,539.8c.9,1.5.8,3.1-.2,3.7-.9.6-2.4-.2-3.3-1.7s-.8-3.1.2-3.7,2.4.2,3.3,1.7M338.5,709.4c-.8,0-1.6-.4-2-1.2l-12.9-25.4c-.5-1.1,0-2.4,1.1-2.9,1-.4,2.2,0,2.8.9l12.9,25.3c.6,1.1.1,2.4-1,3-.3.2-.6.2-1,.2M201.9,710.4c-.8,0-1.6-.4-2-1.2,0,0-4.8-8.4-25.8-12.3-17-3.1-26.5-2.1-26.6-2-1.2,0-2.3-.9-2.3-2.1,0-1.1.7-2.1,1.8-2.3.4,0,10.2-1.2,28,2.1,23.5,4.3,28.8,14.2,29,14.6.6,1.1.1,2.4-1,3-.3.2-.7.2-1,.2M448.2,559.2c-.2,0-.5,0-.6-.2-.2-.1-5.1-2.9-7-4.7-2.2-2.1-2.1-5.2-2.1-5.3,0-.7.6-1.3,1.4-1.3s1.3.6,1.3,1.4h0s0,2.1,1.3,3.3c1.4,1.3,5.1,3.5,6.5,4.3.6.4.8,1.2.5,1.8-.2.4-.7.6-1.1.7M478.9,715c-.7,0-1.3-.6-1.3-1.3,0-.3,0-.6.3-.8-.1-.8-1.3-2.8-2.6-4.6l-9-3.4c-.7-.3-.9-1.1-.6-1.8.3-.6.9-.9,1.5-.7l9.3,3.5c.2,0,.4.2.6.4,1.1,1.5,3.7,5,3.4,7-.1.7-.5,1.1-.8,1.3-.2.2-.5.2-.8.2M470.8,717.3c-.7,0-1.3-.6-1.3-1.3,0-.3,0-.5.2-.7,0-.9-1.8-3.8-3.9-6.3l-5.9-2.2c-.7-.3-1-1-.8-1.7.3-.7,1-1,1.7-.8h0l6.2,2.3c.2,0,.4.2.5.4,2.9,3.3,6,7.7,4.3,9.8-.2.3-.6.5-1,.5M283,712.1c-.5,0-1-.3-1.2-.9-1-2.7-2.5-5.2-4.2-7.5l-7.1-2.2c-.7-.2-1.1-.9-.9-1.6.2-.7.9-1.1,1.6-.9h0l7.5,2.3c.2,0,.4.2.6.4.1.2,3.2,3.8,4.9,8.6.3.7,0,1.4-.8,1.7-.2,0-.3,0-.5,0M275,714.1c-.6,0-1.1-.4-1.3-1-1-3.7-4.1-6.6-4.9-7.3l-5.6-1.6c-.7-.3-1-1-.8-1.7.2-.6.9-1,1.5-.8l5.9,1.7c.2,0,.3.1.5.2.2.2,4.7,3.7,6,8.9.2.7-.3,1.4-1,1.6-.1,0-.2,0-.3,0"/>
  <path class="st17" d="M193.4,714.2c-.4,0-.7-.1-1-.4-4.5-4.9-7.1-7.4-17.1-12.1-13.5-6.4-28-6.7-28.2-6.7-.7,0-1.3-.6-1.3-1.3s.6-1.3,1.3-1.3h0c.6,0,15.2.3,29.2,7,10.4,4.9,13.1,7.6,17.9,12.7.5.5.5,1.4,0,1.9-.2.2-.6.4-.9.4"/>
  <path class="st17" d="M173.9,715.4c-.4,0-.7-.1-1-.4l-1.3-1.5c-4.2-4.8-11.1-12.8-28.7-12.4-7.1.1-8.6-2.3-8.9-3.8-.7-4.2,6.2-9.2,18.5-13.5.7-.2,1.4.1,1.7.8.2.7-.1,1.4-.8,1.7h0c-13.3,4.6-17,9.1-16.8,10.5.1.9,2.2,1.8,6.2,1.7,18.8-.4,26.3,8.2,30.8,13.3l1.3,1.5c.5.5.4,1.4-.1,1.9-.2.2-.5.3-.9.3"/>
  <path class="st17" d="M156.9,715.3c-.4,0-.7-.1-1-.4-5.2-5.6-14.4-9.1-21.1-10.1-6.7-1-10.8-3-12.2-6.2-1.4-3.2.5-6,.6-6.2.4-.6,1.2-.8,1.8-.4.6.4.8,1.2.4,1.8,0,0-1.2,1.8-.4,3.7.7,1.5,3,3.6,10.1,4.6,7.2,1,17.1,4.8,22.7,10.9.5.5.4,1.4-.1,1.9-.2.2-.5.3-.9.3"/>
  <path class="st13" d="M1020.6,653.4s20.4,14,53.4,21.5c0,0,10.3,26.6,10.3,36.5,0,0-6.1.4-8.4,3.5s-1.8,7.6-1.8,7.6c0,0,4.1,1.7,11.9,1.3s10.3-2.3,10.3-2.3l.9-10.9s.1-5.4-1.4-20.2c-1.6-14.7-6.3-33.1-6.3-33.1,0,0-11.5-6.1-16.6-12.7s-4.3-33-12.4-51.6"/>
  <path class="st17" d="M1083.7,726.1c-6.7,0-10.3-1.5-10.5-1.5l-1.3-.5-.2-1.4c0-.6-.6-5.6,2.3-9.3,1.9-2.6,5.5-3.7,7.8-4.1-1-9.2-7.8-27.7-9.6-32.5-32.3-7.6-52.2-21-53-21.5-1.1-.7-1.3-2.2-.6-3.2s2.2-1.3,3.2-.6c.2.1,20.5,13.8,52.6,21.1l1.2.3.4,1.2c.4,1.1,10.5,27.2,10.5,37.3v2.2h-2.2c-1.3.2-5.3.9-6.7,2.7-1,1.4-1.3,3.2-1.4,4.5,1.7.4,4.9.9,9.5.7,4.5-.2,7-1,8.2-1.5l.8-9.5c0-.6,0-6.3-1.4-19.8-1.3-12.5-5-27.8-6-31.8-2.9-1.6-11.9-6.9-16.4-12.8-2.7-3.5-3.8-11-5.2-20.3-1.4-9.8-3.3-22.1-7.5-31.8-.5-1.2,0-2.6,1.2-3.1,1.2-.5,2.6,0,3.1,1.2,4.5,10.2,6.3,22.8,7.8,32.9,1.2,8,2.3,15.6,4.3,18.2,4.7,6.1,15.7,12,15.8,12l.9.5.3,1c.2.8,4.8,18.7,6.4,33.5,1.5,14.7,1.4,20.2,1.4,20.5h0c0,.1-1,12-1,12l-.8.6c-.5.4-3.6,2.4-11.6,2.8-.8,0-1.6,0-2.4,0M841.3,609.3c-3.9,0-6.4-.9-6.7-.9h-.3c0-.1-.3-.3-.3-.3-.3-.2-6.8-5.1-13.6-14.6-7.2-10.2,1.3-29,1.7-29.8.6-1.1,1.9-1.5,3-.9,1,.5,1.4,1.7,1,2.8-2.2,4.8-6.9,18.6-2.1,25.3,3.5,5,7.6,9.5,12.3,13.4,1.8.5,11.2,2.6,21.1-5.8l5.7-7.9c.8-.9,2.2-1.1,3.1-.3.9.7,1.1,1.9.5,2.9l-6,8.4-.2.2c-7.2,6.3-14.3,7.7-19.3,7.7"/>
  <path class="st17" d="M839.8,607.1c-.7,0-1.3-.6-1.3-1.3,0-.4.2-.9.6-1.1.5-.4,1.1-.7,1.6-1,1.2-.8,2.1-1.3,2.7-2.4.7-1.3.9-3.7.9-4.5,0-.4.2-.8.5-1,3.9-2.9,5.2-4.1,6.2-6.8,1.1-2.8,1.3-7.3,1.3-7.3,0-.7.6-1.3,1.4-1.3s1.3.6,1.3,1.4h0c0,.2-.2,5-1.5,8.2-1.3,3.3-3,4.9-6.7,7.6,0,1.1-.4,3.4-1.2,4.9-.9,1.8-2.2,2.6-3.6,3.5-.5.3-.9.6-1.4.9-.2.2-.5.2-.8.2"/>
  <path class="st13" d="M834,557s-4.3-7.2-9-18.3c0,0,5.5-2.4,12.1-.5,6.6,1.9,8.3,4.2,11.5,6.7,0,0,3.5.3,7.5,1.7"/>
  <path class="st17" d="M834,559.2c-.8,0-1.5-.4-1.9-1.1-.2-.3-4.5-7.5-9.2-18.6l-.8-2,2-.9c.3-.1,6.3-2.7,13.6-.5,3.9,1,7.5,2.9,10.5,5.6.4.3.8.7,1.3,1,1.2.2,4.2.7,7.3,1.8,1.2.4,1.8,1.7,1.4,2.8-.4,1.2-1.7,1.8-2.8,1.4h0c-2.3-.8-4.6-1.3-7-1.6h-.6c0,0-.5-.4-.5-.4-.7-.5-1.3-1-1.9-1.5-2.2-1.8-4.1-3.4-8.9-4.8-3.4-1-6.5-.7-8.5-.3,2.3,5.4,4.9,10.7,7.9,15.8.6,1.1.3,2.4-.8,3-.3.2-.7.3-1.1.3M842.1,595.1h0l-3.8-.3c-.7,0-1.3-.7-1.2-1.4,0-.7.7-1.3,1.4-1.2h1.5c0,.1-.2-.3-.2-.3-.1-.2-.2-.5-.1-.8l.5-2.9c.1-.7.8-1.2,1.5-1.1.7.1,1.2.8,1.1,1.5h0l-.4,2.5,1.1,2.1c.3.6,0,1.4-.5,1.8-.2.1-.4.2-.6.2M840.3,577.8c-.7,0-1.3-.5-1.3-1.2,0-.2-.3-4.9,3.6-7.7.6-.4,1.4-.2,1.8.5.3.5.2,1.2-.2,1.6-2.7,2-2.5,5.3-2.5,5.5,0,.7-.5,1.3-1.2,1.4,0,0,0,0-.1,0M830.8,593.8c-.6,0-1.1-.4-1.3-1,0-.1-.8-3,2.8-5.4.6-.4,1.4-.2,1.8.4s.2,1.4-.4,1.8c-2,1.3-1.8,2.4-1.8,2.5.2.7-.2,1.4-.9,1.6-.1,0-.3,0-.4,0M946.7,724.7h-21.4v-2.3c.1-1.1.5-6.7,2.9-9.4,1.6-1.9,4.7-2.8,6.8-3.2-.1-5.4-.9-21.3-5.5-32.6-2.4-5.8-17.2-34.8-19.6-39.4-.6-1-.3-2.4.7-3.1s2.4-.3,3.1.7c0,0,.1.2.1.3,1.8,3.4,17.2,33.4,19.8,39.8,5.9,14.6,5.9,35.3,5.9,36.1v2s-2,.2-2,.2c-1.8.2-5,.9-5.9,2-.7.7-1.1,2.6-1.4,4.3h14.5l4.7-5.8c.3-7.1,2.8-63.8-.8-86.5-.2-1.2.6-2.3,1.8-2.5,1.2-.2,2.3.6,2.5,1.8,3.9,24.5,1,85.6.8,88.2v.7s-7,8.6-7,8.6ZM627.9,460c-.9,0-1.7-.5-2.1-1.4,0,0-2.3-6.3-5.8-14.2-2.9-6.7-4.4-15.8-3.9-24.4.4-8,1-18,1-18.1,0-1.2,1-2.2,2.2-2.2s2.2,1,2.2,2.2c0,.1,0,.2,0,.3,0,.1-.6,10.1-1,18.1-.4,7.9.9,16.3,3.6,22.4,3.5,8,5.8,14.3,5.9,14.4.4,1.1-.2,2.4-1.3,2.9-.2,0-.5.1-.8.1M699.3,466.4c-.2,0-.3,0-.5-.1l-12.5-5.1-19.2-.7c-.7,0-1.3-.6-1.3-1.4s.6-1.3,1.4-1.3l19.4.7c.2,0,.3,0,.4.1l12.7,5.2c.7.3,1,1,.7,1.7-.2.5-.7.8-1.2.8M698.5,461c-.1,0-.3,0-.4,0l-6.5-2.1c-.7-.2-1.1-1-.8-1.6.2-.7,1-1.1,1.6-.9h0l6.5,2.1c.7.2,1.1.9.9,1.6-.2.6-.7,1-1.3,1"/>
  <path class="st13" d="M641.4,362.1l-9.7-14.3s-14.6,5.2-18.8,2.1c-5.7-4.3-14.4-19.1-14.4-19.1,0,0-6.5-.2-7.5-5.6-.4-2.2,3.6-23.8,3.6-23.8,0,0-8.2-33.4,14.8-34.5s58.2,15.5,59.4,20.6c1.2,5,11.6,44.6,11.6,44.6,0,0-4.7,43-27.5,45.8-12.8,1.5-15.7-3.8-18.8-12.7"/>
  <path class="st17" d="M648.9,380.4c-10.9,0-14.1-6.3-16.9-14.4-.4-1.2.3-2.4,1.5-2.8,1.1-.3,2.3.2,2.7,1.3,2.9,8.3,4.9,12.6,16.4,11.2,19.7-2.4,25-39.2,25.6-43.4-1.2-4.4-10.3-39.1-11.5-44.2-1.9-3.7-34.2-20.1-57.1-18.9-4.6.2-8,1.9-10.3,5-6.7,8.9-2.5,26.6-2.4,26.8v.5c0,0,0,.5,0,.5-1.9,10.1-3.7,21.5-3.6,23.1.6,3.4,5.2,3.6,5.4,3.7h1.2s.6,1.1.6,1.1c2.3,4,9.4,15.2,13.8,18.5,1.9,1.4,10.2-.1,16.7-2.5l1.6-.6,10.6,15.7c.7,1,.3,2.4-.7,3.1-1,.6-2.3.4-3-.6l-8.7-12.9c-13.4,4.5-18.1,2.1-19.2,1.3-5.2-3.9-12.3-15.4-14.4-18.8-3-.5-7.5-2.4-8.3-7.3-.4-2.2,2-15.9,3.5-24.1-.7-3.1-4-20.2,3.3-30,3.1-4.2,7.7-6.5,13.6-6.8,22.2-1.1,60,15,61.6,22.3,1.1,5,11.5,44.2,11.6,44.6v.4c0,0,0,.4,0,.4-.2,1.8-5.2,44.8-29.5,47.8-1.5.2-2.9.3-4.2.3M843.8,724.6c-4.9,0-9.7-.5-10-.5l-2.4-.2.4-2.4c.1-.7,1.4-7.3,5.2-9.5,2.2-1.3,6.7-2.7,8.7-3.3,2.9-5.3,19.3-35.8,21.3-47,1.3-7.4-.1-12.3-1.8-18-.4-1.3-.8-2.7-1.2-4.1-2.8-10.4-1.8-20.3-1.4-25.1,0-.8.2-1.8.2-2.1-.3-1.6-.9-3.2-1.7-5-.6-1.1-.1-2.4,1-3,1.1-.6,2.4-.1,3,1,0,0,0,0,0,.1.9,2,1.6,4,2.1,6.2.1.7,0,1.5-.1,3.2-.4,4.5-1.3,13.9,1.2,23.5.4,1.4.8,2.7,1.2,4,1.8,6,3.5,11.7,2,20.1-2.3,13-21.4,47.7-22.2,49.2l-.5.8-.9.3c-1.7.5-6.6,2-8.5,3.1-1,.6-1.9,2.3-2.5,4.1,3.4.2,9.4.5,13.1-.1,4.4-.8,8.3-4.2,9-5l17.3-25.7,24.6-37.2c.6-1,2-1.4,3.1-.7,1,.6,1.4,2,.7,3.1,0,0,0,0,0,.1l-24.6,37.2-17.6,26.1v.2c-.3.2-5.4,5.2-11.7,6.3-2,.3-4.5.5-6.9.5"/>
  <path class="st17" d="M622.6,293s12,12.8,16.7,12.4l10.9-6.6s7.8,44.6-8.2,111.8c0,0,6.6.4,18.6-2.7s14.8-6.2,14.8-6.2c0,0,8.4-13.9,12.3-32s5.7-31,5.7-31c0,0,6.2,1.3,14.5,4.9s17.6,9.8,17.6,9.8c0,0,3-5.4-7.5-15.3-11.8-11.2-40.5-31.2-44.2-46.8l-42.2-4.9-8.9,6.6Z"/>
  <path class="st17" d="M646.3,317.9c-.7,0-1.3-.5-1.4-1.3s.5-1.3,1.3-1.4l8.8-.8c.7,0,1.4.5,1.4,1.2s-.5,1.4-1.2,1.4l-8.8.8h-.1ZM609.8,341.2c-.7,0-1.3-.6-1.3-1.3,0-.6.4-1.1,1-1.3,4.1-1.1,5.7-3.4,6.3-5.1-8.5,3.2-14.7,2.3-15,2.3-.7-.1-1.2-.8-1.1-1.5.1-.7.8-1.2,1.5-1.1,0,0,6.8,1,15.8-3,.7-.3,1.4,0,1.7.7,0,.1.1.3.1.5,0,2.6-1.6,7.9-8.7,9.8-.1,0-.2,0-.3,0"/>
  <path class="st13" d="M674.1,293.3l1.3-6.5-.7-2.9-3.3-.7,2.6-14.7s-1.9-5-3.6-7.5c-4.3-6.3-16.7-21.2-36.1-22.4s-36.5,10.5-40,14.8c-3.5,4.3-10.1,28.3-10.1,28.3,0,0-24.5,9.7-27.5,11.2s-1.2,10.1,6.2,10.1,9.3-.4,9.3-.4c0,0,7.4,8.9,22.1,5.8,14.8-3.1,37.2-15.6,37.2-15.6,0,0,27.4,2.3,42.6.4"/>
  <path class="st17" d="M588.2,311.4c-9.2,0-14.8-4.4-16.8-6.4-1.3.1-3.9.3-8.5.3-4.6.1-8.6-3-9.6-7.4-.7-3,.3-5.8,2.4-6.9,2.8-1.4,22-9,26.7-10.9,1.4-5.1,6.8-24,10.2-28.1,4.2-5.1,22.1-16.7,41.8-15.6,21.3,1.3,34.3,18.2,37.8,23.4,1.8,2.7,3.8,7.7,3.8,7.9l.2.6-2.3,13.2,2.5.5,1.2,4.7-1.7,8.5-1.6.2c-14,1.8-38,0-42.4-.3-3.7,2-23.5,12.6-37.3,15.5-2.4.5-4.5.7-6.6.7M573,300.3l.8,1c.3.3,6.8,7.8,20,5,14.2-3,36.4-15.2,36.6-15.3l.6-.3h.7c.3,0,25.5,2.1,40.5.6l.9-4.4-.3-1.1-4-.8,2.8-16.2c-.7-1.6-2.1-4.9-3.2-6.5-3.2-4.7-15.1-20.2-34.4-21.4-17.9-1.1-34.5,9.5-38.1,13.9-2.3,2.8-7.2,18.4-9.7,27.5l-.3,1.1-1,.4c-8.4,3.4-25,10-27.4,11.2-.2.2-.4,1.2.1,2.5.4,1,1.7,3.3,5.1,3.3,6.9,0,8.8-.3,8.9-.3l1.3-.2Z"/>
  <path class="st17" d="M649.4,294.3h0c-19.2-.6-35.3-2.9-49.2-7-5.4-1.6-10.8-3-16.2-4.2-.7-.2-1.2-.9-1-1.6s.9-1.2,1.6-1h0c0,0,8.7,2,16.4,4.3,13.7,4.1,29.5,6.4,48.5,6.9.7,0,1.3.6,1.3,1.3,0,.7-.6,1.3-1.3,1.3M586.2,309.6c0,0-.1,0-.2,0-8.2-1.2-11.9-4.9-15.2-8.2-1.8-1.8-3.5-3.5-5.8-4.8-2.9-1.6-5.3-2.1-6.9-1.5-.9.4-1.6,1.1-1.9,2.1-.2.7-.9,1.1-1.6.9s-1.1-.9-.9-1.6c0-.1.8-2.7,3.4-3.8,2.4-1,5.5-.5,9.2,1.6,2.7,1.5,4.5,3.4,6.4,5.2,3.3,3.3,6.3,6.4,13.7,7.5.7,0,1.3.7,1.2,1.4,0,.7-.7,1.3-1.4,1.2"/>
  <path class="st17" d="M622.2,291.5c0,0-.2,0-.2,0-.7-.1-1.2-.8-1.1-1.5,0,0,0,0,0,0,0,0,1.2-6.4,3.9-21.3,2.7-15.1,8.2-30.3,8.2-30.5.2-.7,1-1,1.7-.8.7.2,1,1,.8,1.7h0c0,.1-5.4,15.2-8.1,30-1.3,7.1-2.6,14.2-3.9,21.4-.1.6-.7,1.1-1.3,1.1M619.1,352.3c-.7,0-1.3-.5-1.4-1.2,0-.7.4-1.3,1.1-1.4,8.9-2.1,17.2-5.9,24.6-11.4.6-.4,1.4-.2,1.8.4.3.5.3,1.2-.2,1.6-.4.3-10.4,8.4-25.6,11.9,0,0-.2,0-.3,0M612.2,312.5c.7-.5.6-1.8-.2-2.9-.8-1.1-2-1.6-2.7-1.1-.7.5-.6,1.8.2,2.9.8,1.1,2,1.6,2.7,1.1"/>
  <path class="st16" d="M607.1,310c-.5,0-.8-.4-.8-.8,0-.2,0-.4.3-.6,1.1-1,3.9-2.4,6.3-.3.3.3.4.8,0,1.2-.3.3-.8.4-1.2,0-1.8-1.7-3.8,0-4.1.2-.1.1-.3.2-.5.2"/>
  <path class="st17" d="M673.7,271.4s6.6,3.1,2.3,12.7l-4.7-.8,2.3-11.9Z"/>
  <path class="st17" d="M668.2,294.6c0,0-.2,0-.3,0-.7-.1-1.2-.8-1-1.5,0,0,0,0,0,0l5.2-26c.2-.7,1-1.1,1.7-.8.6.2.9.7.9,1.3l-5.2,26c-.1.6-.7,1.1-1.3,1"/>
  <path class="st12" d="M540.5,471.5c11.3,0,20.5-9.2,20.5-20.5s-9.2-20.5-20.5-20.5-20.5,9.2-20.5,20.5,9.2,20.5,20.5,20.5"/>
  <path id="other_pet_leisure_svg__reuse-0" class="st17" d="M540.5,473.7c-8.3,0-15.9-4.5-20-11.8-2.9-5.3-3.6-11.5-1.9-17.3,1.7-5.8,5.6-10.7,10.9-13.6,11-6,24.9-2,30.9,9,2.9,5.3,3.6,11.5,1.9,17.2-1.7,5.8-5.6,10.7-10.9,13.6-3.4,1.9-7.1,2.8-11,2.8M540.5,432.6c-3,0-6.1.8-8.8,2.3-4.3,2.3-7.4,6.3-8.8,11-1.4,4.7-.8,9.7,1.5,13.9,2.3,4.3,6.3,7.4,11,8.8,4.7,1.4,9.7.8,13.9-1.5,4.3-2.3,7.4-6.3,8.8-11,1.4-4.7.8-9.7-1.6-13.9-3.2-5.8-9.4-9.5-16.1-9.5"/>
  <path class="st13" d="M540.5,471.5c11.3,0,20.5-9.2,20.5-20.5s-9.2-20.5-20.5-20.5-20.5,9.2-20.5,20.5,9.2,20.5,20.5,20.5"/>
  <path id="other_pet_leisure_svg__reuse-01" data-name="other_pet_leisure_svg__reuse-0" class="st17" d="M540.5,473.7c-8.3,0-15.9-4.5-20-11.8-2.9-5.3-3.6-11.5-1.9-17.3,1.7-5.8,5.6-10.7,10.9-13.6,11-6,24.9-2,30.9,9,2.9,5.3,3.6,11.5,1.9,17.2-1.7,5.8-5.6,10.7-10.9,13.6-3.4,1.9-7.1,2.8-11,2.8M540.5,432.6c-3,0-6.1.8-8.8,2.3-4.3,2.3-7.4,6.3-8.8,11-1.4,4.7-.8,9.7,1.5,13.9,2.3,4.3,6.3,7.4,11,8.8,4.7,1.4,9.7.8,13.9-1.5,4.3-2.3,7.4-6.3,8.8-11,1.4-4.7.8-9.7-1.6-13.9-3.2-5.8-9.4-9.5-16.1-9.5"/>
  <path class="st3" d="M560.3,458.5c2.7-9.3-2.6-19-11.8-21.7-9.3-2.6-18.9,2.7-21.6,12-2.7,9.3,2.6,19,11.8,21.7,9.3,2.6,18.9-2.7,21.6-12"/>
  <path id="other_pet_leisure_svg__reuse-02" data-name="other_pet_leisure_svg__reuse-0" class="st17" d="M540.5,473.7c-8.3,0-15.9-4.5-20-11.8-2.9-5.3-3.6-11.5-1.9-17.3,1.7-5.8,5.6-10.7,10.9-13.6,11-6,24.9-2,30.9,9,2.9,5.3,3.6,11.5,1.9,17.2-1.7,5.8-5.6,10.7-10.9,13.6-3.4,1.9-7.1,2.8-11,2.8M540.5,432.6c-3,0-6.1.8-8.8,2.3-4.3,2.3-7.4,6.3-8.8,11-1.4,4.7-.8,9.7,1.5,13.9,2.3,4.3,6.3,7.4,11,8.8,4.7,1.4,9.7.8,13.9-1.5,4.3-2.3,7.4-6.3,8.8-11,1.4-4.7.8-9.7-1.6-13.9-3.2-5.8-9.4-9.5-16.1-9.5"/>
  <path class="st13" d="M341.7,719c12.7.3,23.1-9.8,23.4-22.4.3-12.7-9.8-23.1-22.4-23.4-.3,0-.6,0-1,0-12.7.3-22.7,10.7-22.4,23.4.3,12.3,10.2,22.2,22.4,22.4"/>
  <path class="st17" d="M341.7,721.2c-2.3,0-4.7-.3-7-1-13.3-3.9-21-17.8-17.1-31.1,3.9-13.3,17.8-21,31.1-17.2,13.3,3.9,21,17.8,17.2,31.1-3.1,10.7-13,18.1-24.2,18.2M321.8,690.3c-3.2,11,3.2,22.4,14.1,25.6,11,3.2,22.4-3.2,25.6-14.1,3.2-11-3.2-22.4-14.1-25.6-11-3.2-22.4,3.2-25.6,14.1"/>
  <path class="st13" d="M621.2,457.9s-25-4-30.7-6.5c-5.7-2.6-7.7-6.5-16.9-7.7-7.6-1-12.8.7-16.3,1-6.9.5-8.4.4-8.4.4,0,0-2.8,8.1,9.9,7.2,11.3-.9,12.7.1,12.7.1l-24,6.6c-3.2-.4-6.6.1-9.8-.8-6.6-1.8-8.2,3.7-8.2,3.7l-3.4,3.9s2.2,4.9,6,7.5,10.5,7.7,16,8.8c14.9,3.1,22.4,3.6,22.4,3.6,0,0,4.7-1.5,10.6-3.6s11.8-5.6,11.8-5.6l30,5.2s7-13-1.7-23.8"/>
  <path class="st17" d="M553,469c-5,0-7.2,0-7.3-.1-.1,0-.2,0-.3,0,0,0-10.5-3.4-17.2-6.3-.7-.3-1-1.1-.7-1.7.3-.7,1.1-1,1.7-.7h0c6.1,2.7,15.4,5.7,16.8,6.1.6,0,2.9,0,7,0s8.4-.4,8.4-.4c.7,0,1.4.5,1.4,1.2s-.5,1.4-1.2,1.4h0c-.2,0-4.2.4-8.7.4M558.6,482.8c-3.3,0-8.7-.2-14.5-1.4-.7-.1-1.2-.8-1-1.5.1-.7.8-1.2,1.5-1h0c5.7,1.1,11.4,1.5,17.2,1.2.7,0,1.3.6,1.3,1.4,0,.6-.5,1.1-1.1,1.2-.1,0-1.4,0-3.4,0M561.1,477.7h0l-15.3-.9c-.1,0-.3,0-.4,0-.4-.1-9.9-3.7-18.2-9.1-.6-.4-.8-1.2-.4-1.8s1.2-.8,1.8-.4c7.4,4.9,16.1,8.3,17.5,8.8l15.1.9c.7,0,1.3.6,1.3,1.4,0,.7-.6,1.3-1.4,1.3"/>
  <path class="st17" d="M570.8,487.9h-.4c-.3,0-7.8-.5-22.7-3.6-5.8-1.2-12.3-5.7-16.4-9.5-3.9-3.6-5.9-10.2-6-10.5l-.3-1,3.5-5.6.3-.2c.5-.4,3-2.2,9.1-1.8,2.3.2,4.3.5,6,.8,2,.3,3.5.6,4.8.5,1.5-.1,4-.8,6.9-1.6-3.6-.5-6.1-1.7-7.7-3.9-1.4-2-1.8-4.6-1.1-7l.5-1.6h1.7s1.6,0,8.2-.4c.9,0,1.9-.2,3.2-.4,3.3-.5,7.8-1.3,13.5-.5,6.3.9,9.6,3.1,12.5,5,1.6,1.1,3,2.1,5,2.8,18.5,7.1,49.8,7,50.1,6.9h2s.2,2,.2,2c.4,4.2-1.4,16.1-1.6,17.5l-.3,1.8h-1.8c-2.4.2-9.4.8-12.2,2.5-2.4,1.4-4.7,3-6.8,4.8l-.9.7-1.1-.3s-4.5-1.2-13.2-3.3l-12.5-3c-3.6,2.1-7.4,3.9-11.4,5.4-3.5,1.2-7.1,2.4-10.7,3.6h-.4ZM529.9,463.8c.6,1.8,2.2,5.6,4.5,7.6,3.5,3.3,9.4,7.4,14.3,8.4,12.6,2.6,19.9,3.4,21.7,3.5,1.3-.4,5.3-1.8,10.1-3.4,3.9-1.5,7.7-3.3,11.3-5.4l.8-.5.9.2,13.4,3.2c4.1,1,8.1,2,12.2,3.1,1.2-1,3.7-2.8,6.5-4.5,3.3-1.9,9.3-2.7,12.4-2.9.5-3.5,1.2-9.1,1.3-12.6-7.6-.1-33-.9-49.5-7.2-2.4-.9-4.2-2.1-5.9-3.3-2.7-1.9-5.3-3.6-10.6-4.3-5.1-.7-9,0-12.2.5-1.3.2-2.5.4-3.6.5-3.2.2-5.2.3-6.5.4,0,.5.2,1.1.6,1.6,1,1.4,3.3,2.1,6.5,2.2,5.7.1,9.5,0,10.8,0l2.9-1c1.2-.3,2.4.3,2.8,1.5.3,1.1-.2,2.2-1.3,2.7l-2.5.9c-.3.2-.7.3-1.1.4-5.6,1.9-16.3,5.5-20.7,5.9-1.8.2-3.7-.1-5.9-.5-1.6-.3-3.5-.6-5.7-.7-3.4-.2-5.1.4-5.8.7l-2,3.1Z"/>
  <path class="st1" d="M362.8,705.8c2.9-10.4-3.1-21.2-13.5-24.2-10.4-3.1-21.2,2.9-24.3,13.2-2.9,10.4,3.1,21.2,13.5,24.2,10.4,3.1,21.2-2.9,24.3-13.2"/>
  <path class="st17" d="M341.7,721.2c-2.3,0-4.7-.3-7-1-13.3-3.9-21-17.8-17.1-31.1,3.9-13.3,17.8-21,31.1-17.2,13.3,3.9,21,17.8,17.2,31.1-3.1,10.7-13,18.1-24.2,18.2M321.8,690.3c-3.2,11,3.2,22.4,14.1,25.6,11,3.2,22.4-3.2,25.6-14.1,3.2-11-3.2-22.4-14.1-25.6-11-3.2-22.4,3.2-25.6,14.1M516.9,468.1c-.2,0-.3,0-.5,0-.7-.2-1-1-.8-1.7,0,0,0,0,0,0,0-.2,1.5-3.9,6.9-5.3.7-.2,1.4.2,1.6.9.2.7-.2,1.4-.9,1.6h0c-4.1,1.1-5.1,3.5-5.1,3.7-.2.5-.7.8-1.2.8M616.8,452.5c-.3,0-.6-.1-.8-.3l-4.4-3.7-6.1-1c-.7-.1-1.2-.8-1.1-1.5.1-.7.8-1.2,1.5-1.1l6.5,1c.2,0,.4.1.6.3l4.7,3.9c.6.5.6,1.3.2,1.9-.2.3-.6.5-1,.5M943.2,715.2c-.2,0-.4,0-.6-.2-4.3-2.3-9.7-.2-9.8-.2-.7.3-1.4,0-1.7-.7s0-1.4.7-1.7h0c.3,0,6.6-2.5,12,.3.6.3.9,1.1.5,1.8-.2.4-.7.7-1.1.7"/>
  <path class="st13" d="M834,557s-4.3-7.2-9-18.3c0,0,5.5-2.4,12.1-.5,6.6,1.9,8.3,4.2,11.5,6.7,0,0,2.8.5,7.5,1.9"/>
  <path class="st17" d="M1090.9,715.5c-.4,0-.8-.2-1.1-.5-1.1-1.5-5.8-1.7-8.9-1.3-.7,0-1.4-.4-1.5-1.1s.4-1.4,1.1-1.5c1.5-.2,8.9-1,11.3,2.3.4.6.3,1.4-.2,1.8-.2.2-.5.3-.8.3M841.3,609.3c-3.9,0-6.4-.9-6.7-.9h-.3c0-.1-.3-.3-.3-.3-.3-.2-6.8-5.1-13.6-14.6-7.2-10.2,1.3-29,1.7-29.8.6-1.1,1.9-1.5,3-.9,1,.5,1.4,1.7,1,2.8-2.2,4.8-6.9,18.6-2.1,25.3,3.5,5,7.6,9.5,12.3,13.4,1.8.5,11.2,2.6,21.1-5.8l5.7-7.9c.8-.9,2.2-1.1,3.1-.3.9.7,1.1,1.9.5,2.9l-6,8.4-.2.2c-7.2,6.3-14.3,7.7-19.3,7.7"/>
  <path class="st17" d="M824.2,566.9c-1.2,0-2.2-1-2.2-2.2,0-.4,0-.7.3-1,2.2-4,5-7.7,8.4-10.8,1-.7,2.4-.6,3.1.4.7.9.6,2.2-.2,2.9,0,0-4.2,3.7-7.4,9.5-.4.7-1.1,1.2-2,1.2"/>
  <path class="st6" d="M1050.4,609.9c8.5-14.4-3-30.2-3-30.2,0,0-23.2-9.7-50.7-13.2s-63,4.6-63,4.6l-25.9,4.1s-9.7,22.4,3.7,35.2c7.1,6.8,25.9,14.4,49.8,6.2,41.5-14.1,25.6,5,45.2,9.6,22.2,5.2,37.2-5.2,43.9-16.4"/>
  <g class="st14">
    <path class="st7" d="M1050.4,609.9c8.5-14.4-3-30.2-3-30.2,0,0-23.2-9.7-50.7-13.2s-63,4.6-63,4.6l-25.5,2.4s-7.6,16.7-1.6,30.5c5.3,12.2,29.5,21.5,54.2,12.7,47-16.5,25.9,4.8,45.6,9.4,22.2,5.2,37.2-5.2,43.9-16.4"/>
  </g>
  <path class="st10" d="M1032.4,597.2c-6.1-9.8-28.8-20.7-27.8-5,1.5,22.5,33.9,14.8,27.8,5"/>
  <path class="st17" d="M900.8,575.9c-.2,0-.5,0-.7,0-8.6-2.8-20.5-11.6-29.1-18-3.9-2.9-7.3-5.4-9-6.3-4.3-2.2-8.9-3.7-13.7-4.4-1.2-.3-2-1.4-1.7-2.6.2-1.1,1.3-1.8,2.4-1.7,5.3.8,10.4,2.4,15.1,4.9,2,1.1,5.3,3.5,9.5,6.7,8.4,6.2,19.9,14.8,27.9,17.4,1.2.4,1.8,1.7,1.4,2.8-.3.9-1.1,1.5-2.1,1.5"/>
  <path class="st17" d="M834,559.2c-.8,0-1.5-.4-1.9-1.1-.2-.3-4.5-7.5-9.2-18.6l-.8-2,2-.9c.3-.1,6.3-2.7,13.6-.5,3.9,1,7.5,2.9,10.5,5.6.6.5,1.1.9,1.8,1.4,1,.7,1.3,2.1.6,3.1s-2.1,1.3-3.1.6c0,0-.1,0-.2-.1-.7-.5-1.3-1-1.9-1.5-2.2-1.8-4.1-3.4-8.9-4.8-3.4-1-6.5-.7-8.5-.3,2.3,5.4,4.9,10.7,7.9,15.8.6,1.1.3,2.4-.8,3-.3.2-.7.3-1.1.3M1067.9,595.2c-.8,0-1.6-.5-2-1.3-.5-1.1,0-2.4,1-2.9,0,0,0,0,0,0,9.7-4.6,23.6-13.3,33.5-24,11.4-12.4,14.7-24.1,9.7-34.7-3-6.4-8.3-9-12.2-10.1-7.2-2-15.1-.3-19.1,2.4-6.6,4.4-11.1,13-12.4,15.6.6,1.1,2.4,3,7.5,1.8,1.8-.5,4-1.7,6.1-3,3.6-2.1,6.9-4,9.9-2.9,1.5.6,2.7,1.9,3.3,3.8,1.5,4.4-1.1,10.2-3.5,14.3-7.4,12.6-23.7,27-40.7,30.2l-.8.2-.7-.4c-.4-.2-36.5-19.9-73-16.5-16.1,1.5-30.5,3.9-42,5.8-16.3,2.7-27,4.5-32.6,2.3-1.1-.5-1.6-1.8-1.1-3,.5-1,1.6-1.5,2.7-1.2,4.4,1.7,15.8-.2,30.2-2.6,11.6-1.9,26.1-4.3,42.3-5.8,35.4-3.3,69.3,13.8,74.8,16.7,15.4-3.3,30.2-16.5,37-28,2.7-4.5,3.8-8.5,3.1-10.6-.2-.6-.4-1-.7-1.1-1-.4-4.1,1.4-6.2,2.6-2.4,1.4-4.8,2.8-7.2,3.4-8.8,2.2-12.4-2.7-13.2-5.6l-.2-.7.3-.7c.2-.5,5.5-12.3,14.4-18.3,4.7-3.2,13.8-5.5,22.8-3,6.9,1.9,12.1,6.2,15,12.5,5.8,12.2,2.2,26-10.4,39.6-10.3,11.2-24.8,20.3-34.9,25-.3.1-.6.2-.9.2"/>
</svg>