<?xml version="1.0" encoding="UTF-8"?>
<svg id="Layer_1" data-name="Layer 1" xmlns="http://www.w3.org/2000/svg" viewBox="0 0 1500 1000">
  <defs>
    <style>
      .cls-1 {
        fill: none;
      }

      .cls-1, .cls-2, .cls-3, .cls-4, .cls-5, .cls-6, .cls-7, .cls-8, .cls-9, .cls-10, .cls-11, .cls-12, .cls-13, .cls-14, .cls-15, .cls-16, .cls-17 {
        stroke-width: 0px;
      }

      .cls-2, .cls-3, .cls-4, .cls-6, .cls-7, .cls-8, .cls-10, .cls-11, .cls-13, .cls-14, .cls-17 {
        isolation: isolate;
      }

      .cls-2, .cls-4, .cls-14 {
        fill: #afcd5f;
      }

      .cls-2, .cls-7, .cls-17 {
        opacity: .5;
      }

      .cls-3 {
        opacity: .4;
      }

      .cls-3, .cls-6, .cls-7 {
        fill: #949ba0;
      }

      .cls-4 {
        opacity: .9;
      }

      .cls-5 {
        fill: #aecc5f;
      }

      .cls-6, .cls-13 {
        opacity: .3;
      }

      .cls-8 {
        opacity: .1;
      }

      .cls-8, .cls-16 {
        fill: #fff;
      }

      .cls-9, .cls-10 {
        fill: #f0ae3b;
      }

      .cls-10 {
        opacity: .7;
      }

      .cls-11 {
        fill: #dedcd2;
        opacity: .6;
      }

      .cls-12 {
        fill: #45443f;
      }

      .cls-13, .cls-17 {
        fill: #007b91;
      }

      .cls-14 {
        opacity: .2;
      }

      .cls-15 {
        fill: #454440;
      }
    </style>
  </defs>
  <g id="Ebene_3" data-name="Ebene 3">
    <path class="cls-11" d="M1137.9,753V232.2c0-53.8-43.6-97.4-97.4-97.4H445.5c-53.8,0-97.4,43.6-97.4,97.4v520.8h789.8Z"/>
    <path class="cls-7" d="M836,812.9c-238.7,0-432.1,17-432.1,37.9,0,10.6,49.9,19.4,130.4,25.9-.1.4-.1.7-.1,1.1,0,11.9,37.5,19.8,83.8,21.6,42.5,1.6,69.7-5.2,79.6-13.9,43.5,1.5,90,2.6,138.4,3.2,281,3.7,432.1-17,432.1-37.9s-193.5-37.9-432.1-37.9Z"/>
    <path class="cls-17" d="M565.9,822h-240.3c-16.8,0-30.4-13.6-30.4-30.4h0c0-16.8,13.6-30.4,30.4-30.4h240.3c16.8,0,30.4,13.6,30.4,30.4h0c.1,16.8-13.6,30.4-30.4,30.4Z"/>
    <path class="cls-15" d="M563.2,816.6h-249.1c-15.5,0-28.1-12.6-28.1-28.1s12.6-28.1,28.1-28.1h249.1c15.5,0,28.1,12.6,28.1,28.1s-12.6,28.1-28.1,28.1ZM314.1,764.5c-13.2,0-24,10.7-24,24s10.7,24,24,24h249.1c13.2,0,24-10.7,24-24s-10.7-24-24-24h-249.1Z"/>
    <path class="cls-13" d="M352.5,879.6h-99.8c-19,0-32.4-8.8-32.4-19.6v-6.6c0-10.8,8.7-19.6,32.4-19.6h106.7c18.6,0,27.2,8.8,27.2,19.6v6.6c0,10.8-12.5,19.6-34.1,19.6Z"/>
    <path class="cls-16" d="M1092.2,576.3H471.6V74h620.6v502.3h0ZM502.8,545.2h558.2V105.2H502.8v440Z"/>
    <polyline class="cls-16" points="487.2 372.9 487.2 89.6 1076.6 89.6 1076.6 560.7 487.2 560.7 487.2 372.9"/>
    <polyline class="cls-16" points="487.2 372.9 487.2 89.6 1076.6 89.6 1076.6 560.7 487.2 560.7 487.2 372.9"/>
    <polyline class="cls-8" points="498.4 290.7 498.4 104.1 1076.6 104.1 1076.6 560.7 754.1 560.7 682.7 297.6 668.9 293"/>
    <path class="cls-15" d="M1079.7,563.9h-470.7c-1.7,0-3.1-1.4-3.1-3.1s1.4-3.1,3.1-3.1h464.5v-23.5c0-1.7,1.4-3.1,3.1-3.1s3.1,1.4,3.1,3.1v29.7h0Z"/>
    <path class="cls-15" d="M1076.6,488.3c-1.7,0-3.1-1.4-3.1-3.1v-110.6c0-1.7,1.4-3.1,3.1-3.1s3.1,1.4,3.1,3.1v110.6c0,1.7-1.3,3.1-3.1,3.1Z"/>
    <path class="cls-15" d="M1076.6,384.6c-1.7,0-3.1-1.4-3.1-3.1v-143.4c0-1.7,1.4-3.1,3.1-3.1s3.1,1.4,3.1,3.1v143.4c0,1.8-1.3,3.1-3.1,3.1Z"/>
    <path class="cls-15" d="M1076.6,228.6c-1.7,0-3.1-1.4-3.1-3.1V92.7h-7.5c-1.7,0-3.1-1.4-3.1-3.1s1.4-3.1,3.1-3.1h13.8v139c-.1,1.7-1.4,3.1-3.2,3.1Z"/>
    <path class="cls-15" d="M487.2,340.3c-1.7,0-3.1-1.4-3.1-3.1V86.4h481.4c1.7,0,3.1,1.4,3.1,3.1s-1.4,3.1-3.1,3.1h-475.2v244.5c0,1.8-1.4,3.2-3.1,3.2Z"/>
    <path class="cls-15" d="M487.2,509.2c-1.7,0-3.1-1.4-3.1-3.1v-149c0-1.7,1.4-3.1,3.1-3.1s3.1,1.4,3.1,3.1v149c0,1.7-1.4,3.1-3.1,3.1Z"/>
    <path class="cls-15" d="M686,246.1c-1.1,0-2.1-.9-2.1-2.1V91.6c0-1.1.9-2.1,2.1-2.1s2.1.9,2.1,2.1v152.4c0,1.2-1,2.1-2.1,2.1Z"/>
    <path class="cls-15" d="M880,431.4c-1.1,0-2.1-.9-2.1-2.1v-50.7c0-1.1.9-2.1,2.1-2.1s2.1.9,2.1,2.1v50.7c0,1.2-.9,2.1-2.1,2.1Z"/>
    <path class="cls-15" d="M880,383.6c-1.1,0-2.1-.9-2.1-2.1v-27.1c0-1.1.9-2.1,2.1-2.1s2.1.9,2.1,2.1v27.1c0,1.2-.9,2.1-2.1,2.1Z"/>
    <path class="cls-15" d="M880,317.4c-1.1,0-2.1-.9-2.1-2.1v-77.7c0-1.1.9-2.1,2.1-2.1s2.1.9,2.1,2.1v77.7c0,1.2-.9,2.1-2.1,2.1Z"/>
    <path class="cls-15" d="M880,227.5c-1.1,0-2.1-.9-2.1-2.1V91.6c0-1.1.9-2.1,2.1-2.1s2.1.9,2.1,2.1v133.9c0,1.1-.9,2-2.1,2Z"/>
    <rect class="cls-2" x="498.5" y="303.5" width="198.7" height="204.1"/>
    <g>
      <rect class="cls-16" x="583.1" y="452.9" width="24.6" height="9.6"/>
      <path class="cls-15" d="M609.8,464.7h-28.8v-13.8h28.8v13.8ZM585.2,460.5h20.5v-5.5h-20.5v5.5Z"/>
    </g>
    <g>
      <path class="cls-16" d="M545.2,555.9c2.7,1.4,5.7,2.2,9,2.2,11.2,0,20.3-9.1,20.3-20.3v-109.9c0-11.2-9.1-20.3-20.3-20.3s-20.3,9.1-20.3,20.3v19.2h-11.5v-19.2c0-17.5,14.3-31.8,31.8-31.8s31.8,14.3,31.8,31.8v109.9c0,17.5-14.3,31.8-31.8,31.8-3.1,0-6.1-.5-9-1.3v-12.4Z"/>
      <path class="cls-15" d="M554.2,571.7c-3.2,0-6.4-.5-9.5-1.4l-1.5-.4v-17.3l3,1.5c2.6,1.3,5.3,2,8,2,10,0,18.2-8.2,18.2-18.2v-110c0-10-8.2-18.2-18.2-18.2s-18.2,8.2-18.2,18.2v21.3h-15.7v-21.3c0-18.7,15.2-33.9,33.9-33.9s33.9,15.2,33.9,33.9v109.9c0,18.7-15.2,33.9-33.9,33.9ZM547.3,566.8c2.3.5,4.6.8,6.9.8,16.4,0,29.7-13.3,29.7-29.7v-110c0-16.4-13.3-29.7-29.7-29.7s-29.7,13.3-29.7,29.7v17.1h7.4v-17.1c0-12.3,10-22.3,22.3-22.3s22.3,10,22.3,22.3v109.9c0,12.3-10,22.3-22.3,22.3-2.3,0-4.6-.4-6.9-1.1v7.8h0Z"/>
    </g>
    <g>
      <path class="cls-16" d="M707,264.3s-29.2,3.6-50.7,8.3c-21.5,4.8-33.4,22.1-47.7,52.5s-35.2,69.7-5.4,75.7c24.7,4.9,39.9-1.8,39.9-1.8,0,0-6.6,75.1-14.9,101.9l142.5,5.4s.6-120.4,13.1-158c0,0,63.6,13.7,75.1,9.5,6.6-2.4,26.8-25-.6-39.9-28.3-15.4-100.5-34.8-110.9-41.7-5.2-3.5-40.4-11.9-40.4-11.9Z"/>
      <path class="cls-9" d="M715.3,270.2s-17.7,2.6-50.5,8.2c-21.7,3.7-32.2,16.9-46.5,47.3s-35.2,69.7-5.4,75.7c13.5-5.1,42.5-11.1,42.5-11.1,0,0-9.1,84.4-17.4,111.3l142.5,5.4s.6-120.4,13.1-158c0,0,54,13.2,65.6,9,6.6-2.4,32.6-26.3,8.9-39.3-28.4-15.7-119.6-40.7-119.6-40.7l-33.2-7.8Z"/>
      <g>
        <polygon class="cls-16" points="716.6 400.3 676 373.4 668.9 385.9 705.8 413.4 716.6 400.3"/>
        <path class="cls-15" d="M706.4,417.6l-41.6-30.8,10.2-17.8,46.2,30.6-14.8,18ZM672.9,385.1l32.4,24,6.7-8.1-34.9-23.1-4.2,7.2Z"/>
      </g>
      <path class="cls-15" d="M622.1,509.6l1.3-4c6.9-22.2,15.4-88.6,17.9-109-8.3,4.2-24.5,10.7-38.6,7.3-7.4-1.5-12.6-5-15.3-10.5-7.5-14.9,4.9-40.9,15.8-63.8.9-1.9,1.8-3.9,2.7-5.8,14.7-31.2,27-49.1,49.8-54.2,21.4-4.7,50.7-8.4,51-8.4l.6-.1.5.1c6,1.4,36,8.7,41.5,12.4,2.9,1.9,13.8,5.4,25.5,9,5.9,1.8,12.5,3.9,19.1,6.1,5.9,1.9,12.1,3.9,18.7,6,20.7,6.6,42,13.4,54,19.8,12.1,6.6,14.1,14.7,13.7,20.3-.9,12.4-14.7,23.9-20.1,25.9-11,4-60.6-6-74-8.8-11.4,39.4-12.1,153.2-12.1,154.4v3.1l-152,.2ZM648.9,384.9l-.8,6.4c-.4,3.5-9.6,81.6-17.7,112.1l137.3-.1c.1-8.6.5-33.9,1.8-61.9,2.3-46.5,6.1-78.1,11.4-93.9l.9-2.7,2.7.6c24.2,5.2,65.6,12.5,73.4,9.7,3.6-1.3,15.3-10.9,16-20.5.4-5.5-3.1-10.4-10.4-14.4-11.4-6.2-32.5-12.9-52.9-19.4-6.6-2.1-12.8-4.1-18.7-6-6.5-2.2-13.2-4.3-19-6.1-15-4.7-23.6-7.5-27-9.8-3.5-2.3-25.5-8.1-39-11.4-4.1.5-30.4,3.9-49.8,8.2-20.3,4.5-31.7,21.3-45.5,50.7-.9,1.9-1.8,3.8-2.7,5.8-9.8,20.6-22,46.2-15.9,58.3,1.9,3.7,5.5,6.1,11,7.2h.1c17.1,4.2,39.1-9.4,39.4-9.5l5.4-3.3Z"/>
      <g>
        <path class="cls-16" d="M721.3,268.5s8.9,11.9,19.1,14.9c10.1,3,22.8-10.1,29.7-16,5.4-4.6,11.6-22.4,11.6-22.4l6.3-10.8s7.1-17.7,1.3-32.8c-3.6-9.5-15.5-18.5-27.9-19.6-31.8-2.8-35.4,27.9-35.4,27.9l-6.5,1c-6.5,1-4.9,22.5-4.9,22.5l5.1,5.8s-1.1,5-3.6,11.4c-4.1,10.6-11,14-11,14,0,0-2.7,9.6,4,21.3,4.6,8.1,13.8,14.4,13.8,14.4l20.2-7.5,4.9-8.2"/>
        <path class="cls-15" d="M722.6,303.8l-1.3-.9c-.4-.3-9.9-6.8-14.8-15.4-7.3-12.7-4.5-23.2-4.3-23.7l.4-1.3,1.2-.6c.2-.1,5.9-3.2,9.5-12.4,1.6-4.1,2.6-7.6,3.1-9.5l-4.8-5.4-.1-1c-.5-7.3-.9-24.5,7.5-25.8l4.3-.7c1.7-7.6,9.3-30.9,38.3-28.3,13.1,1.2,26.2,10.4,30.5,21.6,6.1,16-1,34.3-1.3,35l-.2.4-6.1,10.5c-1,2.9-6.7,18.6-12.4,23.4-.8.7-1.8,1.6-2.8,2.5-4.9,4.4-11.4,10.2-18.2,13-.1.3-.2.7-.4,1l-5.5,9.2-22.6,8.4ZM708,266.6c-.4,2.6-.8,9.6,3.9,17.8,3.2,5.6,9,10.5,11.6,12.4l17.6-6.5,2-3.3c-1.2,0-2.4-.2-3.6-.6-11-3.2-20.3-15.5-20.7-16-1-1.4-.8-3.3.6-4.4,1.4-1,3.3-.8,4.4.6h0c.1.1,8.5,11.1,17.5,13.8,7.2,2.1,17.7-7.2,24-12.8,1-.9,2-1.8,2.9-2.5,3.5-3,8.4-14.5,10.6-21l.1-.3,6.3-10.8c.7-1.9,6.2-17.4,1.2-30.3-3.4-8.9-14.5-16.7-25.2-17.6-28.3-2.5-31.9,24.1-32,25.2l-.3,2.3-8.8,1.4c-1.5.8-2.9,9-2.3,18.2l5.5,6.2-.4,1.6c0,.2-1.2,5.3-3.8,11.9-3.4,8.6-8.6,13-11.1,14.7Z"/>
      </g>
      <g>
        <path class="cls-16" d="M617,366.9l45.3-1.8s20.3,1.2,25.6,3,17.9,13.7,17.9,13.7c0,0-9.5,5.4-16.7,3-3.2-1.1-3.2,2.4-2.2,6.5,1.2,5.1,4,11.4,4,11.4,0,0-10.1,6-22.7,4.2s-16.1-13.1-16.1-13.1c0,0-7.5.7-18,3.8s-17.5,3.7-17.5,3.7c0,0-8.6-7.7-8.1-17.1.4-6.5,1.4-11.9,8.5-17.3Z"/>
        <path class="cls-15" d="M673,410.3c-1.7,0-3.4-.1-5.2-.4-10.6-1.5-15.6-8.9-17.6-12.8-2.9.4-8.4,1.4-15.2,3.4-10.7,3.1-17.8,3.8-18.1,3.8l-1.3.1-1-.9c-.4-.4-9.7-8.9-9.2-19.6.3-6.4,1.3-13.2,9.7-19.5l.8-.6,46.4-1.8h.2c2.1.1,20.8,1.3,26.4,3.1,5.9,2,17.7,13.1,19,14.4l3.1,2.9-3.7,2.1c-.4.2-9.7,5.4-17.8,3.6.1.6.2,1.4.4,2.4,1.1,4.8,3.8,10.8,3.8,10.8l1.1,2.5-2.4,1.4c-.3.4-8.4,5.1-19.4,5.1ZM654.4,390.4l.8,2.4c.1.4,3.2,9.5,13.6,11,7.9,1.1,14.7-1.1,18.2-2.6-.9-2.4-2.2-5.9-3-9.1s-1.3-7.2,1-9.4c.8-.7,2.5-1.7,5.2-.8,3,1,7,.1,10.1-.9-4.7-4.2-10.6-8.9-13.3-9.8-4-1.3-19-2.5-24.7-2.8l-44.1,1.7c-5.6,4.5-6.2,8.8-6.5,14.3-.3,6,4.2,11.5,6.2,13.7,2.5-.3,8.1-1.2,15.5-3.4,10.7-3.1,18.3-3.9,18.6-3.9l2.4-.4Z"/>
      </g>
      <path class="cls-15" d="M749.7,268h-.2c-9.3-1.2-11.2-9.2-11.3-9.6l-.6-2.7,2.7.9c.1,0,9.9,3.4,20.7,4.4.9.1,1.5.8,1.4,1.7-.1.9-.8,1.5-1.7,1.4-7.4-.7-14.2-2.4-18.1-3.5,1.2,1.8,3.4,3.8,7.3,4.3.9.1,1.5.9,1.3,1.8-.1.8-.8,1.3-1.5,1.3Z"/>
      <path class="cls-15" d="M746.3,272.3h-.2c-1.8-.3-3.3-.9-3.3-.9-.8-.3-1.1-1.3-.8-2.1.3-.8,1.3-1.1,2.1-.8h0s1.1.5,2.5.7c.9.1,1.4.9,1.3,1.8-.2.7-.9,1.3-1.6,1.3Z"/>
      <path class="cls-15" d="M760,259.3c-2.1,0-4-.8-4.1-.8-.8-.3-1.2-1.3-.8-2s1.3-1.2,2-.8c.9.4,3.7,1.2,4.9,0,.6-.6.4-1.8.2-3.9-.3-2.3-.6-5.1,0-8.5.5-2.8,1.4-5.5,2.7-8.1.4-.8,1.3-1.1,2.1-.7.8.4,1.1,1.3.7,2.1-1.2,2.4-2,4.8-2.4,7.3-.6,3-.2,5.4,0,7.6.3,2.6.6,4.9-1.1,6.5-1.2,1-2.8,1.3-4.2,1.3Z"/>
      <g>
        <path class="cls-15" d="M743.6,432.5c17,9.8,43.6,19.2,43.6,19.2,0,0-13.1,26.1-15.2,29.8-7.8,13.5-33.1,13.5-56.6,0s-36.1-35.5-28.3-49c1.7-3,14.1-27.4,14.1-27.4,0,0,24.2,16.8,42.4,27.4Z"/>
        <path class="cls-15" d="M749.5,494.7h0c-11.3,0-23.9-3.8-35.8-10.6-11.8-6.8-21.4-15.9-27-25.6-5.9-10.3-6.8-20.1-2.4-27.6,1.3-2.3,9.8-18.8,14-27.2l1.6-3.2,2.9,2c.2.2,24.4,16.9,42.3,27.3,16.6,9.6,42.8,18.8,43,18.9l3.3,1.2-1.4,3.1c-.5,1.1-13.2,26.2-15.3,30-4.4,7.5-13.3,11.7-25.2,11.7ZM702.3,409.6c-3.4,6.7-11.2,21.9-12.6,24.3-3.2,5.5-2.3,13.1,2.4,21.4,5.1,8.8,13.9,17.1,24.7,23.4,10.9,6.3,22.5,9.7,32.6,9.7h0c9.5,0,16.5-3,19.7-8.6,1.6-2.8,10-19.5,13.6-26.5-7.7-2.9-27.1-10.3-40.8-18.2h0c-14.2-8.3-32.6-20.6-39.6-25.5Z"/>
      </g>
      <g>
        <ellipse class="cls-16" cx="744.69" cy="427.14" rx="28.3" ry="49" transform="translate(2.42 858.48) rotate(-60)"/>
        <path class="cls-15" d="M764.8,464.9c-10.8,0-23.4-3.5-35.7-10.7-11.8-6.8-21.4-15.9-27-25.6-5.9-10.3-6.8-20.1-2.4-27.6,8.8-15.2,35.5-15.7,60.9-1.1,11.8,6.8,21.4,15.9,27,25.6,5.9,10.3,6.8,20.1,2.4,27.6-4.6,7.9-13.9,11.8-25.2,11.8ZM724.6,395.6c-9.1,0-16.3,2.8-19.6,8.5-3.2,5.5-2.3,13.1,2.4,21.4,5.1,8.8,13.9,17.1,24.7,23.4,21.6,12.4,45.5,13,52.3,1.2,3.2-5.5,2.3-13.1-2.4-21.4-5.1-8.8-13.9-17.1-24.7-23.4h0c-11.2-6.4-23-9.7-32.7-9.7Z"/>
      </g>
      <path class="cls-15" d="M738.2,439.6c-.6,0-1.2-.2-1.7-.5-1.4-.9-1.9-2.9-.9-4.3l56.8-87.4c.9-1.4,2.9-1.9,4.3-.9,1.4.9,1.9,2.9.9,4.3l-56.8,87.4c-.5.9-1.5,1.4-2.6,1.4Z"/>
      <g>
        <path class="cls-16" d="M840.6,322.8l-72.8,26.2-3,23.2s-.3,10.7,1.6,18.7c2.2.5,5.6-1.6,7.8-4.3,2.6-3.3,3.7-7.3,3.7-7.3l6,.6s11.3-3,19.1-9.5c7.7-6.6,10.7-14.9,10.7-14.9,0,0,34.7,5.8,45.3,2.4,8.4-17.9,4.8-30.4-18.4-35.1Z"/>
        <path class="cls-15" d="M767.2,394.2c-.5,0-1-.1-1.5-.2l-1.8-.5-.4-1.8c-2-8.3-1.7-19.1-1.7-19.6v-.3l3.2-25.1,75.3-27.2.9.2c12,2.5,19.6,7,23,13.9,3.4,6.7,2.6,15.1-2.4,25.7l-.6,1.2-1.3.4c-9.7,3.1-35.8-.6-44.4-1.9-1.5,3.2-4.8,8.9-10.6,13.8-8.2,6.9-19.8,10-20.3,10.2l-.5.1-4.1-.4c-.7,1.6-1.8,3.9-3.4,5.9-2.2,2.8-6,5.6-9.4,5.6ZM768,372.5c0,1.1-.1,8.3.9,14.8.9-.5,2-1.4,2.9-2.6,2.2-2.7,3.2-6.1,3.2-6.2l.7-2.5,8,.8c2.2-.7,11.1-3.5,17.3-8.8,7-5.9,9.8-13.5,9.8-13.6l.9-2.5,2.6.4c9,1.5,33.3,4.8,42.6,2.8,3.6-8.1,4.2-14.3,1.8-18.9-2.4-4.8-8.4-8.3-17.9-10.4l-70.1,25.3-2.7,21.4Z"/>
      </g>
      <g>
        <line class="cls-1" x1="654.5" y1="330.9" x2="642.6" y2="364.7"/>
        <path class="cls-15" d="M642.6,367.8c-.3,0-.7-.1-1-.2-1.6-.6-2.5-2.3-1.9-4l11.9-33.9c.6-1.6,2.3-2.5,4-1.9,1.6.6,2.5,2.3,1.9,4l-11.9,33.9c-.5,1.3-1.7,2.1-3,2.1Z"/>
      </g>
      <path class="cls-15" d="M679,406c-.4,0-.8-.2-1.1-.5l-6-6c-.6-.6-.6-1.6,0-2.2s1.6-.6,2.2,0l6,6c.6.6.6,1.6,0,2.2-.3.3-.7.5-1.1.5Z"/>
      <path class="cls-15" d="M671.3,409c-.4,0-.8-.2-1.1-.5l-6-6c-.6-.6-.6-1.6,0-2.2s1.6-.6,2.2,0l6,6c.6.6.6,1.6,0,2.2-.4.3-.8.5-1.1.5Z"/>
      <path class="cls-15" d="M784.7,380.2c-.7,0-1.4-.5-1.5-1.3l-1.2-7.1,1.8-12.9c.1-.9.9-1.5,1.8-1.3.9.1,1.5.9,1.3,1.8l-1.7,12.4,1.1,6.7c.1.8-.4,1.7-1.3,1.8-.2-.1-.3-.1-.3-.1Z"/>
      <path class="cls-15" d="M778.1,380.2c-.5,0-.9-.2-1.2-.6l-3.5-4.5,1.9-18.5c.1-.9.8-1.5,1.7-1.4s1.5.8,1.4,1.7l-1.7,17.3,2.8,3.5c.5.7.4,1.7-.3,2.2-.4.2-.8.3-1.1.3Z"/>
      <path class="cls-15" d="M727.4,228.6l-3.4-10.3c-.3-.8.2-1.7,1-2s1.7.2,2,1l2.3,7c1-1,2.7-3.2,4.3-7.6.1-.2.2-.8.4-1.5,1.2-5,3.9-16.7,11-19.5,5.4-2.1,12.5,3.2,19.3,8.2,3.8,2.8,7.5,5.5,9.8,6.1,4.2,1,7.6.8,10.1-.8,3.3-2,4.1-5.5,4.1-5.5.2-.8,1-1.4,1.9-1.2.8.2,1.4,1,1.2,1.9,0,.2-1.1,4.8-5.5,7.5-3.3,2-7.5,2.4-12.5,1.2-3-.7-6.7-3.5-10.9-6.6-5.6-4.1-12.6-9.3-16.3-7.8-5.6,2.1-8.1,13.1-9.1,17.3-.2,1-.3,1.5-.5,1.8-3.3,9.1-7,10.4-7.7,10.5l-1.5.3Z"/>
      <path class="cls-15" d="M777.7,458h0c-.9,0-1.6-.8-1.6-1.6,0-.5.3-11.6-9.5-12.8-5.9-.8-7.5-4.1-8.8-7.1-1.5-3.4-3.1-6.9-11.7-8.3-16.7-2.7-42.8,1.3-43.1,1.3-.9.1-1.6-.5-1.8-1.3-.1-.9.5-1.6,1.3-1.8,1.1-.2,26.9-4.1,44.1-1.3,10.2,1.7,12.3,6.3,14,10.1,1.3,2.9,2.2,4.8,6.4,5.3,10,1.3,12.4,11,12.2,16,.1.8-.6,1.5-1.5,1.5Z"/>
    </g>
    <rect class="cls-16" x="835.4" y="440.7" width="117.4" height="64.4"/>
    <rect class="cls-4" x="844.2" y="448.9" width="108.6" height="56.2"/>
    <path class="cls-15" d="M955.9,508.2h-123.6v-70.6h123.7v70.6h-.1ZM838.5,502h111.2v-58.2h-111.2v58.2Z"/>
    <path class="cls-15" d="M950.9,461.2h-113.8c-1.1,0-2.1-.9-2.1-2.1s.9-2.1,2.1-2.1h113.8c1.1,0,2.1.9,2.1,2.1s-.9,2.1-2.1,2.1Z"/>
    <path class="cls-16" d="M406,502.4l770.3.8-16.2,21.8v323.3s-705.5-.3-756.2-.3c5.3-10.6,0-23.6,0-23.6l1.6-300.6-15.4.1.4-21.5h15.5Z"/>
    <polygon class="cls-14" points="1160.2 529.1 1160.2 848.2 417.8 847.5 419.4 847 419.4 528 1160.2 529.1"/>
    <path class="cls-15" d="M1163.3,851.4h-69.4c-1.7,0-3.1-1.4-3.1-3.1s1.4-3.1,3.1-3.1h63.2v-333.9h18.4v-5.8H393.8l.1,4.7,14.8-.1v334.7h588.4c1.7,0,3.1,1.4,3.1,3.1s-1.4,3.1-3.1,3.1H402.5v-334.6l-14.7.1-.3-17.2h794.2v18.3h-18.4v333.8h0Z"/>
    <g>
      <g>
        <path class="cls-16" d="M1023.2,562.4s-3.4,14.9,1.6,25.2c2.9,5.9-4.1,10.5,2.9,20.7,2.5,3.6,6.9,7.5,12.6,10.1,6.7,3,17,5.2,17,5.2l4.5,10.2,27.4,6.3-1.7-9.3s2-6.3-6.9-15.5c-4.9-5-4.9-13-2.3-22.1,5.5-19.3,10.1-36-8-49.7-7.6-5.9-39.2-5.9-47.1,18.9Z"/>
        <path class="cls-16" d="M1099,650.4l-42.7-9.8-4.5-10.2c-3.9-1-9.9-2.7-14.6-4.8-6.5-2.9-12.2-7.6-15.8-12.8-6.1-8.8-4.7-15.6-3.9-19.7.1-.7.3-1.7.3-2.1-6.1-12.5-2.6-28.5-2.2-30.3l.2-.6c3.9-12.3,13.2-21.3,26.1-25.3,12.1-3.8,26.4-2.7,33.3,2.5,22.6,17.1,16.3,38.9,10.8,58.1-1.4,5-2.5,11.6.4,14.6,8.9,9.2,9.6,17,9.2,20.9l3.4,19.5ZM1067.4,627.2l12.3,2.8.3-.9c0-.7-.4-3.7-4.9-8.3-6.5-6.7-7.9-16.7-4.2-29.7,5.8-20.2,8.2-31.2-5.3-41.4-1.7-1.2-10.1-3-19.5,0-7.9,2.6-13.1,7.5-15.5,14.8-.8,3.7-1.9,13.6,1.1,19.8,2.3,4.7,1.5,9,.9,11.9-.6,3-.9,4.4,1.4,7.8,2,2.9,5.5,5.7,9.4,7.4,5.9,2.6,15.3,4.6,15.4,4.7l3.9.8,4.7,10.3ZM1080,629.2h0ZM1017.8,591.1h0Z"/>
      </g>
      <g>
        <path class="cls-16" d="M1087.7,846.7s5.4,11.1,1.2,19.1h-29l-4.2-20.5,14.4-3,17.6,4.4Z"/>
        <path class="cls-16" d="M1093.6,873.6h-40.1l-7-34.4,23.8-4.9,22.8,5.7,1.6,3.3c.7,1.5,6.9,15,1.1,26.1l-2.2,4.2ZM1066.3,858h16.4c-.1-1.6-.4-3.3-.9-4.8l-11.9-3-5,1,1.4,6.8Z"/>
      </g>
      <g>
        <path class="cls-16" d="M1049.8,841.8s-14.2,9.8-19.7,14.3c-2.6,2.1-9.4,5.6-12.1,7.9-3.1,2.7-2,4.1-2,4.1,0,0,26.1,2,46.7,0,17.9-1.7,1.6-25.8,1.6-25.8l-14.5-.5Z"/>
        <path class="cls-16" d="M1041.4,876.8c-13.7,0-25.2-.8-25.9-.9l-3.4-.3-2.1-2.7c-4.5-5.8,0-12.2,3-14.8,2-1.7,4.8-3.4,7.7-5.1,1.7-1,3.8-2.3,4.6-2.9,5.7-4.6,19.6-14.2,20.2-14.6l2.1-1.5,21,.8,2.2,3.3c2.8,4.2,11.6,18.5,6.6,29.1-1.4,2.9-5,7.9-13.9,8.8-7.2.5-15,.8-22.1.8ZM1036.3,861.1c8,.1,17.4,0,25.7-.8.7-.1,1.1-.2,1.4-.2.2-1.9-1.3-6.1-3.5-10.1l-7.7-.3c-3.8,2.6-11.5,8-15.9,11.4Z"/>
      </g>
      <g>
        <path class="cls-16" d="M1021.7,652.2s11.7,5.7,7.4,11.5c-6.2,8.4-16.4,13-23.8,3.5-6.7-8.8-9.6-32.2-9.6-32.2l-7.5-15.1,4.5-8.2,8.7-1.6,6.1,8.3-1.9,10.5s3.5,6.6,7.1,12.8"/>
        <path class="cls-16" d="M1015,680.3c-6,0-11.6-3-15.8-8.4-7-9.2-10.2-29-11-34.7l-8.7-17.6,8.2-15,17.2-3.1,11,15-2,11.2c1.3,2.4,3.5,6.4,5.6,10.2,1.3,2.2,1.4,4.7.5,6.9,1.7-.4,3.5-.2,5.2.6,2.5,1.2,10.6,5.7,12.4,12.9.9,3.5.1,7.1-2.1,10.1-5.5,7.5-12.9,11.9-20.2,12-.2-.1-.3-.1-.3-.1ZM1005.2,644.3c1.6,7.3,3.8,14.8,6.3,18.1,1.8,2.3,3,2.3,3.4,2.3,1.5,0,3.8-1.2,6.2-3.6-.9-.7-2-1.4-2.9-1.9-3.7-1.8-5.3-6.2-3.7-10-3.3.8-6.8-.6-8.5-3.7-.3-.3-.5-.7-.8-1.2ZM1022.5,662.4h0ZM997,620l1.7,3.4.6-3.1-1.3-1.7h-.2l-.8,1.4Z"/>
      </g>
      <path class="cls-16" d="M1067.9,857.1l-30.2-2.7-.9-6c-.1-.7-2.7-17.7-3.3-27.6-.2-3.4-1.8-8.1-3.5-13.1-2.2-6.6-4.8-14.2-5.1-21.9-.6-12.8,2.6-40.8,2.7-42l.7-6.6,77.4-4-5.6,57.2c.1,2.7.4,14.6-.6,26.7-1.1,13.3-3.6,31.4-3.7,32.2l-.9,6.3-27,1.5ZM1051.3,840l16.9,1.5,13-.7c.9-6.5,2.1-16.8,2.8-24.9,1-12.5.5-25.3.5-25.4v-.5l.1-.5,3.9-39.7-46,2.4c-.9,9-2.3,24.9-2,33,.2,5.5,2.3,11.6,4.3,17.6s4,11.7,4.3,17.2c.2,5.6,1.4,14.2,2.2,20Z"/>
      <path class="cls-16" d="M1109.8,766.9l-9.2-1.7c-.1,0-12.8-2.3-38-4.8-7.6-.8-16.2-.9-23.1-1-5.5-.1-9.8-.2-12.5-.5l-7.5-1,7-75.1-3.7-1.2c-.8-.2-19.5-6.3-19.7-28.8v-4.5l3.9-2.3s5.8-3.5,13.5-11.1c13-13,21.5-20,27.8-22.8,5.8-2.6,23.4-4.3,30.7-5l4.4-.4,2.1,2.9c.3.3,1.4,1,3.2,1.6,5.4,1.7,13,6.4,18.9,19.2,7.9,17.4,11.7,43.9,11.9,45.1l.6,4.7-12.6,9.1c.6,7.7,1.8,24.1,2,37.6.3,17.7.3,30.5.3,30.6v9.4h0ZM1036.5,743.8c1.1,0,2.1,0,3.3.1,7.2.1,16.2.3,24.4,1.1,13.5,1.4,23.5,2.6,30,3.5,0-5.4-.1-12.7-.2-21.3-.3-17.4-2.3-40.7-2.3-40.9l-.4-4.4,12.1-8.7c-1.4-8-4.7-24.8-9.9-36.2-3.8-8.3-7.8-10.3-9.3-10.8-2.8-.9-5.1-2.1-6.7-3.1-9.6.9-20.3,2.4-22.7,3.4-4.3,1.9-12,8.5-23.1,19.5-5,5-9.4,8.5-12.4,10.7.9,4.2,3.2,6.8,5.1,8.3l14.6-11.4c3.4-2.6,8.3-2,10.9,1.4,2.6,3.4,2,8.3-1.4,10.9l-5.1,4-6.9,73.9Z"/>
      <g>
        <path class="cls-15" d="M1021.9,576.5s-13-3.4-6.6-16.1c1.7-3.5,8.9-12.4,8.9-12.4,0,0-1.7-11.8,14.4-11.5,16.1.3,24,1.6,28.2,2,8.4.7,11.5,15,19.8,15.7s-2,25.4,3.2,30.9-13.8,19.3-13.8,19.3c0,0-10.7-.2-17.6,0-3,.1,3.5-5.4,0-5.8,0,0,.2-11.2-5.7-11.1-5.8,0-8.2,7-8.2,7,0,0-22-11.1-22.6-18Z"/>
        <path class="cls-16" d="M1077.7,609.6h-1.7c-.1,0-10.6-.2-17.3,0h-.2c-3.1,0-4.6-1.9-5.1-2.8-1.3-2.2-.8-4.4-.1-6v-2.3c0-2.1-.4-4.6-1-5.8-1.6.6-2.7,3.4-2.7,3.4l-1.9,5.6-5.3-2.7c-8-4-20.7-11.3-24.5-18.7-2.6-1.2-6.3-3.6-8.3-7.9-1.3-3-2.2-7.9,1.1-14.5,1.5-3.1,6-8.9,8.3-11.8.1-2.4.8-6,3.6-9.2,3.5-3.9,8.9-5.9,16.1-5.7,12.9.2,20.8,1.1,25.5,1.7,1.2.1,2.2.3,3.1.3,6.4.6,10.4,5.7,13.6,9.9,2.1,2.8,4.3,5.7,6.2,5.8,2.4.2,4.4,1.2,5.8,3,3.4,4.2,2.5,10.7,1.5,18.4-.5,3.6-1.3,9.6-.6,11.3,1.6,1.8,2.4,4.1,2.1,6.6-.2,2.6-2.4,9.8-16.8,20.3l-1.4,1.1ZM1066.1,599.1c3.3,0,6.4,0,8.2.1,5.3-4,10.1-9,11-11.3-3.3-4.4-2.3-11.4-1.3-18.8.4-3,1-7.7.8-9.9-5.7-1.1-9.3-5.8-12.2-9.7-2.1-2.8-4.3-5.7-6.2-5.8-.9-.1-2-.2-3.4-.4-4.5-.5-12.1-1.4-24.5-1.6-3.9-.1-6.7.7-8,2.2-1.3,1.4-1.1,3.5-1.1,3.5l.4,2.4-1.6,1.6c-2.8,3.5-7.3,9.4-8.3,11.4-.8,1.6-1.6,3.9-.9,5.6.8,1.8,3.4,3,4.3,3.2l3.6.9.2,3.5c.9,2.2,7.8,7.3,15.5,11.7,2.2-2.8,5.6-5.2,10.1-5.2h.1c2.5,0,4.8.9,6.5,2.7,2.9,3,3.9,7.7,4.2,10.9.2.3.4.6.5.9.4.8.6,1.6.7,2.4.5-.3,1-.3,1.4-.3ZM1027.1,575.8h0Z"/>
      </g>
    </g>
    <path class="cls-15" d="M683.9,194.1h-197c-1.1,0-2.1-.9-2.1-2.1s.9-2.1,2.1-2.1h196.9c1.1,0,2.1.9,2.1,2.1s-.9,2.1-2,2.1Z"/>
    <path class="cls-15" d="M601.3,178.6h-31.7c-1.1,0-2.1-.9-2.1-2.1s.9-2.1,2.1-2.1h31.7c1.1,0,2.1.9,2.1,2.1s-1,2.1-2.1,2.1Z"/>
    <path class="cls-15" d="M1077.2,400.5h-196.9c-1.1,0-2.1-.9-2.1-2.1s.9-2.1,2.1-2.1h196.9c1.1,0,2.1.9,2.1,2.1s-.9,2.1-2.1,2.1Z"/>
    <path class="cls-15" d="M1075.8,229.4h-52.5c-1.1,0-2.1-.9-2.1-2.1s.9-2.1,2.1-2.1h52.5c1.1,0,2.1.9,2.1,2.1s-1,2.1-2.1,2.1Z"/>
    <path class="cls-15" d="M989.8,229.4h-109.8c-1.1,0-2.1-.9-2.1-2.1s.9-2.1,2.1-2.1h109.8c1.1,0,2.1.9,2.1,2.1s-1,2.1-2.1,2.1Z"/>
    <path class="cls-15" d="M1076.9,385h-196.9c-1.1,0-2.1-.9-2.1-2.1s.9-2.1,2.1-2.1h196.9c1.1,0,2.1.9,2.1,2.1s-.9,2.1-2.1,2.1Z"/>
    <ellipse class="cls-15" cx="747.81" cy="236.27" rx="2.1" ry="1.4" transform="translate(31.25 555) rotate(-41.51)"/>
    <rect class="cls-16" x="517.1" y="449.1" width="22.4" height="52.8"/>
    <rect class="cls-17" x="521.9" y="448.9" width="13.7" height="50.4"/>
    <path class="cls-15" d="M758.7,234.7c-.4,0-.7-.1-1-.4-4.2-3.6-13.6-4.7-13.7-4.7-.9-.1-1.5-.9-1.4-1.7.1-.9.9-1.5,1.7-1.4.4.1,10.4,1.3,15.3,5.4.7.6.7,1.5.2,2.2-.2.4-.6.6-1.1.6Z"/>
    <path class="cls-15" d="M779.6,241.2c-.5,0-1-.2-1.3-.7-2.1-3.2-7.9-3-7.9-3-.8,0-1.6-.6-1.6-1.5s.6-1.6,1.5-1.6c.3,0,7.6-.2,10.7,4.4.5.7.3,1.7-.4,2.2-.4.2-.7.2-1,.2Z"/>
    <path class="cls-15" d="M750.2,237.3h-.2c-.4-.1-.7-.5-.6-.9,0-.2,0-.4-.1-.6-.3-.4-.8-.7-1.4-.7-.9-.1-1.7.3-1.7.3-.4.2-.9.1-1.1-.3-.2-.4-.1-.8.3-1.1.1-.1,1.2-.6,2.6-.5,1,.1,2,.7,2.5,1.4.4.6.5,1.2.4,1.8,0,.4-.3.6-.7.6Z"/>
    <ellipse class="cls-15" cx="769.36" cy="241.81" rx="2.1" ry="1.4" transform="translate(14.07 524.52) rotate(-37.97)"/>
    <path class="cls-15" d="M772.2,243.3h-.2c-.4-.1-.6-.6-.5-1,.1-.2,0-.4-.1-.6-.2-.4-.8-.7-1.3-.8-.9-.2-1.7.2-1.7.2-.4.2-.9,0-1-.4-.2-.4,0-.8.4-1,.1-.1,1.3-.6,2.6-.3,1,.2,1.9.8,2.4,1.5.4.6.4,1.2.3,1.9-.2.2-.5.5-.9.5Z"/>
    <path class="cls-15" d="M982.5,657.1c-.5,0-1.1-.2-1.5-.6-13.3-13.2-22.4-21-60.7-50.5-57.2-44.1-66.3-40.9-93.4-31.4-18.8,6.6-47.3,16.5-106.5,14.6-73.5-2.4-91.1,10.6-102.9,24.2-.8.9-2.1,1-2.9.2-.9-.8-1-2.1-.2-2.9,12.4-14.3,30.8-28,106.1-25.6,58.4,1.9,86.4-7.9,105-14.4,27.9-9.8,38.4-13.4,97.3,32.1,38.5,29.7,47.6,37.5,61,50.8.8.8.8,2.1,0,2.9-.2.4-.8.6-1.3.6Z"/>
    <path class="cls-15" d="M969.2,677.9c-.9,0-1.8-.6-2-1.6-.2-.7-.7-3.3-1.5-7.7-11.2-57.7-16.8-79.8-19.6-87.1l-2.9,17.5c-.2,1.1-1.3,1.9-2.4,1.7-1.1-.2-1.9-1.3-1.7-2.4l3.2-19.6c.2-1,.7-4,3.1-4,3.1-.1,6.2-.1,24.3,93.2.8,4,1.3,6.9,1.5,7.5.3,1.1-.4,2.2-1.5,2.5-.2,0-.3,0-.5,0Z"/>
    <path class="cls-15" d="M909.7,609.9c-1,0-1.8-.7-2-1.6-.1-.4-8.7-39.3-33.3-48-1.1-.4-1.6-1.6-1.3-2.7.4-1.1,1.6-1.6,2.7-1.3,11.1,4,20.9,14.1,28.2,29.3,5.5,11.3,7.6,21.4,7.7,21.8.2,1.1-.5,2.2-1.6,2.5h-.4Z"/>
    <path class="cls-15" d="M878.7,617.3l-1.1-2.9c-1.4-3.6-6.2-13.7-10.9-16.2-3.8-2-8.8,4.7-10.2,7.2-.6,1-1.8,1.4-2.8.8-1-.6-1.4-1.8-.8-2.8,2.8-4.9,9.2-12.4,15.8-8.9,5.3,2.8,9.6,11,11.6,15.5l9.7-9.4c.8-.8,2.1-.8,2.9,0,.8.8.8,2.1,0,2.9l-14.2,13.8Z"/>
    <path class="cls-15" d="M989.7,580h-.4c-1.1-.2-1.9-1.3-1.7-2.4,1.1-6.1-1.2-7.4-6-10.1-.9-.5-1.9-1.1-2.9-1.7-.6-.4-1.2-.5-1.9-.3-2.7.9-5.8,6.4-7,9.6-.4,1.1-1.6,1.6-2.7,1.2-1.1-.4-1.6-1.6-1.2-2.7.4-1,4.1-10.2,9.6-12,1.8-.6,3.7-.4,5.4.7,1,.6,1.9,1.1,2.8,1.6,5,2.8,9.7,5.5,8.1,14.5-.2.9-1.1,1.6-2.1,1.6Z"/>
    <g>
      <path class="cls-16" d="M1023.2,562.4s-3.4,14.9,1.6,25.2c2.9,5.9-4.1,10.5,2.9,20.7,2.5,3.6,6.9,7.5,12.6,10.1,6.7,3,17,5.2,17,5.2l4.5,10.2,27.4,6.3-1.7-9.3s2-6.3-6.9-15.5c-4.9-5-4.9-13-2.3-22.1,5.5-19.3,10.1-36-8-49.7-7.6-5.9-39.2-5.9-47.1,18.9Z"/>
      <path class="cls-15" d="M1093.1,644.3l-33.6-7.7-4.5-10.2c-3.2-.7-10.6-2.6-16-5-5.7-2.6-10.8-6.7-13.9-11.2-4.9-7.2-3.9-12.4-3.2-16.1.5-2.3.7-3.6,0-4.9-5.5-11.2-2-26.7-1.9-27.3l.1-.2c3.4-10.8,11.6-18.7,23-22.3,11.8-3.7,24-2,29,1.8,20,15.2,14.5,34.5,9.2,53.1-2.6,9.1-2.1,15.4,1.5,19.1,8.4,8.6,8.2,15.4,7.8,17.8l2.5,13.1ZM1064,631.2l21.3,4.9-1-5.5.3-.6h0s1.1-4.9-6.2-12.4c-5.3-5.5-6.3-13.7-3-25.2,6-20.9,8.9-34.4-6.9-46.4-3.1-2.4-13.2-4-23.4-.8-6.6,2.1-15.3,6.9-18.9,18.1-.3,1.4-2.9,14.3,1.4,23.1,1.6,3.3,1,6.3.5,8.9-.7,3.4-1.3,6.4,2.2,11.4,2.5,3.6,6.7,7,11.3,9,6.3,2.8,16.3,5,16.4,5l1.6.3,4.4,10.2Z"/>
    </g>
    <g>
      <path class="cls-16" d="M1087.7,846.7s5.4,11.1,1.2,19.1h-29l-4.2-20.5,14.4-3,17.6,4.4Z"/>
      <path class="cls-15" d="M1090.8,869h-33.4l-5.3-26.1,18.1-3.8,19.7,4.9.6,1.3c.2.5,6,12.6,1.2,21.9l-.9,1.8ZM1062.5,862.7h24.4c1.5-4.8-.4-10.8-1.4-13.3l-15.4-3.8-10.7,2.2,3.1,14.9Z"/>
    </g>
    <g>
      <path class="cls-16" d="M1049.8,841.8s-14.2,9.8-19.7,14.3c-2.6,2.1-9.4,5.6-12.1,7.9-3.1,2.7-2,4.1-2,4.1,0,0,26.1,2,46.7,0,17.9-1.7,1.6-25.8,1.6-25.8l-14.5-.5Z"/>
      <path class="cls-15" d="M1041.4,872.1c-13.5,0-24.9-.8-25.6-.9l-1.4-.1-.8-1.1c-.3-.4-2.8-3.9,2.4-8.4,1.7-1.4,4.4-3.1,7.1-4.7,2-1.2,4.1-2.5,5.1-3.3,5.6-4.5,19.3-14,19.9-14.4l.9-.6,17.1.6.9,1.3c1.1,1.6,10.4,15.8,6.2,24.5-1.2,2.5-3.9,5.5-10.1,6.1-7.1.8-14.7,1-21.7,1ZM1021.4,865.3c8.6.5,26.3,1.1,41-.3,4.1-.4,4.8-2,5.1-2.6,1.9-3.9-2.1-12.4-4.9-17l-11.8-.4c-3.1,2.2-14.1,9.8-18.7,13.5-1.4,1.1-3.6,2.4-5.9,3.8-1.7,1-3.5,2.1-4.8,3Z"/>
    </g>
    <g>
      <path class="cls-16" d="M1021.7,652.2s11.7,5.7,7.4,11.5c-6.2,8.4-16.4,13-23.8,3.5-6.7-8.8-9.6-32.2-9.6-32.2l-7.5-15.1,4.5-8.2,8.7-1.6,6.1,8.3-1.9,10.5s3.5,6.6,7.1,12.8"/>
      <path class="cls-15" d="M1015,675.6c-3.3,0-7.9-1.2-12.1-6.6-6.7-8.7-9.7-29.5-10.2-33.2l-8-16.1,6-10.9,12.1-2.2,8.1,11-1.9,10.8c1.1,2,3.8,7,6.5,11.8.9,1.5.4,3.4-1.1,4.3-1.5.9-3.4.4-4.3-1.1-3.6-6.2-7.1-12.9-7.1-12.9l-.5-.9,1.8-10.2-4.2-5.7-5.3,1-3,5.5,7,14.1.1.5c.8,6.3,3.9,24.1,9,30.7,2.1,2.7,4.5,4.1,7.1,4.1h.1c3.7,0,8.2-2.9,11.6-7.5.4-.5.3-.8.3-1.1-.5-1.9-4.2-4.6-6.6-5.8-1.5-.8-2.2-2.6-1.4-4.2.8-1.5,2.6-2.2,4.2-1.4,1.4.7,8.6,4.4,9.9,9.9.5,2.2.1,4.3-1.3,6.2-4.6,6.3-10.8,10-16.5,10.1-.2-.2-.3-.2-.3-.2Z"/>
    </g>
    <g>
      <path class="cls-16" d="M1035.3,744.7s-3.2,28.4-2.7,40.8c.5,12.3,8,25.2,8.6,34.9.5,9.7,3.2,26.8,3.2,26.8l23.6,2.1,20-1.1s2.6-18.5,3.7-31.7c1.1-13.2.5-26.3.5-26.3l4.8-48.7-61.7,3.2Z"/>
      <path class="cls-15" d="M1068,852.4l-26.3-2.4-.4-2.4c-.1-.7-2.7-17.4-3.3-27.1-.2-4.1-1.9-9-3.7-14.3-2.1-6.3-4.6-13.5-4.9-20.6-.5-12.4,2.6-40.1,2.7-41.3l.3-2.6,68-3.5-5.1,52.1c.1,1.8.5,14.1-.5,26.5-1,13.1-3.7,31.7-3.7,31.9l-.4,2.5-22.7,1.2ZM1047.2,844.3l21,1.9,17.2-.9c.8-5.5,2.5-18.9,3.3-29,1-12.8.5-25.8.5-26v-.4l4.4-45.1-55.4,2.9c-.8,7.3-2.8,27.9-2.4,37.7.3,6.2,2.5,12.6,4.6,18.9,1.9,5.7,3.7,11.1,4,16,.4,7.1,2,18.9,2.8,24Z"/>
    </g>
    <path class="cls-3" d="M1043.8,744.7s-2.7,28.4-2.2,40.8c.4,12.3,7.7,25.2,8.2,34.9.4,9.7,2.7,26.8,2.7,26.8l20.5,2.1,16.6-1.1s2.2-18.5,3.1-31.7c.9-13.2.4-26.3.4-26.3l4-48.7-53.3,3.2Z"/>
    <path class="cls-15" d="M1068,852.4l-26.3-2.4-.4-2.4c-.1-.7-2.7-17.4-3.3-27.1-.2-4.1-1.9-9-3.7-14.3-2.1-6.3-4.6-13.5-4.9-20.6-.5-12.4,2.6-40.1,2.7-41.3l.3-2.6,68-3.5-5.1,52.1c.1,1.8.5,14.1-.5,26.5-1,13.1-3.7,31.7-3.7,31.9l-.4,2.5-22.7,1.2ZM1047.2,844.3l21,1.9,17.2-.9c.8-5.5,2.5-18.9,3.3-29,1-12.8.5-25.8.5-26v-.4l4.4-45.1-55.4,2.9c-.8,7.3-2.8,27.9-2.4,37.7.3,6.2,2.5,12.6,4.6,18.9,1.9,5.7,3.7,11.1,4,16,.4,7.1,2,18.9,2.8,24Z"/>
    <path class="cls-16" d="M1010.1,653.4s18.8-18.6,24.2-22.8c3.2-2.6,17.6-14.4,17.6-14.4l32.5-.9s12.9,2.9,15.6,13.6c2.7,10.7,8.9,25.1,7.8,38.5-1.1,13.4-6.4,16.1-6.4,16.1,0,0,.7,30,1.8,38.1,1.1,8-2.6,35.4-2.6,35.4,0,0-60.2-4.2-72.5-5.8l5.7-75.2,4.6-12.3-13.8,9.5c-.1,0-8-5.8-14.5-19.8Z"/>
    <path class="cls-17" d="M1014.6,661.8s10-6.6,16.8-13.8c13.8-14.7,25.4-23.1,31.7-26.6,5.2-4,15.5-5.2,15.5-5.2l9.5,3.7s11.1,5.1,13.5,15.8,10.7,39.2,10.7,39.2l-13,10.7s-1.7,29-.7,37.1c1,8,1,35.2,1,35.2,0,0-37.1-6.9-62.6-6.7l5.1-75.2,2-17-18.6,14.5s-5.7-1.9-8.9-5.7c-1.8-2.3.1-.7-2-6Z"/>
    <path class="cls-15" d="M1105.1,761.3l-3.7-.7c-.1,0-12.9-2.3-38.3-4.9-7.8-.8-16.5-.9-23.5-1-5.3-.1-9.6-.2-12-.5l-3-.4,7.6-81.2-6.4,5-1.6-.5c-.2-.1-4.2-1.3-8.2-5-3.7-3.4-8.1-9.4-8.2-19.4v-1.8l1.6-.9c.1,0,6.3-3.7,14.5-11.9,12.4-12.4,20.8-19.3,26.4-21.8,5.5-2.4,26.8-4.4,29.2-4.6l1.6-.1,1,1.2h0s1.6,1.7,5.2,2.8c4.5,1.4,10.9,5.4,16,16.7,7.7,16.8,11.3,42.7,11.5,43.8l.3,1.9-12.5,9c.5,5.8,1.9,25,2.2,39.9.3,17.7.3,30.4.3,30.6v3.8h0ZM1031.4,748.3c2.2.1,5.1.1,8.3.2,7.1.1,16,.3,24,1.1,18.1,1.8,29.7,3.5,35.1,4.3,0-5-.1-14.8-.3-26.8-.3-17.5-2.3-41-2.3-41.2l-.2-1.8,12.3-8.8c-1-6.2-4.6-26.7-10.7-40.2-4.4-9.6-9.5-12.5-12.2-13.3-3.3-1-5.5-2.5-6.8-3.5-8.8.8-22.6,2.5-25.9,3.9-4.9,2.2-12.9,8.9-24.5,20.5-6.4,6.4-11.6,10.2-14.1,11.8.8,10.3,7.5,14.7,10.5,16.1l17.1-13.4c1.4-1.1,3.3-.8,4.4.5,1.1,1.4.8,3.3-.5,4.4l-6.7,5.2-7.5,81Z"/>
    <g>
      <line class="cls-1" x1="1071.8" y1="849.3" x2="1079.3" y2="768.8"/>
      <path class="cls-15" d="M1071.8,852.4h-.3c-1.7-.2-3-1.7-2.8-3.4l7.5-80.5c.2-1.7,1.7-3,3.4-2.8s3,1.7,2.8,3.4l-7.5,80.5c-.1,1.6-1.5,2.8-3.1,2.8Z"/>
    </g>
    <path class="cls-15" d="M1064.9,601.3c-2.9,0-5.2-.4-5.3-.4-1.1-.2-1.9-1.3-1.7-2.4.2-1.1,1.3-1.9,2.4-1.7,0,0,5.1.9,9.2-.1,4.5-1.1,7.3-1.9,7.4-1.9,1.1-.3,2.3.3,2.6,1.4.3,1.1-.3,2.3-1.4,2.6-.1,0-2.9.9-7.6,1.9-1.8.5-3.8.6-5.6.6Z"/>
    <path class="cls-15" d="M1053.2,606c-.8,0-1.6-.5-1.9-1.2-.5-1.1,0-2.3,1.1-2.7l3.7-1.6c-.4-5.6-2-10.7-3.5-10.8-2.8-.3-4.3,5.5-4.3,5.6l-.4,1.8-1.9-.3c-.9-.1-5.6-1.2-14.2-11.4-9-10.5-9.2-24.6-9.2-25.2,0-1.1.9-2.1,2.1-2.1h0c1.1,0,2.1.9,2.1,2.1,0,.1.2,13.2,8.2,22.6,4.8,5.7,8.2,8.1,10.1,9.2,1.3-3.2,3.9-6.8,8.1-6.4,6.1.6,7.1,12.5,7.3,16.2l.1,1.4-6.4,2.8c-.5-.1-.8,0-1,0Z"/>
    <path class="cls-15" d="M999,622.5c-.3,0-.6-.1-.8-.2-1-.5-1.5-1.7-1.1-2.7l8.8-19.9c.5-1.1,1.7-1.5,2.7-1.1,1,.5,1.5,1.7,1.1,2.7l-8.8,19.9c-.3.8-1.1,1.3-1.9,1.3Z"/>
    <path class="cls-15" d="M1021.9,576.5s-13-3.4-6.6-16.1c1.7-3.5,8.9-12.4,8.9-12.4,0,0-1.7-11.8,14.4-11.5,16.1.3,24,1.6,28.2,2,8.4.7,11.5,15,19.8,15.7s-2,25.4,3.2,30.9-13.8,19.3-13.8,19.3c0,0-10.7-.2-17.6,0-3,.1,3.5-5.4,0-5.8,0,0,.2-11.2-5.7-11.1-5.8,0-8.2,7-8.2,7,0,0-22-11.1-22.6-18Z"/>
    <path class="cls-15" d="M1040.9,614.3c-.4,0-.9-.2-1.2-.5-.6-.6-.5-1.6.1-2.2.9-.8,1-1.8.8-2.6-3.1,2.2-6.5,4.7-6.5,4.7-.7.5-1.7.4-2.2-.3s-.4-1.7.3-2.2c0,0,4.8-3.5,8.2-5.9l1.3-.9.9,1.3c1.1,1.6,2.4,5.4-.7,8.1-.2.4-.6.5-1,.5Z"/>
    <circle class="cls-15" cx="1020.8" cy="80.6" r="33.7"/>
    <circle class="cls-15" cx="1000" cy="116.9" r="33.7"/>
    <circle class="cls-15" cx="1018.7" cy="152.8" r="25.2"/>
    <circle class="cls-15" cx="1010.1" cy="179.4" r="13.3"/>
    <circle class="cls-15" cx="1006.5" cy="217.6" r="14.3"/>
    <path class="cls-6" d="M1046.9,365h-129.5c-8.1,0-14.7-6.6-14.7-14.7v-49.8c0-8.1,6.6-14.7,14.7-14.7h129.6c8.1,0,14.7,6.6,14.7,14.7v49.8c0,8.1-6.6,14.7-14.8,14.7Z"/>
    <rect class="cls-1" x="950.1" y="250.7" width="58.1" height="13.6"/>
    <path class="cls-15" d="M1008.2,266h-59.9v-17.1h61.7v8c0,1-.8,1.8-1.8,1.8s-1.8-.8-1.8-1.8v-4.3h-54.4v9.9h56.3c1,0,1.8.8,1.8,1.8s-.9,1.7-1.9,1.7Z"/>
    <path class="cls-15" d="M1076.1,238.8h-195.8c-1.1,0-2.1-.9-2.1-2.1s.9-2.1,2.1-2.1h195.8c1.1,0,2.1.9,2.1,2.1s-1,2.1-2.1,2.1Z"/>
    <path class="cls-16" d="M920.4,279s-5.2,23.8-.4,38.6c8.1,24.8,34.6,33.4,34.6,33.4l62.2-11.5s-9.2-18.4-3.5-36.3c5.8-17.9,1.2-24.2,1.2-24.2h-94.1Z"/>
    <path class="cls-10" d="M938.1,286.2s-16.2,14.9-11.8,29.7c7.4,24.8,33,35.1,33,35.1l57.4-11.5s-4.8-20.4-8.6-27.4c-3.9-6.9-9.1-8.6-9.1-8.6l-6.5,12.5-17.7-25-18.1-7.8-11.7,26.3-6.9-23.3Z"/>
    <path class="cls-15" d="M954.4,353.2l-.5-.2c-1.1-.4-27.6-9.3-35.9-34.7-5.2-16,17.9-32.2,18.9-32.9l2.1-1.5,9.6,24c.4,1.1-.1,2.3-1.2,2.7-1.1.4-2.3-.1-2.7-1.2l-7.6-19.1c-5.3,4.2-18.7,16-15.2,26.6,7.1,21.7,29.2,30.6,32.7,31.9l59.6-11c-1-4.5-3.5-15.4-6.8-22.2-2.6-5.4-5.8-8.7-7.8-10.3l-8,15.6-1.9-3.4c-.1-.1-7.3-13.3-10.7-17.9-3.3-4.5-9.6-10-9.6-10-.9-.8-1-2.1-.2-2.9.8-.9,2.1-1,2.9-.2.3.2,6.7,5.8,10.3,10.7,2.4,3.3,6.6,10.6,9,15l6.6-12.7,1.9,1.1c.3.2,6.7,3.9,11.2,13.4,4.4,9.2,7.4,24.6,7.5,25.3l.4,2.1-64.6,11.8Z"/>
    <path class="cls-15" d="M947.6,339.8c-.6,0-1.1-.2-1.5-.7-.3-.4-8.3-9-8-18.3.2-4.1,1.9-7.7,5.2-10.6,4.3-3.9,7.7-15.5,8.6-19.6l.8-3.7,2.7,2.7c.3.3,6.9,6.9,9.5,14.6.4,1.1-.2,2.3-1.3,2.6s-2.3-.2-2.6-1.3c-1.4-4-4-7.7-6-10.2-1.5,5.2-4.5,14-8.9,18-2.4,2.2-3.7,4.7-3.8,7.7-.3,7.5,6.8,15.2,6.8,15.3.8.8.7,2.2-.1,2.9-.3.5-.9.6-1.4.6Z"/>
    <path class="cls-15" d="M1101.1,713.8c-1.7,0-3-1.3-3.1-3-1.1-27.2-6.3-67.9-6.3-68.3-.2-1.7,1-3.3,2.7-3.5s3.3,1,3.5,2.7c.1.4,5.2,41.3,6.4,68.8.1,1.7-1.3,3.2-3,3.2-.1.1-.2.1-.2.1Z"/>
    <path class="cls-15" d="M791.6,378.5h-.2c-.9-.1-1.5-.9-1.4-1.7l1.7-16.7c.1-.9.9-1.5,1.7-1.4.9.1,1.5.9,1.4,1.7l-1.7,16.7c-.1.8-.7,1.4-1.5,1.4Z"/>
    <path class="cls-15" d="M935.5,344.7s1.7-22.5,20.2-26.5c25.2-5.5,31.1,10.4,31.1,10.4,0,0,22.5-10.4,32.2,1.2,9.8,11.5,1.2,19-4.6,21.3-5.7,2.2-78.9-6.4-78.9-6.4Z"/>
    <path class="cls-15" d="M598.7,372.1c-.5,0-1-.3-1.3-.8-.4-.7-.2-1.7.5-2.1l9-5.4,20.6-.6c.9,0,1.6.7,1.6,1.5,0,.9-.7,1.6-1.5,1.6l-19.7.6-8.3,5c-.4.2-.7.2-.9.2Z"/>
    <g>
      <line class="cls-1" x1="782.4" y1="315.9" x2="780.1" y2="344.1"/>
      <path class="cls-15" d="M780.1,347.2h-.3c-1.7-.1-3-1.6-2.9-3.4l2.3-28.2c.1-1.7,1.7-3,3.4-2.9s3,1.6,2.9,3.4l-2.3,28.2c-.2,1.7-1.5,2.9-3.1,2.9Z"/>
    </g>
    <g>
      <path class="cls-16" d="M921.1,338.6c0,14.2,8,25.7,17.9,25.7h80c9.9,0,17.9-11.5,17.9-25.7,0-.3-.1-.5-.1-.8,0,0-115.7.5-115.7.8Z"/>
      <path class="cls-15" d="M1019,366.3h-80c-11,0-19.9-12.4-19.9-27.7,0-2.1,1.9-2.1,3.3-2.1.9,0,2.1,0,3.7-.1,3.2,0,7.7-.1,13.1-.1,10.8-.1,25.3-.2,39.8-.3,28.9-.2,57.8-.3,57.8-.3h2v2.8c.2,15.4-8.8,27.8-19.8,27.8ZM923.3,340.6c.7,12.1,7.5,21.6,15.7,21.6h80c8.4,0,15.3-9.9,15.8-22.3-30.1.1-99,.5-111.5.7Z"/>
    </g>
    <path class="cls-15" d="M616.8,293.5h-128.7c-1.1,0-2.1-.9-2.1-2.1s.9-2.1,2.1-2.1h128.7c1.1,0,2.1.9,2.1,2.1s-1,2.1-2.1,2.1Z"/>
    <path class="cls-15" d="M533.9,504.5c-1.1,0-2.1-.9-2.1-2.1v-55c0-1.1.9-2.1,2.1-2.1s2.1.9,2.1,2.1v55c0,1.2-1,2.1-2.1,2.1Z"/>
    <path class="cls-15" d="M521.5,510.3c-1.1,0-2.1-.9-2.1-2.1v-50.4c0-1.1.9-2.1,2.1-2.1s2.1.9,2.1,2.1v50.4c0,1.2-1,2.1-2.1,2.1Z"/>
    <path class="cls-15" d="M527.8,477.6c-.6,0-1-.5-1-1v-19.3c0-.6.5-1,1-1s1,.5,1,1v19.3c.1.5-.4,1-1,1Z"/>
    <path class="cls-15" d="M351,868.8h-93.3c-10.1,0-18.1-1.7-23.6-5.1-5-3.1-7.8-7.7-7.8-12.9,0-5.9,3.5-12,9.7-16.6,6.5-4.9,15.1-7.5,24.2-7.5h63.1c1.1,0,2.1.9,2.1,2.1s-.9,2.1-2.1,2.1h-63.1c-17.6,0-29.8,10.5-29.8,20,0,3.7,2,7,5.9,9.4,4.7,3,12.1,4.5,21.4,4.5h93.3c5.4,0,9.9-1.2,12.9-3.4,2.4-1.8,3.8-4.2,3.8-6.7,0-5.4-5.7-10.8-16.7-10.8h-67.4c-1.1,0-2.1-.9-2.1-2.1s.9-2.1,2.1-2.1h67.4c13.7,0,20.9,7.5,20.9,14.9,0,3.9-1.9,7.5-5.5,10.1-3.7,2.6-9,4.1-15.4,4.1Z"/>
    <path class="cls-15" d="M851.7,951.4l-.8-.3-114.5-45.8,11.6-1.6c1.1-.2,111.2-15.6,120.2-17.3,1.7-.3,3.3.8,3.6,2.5s-.8,3.3-2.5,3.6c-7.5,1.4-80,11.6-108.9,15.7l92,36.8,97.9-15.4-66.5-26.3c-1.6-.6-2.4-2.4-1.8-4s2.4-2.4,4-1.8l87.8,34.7-122.1,19.2Z"/>
    <path class="cls-15" d="M1046,367.1h-133.7c-9.8,0-17.7-8-17.7-17.7v-54.8c0-9.8,8-17.7,17.7-17.7h133.7c9.8,0,17.7,8,17.7,17.7v54.8c.1,9.7-7.9,17.7-17.7,17.7ZM912.3,280.9c-7.5,0-13.6,6.1-13.6,13.6v54.8c0,7.5,6.1,13.6,13.6,13.6h133.7c7.5,0,13.6-6.1,13.6-13.6v-54.8c0-7.5-6.1-13.6-13.6-13.6h-133.7Z"/>
    <path class="cls-15" d="M831.3,922c-.5,0-1-.2-1.4-.6-.8-.8-.8-2.1-.1-2.9.2-.2,4.3-4.4,10.8-8.3,8.7-5.2,17.6-7.1,25.6-5.6,1.1.2,1.9,1.3,1.7,2.4-.2,1.1-1.3,1.9-2.4,1.7-17.1-3.2-32.5,12.5-32.7,12.6-.4.5-.9.7-1.5.7Z"/>
    <path class="cls-15" d="M897.6,929.1c-10.6,0-31.7-1.3-42.3-11.1-12.9-11.8-41.8-7.6-42-7.5-1.1.2-2.2-.6-2.4-1.7-.2-1.1.6-2.2,1.7-2.4,1.3-.2,31.1-4.6,45.5,8.6,13,11.9,45.3,9.8,45.7,9.8,1.2-.1,2.1.8,2.2,1.9.1,1.1-.8,2.1-1.9,2.2-.4.1-2.9.2-6.5.2Z"/>
    <path class="cls-15" d="M834.8,930.1c-1,0-1.8-.7-2-1.6-.2-1.1.5-2.2,1.6-2.5l10.4-2.3c1.1-.3,2.2.5,2.5,1.6.2,1.1-.5,2.2-1.6,2.5l-10.4,2.3h-.5Z"/>
    <rect class="cls-15" x="387.8" y="498.9" width="793.9" height="20.6"/>
  </g>
  <g id="Ebene_7" data-name="Ebene 7">
    <path class="cls-16" d="M617.9,698c-8.3,24.4-41.5,35.2-41.5,35.2,0,0-19.8-28.8-11.5-53.2s41.5-35.2,41.5-35.2c0,0,19.8,28.8,11.5,53.2Z"/>
    <path class="cls-12" d="M575.3,736.3l-1.1-1.6c-.2-.3-5.2-7.6-9.2-18-5.3-14-6.3-27-2.7-37.5,3.6-10.6,12.2-20.3,25-28.1,9.5-5.8,17.9-8.6,18.2-8.7l1.9-.6,1.1,1.6c.2.3,5.2,7.6,9.2,18,5.3,14,6.3,27,2.7,37.5-3.6,10.6-12.2,20.3-25,28.1-9.5,5.8-17.9,8.6-18.2,8.7l-1.9.6ZM605.3,648c-7,2.7-31.3,13.3-38,32.8-6.7,19.6,6.2,42.8,10.1,49.2,7-2.7,31.3-13.2,38-32.8h0c6.6-19.6-6.2-42.8-10.1-49.2Z"/>
    <path class="cls-5" d="M616.7,701.6c-7.6,22.4-36.3,33-36.3,33,0,0-16.4-25.8-8.8-48.3,7.6-22.4,36.3-33,36.3-33,0,0,16.4,25.9,8.8,48.3Z"/>
    <path class="cls-15" d="M580.3,797.2c-1.4,0-2.6-.9-3-2.3-5.5-20.8-7.2-42.4-4.8-64.2.2-1.7,1.7-2.9,3.4-2.8,1.7.2,3,1.7,2.8,3.4-2.3,21.1-.7,41.9,4.6,62,.4,1.7-.5,3.4-2.2,3.8-.3,0-.5.1-.8.1Z"/>
    <path class="cls-12" d="M575.6,733h-.2c-1.1-.1-1.9-1.1-1.8-2.2,5.5-50.8,30.9-86.7,31.2-87.1.7-.9,1.9-1.1,2.8-.5.9.7,1.1,1.9.5,2.8-.2.3-25.1,35.5-30.4,85.1-.2,1.1-1.1,1.9-2.1,1.9Z"/>
    <g>
      <path class="cls-16" d="M676.3,751.3c-23.8,17.6-62.3,6.1-62.3,6.1,0,0,.1-40.2,24-57.8,23.8-17.6,62.3-6.1,62.3-6.1,0,0-.2,40.2-24,57.8Z"/>
      <path class="cls-5" d="M672.8,753.9c-21.9,16.2-55.9,7.3-55.9,7.3,0,0,1.4-35.2,23.3-51.4s55.9-7.3,55.9-7.3c0,0-1.4,35.2-23.3,51.4Z"/>
      <path class="cls-12" d="M641.4,764.6c-1.8,0-3.6,0-5.4-.1-12.9-.7-22.6-3.6-23-3.7l-2.5-.7v-2.6c0-.4.1-10.6,3.2-23.1,4.1-16.8,11.8-29.8,22.2-37.5,10.4-7.7,25-11.3,42.3-10.3,12.9.7,22.6,3.6,23,3.7l2.5.7v2.6c0,.4-.1,10.6-3.2,23.1-4.1,16.8-11.8,29.8-22.2,37.5h0c-9.3,6.8-22,10.4-36.9,10.4ZM617.6,754.7c8.8,2.1,37.9,7.7,56.6-6.2,18.7-13.8,21.9-43.4,22.5-52.4-8.8-2.1-37.9-7.7-56.6,6.2-18.8,13.9-22,43.4-22.5,52.4ZM676.3,751.3h0Z"/>
      <path class="cls-15" d="M555.7,841.6c-.4,0-.7-.1-1.1-.2-1.6-.6-2.5-2.4-1.9-4,11-30.6,31.5-60.1,61.1-87.6,1.3-1.2,3.2-1.1,4.4.2,1.2,1.3,1.1,3.2-.2,4.4-28.8,26.9-48.8,55.5-59.5,85.2-.3,1.2-1.5,2-2.8,2Z"/>
      <path class="cls-15" d="M575.1,736.9l-1.3-1.9c-.8-1.2-20.6-30.4-11.9-56,3.6-10.7,12.3-20.5,25.2-28.4,9.6-5.9,18-8.6,18.3-8.8l2.2-.7,1.3,1.9c.8,1.2,20.6,30.4,11.9,56-3.6,10.7-12.3,20.5-25.2,28.4-9.6,5.9-18,8.6-18.3,8.7l-2.2.8ZM605.1,648.6c-7.4,2.9-30.8,13.3-37.3,32.4-6.5,19.1,5.7,41.6,9.8,48.4,7.4-2.9,30.8-13.3,37.3-32.4,6.5-19-5.7-41.6-9.8-48.4Z"/>
      <path class="cls-16" d="M556.2,730.5c9.4,17.3-1.7,41.6-1.7,41.6,0,0-26.4-3.8-35.9-21.1-9.4-17.3,1.7-41.6,1.7-41.6,0,0,26.4,3.7,35.9,21.1Z"/>
      <path class="cls-12" d="M555.6,774.1l-1.4-.2c-1.1-.2-27.5-4.1-37.3-22s1.2-42.2,1.7-43.3l.6-1.3,1.4.2c1.1.2,27.5,4.1,37.3,22h0c9.8,17.9-1.2,42.2-1.7,43.3l-.6,1.3ZM521.4,711.5c-2.1,5.2-8.9,24.5-1.2,38.6,7.7,14.1,27.6,18.8,33.1,19.9,2.1-5.2,8.9-24.5,1.2-38.6h0c-7.6-14.1-27.6-18.9-33.1-19.9Z"/>
      <path class="cls-5" d="M557.6,733c8.7,15.9-.3,37.5-.3,37.5,0,0-23-4.2-31.7-20.1s.3-37.5.3-37.5c0,0,23,4.2,31.7,20.1Z"/>
      <path class="cls-15" d="M590.7,804.4c-.5,0-1-.1-1.4-.4-14.6-7.7-27.7-18-38.8-30.7-1.1-1.3-1-3.3.3-4.4,1.3-1.1,3.3-1,4.4.3,10.6,12.1,23.1,22,37,29.3,1.5.8,2.1,2.7,1.3,4.2-.6,1.1-1.7,1.7-2.8,1.7Z"/>
      <path class="cls-12" d="M552.8,772.7c-.4,0-.8-.2-1.1-.5-25.7-29.3-32.7-62.2-32.8-62.6-.2-.8.3-1.6,1.1-1.7.8-.2,1.6.3,1.7,1.1.1.3,7,32.5,32.2,61.2.5.6.5,1.5-.1,2-.3.4-.7.5-1,.5Z"/>
      <path class="cls-15" d="M556.3,775.4l-2.3-.3c-1.1-.2-28.1-4.2-38.2-22.7s1.1-43.3,1.6-44.4l1-2.1,2.3.3c1.1.2,28.1,4.2,38.2,22.7s-1.1,43.3-1.6,44.4l-1,2.1ZM522.2,712.9c-2.3,6.2-7.9,23.7-.9,36.6,7,12.8,24.8,17.7,31.2,19,2.3-6.2,7.9-23.7.9-36.6-7-12.8-24.7-17.6-31.2-19Z"/>
      <path class="cls-15" d="M641.4,764.2c-1.8,0-3.5,0-5.4-.1-12.8-.7-22.5-3.6-22.9-3.7l-2.2-.7v-2.3c0-.4.1-10.6,3.1-23,4.1-16.7,11.8-29.6,22.1-37.3s24.9-11.2,42.1-10.3c12.8.7,22.5,3.6,22.9,3.7l2.2.7v2.3c0,.4-.1,10.6-3.1,23-4.1,16.7-11.8,29.6-22.1,37.3h0c-9.2,6.9-21.8,10.4-36.7,10.4ZM617.2,755c8.5,2.1,38.2,7.9,57.2-6.2,19-14.1,22.1-44.2,22.6-52.9-8.5-2.1-38.2-7.9-57.2,6.2s-22.1,44.2-22.6,52.9ZM676.3,751.3h0Z"/>
      <path class="cls-12" d="M616,754.1c-.5,0-1.1-.2-1.5-.6-.8-.8-.7-2.1.1-2.9,40.5-37.7,84.3-58.7,84.7-58.9,1-.5,2.2,0,2.7,1s0,2.2-1,2.7c-.4.2-43.7,20.9-83.7,58.2-.3.3-.8.5-1.3.5Z"/>
    </g>
    <g>
      <path class="cls-12" d="M634.5,788.3h-114.6s-.8,18.8,3.3,43.2c4.1,24.4,12.3,41.5,12.3,41.5,0,0,10.7,3.3,41.2,3.3s42.3-3.3,42.3-3.3c0,0,8.2-17.1,12.3-41.5,4-24.5,3.2-43.2,3.2-43.2Z"/>
      <path class="cls-12" d="M576.6,879.8c-30.7,0-41.8-3.3-42.3-3.4l-1.5-.4-.7-1.4c-.3-.7-8.4-17.8-12.6-42.5-4.1-24.5-3.4-43.1-3.3-43.9l.1-3.3h121.3l.1,3.3c0,.8.8,19.4-3.3,43.9-4.1,24.6-12.2,41.8-12.6,42.5l-.7,1.4-1.5.4c-.2.1-12.3,3.4-43,3.4ZM537.9,870c3.8.8,15.4,2.8,38.8,2.8s35.8-2,39.8-2.8c2-4.6,8-19.6,11.3-39.1,3-17.9,3.3-32.8,3.3-39.1h-107.8c0,6.4.3,21.3,3.3,39.1,3.3,19.6,9.3,34.5,11.3,39.1Z"/>
    </g>
  </g>
</svg>