<?xml version="1.0" encoding="UTF-8"?>
<svg id="Layer_1" data-name="Layer 1" xmlns="http://www.w3.org/2000/svg" viewBox="0 0 1216 810">
  <defs>
    <style>
      .cls-1 {
        fill: none;
      }

      .cls-1, .cls-2, .cls-3, .cls-4, .cls-5, .cls-6, .cls-7, .cls-8, .cls-9, .cls-10 {
        stroke-width: 0px;
      }

      .cls-2, .cls-3, .cls-7 {
        isolation: isolate;
      }

      .cls-2, .cls-6 {
        fill: #ebaa3a;
      }

      .cls-2, .cls-11, .cls-7 {
        opacity: .7;
      }

      .cls-3 {
        opacity: .6;
      }

      .cls-3, .cls-7 {
        fill: #999;
      }

      .cls-4 {
        fill: #dedcd2;
      }

      .cls-5 {
        fill: #afcd5f;
      }

      .cls-8 {
        fill: #454440;
      }

      .cls-9 {
        fill: #d76b00;
      }

      .cls-10 {
        fill: #fff;
      }
    </style>
  </defs>
  <g id="Ebene_11" data-name="Ebene 11">
    <g class="cls-11">
      <path class="cls-4" d="M945.7,612.4l1.1-383.6c0-44.6-36.2-80.8-80.8-80.8h-477.9c-44.6,0-80.8,36.2-80.8,80.8l-1.1,383.6h639.5Z"/>
    </g>
  </g>
  <g id="Ebene_7" data-name="Ebene 7">
    <path class="cls-8" d="M581.9,616.9h-134.3c-1.2,0-2.3-1-2.3-2.3s1-2.3,2.3-2.3h134.3c1.2,0,2.3,1,2.3,2.3s-1,2.3-2.3,2.3Z"/>
    <g>
      <g>
        <path class="cls-10" d="M392.3,574c-1.3-.8-2.8-1-4.5-.8.6-24.6-9.3-44.7-23.1-45.7-3.6-.3-7.2.8-10.5,3-13.8-14.1-31-19.6-41.9-12.2-12.5,8.5-12.2,31.1.2,51.5-3.1.6-5.8,2-7.7,4.3-7.3,8.4-1.9,25.1,12.1,37.4,12,10.5,31.8,13.7,42.7,11.7,10.9-2,19.3-3.7,29.5-18,9-12.9,9.4-27.5,3.2-31.2Z"/>
        <path class="cls-10" d="M352.6,632.1c-13.2,0-29.9-4.5-41.3-14.4-17.8-15.6-23.5-37.3-12.9-49.3.8-.9,1.6-1.7,2.5-2.4-10.4-22.3-8-44.8,6.6-54.8,13.1-8.9,31.9-5.2,48.2,9,3.1-1.1,6.3-1.5,9.5-1.3,17.3,1.2,29.7,20.8,31,47.5.1.1.3.1.4.2,2.8,1.6,6.4,5,7.8,11.7,2,9.4-1.2,21.5-8.4,31.6-12.3,17.4-23.8,19.5-34.9,21.5-2.5.5-5.4.7-8.5.7ZM323.7,523.4c-2.5,0-4.8.6-6.7,1.9-9.2,6.3-6,25.7,2.7,40l6.3,10.3-11.8,2.5c-1.4.3-2.4.8-3,1.5-1.5,1.7-1.5,5-.3,9,1.8,5.5,6,11.5,11.6,16.3,10,8.8,27.1,11.3,35.6,9.8,9.8-1.8,15.7-2.8,24-14.6,5.7-8.1,6.3-15.6,5.6-18.4l-8.6.9.2-9.7c.5-21.1-7.6-36.5-15.2-37-1.6-.1-3.4.4-5.2,1.6l-5.9,3.9-4.9-5c-8.1-8.2-17.3-13-24.4-13Z"/>
      </g>
      <g>
        <path class="cls-10" d="M307.9,573.9c-7.3,8.4-1.9,25.1,12.1,37.4,1.4,1.2,2.9,2.3,4.5,3.4h59c2.8-2.4,5.6-5.5,8.6-9.7,9-12.8,9.4-27.4,3.2-31.1-1.3-.8-2.8-1-4.5-.8.6-24.6-9.3-44.7-23.1-45.7-3.6-.3-7.2.8-10.5,3-13.8-14.1-31-19.6-41.9-12.2-12.5,8.5-12.2,31.1.2,51.5-3,.6-5.7,1.9-7.6,4.2Z"/>
        <path class="cls-10" d="M386.6,623.1h-64.6l-2.1-1.4c-2-1.3-3.9-2.7-5.5-4.1-7.9-6.9-13.8-15.4-16.5-23.9-3.2-9.9-1.9-19.1,3.6-25.4.8-.9,1.6-1.7,2.5-2.4-10.4-22.3-8-44.8,6.6-54.8,13.1-8.9,31.9-5.2,48.2,9,3.1-1.1,6.3-1.5,9.5-1.3,17.3,1.2,29.7,20.7,31,47.5.1.1.3.1.4.2,2.8,1.6,6.4,5,7.8,11.7,2,9.4-1.2,21.5-8.4,31.6-3.3,4.6-6.6,8.3-10.1,11.3l-2.4,2ZM327.2,606.1h53c1.6-1.7,3.3-3.7,5-6.1,5.7-8.1,6.3-15.6,5.6-18.4l-8.6.9.2-9.7c.5-21.1-7.6-36.5-15.2-37-1.6-.1-3.4.4-5.2,1.6l-5.9,3.9-4.9-5c-10.9-11.2-24-15.9-31-11.1-9.2,6.3-6,25.7,2.7,40l6.3,10.3-11.8,2.5c-1.4.3-2.4.8-3,1.5h0c-1.5,1.7-1.5,5-.3,9,1.8,5.5,6,11.5,11.6,16.3.4.4.9.9,1.5,1.3Z"/>
      </g>
      <path class="cls-5" d="M311.1,576.5c-7.3,8.4-1.9,25.1,12.1,37.4.3.3.6.5.9.8h65.7c2-2,3.9-4.3,5.5-7.1,8-13.5,9.4-27.4,3.2-31.1-1.3-.8-8.9-3.9-10.6-3.8.6-24.6-11.6-44.3-21.1-45.1-3.6-.3-9.7.8-13,3-13.8-14.1-24.4-17.3-35.3-9.8-12.5,8.5-12.2,31.1.2,51.5-3,.6-5.6,2-7.6,4.2Z"/>
      <path class="cls-8" d="M381.7,616.8h-61l-.5-.3c-1.8-1.1-3.4-2.3-4.7-3.5-15.2-13.3-20.6-31.1-12.3-40.5h0c1.6-1.8,3.6-3.2,6-4.1-11.8-21.1-11.2-43.1,1.9-52,11.2-7.6,28.9-3,43.5,11.2,3.3-1.9,6.8-2.7,10.3-2.4,14.6,1,25.2,20.5,25.3,45.7,1.2.2,2.3.5,3.3,1.1,2.2,1.3,3.8,3.7,4.6,6.8,1.7,7.2-1,17.9-7,27.4-2.5,3.9-5.4,7.3-8.6,10.1l-.8.5ZM322.1,612.3h58c2.7-2.4,5.1-5.2,7.1-8.5,6.1-9.6,7.6-18.9,6.4-23.9-.3-1.3-1-3.1-2.5-4-.8-.5-1.9-.7-3.1-.5l-2.6.3.1-2.6c.6-23.5-8.7-42.5-21-43.4-3-.2-6.1.7-9.1,2.7l-1.6,1-1.3-1.3c-13.3-13.6-29.3-18.5-39-11.9-11.4,7.7-11,29,.9,48.4l1.7,2.7-3.1.7c-2.7.6-4.9,1.8-6.5,3.5h0c-6.4,7.3-.9,23,11.9,34.2,1,.8,2.3,1.7,3.7,2.6Z"/>
      <path class="cls-8" d="M374.6,566.2c-.8,0-1.6-.4-2-1.2-6.2-11-15.9-16.9-23.3-14.1-3.1,1.2-5.6,3.9-7.1,7.7-.5,1.2-1.8,1.7-2.9,1.2-1.2-.5-1.7-1.8-1.2-2.9,2-5,5.4-8.6,9.7-10.2,9.6-3.7,21.5,3,28.8,16.1.6,1.1.2,2.5-.9,3.1-.3.2-.7.3-1.1.3Z"/>
    </g>
    <path class="cls-8" d="M333.2,639.3h-31.5c-5.6,0-23.7-.5-23.7-6.8,0-2.4,2.6-4.2,7.9-5.4,5-1.2,12.3-1.8,21-1.8.9,0,1.7.8,1.7,1.7s-.8,1.7-1.7,1.7c-18.9,0-24.7,2.9-25.5,3.8.9,1.1,6.8,3.4,20.3,3.4h31.5c.9,0,1.7.8,1.7,1.7s-.8,1.7-1.7,1.7Z"/>
    <path class="cls-8" d="M348.6,639.3h-7.5c-.9,0-1.7-.8-1.7-1.7s.8-1.7,1.7-1.7h7.5c.9,0,1.7.8,1.7,1.7s-.7,1.7-1.7,1.7Z"/>
    <path class="cls-8" d="M442.2,639.3h-8c-.9,0-1.7-.8-1.7-1.7s.8-1.7,1.7-1.7h8c.9,0,1.7.8,1.7,1.7s-.7,1.7-1.7,1.7Z"/>
    <path class="cls-8" d="M512.6,639.3h-61.5c-.9,0-1.7-.8-1.7-1.7s.8-1.7,1.7-1.7h61.5c.9,0,1.7.8,1.7,1.7s-.8,1.7-1.7,1.7Z"/>
    <path class="cls-10" d="M1011.1,335.1l-267.9-226.6-162.4,138.6c-3.6,3-8.9,2.6-12-1-3-3.6-2.6-8.9,1-12l168.1-143.4,5.3-3.9,5.7,4.2,268.3,227,92.3-1,5.2-8.5-256.1-225.7-112.3-1.6-261.8,220.3c-3.6,3-9,2.6-12-1s-2.6-9,1-12l266.6-224.4,124.9,1.8,271.6,239.3-17.5,28.7-108,1.2Z"/>
    <path class="cls-10" d="M491.3,320.8c-2.4,0-4.8-1-6.5-3-3-3.6-2.6-8.9,1-12l84-71.7c3.6-3,8.9-2.6,12,1,3,3.6,2.6,8.9-1,12l-84,71.7c-1.6,1.3-3.6,2-5.5,2Z"/>
    <g>
      <path class="cls-8" d="M958.5,641.3h-8c-.9,0-1.7-.8-1.7-1.7s.8-1.7,1.7-1.7h8c.9,0,1.7.8,1.7,1.7s-.8,1.7-1.7,1.7Z"/>
      <path class="cls-8" d="M1146.7,641.3h-178.3c-.9,0-1.7-.8-1.7-1.7s.8-1.7,1.7-1.7h178.2c6.4,0,9.7-2.9,9.7-5.9,0-2.8-3.2-5.7-10.1-5.7h-13c-9.3,0-13.5-4.6-13.5-8.8s4.3-8.8,13.8-8.8h21.3c.9,0,1.7.8,1.7,1.7s-.8,1.7-1.7,1.7h-21.3c-6.9,0-10.4,2.7-10.4,5.5s3.5,5.5,10.1,5.5h13c9.2,0,13.5,4.7,13.5,9.1.1,4.5-4.4,9.1-13,9.1Z"/>
      <path class="cls-8" d="M1168,612.1h-5.7c-.9,0-1.7-.8-1.7-1.7s.8-1.7,1.7-1.7h5.7c.9,0,1.7.8,1.7,1.7s-.7,1.7-1.7,1.7Z"/>
    </g>
    <g>
      <rect class="cls-8" x="660.8" y="81.8" width="16.2" height="143.8"/>
      <path class="cls-8" d="M679.3,227.9h-20.7V79.6h20.7v148.3ZM663,223.4h11.7V84.1h-11.7v139.3Z"/>
    </g>
    <polygon class="cls-10" points="1057.9 204.3 751.9 79.3 519.7 274.1 519.7 609.9 1057.9 609.9 1057.9 204.3"/>
    <polyline class="cls-10" points="966.7 284.3 743.2 80.6 519.7 284.3 509.7 612.5 956.7 612.5"/>
    <path class="cls-8" d="M971.7,616.7c-.9,0-1.7-.8-1.7-1.7v-333.4c0-.9.8-1.7,1.7-1.7s1.7.8,1.7,1.7v333.4c0,1-.8,1.7-1.7,1.7Z"/>
    <g>
      <polygon class="cls-10" points="743.2 72.7 480.5 297.3 484.7 311.8 743.2 97.4 1014.1 326.6 1114.3 325.5 1125.7 306.9 861.8 74.3 743.2 72.7"/>
      <path class="cls-8" d="M1013.3,328.9l-270.1-228.6-259.7,215.4-5.6-19.2,264.4-226.1,120.3,1.7,265.9,234.3-13,21.3-102.2,1.2ZM743.2,94.4l271.7,229.9,98.1-1.1,9.7-15.9-261.7-230.7-117-1.7-260.9,223.2,2.8,9.8,257.3-213.5Z"/>
    </g>
    <path class="cls-8" d="M1057.9,466c-1.2,0-2.3-1-2.3-2.3v-129.3c0-1.2,1-2.3,2.3-2.3s2.3,1,2.3,2.3v129.4c-.1,1.2-1.1,2.2-2.3,2.2Z"/>
    <polyline class="cls-10" points="743.2 72.7 476 297.3 483.7 318.8 743.2 97.4 1012.2 325.5"/>
    <rect class="cls-2" x="617.1" y="271" width="161.9" height="168.8"/>
    <rect class="cls-2" x="643.1" y="468.5" width="135.9" height="144.3"/>
    <rect class="cls-2" x="803.8" y="439.8" width="86.7" height="173.2"/>
    <rect class="cls-2" x="1004.3" y="425.8" width="43.9" height="187.3"/>
    <rect class="cls-2" x="803.8" y="271" width="86.7" height="138.8"/>
    <polygon class="cls-9" points="748.2 79.3 479.2 304.1 478.7 324.3 519.4 325.4 519 305.1 751.3 105.8 1014.1 326.6 1114.3 325.5 1125.7 306.9 868.7 81.8 748.2 79.3"/>
    <path class="cls-8" d="M690.7,616.1c-.9,0-1.7-.8-1.7-1.7v-25.6c0-.9.8-1.7,1.7-1.7s1.7.8,1.7,1.7v25.6c0,1-.7,1.7-1.7,1.7Z"/>
    <path class="cls-8" d="M678.3,484.1c-.9,0-1.7-.8-1.7-1.7v-19.7c0-.9.8-1.7,1.7-1.7s1.7.8,1.7,1.7v19.7c-.1.9-.8,1.7-1.7,1.7Z"/>
    <path class="cls-8" d="M1048.2,484.4c-.9,0-1.7-.8-1.7-1.7v-40.9c0-.9.8-1.7,1.7-1.7s1.7.8,1.7,1.7v40.9c0,.9-.7,1.7-1.7,1.7Z"/>
    <path class="cls-8" d="M514.9,354c-1.2,0-2.2-1-2.2-2.2l-5-127.3c0-1.2.9-2.3,2.2-2.3,1.2,0,2.3.9,2.3,2.2l5,127.3c0,1.2-1,2.3-2.3,2.3h0Z"/>
    <path class="cls-8" d="M771.5,409.4c-.9,0-1.7-.8-1.7-1.7v-141.9h-158.5v141.7c0,.9-.8,1.7-1.7,1.7s-1.7-.8-1.7-1.7v-145h165.3v145.3c-.1.9-.8,1.6-1.7,1.6Z"/>
    <path class="cls-8" d="M771.5,434.6h-136.1c-.9,0-1.7-.8-1.7-1.7s.8-1.7,1.7-1.7h136.1c.9,0,1.7.8,1.7,1.7s-.8,1.7-1.7,1.7Z"/>
    <path class="cls-8" d="M773.1,616.1h-70.5c-.9,0-1.7-.8-1.7-1.7s.8-1.7,1.7-1.7h67.2v-149.4h-68.1c-.9,0-1.7-.8-1.7-1.7s.8-1.7,1.7-1.7h71.5v156.2h-.1Z"/>
    <path class="cls-8" d="M884.7,616.1h-90.1v-184.8h90.1v184.8ZM797.9,612.7h83.4v-178.1h-83.4v178.1Z"/>
    <path class="cls-8" d="M884.7,404.7h-90.1v-142.2h90.1v142.2ZM797.9,401.3h83.4v-135.5h-83.4v135.5Z"/>
    <g>
      <path class="cls-8" d="M714.1,315.2c-.4,0-.9-.2-1.2-.5-.7-.7-.7-1.7,0-2.4l28.8-28.8c.7-.7,1.7-.7,2.4,0s.7,1.7,0,2.4l-28.8,28.8c-.3.4-.8.5-1.2.5Z"/>
      <path class="cls-8" d="M725.2,316.1c-.4,0-.9-.2-1.2-.5-.7-.7-.7-1.7,0-2.4l19.6-19.6c.7-.7,1.7-.7,2.4,0s.7,1.7,0,2.4l-19.6,19.6c-.3.3-.7.5-1.2.5Z"/>
    </g>
    <g>
      <path class="cls-8" d="M834.2,315.2c-.4,0-.9-.2-1.2-.5-.7-.7-.7-1.7,0-2.4l28.8-28.8c.7-.7,1.7-.7,2.4,0s.7,1.7,0,2.4l-28.8,28.8c-.4.4-.8.5-1.2.5Z"/>
      <path class="cls-8" d="M845.3,316.1c-.4,0-.9-.2-1.2-.5-.7-.7-.7-1.7,0-2.4l19.6-19.6c.7-.7,1.7-.7,2.4,0s.7,1.7,0,2.4l-19.6,19.6c-.3.3-.8.5-1.2.5Z"/>
    </g>
    <g>
      <path class="cls-8" d="M714.1,513.4c-.4,0-.9-.2-1.2-.5-.7-.7-.7-1.7,0-2.4l28.8-28.8c.7-.7,1.7-.7,2.4,0s.7,1.7,0,2.4l-28.8,28.8c-.3.4-.8.5-1.2.5Z"/>
      <path class="cls-8" d="M725.2,514.3c-.4,0-.9-.2-1.2-.5-.7-.7-.7-1.7,0-2.4l19.6-19.6c.7-.7,1.7-.7,2.4,0s.7,1.7,0,2.4l-19.6,19.6c-.3.3-.7.5-1.2.5Z"/>
    </g>
    <g>
      <path class="cls-8" d="M838.8,513.4c-.4,0-.9-.2-1.2-.5-.7-.7-.7-1.7,0-2.4l28.8-28.8c.7-.7,1.7-.7,2.4,0s.7,1.7,0,2.4l-28.8,28.8c-.3.4-.8.5-1.2.5Z"/>
      <path class="cls-8" d="M850,514.3c-.4,0-.9-.2-1.2-.5-.7-.7-.7-1.7,0-2.4l19.6-19.6c.7-.7,1.7-.7,2.4,0s.7,1.7,0,2.4l-19.6,19.6c-.4.3-.8.5-1.2.5Z"/>
    </g>
    <path class="cls-8" d="M825.6,615.4c-.9,0-1.7-.8-1.7-1.7v-143.6l58.1-13.4c.9-.2,1.8.4,2,1.3.2.9-.4,1.8-1.3,2l-55.5,12.8v140.9c.1.9-.7,1.7-1.6,1.7Z"/>
    <path class="cls-8" d="M882.4,458.1h-84.3c-.9,0-1.7-.8-1.7-1.7s.8-1.7,1.7-1.7h84.3c.9,0,1.7.8,1.7,1.7s-.7,1.7-1.7,1.7Z"/>
    <g>
      <path class="cls-8" d="M988.1,413.8l71.2-.4c.3,0,.5,0,.8.1l120.7,19.9v5h-99.5c-.3,0-.5,0-.8-.1l-92.4-15.6v-8.9Z"/>
      <path class="cls-8" d="M1182.6,440h-101.2c-.4,0-.7,0-1.1-.1l-93.8-15.8-.1-12,72.9-.4c.4,0,.7,0,1.1.1l122.2,20.1v8.1ZM989.9,421.3l91,15.4h98.3v-1.9l-119.3-19.7h-.5l-69.5.4v5.8Z"/>
    </g>
    <path class="cls-10" d="M1053.5,583.3c-3.3,0-7-.7-11.2-2.2-9.1-3.4-16.8-10.9-22.2-21.5-4-7.9-6.7-17.5-7.3-26.4-1.7-23.4,9.5-42.6,25.4-43.7,1.1-.1,2.2-.1,3.3,0,8.3-22.9,25.7-37,42.9-33.9,11.8,2.2,21,12.2,25.3,26.8,4.7.3,9.1,1.6,13,4h0c9.1,5.6,14.1,16,14.1,29.2,0,11.8-3.9,24.7-11.2,36.4-15.6,25.2-41,37-58.7,27.5h-1.1c-3.1,2.2-7.2,3.8-12.3,3.8ZM1039.6,506.4h-.2c-2.1.2-4.5,2.4-6.4,6.1-2.6,5.1-3.8,12.2-3.3,19.5.7,10.4,6.4,28.6,18.5,33.2,6,2.2,8,.8,9.5-1l7.5-8.3,4.2,6.7c1.5.2,3.2.6,5,1.7,8.1,5,25.1-2.5,36.6-21.2,5.5-8.9,8.7-18.9,8.6-27.4,0-4.1-.8-11.6-6.1-14.8h0c-2.4-1.5-5.5-1.9-9.2-1.2l-8.7,1.7-1.4-8.7c-1.8-11.2-7-19.2-13.3-20.3-10.8-2-22,13.8-25.8,29.9l-2.8,11.7-10.1-6.6c-.7-.6-1.7-1-2.6-1Z"/>
    <g>
      <path class="cls-10" d="M1102.5,514.3c4.6-24.9-4.2-47.3-19.7-50.2-14.8-2.7-30.2,13.3-35.7,36.3-2.6-1.7-5.5-2.6-8.4-2.4-11,.8-18.8,16.3-17.5,34.7s11.3,32.6,22.2,31.8c6.3-.5,11.6-5.9,14.7-13.9,2.4,1.7,5,3,7.8,3.5,15.7,2.8,32-15,36.6-39.8Z"/>
      <path class="cls-8" d="M1042.7,566.7c-12,0-22.2-14.6-23.6-33.9-.7-9.3.9-18.2,4.4-25.1,3.7-7.3,9.1-11.5,15.2-12,2.4-.2,4.7.3,7.1,1.3,6.4-23,22.2-38,37.5-35.2,8.3,1.5,15.1,8,19.1,18.3,3.9,9.9,4.7,22.2,2.4,34.6h0c-2.3,12.4-7.5,23.6-14.7,31.4-7.4,8.1-16.1,11.7-24.4,10.2-2.2-.4-4.4-1.2-6.4-2.3-3.6,7.7-9.2,12.3-15.6,12.8-.3-.1-.7-.1-1-.1ZM1039.7,500.2h-.7c-4.5.3-8.6,3.7-11.5,9.5-3.1,6.2-4.5,14.3-3.9,22.7,1.2,16.4,9.8,29.8,19.1,29.8h.7c5.2-.4,9.9-4.9,12.8-12.4l1.1-2.8,2.4,1.8c2.1,1.6,4.5,2.6,6.9,3.1,6.7,1.2,13.9-1.9,20.2-8.8,6.6-7.2,11.4-17.6,13.6-29.2h0c2.2-11.6,1.4-23-2.2-32.1-3.4-8.7-9-14.2-15.7-15.5-13.3-2.5-27.9,12.7-33.1,34.6l-.7,3.1-2.7-1.7c-2.1-1.4-4.2-2.1-6.3-2.1Z"/>
    </g>
    <path class="cls-10" d="M1102.5,514.3c4.6-24.9-4.2-47.3-19.7-50.2-14.8-2.7-30.2,13.3-35.7,36.3-2.6-1.7-5.5-2.6-8.4-2.4-11,.8-18.8,16.3-17.5,34.7s11.3,32.6,22.2,31.8c6.3-.5,11.6-5.9,14.7-13.9,2.4,1.7,5,3,7.8,3.5,15.7,2.8,32-15,36.6-39.8Z"/>
    <path class="cls-5" d="M1107.1,522c4.6-24.9-4.2-47.3-19.7-50.2-14.8-2.7-30.2,13.3-35.7,36.3-2.6-1.7-5.5-2.6-8.4-2.4-11,.8-18.8,16.3-17.5,34.7s11.3,32.6,22.2,31.8c6.3-.5,11.6-5.9,14.7-13.9,2.4,1.7,5,3,7.8,3.5,15.7,2.9,32-14.9,36.6-39.8Z"/>
    <path class="cls-10" d="M1118.4,547.7c13.3-21.5,13.2-45.7-.2-53.9-12.8-7.9-33,1.5-46.4,21-1.8-2.5-4.2-4.4-6.9-5.2-10.5-3.2-23.4,8.4-28.8,26s-1.3,34.5,9.2,37.7c6.1,1.9,13-1.3,18.7-7.6,1.6,2.5,3.6,4.5,6,6.1,13.5,8.1,35.2-2.6,48.4-24.1Z"/>
    <path class="cls-10" d="M1118.4,547.7c13.3-21.5,13.2-45.7-.2-53.9-12.8-7.9-33,1.5-46.4,21-1.8-2.5-4.2-4.4-6.9-5.2-10.5-3.2-23.4,8.4-28.8,26s-1.3,34.5,9.2,37.7c6.1,1.9,13-1.3,18.7-7.6,1.6,2.5,3.6,4.5,6,6.1,13.5,8.1,35.2-2.6,48.4-24.1Z"/>
    <path class="cls-5" d="M1117,550.5c14.1-21,16.1-39.7,2.7-47.9-12.8-7.9-33,1.5-46.4,21-1.8-2.5-5.6-7.2-8.4-8-10.5-3.2-25.2,2.1-30.6,19.7-5.4,17.6.5,34,11,37.3,6.1,1.9,13.4-.5,19.2-6.9,1.6,2.5,4.4,4.9,6.9,6.4,13.3,8.2,35.7-6.7,45.6-21.6Z"/>
    <path class="cls-8" d="M1053.5,577c-2.7,0-5.7-.6-8.9-1.8-15.9-6-24.3-26.2-25.5-42.5-1.4-19.9,7.2-36.2,19.6-37.1,2.4-.2,4.7.3,7.1,1.3,6.4-23,22.2-38,37.5-35.2,10.5,2,18.7,12.2,21.6,27,5.4-.6,10.5.4,14.6,2.9,7.2,4.4,11.1,12.9,11.2,23.9,0,10.6-3.6,22.4-10.3,33.1-13.9,22.5-37,33.6-51.4,24.7-.4-.3-.8-.3-1.6-.2-.8.1-1.9.2-3-.4-3.2,3-6.8,4.3-10.9,4.3ZM1039.7,500.2h-.7c-9.6.7-16.6,15.4-15.4,32.2,1.7,24.4,15.5,35.9,22.6,38.6,7.1,2.7,12.3,1.8,16.4-2.6l2-2.2,1.6,2.5q.1.1.1.2h.7c1.1-.1,2.7-.3,4.4.8,12.3,7.6,32.6-2.8,45.2-23.2,6.2-10,9.6-21,9.6-30.7s-3.2-16.5-9-20.1h0c-3.8-2.3-8.5-3-13.7-2l-2.3.4-.4-2.3c-2.2-14-9.2-23.8-18.3-25.5-13.4-2.5-27.9,12.7-33.1,34.6l-.7,3.1-2.7-1.7c-2.1-1.4-4.2-2.1-6.3-2.1Z"/>
    <path class="cls-8" d="M1036.1,537.7c-.2,0-.4,0-.7-.1-1.2-.4-1.9-1.6-1.5-2.8,5.9-19.1,19.8-31.1,31.7-27.5,2.3.7,4.3,2,6.1,3.7,5.7-7.7,12.5-13.8,19.8-17.7,1.1-.6,2.5-.2,3.1.9.6,1.1.2,2.5-.9,3.1-7.3,4-14.4,10.6-19.9,18.7l-1.8,2.6-1.9-2.6c-1.6-2.2-3.6-3.7-5.8-4.4-9.2-2.8-21.1,8.4-26,24.5-.3,1-1.2,1.6-2.2,1.6Z"/>
    <path class="cls-8" d="M1121.6,306.6h-102.6l-.5-.4-276.4-232.2c-.7-.6-.8-1.7-.2-2.4s1.7-.8,2.4-.2l275.9,231.8h101.4c.9,0,1.7.8,1.7,1.7s-.8,1.7-1.7,1.7Z"/>
    <path class="cls-8" d="M1013.3,328.9l-270.1-228.6-258.8,220.8c-.9.8-2.4.7-3.2-.3-.8-.9-.7-2.4.3-3.2l260.3-222,1.4-1,1.7,1.2,270.1,228.5,98.1-1.1,9.7-15.9-261.8-230.7-117-1.6-263.6,221.7c-1,.8-2.4.7-3.2-.3-.8-1-.7-2.4.3-3.2l264.8-222.9,120.3,1.7,265.9,234.3-13,21.3-102.2,1.3Z"/>
    <path class="cls-8" d="M477.9,328.2l-10-12.4c-.6-.7-.5-1.8.3-2.4.7-.6,1.8-.5,2.4.3l9,11.1,39.3-.6v-21.3l232.1-198.7,1-.8,1.2.9c.8.6.9,1.6.4,2.4-.3.4-.6.6-1,.7l-230.4,197v23l-44.3.8Z"/>
    <path class="cls-8" d="M1121.6,306.6h-102.6l-.5-.4-276.4-232.2c-.7-.6-.8-1.7-.2-2.4s1.7-.8,2.4-.2l275.9,231.8h101.4c.9,0,1.7.8,1.7,1.7s-.8,1.7-1.7,1.7Z"/>
    <path class="cls-7" d="M599.3,678.2c-33.7,0-64,.9-88.7,4.4-41.9-8.5-128.3-14.9-232.5-14.9-142.7,0-258.3,11.2-258.3,25s115.7,25,258.3,25c100.8,0,188.1-5.6,230.6-13.8,22.4,2.7,54.2,4.8,90.6,4.8,71.7,0,129.7-6.8,129.7-15.3s-58.1-15.2-129.7-15.2Z"/>
    <g>
      <polyline class="cls-10" points="205.8 305.9 254.5 286.2 327 286.2 357.8 445.2 292 461"/>
      <polygon class="cls-10" points="294.2 470.2 289.8 451.9 346.8 438.2 319.2 295.6 256.4 295.6 209.3 314.6 202.3 297.2 252.7 276.8 334.7 276.8 368.7 452.2 294.2 470.2"/>
    </g>
    <g>
      <polyline class="cls-10" points="195 306.3 163.4 315.1 156.3 338.7"/>
      <path class="cls-8" d="M156.3,340.9c-.2,0-.4,0-.6-.1-1.2-.4-1.9-1.6-1.5-2.8l7.4-24.7,32.8-9.2c1.2-.3,2.4.4,2.8,1.6.3,1.2-.4,2.4-1.6,2.8l-30.4,8.5-6.7,22.3c-.3,1-1.2,1.6-2.2,1.6Z"/>
    </g>
    <path class="cls-8" d="M327.2,288.3h-38.5c-1.2,0-2.3-1-2.3-2.3s1-2.3,2.3-2.3h38.5c1.2,0,2.3,1,2.3,2.3s-1.1,2.3-2.3,2.3Z"/>
    <path class="cls-10" d="M123.4,273.4c10.6,16,2.8,28.3,1.1,33.2s-17.3,38.7-7.3,67.8,18.3,35.8,21.6,53.3-3.3,25-1.7,44.1c1.7,19.1,0,30,0,30,0,0-19.1,35.8-25.8,63.3,0,0-21.6,21.6-33.3,45.8-2.7,5.6-15.8,23.1-15.8,23.1l3.1,7.2s-4.5,10-8.1,14c-6.7,7.5-11.7,21.4-11.7,21.4,0,0,20.8,14.6,36.6,15s32.5-.2,32.5-.2c0,0,1.5-7-2.9-12s-14.9-2.3-20.6-6.1-6.5-11-6.5-11l2.7-12.2,7.9,2s29.5-50.9,40.2-60.4c7.5-6.7,26.4-35.4,49.7-57,0,0,17.7,39.5,21,46.2,0,0,4,33.7,6.5,47.5,2.5,13.7,15.2,33.1,15.2,33.1l8.7-1.9s.4,10.6,1.6,18.7,5.3,14.1,5.3,14.1c0,0,41.8-9.2,58-18.4,11.6-6.6,7.1-16.2,7.1-16.2,0,0-24.6,3.1-33.9,1.9-9.4-1.2-13.5-5.2-13.5-5.2,0,0-17.5-73.5-16.6-87.6.8-14.2-27.5-109.9-27.5-109.9l.7-50.8-10.6-15.5-8.7-34.3s-6.7-23.4-15.6-34.3c-8.9-10.9-24.7-17.5-24.7-17.5,0,0-6.1-13.8-2.8-22.2,0,0,11.1-2.5,13.9-7.8,2.8-5.3,1.4-16.5,1.4-16.5l4.4-7-13.9-11.6s-1.6-12.7-5.6-15.5c-7.5-5-24.3-10-35.7,1.4-10.9,10.7-14,21.6,3.6,48Z"/>
    <path class="cls-6" d="M88.1,651.4l7.2.7s29.5-50.9,40.2-60.4c7.5-6.7,26.4-35.4,49.7-57,0,0,17.7,39.5,21,46.2,0,0,4,33.7,6.5,47.5,2.5,13.7,15.2,33.1,15.2,33.1,0,0-4.4,1.2,8.7-1.9,13.1-3.1,25-12.5,25-12.5,0,0-17.9-66.2-17.1-80.3.8-14.2-27.5-109.9-27.5-109.9l-2.5-14.2-69.3,13.4c-.4,10.4-1.2,5.2,0,19.5,1.7,19.1,0,30,0,30,0,0-19.1,35.8-25.8,63.3,0,0-21.6,21.6-33.3,45.8-2.7,5.6-15.8,23.1-15.8,23.1l-5,3.5,22.8,10.1Z"/>
    <path class="cls-8" d="M243.1,695.3l-.9-1.1c-.2-.2-4.5-5.8-5.8-14.4-.2-1-.1-2.9,0-5.9.1-1.9.2-4.7.1-5.4-.2-1.2.6-2.4,1.9-2.6,1.2-.2,2.4.6,2.6,1.9.2,1.1.1,3.1,0,6.3-.1,1.9-.2,4.4-.1,5,.8,5.3,2.9,9.3,4.1,11.1,6.8-1.6,35.5-8.7,53.6-17.8,6.3-3.1,9.4-8.3,10.6-10.6l-3.9-4.7c-5.1,1.4-22.4,5.7-30.8,4.6-10-1.3-14.6-5.6-14.8-5.8l-.5-.5-.2-.7c-.7-3-17.5-74-16.7-88.3.6-10.9-17.6-76.1-27.4-109.1l-.1-.3-2.7-15.8c-.2-1.2.6-2.4,1.8-2.6,1.2-.2,2.4.6,2.6,1.8l2.7,15.7c1.6,5.5,28.4,96.3,27.5,110.5-.8,12.9,14.6,78.5,16.4,86.2,1.3.9,5.1,3.3,11.8,4.2,8.8,1.2,30.2-4.8,30.4-4.9l1.4-.4,7.5,9-.4,1.2c-.1.4-3.5,9.3-13.3,14.2-21,10.5-54.7,18.1-56.1,18.5l-1.3.7Z"/>
    <path class="cls-8" d="M94.4,693.7c-2.3,0-4.7-.1-7.1-.2-11.6-.7-25.5-4.5-29.7-7.2-6.6-4.3-13-7.6-13-7.6l-1.4-.7.2-1.6c0-.4,1.1-9,5.6-16.4.8-1.3,2.8-3.3,6-6.5,2-2,4.9-4.8,5.4-5.6.6-1.1,2-1.5,3.1-.8,1.1.6,1.5,2,.8,3.1-.8,1.3-2.8,3.4-6.1,6.6-2,2-4.8,4.7-5.3,5.6-2.9,4.9-4.2,10.5-4.7,13.1,2.3,1.2,7,3.8,12,7.1,3.2,2.1,16.2,5.8,27.5,6.5,10.8.7,20.6-.5,24.7-1.1l-.8-5.3c-.5-.6-2.2-2.2-6.2-3.7-1.4-.5-3.9-.9-6.3-1.4-4.6-.8-7.2-1.3-8.5-2.5-5.4-4.9-7.6-8.8-7.7-9l-.2-.4-.1-.4c-.1-.4-.6-3.8,0-6.5.9-4.1,3.1-9.3,3.2-9.5l.7-1.7,7.5,1.6c5-8.4,30.2-50.2,40.1-59,2.7-2.4,7-7.9,12.6-15,9.5-12,22.4-28.4,37.1-42l2.3-2.1,1.3,2.9c.2.4,17.7,39.6,21,46.1l.2.4v.4c0,.3,4,33.8,6.4,47.3,2,11.1,11.2,26.5,14,31l7.2-1.5c1.2-.3,2.4.5,2.7,1.7s-.5,2.4-1.7,2.7l-10.2,2.2-.8-1.3c-.5-.8-13-19.9-15.5-33.9-2.3-12.9-6-43.4-6.4-47.2-3.1-6.4-15.5-33.9-19.6-43-13.5,13-25.5,28.1-34.3,39.4-5.7,7.2-10.2,12.9-13.1,15.5-10.2,9.1-39.7,58.8-40,59.3l-.8,1.4-7-1.5c-.7,1.8-1.7,4.7-2.2,7-.3,1.4-.2,3.4,0,4.5.6,1,2.6,3.9,6.6,7.5.7.4,4.1,1,6.3,1.4,2.6.5,5.3.9,7.1,1.6,6.6,2.5,8.5,5.4,8.8,6l.2.4,1.5,10.5-2.1.4c-.9-.3-9.7,1.4-21.3,1.4Z"/>
    <path class="cls-8" d="M65.3,643.5c-.9,0-1.7-.5-2.1-1.4l-3.6-8.4.8-1c.1-.2,13-17.4,15.6-22.7,10.9-22.6,30-42.6,33.3-45.9,6.5-26.2,23.5-58.8,25.7-62.8.3-2,1.4-12.4-.1-29.1-.8-9.2.3-15.7,1.3-22,1.1-6.7,2.1-13,.4-21.9-1.7-8.8-4.7-14.9-8.6-22.6-3.6-7.2-8.1-16.2-13-30.4-9.3-27.2,0-53.6,6.3-66.8.5-1.1,1.9-1.6,3-1.1s1.6,1.9,1.1,3c-6.1,12.7-15,37.7-6.1,63.4,4.7,13.8,9.2,22.7,12.7,29.8,4,8,7.2,14.4,9,23.8,1.8,9.7.8,16.4-.4,23.5-1,6-2,12.2-1.2,20.9,1.7,19.2.1,30.1,0,30.5l-.1.4-.2.3c-.2.4-19.1,35.9-25.6,62.7l-.1.6-.4.4c-.2.2-21.5,21.7-32.9,45.2-2.4,5-12.4,18.5-15.3,22.4l2.6,6.1c.5,1.1,0,2.5-1.2,3-.3,0-.6.1-.9.1Z"/>
    <path class="cls-8" d="M122,314.7c-.3,0-.7-.1-1-.2-1.1-.5-1.6-1.9-1.1-3,8-16.8,7.9-28.6-.3-38.5-7.9-9.5-11.6-19.2-10.7-28.3.8-7.6,4.7-14.4,11.4-19.6,14.2-11.2,30.7-6.5,37.3.2,3.1,3.2,7,8.2,7.5,11.9.3,2.1.6,5,.7,6.6,6.1,3.4,12.7,8.1,11.9,12-.3,1.7-2.7,4.2-4.9,6.3.2,3.4.8,13.2-.2,16.7-1.3,4.7-9.1,7-12.9,7.9-.1,3.4.4,6.5,1,10l.1.9c.2,1.2-.6,2.4-1.9,2.6-1.2.2-2.4-.6-2.6-1.9l-.1-.9c-.7-4.1-1.3-8-1-12.7l.1-1.8,1.7-.3c5-.9,10.6-3.1,11.1-5,.7-2.5.3-11.3,0-16.3l-.1-1.1.8-.7c1.8-1.7,3.7-3.7,4.2-4.5-.7-1.5-5.5-5.1-10.6-7.8l-1.1-.6-.1-1.2s-.4-4.8-.8-7.6c-.3-2.1-3-6.1-6.3-9.4-5.7-5.7-19.8-8.9-31.3.2-5.7,4.5-9.1,10.2-9.7,16.6-.8,7.8,2.5,16.4,9.7,24.9,12.4,14.8,6.5,31.8.9,43.3-.1.8-.9,1.3-1.7,1.3Z"/>
    <path class="cls-8" d="M207.1,395c-1,0-2-.7-2.2-1.8-.1-.5-11.7-54.6-22.8-68.1-7.5-9.2-23.3-17.5-23.4-17.5-1.1-.6-1.5-1.9-1-3,.6-1.1,1.9-1.5,3-1,.7.4,16.7,8.8,24.8,18.7,11.9,14.4,23.3,67.8,23.8,70.1.3,1.2-.5,2.4-1.7,2.7-.2-.1-.4-.1-.5-.1Z"/>
    <path class="cls-8" d="M219.6,405.9c-.7,0-1.3-.5-1.5-1.2l-19.3-81.9c-.2-.8.3-1.6,1.1-1.8.8-.2,1.6.3,1.8,1.1l19.3,81.9c.2.8-.3,1.6-1.1,1.8-.1.1-.2.1-.3.1Z"/>
    <path class="cls-8" d="M200.2,323.7h-10.2c-.8,0-1.5-.7-1.5-1.5s.7-1.5,1.5-1.5h9.8l126.8-35.1c.8-.2,1.6.2,1.8,1,.2.8-.2,1.6-1,1.8l-127.2,35.3Z"/>
    <path class="cls-8" d="M234.5,476.6c-1,0-2-.7-2.2-1.8-.3-1.2.5-2.4,1.7-2.7l122-27.8-30.8-157.9c-.2-1.2.6-2.4,1.8-2.6,1.2-.2,2.4.6,2.6,1.8l31.6,162.2-126.2,28.8h-.5Z"/>
    <polygon class="cls-3" points="358.4 443.9 329.9 293.5 209.2 327 231.2 424.4 242.9 430.2 231.2 446.1 237 471.4 358.4 443.9"/>
    <path class="cls-10" d="M125.5,351.1s30.8,57.4,62.4,76.6c20.8,12.6,51.8,21.2,51.8,21.2,0,0,1.1,10.7,5.7,15.6,4.6,5,9.7,7.5,9.7,7.5l18.1,2.5,15.6-11.2-6,.2s1.1-.7,1.1-5.8c-.1-5.1-14.8-21.4-14.8-21.4l-13.7-1.5-65.8-38.8"/>
    <path class="cls-8" d="M281,454.1c-.6,0-1.3-.3-1.7-.8l-12-14.4-12.2-.7-57.3-34.8-27.8-69c-.5-1.2.1-2.5,1.2-2.9,1.2-.5,2.5.1,2.9,1.2l27.2,67.6,55.1,33.4,13,.8,13.2,15.9c.8,1,.7,2.4-.3,3.2-.3.4-.8.5-1.3.5Z"/>
    <path class="cls-8" d="M264.7,476.4c-3.7,0-7.7-.5-11.3-2-6.8-2.9-8.9-7.2-11.4-12.2-2.1-4.1-3-9-3.4-11.4-6.5-1.9-33.2-9.8-51.7-21.1-16.7-10.1-29.7-27.4-37.6-40.2-8.5-13.7-13.1-25-13.3-25.4-.5-1.2.1-2.5,1.2-2.9,1.2-.5,2.5.1,2.9,1.2.2.4,18.4,44.9,49,63.4,20.3,12.3,51.7,20.9,52,21l1.5.4.2,1.5c0,.1.8,6.5,3.2,11.4,2.6,5.1,4.1,7.9,9.2,10.1,6,2.6,13.9,1.6,18,.8,3.2-.6,7.9-4,11.2-6.7l-11-3.4-7.3-7.5c-.9-.9-.8-2.3,0-3.2.9-.9,2.3-.8,3.2,0l6.5,6.7,17.5,5.3-2.8,2.7c-1,.9-9.8,9.2-16.4,10.5-2.4.5-5.8,1-9.4,1Z"/>
    <g>
      <path class="cls-10" d="M138.4,453.5s26.2,1.7,67.2-7.7"/>
      <path class="cls-8" d="M143.8,455.9c-3.4,0-5.3-.1-5.6-.1-1.2-.1-2.2-1.1-2.1-2.4s1.1-2.2,2.4-2.1c.3,0,26.4,1.5,66.6-7.6,1.2-.3,2.4.5,2.7,1.7s-.5,2.4-1.7,2.7c-30.3,6.9-52.5,7.8-62.3,7.8Z"/>
    </g>
    <path class="cls-8" d="M190.8,548.8c-.9,0-1.7-.5-2.1-1.4-.1-.3-12.5-29.3-21.6-42-9.2-12.9-19.2-25.4-19.3-25.5-.8-1-.6-2.4.4-3.2s2.4-.6,3.2.4c.1.1,10.1,12.7,19.4,25.7,9.4,13.2,21.6,41.7,22.1,42.9.5,1.1,0,2.5-1.2,3-.3.1-.6.1-.9.1Z"/>
    <path class="cls-8" d="M86.5,665.3l-3.5-1.4s-.5-.5-2.9-.5c-1.1,0-2.6.1-4.5.4-1,.2-5.3.1-17.7-7.9-.9-.6-1.1-1.7-.6-2.6.6-.9,1.7-1.1,2.6-.6,5.9,3.8,13.3,7.6,15.1,7.3,5.9-1,9.4-.5,11,1.5.9,1.3.8,2.9.5,3.8Z"/>
    <g>
      <path class="cls-10" d="M516.6,477.7c-2-4.8-3.7-8.6-5.1-11.8,1.6.2,3.4.3,5,.3.6,0,1.2,0,1.7-.1,5-.4,15.9-5.6,17.1-6.2l.8-.4,1.1-2.9,8.4,1,30.6-103.1-101.8-12.2v15.7c-.9-1.9-1.9-3.7-3.1-5.5,0,0,.1,0,.1-.1,1-.7,1.2-2.2.5-3.2-4.9-6.6-12.6-12.3-23.5-17.4-.9-.4-1.9-.2-2.5.5-1.6-.9-3.2-1.7-4.6-2.4l1.5-19.1c2-.7,5.5-2.3,7.8-5.2,5.1-6.5,5.2-17.7,5.2-18.1v-.5l-4.6-10.7-1.7-8.9-.1-.3c-.3-.9-3.2-9.1-7.3-12-6-4.2-13.3-5.9-20.4-4.3-20.4,4.7-25.5,24.5-24.4,39.6,1,15.2,1.1,18.5,1.1,18.5l-6,45.1,10,5c.4,2.3,1,4.8,1.7,7.3,1.1,4.1,3.3,8.6,6.9,14,2.1,3.2,4.5,6.6,6.9,9.8,8.7,12,17.7,24.4,14.6,36.5-1.6,6.3-3.6,11.6-5.5,16.8-1.4,3.7-2.7,7.3-3.8,11.1l-.8,2.5h.3c-2.1,7.8-3.8,16.7-2.4,32.4,2.6,30.4-8,63.8-13.2,71.4-1,1.5-2,2.9-2.9,4.3-9.8,14.1-19.9,28.7-34.6,82.3l-.5,1.7s7.1,4,18.6,8c7.6,2.7,20,4,20,4,0,0,5.3-12.7,20-38.1,4.9-8.5,14.5-21,20.5-31,9.6-15.9,18.2-35.6,25.4-54.2,9.6,12.1,19.9,28.5,21.9,40.8,5,31.7,33.4,80.3,33.4,80.3,0,0,7.6,1.2,20.1-2,15.2-3.9,18.7-7.5,18.7-7.5,0,0-22.4-37.5-28-78.4-4.9-35.8-14.1-72.2-23.1-93.3Z"/>
      <path class="cls-10" d="M410.8,666.7l-3.7-.4c-.5-.1-13-1.4-21.1-4.2-11.8-4.1-19.1-8.2-19.4-8.4l-3.4-1.9,1.5-5.5c15-54.4,25.3-69.3,35.4-83.8l.5-.7c.8-1.2,1.6-2.4,2.4-3.6,4.7-6.9,14.8-39.4,12.3-68.2-1.1-12.4-.4-20.9,1.2-28.6l-.6-.1,2.5-8.2c1.2-3.9,2.5-7.5,3.9-11.3,1.9-5.1,3.8-10.4,5.4-16.4,2.6-9.8-5.7-21.3-13.8-32.3-2.4-3.3-4.8-6.6-7-10-3.8-5.9-6.2-10.8-7.5-15.4-.5-1.8-.9-3.6-1.3-5.3l-11-5.5,6.5-48.1c-.1-1.3-.3-5.8-1.1-17.9-.6-9.6,1-18.9,4.7-26.3,4.8-9.7,13-16.1,23.6-18.6,8.3-1.9,17-.1,24.4,5,5.1,3.6,8.3,12,9.1,14.5l.3,1,1.6,8.3,4.8,11.2v1.5c0,1.4-.2,13.5-6.3,21.2-2,2.5-4.6,4.3-6.9,5.5l-1,12.5c1.3-.2,2.7,0,4,.6,7.7,3.6,14,7.6,18.9,11.9v-2.6l113.3,13.6-33.5,112.9-8.7-1.1-.4,1.1-2.6,1.3c-2.9,1.4-12.6,5.9-18.3,6.6.6,1.5,1.3,3,2,4.7,9.4,21.9,18.6,59.2,23.5,94.9,5.4,39.4,27.1,76.2,27.3,76.5l2,3.3-2.7,2.8c-1.1,1.1-5.7,4.9-21,8.8-13.4,3.4-21.8,2.1-22.1,2.1l-2.3-.4-1.2-2c-1.2-2-29-49.7-34.1-82-1.4-9.1-8.3-21.2-15.6-31.4-7.6,18.7-15.1,34.3-22.5,46.6-3.1,5.1-6.9,10.7-10.7,16.1-3.8,5.5-7.4,10.7-9.7,14.8-14.4,24.7-19.7,37.4-19.7,37.5l-1.9,3.4ZM375,646.8c3.1,1.5,8,3.7,14.3,5.9,4.6,1.6,11.2,2.7,15.3,3.3,2.5-5.4,8.2-17.1,18.7-35.2,2.6-4.4,6.3-9.8,10.2-15.4,3.7-5.3,7.5-10.8,10.4-15.6,8.2-13.6,16.6-31.6,25.1-53.4l3.1-8.1,5.4,6.8c6,7.6,20.3,27,22.9,43.1,4.2,26.6,26,66.4,31.5,76.2,2.9.1,8.4-.1,15.8-2,6.5-1.7,10.7-3.2,13.2-4.4-6.1-11.2-21.6-42.2-26.2-75.9-4.8-34.9-13.7-71.1-22.7-92.3h0c-2-4.7-3.7-8.6-5.1-11.8l-3.5-8,8.6,1c2.3.3,4.2.4,5.8.3,2.6-.2,9-2.7,14.3-5.2l1.8-4.7,8.2,1,27.7-93.4-90.3-11v31.8l-9.5-19.6c-.9-1.8-1.8-3.5-2.8-5l-2.6-4.1,1.5-1c-4.2-4.7-10.1-8.8-18-12.7l-1.3,1.3-3.3-1.8c-1.5-.8-3-1.6-4.5-2.3l-3-1.5,2-25.6,3-1.1c2.4-.9,4.5-2.2,5.6-3.6,3.2-4,4-11.4,4.2-14.5l-4.4-10.2-1.7-9.2c-1.3-3.7-3.6-8.1-5.4-9.3-5-3.5-10.9-4.8-16.4-3.5-20.9,4.9-21,27.6-20.6,34.4,1,15.1,1.1,18.5,1.1,18.6v.4l-5.6,42,9.1,4.6.4,2.5c.4,2.2.9,4.5,1.6,6.9,1,3.6,3,7.6,6.3,12.6,2.1,3.1,4.4,6.4,6.7,9.6,9,12.3,19.1,26.3,15.3,40.7-1.7,6.5-3.7,12-5.6,17.3-1,2.7-1.9,5.2-2.8,7.8h0l-1.5,5.5c-1.8,6.7-3.6,15.1-2.3,30.6,2.7,30.9-7.8,65.5-14,74.6-.8,1.2-1.7,2.4-2.5,3.6l-.5.7c-9.1,13.3-18.8,27.3-33,78.3ZM468.9,348.2h0Z"/>
    </g>
    <path class="cls-8" d="M247.4,673.1c-4.3,0-7.6-1-7.8-1.1-1-.3-1.5-1.4-1.2-2.4s1.4-1.5,2.3-1.2c.1,0,5.7,1.7,11.6.3,4.6-1.1,9.5-9.4,11-12.5.4-.9,1.6-1.3,2.5-.9.9.4,1.3,1.6.9,2.5-.6,1.3-6.3,12.9-13.5,14.6-2.1.6-4,.7-5.8.7Z"/>
    <path class="cls-8" d="M129.7,277.5c-3.3,0-5.4-.8-5.5-.9-1-.4-1.4-1.5-1-2.4s1.5-1.4,2.4-1c0,0,3.1,1.2,7.8.2,3.4-.7,4.3-3.9,4.9-6.9,0-.2.1-.5.1-.7.2-1,1.2-1.6,2.2-1.4s1.7,1.2,1.4,2.2c0,.2-.1.4-.1.6-.5,2.5-1.7,8.5-7.8,9.8-1.5.3-3,.5-4.4.5Z"/>
    <g>
      <polygon class="cls-10" points="317.7 202.3 272.4 231.1 262.6 203 295.1 181.9 317.7 202.3"/>
      <path class="cls-10" d="M268.7,241.7l-14.5-41.6,41.6-27,33.4,30.2-60.5,38.4ZM271.1,205.9l5.1,14.6,30-19.1-11.8-10.6-23.3,15.1Z"/>
    </g>
    <path class="cls-8" d="M134.1,268.5l-.7-.9c-.9-1.2-8.4-11.7-3.2-16.9,1.3-1.3,3-2,4.7-1.8,2,.2,3.8,1.4,5.2,2.6.4-1.8.8-4.2.8-6.9,0-4-5.7-7.9-7.9-9.1l-1.4-.8.5-1.5c.3-.9.9-2.6,19.1-10,1-.4,2.1.1,2.4,1,.4,1-.1,2.1-1,2.4-5.8,2.3-12.3,5.2-15.4,6.9,2.9,2.1,7.4,6,7.4,10.9,0,6.3-1.9,11.1-2,11.3l-1.3,3.2-2-2.8c-.6-.9-2.9-3.5-4.8-3.6-.4,0-1,0-1.7.7-2.1,2.1.8,7.8,2.9,11.1l7.1-.9c1-.1,2,.6,2.1,1.6s-.6,2-1.6,2.1l-9.2,1.4ZM135.5,234.8h0Z"/>
    <path class="cls-8" d="M297,462.5c-1,0-2-.7-2.2-1.7-.3-1.2.5-2.4,1.7-2.7l59.5-13.7-30.8-157.9c-.2-1.2.6-2.4,1.8-2.6,1.2-.2,2.4.6,2.6,1.8l31.6,162.2-63.7,14.6c-.2-.1-.3,0-.5,0Z"/>
    <g>
      <path class="cls-10" d="M253.1,287c15.3-2.9,26.6-3.5,27.2-1.2.7,3-16.1,9.7-37.5,14.9s-39.4,7-40.2,4,16.1-9.7,37.5-14.9"/>
      <path class="cls-8" d="M208.5,308.4c-5.8,0-7.5-1.3-8-3.2-.6-2.5,1.2-5,11.8-9.3,7.2-2.9,16.9-5.8,27.4-8.4,1.2-.3,2.4.4,2.7,1.7.3,1.2-.4,2.4-1.7,2.7-19.3,4.7-30.6,9.4-34.5,11.9,4.5.4,16.8-.6,36.1-5.3,19.3-4.7,30.6-9.4,34.5-11.9-3.3-.3-10.9.1-23.2,2.5-1.2.2-2.4-.6-2.6-1.8s.6-2.4,1.8-2.6c28.4-5.4,29.4-1.1,29.8.5.6,2.5-1.2,5-11.8,9.3-7.2,2.9-16.9,5.8-27.4,8.4-10.5,2.5-20.5,4.4-28.2,5.1-2.7.3-4.9.4-6.7.4Z"/>
    </g>
    <g>
      <polygon class="cls-10" points="317.7 202.3 272.4 231.1 262.6 203 295.1 181.9 317.7 202.3"/>
      <path class="cls-8" d="M271.2,234.5l-11.3-32.4,35.4-23,26.1,23.6-50.2,31.8ZM265.3,203.9l8.3,23.7,40.4-25.6-19.1-17.3-29.6,19.2Z"/>
    </g>
    <g>
      <line class="cls-1" x1="263.2" y1="178.6" x2="278.7" y2="191.7"/>
      <path class="cls-8" d="M278.7,194c-.5,0-1-.2-1.5-.5l-15.5-13.1c-.9-.8-1.1-2.2-.3-3.2.8-.9,2.2-1.1,3.2-.3l15.5,13.1c.9.8,1.1,2.2.3,3.2-.5.5-1.1.8-1.7.8Z"/>
    </g>
    <g>
      <path class="cls-10" d="M262.9,175.6c-2.6-2.1-6.4-1.6-8.5,1l-51.2,64.4c-1.6,2-1.7,4.6-.6,6.7.1.4.3.7.6,1l29.7,44c1.8,2.7,5.6,3.5,8.3,1.6l.1-.1c2.7-1.8,3.5-5.6,1.6-8.3l-27.5-40.8,48.6-61.1c2-2.5,1.6-6.3-1.1-8.4Z"/>
      <path class="cls-8" d="M237.8,297.6c-.5,0-1.1-.1-1.6-.2-2.2-.4-4-1.7-5.3-3.5l-29.7-44c-.3-.4-.5-.8-.7-1.3-1.6-2.9-1.2-6.5.8-9.1l51.3-64.4c1.4-1.7,3.3-2.8,5.6-3.1,2.2-.3,4.4.4,6.1,1.7h0c3.6,2.8,4.2,8.1,1.3,11.7l-47.5,59.8,26.6,39.5c1.2,1.8,1.7,4,1.3,6.2s-1.7,4-3.5,5.3l-.1.1c-1.4.9-2.9,1.3-4.6,1.3ZM259.2,176.6h-.4c-1,.1-1.9.6-2.5,1.4l-51.3,64.4c-1,1.2-1.1,2.8-.3,4.2l.1.2c.1.2.2.5.3.6l29.7,44c.6.8,1.4,1.4,2.4,1.6s2,0,2.8-.6l.1-.1c.8-.6,1.4-1.4,1.6-2.4s0-2-.6-2.8l-28.5-42.1,49.6-62.3c1.3-1.6,1-4-.6-5.3h0c-.7-.6-1.6-.8-2.4-.8Z"/>
    </g>
    <path class="cls-8" d="M207.7,250.8c-1.5,0-3-.5-4.3-1.5-3-2.4-3.5-6.7-1.1-9.7.4-.5,1.1-.6,1.6-.2s.6,1.1.2,1.6c-.8,1-1.1,2.2-1,3.4s.8,2.4,1.7,3.1c1,.8,2.2,1.1,3.4,1s2.4-.8,3.1-1.7l3-3.8c.4-.5,1.1-.6,1.6-.2s.6,1.1.2,1.6l-3,3.8c-1.4,1.7-3.4,2.6-5.4,2.6Z"/>
    <circle class="cls-8" cx="208.5" cy="244" r="1.8"/>
    <g>
      <path class="cls-10" d="M534.4,655.1s2.1,8.3,1.7,13.7c-.4,5.4,2.1,12.9,2.1,12.9,0,0,8.6-1.1,18.9-3.5"/>
      <path class="cls-8" d="M536.6,684.2l-.6-1.8c-.1-.3-2.6-8-2.2-13.8.4-5-1.6-12.9-1.6-13-.3-1.2.4-2.4,1.6-2.7,1.2-.3,2.4.4,2.7,1.6.1.4,2.2,8.7,1.7,14.5-.3,3.4.8,7.8,1.4,10.2,3.1-.5,9.5-1.5,16.8-3.2,1.2-.3,2.4.5,2.7,1.7s-.5,2.4-1.7,2.7c-10.3,2.4-18.8,3.5-19.1,3.5l-1.7.3Z"/>
    </g>
    <path class="cls-8" d="M537.3,675.8c-.5,0-1-.4-1.1-.9-.1-.6.3-1.2.9-1.3.1,0,12.2-2.1,23-4.5.6-.1,1.2.3,1.3.9.1.6-.3,1.2-.9,1.3-10.9,2.4-23,4.5-23.1,4.5.1,0,0,0-.1,0Z"/>
    <path class="cls-8" d="M92.2,653.1h-.4c-16.2-2.6-27.3-9.6-27.7-9.9-1-.7-1.3-2.1-.7-3.1.7-1,2.1-1.3,3.1-.7h0c.1.1,10.7,6.8,26,9.3,1.2.2,2.1,1.4,1.9,2.6-.2,1-1.1,1.8-2.2,1.8Z"/>
    <path class="cls-8" d="M228.1,663.5c-1.1,0-2.1-.8-2.2-2-.2-1.2.7-2.4,1.9-2.5.2,0,18.8-2.5,29.4-11.9.9-.8,2.4-.7,3.2.2s.7,2.4-.2,3.2c-11.6,10.3-31,12.9-31.8,13h-.3Z"/>
    <path class="cls-8" d="M197.1,435c-.8,0-1.6-.5-2-1.2-.6-1.1-.1-2.5,1-3h0c.1-.1,12.5-6.4,16.3-19.4.4-1.2,1.6-1.9,2.8-1.5s1.9,1.6,1.5,2.8c-4.4,14.9-18.1,21.9-18.6,22.2-.3,0-.7.1-1,.1Z"/>
    <path class="cls-8" d="M130.1,313.7c-1.8,0-3.3-.3-4.6-1-2.4-1.2-3-3.2-3.1-3.5l4.4-1v-.1s.2.4,1,.7c1.2.5,5,1.1,14.3-3,8-3.5,17.4-2.5,17.8-2.5,1.2.1,2.1,1.3,2,2.5s-1.3,2.1-2.5,2c-.1,0-8.7-.9-15.5,2.1-5.6,2.5-10.2,3.8-13.8,3.8Z"/>
    <path class="cls-8" d="M160,268.2c-.6,0-1.1-.5-1.1-1.1s.5-1.1,1.1-1.1c0,0,4.7,0,8.7-1.2.6-.2,1.2.2,1.4.8.2.6-.2,1.2-.8,1.4-4.3,1.2-9.1,1.2-9.3,1.2Z"/>
    <path class="cls-8" d="M148.6,243.4c-.5,0-.9-.3-1.1-.8-.2-.6.2-1.2.8-1.4.1,0,6.1-1.7,9.5-2.7.6-.2,1.2.2,1.4.8.2.6-.2,1.2-.8,1.4-3.5,1-9.5,2.7-9.6,2.7,0,0-.1,0-.2,0Z"/>
    <path class="cls-8" d="M242.1,687.4c-.5,0-.9-.3-1.1-.8-.2-.6.2-1.2.8-1.4.4-.1,44.5-12.2,52.6-17.4,8-5.1,10.6-12.3,10.6-12.4.2-.6.8-.9,1.4-.7s.9.8.7,1.4c-.1.3-2.9,8-11.5,13.5-8.4,5.4-51.4,17.2-53.3,17.7-.1.1-.2.1-.2.1Z"/>
    <path class="cls-8" d="M101.9,684.6c-4.5,0-10.6-.2-18.4-1-19.5-1.9-33.6-13.1-34.1-13.6-.5-.4-.6-1.1-.2-1.6.4-.5,1.1-.6,1.6-.2.1.1,14.1,11.3,32.9,13.1,19.7,1.9,28.2.4,28.3.4.6-.1,1.2.3,1.3.9.1.6-.3,1.2-.9,1.3-.3.1-3.5.7-10.5.7Z"/>
    <path class="cls-8" d="M276.3,472.2c-.1,0-.2,0-.3-.1l-11-3.4c-.6-.2-.9-.8-.7-1.4.2-.6.8-.9,1.4-.7l11,3.4c.6.2.9.8.7,1.4-.1.5-.6.8-1.1.8Z"/>
    <path class="cls-10" d="M525.7,403.2c-1.2,0-2.3-.1-3.5-.3-14.5-2.1-24.3-16.9-26.6-39.8-11.5-10.4-21.3-27-27.3-46-6.1-19.4-7.4-38.6-3.7-53.7-4.2-3.4-8.3-7.2-12-11.3-15.2-16.6-24-35.9-22.9-50.4.5-7.1,3.3-12.8,8.1-16.7,14.5-11.8,42.4-2.5,65.5,21.7,6.9-17.1,17.8-27.2,30-27.2h0c6.3,0,12.2,2.8,17.2,8,10.2,10.7,15.8,31.3,14.7,53.8-.4,7.9-1.6,15.8-3.5,23.1,7.2,4.7,12.5,13.4,15.4,25.3,3.3,13.8,3,30.9-.7,48.4-3.9,18.2-11.2,34.8-20.6,46.8-9.4,11.9-19.9,18.3-30.1,18.3ZM453.3,193.9c-2.8,0-5.1.7-6.8,2-1.7,1.4-2.7,3.7-3,6.9-.8,10.6,6.8,26.3,19.3,39.9,4.3,4.7,8.9,8.9,13.9,12.5l4.1,3-1.6,4.8c-4.3,12.8-3.3,31.5,2.4,50,5.5,17.5,14.9,32.9,25.1,41.3l2.3,1.9.2,3c1.2,17,7.1,28.7,15,29.8,12.2,1.8,30.9-19.9,38.2-54,7-32.1-.2-57.1-11.3-60.2l-7.1-2,2.4-7c2.6-7.7,4.2-16.4,4.6-25.2.9-18.6-3.4-35.6-10.9-43.5-2.3-2.4-4.7-3.6-7-3.6h0c-6.5,0-15.7,10-20.4,29l-3.5,14.2-8.8-11.6c-1.9-2.6-3.9-4.9-5.9-7.1-14.4-15.7-31-24.1-41.2-24.1Z"/>
    <g>
      <path class="cls-10" d="M545.5,189.8c-11.6,0-22.2,14.2-27.2,34.3-1.9-2.6-4-5.1-6.3-7.6-20.2-22-45.9-32.2-57.5-22.8-11.6,9.4-4.6,34.9,15.5,56.9,4.7,5.2,9.8,9.7,14.9,13.4-4.5,13.7-4.1,33.6,2.4,54.3,6.2,19.7,16.4,35.7,27.3,44.6,1.4,20,9,34.5,20.9,36.3,17.8,2.6,38.4-24,46.1-59.4,7.4-34,.1-63.8-16.2-68.4,2.7-8,4.5-17.3,5-27.1,1.4-30.1-9.7-54.5-24.9-54.5Z"/>
      <path class="cls-10" d="M538,406.5c-1.2,0-2.3-.1-3.5-.3-14.5-2.1-24.3-16.9-26.6-39.8-11.5-10.4-21.3-27-27.3-46-6.1-19.4-7.4-38.6-3.8-53.7-4.2-3.4-8.3-7.2-12-11.3-15.2-16.6-24-35.9-22.9-50.4.5-7.1,3.3-12.8,8.1-16.7,14.5-11.8,42.4-2.5,65.5,21.7,6.9-17.1,17.8-27.2,30-27.2h0c6.3,0,12.2,2.8,17.2,8,10.2,10.7,15.8,31.3,14.7,53.8-.4,7.9-1.6,15.8-3.5,23.1,7.2,4.7,12.5,13.4,15.4,25.3,3.3,13.8,3,30.9-.7,48.4-3.9,18.2-11.2,34.8-20.6,46.8-9.4,11.9-19.8,18.3-30,18.3ZM465.6,197.2c-2.8,0-5.1.7-6.8,2-1.7,1.4-2.7,3.7-3,6.9-.8,10.6,6.8,26.3,19.3,39.9,4.3,4.7,8.9,8.9,13.9,12.5l4.1,3-1.6,4.8c-4.3,12.8-3.3,31.5,2.4,50,5.5,17.5,14.9,32.9,25.1,41.3l2.3,1.9.2,3c1.2,17,7.1,28.7,15,29.8,12.2,1.8,30.9-19.9,38.2-54,7-32.1-.2-57.1-11.3-60.2l-7.1-2,2.4-7c2.6-7.7,4.2-16.4,4.6-25.2.9-18.6-3.4-35.6-10.9-43.5-2.3-2.4-4.7-3.6-7-3.6h0c-6.5,0-15.7,10-20.4,29l-3.5,14.2-8.8-11.6c-1.9-2.6-3.9-4.9-5.9-7.1-14.4-15.7-31-24.1-41.2-24.1ZM545.5,189.8h0Z"/>
    </g>
    <path class="cls-8" d="M154,286.5c-3.1,0-5.2-.5-5.4-.5-1-.2-1.6-1.2-1.4-2.2.2-1,1.2-1.6,2.2-1.4h0c.1,0,7.8,1.7,15.4-1.9.9-.4,2.1,0,2.5.9s0,2.1-.9,2.5c-4.5,2-9.1,2.6-12.4,2.6Z"/>
    <path class="cls-8" d="M192.9,480.3c-.3,0-.5-.1-.8-.3-.5-.4-.5-1.1-.1-1.6,12-13.2,8.5-30.9,8.5-31.1-.1-.6.3-1.2.9-1.3.6-.1,1.2.3,1.3.9.2.8,3.7,19-9,33-.2.2-.5.4-.8.4Z"/>
    <path class="cls-10" d="M533.2,186.5c-11.6,0-22.2,14.2-27.2,34.3-1.9-2.6-4-5.1-6.3-7.6-20.2-22-45.9-32.2-57.5-22.8-11.6,9.4-4.6,34.9,15.5,56.9,4.7,5.2,9.8,9.7,14.9,13.4-4.5,13.7-4.1,33.6,2.4,54.3,6.2,19.7,16.4,35.7,27.3,44.6,1.4,20,9,34.5,20.9,36.3,17.8,2.6,38.4-24,46.1-59.4,7.4-34,.1-63.8-16.2-68.4,2.7-8,4.5-17.3,5-27.1,1.5-30.1-9.7-54.5-24.9-54.5Z"/>
    <path class="cls-5" d="M545.8,189.8c-11.6,0-22.2,14.2-27.2,34.3-1.9-2.6-4-5.1-6.3-7.6-20.2-22-45.9-32.2-57.5-22.8-11.6,9.4-4.6,34.9,15.5,56.9,4.7,5.2,9.8,9.7,14.9,13.4-4.5,13.7-4.1,33.6,2.4,54.3,6.2,19.7,16.4,35.7,27.3,44.6,1.4,20,9,34.5,20.9,36.3,17.8,2.6,31.5-21.6,41.4-56.5,9.9-34.8,4.8-66.7-11.6-71.3,2.7-8,4.5-17.3,5-27.1,1.6-30.2-9.6-54.5-24.8-54.5Z"/>
    <path class="cls-10" d="M432.5,325.8c-4-2.9-8.1-4.4-13.8-1.2-14.8,8.3-17.7,22-12.3,41.3,1.2,4.4,3.7,8.8,6.6,13.4,10,15.3,26.1,31.5,21.7,48.1-2.8,10.8-6.6,18.9-9.4,28l78.5,10.4,6.2-6.1s-12.6-13.7-12.9-17.9c-1-12.4-12-17.6-15-34.4-2.6-14.1-1.1-23.9-2-32.7,0,0-4.2-22.5-17.9-32.3-13.7-9.8-29.7-16.6-29.7-16.6Z"/>
    <path class="cls-8" d="M525.7,398.5c-.9,0-1.9-.1-2.8-.2-12.6-1.9-21-15.8-22.8-37.4-11.4-9.7-21.4-26.1-27.3-45.1-6.1-19.6-7.2-39.6-2.9-54.1-4.9-3.8-9.6-8.1-13.9-12.7-14.3-15.6-22.6-33.6-21.7-46.8.4-5.7,2.6-10.4,6.4-13.4,12.7-10.3,39.3-.2,60.6,23,1.3,1.4,2.5,2.8,3.7,4.2,5.8-19.4,16.7-31.7,28.2-31.7h0c4.9,0,9.7,2.2,13.7,6.5,9.3,9.8,14.4,29,13.4,50.3-.4,8.9-2,17.7-4.4,25.6,16.3,6.9,23,36.4,15.6,70.3-7.6,35.4-27.3,61.4-45.8,61.5ZM453.3,189.2c-3.9,0-7.2,1-9.7,3-2.8,2.3-4.4,5.7-4.7,10.2-.9,11.8,7.2,28.9,20.5,43.4,4.5,4.9,9.4,9.3,14.6,13.1l1.3,1-.5,1.6c-4.6,13.7-3.7,33.5,2.4,52.9,5.8,18.6,15.5,34.5,26.6,43.6l.8.6.1,1c1.4,19.6,8.7,32.7,19,34.2,16.3,2.4,36.3-24,43.6-57.7,7-32.5.6-61.4-14.7-65.8l-2.3-.6.8-2.2c2.7-8.1,4.4-17.2,4.9-26.5,1-19.8-3.8-38.2-12.2-47-3.2-3.4-6.8-5.1-10.5-5.1h0v-2.3,2.3c-10.1,0-20.1,13.1-25,32.6l-1.3,4.5-2.8-3.7c-2-2.7-4.1-5.1-6.2-7.4-14.5-15.9-32.4-25.7-44.7-25.7Z"/>
    <polygon class="cls-8" points="576.3 354.6 474.5 342.4 474.4 449 545.7 457.7 576.3 354.6"/>
    <path class="cls-8" d="M504.7,468.2l-82.2-10.9.8-2.5c1.2-3.8,2.5-7.4,3.8-11.1,1.9-5.2,3.9-10.6,5.5-16.8,3.2-12.1-5.8-24.5-14.6-36.5-2.3-3.2-4.7-6.5-6.9-9.8-3.6-5.5-5.8-9.9-6.9-14-6-21.4-1.8-35.4,13.3-43.8,7.1-4,12.2-1.6,16.2,1.3,1,.7,1.2,2.1.5,3.1s-2.1,1.2-3.1.5c-3.6-2.6-6.7-3.6-11.4-1-13.2,7.4-16.6,19.3-11.2,38.7,1,3.6,3,7.7,6.3,12.8,2.1,3.1,4.3,6.3,6.7,9.6,9.3,12.8,19,26.1,15.3,40.3-1.7,6.5-3.7,11.9-5.6,17.3-1,2.8-2,5.6-2.9,8.3l74.7,9.9,3.9-3.8c-4-4.5-11.7-13.6-12-17.7-.4-5.5-3.1-9.5-6.1-14.1-3.4-5.2-7.2-11-8.9-20.1-1.6-9-1.7-16.3-1.7-22.7,0-3.6,0-7.1-.4-10.2-.1-1.2.8-2.3,2-2.5,1.2-.1,2.3.8,2.5,2,.4,3.4.4,6.9.4,10.7,0,6.2,0,13.3,1.6,21.9,1.5,8.2,4.9,13.4,8.2,18.4,3.2,4.9,6.3,9.6,6.8,16.2.2,2.1,6.5,10.3,12.3,16.6l1.5,1.6-8.4,8.3Z"/>
    <g>
      <path class="cls-10" d="M470.2,350.7c-5.6-7.5-14.5-12.9-22.7-16.7"/>
      <path class="cls-8" d="M470.2,352.9c-.7,0-1.4-.3-1.8-.9-4.4-5.9-11.8-11.3-21.8-16-1.1-.5-1.6-1.9-1.1-3s1.9-1.6,3-1.1c10.9,5.1,18.6,10.8,23.5,17.4.7,1,.5,2.4-.5,3.2-.4.3-.8.4-1.3.4Z"/>
    </g>
    <path class="cls-8" d="M468.2,531.7c10.8,12.1,24.9,32.5,27.2,47.2,5,31.7,33.4,80.3,33.4,80.3,0,0,7.6,1.2,20.1-2,15.2-3.9,18.7-7.5,18.7-7.5,0,0-22.4-37.5-28-78.4-4.9-36.1-14.1-72.6-23.1-93.6-3.3-7.7-5.7-13.1-7.4-16.9,0-.3.1-.6.1-.9h-.5c-2.7-6.1-3.5-7.7-3.5-7.7l-.7,5.8c-2,0-3.9-.1-5.8-.1l-50.1,1.6,19.6,72.2Z"/>
    <g>
      <path class="cls-10" d="M415.8,364.4s18,28.7,36.6,51c11.5,13.8,46.3,33.6,46.3,33.6l7.7,13.8s6.9,1.4,11.6,1.1c4.7-.3,16.3-6,16.3-6l3.2-8.7s-10.6-10.4-15.6-12.2-15.4-3.3-15.4-3.3l-31.5-27.1-30.4-52.1"/>
      <path class="cls-8" d="M516.5,466.2c-4.7,0-10.3-1.1-10.5-1.2l-1-.2-7.9-14.1c-4.6-2.7-35.4-20.7-46.4-33.8-18.5-22.2-36.6-51-36.8-51.3-.7-1.1-.3-2.4.7-3.1,1.1-.7,2.4-.3,3.1.7.2.3,18.1,28.9,36.4,50.8,11.1,13.3,45.4,32.9,45.7,33.1l.5.3,7.5,13.4c2,.4,6.7,1.1,10,.9,3.2-.2,11-3.6,14.7-5.3l2.4-6.5c-3.5-3.3-10.4-9.5-13.8-10.7-4.7-1.7-14.9-3.2-15-3.2l-.7-.1-32.4-27.8-30.6-52.5c-.6-1.1-.3-2.5.8-3.1,1.1-.6,2.5-.3,3.1.8l30.2,51.8,30.8,26.5c2.4.4,10.7,1.7,15.2,3.3,5.3,1.9,15.3,11.6,16.4,12.7l1,1-4.1,10.9-.8.4c-1.2.6-12.2,5.8-17.1,6.2-.2.1-.8.1-1.4.1Z"/>
    </g>
    <g>
      <path class="cls-10" d="M377.1,651.7s-5,5.6-6.7,11.2c-1.6,5.7-2.1,14-2.1,14,0,0,26.5,9.7,40.4,8.9,15-.8,19.5-3.2,19.5-3.2,0,0-2.4-8.9-11.2-10.1-13-1.8-14.3-6.2-14.3-6.2"/>
      <path class="cls-8" d="M407.1,688.1c-14.4,0-38.5-8.7-39.5-9.1l-1.6-.6.1-1.7c0-.3.5-8.6,2.2-14.5,1.7-6.1,6.9-11.9,7.2-12.1.8-.9,2.3-1,3.2-.2.9.8,1,2.3.2,3.2,0,.1-4.7,5.3-6.2,10.3-1.1,3.9-1.7,9.2-1.9,11.8,5.9,2,26.6,8.8,37.9,8.2,9.1-.5,14.2-1.6,16.7-2.3-1.1-2.3-3.7-5.8-8.6-6.5-13.7-1.9-15.9-6.8-16.2-7.8l4.3-1.3s0-.1-.1-.2c0,0,1.7,3.3,12.5,4.8,10.2,1.4,13,11.3,13.1,11.7l.5,1.7-1.6.8c-.5.3-5.4,2.7-20.5,3.5-.5.3-1.1.3-1.7.3Z"/>
    </g>
    <path class="cls-8" d="M504.2,463.4l-7-.7-47.2-4.2-25.6-4c-.1-.1-1,.5-1.3,1.7-2.3,8.1-4.2,17.1-2.7,33.6,2.6,30.4-8,63.8-13.2,71.4-1,1.5-2,2.9-2.9,4.3-9.8,14.1-19.9,28.7-34.6,82.3l-.5,1.7s7.1,4,18.6,8c7.6,2.7,20,4,20,4,0,0,5.3-12.7,20-38.1,4.9-8.5,14.5-21,20.5-31,24-39.9,42.1-102.8,46.4-115.7.5-1.6,1-3.2,1.3-4.6l8.2-8.7Z"/>
    <path class="cls-8" d="M441.3,401.1c-.8,0-1.6-.5-2-1.3-.6-1.1-.1-2.5,1-3,.1-.1,11.8-5.9,20-12.2,1-.8,2.4-.6,3.2.4.8,1,.6,2.4-.4,3.2-8.6,6.6-20.2,12.5-20.7,12.7-.4.1-.7.2-1.1.2Z"/>
    <g>
      <path class="cls-8" d="M152,249c-.2,0-.5-.1-.7-.2-.5-.4-.6-1.1-.2-1.6.1-.2,1.3-1.6,2.9-1.7.6,0,1.5.1,2.3,1,.4.4.4,1.2,0,1.6s-1.2.4-1.6,0c-.3-.3-.5-.3-.5-.3-.5,0-1,.6-1.2.8-.4.2-.7.4-1,.4Z"/>
      <ellipse class="cls-8" cx="155.5" cy="248.3" rx="1.4" ry="2.1" transform="translate(-22.6 15.68) rotate(-5.38)"/>
    </g>
    <path class="cls-8" d="M531,460.7c-.3,0-.6-.1-.8-.3l-4.8-4.8c-.4-.4-.4-1.2,0-1.6.4-.4,1.2-.4,1.6,0l4.8,4.8c.4.4.4,1.2,0,1.6-.2.1-.5.3-.8.3Z"/>
    <path class="cls-8" d="M524,463.8c-.3,0-.6-.1-.8-.4l-5.4-5.9c-.4-.5-.4-1.2.1-1.6.5-.4,1.2-.4,1.6.1l5.4,5.9c.4.5.4,1.2-.1,1.6-.3.2-.6.3-.8.3Z"/>
    <path class="cls-8" d="M517,465.3c-.3,0-.6-.1-.8-.3l-5.2-5c-.4-.4-.5-1.1,0-1.6.4-.4,1.1-.5,1.6,0l5.2,5c.4.4.5,1.1,0,1.6-.2.2-.5.3-.8.3Z"/>
    <path class="cls-8" d="M406.3,681.1c-13,0-36.5-9.7-37.5-10.1-.6-.2-.8-.9-.6-1.5.2-.6.9-.8,1.5-.6.2.1,24.1,9.9,36.6,9.9s20-2.4,20-2.4c.6-.2,1.2.1,1.4.7.2.6-.1,1.2-.7,1.4-.3.2-7.8,2.6-20.7,2.6Z"/>
    <path class="cls-8" d="M589.8,663.3c-.5,0-.9-.3-1.1-.8-.2-.6.1-1.2.7-1.4,15-5.2,15.1-12,15.1-12.1,0-.6.5-1.1,1.1-1.2.6,0,1.1.4,1.2,1.1,0,.3.2,8.5-16.6,14.3-.2.1-.3.1-.4.1Z"/>
    <g>
      <path class="cls-10" d="M638.8,464.3s-.5-10.1,4.8-11.8c6-1.9,9,5.4,9,5.4l-13.8,6.4Z"/>
      <path class="cls-8" d="M636.7,467.8l-.2-3.3c-.1-1.2-.4-11.9,6.3-14,6.3-2,10.5,3.5,11.8,6.7l.8,2-18.7,8.6ZM645.4,454.5c-.4,0-.8.1-1.2.2-1.8.6-2.7,3.4-3,6l8.2-3.8c-.9-1.1-2.2-2.4-4-2.4Z"/>
    </g>
    <path class="cls-5" d="M638.8,464.3s-.5-10.1,4.8-11.8c6-1.9,9,5.4,9,5.4l-13.8,6.4Z"/>
    <path class="cls-8" d="M636.7,467.8l-.2-3.3c-.1-1.2-.4-11.9,6.3-14,6.3-2,10.5,3.5,11.8,6.7l.8,2-18.7,8.6ZM645.4,454.5c-.4,0-.8.1-1.2.2-1.8.6-2.7,3.4-3,6l8.2-3.8c-.9-1.1-2.2-2.4-4-2.4Z"/>
    <g>
      <path class="cls-10" d="M626.9,480.7s-5.9-8.5-2.3-12.4c4.1-4.5,10.7.3,10.7.3l-8.4,12.1Z"/>
      <path class="cls-8" d="M626.9,484.7l-1.8-2.7c-.7-1-6.8-10.1-2.1-15.2,4.3-4.8,10.9-2,13.7.1l1.8,1.3-11.6,16.5ZM629.1,468.6c-1,0-2,.3-2.8,1.2-1.2,1.3-.4,4.3.8,6.7l5-7.1c-.9-.4-1.9-.8-3-.8Z"/>
    </g>
    <path class="cls-5" d="M626.9,480.7s-5.9-8.5-2.3-12.4c4.1-4.5,10.7.3,10.7.3l-8.4,12.1Z"/>
    <path class="cls-8" d="M626.9,484.7l-1.8-2.7c-.7-1-6.8-10.1-2.1-15.2,4.3-4.8,10.9-2,13.7.1l1.8,1.3-11.6,16.5ZM629.1,468.6c-1,0-2,.3-2.8,1.2-1.2,1.3-.4,4.3.8,6.7l5-7.1c-.9-.4-1.9-.8-3-.8Z"/>
    <g>
      <path class="cls-10" d="M604.2,505.7s-6.2,14.7-12.1,16c-6.5,1.4-10.6-6.9-10.6-6.9,0,0-.7-3,.6-7.2,2.5-8.1,1-9.2-.4-12.6-1.1-2.8-4.2-5.5-8.1-6.5,0,0-9-5.3-12.9-11.8-3.3-5.6-4.8-30.4,21.6-33.7,13.2-1.7,19.6,2.8,23.4,10.9,3.1,6.6.8,10.3,3.8,11.6.8.4,6.6,2.9,6.6,2.9l-.7,6.6s.2,9.4-2.5,12.3c-4.9,5.2-14.3,6.5-14.3,6.5"/>
      <path class="cls-8" d="M590.6,524.1c-6.9,0-10.9-7.9-11.1-8.3l-.1-.2-.1-.3c-.1-.4-.8-3.7.7-8.3,1.9-6.1,1.3-7.4.3-9.7-.2-.5-.4-.9-.6-1.5-.9-2.2-3.6-4.4-6.6-5.2l-.3-.1-.3-.1c-.4-.2-9.6-5.7-13.6-12.6-2.4-4-3.5-14.1.7-22.6,2.8-5.7,8.9-12.8,22.6-14.5,12.9-1.6,21.1,2.2,25.7,12.1,1.6,3.5,1.9,6.3,2.1,8.3.2,2,.3,2.1.5,2.2.8.4,6.6,2.8,6.6,2.8l1.5.7-.9,8.1c0,2,0,10.4-3.1,13.8-5.4,5.7-15.2,7.1-15.7,7.2-1.2.2-2.4-.7-2.5-1.9-.2-1.2.7-2.4,1.9-2.5.1,0,8.8-1.3,13-5.8,1.4-1.5,2-7.3,1.9-10.7v-.1l.6-5.1c-1.8-.8-4.5-2-5.1-2.2-2.8-1.2-3-3.7-3.2-5.9-.2-1.8-.4-4-1.7-6.8-2.7-5.7-7.3-11.3-21.1-9.6-9.3,1.2-15.8,5.2-19.1,12-3.5,7.2-2.5,15.6-.9,18.3,3.2,5.4,10.4,10,11.8,10.9,4.3,1.3,7.9,4.3,9.3,7.8.2.5.4.9.6,1.3,1.4,3.2,2.2,5.5-.1,12.8-.9,2.8-.7,5-.6,5.8.7,1.2,3.8,6.3,8,5.4,3.3-.7,8.1-9,10.5-14.6.5-1.1,1.8-1.7,3-1.2,1.1.5,1.7,1.8,1.2,2.9-1.1,2.6-7,15.9-13.8,17.3-.7.1-1.4.1-2,.1Z"/>
    </g>
    <path class="cls-8" d="M596.8,446.6c-.3-.3-6.8-6.3-18.2-5.1-8.3.8-17.4,8.5-20.8,18.3-4.4,12.6,1,21,4.3,24.5s16.4,9.1,16.4,9.1c.6,0,2.4-.7,5.4-2.4,7.1-4,7.6-5.3,6.9-7.7l-4.2,1.4s-8.5-3-6.5-7.6c2.6-6.1,10,2,10,2,0,0,6.2-4.9.5-16.3-3.4-6.7-3.5-6.6.3-10.8,3.6-4,11.6-4.2,11.6-4.2l-5.7-1.2Z"/>
    <path class="cls-8" d="M605.2,479.7c-.5,0-1-.3-1.1-.9-.1-.6.2-1.2.8-1.4,2.8-.7,5.3-1.4,8.6-2.9.6-.3,1.2,0,1.5.6s0,1.2-.6,1.5c-3.4,1.6-6.1,2.4-9,3.1,0,0-.1,0-.2,0Z"/>
    <g>
      <path class="cls-8" d="M599.3,467.8h-.2c-.6-.1-1-.7-.9-1.3,0-.2.4-1.8,1.7-2.5.5-.3,1.4-.5,2.7.1.6.3.8.9.5,1.5s-.9.8-1.5.5c-.1-.1-.5-.2-.7-.1-.3.1-.5.7-.5.9-.1.5-.5.9-1.1.9Z"/>
      <ellipse class="cls-8" cx="602.52" cy="466.21" rx="1.5" ry="2.2" transform="translate(-139.83 295.02) rotate(-24.75)"/>
    </g>
    <path class="cls-8" d="M595.5,463.6c-.4,0-.8-.2-1-.6-.3-.5-.1-1.2.4-1.5.1-.1,3.1-1.8,7.5-3,.6-.2,1.2.2,1.4.8s-.2,1.2-.8,1.4c-4.1,1.1-7,2.8-7,2.8-.1,0-.3.1-.5.1Z"/>
    <g>
      <path class="cls-10" d="M586.7,669.5l-1,4.8s6,9.1,12.7,13.1c5.4,3.2,2.5,7.6,2.5,7.6,0,0-15.8.1-22.4-3.9-6.5-4-14.8-9.7-14.8-9.7,0,0,2-4.3,4.1-8"/>
      <path class="cls-8" d="M600.7,697.2c-2,0-16.7-.1-23.3-4.2-6.5-4-14.8-9.7-14.9-9.7l-1.6-1.1.8-1.7c.1-.2,2-4.4,4.2-8.2.6-1.1,2-1.5,3.1-.8,1.1.6,1.5,2,.8,3.1-1.2,2.2-2.5,4.6-3.2,6.2,2.7,1.8,8.4,5.7,13.1,8.5,4.4,2.7,14.6,3.4,19.6,3.5v-.5c0-.4,0-1.6-2.2-2.9-7.1-4.2-13.1-13.4-13.4-13.8l-.5-.8,1.2-5.7c.3-1.2,1.4-2,2.7-1.7,1.2.3,2,1.4,1.7,2.7l-.8,3.8c1.6,2.2,6.3,8.6,11.4,11.6,2.3,1.4,3.7,3.1,4.2,5.2.7,2.9-.8,5.3-.9,5.5l-.7,1h-1.2c.1,0,0,0-.1,0Z"/>
    </g>
    <path class="cls-8" d="M602.1,692.5h-.2c-1.8-.2-17.6-2.3-21-4.5-7.4-5-14.5-10.7-14.6-10.8-.6-.5-.7-1.4-.2-2s1.4-.7,2-.2c.1.1,7.1,5.8,14.4,10.6,2.1,1.4,13.3,3.2,19.8,4.1.8.1,1.3.8,1.2,1.6-.1.7-.7,1.2-1.4,1.2Z"/>
    <path class="cls-5" d="M691.9,552.4l23.1-7.9s5.4-15.3,11.4-9.1,2.4,20.1-1.2,24.1-20.4,11-20.4,11l-28.8-.6,15.9-17.5Z"/>
    <path class="cls-8" d="M705.3,572.8l-34.3-.7,19.6-21.7,22.7-7.8c1.2-3,4.4-9.9,9-10.9,1.4-.3,3.6-.2,5.8,2.1,6.9,7.1,3.3,22.3-1.2,27.2-3.8,4.2-19.4,10.9-21.2,11.6l-.4.2ZM681,567.8l23.4.5c6.4-2.7,16.9-7.7,19.2-10.3,2.9-3.1,6.3-15.8,1.2-21-.9-.9-1.4-.8-1.6-.8-2.1.5-4.9,5.7-6.1,9l-.4,1-23.6,8.1-12.1,13.5Z"/>
    <g>
      <path class="cls-10" d="M677.4,671.9c3.3,0,5.5-.5,9.2-.6,7.8-.3,9.3,1.4,9.3,1.4,0,0,.4,4.8-9.9,10-6.1,3.1-8.6,2.9-14.5,6.1-6.8,3.6-12.1,3.7-12.1,3.7l-4.7-16.6"/>
      <path class="cls-8" d="M657.5,694.7l-5.2-18.2c-.3-1.2.4-2.4,1.6-2.8,1.2-.3,2.4.4,2.8,1.6l4.2,14.7c2-.3,5.4-1.1,9.4-3.2,3.2-1.7,5.5-2.5,7.7-3.3,2.1-.7,4-1.4,6.9-2.8,5.5-2.8,7.5-5.3,8.2-6.7-1.1-.3-3.1-.5-6.5-.4-1.6.1-2.9.2-4.2.3-1.6.2-3.2.3-5.1.3-1.2,0-2.2-1-2.2-2.3,0-1.2,1-2.2,2.3-2.2h.1c1.6,0,2.9-.1,4.5-.3,1.3-.1,2.7-.3,4.5-.3,7.7-.3,10.2,1.2,11,2.1l.5.6.1.7c.1,1.1,0,6.6-11.1,12.2-3.1,1.5-5.3,2.3-7.4,3.1-2.2.8-4.2,1.5-7.1,3-7.2,3.8-12.9,4-13.1,4l-1.9-.1Z"/>
    </g>
    <path class="cls-10" d="M599.8,577.2s-3.2,22.1-2.7,31.2c.5,9.1-1.7,23.9-1.7,23.9l-26.6,34.7,5.9,4.3,18,5.1,25-36.5,8.6-21.2,12.2,14,9.1,44.2s9.4-3.4,22.6-6.3c0,0-13.3-29.3-12.5-40.9.8-11.6-15.5-49.9-15.5-49.9l-25.6-3-16.8.4Z"/>
    <path class="cls-10" d="M617.4,529.6s2.7-47.1,18.4-61.9c12-11.3,32-27,60.9-.6,2.1,9.1.7,16.1-1.5,19.3-5.4,7.9-12.3,11-12.3,11l-4.8,3.1,18,15.6-.9,19.3-3,8.5,10,16.4,9.6,1.2,7.2-8.5.2,2.4-.8,14.4-27.2,9.8-24.8-2.3s.8,10.6,7.2,23.4c6.4,12.8,4,16.9,4,16.9,0,0-44-13.1-49.7-37.3s-10.5-50.7-10.5-50.7Z"/>
    <path class="cls-5" d="M617.4,529.6s10.3-43.2,25.7-58.3c17-16.7,28.5-27.1,51.8-4.8,11.4,19-17.7,33.7-17.7,33.7l8.4,5.9s4.8,5.6,10.5,13.6c8.4,11.9,7.2,28.3,6.6,40.5,1.2.3,8.8,0,8.8,0,0,0,.3-.3,4.5-4.2,4.2-4,8.5-2.1,8.5-2.1l5.6,8.1-4.8,13.6-6.3,4.5-9.6-3.4-16.5,4.5-17.7,4.2s-3.6,2.3-1.5,16.4c2.1,14.1,4.5,14.7,4.5,14.7,0,0-45.1-9.5-50.3-36.5-4.7-24.1-10.5-50.4-10.5-50.4Z"/>
    <path class="cls-8" d="M703.3,564h-.4c-1.2-.2-2.1-1.4-1.8-2.6,0-.2,3.3-21.1-7.6-42.2-3.6-7-16.9-16.7-17-16.8l-3.3-2.4,3.8-1.5c.1-.1,13.1-5.4,16.1-16.3,3.4-12.7-2.1-18.9-4.7-20.9-11.5-9.3-33.6-8.5-50.7,8.9-6.7,6.8-11.7,17.9-14.8,33-.3,1.2-1.5,2-2.7,1.7s-2-1.5-1.7-2.7c3.3-15.9,8.7-27.8,16-35.2,14.8-15.1,40.1-22.7,56.8-9.3,3.2,2.6,10.3,10.3,6.2,25.6-2.5,9.3-10.6,15.1-15.3,17.7,4.4,3.5,12.5,10.3,15.5,16.1,11.6,22.5,8.2,44.1,8,45-.3,1.1-1.3,1.9-2.4,1.9Z"/>
    <path class="cls-8" d="M642,602.9c-.5,0-1-.2-1.4-.5-8.2-6.6-13.2-13.9-14.9-21.7-5.3-24-10.4-50.4-10.4-50.7v-.4c0-.2.1-4.2.6-10.3.1-1.2,1.2-2.2,2.5-2,1.2.1,2.1,1.2,2,2.5-.5,5.1-.6,8.8-.6,9.7.5,2.7,5.3,27.6,10.4,50.3,1.5,6.8,6,13.2,13.4,19.1,1,.8,1.1,2.2.3,3.2-.6.5-1.3.8-1.9.8Z"/>
    <path class="cls-8" d="M673.6,619c-.8,0-1.7-.1-2.7-.5-2.5-.9-6.4-2.8-10.1-4.6-1.3-.6-2.6-1.3-3.8-1.9-1.1-.5-1.6-1.9-1.1-3s1.9-1.6,3-1.1c1.2.6,2.6,1.2,3.9,1.9,3.6,1.7,7.3,3.6,9.6,4.4,1.1.4,1.4.2,1.4.2,0-.1.3-.9-.3-2.7-1.7-5.6-2.7-10.1-3.1-13.4-1-8.1,1.5-14.4,1.7-14.7.5-1.2,1.8-1.7,2.9-1.2,1.2.5,1.7,1.8,1.2,2.9,0,.1-2.2,5.6-1.4,12.5.4,3,1.4,7.4,3,12.7,1.3,4.3-.1,6.4-1,7.3-.5.5-1.5,1.2-3.2,1.2Z"/>
    <path class="cls-8" d="M664,586.9c-1.1,0-2.1-.8-2.2-1.9-.2-1.2.7-2.4,1.9-2.6l48.6-7.5.7.5c1.9,1.3,4.6,2.7,5.6,2.7,1.3,0,7.5-3.3,8.6-9.7,1.2-7.5-1.6-12-5-13.1-2.3-.7-6.8,4.1-9.2,7.9l-.7,1.1-19.6-.3c-1.2,0-2.2-1-2.2-2.3,0-1.2,1-2.2,2.3-2.2h0l17.1.3c6.9-10.2,12.6-9,13.7-8.7,5.2,1.7,9.8,7.9,8.1,18.1-1.4,8.4-9.2,13.5-13,13.5-2.4,0-5.8-2-7.4-3l-46.9,7.2h-.4Z"/>
    <path class="cls-6" d="M603.2,583.6l-3.3,53-11.8,10.7-12.3,21.4,17.4,5.9,9.3-16.1,10.6-12.3,11.3-26.4,12.7,13.4,4.3,22.4,6,21.7,14-2.5,8.7-4.1s-10.6-30.4-12.8-41.8c-3.2-16.6-14.4-49.5-14.4-49.5l-30.9-2.4-8.8,6.6Z"/>
    <path class="cls-8" d="M645.8,679.1l-.6-1.8c-6-18.7-8.2-36.5-8.6-40.3l-22.6-25.5-9.8-7.4c-1-.8-1.2-2.2-.4-3.2s2.2-1.2,3.2-.4l10.3,7.8,23.8,26.8.1.7c0,.2,1.7,18.5,7.9,38.3,3-.5,8.8-1.5,12.3-2.5,2.4-.7,4.1-1.5,5.2-2-1.2-4.4-4.8-17.6-10.1-39.2-8.2-33.3-16.1-48.1-18.3-51.9l-12.5.8-5.4.1h0c-1.2,0-2.2-1-2.3-2.2,0-1.2,1-2.3,2.2-2.3l5.3-.1,15-1,.7,1c.4.6,9.7,14.1,19.7,54.5,6.6,26.8,10.5,40.5,10.5,40.7l.4,1.4-1.1.9c-.3.2-2.7,2.1-8,3.6-5.1,1.5-14.3,2.9-14.7,2.9l-2.2.3Z"/>
    <path class="cls-10" d="M642.7,588.1l-15.9-61.5-35.1-22.7s-8.7-1.4-11.2,11.9c-3.6,18.8,5.6,38.3,5.9,41.2.6,5,1.6,20,1.9,39.3l21.7.5,32.7-8.7Z"/>
    <path class="cls-10" d="M648.2,586.1s-22.9-50.8-19.7-67.3c-3.8-8.9-18.8-14.2-29-19-11.1-5.2-19,9.4-19,9.4,0,0,3-4.4-.4,7.2-.6,2.3-1,10.6.5,17.9,1.9,9.2,6,17.9,7,24.6,2.3,15.3-3.5,20.5-.9,39.4,0,0,11.7-.3,24.2-3.9,12.5-3.5,37.3-8.3,37.3-8.3Z"/>
    <path class="cls-8" d="M588.4,599.3h-2.6v-2.2c0-.4.1-44.9-6.1-64.4-2.6-8.3-2.5-18.1.4-25.8l.1-.4.3-.3c.1-.1,3.2-3.5,8.5-6.1,5.5-2.7,13.9-2.2,14.3-2.2h.6l27.8,18.9-2.6,17.1c2.1,4.1,12.9,25.5,15.2,32.4,2.5,7.4,6.2,19.9,6.3,20.1l.7,2.3-2.3.6c-1.8.3-40.7,10-60.6,10ZM584.1,508.9c-2.3,6.6-2.4,15.3-.1,22.4,5.6,17.8,6.2,54,6.3,63.5,17-.5,46.8-7.4,55.2-9.4-1.2-4-3.7-12.2-5.5-17.7-2.4-7.2-15.2-32.2-15.3-32.5l-.3-.6,2.4-15.7-24.4-16.6c-1.9-.1-7.7-.1-11.4,1.8-3.7,1.8-6.1,4-6.9,4.8Z"/>
    <path class="cls-8" d="M594.5,677.2h-1.2c-.2,0-5.9,0-14.2-3.4-5.9-2.4-9.3-4.4-10-6.1l-.4-1,12.9-23.7,10.8-10.1,1.2-29.6c.1-1.2,1.1-2.2,2.3-2.2,1.2.1,2.2,1.1,2.2,2.3l-1.3,31.4-11.6,10.9-11.2,20.7c1,.7,3,1.8,6.7,3.3,5.4,2.2,9.5,2.8,11.4,3,3.2-4.8,15.9-23.8,19.9-28.9,3.5-4.4,7.1-18.1,8.2-23,.3-1.2,1.5-2,2.7-1.7s2,1.5,1.7,2.7c-.2.8-4.3,18.7-9.1,24.8-4.4,5.6-20.2,29.5-20.4,29.7l-.6.9ZM573.1,665.6h0Z"/>
    <path class="cls-8" d="M658.3,688.6c-.6,0-1.2-.4-1.4-1-.2-.8.2-1.5,1-1.7.1,0,5.9-1.6,14.2-4.4,14.2-4.8,17.7-9.1,17.7-9.2.5-.6,1.4-.7,2-.3.6.5.8,1.3.3,2-.1.2-3.8,5-19.1,10.1-8.4,2.8-14.3,4.5-14.4,4.5-.1-.1-.2,0-.3,0Z"/>
    <ellipse class="cls-8" cx="654.1" cy="486.1" rx="2.7" ry="2.5"/>
    <path class="cls-8" d="M661.3,503.7c-1.2,0-1.9-.1-2-.1-.6-.1-1.1-.6-1-1.2.1-.6.6-1.1,1.2-1,.1,0,8.6.8,19-3.6.6-.2,1.2,0,1.5.6.2.6,0,1.2-.6,1.5-8,3.3-14.8,3.8-18.1,3.8Z"/>
    <path class="cls-8" d="M716.5,573.6c-.5,0-1-.4-1.1-1-2.5-16.4,8.6-19.8,8.7-19.8.6-.2,1.2.2,1.4.8s-.2,1.2-.8,1.4c-.4.1-9.3,3-7.1,17.3.1.6-.3,1.2-.9,1.3h-.2Z"/>
    <path class="cls-8" d="M668.5,547h-.3c-.6-.2-1-.8-.8-1.4.1-.5.8-3,1.7-4.1,3.2-3.9,6.7-5.1,6.8-5.2.6-.2,1.2.1,1.4.7.2.6-.1,1.2-.7,1.4h0s-3.1,1.1-5.8,4.5c-.4.5-1,2.2-1.3,3.3-.1.5-.5.8-1,.8Z"/>
    <g>
      <path class="cls-10" d="M668.6,529.9s0-2.8-1.2-4.6-8,10.9-8,10.9l-16.7-5.1-21.9-8.1s-3.6.9-6.7,4.2-5.1,7.7-5.1,7.7c0,0,17.8,6,28.8,7.8,14.5,2.3,29.3,4.9,33.7,3.8,4.4-1.1,9.5-6.2,9.5-6.2l-.2-10.4s-5.7-.5-7.9-.5c-2.3.1-4.3.5-4.3.5Z"/>
      <path class="cls-8" d="M668.5,549.1c-5.3,0-14.4-1.4-27.2-3.5l-3.8-.6c-11.1-1.8-28.5-7.6-29.2-7.9l-2.4-.8,1.1-2.3c.1-.2,2.2-4.7,5.5-8.3,3.5-3.8,7.7-4.8,7.8-4.9l.7-.2,22.5,8.3,14.9,4.5c5.8-10.5,7.7-10.6,8.7-10.6.9-.1,1.8.4,2.3,1.2.7,1,1.1,2.2,1.3,3.3.7-.1,1.5-.1,2.3-.1h.1c2.4,0,7.8.4,8.1.5l2,.2.3,13.4-.7.7c-.6.6-5.7,5.6-10.6,6.8-1.1.1-2.3.3-3.7.3ZM612.2,533.6c5.3,1.7,17.7,5.5,25.9,6.8l3.8.6c11.9,1.9,25.4,4.1,29,3.2,2.7-.7,6.1-3.4,7.8-5l-.2-7.4c-1.8-.1-4.4-.3-5.7-.3-2,0-3.8.4-3.8.4l-2.7.6v-2.8c0-.2,0-.5-.1-.8-1.4,2-3.4,5.3-4.9,8.2l-.9,1.6-18.6-5.7-21.1-7.8c-1,.4-3.2,1.4-5.1,3.4-1.4,1.8-2.6,3.6-3.4,5Z"/>
    </g>
    <path class="cls-8" d="M607.1,546.8l-1.2-.4c-9.6-3.4-16.2-10.7-16.5-11-.8-.9-.8-2.3.2-3.2.9-.8,2.3-.8,3.2.2.1.1,5.7,6.2,13.5,9.3l2.4-1.9c1-.8,2.4-.6,3.2.4s.6,2.4-.4,3.2l-4.4,3.4Z"/>
    <path class="cls-8" d="M988.4,616.1c-.9,0-1.7-.8-1.7-1.7v-194.6c0-.9.8-1.7,1.7-1.7s1.7.8,1.7,1.7v194.5c0,1-.8,1.8-1.7,1.8Z"/>
    <path class="cls-8" d="M998.4,616.1c-.9,0-1.7-.8-1.7-1.7v-194.6c0-.9.8-1.7,1.7-1.7s1.7.8,1.7,1.7v194.5c0,1-.8,1.8-1.7,1.8Z"/>
    <path class="cls-8" d="M672.4,536.6c-.6,0-1.1-.4-1.1-1-.1-.6.4-1.2,1-1.2l8.2-.9c.6-.1,1.2.4,1.2,1,.1.6-.4,1.2-1,1.2l-8.2.9h-.1Z"/>
    <path class="cls-8" d="M671.7,541.5c-.5,0-1-.4-1.1-.9-.1-.6.3-1.2.9-1.3l9.1-2c.6-.1,1.2.3,1.3.9.1.6-.3,1.2-.9,1.3l-9.1,2c0-.1-.1,0-.2,0Z"/>
  </g>
  <g id="Ebene_10" data-name="Ebene 10">
    <polygon class="cls-8" points="1080.6 564.8 1055.1 564.8 1022.4 564.8 1027.8 617 1054.4 617 1081.3 617 1107.8 617 1113.3 564.8 1080.6 564.8"/>
    <path class="cls-8" d="M1060.1,616.9h-374.3c-1.2,0-2.3-1-2.3-2.3s1-2.3,2.3-2.3h369.9v-23.7c0-1.2,1-2.3,2.3-2.3s2.3,1,2.3,2.3v28.3h-.2Z"/>
  </g>
  <g id="Ebene_8" data-name="Ebene 8">
    <g>
      <path class="cls-10" d="M414.4,303.3c-7.4,1.4-19.8-21.3-10.2-36.8,9.1-14.6,25.3-17.4,36.7-9.4,3.6,2.5,6.4,10.9,6.4,10.9l1.7,9.1,4.5,10.5s-.1,10.8-4.8,16.8c-2.8,3.5-8.1,4.9-8.1,4.9l-1.7,21.3s-8-2.6-17.6-2.2c-7.7.3-11.7,2.4-11.7,2.4,0,0,10.7-19.9,4.8-27.5Z"/>
      <path class="cls-8" d="M404.5,336.1l3.4-6.4c3.6-6.8,7.9-18.8,5.3-24.2-2.9-.3-6.1-2.6-8.8-6.7-5.8-8.5-8.9-22.6-2.1-33.6,4.7-7.6,11.7-12.7,19.5-14.3,7.1-1.5,14.4.1,20.4,4.3,4.1,2.9,7,11.1,7.3,12l.1.3,1.7,8.9,4.6,10.7v.5c0,.5-.1,11.7-5.2,18.1-2.2,2.8-5.8,4.4-7.8,5.2l-1.8,22.6-2.7-.9c-.1,0-7.8-2.5-16.8-2.1-7,.3-10.7,2.2-10.7,2.2l-6.4,3.4ZM423.4,326c5.7,0,10.7.9,13.6,1.6l1.6-20.2,1.6-.4s4.6-1.2,6.9-4.1c3.6-4.6,4.2-12.9,4.3-14.9l-4.4-10.3-1.7-9.2c-1-3-3.4-8.1-5.5-9.6-5-3.5-11-4.8-16.9-3.5-6.6,1.4-12.5,5.7-16.6,12.3-6.1,9.9-2.2,22.6,2,28.7,2.4,3.5,4.7,4.9,5.9,4.7l1.4-.2.8,1.1c4.8,6.3.8,18.3-2.1,25.1,1.9-.4,4.4-.8,7.3-.9.5-.1,1.1-.2,1.8-.2Z"/>
    </g>
    <path class="cls-8" d="M442.2,258.4s-7-1-12.3-.3c-.2,9.6-11,10-13.4,14.5-2,3.8,2.1,7.5,2.9,11.4s-1.7,7.9-1.7,7.9c0,0-9.6-10.5-10.5-4.9-.8,5.2,4.8,10.5,4.8,10.5l3.8-.8-.2,2.6-1.1,4-10-1.6s-3.1-9.9-3.6-17.6c-.7-10,9.2-32,27.6-31.8,4.1.2,12.3.9,13.7,6.1Z"/>
    <path class="cls-8" d="M439,301.1c-.8,0-1.5-.1-2.2-.4-3.1-1.1-4.5-4.2-4.5-4.4l-.8-1.8,1.9.2s2.2.2,5.6-.4c4.1-.7,7.1-2.9,7.1-2.9.5-.4,1.2-.2,1.6.3s.2,1.2-.3,1.6c-.1.1-3.5,2.5-8,3.3-1.6.3-3,.4-4,.5.5.6,1.3,1.2,2.2,1.6,1.2.4,2.7.3,4.2-.5.6-.3,1.2-.1,1.5.5s.1,1.2-.5,1.5c-1.4.6-2.6.9-3.8.9Z"/>
    <path class="cls-8" d="M426.7,282.2c-.2,0-.5-.1-.7-.2-.5-.4-.6-1.1-.3-1.6.1-.2,1.2-1.7,2.8-1.8.6-.1,1.5,0,2.3.9.5.4.5,1.1,0,1.6s-1.1.5-1.6,0c-.3-.3-.5-.3-.6-.3-.5,0-1,.6-1.2.9,0,.3-.3.5-.7.5Z"/>
    <path class="cls-8" d="M422.3,278.2c-.3,0-.6-.1-.8-.4-.4-.5-.4-1.2.1-1.6.2-.1,3.8-3.4,9.8-3.2.6,0,1.1.5,1.1,1.2,0,.6-.5,1.1-1.2,1.1-5-.2-8.2,2.6-8.2,2.6-.3.2-.6.3-.8.3Z"/>
    <ellipse class="cls-8" cx="430.28" cy="281.39" rx="1.4" ry="2.1" transform="translate(-33.56 59.64) rotate(-7.63)"/>
    <path class="cls-8" d="M439.9,278.5c-.2,0-.5-.1-.7-.2-.5-.4-.6-1.1-.3-1.6.1-.2,1.2-1.6,2.8-1.8.6-.1,1.5,0,2.3.9.5.4.5,1.1,0,1.6-.4.5-1.1.5-1.6,0-.3-.3-.5-.3-.5-.3-.5,0-1,.6-1.2.9-.1.4-.4.5-.8.5Z"/>
    <path class="cls-8" d="M439.2,272.8c-.4,0-.8-.3-1-.7-.2-.6,0-1.2.6-1.5.2-.1,5.2-2.2,9.5-1.4.6.1,1,.7.9,1.3s-.7,1-1.3.9c-3.6-.7-8.1,1.3-8.1,1.3-.3,0-.5.1-.6.1Z"/>
    <ellipse class="cls-8" cx="443.37" cy="277.7" rx="1.4" ry="2.1" transform="translate(-32.95 61.34) rotate(-7.63)"/>
    <path class="cls-8" d="M443.7,290.4c-.4,0-.8-.2-1-.7-.3-.6,0-1.2.6-1.5,0,0,1.6-.8,2.4-2.4.1-.2.1-.3,0-.3-.2-.4-1.2-.9-1.9-1.1l-2.2-.6c-.6-.2-1-.8-.8-1.4s.8-1,1.4-.8l2.2.6c.4.1,2.6.7,3.3,2.3.3.7.3,1.5,0,2.3-1.1,2.5-3.4,3.5-3.5,3.6-.2-.1-.3,0-.5,0Z"/>
    <path class="cls-8" d="M431.3,310.7c-1.5,0-2.5-.1-2.6-.2-.6-.1-1-.7-.9-1.3.1-.6.7-1,1.3-.9.1,0,7,1,16.5-3.2.6-.3,1.2,0,1.5.6s0,1.2-.6,1.5c-6.7,3-12.2,3.5-15.2,3.5Z"/>
    <path class="cls-8" d="M400.8,268.4s-4.4,7.1-3.4,22.3c1,15.2,1.1,18.5,1.1,18.5l-6,45.1,12.2,6.1s-5.5-26.1,11.1-30.5c6.5-13.4,7.4-23.1,0-33.1-1.8,1.3-3,2.3-4.6,1.8-7.1-2-9.5-13.8-9.5-13.8l-.9-16.4Z"/>
  </g>
</svg>