<?xml version="1.0" encoding="UTF-8"?>
<svg id="Ebene_5" data-name="Ebene 5" xmlns="http://www.w3.org/2000/svg" xmlns:xlink="http://www.w3.org/1999/xlink" viewBox="0 0 592 395">
  <defs>
    <style>
      .cls-1 {
        clip-path: url(#clippath);
      }

      .cls-2, .cls-3, .cls-4, .cls-5, .cls-6, .cls-7, .cls-8, .cls-9 {
        stroke-width: 0px;
      }

      .cls-2, .cls-10, .cls-11, .cls-12 {
        fill: none;
      }

      .cls-3 {
        fill: #007b91;
        opacity: .8;
      }

      .cls-13 {
        stroke-width: 16.09px;
      }

      .cls-13, .cls-14, .cls-10, .cls-11, .cls-12, .cls-15 {
        stroke-linecap: round;
        stroke-miterlimit: 10;
      }

      .cls-13, .cls-14, .cls-9, .cls-15 {
        fill: #fff;
      }

      .cls-13, .cls-15 {
        stroke: #fff;
      }

      .cls-14, .cls-10 {
        stroke: #454440;
        stroke-width: 4.02px;
      }

      .cls-11 {
        stroke-width: 2.48px;
      }

      .cls-11, .cls-12 {
        stroke: #42423d;
      }

      .cls-12 {
        stroke-width: 2.34px;
      }

      .cls-4 {
        fill: #454440;
      }

      .cls-5 {
        fill: #42423d;
      }

      .cls-6 {
        fill: #dedcd2;
      }

      .cls-7 {
        fill: #da2323;
      }

      .cls-8 {
        fill: #afcd5f;
      }

      .cls-15 {
        stroke-width: 14.75px;
      }
    </style>
    <clipPath id="clippath">
      <path class="cls-2" d="M445.04,350.98h-220.25s-18.28,14.46-18.28,14.46l-59.95-2.87c-28.2,0-51.05-22.86-51.05-51.05V44.85c0-28.2,22.86-51.05,51.05-51.05h289.77c28.2,0,51.05,22.86,51.05,51.05l-1.77,265.75c0,28.2-12.38,40.38-40.57,40.38Z"/>
    </clipPath>
  </defs>
  <g class="cls-1">
    <g>
      <rect class="cls-6" x="141.87" y="85.79" width="343.13" height="265.45" rx="33.23" ry="33.23"/>
      <g>
        <path class="cls-13" d="M309.88,75.51s-4.39,6.82-6.77,17.22c-2.38,10.4-1.23,14.63-1.23,14.63l-7.39-.95s-.59,2.08,0,6.24,1.58,6.62,1.58,6.62c-2.42,5.96-4.18,7.56-2.17,15.08,1.32,4.95,4.9,19.88,6.54,26.16,2.13,8.18,4.16,9.21,7.92,12.34l19.42,6.09,13.38-70.74-4.76-12.19-26.52-20.49Z"/>
        <path class="cls-15" d="M447.52,245.84c-11.41-28.52-37.26-50.95-37.26-50.95l1.78,8.43s-.07-.06-.07-.06c-7.34-2.94-23.91,2.6-38.26,8.66,5.01-4.41,9.78-7.87,13.74-9.42,17.49-6.84,22.81-7.6,22.81-7.6l-4.18-5.32-1.52-4.94c2.55-.59,7.21-1.9,9.51-2.66,25.48-8.39,37.26-24.71,37.26-24.71,0,0-20.91-10.27-27.37-45.24-2.79-15.12-11.09-52.98-45.62-60.83-16.73-3.8-24.33-3.04-24.33-3.04,0,0-42.58,3.04-44.1,27.37-1.52,24.33,5.32,35.74,5.32,35.74,0,0,6.93,28.75,3.07,49.85-2.23,12.18-13.97,21.99-13.97,21.99,0,0,10.4,5.35,23.18,7.13,4.43.62,7.57.42,11,.59,4.45,6.62,9.21,16.35,9.81,26.16-6.46,4.68-14.01,15.19-21.99,29.72-7.15,13.01-19.02,39.83-19.02,39.83l-20.06,2.68-12.85,1.84c-.21-.19-.42-.38-.63-.57.03-4.3,13.03-1.05,13.03-1.05,0,0-2.01-9.36-4.01-10.7-2.01-1.34-3.57-1.34-3.57-1.34l24.52-41.09,7.73-13.67-30.91-31.51-7.13,14.27s-12.71-20.29-19.17-39.01c-1.95-5.64-2.6-7.43-5.35-14.94-1.23-3.36-3.42-6.09-3.42-6.09,0,0-12.78-4.76-30.19-5.41.98-.3,1.77-.56,2.31-.76,6.45-2.43,14.36-2.23,15.92-8.92,1.56-6.69-2.68-4.9-1.56-14.04,1.01-8.26,9.59-10.7,10.03-19.84.72-14.74-5.84-26.57-15.96-32.08-15.68-8.54-18.36-16.09-25.42-13.13-7.06,2.96-15.67,3.53-23.71,4.13-8.04.61-14.07,5.35-15.75,13.24,0,0-38.14,16.77-37.54,45.6.32,15.56,15.2,13.74,15.16,22.89-.04,9.14-1.78,19.02,12.19,23.18,5.59,1.67,6.24.89,6.24.89l-21.25,17.54s-.37,12.17,5.05,30.61c3.02,10.28,10.03,24.74,16.05,35.22,6.84,19.02,1.93,34.33-.3,40.13-11.51,29.94-22.44,46.81-22.44,46.81,0,0,56.48,20.52,76.05,20.69,22.85,4.39,23.82-39.12,22.03-58.73l5.88,7.54,19.73,3.01-2.57,54.01,18.27-10.54s-.92-2.87-1.66-13.06c.11-1.85.23-3.84.35-5.94l5.57,2.62,12.06,1.47c-3.33,8.61-5.59,11.11-5.97,14.14-1.52,12.17-.23,17.19-.23,17.19l158.72-.59,11.59,1.93s1.93-23.78,3.12-35.22c4.12-39.68-2.23-65.39-9.71-84.08ZM201.23,145.19l17.44,67.61c-10.47-25.96-21.07-53.12-35.06-64.69,3.93-.94,8.25-2,12.48-3.06,1.8.1,3.53.14,5.13.14ZM360.78,185.94l-12.79-.79-7.99-29.96c2.1,4.45,4.69,8.55,7.9,11.57,8.34,7.85,11.6,15.05,12.88,19.18Z"/>
      </g>
      <path class="cls-8" d="M250.8,156.93l-1.78,15.75,17.83,58.26,13.67-18.43s-26.75-35.07-29.72-55.58Z"/>
      <path class="cls-10" d="M250.21,155.67s17.24,52.09,36.86,63.98c29.32,17.77.59,13.08.59,13.08l-6.54,14.27"/>
      <path class="cls-7" d="M264.48,223.22l16.05-32.1,32.1,32.1s-37.33,57.9-37.45,57.66l-6.54-18.43-4.16-39.23Z"/>
      <path class="cls-10" d="M263.36,224.33l17.17-33.22,30.91,30.91-36.86,60.04s-6.54-9.51-7.13-21.4c-.32-6.31-1.66-8.42-2.19-17.72-.56-9.7-1.89-18.61-1.89-18.61Z"/>
      <polyline class="cls-9" points="269.16 358.2 265.19 306.25 257.73 291.39 172.28 287.82 158.66 326.65 203.05 348.59"/>
      <polyline class="cls-14" points="266.15 319.08 265.19 306.25 257.73 291.39 172.28 287.82 158.66 326.65 203.05 348.59"/>
      <line class="cls-14" x1="269.38" y1="367.67" x2="267.49" y2="330.89"/>
      <path class="cls-4" d="M229.28,71.71c-4.26-1.64-8.15-3.25-11.41-10.65-3.78-8.6-12.15-10.86-24.71-11.03-19.42-.25-32.35,3.09-35.36,20.15-16.73,4.94-36.22,30.61-34.22,44.86,2.23,15.88,14.72,14.76,15.39,22.57.67,7.8-2.05,11.48,3.34,17.61,7.88,8.95,27.81,5.77,29.18,5.07.68-.35,5.75-4.46,6.08-4.56.71,0-8.29-4,5.32-13.31,5.11-.28,42.79,6.11,50.82-10.38,3.08-6.32-.17-7.99-.84-13.09-.94-7.2,13.55-13.89,10.49-30.22-2.19-11.7-10.85-15.79-14.08-17.03Z"/>
      <path class="cls-8" d="M216.93,141.09s31.8,22.97,42.2,73.5c1.93,9.39,3.01,28.59,4.01,52.76.59,14.27.69,21.14.45,41.46-.1,8.46,1.34,37,1.34,37l9.36-3.57s-3.27-33.14-1.47-76.84c-2.85-23.38-24.52-114.63-26.23-119.76l-29.66-4.56Z"/>
      <path class="cls-8" d="M164.38,237.26s11.36,19.17,2.01,47.78c-10.11,30.91-29.85,60.1-29.85,60.1,0,0,44.11,21.19,64.62,14.51,6.79-2.21,22.02-11.24,26.75-29.43,3.89-14.95,5.05-29.72,5.05-29.72,0,0,1.78-46.96-15.46-88.57-12.4-29.93-25.56-57.07-39.83-67.77l-34.26,29.8s-.22,14.19,5.72,31.43c7.85,22.78,23.98,54.85,40.2,64.2,29.17,16.81,38.41,25.17,38.41,25.17,0,0,6.84-7.73-3.7-21.01-10.54-13.28-21.93-48.72-21.93-48.72l-18.55-30.39"/>
      <path class="cls-10" d="M155.69,240.38s11.54,18.34,1.19,45.85c-12.19,32.4-27.77,54.75-27.77,54.75,0,0,43.97,25.8,77.4,17.78,3.52-.84,9.85-4.78,14.27-12.04,11.49-18.87,19.53-59.09,2.08-117.55-11.83-39.64-28.68-72.84-45.67-83.7l-40.54,32.89s-.73,16.25,6.29,34.14c18.99,48.39,47.3,79.6,47.3,79.6l26.11,5.26,7.45-35.68-15.83-11.59-31.23-55.91"/>
      <path class="cls-10" d="M259.22,331.55c-.07,12.6-.1,15.16-.1,15.16,0,0,3.57,0,7.58-.89,4.01-.89,8.03-6.69,8.03-6.69,0,0-6.35-27.95-1.64-55.64s-18.19-104.1-18.19-104.1c0,0-3.68-30.54-10.31-33.84-6.64-3.3-45.22-7.59-45.22-7.59"/>
      <path class="cls-10" d="M203.12,133.07s49.53,43.12,53.16,96.42c1.96,28.8,2.21,35.51,2.55,49.61.32,13.31.42,27.34.43,39.53"/>
      <path class="cls-11" d="M256.66,238.99s-4.44,18.77-4,30.59c.28,7.35.83,8.38.89,9.14"/>
      <path class="cls-10" d="M199.68,171.5l18.55,6.81s.98-7.56.67-14.04c-.56-11.83-4.01-18.5-4.01-18.5l-8.03-14.27-28.53,3.71,2.28,6.84-3.42,3.42"/>
      <path class="cls-14" d="M221.68,260s-3.99,2.16-8.17,11.12c-3.72,7.97-3.72,15.11-3.72,15.11l35.08,13.03,14.07,16.92,9.22,3.9,10.55,2.18,10.27-1.9,12.17-7.6-13.5-17.68s-5.04-14.77-6.65-15.4c-3.42-1.33-15.02-4.37-15.02-4.37l-9.7,4.37s-5.13-1.71-17.11-8.55c-8.17-4.67-17.49-11.12-17.49-11.12Z"/>
      <path class="cls-14" d="M215.45,102.45s5.61,10.09,3.26,19.65c-1.18,4.78-2.16,10.16-4.26,13.85-.76,1.34-3.66,5.03-8.17,6.46-6.53,2.08-15.79,1.44-21.29-1.14-8.88-4.17-12.55-11.03-12.55-11.03,0,0-3.87,3.07-6.88.3-3.01-2.77-5.48-9.05-5.48-9.05l6.65-1.9s-10.08-18.25-2.95-30.9c3.38-6,13.96-12.21,13.96-12.21,0,0,7.81,2.43,15.6,2.43,10,0,12.74,5.7,12.74,5.7l9.36,17.82Z"/>
      <path class="cls-11" d="M193.02,102.18s.07,2.25,5.01,6.17c4.2,3.34,1.1,7.03-2.83,8.7"/>
      <path class="cls-11" d="M208.4,116.83s-6.09,5.3-20.16,9.05c0,0,2.38,2.04,6.63,2.64,5.63.8,9.6-2.54,11.61-3.69l-.58-2.58"/>
      <path class="cls-11" d="M205.61,129.69s-2.44,2.44-4.47,2.44"/>
      <path class="cls-11" d="M181.8,101.07s-7.73.09-12.87,6.39"/>
      <path class="cls-11" d="M192.56,96.63s3.9-5.94,10.01-6.1"/>
      <ellipse class="cls-5" cx="180.59" cy="110" rx="1.67" ry="2.27" transform="translate(-28.99 81.87) rotate(-23.7)"/>
      <path class="cls-11" d="M177.01,110.58s1.63-3.86,5.49-2.44"/>
      <ellipse class="cls-5" cx="201.2" cy="99.6" rx="1.67" ry="2.27" transform="translate(-23.07 89.28) rotate(-23.7)"/>
      <path class="cls-11" d="M198.43,99.97s1.63-3.86,5.49-2.44"/>
      <polyline class="cls-11" points="272.95 308.15 283.27 315.8 291.25 317.7"/>
      <polyline class="cls-11" points="267.68 311.23 278.71 318.84 286.69 320.74"/>
      <path class="cls-14" d="M309.12,286.52l-22.81,3.8-12.55-7.6-13,2.99s-.11,3.79,3.04,4.94,8.82.43,8.82.43c0,0,3.44,5.1,6.42,8.97,2.97,3.86,7.28,7.88,7.28,7.88l11.78,4.83"/>
      <path class="cls-14" d="M247.2,305.81c-.23,2.33.78,9.03,3.01,11.81s9.14,6.02,9.14,6.02l11.18.52,5.87-2.08-15.94-6.13s-2.19-3.38-3.05-5.48-3.75-4.78-3.75-4.78c0,0-1.17-1.28-2.34-2.01-1.98-1.23-3.89-.22-4.12,2.12Z"/>
      <path class="cls-9" d="M352.47,211.62s-13.36,13.33-25.85,35.74c-16.32,29.25-41.06,87.09-42.58,99.25-1.52,12.17,2.28,34.22,2.28,34.22"/>
      <path class="cls-3" d="M292.12,348.05c2.48-17.37,31.51-79.36,39.83-95.41,10.52-20.28,16.94-27.05,16.94-27.05l-1.84,5.16-3.76,12.42s21.19-22.41,34.55-30.99c16.17-10.37,27.46-12.94,27.46-12.94,0,0,25.62,23.97,33.94,42.1,8.19,17.84,13.67,50.53,10.85,83.67-1.55,18.19-5.5,43.1-5.5,43.1,0,0-6.03,1.62-13.38,1.78-38.94.85-129.74,3.12-129.74,3.12l-8.47-4.46s-1.49-16.35-.89-20.51Z"/>
      <path class="cls-10" d="M344.07,108.3s1.19,20.81,5.94,43.4c4.76,22.59,11.57,37.87,11.57,37.87,0,0,3.14.37,8.4.38"/>
      <path class="cls-10" d="M337.3,253.53c12.19-17.83,32.38-35.87,43.89-43.35,17.77-11.55,30.32-14.49,30.32-14.49,0,0-4.01-4.24-5.8-7.36-1.63-2.86-1.72-2.76-1.72-2.76"/>
      <path class="cls-10" d="M342.94,197.65s12.48,23.78,1.78,46.07"/>
      <path class="cls-10" d="M348.18,217.31s-9.8,7.36-21.57,30.05c-10.35,19.94-36.88,67.32-42.58,99.25-.89,4.97-.66,11.64-.08,17.77"/>
      <path class="cls-10" d="M311.44,71.04s-8.32,17.83-9.21,27.64c-.49,5.38-.41,11.46-2.08,14.56-5.32,9.89-9.49,12.22-5.94,23.48,6.46,20.53,5.92,30.12,12.78,33.88"/>
      <path class="cls-10" d="M295.83,118.45s-1.04-3.12-1.33-6.1.18-5.67.18-5.67c0,0,8.74,1.21,17.36,3.58"/>
      <path class="cls-10" d="M368.51,245.21s-17.54,32.93-19.84,77.43c-1.19,23.1-2.26,28.12-3.64,39.68"/>
      <path class="cls-10" d="M432.56,369.9s14.2-44.98,8.11-102.01"/>
      <path class="cls-10" d="M410.26,194.89s25.95,23.48,35.74,46.38c7.91,18.51,14.51,52.4,10.34,93.4-.73,7.16-3.52,24.63-4.16,29.43"/>
      <path class="cls-10" d="M362.56,147.72s3.27,16.05,15.46,41.02c0,0,17.83,0,39.37-8.29,25.26-9.73,34.22-23.1,34.22-23.1,0,0-23.1-12.83-27.66-45.34-2.14-15.23-10.4-52.82-44.48-62.45-13.12-3.71-59.88-6.84-69.58,25.95-6.91,23.38,4.53,29.71,8.69,54.68,2.16,12.93,1.78,23,0,30.61-3.27,13.97-13.67,22.29-13.67,22.29,0,0,8.03,5.05,22.29,6.84,16.55,2.07,26.16.59,26.16.59"/>
      <path class="cls-11" d="M330.16,140.88s4.46,28.83-9.81,46.66"/>
      <polygon class="cls-14" points="301.93 233.32 311.44 238.08 311.18 246.84 303.83 259.48 294.2 263.04 285.88 251.16 288.35 239.82 294.2 236.89 301.93 233.32"/>
      <path class="cls-11" d="M288.25,245.21s8.09,1.55,12.22,3.98c3.79,2.23,5.46,5.8,5.46,5.8"/>
      <path class="cls-12" d="M285.88,251.16s16.29,4.16,17.95,8.32"/>
      <path class="cls-11" d="M290.63,239.27s12.22-.16,17.83,8.92"/>
      <path class="cls-11" d="M254.22,320.3s-2.34-10.59-.78-14.71"/>
    </g>
  </g>
  <line class="cls-14" x1="227.92" y1="330.22" x2="252.88" y2="328.44"/>
</svg>