<?xml version="1.0" encoding="UTF-8"?>
<svg id="uuid-3d165cf8-807c-4269-8e0a-b427d88b27f4" xmlns="http://www.w3.org/2000/svg" xmlns:xlink="http://www.w3.org/1999/xlink" viewBox="0 0 260 173">
  <defs>
    <style>
      .cls-1 {
        stroke-width: 1.6px;
      }

      .cls-1, .cls-2, .cls-3, .cls-4, .cls-5, .cls-6 {
        stroke: #454440;
      }

      .cls-1, .cls-2, .cls-3, .cls-7, .cls-5, .cls-6, .cls-8 {
        stroke-linecap: round;
      }

      .cls-1, .cls-2, .cls-4, .cls-7, .cls-5, .cls-8 {
        stroke-miterlimit: 10;
      }

      .cls-1, .cls-9 {
        fill: #454440;
      }

      .cls-10 {
        opacity: .4;
      }

      .cls-10, .cls-11, .cls-12, .cls-13, .cls-14, .cls-9, .cls-15 {
        stroke-width: 0px;
      }

      .cls-10, .cls-12, .cls-3 {
        fill: #dedcd2;
      }

      .cls-10, .cls-14 {
        isolation: isolate;
      }

      .cls-2 {
        stroke-width: 1.4px;
      }

      .cls-2, .cls-11, .cls-4, .cls-7, .cls-5, .cls-6, .cls-8 {
        fill: none;
      }

      .cls-16 {
        clip-path: url(#clippath);
      }

      .cls-17 {
        clip-path: url(#clippath-1);
      }

      .cls-3, .cls-6 {
        stroke-miterlimit: 10;
        stroke-width: 2.3px;
      }

      .cls-13 {
        fill: #afcd5f;
      }

      .cls-4, .cls-5 {
        stroke-width: 2.3px;
      }

      .cls-7 {
        stroke-width: 8px;
      }

      .cls-7, .cls-8 {
        stroke: #fff;
      }

      .cls-14 {
        fill: #007b91;
        opacity: .6;
      }

      .cls-8 {
        stroke-width: 7px;
      }

      .cls-15 {
        fill: #fff;
      }
    </style>
    <clipPath id="clippath">
      <rect class="cls-11" x="67.51" y="13.02" width="134.85" height="125.53"/>
    </clipPath>
    <clipPath id="clippath-1">
      <polygon class="cls-11" points="146.61 75.67 94.48 75.22 94.48 27.29 146.61 27.74 146.61 75.67"/>
    </clipPath>
  </defs>
  <polyline class="cls-7" points="64.03 124.95 64.03 94.51 81.33 63.05"/>
  <g class="cls-16">
    <rect class="cls-10" x="90.86" y="24.42" width="104.08" height="135.57" rx="24.65" ry="24.65"/>
  </g>
  <path class="cls-15" d="M42.41,139.08c.61-10.14,10.09-18.19,21.69-18.19,7.99,0,14.97,3.83,18.74,9.52,1.61-.57,3.37-.89,5.21-.89,6.62,0,12.17,4.08,13.6,9.56h-59.24Z"/>
  <path class="cls-13" d="M42.41,139.08c.26-7.72,5.23-15.1,16.61-18.19,7.99,0,14.97,3.83,18.74,9.52,1.61-.57,3.37-.89,5.21-.89,6.62,0,12.46,3.66,13.9,9.13l-54.45.43h0Z"/>
  <path class="cls-4" d="M42.43,138.2c.61-10.14,10.09-17.31,21.69-17.31,7.99,0,14.97,3.83,18.74,9.52,1.61-.57,3.37-.89,5.21-.89,6.62,0,11.19,3.07,12.62,8.55"/>
  <circle class="cls-15" cx="189.39" cy="91.71" r="25.29"/>
  <ellipse class="cls-13" cx="191.56" cy="92.06" rx="27.18" ry="25.29"/>
  <path class="cls-5" d="M194.6,116.46c11.46-2.41,20.06-12.57,20.06-24.75,0-13.97-11.32-25.29-25.29-25.29s-25.29,11.32-25.29,25.29,11.02,24.98,24.72,25.28"/>
  <line class="cls-5" x1="188.98" y1="84.15" x2="188.98" y2="130.19"/>
  <path class="cls-15" d="M210.43,139.08c-.54-8.95-8.9-16.06-19.14-16.06-7.06,0-13.22,3.38-16.55,8.4-1.42-.51-2.97-.79-4.6-.79-5.85,0-10.74,3.6-12.01,8.44h52.3Z"/>
  <line class="cls-5" x1="184.34" y1="93.92" x2="188.47" y2="97.26"/>
  <path class="cls-13" d="M210.43,139.08c-.23-6.81-4.61-13.33-14.66-16.06-7.06,0-13.22,3.38-16.55,8.4-1.42-.51-2.97-.79-4.6-.79-5.85,0-11,3.23-12.27,8.06l48.07.38h.01Z"/>
  <path class="cls-4" d="M210.42,138.3c-.54-8.95-8.9-15.28-19.14-15.28-7.06,0-13.22,3.38-16.55,8.4-1.42-.51-2.97-.79-4.6-.79-5.85,0-9.88,2.71-11.15,7.55"/>
  <line class="cls-5" x1="199.55" y1="94.01" x2="189.28" y2="104.28"/>
  <polyline class="cls-7" points="68.99 133.73 163.93 133.73 163.93 92.57"/>
  <polyline class="cls-15" points="64.03 138.49 64.47 91.41 163.61 86.1 163.61 138.25"/>
  <polyline class="cls-1" points="112.82 134.32 112.82 120.64 121.65 120.64 121.65 134.15"/>
  <polyline class="cls-11" points="70.19 87.01 80.45 70.32 163.61 82.12 163.61 138.25"/>
  <polyline class="cls-8" points="79.36 59.15 101.48 94.86 169.08 94.86 147.52 59.15 78.64 59.15 58.61 95.03 64.03 95.03"/>
  <polyline class="cls-15" points="101.48 94.86 168.23 93.92 147.78 59.15 78.64 59.15 59.8 93.92"/>
  <polygon class="cls-14" points="106.22 94.47 168.45 94.65 146.92 59.44 84.51 59.62 106.22 94.47"/>
  <polyline class="cls-5" points="79.36 59.15 101.48 94.86 169.08 94.86 147.52 59.15 78.64 59.15 58.61 95.03 64.03 95.03"/>
  <rect class="cls-2" x="109.82" y="134.51" width="14.74" height="4.14"/>
  <rect class="cls-2" x="76.03" y="120.94" width="11.82" height="17.24"/>
  <line class="cls-2" x1="101.21" y1="99.05" x2="101.21" y2="138.2"/>
  <polyline class="cls-5" points="64.03 138.49 64.03 94.51 81.33 63.05"/>
  <line class="cls-5" x1="163.93" y1="95.03" x2="163.93" y2="138.25"/>
  <rect class="cls-2" x="76.03" y="94.28" width="11.82" height="17.24"/>
  <polyline class="cls-2" points="154.08 94.65 154.08 117.04 129.99 117.04 129.99 98.35"/>
  <g class="cls-17">
    <g>
      <ellipse class="cls-3" cx="121.1" cy="59.63" rx="18.79" ry="19.56" transform="translate(-5.46 12.7) rotate(-5.87)"/>
      <ellipse class="cls-12" cx="120.94" cy="59.71" rx="18.25" ry="19" transform="translate(-5.47 12.68) rotate(-5.87)"/>
      <ellipse class="cls-6" cx="121.1" cy="59.63" rx="18.79" ry="19.56" transform="translate(-5.46 12.7) rotate(-5.87)"/>
      <ellipse class="cls-6" cx="121.1" cy="59.63" rx="18.79" ry="19.56" transform="translate(-5.46 12.7) rotate(-5.87)"/>
      <ellipse class="cls-12" cx="124.73" cy="59.66" rx="18.79" ry="19.56" transform="translate(-5.45 13.07) rotate(-5.87)"/>
      <ellipse class="cls-6" cx="124.73" cy="59.66" rx="18.79" ry="19.56" transform="translate(-5.45 13.07) rotate(-5.87)"/>
    </g>
  </g>
  <polyline class="cls-5" points="141.34 73.07 144.37 73.07 146.91 76.33 102.72 76.33 100.5 73.07 105.42 73.07"/>
  <polygon class="cls-9" points="106.29 72.39 100.5 73.07 102.97 76.38 110.06 76.16 106.29 72.39"/>
  <polygon class="cls-9" points="143.52 73.18 140.49 73.18 137.77 73.72 136.22 75.72 146.91 76.33 143.52 73.18"/>
  <line class="cls-5" x1="179.92" y1="138.49" x2="184.41" y2="138.49"/>
  <line class="cls-5" x1="55.49" y1="138.52" x2="140.4" y2="138.52"/>
  <line class="cls-5" x1="175.75" y1="138.5" x2="42.41" y2="138.52"/>
  <line class="cls-2" x1="76.31" y1="98.14" x2="85.13" y2="98.14"/>
  <line class="cls-2" x1="76.31" y1="126.26" x2="85.13" y2="126.26"/>
  <line class="cls-2" x1="134" y1="100.59" x2="153.95" y2="100.59"/>
</svg>