<svg width="369" height="125" viewBox="0 0 369 125" fill="none" xmlns="http://www.w3.org/2000/svg">
<path d="M110.205 55.139C108.921 53.899 107.127 53.27 104.871 53.27C102.637 53.27 100.565 53.764 98.718 54.739C96.876 55.71 95.312 56.962 94.067 58.456C92.333 60.52 91.106 62.983 90.422 65.774C89.74 68.565 89.397 71.352 89.397 74.055C89.397 77.409 90.126 80.049 91.565 81.901C93.009 83.766 95.16 84.712 97.958 84.712C100.282 84.712 102.393 84.302 104.228 83.493C106.06 82.692 107.601 81.759 108.806 80.72L108.832 80.697L108.848 80.666C109.08 80.1408 109.259 79.5938 109.383 79.033C109.529 78.404 109.603 77.791 109.603 77.205V76.898L109.349 77.072C108.707 77.515 107.979 77.914 107.186 78.261C106.398 78.6055 105.59 78.9031 104.767 79.152C103.901 79.408 103.108 79.597 102.341 79.732C101.555 79.873 100.827 79.945 100.182 79.945C96.842 79.945 95.218 77.533 95.218 72.572V70.879C98.617 70.744 101.434 70.35 103.591 69.703C105.799 69.043 107.551 68.215 108.801 67.238C110.047 66.259 110.927 65.146 111.415 63.926C111.891 62.717 112.131 61.473 112.131 60.227C112.13 58.087 111.482 56.376 110.205 55.139ZM106.449 62.768C106.208 63.479 105.696 64.137 104.93 64.726C104.144 65.33 102.989 65.839 101.496 66.24C100.023 66.64 98.098 66.879 95.612 66.97C95.7741 65.8963 96.0009 64.8334 96.291 63.787C96.591 62.703 97.03 61.676 97.601 60.738C98.287 59.57 99.184 58.634 100.267 57.953C101.31 57.2828 102.523 56.927 103.763 56.928C104.864 56.928 105.629 57.258 106.101 57.936C106.573 58.627 106.81 59.5 106.81 60.534C106.81 61.307 106.692 62.038 106.449 62.768ZM82.171 49.791C83.157 49.791 83.995 49.453 84.663 48.786C85.329 48.118 85.666 47.175 85.666 45.984C85.666 44.876 85.339 43.996 84.692 43.37C84.047 42.745 83.202 42.43 82.171 42.43C81.185 42.43 80.335 42.767 79.65 43.431C78.962 44.099 78.613 44.958 78.613 45.985C78.613 48.509 79.812 49.791 82.171 49.791ZM80.865 79.57C80.789 79.271 80.779 79.156 80.777 79.136L83.882 53.937L83.757 53.898C83.495 53.812 83.089 53.748 82.513 53.705C82.0665 53.6685 81.6189 53.6471 81.171 53.641C79.892 53.641 78.714 53.789 77.671 54.079C76.632 54.37 75.73 54.708 74.944 55.108C74.635 55.419 74.362 55.96 74.133 56.719C73.899 57.483 73.783 58.024 73.783 58.371V58.551L78.26 58.061L75.08 79.98C75.08 80.542 75.297 81.273 75.744 82.212C76.176 83.116 76.691 83.937 77.277 84.651L77.326 84.71H77.402C77.9568 84.7028 78.5106 84.6604 79.06 84.583C80.4071 84.4174 81.7429 84.1699 83.06 83.842C83.6579 83.6978 84.2441 83.5093 84.814 83.278L84.863 83.258L84.889 83.211C85.142 82.789 85.375 82.205 85.584 81.473C85.794 80.743 85.9 80.135 85.9 79.67V79.492L81.008 79.994C80.9453 79.8582 80.8974 79.716 80.865 79.57ZM65.753 79.424C65.724 79.272 65.662 78.957 65.662 78.891L70.309 41.297L70.182 41.255C69.92 41.167 69.5 41.103 68.938 41.062C68.4939 41.0257 68.0486 41.0051 67.603 41C66.358 41 65.199 41.148 64.16 41.439C63.111 41.734 62.208 42.072 61.436 42.469C61.128 42.777 60.855 43.319 60.626 44.079C60.391 44.839 60.279 45.379 60.279 45.729V45.909L64.695 45.421L63.459 54.38C62.7305 54.0795 61.984 53.8244 61.224 53.616C60.3842 53.3865 59.5176 53.2701 58.647 53.27C56.199 53.27 53.962 53.848 51.997 54.991C50.0242 56.1338 48.3289 57.6992 47.033 59.575C45.714 61.43 44.698 63.606 44.014 66.045C43.3315 68.5124 42.9874 71.061 42.991 73.621C42.991 75.603 43.201 77.312 43.616 78.701C44.032 80.094 44.612 81.244 45.344 82.123C46.0461 82.9808 46.9473 83.654 47.969 84.084C48.967 84.5 50.089 84.711 51.305 84.711C52.838 84.711 54.468 84.356 56.15 83.65C57.812 82.953 59.282 81.771 60.519 80.142H60.614C60.739 80.853 60.942 81.626 61.216 82.439C61.5 83.298 61.818 84.037 62.156 84.63L62.203 84.71H62.296C62.714 84.71 63.248 84.667 63.884 84.583C64.55 84.5017 65.2133 84.4 65.873 84.278C66.5489 84.1514 67.2212 84.006 67.889 83.842C68.547 83.678 69.139 83.487 69.639 83.278L69.686 83.258L69.715 83.213C69.967 82.797 70.201 82.223 70.412 81.506C70.619 80.801 70.726 80.205 70.726 79.736V79.56L65.913 79.996C65.8415 79.8109 65.7879 79.6193 65.753 79.424ZM48.777 70.057C48.881 69.065 49.036 68.053 49.236 67.049C49.437 66.045 49.716 65.043 50.066 64.076C50.402 63.141 50.821 62.289 51.316 61.545C52.1351 60.2808 53.1884 59.1848 54.419 58.316C55.666 57.435 57.151 56.988 58.837 56.988C59.524 56.988 60.268 57.092 61.052 57.293C61.787 57.482 62.416 57.727 62.92 58.023L60.611 75.761C59.807 77.171 58.796 78.251 57.606 78.978C56.424 79.701 55.175 80.068 53.894 80.068C52.307 80.068 51.021 79.504 50.07 78.394C49.109 77.277 48.623 75.402 48.623 72.82C48.622 71.98 48.673 71.051 48.777 70.057ZM317.779 84.033H309.072V54.098H316.136L317.366 57.028C318.489 55.073 320.458 53.505 325.014 53.505H326.455L325.355 60.913C325.355 60.913 324.296 60.821 323.56 60.821C320.972 60.821 319.035 62.257 317.777 64.462V84.033H317.779ZM183.79 61.032C180.728 61.032 179.041 63.893 179.041 69.092C179.041 74.254 180.727 77.096 183.79 77.096C186.904 77.096 188.545 74.328 188.545 69.092C188.545 63.821 186.904 61.032 183.79 61.032ZM183.79 84.742C173.724 84.742 170.156 76.312 170.156 69.092C170.156 57.514 177.198 53.386 183.79 53.386C190.389 53.386 197.432 57.515 197.432 69.092C197.432 80.631 190.389 84.742 183.79 84.742ZM210.629 76.559C211.264 76.928 212.158 77.272 213.785 77.272C216.207 77.272 219.43 76.383 219.43 68.678C219.43 63.532 217.852 61.032 214.616 61.032C213.112 61.032 211.77 61.665 210.63 62.917V76.559H210.629ZM213.316 84.742C206.804 84.742 203.502 82.455 202.093 81.478L201.921 81.361V42.455L210.628 41.264V56.311C211.905 55.004 214.198 53.385 217.751 53.385C224.462 53.385 228.315 58.574 228.315 67.615C228.316 78.979 223.266 84.742 213.316 84.742ZM237.574 51.361C234.793 51.361 233.131 49.741 233.131 47.029V46.758C233.131 44.037 234.748 42.48 237.574 42.48C240.396 42.48 242.017 44.038 242.017 46.758V47.029C242.018 49.741 240.355 51.361 237.574 51.361ZM241.93 84.031H233.219V54.094H241.93V84.031ZM248.252 84.031H257.016V41.264L248.252 42.48V84.031ZM267.697 51.361C264.92 51.361 263.256 49.741 263.256 47.029V46.758C263.256 44.037 264.877 42.48 267.697 42.48C270.517 42.48 272.14 44.038 272.14 46.758V47.029C272.14 49.741 270.482 51.361 267.697 51.361ZM272.052 84.031H263.347V54.094H272.052V84.031ZM294.58 75.406C293.709 76.525 292.41 77.095 290.717 77.095C288.365 77.095 285.67 76.199 285.67 69.208C285.67 63.705 287.723 60.912 291.779 60.912C292.927 60.912 293.808 61.057 294.58 61.369V75.406ZM303.138 55.795C301.872 55.135 298.503 53.385 292.665 53.385C282.571 53.385 276.782 59.26 276.782 69.506C276.782 79.33 280.868 84.742 288.29 84.742C290.716 84.742 293.364 84.004 294.757 82.232C294.954 81.978 295.077 81.753 295.077 81.753L296.026 84.013H303.329V55.892L303.138 55.795ZM154.722 42.455L144.573 69.725L134.479 42.455H125.135L122.433 84.025H131.2L132.529 61.483L141.227 84.025H147.858L156.496 61.482L157.825 84.025H166.654L163.95 42.455H154.722Z" fill="#da2323"/>
</svg>
