<svg width="369" height="125" viewBox="0 0 369 125" fill="none" xmlns="http://www.w3.org/2000/svg">
<path d="M212.26 51.86C209.36 51.86 206.59 53.56 204.85 56.4C203.03 59.43 202.22 64.32 202.22 67.81C202.22 72.64 203.96 75.19 207.26 75.19C209.68 75.19 212.16 73.46 213.6 70.78L216.12 52.68C215.01 52.06 213.41 51.84 212.27 51.84L212.26 51.86ZM124.71 41.72C127.84 45.47 129.43 51.03 129.43 58.24C129.43 65.45 127.84 71 124.71 74.76C122 78.01 118.25 79.72 113.85 79.72C109.45 79.72 105.7 78 102.99 74.76C99.86 71 98.27 65.45 98.27 58.24C98.27 51.03 99.86 45.48 102.99 41.72C105.7 38.47 109.45 36.76 113.85 36.76C118.25 36.76 122 38.48 124.71 41.72ZM113.85 44.39C109.46 44.39 107.14 49.18 107.14 58.23C107.14 67.28 109.46 72.07 113.85 72.07C118.24 72.07 120.56 67.28 120.56 58.23C120.56 49.18 118.24 44.39 113.85 44.39ZM165.04 58.23C165.04 65.44 163.45 70.99 160.32 74.75C157.61 78 153.86 79.71 149.46 79.71C145.06 79.71 141.31 77.99 138.6 74.75C135.47 70.99 133.88 65.44 133.88 58.23C133.88 51.02 135.47 45.47 138.6 41.71C141.31 38.46 145.06 36.75 149.46 36.75C153.86 36.75 157.61 38.47 160.32 41.71C163.45 45.46 165.04 51.02 165.04 58.23ZM149.46 44.39C145.07 44.39 142.75 49.18 142.75 58.23C142.75 67.28 145.07 72.07 149.46 72.07C153.85 72.07 156.17 67.28 156.17 58.23C156.17 49.18 153.85 44.39 149.46 44.39ZM78.61 44.42C82.3 44.42 84.42 46.48 84.42 50.07C84.42 54.75 81.53 57.96 78.98 60.8L68.03 73.2V79.04H93.95V71.43H79.46L85.83 64.72C89.63 60.68 93.34 56.11 93.34 48.76C93.34 41.41 88.39 36.76 80.41 36.76C74.58 36.76 70.21 38.89 66.89 43.08L71.19 48.29C72.54 46.57 74.96 44.43 78.6 44.43L78.61 44.42ZM191.28 63.94C190.29 75.97 184.45 85.21 174.77 89.84C174.14 89.19 173.24 87.36 173.02 86.49C180.44 82.12 184.48 75.2 185.41 65.46L187.62 41.7C186.02 41.64 183.63 41.47 182.42 41.27C182.26 40.32 182.47 38.13 182.69 37.46H198.45C198.68 38.66 198.45 40.06 198.07 41.19C196.83 41.42 194.85 41.63 193.21 41.7L191.29 63.94H191.28ZM223.85 74.57V74.74C223.85 75.65 223.33 77.45 222.81 78.26C220.92 79.03 216.95 79.73 215.26 79.71C214.57 78.54 213.88 76.6 213.61 75.14H213.51C211.12 78.51 207.41 79.71 204.72 79.71C201.68 79.71 196.59 78.25 196.59 68.49C196.59 63.2 198.09 58.08 200.7 54.43C202.75 51.62 206.43 48.26 212.32 48.26C217 48.26 220.22 50.04 221.69 51.11L218.71 73.88C218.71 74 218.85 74.64 218.97 74.99L223.84 74.55L223.85 74.57ZM235.73 36C233.04 36 230.88 36.78 229.56 37.47C228.99 38.07 228.4 39.88 228.4 40.91L232.78 40.42L228.02 79.02C228.53 79.22 229.37 79.32 230.48 79.32C231.59 79.32 232.9 79.18 233.59 79.05L235.96 58.27C237.5 54.4 241.17 52.66 243.29 52.66C246.06 52.66 247.58 54.49 247.58 57.8C247.58 61.11 245.9 70.88 245.17 74.98C245.17 76.11 246.22 78.35 247.42 79.71C249.17 79.73 252.81 79.09 254.89 78.26C255.42 77.43 255.93 75.63 255.93 74.68V74.51L251.1 75.01C251 74.78 250.86 74.27 250.86 74.14C250.95 73.45 251.13 72.26 251.36 70.76C252.07 66.03 253.15 58.89 253.15 56.07C253.15 50.89 250.69 48.27 245.83 48.27C241.7 48.27 238.53 49.93 236.41 53.2H236.07C236.83 49.84 237.35 47.04 237.76 42.86L238.44 36.28C237.94 36.13 236.39 36 235.74 36H235.73ZM275.79 48.27C271.38 48.27 268.6 51.78 267.46 55.11H267.13L267.93 48.91C267.36 48.72 266.6 48.62 265.66 48.62C263.57 48.62 261.2 49.21 259.86 50.09C259.25 50.69 258.63 52.87 258.7 53.52L263.25 53.03L259.85 79.02C260.36 79.22 261.21 79.32 262.31 79.32C263.41 79.32 264.73 79.18 265.42 79.05L267.42 59.44C268.82 55.68 271.42 53.52 274.56 53.52C276.22 53.52 277.61 53.98 278.85 54.82C279.14 54.06 279.35 52.67 279.35 51.74C279.35 50.7 279.18 49.63 278.89 48.85C278.13 48.48 276.96 48.27 275.8 48.27H275.79ZM289.65 74.95C292.46 74.95 296.52 73.67 299.07 71.91V72.2C299.07 73.37 298.77 74.81 298.28 75.72C296.9 76.92 293.07 79.71 287.43 79.71C281.79 79.71 278.87 75.92 278.87 69.05C278.87 65.31 279.48 58.32 283.54 53.44C286.28 50.15 290.22 48.27 294.35 48.27C298.83 48.27 301.61 50.93 301.61 55.21C301.61 61.89 296.07 65.38 284.68 65.86V67.56C284.68 72.53 286.31 74.94 289.65 74.94V74.95ZM296.29 55.52C296.29 54.18 295.89 51.92 293.23 51.92C290.78 51.92 288.42 53.38 287.06 55.72C286.1 57.33 285.43 59.43 285.07 61.97C296.29 61.52 296.29 57.47 296.29 55.52Z" fill="white"/>
</svg>
