<?xml version="1.0" encoding="UTF-8"?>
<svg id="Layer_1" data-name="Layer 1" xmlns="http://www.w3.org/2000/svg" viewBox="0 0 1381 920">
  <defs>
    <style>
      .cls-1, .cls-2, .cls-3, .cls-4, .cls-5, .cls-6, .cls-7, .cls-8, .cls-9, .cls-10, .cls-11, .cls-12, .cls-13, .cls-14, .cls-15 {
        stroke-width: 0px;
      }

      .cls-1, .cls-4, .cls-10 {
        fill: #969ba0;
      }

      .cls-2 {
        fill: #abafb3;
      }

      .cls-3 {
        fill: none;
      }

      .cls-4, .cls-5, .cls-7, .cls-10, .cls-11, .cls-15 {
        isolation: isolate;
      }

      .cls-4, .cls-15 {
        opacity: .4;
      }

      .cls-5 {
        fill: #dedcd2;
        opacity: .7;
      }

      .cls-6 {
        fill: #da2423;
      }

      .cls-7, .cls-11 {
        opacity: .8;
      }

      .cls-7, .cls-14, .cls-15 {
        fill: #fff;
      }

      .cls-8 {
        fill: rgba(255, 255, 255, .3);
      }

      .cls-9 {
        fill: #afcd5f;
      }

      .cls-10 {
        opacity: .5;
      }

      .cls-11, .cls-13 {
        fill: #d76b00;
      }

      .cls-12 {
        fill: #454440;
      }
    </style>
  </defs>
  <g id="Hintergrund">
    <path class="cls-5" d="M397.6,143.8h650.6c56.1,0,54.8,59.3,54.8,59.3v509H336.6V208.1c0-61.3,61-64.3,61-64.3Z"/>
    <ellipse class="cls-2" cx="936.1" cy="830.2" rx="154" ry="27.2"/>
    <ellipse class="cls-2" cx="401.9" cy="827" rx="154" ry="27.2"/>
    <path class="cls-14" d="M1123.6,566.4l-141.7-47.7-1.3,143s80.2-61.5,132.8-55.2c52.7,6.3,10.2-40.1,10.2-40.1Z"/>
  </g>
  <g id="Illustration">
    <ellipse class="cls-2" cx="501.3" cy="763.6" rx="336.9" ry="23.3"/>
    <path class="cls-14" d="M711.4,708.6c-6.7,0-12.1-5.4-12.1-12.1v-262.8c0-6.7,5.4-12.1,12.1-12.1s12.1,5.4,12.1,12.1v262.7c0,6.8-5.4,12.2-12.1,12.2Z"/>
    <g>
      <polyline class="cls-14" points="711.4 433.1 711.4 109.5 377.8 111 377.8 744.7 711.4 743.2 711.4 696.5"/>
      <path class="cls-14" d="M365.7,756.8V98.9l357.8-1.6v335.7c0,6.7-5.4,12.1-12.1,12.1s-12.1-5.4-12.1-12.1V121.7l-309.4,1.3v609.5l309.4-1.3v-34.7c0-6.7,5.4-12.1,12.1-12.1s12.1,5.4,12.1,12.1v58.8l-357.8,1.5Z"/>
    </g>
    <g>
      <polyline class="cls-14" points="711.4 315.2 711.4 109.5 421.6 110.7"/>
      <path class="cls-12" d="M711.4,317.7c-1.3,0-2.4-1.1-2.4-2.4V112l-287.4,1.2h0c-1.3,0-2.4-1.1-2.4-2.4s1.1-2.4,2.4-2.4l292.2-1.2v208.1c0,1.3-1,2.4-2.4,2.4Z"/>
    </g>
    <polyline class="cls-15" points="695.1 742.9 695.1 126.3 361.5 127.5 361.5 741.6"/>
    <path class="cls-12" d="M533.4,370.5c-1.3,0-2.4-1.1-2.4-2.4V122.7c0-1.3,1.1-2.4,2.4-2.4s2.4,1.1,2.4,2.4v245.3c0,1.4-1.1,2.5-2.4,2.5Z"/>
    <path class="cls-12" d="M533.4,549.5c-1.3,0-2.4-1.1-2.4-2.4v-70.2c0-1.3,1.1-2.4,2.4-2.4s2.4,1.1,2.4,2.4v70.2c0,1.3-1.1,2.4-2.4,2.4Z"/>
    <g>
      <rect class="cls-14" x="308.4" y="688" width="17.4" height="8.2"/>
      <path class="cls-12" d="M327.5,697.9h-20.8v-11.6h20.8v11.6ZM310.1,694.5h14v-4.8h-14v4.8Z"/>
    </g>
    <path class="cls-12" d="M395.2,672.6c-.9,0-1.7-.8-1.7-1.7V237.3c0-.9.8-1.7,1.7-1.7s1.7.8,1.7,1.7v433.6c0,.9-.7,1.7-1.7,1.7Z"/>
    <path class="cls-12" d="M303.4,672.6c-.9,0-1.7-.8-1.7-1.7V237.3c0-.9.8-1.7,1.7-1.7s1.7.8,1.7,1.7v433.6c0,.9-.7,1.7-1.7,1.7Z"/>
    <path class="cls-12" d="M497.7,412.8c-.9,0-1.7-.8-1.7-1.7v-7.5c0-.9.8-1.7,1.7-1.7s1.7.8,1.7,1.7v7.5c0,1-.8,1.7-1.7,1.7Z"/>
    <path class="cls-12" d="M405.9,412.8c-.9,0-1.7-.8-1.7-1.7v-7.5c0-.9.8-1.7,1.7-1.7s1.7.8,1.7,1.7v7.5c0,1-.8,1.7-1.7,1.7Z"/>
    <g>
      <path class="cls-12" d="M366.6,280.7h-34.1c-.7,0-1.2-.5-1.2-1.2s.5-1.2,1.2-1.2h34.2c.7,0,1.2.5,1.2,1.2s-.6,1.2-1.3,1.2Z"/>
      <path class="cls-12" d="M366.6,290.8h-34.1c-.7,0-1.2-.5-1.2-1.2s.5-1.2,1.2-1.2h34.2c.7,0,1.2.5,1.2,1.2s-.6,1.2-1.3,1.2Z"/>
      <path class="cls-12" d="M366.6,300.9h-34.1c-.7,0-1.2-.5-1.2-1.2s.5-1.2,1.2-1.2h34.2c.7,0,1.2.5,1.2,1.2s-.6,1.2-1.3,1.2Z"/>
    </g>
    <g>
      <path class="cls-12" d="M458.3,280.7h-34.2c-.7,0-1.2-.5-1.2-1.2s.5-1.2,1.2-1.2h34.2c.7,0,1.2.5,1.2,1.2s-.6,1.2-1.2,1.2Z"/>
      <path class="cls-12" d="M458.3,290.8h-34.2c-.7,0-1.2-.5-1.2-1.2s.5-1.2,1.2-1.2h34.2c.7,0,1.2.5,1.2,1.2s-.6,1.2-1.2,1.2Z"/>
      <path class="cls-12" d="M458.3,300.9h-34.2c-.7,0-1.2-.5-1.2-1.2s.5-1.2,1.2-1.2h34.2c.7,0,1.2.5,1.2,1.2s-.6,1.2-1.2,1.2Z"/>
    </g>
    <g>
      <path class="cls-12" d="M677.1,213.8h-6.4c-.7,0-1.2-.5-1.2-1.2s.5-1.2,1.2-1.2h6.4c.7,0,1.2.5,1.2,1.2s-.6,1.2-1.2,1.2Z"/>
      <path class="cls-12" d="M663.3,213.8h-97.3c-.7,0-1.2-.5-1.2-1.2s.5-1.2,1.2-1.2h97.3c.7,0,1.2.5,1.2,1.2s-.5,1.2-1.2,1.2Z"/>
      <path class="cls-12" d="M677.1,232.1h-6.4c-.7,0-1.2-.5-1.2-1.2s.5-1.2,1.2-1.2h6.4c.7,0,1.2.5,1.2,1.2s-.6,1.2-1.2,1.2Z"/>
      <path class="cls-12" d="M663.3,232.1h-97.3c-.7,0-1.2-.5-1.2-1.2s.5-1.2,1.2-1.2h97.3c.7,0,1.2.5,1.2,1.2s-.5,1.2-1.2,1.2Z"/>
      <path class="cls-12" d="M677.1,250.3h-6.4c-.7,0-1.2-.5-1.2-1.2s.5-1.2,1.2-1.2h6.4c.7,0,1.2.5,1.2,1.2s-.6,1.2-1.2,1.2Z"/>
      <path class="cls-12" d="M663.3,250.3h-97.3c-.7,0-1.2-.5-1.2-1.2s.5-1.2,1.2-1.2h97.3c.7,0,1.2.5,1.2,1.2s-.5,1.2-1.2,1.2Z"/>
    </g>
    <g>
      <path class="cls-12" d="M501.5,213.8h-6.4c-.7,0-1.2-.5-1.2-1.2s.5-1.2,1.2-1.2h6.4c.7,0,1.2.5,1.2,1.2s-.5,1.2-1.2,1.2Z"/>
      <path class="cls-12" d="M487.7,213.8h-97.3c-.7,0-1.2-.5-1.2-1.2s.5-1.2,1.2-1.2h97.3c.7,0,1.2.5,1.2,1.2s-.5,1.2-1.2,1.2Z"/>
      <path class="cls-12" d="M501.5,232.1h-6.4c-.7,0-1.2-.5-1.2-1.2s.5-1.2,1.2-1.2h6.4c.7,0,1.2.5,1.2,1.2s-.5,1.2-1.2,1.2Z"/>
      <path class="cls-12" d="M487.7,232.1h-97.3c-.7,0-1.2-.5-1.2-1.2s.5-1.2,1.2-1.2h97.3c.7,0,1.2.5,1.2,1.2s-.5,1.2-1.2,1.2Z"/>
      <path class="cls-12" d="M501.5,250.3h-6.4c-.7,0-1.2-.5-1.2-1.2s.5-1.2,1.2-1.2h6.4c.7,0,1.2.5,1.2,1.2s-.5,1.2-1.2,1.2Z"/>
      <path class="cls-12" d="M487.7,250.3h-97.3c-.7,0-1.2-.5-1.2-1.2s.5-1.2,1.2-1.2h97.3c.7,0,1.2.5,1.2,1.2s-.5,1.2-1.2,1.2Z"/>
    </g>
    <path class="cls-12" d="M314.1,412.8c-.9,0-1.7-.8-1.7-1.7v-7.5c0-.9.8-1.7,1.7-1.7s1.7.8,1.7,1.7v7.5c0,1-.8,1.7-1.7,1.7Z"/>
    <g>
      <polyline class="cls-14" points="656.8 758.3 721.1 758.3 721.1 725.5"/>
      <path class="cls-12" d="M723.5,760.7h-66.7c-1.3,0-2.4-1.1-2.4-2.4s1.1-2.4,2.4-2.4h61.8v-30.4c0-1.3,1.1-2.4,2.4-2.4s2.4,1.1,2.4,2.4v35.2h.1Z"/>
    </g>
    <path class="cls-12" d="M632.4,760.7h-147.8c-1.3,0-2.4-1.1-2.4-2.4s1.1-2.4,2.4-2.4h147.8c1.3,0,2.4,1.1,2.4,2.4s-1,2.4-2.4,2.4Z"/>
    <path class="cls-12" d="M460.2,760.7h-66.9c-1.3,0-2.4-1.1-2.4-2.4s1.1-2.4,2.4-2.4h66.9c1.3,0,2.4,1.1,2.4,2.4s-1.1,2.4-2.4,2.4Z"/>
    <path class="cls-14" d="M1109.8,827.3c-30.5,0-60-11-83-30.9-19.9-17.2-33.9-40-40.3-65.2l-19.5,6.7-8.4-.2-27.8,7.7c-10,3.8-20,4.1-29.3,4.1h-139.8c-18.4,0-34.3-12.5-38.7-30.3l-17.2-69.9c-1.7-7-1.5-14.4.6-21.2-5.2-3.9-9.1-9.5-10.9-16l-18.5-70h-22.5l-13.1,27.6c1,3.1.8,6.6-.7,9.8l-3.3,6.9c17.5,11.8,32.2,27.5,42.7,45.9,2.2,3.9,2.2,8.7-.1,12.6-.8,1.3-1.8,2.5-3,3.4,7.3,16.3,11.1,34,11.1,52,0,19.8-3.2,31.3-13.1,47.2-2.8,4.5-8.8,5.9-13.3,3.1-4.5-2.8-5.9-8.8-3.1-13.3,8-12.8,10.2-20.7,10.2-37,0-19.1-5.1-37.9-14.7-54.4l-8.8-15.1,11.2.3c-9.6-13.3-22-24.5-36.2-32.8l-7.7-4.5,8.4-17.7-.8-.4-.9-.3-8.4,17.7-8.3-3.1c-13.3-5-27.2-7.5-41.5-7.5-11.3,0-22.4,1.6-33,4.7l14.5,3-26.8,12.4c-38,17.6-62.6,56-62.6,97.8,0,17.3,2,22.7,8.4,35,2.4,4.8.6,10.6-4.2,13-4.8,2.4-10.6.6-13-4.2-7.9-15.4-10.5-23.9-10.5-43.9,0-43.5,22.5-83.8,58.4-107-.3-.8-.5-1.6-.6-2.4-.7-5.2,1.9-10.4,6.6-12.8,19.2-9.9,40.9-15.1,62.6-15.1,13.6,0,27,2,39.9,5.9l3.2-6.8c1.5-3.2,4.1-5.5,7.1-6.7l17.1-36.1c-6.2,2.7-12.9,4.1-19.9,4.1h-4.7l-2.9-3.7c-.7-.8-16.2-21-16.2-46.5s15.6-45.6,16.2-46.5l2.9-3.7h4.7c3.9,0,7.9,0,11.7.3-2.2-5.3-3-11.7.7-19,3.5-7,10.9-14,25.3-24.1l5.6-3.9,5.6,4c.4.3,8.8,6.4,15.8,16.3,3.3,4.8,5.7,9.6,7.3,13.3l11.3-23.5,26-10.1-6.3-12.5,13-42.3,1-.3c-.4-3.7-.5-7.2-.3-10.2,1-11.8,7.2-14.9,10.8-15.7,10-2.3,18.5,7.6,22.8,26.4s.8,31.4-9.2,33.6c-3.1.7-8.5.6-13.6-5.5l-3.7,12.1.5,1c1.8-.6,3.7-.9,5.5-.9,5,0,9.8,2.1,13.4,5.8h19.1c9.1,0,16.2,8.1,16.2,18.3s-7.1,18.3-16.2,18.3h-19.1c-3.3,3.3-7.5,5.4-11.9,5.7v7l-26.3,1.7-5.8,11.5,7.3,3.5-10.7,23.7c15.2-12.1,39.8-17.4,72.1-15.5,33.3,1.9,65.4,10.8,82.7,17.9,3.9,1.6,7.9,3.6,11.7,5.9,2,1.2,3.9,2.5,5.7,3.8,4.3-2.9,11.1-5.1,19.8-1.9,5.6,2.1,9.7,6.4,14.4,11.3,10.7,11.2,25.4,26.6,65.6,19.3,7.4-1.4,13.9-2.1,20.7-2.8,15.6-1.7,33.3-3.6,69.7-14.5,9.5-2.8,21.2-5.3,28,1.1l.6.6,65.4,9.5c13.9,1.8,25.5,11,30.4,24.2l7.7,20.8,7.6-1.3h.8c2.6,0,11.2.9,14.2,13.2,1.2,4.9,1.4,11.6-.4,17.4,12.6,12.2,24.1,27.3,34.3,45,2.2,3.9,2.2,8.7-.1,12.6-2.3,3.9-6.6,6.2-11.1,6.1h-.6l-4.5-.4c-5.7-.3-11-3.1-14.4-7.7-20.3-27.4-44.1-44.4-72.3-51.4l-12.1,5.3c-7,3-18.3,1.7-37.7-.8-7.5-1-19.2-2.5-25.3-2.4l-11.2,43.3c14.2-12.9,30.1-25.8,48-25.8,35.1,0,65.3,9.7,87.2,28.1,23.4,19.6,35.8,47.9,35.8,81.9.1,69.9-56.9,127-127,127ZM1001.6,705.5l1.8,11.4c3.9,25.1,16.7,48.1,36.1,64.8,19.5,16.9,44.5,26.1,70.4,26.1,59.4,0,107.7-48.3,107.7-107.7,0-28-10-51.2-28.9-67-18.4-15.4-44.2-23.5-74.8-23.5-12.3,0-26.7,13.2-39.4,24.9-7,6.5-13.7,12.6-20.3,16.9l-20.9,13.7,27.4-106,2.6-2c6.8-5.3,19-4,41.7-1,2.7.3,5.9.8,9.2,1.1l-9.5-10.4,23.4,1.1c23.8,1.1,45.2,7.1,64.4,18.4l10.3-5.4c.3-1.2.4-2.9.3-4.5l-16.8,2.8-13.3-35.8c-2.4-6.4-8-10.9-14.8-11.7h-.2l-81.1-11.8.3-1.4c-1.4.3-3,.7-4.9,1.3-38,11.4-56.7,13.5-73.2,15.3-6.5.7-12.6,1.4-19.3,2.6-8.6,1.6-16.2,2.3-23.2,2.3-33.1,0-48.9-15.7-59-26.3l-14.6,9.7c-1.8-2.3-3.6-4.5-5.5-6.5l-.1-.1c-.6-.7-1.2-1.3-1.8-1.9l-.1-.1c-4.8-4.9-9.6-8.9-14.8-12-2.9-1.8-5.8-3.3-8.9-4.5-17.2-7-47.5-14.8-76.5-16.5-31.2-1.8-53.7,3.7-63.3,15.6-.5.6-.9,1.2-1.4,1.8l-2.9,3.9h-36l17.8-39.4-29.3-13.9,6.6,16.5-13.8,24.8-19.8-13.2-.8-4c-1.5-7.9-3.9-9-5.2-9.5-2.9-1.3-8.1-1.6-13.7-1.7-3.6,5.8-9.6,17.6-9.6,30.8s5.8,24.5,9.4,30.4c10.9-1.8,20.3-9.4,24.1-20l2.9-8,27.3,6-19.5,41.2h36.4c5.3,0,9.7,4.3,9.7,9.7v.8c.7.9,1.2,2,1.5,3.2l18.7,70.8c.9,3.5,3.6,6.1,7.1,7l10,2.5c1.1-2.8,2.6-5.5,4.4-8l3.2-4.4h15.9l13.5,56.2c1.7,7.1,5.5,13.4,11,18.2l4.3,3.8,1,4.3h17.5l7,29.1h-8.5l3.9,10.9h-25.2c-16.8,0-29.4-8.9-33-23.3l-16.4-66.5c-.9-3.8-1.2-7.6-.8-11.4l-2.1,3.3c-3.1,4.8-4,10.4-2.6,15.9l17.2,69.9c2.3,9.2,10.4,15.6,19.9,15.6h139.8c8,0,15.7-.2,22.8-3l.9-.3,31-8.6,7.8.2,37.6-13.5ZM772,706.1c1.7.7,3.5,1,5.1,1.1l-.4-1.1h-4.7ZM765.4,698.8c.7,2.6,2.1,4.5,3.8,5.8l-2.8-11.6c-1.1-1-2.2-2-3.2-3.1l2.2,8.9ZM888.9,474.4s1.2,2.2,3.3,5.9l4.9-5.7-8.2-.2ZM651.1,400.4c-5,3.8-11.1,8.8-13,12.5-.6,1.1-1.1,2.1,2,6.6,1.2,1.7,2.9,4.1,3.9,5.2.5-.1,1.5-.5,2.9-1.1l9.2-4.1v.1l5.7-3.8c-1.1-2.4-2.7-5.3-4.6-8.2-2-2.9-4.2-5.3-6.1-7.2ZM720.3,396l-9.8,3.8,9.8-.6v-3.2ZM736.3,389.5l1.8,1.2c.1-.1.2-.3.4-.5l2.2-3.9-2.1-3.7-1.2,1.1c-.1.3-.2.6-.2.9l-.9,4.9ZM1007.9,664.9l-31-6.1,2.1-9.7c2.2-10.3,5.4-19.4,9.4-27.1l-4.5-10.6,1.5-3.7c.3-.8,8.1-19.8,26.9-38.7l8.9-8.9,25.7,44-6,5.3c-14.4,12.6-24.9,28.9-30.5,47.1l-2.5,8.4ZM1005.1,611.6l2.7,6.3c4.3-6.3,9.1-12.2,14.6-17.6l-4.7-8c-6.5,8-10.6,15.2-12.6,19.3Z"/>
    <ellipse class="cls-2" cx="879.6" cy="817.1" rx="364.2" ry="23.3"/>
    <g>
      <g>
        <ellipse class="cls-14" cx="738.8" cy="384.6" rx="11.6" ry="15.5"/>
        <path class="cls-14" d="M738.8,408.8c-11.4,0-20.3-10.6-20.3-24.2s8.9-24.2,20.3-24.2,20.3,10.6,20.3,24.2-8.9,24.2-20.3,24.2ZM738.8,377.9c-.5,0-2.9,2.2-2.9,6.7s2.3,6.7,2.9,6.7,2.9-2.2,2.9-6.7-2.4-6.7-2.9-6.7Z"/>
      </g>
      <g>
        <path class="cls-14" d="M691.7,439.9s11.4-22.9,13.3-26.5c1.9-3.6,4.4-5.2,7.4-5.4,3.8-.2,9.6-.4,16.1-.7,11.6-.4,5.4-16.1,5.4-16.1l6.2,2.8-3-16.4-27,10.5s-10,2.2-14.9,12.5c-5,10.2-16,33.3-16,33.3l12.5,6Z"/>
        <path class="cls-12" d="M692.8,443.1l-16.9-8,1.1-2.2s11.1-23.1,16-33.3c5.1-10.5,14.8-13.3,16.4-13.7l29.5-11.5,4.4,23.8-5.7-2.6c.6,3.2.7,7.3-1.2,10.3-1.1,1.7-3.4,3.7-7.8,3.9-6.6.2-12.4.5-16.1.7-1.4.1-3.4.6-5.3,4.1-1.9,3.5-13.2,26.2-13.3,26.4l-1.1,2.1ZM682.3,432.8l8.2,3.9c2.9-5.8,10.7-21.5,12.3-24.4,2.3-4.2,5.4-6.5,9.4-6.7,3.7-.2,9.6-.4,16.2-.7,2.8-.1,3.6-1.3,3.9-1.7,1.9-2.9.1-9.1-.7-11.1l-2.2-5.6,7.5,3.4-1.6-9-24.6,9.5c-.4.1-8.9,2.1-13.3,11.2-4.1,8.4-12.2,25.2-15.1,31.2Z"/>
      </g>
      <path class="cls-12" d="M692.8,443.1l-16.9-8,1.1-2.2s11.1-23.1,16-33.3c5.1-10.5,14.8-13.3,16.4-13.7l29.5-11.5,4.4,23.8-5.7-2.6c.6,3.2.7,7.3-1.2,10.3-1.1,1.7-3.4,3.7-7.8,3.9-6.6.2-12.4.5-16.1.7-1.4.1-3.4.6-5.3,4.1-1.9,3.5-13.2,26.2-13.3,26.4l-1.1,2.1ZM682.3,432.8l8.2,3.9c2.9-5.8,10.7-21.5,12.3-24.4,2.3-4.2,5.4-6.5,9.4-6.7,3.7-.2,9.6-.4,16.2-.7,2.8-.1,3.6-1.3,3.9-1.7,1.9-2.9.1-9.1-.7-11.1l-2.2-5.6,7.5,3.4-1.6-9-24.6,9.5c-.4.1-8.9,2.1-13.3,11.2-4.1,8.4-12.2,25.2-15.1,31.2Z"/>
      <g>
        <ellipse class="cls-14" cx="743.38" cy="323.2" rx="6.8" ry="21.3" transform="translate(-53.08 172.45) rotate(-12.78)"/>
        <path class="cls-12" d="M747.6,346.4c-2,0-4.7-1.3-7.6-6.3-2.3-3.8-4.2-9.1-5.5-14.9s-1.8-11.4-1.4-15.9c.6-6.8,3.1-8.8,5.2-9.3,2-.5,5.2.2,8.7,6.1,2.3,3.8,4.2,9.1,5.5,14.9h0c2.5,11.1,2.4,23.7-3.7,25.1-.5.3-.8.3-1.2.3ZM739.2,304.8c-1,.6-2.7,7.5,0,19.3s7.2,17.3,8.5,17.4c1-.6,2.7-7.5,0-19.3h0c-2.7-11.8-7.2-17.3-8.5-17.4Z"/>
      </g>
      <g>
        <path class="cls-14" d="M689.7,550.9s2.9,37.3,15.5,59c12.6,21.6,10.1,14.6,19,14.6h6.8l12.4,51.7c2.3,9.5,8.9,27.5,19.9,39.6,12.9,14.2,40.8,16.7,40.8,16.7l108,5.6,70.7-27.1s-3.2-47,15.1-77.3l-5-11.9s-34.9-66.7,21.1-85l61.3-17.5-392.7,5.7"/>
        <path class="cls-12" d="M912.6,740.5h-.5l-108-5.6c-1.3-.1-29.1-2.8-42.5-17.5-10.8-11.8-17.8-29.3-20.5-40.7l-12-49.9h-4.9c-1.8,0-3,.3-4.1.6-6,1.6-7.7-.6-17-16.4-12.8-21.8-15.7-58.4-15.9-60-.1-1.3.9-2.5,2.2-2.6s2.5.9,2.6,2.2c0,.4,3,37.1,15.2,57.9,4.2,7.1,7.1,11.9,8.9,13.7q.9.9,2.6.4c1.2-.3,2.9-.8,5.4-.8h8.7l12.8,53.6c2.1,8.7,8.5,26.6,19.4,38.6,12.1,13.3,38.9,15.9,39.2,16l107.4,5.5,68.6-26.3c-.4-9-1.1-48.3,14.9-75.9l-4.5-10.7c-1.2-2.4-18.2-36.1-7.4-62.6,5-12.2,15-20.9,30-25.8l43.9-12.5-374.4,5.4c-1.3,0-2.4-1-2.5-2.4,0-1.3,1-2.4,2.4-2.5l410.9-5.9-78.9,22.5c-13.4,4.4-22.5,12.1-26.9,23-5.2,12.9-3,28-.2,38.5,3.1,11.5,7.5,20,7.5,20.1l.1.2,5.5,13-.6,1.1c-9.2,15.2-12.7,35-14.1,48.9-1.5,15.2-.7,26.9-.7,27l.1,1.8-72.7,28.1Z"/>
      </g>
      <path class="cls-10" d="M698.7,550.9s2.9,37.3,15.5,59c12.6,21.6,10.1,14.6,19,14.6h6.8l12.4,51.7c2.3,9.5,8.9,27.5,19.9,39.6,12.9,14.2,40.8,16.7,40.8,16.7l108,5.6,70.7-27.1s-3.2-47,15.1-77.3l-5-11.9s-34.9-66.7,21.1-85l61.3-17.5-392.7,5.7"/>
      <g>
        <path class="cls-14" d="M639.5,532l30.2-59.7h71.4l-30.1,59.7s-20.2,3.6-33.4,2.7c-18-1.3-25.8-9.9-25.8-9.9"/>
        <path class="cls-12" d="M682.4,537.2c-1.7,0-3.4-.1-5.1-.2-18.8-1.3-27-10.3-27.4-10.7-.9-1-.8-2.5.2-3.4s2.5-.8,3.4.2c.1.1,7.4,7.9,24.1,9.1,11,.8,27.2-1.7,31.7-2.4l27.8-55.1h-66l-29.4,58.3c-.6,1.2-2.1,1.7-3.3,1.1-1.2-.6-1.7-2.1-1.1-3.3l30.8-61h76.9l-32.5,64.3-1.2.2c-.6.2-16.1,2.9-28.9,2.9Z"/>
      </g>
      <path class="cls-10" d="M639.5,532l30.2-59.7h71.4l-30.1,59.7s-20.2,3.6-33.4,2.7c-18-1.3-25.8-9.9-25.8-9.9"/>
      <path class="cls-12" d="M682.4,537.2c-1.7,0-3.4-.1-5.1-.2-18.8-1.3-27-10.3-27.4-10.7-.9-1-.8-2.5.2-3.4s2.5-.8,3.4.2c.1.1,7.4,7.9,24.1,9.1,11,.8,27.2-1.7,31.7-2.4l27.8-55.1h-66l-29.4,58.3c-.6,1.2-2.1,1.7-3.3,1.1-1.2-.6-1.7-2.1-1.1-3.3l30.8-61h76.9l-32.5,64.3-1.2.2c-.6.2-16.1,2.9-28.9,2.9Z"/>
      <g>
        <path class="cls-12" d="M1113.4,582.7c-65.4,0-118.4,53-118.4,118.4s53,118.4,118.4,118.4,118.4-53,118.4-118.4-53-118.4-118.4-118.4ZM1113.4,786.2c-47,0-85.2-38.1-85.2-85.2s38.1-85.2,85.2-85.2,85.2,38.1,85.2,85.2-38.1,85.2-85.2,85.2Z"/>
        <path class="cls-12" d="M1113.4,821.9c-66.6,0-120.8-54.2-120.8-120.8s54.2-120.8,120.8-120.8,120.8,54.2,120.8,120.8-54.2,120.8-120.8,120.8ZM1113.4,585.1c-63.9,0-116,52-116,116s52,116,116,116,116-52,116-116-52-116-116-116ZM1113.4,788.7c-48.3,0-87.6-39.3-87.6-87.6s39.3-87.6,87.6-87.6,87.6,39.3,87.6,87.6-39.3,87.6-87.6,87.6ZM1113.4,618.4c-45.6,0-82.7,37.1-82.7,82.7s37.1,82.7,82.7,82.7,82.7-37.1,82.7-82.7-37.1-82.7-82.7-82.7Z"/>
      </g>
      <path class="cls-12" d="M1113.4,797.1c-53,0-96-43.1-96-96s43.1-96,96-96,96,43.1,96,96c.1,52.9-43,96-96,96ZM1113.4,608c-51.4,0-93.1,41.8-93.1,93.1s41.8,93.1,93.1,93.1,93.1-41.8,93.1-93.1c.1-51.4-41.7-93.1-93.1-93.1Z"/>
      <g>
        <path class="cls-12" d="M560.1,582.7c-65.4,0-118.4,53-118.4,118.4s53,118.4,118.4,118.4,118.4-53,118.4-118.4-53-118.4-118.4-118.4ZM560.1,786.2c-47,0-85.2-38.1-85.2-85.2s38.1-85.2,85.2-85.2,85.2,38.1,85.2,85.2c0,47.1-38.2,85.2-85.2,85.2Z"/>
        <path class="cls-12" d="M560.1,821.9c-66.6,0-120.8-54.2-120.8-120.8s54.2-120.8,120.8-120.8,120.8,54.2,120.8,120.8-54.2,120.8-120.8,120.8ZM560.1,585.1c-63.9,0-116,52-116,116s52,116,116,116,116-52,116-116-52.1-116-116-116ZM560.1,788.7c-48.3,0-87.6-39.3-87.6-87.6s39.3-87.6,87.6-87.6,87.6,39.3,87.6,87.6-39.3,87.6-87.6,87.6ZM560.1,618.4c-45.6,0-82.7,37.1-82.7,82.7s37.1,82.7,82.7,82.7,82.7-37.1,82.7-82.7-37.1-82.7-82.7-82.7Z"/>
      </g>
      <g>
        <path class="cls-14" d="M1114.5,738.1c-20.4,0-37-16.6-37-37s16.6-37,37-37,37,16.6,37,37-16.6,37-37,37Z"/>
        <path class="cls-12" d="M1114.5,740.5c-21.7,0-39.4-17.7-39.4-39.4s17.7-39.4,39.4-39.4,39.4,17.7,39.4,39.4-17.7,39.4-39.4,39.4ZM1114.5,666.5c-19.1,0-34.6,15.5-34.6,34.6s15.5,34.6,34.6,34.6,34.6-15.5,34.6-34.6-15.5-34.6-34.6-34.6Z"/>
      </g>
      <path class="cls-12" d="M1114.5,740.5c-21.7,0-39.4-17.7-39.4-39.4s17.7-39.4,39.4-39.4,39.4,17.7,39.4,39.4-17.7,39.4-39.4,39.4ZM1114.5,666.5c-19.1,0-34.6,15.5-34.6,34.6s15.5,34.6,34.6,34.6,34.6-15.5,34.6-34.6-15.5-34.6-34.6-34.6Z"/>
      <g>
        <path class="cls-12" d="M1043.3,636.2c-1.1,0-2.1-.7-2.3-1.8-.3-1.3.5-2.6,1.8-2.9l25.1-6.4c1.3-.3,2.6.5,2.9,1.8s-.5,2.6-1.8,2.9l-25.1,6.4h-.6Z"/>
        <path class="cls-12" d="M1036.3,624.2c-1.1,0-2.1-.7-2.3-1.8-.3-1.3.5-2.6,1.8-2.9l25.1-6.4c1.3-.3,2.6.5,2.9,1.8s-.5,2.6-1.8,2.9l-25.1,6.4c-.2-.1-.4,0-.6,0Z"/>
        <g>
          <path class="cls-14" d="M1071.4,658.6l1.2-.7c3.6-2.1,4.8-6.7,2.7-10.3l-47.1-80.7c-2.1-3.6-6.7-4.8-10.3-2.7l-1.2.7c-3.6,2.1-4.8,6.7-2.7,10.3l47.1,80.7c2.1,3.6,6.7,4.8,10.3,2.7Z"/>
          <path class="cls-12" d="M1067.6,662c-3.4,0-6.8-1.8-8.6-4.9l-47.1-80.7c-1.3-2.3-1.7-5-1-7.6s2.3-4.7,4.6-6.1l1.2-.7c4.7-2.8,10.9-1.2,13.6,3.6l47.1,80.7c2.8,4.7,1.2,10.9-3.6,13.6l-1.2.7c-1.6,1-3.3,1.4-5,1.4ZM1021.7,565.5c-.9,0-1.8.2-2.6.7l-1.2.7c-1.2.7-2,1.8-2.4,3.1-.3,1.3-.2,2.7.5,3.9l47.1,80.7c1.4,2.4,4.6,3.3,7,1.8h0l1.2-.7c2.4-1.4,3.3-4.6,1.8-7l-47.1-80.7c-.8-1.5-2.5-2.5-4.3-2.5Z"/>
        </g>
        <path class="cls-12" d="M1034.2,622.4c-.6,0-1.2-.2-1.7-.7-1-.9-1-2.5,0-3.4l18.1-18.4c.9-1,2.5-1,3.4,0,1,.9,1,2.5,0,3.4l-18.1,18.4c-.5.5-1.1.7-1.7.7Z"/>
        <path class="cls-12" d="M1027.3,600.5c-.6,0-1.2-.2-1.7-.7-1-.9-1-2.5,0-3.4l11.6-11.8c.9-1,2.5-1,3.4,0,1,.9,1,2.5,0,3.4l-11.6,11.8c-.5.5-1.1.7-1.7.7Z"/>
        <path class="cls-12" d="M1048.5,636.2c-.6,0-1.2-.2-1.7-.7-1-.9-1-2.5,0-3.4l12.1-12.3c.9-1,2.5-1,3.4,0,1,.9,1,2.5,0,3.4l-12.1,12.3c-.5.4-1.1.7-1.7.7Z"/>
      </g>
      <g>
        <path class="cls-12" d="M750.8,595.4c-1,0-1.9-.6-2.3-1.6-.5-1.3.2-2.6,1.4-3.1l62.4-22.8c1.3-.5,2.6.2,3.1,1.4.5,1.3-.2,2.6-1.4,3.1l-62.4,22.8c-.2.2-.5.2-.8.2Z"/>
        <path class="cls-12" d="M754.8,606.4c-1,0-1.9-.6-2.3-1.6-.5-1.3.2-2.6,1.4-3.1l62.4-22.8c1.3-.5,2.6.2,3.1,1.4.5,1.3-.2,2.6-1.4,3.1l-62.4,22.8c-.2.2-.5.2-.8.2Z"/>
        <path class="cls-12" d="M758.9,617.4c-1,0-1.9-.6-2.3-1.6-.5-1.3.2-2.6,1.4-3.1l62.4-22.8c1.3-.5,2.6.2,3.1,1.4.5,1.3-.2,2.6-1.4,3.1l-62.4,22.8c-.3.2-.6.2-.8.2Z"/>
      </g>
      <g>
        <circle class="cls-14" cx="560.1" cy="701.1" r="39.7"/>
        <path class="cls-12" d="M560.1,743.3c-23.2,0-42.2-18.9-42.2-42.2s18.9-42.2,42.2-42.2,42.2,18.9,42.2,42.2c0,23.2-19,42.2-42.2,42.2ZM560.1,663.8c-20.6,0-37.3,16.7-37.3,37.3s16.7,37.3,37.3,37.3,37.3-16.7,37.3-37.3-16.7-37.3-37.3-37.3Z"/>
      </g>
      <path class="cls-12" d="M560.1,743.3c-23.2,0-42.2-18.9-42.2-42.2s18.9-42.2,42.2-42.2,42.2,18.9,42.2,42.2c0,23.2-19,42.2-42.2,42.2ZM560.1,663.8c-20.6,0-37.3,16.7-37.3,37.3s16.7,37.3,37.3,37.3,37.3-16.7,37.3-37.3-16.7-37.3-37.3-37.3Z"/>
      <g>
        <path class="cls-14" d="M560.1,718c-9.3,0-16.9-7.6-16.9-16.9s7.6-16.9,16.9-16.9,16.9,7.6,16.9,16.9-7.6,16.9-16.9,16.9Z"/>
        <path class="cls-12" d="M560.1,720.4c-10.6,0-19.3-8.7-19.3-19.3s8.7-19.3,19.3-19.3,19.3,8.7,19.3,19.3-8.7,19.3-19.3,19.3ZM560.1,686.6c-8,0-14.5,6.5-14.5,14.5s6.5,14.5,14.5,14.5,14.5-6.5,14.5-14.5-6.5-14.5-14.5-14.5Z"/>
      </g>
      <circle class="cls-3" cx="560.1" cy="701.1" r="94.6"/>
      <path class="cls-12" d="M560.1,797.1c-51.2,0-93.3-40-95.9-91.1,0-.8.6-1.5,1.4-1.5.8-.1,1.5.6,1.5,1.4,2.5,49.5,43.4,88.3,93,88.3s93.1-41.8,93.1-93.1-41.8-93.1-93.1-93.1c-33.9,0-65.2,18.5-81.6,48.2-.4.7-1.3,1-2,.6s-1-1.3-.6-2c16.9-30.7,49.2-49.7,84.2-49.7,53,0,96,43.1,96,96s-43,96-96,96Z"/>
      <g>
        <path class="cls-14" d="M658.3,488.6l-45-9.8v-14.4l35.6,7.3s10.7-21.2,13.3-25.7c2.5-4.5-.6-8.5-.6-8.5l-13-13.5,11.7-6.5,42.3,20s-11.7,27.8-17.3,38.3c-5.6,10.5-27,12.8-27,12.8Z"/>
        <path class="cls-12" d="M658.2,491.1l-47.3-10.3v-19.3l36.7,7.5c2.6-5.1,10.3-20.3,12.5-24.2,1.5-2.8,0-5.2-.4-5.7l-15-15.7,15.5-8.6,45.5,21.5-.9,2.1c-.5,1.1-11.8,28-17.4,38.5-6.1,11.6-27.9,14-28.8,14.1l-.4.1ZM615.8,476.9l42.7,9.3c5.9-.7,20.7-3.9,24.7-11.5,4.6-8.7,13.4-29.3,16.3-36l-39.1-18.5-7.8,4.4,10.9,11.4c.2.2,4.1,5.3.9,11.2-2.5,4.4-13.1,25.4-13.2,25.6l-.8,1.6-34.5-7.1v9.6h-.1Z"/>
      </g>
      <path class="cls-10" d="M658.3,488.6l-45-9.8v-14.4l35.6,7.3s10.7-21.2,13.3-25.7c2.5-4.5-.6-8.5-.6-8.5l-13-13.5,6.8-1.3,42.3,20s-6.8,22.5-12.4,33.1c-5.6,10.6-27,12.8-27,12.8Z"/>
      <path class="cls-12" d="M658.2,491.1l-47.3-10.3v-19.3l36.7,7.5c2.6-5.1,10.3-20.3,12.5-24.2,1.5-2.8,0-5.2-.4-5.7l-15-15.7,15.5-8.6,45.5,21.5-.9,2.1c-.5,1.1-11.8,28-17.4,38.5-6.1,11.6-27.9,14-28.8,14.1l-.4.1ZM615.8,476.9l42.7,9.3c5.9-.7,20.7-3.9,24.7-11.5,4.6-8.7,13.4-29.3,16.3-36l-39.1-18.5-7.8,4.4,10.9,11.4c.2.2,4.1,5.3.9,11.2-2.5,4.4-13.1,25.4-13.2,25.6l-.8,1.6-34.5-7.1v9.6h-.1Z"/>
      <path class="cls-14" d="M512.1,594.2c6.9,1.4,14,1.4,20.9,0,7.7-1.5,15.6-2.3,23.8-2.3,40,0,75.4,19.4,97.5,49.2,1.9,2.6,5,4.2,8.2,4.3l17.3.5c2.5.1,4.1-2.6,2.8-4.7-25-43.7-72-73.1-125.9-73.1-23.8,0-46.3,5.7-66.1,15.9-2.6,1.4-2.1,5.3.8,5.9l20.7,4.3Z"/>
      <path class="cls-11" d="M512.1,594.2c6.9,1.4,14,1.4,20.9,0,7.7-1.5,15.6-2.3,23.8-2.3,40,0,75.4,19.4,97.5,49.2,1.9,2.6,5,4.2,8.2,4.3l17.3.5c2.5.1-2.5.2-3.7-2-25-43.7-67.3-65.7-112.8-68.2-25.6-1.5-48.2,5.3-68,15.5-2.6,1.4-6.7-1.8-3.8-1.2l20.6,4.2Z"/>
      <path class="cls-12" d="M679.9,648.4h-.2l-17.3-.5c-4-.1-7.7-2-10.1-5.3-22.3-30.2-58-48.2-95.6-48.2-7.8,0-15.7.8-23.3,2.3-7.3,1.4-14.6,1.4-21.8,0l-20.6-4.2c-2.4-.5-4.1-2.3-4.4-4.7s.8-4.6,3-5.7c20.9-10.7,43.5-16.2,67.2-16.2s45.9,5.4,66.7,15.9c1.2.6,1.7,2.1,1.1,3.3-.6,1.2-2.1,1.7-3.3,1.1-20.1-10.2-41.8-15.4-64.5-15.4s-44.8,5.3-65,15.7c-.4.2-.4.5-.4.7s.2.6.6.6l20.6,4.2c6.6,1.3,13.3,1.4,19.9,0,7.9-1.6,16.1-2.4,24.3-2.4,39,0,76.2,18.8,99.5,50.2,1.5,2.1,3.8,3.3,6.3,3.3l17.3.5c.4,0,.6-.2.7-.4.1-.2.2-.4,0-.7-11-19.1-26.4-35.7-44.8-48-1.1-.7-1.4-2.2-.7-3.4.7-1.1,2.2-1.4,3.4-.7,19,12.7,35,29.8,46.3,49.6,1,1.8,1,3.9-.1,5.6-1,1.7-2.8,2.8-4.8,2.8Z"/>
      <g>
        <path class="cls-14" d="M682.3,449.7l-4.9-2.3c-2.2-1-4.8-.1-5.9,2.1l-114.7,242.2c-1,2.2-.1,4.8,2.1,5.9l4.9,2.3c2.2,1,4.8.1,5.9-2.1l114.8-242.2c.9-2.2,0-4.8-2.2-5.9Z"/>
        <path class="cls-12" d="M565.6,702.7c-1,0-2-.2-2.9-.7l-4.9-2.3c-1.6-.8-2.9-2.2-3.5-3.9s-.5-3.6.3-5.2l114.8-242.2c.8-1.6,2.2-2.9,3.9-3.5s3.6-.5,5.2.3l4.9,2.3c3.4,1.6,4.9,5.7,3.2,9.1l-114.8,242.2c-1.2,2.5-3.6,3.9-6.2,3.9ZM675.6,449.4c-.2,0-.4,0-.7.1-.5.2-.9.5-1.1,1l-114.8,242.3c-.2.5-.3,1-.1,1.5.2.5.5.9,1,1.1l4.9,2.3c1,.5,2.2,0,2.6-.9l114.8-242.2c.5-1,0-2.2-.9-2.6l-4.9-2.3c-.3-.2-.6-.3-.8-.3Z"/>
      </g>
      <g>
        <path class="cls-14" d="M682.3,449.7l-4.9-2.3c-2.2-1-4.8-.1-5.9,2.1l-114.7,242.2c-1,2.2-.1,4.8,2.1,5.9l4.9,2.3c2.2,1,4.8.1,5.9-2.1l114.8-242.2c.9-2.2,0-4.8-2.2-5.9Z"/>
        <path class="cls-12" d="M565.6,702.7c-1,0-2-.2-2.9-.7l-4.9-2.3c-1.6-.8-2.9-2.2-3.5-3.9s-.5-3.6.3-5.2l114.8-242.2c.8-1.6,2.2-2.9,3.9-3.5s3.6-.5,5.2.3l4.9,2.3c3.4,1.6,4.9,5.7,3.2,9.1l-114.8,242.2c-1.2,2.5-3.6,3.9-6.2,3.9ZM675.6,449.4c-.2,0-.4,0-.7.1-.5.2-.9.5-1.1,1l-114.8,242.3c-.2.5-.3,1-.1,1.5.2.5.5.9,1,1.1l4.9,2.3c1,.5,2.2,0,2.6-.9l114.8-242.2c.5-1,0-2.2-.9-2.6l-4.9-2.3c-.3-.2-.6-.3-.8-.3Z"/>
      </g>
      <path class="cls-10" d="M682.3,449.7l.8-.1c-2.2-1-4.4.3-5.4,2.5l-114.8,242.2c-1,2.2-6.2,2.2-4,3.3l4.9,2.3c2.2,1,4.8.1,5.9-2.1l114.8-242.2c.9-2.2,0-4.8-2.2-5.9Z"/>
      <g>
        <path class="cls-14" d="M1124,557.1c45.9,0,83,18.9,113,59.6,1.7,2.3,4.4,3.8,7.3,3.8l4.7.4c2.2.1,3.6-2.3,2.5-4.2-30.2-52.9-71.7-80.7-127.6-80.7-21,0-7.1,21.1.1,21.1Z"/>
        <path class="cls-12" d="M1249.2,623.4h-.2l-4.7-.4c-3.6-.1-6.9-1.9-9.1-4.8-29.1-39.4-65.5-58.6-111.1-58.6-6,0-13.6-9.1-13.6-16.3,0-2.9,1.2-5.4,3.5-7,2.3-1.7,5.7-2.6,10.2-2.6,55.7,0,98.1,26.8,129.7,82,.9,1.7.9,3.6-.1,5.3-1.1,1.4-2.8,2.4-4.6,2.4ZM1124,538.4c-3.3,0-5.8.6-7.3,1.7-1,.8-1.5,1.8-1.5,3.2,0,2.2,1.3,5.1,3.4,7.7,2.1,2.5,4.3,3.8,5.4,3.8,47.2,0,84.9,19.8,115,60.6,1.3,1.8,3.3,2.8,5.4,2.9h.1l4.6.4c.1,0,.2-.1.3-.2.1-.2,0-.3,0-.4-30.5-53.7-71.5-79.7-125.4-79.7Z"/>
      </g>
      <path class="cls-10" d="M1124,557.1c45.9,0,83,18.9,113,59.6,1.7,2.3,4.4,3.8,7.3,3.8l4.7.4c2.2.1,3.6-2.3,2.5-4.2-30.2-52.9-71.7-80.7-127.6-80.7-21,0-7.1,21.1.1,21.1Z"/>
      <path class="cls-12" d="M1249.2,623.4h-.2l-4.7-.4c-3.6-.1-6.9-1.9-9.1-4.8-29.1-39.4-65.5-58.6-111.1-58.6-6,0-13.6-9.1-13.6-16.3,0-2.9,1.2-5.4,3.5-7,2.3-1.7,5.7-2.6,10.2-2.6,55.7,0,98.1,26.8,129.7,82,.9,1.7.9,3.6-.1,5.3-1.1,1.4-2.8,2.4-4.6,2.4ZM1124,538.4c-3.3,0-5.8.6-7.3,1.7-1,.8-1.5,1.8-1.5,3.2,0,2.2,1.3,5.1,3.4,7.7,2.1,2.5,4.3,3.8,5.4,3.8,47.2,0,84.9,19.8,115,60.6,1.3,1.8,3.3,2.8,5.4,2.9h.1l4.6.4c.1,0,.2-.1.3-.2.1-.2,0-.3,0-.4-30.5-53.7-71.5-79.7-125.4-79.7Z"/>
      <path class="cls-14" d="M1129.4,701.1c0-8.8-4.4-14-13-15.9-11-2.5-173.1-32.5-173.1-32.5-7.6-1.5-15.2,1.8-19.4,8.3l-6.4,56.1s183.8-.1,195.2-.1c11.4,0,16.7-7.4,16.7-15.9Z"/>
      <path class="cls-10" d="M1129.4,701.1c0-8.8-4.4-14-13-15.9-11-2.5-173.1-32.5-173.1-32.5-7.6-1.5-15.2,1.8-19.4,8.3l-6.4,56.1s183.8-.1,195.2-.1c11.4,0,16.7-7.4,16.7-15.9Z"/>
      <path class="cls-12" d="M1112.7,719.4c-11.3,0-229.1-3.8-231.3-3.8h-2.7l6.7-59.3.3-.5c4.7-7.4,13.3-11,21.9-9.4,8,1.4,198.4,33.9,209.3,36.4,9.9,2.3,14.9,8.4,14.9,18.3,0,12.7-9.6,18.3-19.1,18.3ZM884.1,710.9c25.1.4,218,3.7,228.6,3.7s14.3-7,14.3-13.5c0-7.5-3.5-11.8-11.1-13.6-10.8-2.5-207.1-36-209.1-36.3-6.5-1.3-12.9,1.4-16.6,6.7l-6.1,53Z"/>
      <g>
        <path class="cls-14" d="M648.8,472.3c0-22.5-18.3-40.8-40.8-40.8,0,0-14.3,18.3-14.3,40.8s14.3,40.8,14.3,40.8c22.5,0,40.8-18.3,40.8-40.8Z"/>
        <path class="cls-12" d="M607.9,515.5h-1.2l-.7-.9c-.6-.8-14.8-19.2-14.8-42.3s14.2-41.5,14.8-42.3l.7-.9h1.2c23.8,0,43.2,19.4,43.2,43.2.1,23.8-19.3,43.2-43.2,43.2ZM609.1,433.9c-2.8,4-13.1,19.8-13.1,38.4s10.3,34.4,13.1,38.4c20.6-.6,37.2-17.6,37.2-38.4s-16.5-37.8-37.2-38.4Z"/>
      </g>
      <path class="cls-12" d="M607.9,515.5h-1.2l-.7-.9c-.6-.8-14.8-19.2-14.8-42.3s14.2-41.5,14.8-42.3l.7-.9h1.2c23.8,0,43.2,19.4,43.2,43.2.1,23.8-19.3,43.2-43.2,43.2ZM609.1,433.9c-2.8,4-13.1,19.8-13.1,38.4s10.3,34.4,13.1,38.4c20.6-.6,37.2-17.6,37.2-38.4s-16.5-37.8-37.2-38.4Z"/>
      <path class="cls-12" d="M607.9,515.5c-1.3,0-2.4-1.1-2.4-2.4v-81.6c0-1.3,1.1-2.4,2.4-2.4s2.4,1.1,2.4,2.4v81.6c.1,1.3-1,2.4-2.4,2.4Z"/>
      <path class="cls-14" d="M665.1,400.5c6.1,8.8,8.6,17.6,8.6,17.6-23.7,16.5-32.4,19.1-41.8,5.6-8.4-12.1-5.5-19.8,19.7-37.3,0,0,7.4,5.4,13.5,14.1Z"/>
      <path class="cls-10" d="M665.1,400.5c6.1,8.8,8.6,17.6,8.6,17.6-23.7,16.5-30.4,21.6-39.6,7.9-5-7.5-2-15,23.1-32.5.1,0,1.8-1.7,7.9,7Z"/>
      <path class="cls-12" d="M645,434.8c-5.6,0-10.4-2.9-15.1-9.7-9.7-13.8-5.1-23,20.2-40.7l1.4-1,1.4,1c.3.2,7.8,5.7,14.1,14.7s8.8,17.9,9,18.3l.5,1.7-1.4,1c-12.9,9-22.3,14.7-30.1,14.7ZM651.5,389.4c-24.5,17.4-24.2,23.4-17.6,32.9,7.9,11.3,14.2,10.5,36.9-5.2-1-2.9-3.5-9.1-7.7-15.2-4.3-6.1-9.3-10.5-11.6-12.5Z"/>
      <path class="cls-14" d="M1067.9,508.7l15.9-14,79.5,6.6c10.4,1.3,19.2,8.3,22.8,18.1l14.1,37.9h-160.4l28.1-48.6Z"/>
      <path class="cls-11" d="M1067.9,508.7l12.5-6.7s43.9,4.5,60.8,7.3c22.8,3.9,47,8.2,50.7,18l9,30.5-161-.5,28-48.6Z"/>
      <path class="cls-12" d="M1116,561.2c-4.6,0-9.1,0-13.5-.1-41.6-.4-62.6-1.4-62.8-1.4l-4-.2,30.3-52.4,17-14.9,1,.1c.5,0,50.3,3.4,80.5,10.8,14.7,3.6,24.4,10.6,28.7,20.7,4,9.4,9.2,32,9.4,32.9l.7,2.9-2.9.1c-.6,0-45.2,1.5-84.4,1.5ZM1043.9,555c7.9.3,27.4.9,58.7,1.2,36,.4,82.6-.9,94.6-1.3-1.5-6.5-5.4-22.2-8.5-29.2-3.7-8.6-12.2-14.7-25.4-17.9-27.4-6.8-71.5-10.1-78.7-10.6l-14.9,13.1-25.8,44.7Z"/>
      <g>
        <path class="cls-14" d="M903.4,741.1h-140.9c-14,0-26.2-9.5-29.5-23.1l-17.4-70.5c-2.2-8.8-.3-18.1,5.1-25.4l4.2-5.7s2.5-3.4,5-2.7c2.6.7,1.7,5,1.7,5l-4.5,6.1c-4.6,6.2-6.1,14-4.3,21.5l17.4,70.5c2.8,11.5,13.1,16.9,25,16.9h138.3c8.4,0,17-.3,24.8-3.3,0,0,1.9-8.1,30.8-20.3,28.9-12.2,215.1-97.1,215.1-97.1,8.2-3.2,25.1,34.7,16.9,37.9,0,0-204.4,71.8-223.2,78.4-18.8,6.6-38,8.1-38,8.1-8.5,3.4-17.3,3.7-26.5,3.7Z"/>
        <path class="cls-12" d="M1175.2,612.9c8.5,0,23.8,35,15.9,38.1,0,0-204.4,71.8-223.2,78.4-18.8,6.6-38,8.1-38,8.1-8.5,3.3-17.3,3.6-26.5,3.6h-140.9c-14,0-26.2-9.5-29.5-23.1l-17.4-70.5c-2.2-8.8-.3-18.1,5.1-25.4l4.2-5.7s2-2.8,4.3-2.8c.2,0,.5,0,.7.1,2.6.7,1.7,5,1.7,5l-4.5,6.1c-4.6,6.2-6.1,14-4.3,21.5l17.4,70.5c2.8,11.5,13.1,16.9,25,16.9h138.3c8.4,0,17-.3,24.8-3.3,0,0,1.9-8.1,30.8-20.3s215.1-97.1,215.1-97.1c.3,0,.7-.1,1-.1M1175.2,608h0c-1,0-1.9.2-2.8.5l-.1.1-.1.1c-1.9.8-186.5,85-215,97-22,9.3-29.7,16.7-32.3,20.8-6.8,2.2-14.3,2.4-21.4,2.4h-138.4c-5.1,0-17.3-1.3-20.3-13.2l-17.3-70.5c-1.5-6.1-.2-12.4,3.5-17.4l4.5-6.1.6-.9.2-1c.9-4.2-.4-9.3-5.1-10.7-.7-.2-1.4-.3-2.1-.3-4.5,0-7.6,4-8.2,4.8l-4.2,5.6c-6.3,8.5-8.4,19.2-5.9,29.4l17.4,70.5c3.9,15.8,18,26.8,34.2,26.8h141c8.9,0,18.3-.3,27.6-3.7,3.8-.3,21.2-2.2,38.5-8.3,18.6-6.6,221.1-77.7,223.2-78.4h.2c3.2-1.2,6.6-4.7,4.8-14.3-1.1-6.1-4.2-13.9-7.9-20.4-5-8.5-9.8-12.8-14.6-12.8h0Z"/>
      </g>
      <path class="cls-10" d="M903.4,741.1h-140.9c-14,0-26.2-9.5-29.5-23.1l-17.4-70.5c-2.2-8.8-.3-18.1,5.1-25.4l4.2-5.7s2.5-3.4,5-2.7c2.6.7,1.7,5,1.7,5l-4.5,6.1c-4.6,6.2-6.1,14-4.3,21.5l17.4,70.5c2.8,11.5,13.1,16.9,25,16.9l134.3,2.6c16.7,1.3,27.3-1.3,35.2-4.3,0,0-6.1-2,22.8-14.2s221.9-99.8,221.9-99.8c8.2-3.2,20,29.7,11.8,32.8,0,0-204.4,71.8-223.2,78.4-18.8,6.6-38,8.1-38,8.1-8.6,3.5-17.4,3.8-26.6,3.8Z"/>
      <path class="cls-12" d="M1175.2,612.9c8.5,0,23.8,35,15.9,38.1,0,0-204.4,71.8-223.2,78.4-18.8,6.6-38,8.1-38,8.1-8.5,3.3-17.3,3.6-26.5,3.6h-140.9c-14,0-26.2-9.5-29.5-23.1l-17.4-70.5c-2.2-8.8-.3-18.1,5.1-25.4l4.2-5.7s2-2.8,4.3-2.8c.2,0,.5,0,.7.1,2.6.7,1.7,5,1.7,5l-4.5,6.1c-4.6,6.2-6.1,14-4.3,21.5l17.4,70.5c2.8,11.5,13.1,16.9,25,16.9h138.3c8.4,0,17-.3,24.8-3.3,0,0,1.9-8.1,30.8-20.3s215.1-97.1,215.1-97.1c.3,0,.7-.1,1-.1M1175.2,608h0c-1,0-1.9.2-2.8.5l-.1.1-.1.1c-1.9.8-186.5,85-215,97-22,9.3-29.7,16.7-32.3,20.8-6.8,2.2-14.3,2.4-21.4,2.4h-138.4c-5.1,0-17.3-1.3-20.3-13.2l-17.3-70.5c-1.5-6.1-.2-12.4,3.5-17.4l4.5-6.1.6-.9.2-1c.9-4.2-.4-9.3-5.1-10.7-.7-.2-1.4-.3-2.1-.3-4.5,0-7.6,4-8.2,4.8l-4.2,5.6c-6.3,8.5-8.4,19.2-5.9,29.4l17.4,70.5c3.9,15.8,18,26.8,34.2,26.8h141c8.9,0,18.3-.3,27.6-3.7,3.8-.3,21.2-2.2,38.5-8.3,18.6-6.6,221.1-77.7,223.2-78.4h.2c3.2-1.2,6.6-4.7,4.8-14.3-1.1-6.1-4.2-13.9-7.9-20.4-5-8.5-9.8-12.8-14.6-12.8h0Z"/>
      <path class="cls-12" d="M734.1,387c-.9,0-1.7-.5-2.2-1.3l-12.2-24.4,11-36,11.5-3.1c1.3-.4,2.6.4,3,1.7.4,1.3-.4,2.6-1.7,3l-8.9,2.4-9.7,31.5,11.4,22.7c.6,1.2.1,2.6-1.1,3.2-.4.2-.7.3-1.1.3Z"/>
      <path class="cls-7" d="M628.9,485.4l18.1-3c3-.5,5.3-4.2,5.3-8.7h0c0-4.4-2.3-8.2-5.3-8.7l-18.1-3c-7.4.1-7.4,23.4,0,23.4Z"/>
      <path class="cls-7" d="M628.9,485.4l18.1-3c3-.5,5.3-4.2,5.3-8.7h0c0-4.4-2.3-8.2-5.3-8.7l-18.1-3c-7.4.1-7.4,23.4,0,23.4Z"/>
      <path class="cls-12" d="M629.1,487.9h-.2c-5.5,0-7.9-7.1-7.9-14.1,0-3.4.6-6.6,1.6-9,1.9-4.5,4.8-5.1,6.4-5.1h.4l18.1,3c4.2.7,7.3,5.3,7.3,11s-3.1,10.3-7.3,11l-18.4,3.2ZM628.7,464.5c-.8.1-1.5,1.5-1.8,2.2-.8,1.8-1.2,4.4-1.2,7.1,0,5.5,1.7,9,3,9.2l17.9-3c1.6-.3,3.2-2.8,3.2-6.3s-1.7-6-3.2-6.3l-17.9-2.9Z"/>
      <path class="cls-14" d="M1211.6,545.4l-18.1,3c-3,.5-5.3,4.2-5.3,8.7h0c0,4.4,2.3,8.2,5.3,8.7l18.1,3c7.3,0,7.3-23.4,0-23.4Z"/>
      <path class="cls-11" d="M1211.6,545.4l-18.1,3c-3,.5-5.3,4.2-5.3,8.7h0c0,4.4,2.3,8.2,5.3,8.7l18.1,3c7.3,0,7.3-23.4,0-23.4Z"/>
      <path class="cls-12" d="M1211.6,571.2h-.4l-18.1-3c-4.2-.7-7.3-5.3-7.3-11s3.1-10.3,7.3-11l18.5-3.1c5.5,0,7.9,7.1,7.9,14.1,0,3.4-.6,6.6-1.6,9-1.8,4.3-4.8,5-6.3,5ZM1211.7,547.8l-17.9,3c-1.6.3-3.2,2.8-3.2,6.3s1.7,6,3.2,6.3l17.9,3c.8-.1,1.5-1.5,1.8-2.2.8-1.8,1.2-4.4,1.2-7.1,0-5.6-1.7-9-3-9.3Z"/>
      <g>
        <ellipse class="cls-14" cx="738.8" cy="384.6" rx="11.6" ry="15.5"/>
        <path class="cls-12" d="M738.8,402.5c-7.7,0-14-8-14-17.9s6.3-17.9,14-17.9,14,8,14,17.9-6.3,17.9-14,17.9ZM738.8,371.6c-5.1,0-9.2,5.8-9.2,13s4.1,13,9.2,13,9.2-5.8,9.2-13-4.2-13-9.2-13Z"/>
      </g>
      <g>
        <path class="cls-14" d="M742,393.3c-3.6,0-6.5-3.9-6.5-8.7s2.9-8.7,6.5-8.7h29.5v17.4h-29.5Z"/>
        <path class="cls-12" d="M771.6,395.8h-29.5c-4.9,0-9-5-9-11.1s4-11.1,9-11.1h29.5c1.3,0,2.4,1.1,2.4,2.4v17.4c0,1.3-1.1,2.4-2.4,2.4ZM742,378.3c-2.2,0-4.1,2.9-4.1,6.3s1.9,6.3,4.1,6.3h27.1v-12.6h-27.1Z"/>
      </g>
      <g>
        <ellipse class="cls-14" cx="771.6" cy="384.6" rx="6.5" ry="8.7"/>
        <path class="cls-12" d="M771.6,395.8c-4.9,0-9-5-9-11.1s4-11.1,9-11.1,9,5,9,11.1-4.1,11.1-9,11.1ZM771.6,378.3c-2.2,0-4.1,2.9-4.1,6.3s1.9,6.3,4.1,6.3,4.1-2.9,4.1-6.3-1.9-6.3-4.1-6.3Z"/>
      </g>
      <path class="cls-14" d="M721.1,552.6c66.8,12.8,204.7-.6,204.7-.6-17.6-28.8-32.9-69.3-68.8-83.9-38-15.4-125.3-31.4-152.2,2-26.9,33.5-11.3,77.2,16.3,82.5Z"/>
      <path class="cls-11" d="M866.4,479.7c-33.3-18.7-127.1-32.6-150.7-4.1-21.6,26.1-17.8,62-1.7,75.9,1.5.3,33.4,7.2,99.1,5.9s112.7-5.4,112.7-5.4c-15.7-25.9-30.7-54.8-59.4-72.3Z"/>
      <path class="cls-12" d="M794.3,560.5c-35.6,0-61.2-2.1-76.2-6.2-12.7-3.5-23.1-14.1-27.7-28.4-6-18.7-1.3-40.1,12.5-57.3,9.7-12,27-18.8,51.6-20.3,19.3-1.2,43,1.1,66.8,6.5,1.3.3,2.1,1.6,1.8,2.9s-1.6,2.1-2.9,1.8c-42.5-9.5-94.6-11.4-113.5,12.1-12.8,15.9-17.2,35.6-11.7,52.7,4.1,12.7,13.2,22.2,24.3,25.2,44.7,12.3,178,2.2,202.4.2-2.8-4.8-5.6-9.8-8.5-15.1-13.7-24.9-29.2-53.1-57.2-64.5-4.7-1.9-13.5-5.1-19.5-6.9-1.3-.4-2-1.7-1.6-3s1.7-2,3-1.6c6.2,1.9,15.1,5.1,19.9,7.1,29.6,12,45.5,41,59.6,66.6,3.5,6.4,6.9,12.5,10.4,18.2l2,3.3-3.9.3c-.4,0-39.9,3.5-84.9,5.2-17,.9-32.7,1.2-46.7,1.2Z"/>
      <g>
        <path class="cls-12" d="M920.5,546.7c7.1,12.4,10.4,17.4,26.8,17.4h79.8c18.6,0,60-59.1,59.4-71.3-.6-12.1-31.8,14.6-105.9,14.6-62.7,0-72.2-26.3-85.8-31.3-8.5-3.1-12.6,2.1-12.6,2.1,0,0,30.4,54.6,38.3,68.5Z"/>
        <path class="cls-12" d="M1027.1,566.5h-79.8c-17.5,0-21.5-5.7-28.9-18.6-7.8-13.7-38-67.9-38.3-68.4l-.8-1.4,1-1.3c.2-.3,5.3-6.6,15.3-2.9,3.9,1.4,7.4,4.3,11.4,7.7,11.1,9.3,27.9,23.4,73.5,23.4,42.6,0,70.5-8.8,87.2-14.1,10.4-3.3,15.7-4.9,18.9-2.7,1.4.9,2.1,2.4,2.2,4.4.5,9.6-19.6,39.7-35.7,56.7-10.7,11.4-19.5,17.2-26,17.2ZM922.6,545.5c6.6,11.4,9.3,16.2,24.7,16.2h79.8c5,0,13-5.5,22.6-15.6,8.2-8.6,16.9-19.9,23.9-31,7.9-12.4,10.5-19.7,10.4-22.1,0-.5-.1-.7-.1-.7-1.2-.9-8.3,1.4-14.6,3.4-17,5.3-45.4,14.3-88.7,14.3-47.4,0-65-14.8-76.7-24.5-3.8-3.2-6.9-5.7-10-6.9-4.4-1.6-7.2-.6-8.7.4,5.3,9.1,30.4,54.2,37.4,66.5Z"/>
      </g>
      <path class="cls-12" d="M841.7,693.3c-1.5,0-3-.1-4.5-.3-10.3-1.2-19.5-6.3-26-14.4-11.4-14.4-11.2-35,.6-49.1.9-1,2.4-1.2,3.4-.3s1.2,2.4.3,3.4c-10.3,12.3-10.5,30.4-.5,43,5.7,7.1,13.7,11.6,22.8,12.6,9,1,17.9-1.5,25-7.2,7.1-5.6,11.6-13.7,12.6-22.8,1-9-1.5-17.9-7.2-25-9.4-11.9-25.8-16.1-39.8-10.2-1.2.5-2.7-.1-3.2-1.3s.1-2.7,1.3-3.2c16-6.7,34.7-1.9,45.5,11.7,6.5,8.1,9.4,18.3,8.2,28.6s-6.3,19.5-14.4,26c-6.9,5.5-15.4,8.5-24.1,8.5Z"/>
      <path class="cls-12" d="M841.9,682.3c-15.4,0-27.9-12.5-27.9-27.9s12.5-27.9,27.9-27.9c3.4,0,6.7.6,9.9,1.8,1.3.5,1.9,1.9,1.4,3.1s-1.9,1.9-3.1,1.4c-2.6-1-5.3-1.5-8.2-1.5-12.7,0-23.1,10.4-23.1,23.1s10.4,23.1,23.1,23.1,23.1-10.4,23.1-23.1c0-1.2-.1-2.4-.3-3.6-.2-1.3.7-2.6,2-2.8s2.6.7,2.8,2c.2,1.4.3,2.9.3,4.4,0,15.3-12.5,27.9-27.9,27.9Z"/>
      <path class="cls-12" d="M776.8,668.9c-9.4,0-17.1-7.7-17.1-17.1s7.7-17.1,17.1-17.1,17.1,7.7,17.1,17.1-7.7,17.1-17.1,17.1ZM776.8,639.7c-6.7,0-12.2,5.5-12.2,12.2s5.5,12.2,12.2,12.2,12.2-5.5,12.2-12.2-5.5-12.2-12.2-12.2Z"/>
      <g>
        <path class="cls-14" d="M629.4,569.8l-11.4-5.4c-2.2-1-4.8-.1-5.9,2.1,0,0-57.3,121.3-59.2,124.4s-3.9,11.2,4.7,15c8.8,3.9,13-2.1,15.9-7.3s57.9-123,57.9-123c1.1-2.1.2-4.8-2-5.8Z"/>
        <path class="cls-12" d="M563,709.6c-1.8,0-3.9-.4-6.3-1.5-3.7-1.6-6.1-4.2-7.2-7.5-1.3-4.1-.1-8.5,1.4-11,1.5-2.7,39.3-82.4,59.1-124.2,1.6-3.4,5.7-4.9,9.1-3.2l11.4,5.4c3.4,1.6,4.9,5.7,3.2,9.1-2.2,4.8-55,117.9-57.9,123.1-1.9,3.2-5.6,9.8-12.8,9.8ZM616.1,566.4c-.7,0-1.5.4-1.8,1.1-2.3,5-57.4,121.4-59.2,124.6-.8,1.3-1.8,4.3-.9,7.1.6,1.9,2.2,3.5,4.6,4.5,6.2,2.8,9.3-.1,12.8-6.3,2.3-4,38.8-82.1,57.8-122.8.5-1,.1-2.2-.9-2.7l-11.4-5.4c-.4,0-.7-.1-1-.1Z"/>
      </g>
      <path class="cls-10" d="M629.4,569.8l-4.1-1.1c-2.2-1-4.8-.1-5.9,2.1,0,0-57.3,121.3-59.2,124.4s-3.4,9.4-1.7,10.3c8.6,4.3,12.1-1.7,15-6.9s57.9-123,57.9-123c1.1-2.1.2-4.8-2-5.8Z"/>
      <path class="cls-12" d="M563,709.6c-1.8,0-3.9-.4-6.3-1.5-3.7-1.6-6.1-4.2-7.2-7.5-1.3-4.1-.1-8.5,1.4-11,1.5-2.7,39.3-82.4,59.1-124.2,1.6-3.4,5.7-4.9,9.1-3.2l11.4,5.4c3.4,1.6,4.9,5.7,3.2,9.1-2.2,4.8-55,117.9-57.9,123.1-1.9,3.2-5.6,9.8-12.8,9.8ZM616.1,566.4c-.7,0-1.5.4-1.8,1.1-2.3,5-57.4,121.4-59.2,124.6-.8,1.3-1.8,4.3-.9,7.1.6,1.9,2.2,3.5,4.6,4.5,6.2,2.8,9.3-.1,12.8-6.3,2.3-4,38.8-82.1,57.8-122.8.5-1,.1-2.2-.9-2.7l-11.4-5.4c-.4,0-.7-.1-1-.1Z"/>
    </g>
    <g>
      <path class="cls-14" d="M984.6,766.6c.7-.4,1.2-.8,1.3-1.2.8-3.4,1.4-11.6,2.2-15.1,10.1-40.9,23.9-77.1,21.7-122.9-2.2-43.3,30.4-108.3,17.2-171.5-.1-.5-2.8-2.9-2.4-3.1,1.1-.3,2.3-.7,3.4-1.1h.1c.9-.3,1.7-.6,2.6-.9h0c5.2-1.8,10.5-4,15.8-6.4.1,0,.2-.1.2-.1.8-.4,1.5-.7,2.3-1.1l.6-.3c.7-.3,1.4-.7,2.1-1,.2-.1.5-.2.7-.4.7-.3,1.4-.7,2-1,.3-.1.5-.3.8-.4.7-.3,1.3-.7,2-1,.2-.1.5-.3.7-.4-2.3,5.9-3.3,11.1-1.3,13.9.3.4.9.5,1.3.2l36.9-27.8c.1-.1.2-.2.2-.3,1.1-1.7,11.4-18.4,14.4-27,.2-.6.4-1.2.4-1.8.1-.4.4-.7.8-.8.3,0,.6-.1.9-.2.4-.1.7-.5.7-.9.2-10.4,1.7-47.3-9.7-90.3,0-.1-.1-.2-.1-.3-27.1-38.2-64.8-74.1-64.8-74.1l-36.8-14.9s1.9-2.2,2.1-2.5c9.2-13-4.8-36.6-18.6-42.3-.6-.2-7.6-4.2-7.3-4.8,22.5-44.2-17.6-87.3-63.8-65.6-25,11.7-37,42.4-21.7,62.1.1.1,1.5,9.4,2.7,12,3.4,8.6,8.8,21.5,15.2,25,.4.2,5.8,1.8,6.8,1.9,1.5.3,6.9-.4,7.9-.2.5.1.8.5.8,1,0,1.3-6.4,6.2-6.9,6.2-.3,0-.4,6.5-.4,6.5,0,0-3.9-.4-13.4,6.2s-14.8,7-26.4,20.8c-9.8,11.5-37,117-37,117,0,0-15.2,44.2-21,58-3.6,8.4-7.9,16.5-7.9,16.5,0,0-6.9,1.9-19.1,4.1-9.4,1.6-11.8,3.4-11.8,3.4l57.7,9.4s1.5,0,3.2-5.2,1.3-4.3,1.3-4.3l8.6.4s36.7-78.2,39.5-87.2c.3-.8-.3,6.7.4,8.2-.4,21-15.9,80.3-15.9,80.3,0,0,9.9,4.6,10.4,4.8,1,.4,2.2-3.6,2.2-3.6-20.2,43.9-54.1,304.2-54.1,304.2l4.6,5.3s-.7,13.2-4.6,22.4M879.1,750.7c1-3.3,2.2-11.1,2.2-11.1,0,0,5.2-6.5,10.2-19.5,7.3-19.1,12-42.2,18.6-67.8,10.6-40.9,26.3-89.4,39.5-133.5.3-1,.2-3.9.2-2.9l2.6,234.2-.6,8.1c-.2,1.9,1.5,3.9,1.1,10.4M1068.9,325.7c.2.8.9,3.4,1.9,7.2.2.8-.6,1.4-1.3,1.1-18.9-8.6-41-12-59.7-2.9-.6.3,7.6-2.6,7.6-3.3.4-17.8.9-31,5.3-40.3l-5.1-3.5c19.5,10.8,48.4,38.9,51,41.4.2,0,.3.1.3.3Z"/>
      <path class="cls-14" d="M834.3,784.3c-1.3,0-2.6-.3-3.8-.8-4.9-2.1-7.2-7.8-5.1-12.7,2-4.6,3-11,3.5-15.3l-4.8-5.5.6-4.3c1.3-9.9,29.6-226.5,50.2-293.9-.9-.4-2-.9-3.1-1.5l-7.3-3.4,2-7.8c1-3.9,2.4-9.4,3.9-15.8-4.5,9.6-8.1,17.4-9.9,21.1l-2.8,5.9-7.7-.4c-3.3,7.4-7.9,9.1-11.4,9.1h-.8l-81.3-13.3,18.6-13.6c1.9-1.4,6.3-3.5,15.9-5.2,6.3-1.1,11.1-2.1,14.2-2.9,1.5-3,3.7-7.5,5.6-12,5.3-12.6,19.2-52.8,20.7-57,.9-3.3,7.4-28.2,14.8-54.1,16.6-57.6,21.8-63.8,24.1-66.4,9.5-11.2,15.8-14.9,21.8-18.5,2.2-1.3,4.2-2.5,6.5-4.1,2.8-1.9,5.2-3.4,7.4-4.5-.6-.2-1.1-.4-1.4-.6-9-5-14.8-18-19.5-29.8-1-2.4-1.8-6-2.8-11.7-6.9-10.1-9-22.7-5.9-35.6,4.1-16.9,16.3-31.5,32.6-39.2,25-11.7,51.3-7.9,68.6,10,15.2,15.7,19.4,38.9,11.5,60.7,10.9,5,21,17.4,24.8,30.4,1.8,6.4,2,12.5.6,17.9l28.4,11.5,1.3,1.3c1.6,1.5,38.7,37,66.1,75.5.7,1,1.3,2.2,1.6,3.4,11.1,41.9,10.3,77.5,10.1,90.9v2c-.1,3.2-1.5,6.1-3.9,8-3.7,9.5-12.9,24.5-14.8,27.5-.7,1.1-1.6,2.1-2.7,2.9l-36.9,27.8c-2.3,1.7-5.2,2.5-8,2-2.8-.4-5.4-2-7-4.3-.8-1.1-1.4-2.2-1.8-3.4-3.3,1.4-6.5,2.7-9.6,3.9,6.8,38.6-1.7,76.7-9.3,110.5-4.8,21.5-9.4,41.8-8.6,57.7,1.9,37.6-6.8,69.5-15.2,100.4-2.2,8.2-4.6,16.7-6.7,25.3-.3,1.2-.7,4.2-1,6.7-.4,3.2-.7,6.2-1.3,8.4-.5,1.9-1.9,5.4-6.4,7.6-4.8,2.4-10.6.5-13-4.3-1.7-3.4-1.2-7.3.9-10.2.2-1.2.3-2.6.5-3.9.4-3.4.8-6.6,1.4-9,2.2-8.8,4.5-17.4,6.8-25.8,8.4-30.8,16.3-59.8,14.6-94.3-.9-18.5,3.9-40.1,9-62.9,7.3-32.6,15.5-69.4,8.8-104.8-1.7-2-4-5.3-2.8-9.9l1.4-5.2,5.2-1.6c1.1-.3,2.1-.7,3.2-1h.1c.8-.3,1.6-.5,2.4-.8h.1c4.8-1.7,9.8-3.7,14.9-6.1l.2-.1c.8-.4,1.5-.7,2.2-1.1l.5-.3c.7-.3,1.4-.7,2-1l.7-.3c.6-.3,1.3-.7,1.9-1l.8-.4c.7-.3,1.3-.7,1.9-1l24-12.7-5,12.6,16.1-12.1c3.9-6.4,10.6-18,12.6-23.7v-.1c.3-2,1.1-3.8,2.4-5.2.3-14.1.3-45.3-9.1-81.4-23.4-32.6-54.7-63.6-61.4-70.2l-47.7-19.3,9-10.2s1.1-1.2,1.6-1.9c1.7-2.7.9-6.8.3-9.1-2.5-8.7-9.6-16.3-14.7-18.4-1.4-.6-4.5-2.4-5.1-2.8-3.7-2.2-6.4-4-7.6-7.5l-1.5-4,1.9-3.9c10.3-20.2,4.3-37.3-4.7-46.6-11.4-11.7-29.2-14-46.4-5.9-10.9,5.1-19.4,15.2-22,26.2-1.9,8-.5,15.5,3.9,21.2,1.5,1.9,1.8,3.5,2.2,5.9.8,4.4,1.4,7.2,1.7,8.2l.1.2c5.6,14.2,8.9,18.5,10.4,19.8,1.1.3,2.9.9,3.8,1.1.7,0,1.9-.1,2.8-.2,2.5-.2,4-.3,5.6,0,5.2.9,9,5.5,8.8,10.8-.1,4.8-3.4,7.9-6.7,10.7-.2.1-.3.3-.5.4v1.4l-.2,10.4-9.3-.8c-.9.3-3.5,1.3-8.1,4.5-2.9,2-5.5,3.5-7.7,4.9-5.5,3.2-9.4,5.5-16.8,14.3-5.5,7.1-22.1,63.1-35,113.2l-.2.7c-.6,1.8-15.4,44.7-21.3,58.6-3.3,7.7-7.1,15.1-8.1,17l12.4,2,5.5-11.1,6.9,2.8h.3c14.1-30.2,34.5-74.3,36.2-80l2.5-8,8.3,1.2c4.1.6,8.2,4,8.2,10v4.8l.4.9v2.3c-.4,17.4-9.9,57.6-14.2,74.7,1.5.7,2.5,1.2,2.8,1.3-.2-.1-.3-.1-.4-.2-.9-.3-1.7-.5-2.5-.6-.4,1.7-.8,3.2-1.1,4.4l11.7,4.4c-.5,1.7-1.1,3.2-1.8,4.5-15.4,40.1-39.8,205.9-51.4,294.2l4.3,4.9-.2,3.9c-.1,1.5-.9,15.2-5.4,25.8-1.6,3.7-5.1,5.9-8.9,5.9ZM1065.3,448.6h0ZM785.9,448h0ZM1089.2,417.2c-.1,0-.1.1,0,0h0ZM1102.7,393.9h0ZM901.1,358.9h0ZM918.3,223.3h0ZM915.8,197.8h0c.9-.2,1.5-.2,1.8-.3-.6.1-1.2.2-1.8.3ZM917.8,190.7h0ZM917.3,190.7h0ZM952.9,778.3h-.7c-5.3-.4-9.3-5-8.9-10.4.2-2.6-.1-3.8-.4-5.1-.3-1.3-.8-3.1-.6-5.4,0-.2.5-6,.6-7.6l-1.9-169c-7.8,25.5-15.4,51-21.3,73.9-1.8,7-3.5,13.9-5.1,20.6-4.3,17.5-8.3,34-13.8,48.3-3.9,10.1-7.9,16.6-10.1,19.8-.5,2.8-1.3,7.4-2.1,10.1-1.5,5.1-6.9,8-12.1,6.5-5.1-1.5-8-6.9-6.5-12.1.5-1.8,1.5-6.8,1.9-9.8l.4-2.5,1.6-2s4.4-5.7,8.7-16.9c5.1-13.2,9-29.1,13.1-45.9,1.6-6.7,3.3-13.7,5.2-20.9,7.5-28.9,17.6-61.7,27.3-93.5,4-13.1,8.2-26.7,12-39.6v-.7c0-4.8,2.9-7.9,5.6-9.1l5.7-2.6,4.7,4.1c3.3,2.9,3.6,7,3.4,10l2.6,231.8c0,.6-.4,5.7-.6,7.9h0c.5,1.9,1.4,5.5,1,11.3-.5,5-4.7,8.8-9.7,8.8ZM961.5,759.1h0ZM1069.9,343.8c-1.5,0-3-.3-4.4-1-9.9-4.5-27.9-10.7-45.1-5.5-1.1.5-2.2,1-3.1,1.3-4.5,1.8-5.6,2-6.2,2l-8.2,1.1-4.8-15.8,7.5-3.6c.8-.4,1.5-.7,2.3-1.1.4-16.4,1.5-28.3,6.1-38.1l2.7,1.3,5.6-9.1c20.5,11.3,49.8,39.7,53.1,42.9,1.4,1.3,2.3,3,2.8,4.9l1.9,7.2c1,3.9-.3,8.2-3.4,10.8-1.9,1.8-4.3,2.7-6.8,2.7ZM1061.5,335.4h0ZM1034.4,316c3.5,0,7.1.2,10.8.7-5.3-4.7-11.1-9.5-16.6-13.8-.5,3.9-.9,8.4-1.1,13.4,2.2-.2,4.5-.3,6.9-.3Z"/>
    </g>
    <g>
      <g>
        <path class="cls-14" d="M949.8,829.7c0,3.7,1.2,5.1,22,5.1s23.1-.8,23.1-4.9c0-2.4.5-6-.2-9.2-1-5.1-6.2-27-7.5-33.1-2.5-11.1-2.7-31.9-2.7-38.2-.1-8.9-30.4-2.7-30.4-2.7,0,0-4.3,56.9-4.3,83Z"/>
        <path class="cls-12" d="M971.9,837.2c-19.5,0-24.5-.9-24.5-7.5,0-25.9,4.3-82.6,4.4-83.2l.1-1.8,1.8-.4c4.1-.8,24.6-4.7,31,.5,1.4,1.2,2.2,2.7,2.2,4.5.2,22,1.6,32.7,2.7,37.7.5,2.3,1.6,7,2.8,12.1,1.9,8.4,4.1,17.9,4.8,21,.5,2.6.4,5.3.3,7.6,0,.8-.1,1.5-.1,2.1,0,7.1-5.7,7.4-25.5,7.4ZM956.5,748.7c-.7,10-4.2,57.9-4.2,81q0,1.2,1.4,1.6c2.7.7,8.1,1.1,18.2,1.1,9.3,0,15.7-.1,18.9-.8,1.9-.4,1.9-.6,1.9-1.6,0-.7,0-1.5.1-2.4.1-2,.2-4.3-.2-6.3-.6-3.1-2.8-12.6-4.7-20.9-1.2-5.1-2.3-9.8-2.8-12.1-1.2-5.3-2.6-16.3-2.8-38.7,0-.3-.1-.5-.4-.8-3.4-2.8-16.3-1.7-25.4-.1Z"/>
      </g>
      <path class="cls-12" d="M971.5,823c-20.6,0-23.2-.5-23.2-4.1,0-.8.7-1.5,1.5-1.5s1.5.7,1.5,1.5v.1c1.5,1.1,14.2,1.1,20.3,1.1,8.4,0,20,0,21.4-1v-.1c0-.8.7-1.5,1.5-1.5s1.5.7,1.5,1.5c-.2,3.8-3.2,4-24.5,4ZM951.3,819.1h0Z"/>
      <g>
        <path class="cls-14" d="M871.8,780.8s-1,18.9-7.7,37.6c-12,6.5-36.3,12.7-50.3,12.1-7.8-.4-21.1,1.8-29.6,0-8.7-1.8-10.6-8-9-13.6,20.3-3.8,37.1-13.2,49.2-26.3s13.9-24.4,13.9-24.4l4.5-27.1,35.7,1.9-6.7,39.8Z"/>
        <path class="cls-12" d="M793,833.6c-3.3,0-6.5-.2-9.3-.8-5.7-1.2-8.4-4-9.8-6.2-1.8-2.9-2.2-6.7-1.1-10.5l.4-1.5,1.5-.3c19.1-3.6,35.7-12.4,47.9-25.6,11.4-12.3,13.2-23,13.3-23.1l4.9-29.3,40.6,2.2-7.2,42.4c-.1,1.9-1.4,19.9-7.8,38.1l-.3.9-.8.4c-13.1,7.1-37.7,13-51.5,12.4-2.8-.1-6.4.1-10.2.3-3.5.4-7.1.6-10.6.6ZM777.2,818.9c-.3,2,0,3.8.9,5.2,1.2,2,3.4,3.3,6.6,3.9,5.1,1,12.2.6,18.5.3,4-.2,7.7-.4,10.7-.3,12.7.6,35.7-4.9,48.2-11.4,6.2-17.8,7.2-35.8,7.2-36v-.3l6.3-37.2-30.9-1.7-4.2,25c-.1.5-2,12.2-14.5,25.7-12.4,13.6-29.4,22.8-48.8,26.8ZM864.1,818.4h0Z"/>
      </g>
      <path class="cls-12" d="M797.1,822.6c-7.2,0-14.9-.9-22.6-4.5-.7-.3-1-1.2-.7-1.9s1.2-1,1.9-.7c11.4,5.3,22.8,4.4,32.8,3.6,2.3-.2,4.4-.3,6.4-.4,13.7-.6,39.9-7.8,51.9-14.4.7-.4,1.6-.1,2,.6.4.7.1,1.6-.6,2-12.3,6.7-39.2,14.1-53.2,14.7-2,.1-4.1.2-6.3.4-3.5.3-7.4.6-11.6.6Z"/>
      <g>
        <path class="cls-12" d="M852.5,635.6c4-24.3,17.8-138.5,36.9-188.2,0,0,119.7-41.4,130.8-7.6,22.2,67.3-16.1,140.8-12.3,188.7,3.3,41.7-11.2,76-21.4,118.9-1,4.4-32,4-32-.1l-2.2-238.8c-21.4,50.1-41.1,131.3-41.1,131.3,0,0-12.9,43.5-17.1,60.5-6,24.1-20.3,48.3-20.3,48.3,0,0-32.2,3.1-36.1-1.3-.1.1,7-64.3,14.8-111.7Z"/>
        <path class="cls-12" d="M971.2,752.9c-5.2,0-9.5-.4-9.6-.4-4.8-.6-9.7-1.6-9.7-5.2l-2.1-226.7c-19.3,49.4-36.3,119-36.5,119.8v.1c-.1.4-12.9,43.7-17,60.4-6,24.2-20,48-20.6,49-.4.7-1.1,1.1-1.8,1.2-10,1-33.9,2.7-38.1-2.1-.5-.5-.7-1.2-.6-1.9.1-.6,7.2-65,14.8-111.9l2.4.4-2.4-.4c.7-4.1,1.6-10.8,2.8-19.3,5.9-41.5,18.2-127.8,34.2-169.4.3-.7.8-1.2,1.5-1.4,3.8-1.3,93.3-32,124.1-16.8,5,2.5,8.3,6.1,9.9,10.7,13.9,42.2,4.5,86.5-3.9,125.7-5,23.5-9.7,45.7-8.3,63.6,2.5,31.7-5.2,59.5-13.4,88.9-2.7,9.9-5.6,20-8.1,30.7-1,4.1-10.2,5-17.6,5ZM956.8,746.5c4,2.1,24,2.1,27.3-.1,2.5-10.6,5.3-20.7,8.1-30.5,8-29,15.6-56.4,13.2-87.2-1.5-18.6,3.3-41.2,8.4-65,8.2-38.5,17.5-82.2,4-123.1-1.1-3.4-3.5-6-7.4-7.9-27.2-13.5-109,13.2-119.3,16.6-15.6,41.5-27.7,126.3-33.5,167.3-1.2,8.5-2.2,15.3-2.9,19.4-7,42.8-13.5,100.4-14.6,110.2,3.9,1.5,18.8,1.4,32,.2,2.8-4.9,14.3-25.9,19.4-46.6,4.1-16.6,16.5-58.8,17.1-60.6.6-2.6,20.3-82.5,41.2-131.6.4-1.1,1.6-1.6,2.7-1.4,1.1.2,1.9,1.2,1.9,2.4l2.4,237.9ZM956.9,747.2h0Z"/>
      </g>
      <path class="cls-14" d="M862.4,361.2c8.2-7.2,19.1-24.5,24.7-39.7,4.5,10.3,9.6,21.2,9.6,21.2,0,0,4,40.7-11.2,103.2,75.8,16.1,138.9-3.6,138.9-3.6,0,0-31-112.5-6.7-158.4"/>
      <path class="cls-1" d="M1022.7,287.8c-13.7,43.8,13.3,151.1,13.3,151.1,0,0-109.5,28.3-150.7,3.9,16.2-57,14.9-95.4,12.6-112.1-1.3-9.6-10.3-6.7-10.3-6.7l3.3,28.2-16.7,39.9-23.2,48.1-29.2-8.2,27.2-63.6s17.4-69,31.2-110.4c5.5-16.5,10.3-25.7,12.9-28.3,13.8-11.9,27-17.4,27-17.4,0,0,3.2.3,14.1.3s28.3-6.2,28.3-6.2"/>
      <path class="cls-12" d="M942.1,453.8c-22.2,0-46.7-2.4-66.7-10.1l-1.8-.7.2-1.9c.6-4.8,2.2-11.6,4.3-20.3,2.4-9.7,5.3-21.8,7.7-35.2,3.8-21.4,3.2-53.2-1.1-63.1-.5-1.2,0-2.7,1.3-3.2,1.2-.5,2.7,0,3.2,1.3,4.7,10.8,5.4,43.4,1.4,65.9-2.4,13.5-5.4,25.7-7.8,35.5-1.8,7.4-3.3,13.4-4,17.8,50.5,18.4,128.8,3.6,142.8.7-1-7.1-4-29.8-5.8-56.7-2.9-43.4-1.6-76.1,4-97.2.3-1.3,1.7-2.1,3-1.7,1.3.3,2.1,1.7,1.7,3-13,49.2,2.1,153.1,2.2,154.1l.3,2.2-2.2.5c-.2.1-23.4,5.3-53.2,7.8-8.7.8-18.9,1.3-29.5,1.3Z"/>
      <path class="cls-12" d="M852.3,443.7l-1.8-.3s-16.4-2.8-28.9-4.9c-5.8-1-9.2-2.9-10.2-5.8-.9-2.6.3-4.8,1-5.7l26.1-61.2c1.7-6.3,28.2-106.9,35.7-121.3,5.4-10.4,12.1-14.9,26.6-24,14.3-9,22.3-12.9,22.7-13.1l.3-.1,28.6-6.3c1.3-.3,2.6.5,2.9,1.8.3,1.3-.5,2.6-1.8,2.9l-28,6.2c-1.5.7-9.3,4.7-22,12.7-14.1,8.9-20.1,12.9-24.9,22.1-7.4,14.2-35.1,119.4-35.4,120.5l-.1.3-26.4,62-.2.3c-.1.1-.5.8-.3,1.2.1.2.8,1.7,6.5,2.7,10.1,1.7,22.6,3.8,27.2,4.6,5-10.3,32.4-66.6,38.6-87.7.4-1.3,1.7-2,3-1.6s2,1.7,1.6,3c-6.8,23.5-38.3,87.4-39.7,90.1l-1.1,1.6Z"/>
      <g>
        <g>
          <path class="cls-12" d="M971.8,418.2c0-5,6.7-48.1,6.7-48.1l7.8-7.5,81-.7-10.1,51.5-64.6,19.4-18.8-6.3-2-8.3Z"/>
          <path class="cls-12" d="M992.7,435.3l-20.8-7-2.4-9.8v-.3c0-5,6.1-44.1,6.7-48.5l.1-.8,9.1-8.7,84.9-.8-10.9,55.9-66.7,20ZM975.9,424.5l16.9,5.7,62.4-18.8,9.2-47.2-77.1.7-6.5,6.2c-1.9,12.3-6.4,41.9-6.6,46.7l1.7,6.7Z"/>
        </g>
        <path class="cls-14" d="M995.3,457.5c29.3,0,62.2-16.2,95-38.6,7.7-20.5,13.8-42.2-4.1-75.4-32.3-22.4-86.4-33.2-107.7,26.5l65-.5c4.3,0,7.6,3.8,7,8l-.4,17.6c-.9,6.2-7.2,19-12.9,21.6-6.6,3-15.5,5.3-31.6,9-21.9,5-33.9-2.5-33.9-7.5.1,26.8,23.6,39.3,23.6,39.3Z"/>
        <path class="cls-13" d="M1039.7,331.2c-20.5,1.7-39.7,8.5-50.5,38.7l54.4-.4c4.3,0,7.6,3.8,7,8l-.4,18.2c-.9,6.2-7.2,17.7-12.9,20.3-6.6,3-13.2,4.7-29.3,8.4-9,2.1-19.9,1.6-25.1,1.3,2.6,19.9,18,28.8,22.1,31.3,26.8-3,56.1-18.1,85.4-38.1,7.7-20.5,13.8-42.2-4.1-75.4-13.2-9.1-30-13.3-46.6-12.3Z"/>
        <path class="cls-12" d="M995.3,460h-.6l-.5-.3c-1-.5-24.8-13.5-24.8-41.5h4.8c0,.2.2.7,1.1,1.4,3.6,2.9,15.2,5.7,32.1,1.8,14.6-3.4,21.4-6.4,27.3-9.1l1.5-.7c4.7-2.1,8.4-9.4,9.2-15l2.7-19.4c.2-1.3-.2-2.7-1.1-3.7s-2.1-1.5-3.5-1.6l-68.5.5,1.2-3.3c8.1-22.8,21.5-37.3,39.6-43.2,24.9-8,53.4,2.8,71.7,15.5l.5.3.3.5c18.1,33.5,12.3,55.7,4.2,77.4l-.3.7-.6.4c-38.3,26.5-69.8,39.3-96.3,39.3ZM974.8,424.9c3.1,18.6,18.2,28.4,21.2,30.2,25.2-.2,55.4-12.6,92.3-37.8,7.8-21,12.6-41.1-4-72.2-17.4-11.9-44-21.9-67-14.5-15.8,5.1-27.7,17.5-35.3,36.9l61.5-.5c2.7-.1,5.4,1.2,7.2,3.2s2.6,4.8,2.3,7.5l-2.7,19.4c-1,6.9-5.5,15.8-12,18.7l-1.5.7c-6.2,2.8-13.2,6-28.3,9.5-15.3,3.6-27.3,2.2-33.7-1.1Z"/>
        <g>
          <path class="cls-8" d="M1045,365.8c-15.5.3-65.7,1.2-65.7,1.2-1.8,0-3.3,1.2-3.8,2.9-3.4,11.8-7.4,37.9-7.4,47.5,0,6.9,1.7,9.5,24.1,9.5,14.4,0,30.2-4.3,43.5-9.3,0,0,8.4-3.6,10.9-10,2.6-6.4,3.9-20,4.8-27,1-7.1.7-15-6.4-14.8Z"/>
          <path class="cls-12" d="M992.1,429.3c-21.5,0-26.5-2.2-26.5-11.9s4.2-36.4,7.5-48.1c.8-2.7,3.2-4.6,6.1-4.7.5,0,50.4-.9,65.7-1.2,3.4-.1,5.5,1.4,6.6,2.6,2.5,2.8,3.3,7.7,2.3,14.9-.2,1.3-.4,2.7-.6,4.3-.9,7.5-2.2,17.7-4.4,23.3-2.9,7.3-11.9,11.2-12.2,11.3h-.1c-16.9,6.4-31.8,9.5-44.4,9.5ZM1045.1,368.2c-15.3.3-65.2,1.2-65.7,1.2-.7,0-1.3.5-1.5,1.2-3.3,11.4-7.4,37.2-7.4,46.8,0,4.7,0,7.1,21.7,7.1,12,0,26.3-3.1,42.6-9.1.6-.3,7.5-3.5,9.6-8.7,2-5,3.2-14.9,4.1-22.1.2-1.6.4-3.1.6-4.4,1-7-.1-9.9-1.1-11-.5-.4-1.2-1-2.9-1h0ZM1045,365.8h0Z"/>
        </g>
        <path class="cls-12" d="M1035.7,420.1c-1,0-1.9-.6-2.3-1.6-.5-1.3.2-2.6,1.4-3.1,10.4-3.8,19.2-8,24.8-10.8,2.9-1.5,5.1-4,6.2-7l5.8-24.5-3.8-5.2-21.1.4c-1.3,0-2.4-1-2.5-2.4,0-1.3,1-2.4,2.4-2.5l23.6-.4,6.7,9-6.5,27c-1.5,4.3-4.6,7.8-8.6,9.8-5.7,2.9-14.7,7.1-25.3,11.1-.3.1-.5.2-.8.2Z"/>
        <g>
          <ellipse class="cls-12" cx="1068.98" cy="373.23" rx="7.4" ry="8.6" transform="translate(-46.44 178.67) rotate(-9.35)"/>
          <path class="cls-12" d="M1069.4,384.2c-4.8,0-9.1-3.9-10-9.4-1-6,2.5-11.6,7.9-12.5,5.3-.9,10.5,3.3,11.4,9.3h0c1,6-2.5,11.6-7.9,12.5-.5,0-1,.1-1.4.1ZM1068.6,367.1c-.2,0-.4,0-.7.1-2.7.4-4.4,3.5-3.9,6.9.6,3.4,3.2,5.7,5.9,5.3,2.7-.4,4.4-3.5,3.9-6.9-.4-3.2-2.7-5.4-5.2-5.4Z"/>
        </g>
      </g>
      <g>
        <path class="cls-14" d="M1091.2,389.1c-11.3,2.4-20.4,7.6-26.9,11.5-4.5,2.7-8.4,4.8-8.4,4.8,0,0,.9,8.5,7.3,6.7,6.4-1.8,12.4-3.5,12.4-3.5,0,0-27,36.8-18.3,44.7l37.8-28.4s11.3-18.1,14.4-27.1c3.2-9.1-6.9-11.1-18.3-8.7Z"/>
        <path class="cls-12" d="M1057.2,456.4l-1.5-1.4c-4.6-4.2-2.8-13.5,5.4-28.3,3-5.3,6.2-10.4,8.6-14-1.8.5-3.8,1.1-5.8,1.6-2.9.8-5,0-6.2-.9-3.5-2.4-4.1-7.4-4.1-7.9l-.2-1.6,1.4-.8s3.9-2.1,8.3-4.8c7.9-4.7,16.8-9.5,27.7-11.8,4.4-.9,15.2-2.6,19.9,2.7,1.4,1.6,2.8,4.5,1.2,9.1-3.2,9.2-14.2,26.9-14.7,27.6l-.2.4-39.8,30.1ZM1081.8,404.2l-4.2,5.8c-11,15.1-20.7,33.2-19.5,39.7l35.2-26.5c1.6-2.6,11.2-18.3,14-26.3,1-2.9,0-3.9-.3-4.3-2-2.3-8.1-2.7-15.3-1.2-11.6,2.5-21.1,8.2-26.2,11.2-2.8,1.7-5.3,3.1-6.9,4,.3,1.1.9,2.3,1.7,2.9.4.2,1,.5,2.2.2,6.3-1.7,12.3-3.5,12.3-3.5l7-2ZM1095.1,424.9h0Z"/>
      </g>
      <path class="cls-12" d="M1059.4,452.7c-.3,0-.7-.1-1-.4-.6-.5-.7-1.4-.1-2l24.6-28.4c.5-.6,1.4-.7,2-.1s.7,1.4.1,2l-24.5,28.3c-.3.4-.7.6-1.1.6Z"/>
      <path class="cls-14" d="M1012.4,281.3c19.9,8.2,56.4,44.1,56.4,44.1,0,0,14,53,16.8,63.1,7.4,6.6,22.1,7.8,26.7,6.2.1-9.4,2-47-9.7-91.2-28.1-39.5-91.1-65.1-91.1-65.1-15.8-6.2-33.7-29.5-33.7-29.5-3.2-12.9-16.3-15.4-16.3-15.4l-35.4,3.2"/>
      <path class="cls-1" d="M1012.4,281.3c19.9,8.2,56.4,44.1,56.4,44.1,0,0,14,53,16.8,63.1,7.4,6.6,22.1,7.8,26.7,6.2.1-9.4,2-47-9.7-91.2-28.2-39.7-65.4-74.3-65.4-74.3-15.8-6.2-59.5-20.5-59.5-20.5-3.2-12.9-16.3-15.4-16.3-15.4l-35.4,3.2"/>
      <path class="cls-12" d="M1107.2,397.8c-7.1,0-17.3-2.2-23.2-7.4l-.5-.5-.2-.7c-2.6-9.4-15-56.4-16.6-62.5-4.3-4.2-37.1-35.8-55.2-43.1-1.2-.5-1.8-1.9-1.3-3.2.5-1.2,1.9-1.8,3.2-1.3,20.1,8.2,55.7,43.2,57.2,44.6l.5.5.2.6c.1.5,13.5,50.8,16.6,62.4,6,4.9,17.1,6.3,22.2,5.6.2-26.2-1.5-75.8-9.4-87.9-8-12.3-23.9-28.5-35.6-40.3-2.8-2.8-5.4-5.5-7.6-7.8-4.6-4.8-8.2-9.1-11.4-12.9-5-6-8.7-10.3-12.8-12.4-14.3-7.1-55.7-20.2-56.1-20.3l-1.3-.4-.3-1.3c-2.6-10.3-12.2-13.1-14.1-13.6l-35,3.2c-1.3.1-2.5-.9-2.6-2.2s.9-2.5,2.2-2.6l35.7-3.3.3.1c.6.1,13.7,2.8,17.8,15.9,7.2,2.3,42.2,13.6,55.6,20.2,5.1,2.5,9,7.2,14.4,13.6,3.1,3.7,6.7,7.9,11.2,12.6,2.2,2.3,4.8,4.9,7.6,7.8,11.8,12,27.9,28.4,36.2,41.1,10.7,16.5,10.2,84.8,10.1,92.5v1.7l-1.6.6c-1.6.5-3.7.7-6.2.7Z"/>
      <path class="cls-12" d="M952.2,510.9c-1.2,0-2.2-.9-2.4-2.1-2.9-19-4.8-28.8-4.8-28.9-.3-1.3.6-2.6,1.9-2.8,1.3-.2,2.6.6,2.8,1.9,0,.1,1.9,9.9,4.8,29,.2,1.3-.7,2.6-2,2.8-.1.1-.2.1-.3.1Z"/>
      <path class="cls-12" d="M887.1,324c-1,0-1.9-.6-2.3-1.5-7.8-20.2-1.4-40.4,5.4-61.9l.9-2.7c.4-1.3,1.8-2,3-1.6,1.3.4,2,1.8,1.6,3l-.9,2.7c-6.8,21.5-12.6,40.1-5.5,58.6.5,1.2-.1,2.6-1.4,3.1-.2.2-.5.3-.8.3Z"/>
      <g>
        <g>
          <path class="cls-12" d="M911.3,101.3c-30.8,16-35.4,59.6-3.1,73.7,36.5,16,42.8,22.8,42.8,22.8,0,0,24.2-7,28.8,10.6,7.9.7,14.7,1.4,22.8,4,10.1-13-6.6-43.2-27.1-44.9,23.9-44.4-15.8-91.4-64.2-66.2Z"/>
          <path class="cls-12" d="M1003.5,215.3l-1.6-.5c-8-2.7-15-3.3-22.3-3.9l-1.7-.2-.4-1.6c-1-3.6-2.9-6.2-5.9-7.9-7.8-4.4-19.8-1-19.9-1l-1.4.4-1-1.1s-7-7-42-22.3c-14.5-6.3-23.1-18.8-23.6-34.3-.6-17.9,9.8-35.1,26.6-43.8h0c22.3-11.6,45.7-9.2,60.9,6.3,15.2,15.4,18.2,38.8,8,60.3,11.8,2.6,21.3,13.3,25.8,23.5,4.3,9.7,4.1,19-.4,24.8l-1.1,1.3ZM981.6,206.2c6.5.6,12.8,1.3,20,3.4,2.5-4.5,2.1-11.2-1.1-18.5-4.2-9.5-13.9-20.2-25.2-21.1l-3.7-.3,1.7-3.2c11-20.4,8.7-43-5.7-57.6-13.7-13.9-34.9-16-55.3-5.4-15.1,7.9-24.5,23.3-24,39.4.5,13.5,8,24.4,20.7,30,29.2,12.8,39.4,19.9,42.5,22.4,3.7-.9,14.4-2.8,22.3,1.7,3.8,2,6.4,5.1,7.8,9.2Z"/>
        </g>
        <path class="cls-14" d="M918.8,199.8c-1.6-.4-8.3-1.1-9.6-2.1-6.4-5.2-14.1-22.7-16.2-31.4s2.8-16.6,2.8-16.6l-.7-10.3s.8-5.6,2.6-10.9c2-6,5-14,12.1-19.7,3.5,6.3,21.6,38.1,46.8,50.1,2.3,1.1,1.6-4.3,3.9-7.1,1.9-2.4,6-2.8,7.1,1.9s-3,16.1-3,16.1l-3.9,2.3s3.3,6.5,4.3,13.8,8.5,14,8.5,14c0,0-12.8,9-16.1,12.6-5.3,5.9-19.6,20.2-19.6,20.2l-1.7-2.3-5.8-.3-14.2-7.1,2.7-23.2Z"/>
        <path class="cls-12" d="M905.3,149.4c.1,1.7-.8,3.2-1.9,3.2s-2-1.3-2.1-3.1c-.1-1.7.8-3.2,1.9-3.2,1.1,0,2,1.4,2.1,3.1"/>
        <path class="cls-12" d="M927.7,147.5c.2,1.7-.7,3.2-1.9,3.3s-2.3-1.1-2.5-2.8.7-3.2,1.9-3.3c1.2-.1,2.3,1.1,2.5,2.8"/>
        <path class="cls-12" d="M920.8,201.2c-7.6,0-14-2.6-16.6-6.2-9.6-13.6-11.3-19.7-13.6-28.1-2.1-7.7.9-15,2.2-17.6l-2.2-7.4c-.1-.5-2.9-11,3.6-26.3.5-1.2,1.9-1.8,3.2-1.3,1.2.5,1.8,1.9,1.3,3.2-5.9,13.8-3.5,23-3.4,23.1l2.8,9.2-.5.9c0,.1-4.2,7.5-2.2,14.9,2.2,8.2,3.7,13.7,12.8,26.6.9,1.3,3.5,3,8,3.8s9.5.4,14.1-1.2c4.6-1.5,12.6-6.5,15.2-9.1.9-.9,2.5-.9,3.4,0s.9,2.5,0,3.4c-3.3,3.3-12.1,8.6-17,10.2-3.8,1.3-7.6,1.9-11.1,1.9Z"/>
        <path class="cls-12" d="M926.2,224.6c-.2,0-.5,0-.7-.1-1.3-.4-2-1.8-1.6-3,1-3-.2-11.7-2.9-22.1-.3-1.3.4-2.6,1.7-3,1.3-.3,2.6.4,3,1.7,1.8,6.9,4.6,19.4,2.9,24.9-.4,1-1.4,1.6-2.4,1.6Z"/>
        <path class="cls-12" d="M906.6,149.4c-.3,0-.5-.1-.7-.3-1.2-1-2.4-1.5-3.2-1.3-.3,0-.6.2-1,.8-.3.6-1,.8-1.6.5s-.8-1-.5-1.6c.6-1.1,1.5-1.7,2.6-1.9,1.5-.3,3.3.3,5.1,1.8.5.4.6,1.1.2,1.6-.3.3-.6.4-.9.4Z"/>
        <path class="cls-12" d="M930.1,148.5c-.5,0-1-.3-1.1-.9-.2-.3-1.6-1.4-3.3-1.5q-1.1-.1-1.5,1l-.2.5c-.2.6-.9.9-1.5.6-.6-.2-.9-.9-.6-1.5l.2-.4c.6-1.6,1.3-2.7,3.9-2.5,2.4.2,5,1.8,5.4,3.2.2.6-.2,1.3-.8,1.4-.3.1-.4.1-.5.1Z"/>
        <path class="cls-12" d="M935.9,142.2c-.3,0-.6-.1-.9-.3-3.8-2.7-11.2-3.2-18.5-1-.8.2-1.6-.2-1.8-1s.2-1.6,1-1.8c6.2-1.8,15.5-2.5,21,1.5.6.5.8,1.4.3,2-.3.4-.7.6-1.1.6Z"/>
        <path class="cls-12" d="M890.5,145.4c-.2,0-.5-.1-.7-.2-.7-.4-1-1.2-.6-2,2.2-4.2,10.7-5.6,15.2-3.4.7.3,1,1.2.7,1.9s-1.2,1-1.9.7c-3.7-1.7-10.3-.1-11.4,2.1-.3.6-.8.9-1.3.9Z"/>
        <path class="cls-12" d="M908.1,170.1c-3.8,0-5.6-1.3-6.6-2.6-1.1-1.5-1.3-3.6-.5-5.5.5-1.2,1.4-2.6,2.3-4.2,1-1.8,2.1-3.7,2.7-5,1.6-4.1,1.4-5.7.3-7.9-.4-.7-.1-1.6.6-2,.7-.4,1.6-.1,2,.6,1.7,3.3,1.7,5.8-.2,10.4-.6,1.5-1.7,3.5-2.8,5.4-.9,1.5-1.7,2.9-2.2,3.9-.4.9-.4,1.8.1,2.5.9,1.3,3.4,1.7,6.7,1.2.8-.1,1.5.4,1.6,1.2s-.4,1.5-1.2,1.6c-1,.3-2,.4-2.8.4Z"/>
        <path class="cls-12" d="M913.2,181.4c-.9,0-1.8,0-2.7-.1-.8-.1-1.4-.8-1.3-1.6s.8-1.4,1.6-1.3c3.4.4,7.1-.1,10.3-1.2,2.3-.8,3.7-2.1,4.5-3.1-1.2.1-2.3.3-3.3.4-7,.8-11.6,1.3-16.2.7-.8-.1-1.4-.8-1.3-1.6.1-.8.8-1.4,1.6-1.3,4.3.5,8.8,0,15.6-.7,1.8-.2,3.8-.4,6-.7l1.9-.2-.3,1.9c0,.2-1,5-7.4,7.3-2.9,1-6,1.5-9,1.5Z"/>
        <path class="cls-12" d="M916,186.4c-.7,0-1.3-.5-1.4-1.2-.1-.8.4-1.5,1.2-1.6l.5-.1c.9-.1,1.6-.2,2.8-.7.7-.3,1.6.1,1.9.8.3.7-.1,1.6-.8,1.9-1.6.6-2.6.8-3.5.9l-.4.1q-.2-.1-.3-.1Z"/>
      </g>
      <path class="cls-12" d="M1072.9,328.9c-1.7,0-3.4-.4-5.1-1.3l-.9-.5-.3-1c-1.5-4.8,1-8.9,4.2-10.4,3-1.4,6.3-.6,8.1,2.1,2.5,3.6,1.6,6.8.1,8.6-1.6,1.7-3.7,2.5-6.1,2.5ZM1070.9,323.7c1.9.6,3.6.3,4.3-.5s0-2.1-.4-2.7c-.5-.7-1.1-.8-2-.4-1.1.5-2,1.8-1.9,3.6Z"/>
      <g>
        <path class="cls-12" d="M936.8,452.3h-.2c-1.3-.1-2.3-1.2-2.3-2.6,0-.6,3.7-60.4,2.2-84.4-.5-8.4-1.1-16.3-1.7-23.9-1.2-14.6-2.2-27.3-1.8-37.8.8-24,6.7-50.2,18.5-82.5.5-1.3,1.8-1.9,3.1-1.4s1.9,1.8,1.4,3.1c-11.6,31.9-17.4,57.6-18.2,81-.4,10.3.6,22.8,1.8,37.3.6,7.7,1.2,15.6,1.7,24,1.4,24.3-2.1,82.6-2.2,85,.1,1.2-1,2.2-2.3,2.2Z"/>
        <path class="cls-12" d="M914.6,452.6h-.2c-1.3-.1-2.3-1.2-2.3-2.6,0-.6,3.7-60.4,2.2-84.4-.5-8.4-1.1-16.3-1.7-23.9-1.2-14.6-2.2-27.3-1.8-37.8.7-20.3,6.8-46.4,19.1-82.2.4-1.3,1.8-1.9,3.1-1.5s1.9,1.8,1.5,3.1c-12.2,35.3-18.2,61-18.9,80.8-.4,10.3.6,22.8,1.8,37.3.6,7.7,1.2,15.6,1.7,24,1.4,24.3-2.1,82.6-2.2,85,.1,1.2-1,2.2-2.3,2.2Z"/>
        <path class="cls-12" d="M941.3,225.3c-1.2,0-1.9-.1-2-.1-1.3-.2-2.2-1.5-2-2.8s1.5-2.2,2.8-2c.3,0,8.4,1.2,15.4-7.6,5.8-7.2,10.1-11.5,12.4-13.5-1.3-2.2-3.5-6.1-5.4-11.6-2.9-8.4-4.6-14.5-4.7-14.8l-.7-2.7,12.4-1.7c1.3-.2,2.5.8,2.7,2.1s-.8,2.5-2.1,2.7l-6.9.9c.8,2.6,2.1,6.9,3.8,11.8,2.7,7.8,5.9,12.2,5.9,12.2l1.4,1.9-1.9,1.4s-5.2,4-13.3,14.1c-6.5,8.7-14.2,9.7-17.8,9.7Z"/>
        <path class="cls-14" d="M981.9,204.5l-8.4-16.4s-6.8,6.8-22.9,14.7c-6.9,3.4-25.1,6-25.1,6l-1.3-4.2c-3.5.2-5.8,3.1-5.8,3.1l-2.3,15.6s5.2,5.8,18,7.1c22.5,2.3,30.9-4.5,39.9-11.6,9.2-7.2,7.9-14.3,7.9-14.3Z"/>
        <path class="cls-1" d="M981.9,204.5l-8.4-16.4s-6.8,6.8-22.9,14.7c-6.9,3.4-25.1,6-25.1,6l4.5-2.3c-3.5.2-5.8,3.1-5.8,3.1l-2.3,15.6s-.6,3.9,12.2,5.2c22.5,2.3,30.9-4.5,39.9-11.6,9.2-7.2,7.9-14.3,7.9-14.3Z"/>
        <path class="cls-12" d="M945.5,233.6c-3.6,0-7.5-.3-11.6-1-13.3-2.3-19-7.5-19.3-7.7l-.9-.9,2.5-17.5.4-.5c.3-.4,3.1-3.7,7.6-4l1.9-.1,1.2,4c4.9-.8,17.2-2.9,22.4-5.4,15.6-7.6,22.1-14.1,22.2-14.2l2.4-2.4,10,19.7.1.3c.1.3,1.4,8.6-8.6,16.5-1.5,1.2-3.6,1.9-5.2,2.3l1.1,5.6-1.8.8c-.7.4-10.5,4.5-24.4,4.5ZM918.8,222.1c1.9,1.3,7,4.2,15.8,5.8,14.6,2.5,26.9-.9,31.4-2.4l-1.2-6.7,2.6-.3c1-.1,3.8-.7,5.3-1.8,6.7-5.3,6.9-10.4,6.9-11.6l-6.8-13.3c-3.3,2.7-10,7.6-21.1,13-7.2,3.5-25.1,6.1-25.8,6.2l-2,.3-1.2-4c-.8.4-1.5.9-1.9,1.3l-2,13.5Z"/>
      </g>
    </g>
    <path class="cls-12" d="M998.3,427.8c-.8,0-1.4-.6-1.4-1.4s.6-1.5,1.4-1.5c6.2-.3,30.1-5.2,37.7-9.5,10.7-6,11.7-11,12.8-17.3.7-3.8,2.2-15.5,2.9-22.1.5-5.4-4.8-7.1-5.1-7.2-.8-.2-1.2-1-1-1.8s1-1.2,1.8-1c2.7.8,7.8,3.9,7.2,10.2-.6,6.7-2.2,18.5-2.9,22.3-1.4,7.9-3.1,13.1-14.2,19.4-8.2,4.6-32.5,9.5-39.2,9.9.1,0,0,0,0,0Z"/>
    <g>
      <path class="cls-14" d="M845.4,477.8s4.8-7.6-4.5-14.5c-5.7-4.2-9.7-7.4-9.7-7.4l-42.8-10.9s-10.3,18.4,0,27.4c5,4.4,7.2,17.3,17.7,24.5,9.4,6.4,16.7,2.8,16.7,2.8,0,0,2.6,2.1,9.2,0,4.1-1.3,4.9-3.9,4.9-3.9,0,0,5.2-1.5,8.8-4.5s4.7-6.7,4.7-6.7c0,0-4.8-6.9-9-10.3-5.6-4.5-10.9-9.2-10.9-9.2"/>
      <path class="cls-12" d="M817.4,503.1c-3.4,0-7.8-.9-12.7-4.2-6.9-4.7-10.4-11.7-13.3-17.2-1.6-3.2-3.1-6-4.7-7.4-11.6-10.2-1-29.6-.5-30.4l.9-1.6,45.1,11.5.4.3s4,3.2,9.6,7.3c7.7,5.7,7.4,12.4,5.9,16.2,2.4,2.8,4.2,5.4,4.3,5.6l.7,1-.3,1.1c-.1.2-1.3,4.4-5.5,7.8-3,2.5-6.9,4-8.7,4.6-.8,1.2-2.5,3.1-5.9,4.2-5.2,1.6-8.4,1-10.1.3-1,.5-2.9.9-5.2.9ZM789.7,447.8c-2.1,4.4-6.8,16.5.3,22.7,2.3,2,3.9,5.2,5.8,8.9,2.7,5.4,5.8,11.4,11.7,15.4,8.2,5.6,14.2,2.7,14.3,2.6l1.6-.8,1,1c.4.2,2.4,1.1,7-.4,2.7-.9,3.4-2.3,3.4-2.4l.3-1.3,1.2-.1s4.7-1.4,7.9-4.1c1.9-1.6,3-3.4,3.5-4.5-1.5-2-4.8-6.3-7.8-8.7-5.6-4.5-11-9.2-11-9.3-1-.9-1.1-2.4-.2-3.4.9-1,2.4-1.1,3.4-.2.1,0,5.4,4.7,10.9,9.2.4.3.8.7,1.2,1,.1-2.2-.8-5.1-4.8-8.1-4.6-3.4-8.2-6.2-9.3-7.1l-40.4-10.4Z"/>
    </g>
    <path class="cls-4" d="M845.8,475.2s4.8-4.9-4.5-11.8c-5.7-4.2-10.9-7.7-10.9-7.7l-36-11.3s-10.3,18.4,0,27.4c5,4.4,7.2,17.3,17.7,24.5,9.4,6.4,14.5,3.7,14.5,3.7,0,0,.8,1,7.5-1.1,4.1-1.3,4.9-3.9,4.9-3.9,0,0,4.9-1.9,8.6-4.9,3.6-3,1.9-7.1,1.9-7.1,0,0-2.2-4.1-6.4-7.5-5.6-4.5-10.1-8.8-10.1-8.8"/>
    <path class="cls-12" d="M817.4,503.1c-3.4,0-7.8-.9-12.7-4.2-6.9-4.7-10.4-11.7-13.3-17.2-1.6-3.2-3.1-6-4.7-7.4-11.6-10.2-1-29.6-.5-30.4l.9-1.6,45.1,11.5.4.3s4,3.2,9.6,7.3c7.7,5.7,7.4,12.4,5.9,16.2,2.4,2.8,4.2,5.4,4.3,5.6l.7,1-.3,1.1c-.1.2-1.3,4.4-5.5,7.8-3,2.5-6.9,4-8.7,4.6-.8,1.2-2.5,3.1-5.9,4.2-5.2,1.6-8.4,1-10.1.3-1,.5-2.9.9-5.2.9ZM789.7,447.8c-2.1,4.4-6.8,16.5.3,22.7,2.3,2,3.9,5.2,5.8,8.9,2.7,5.4,5.8,11.4,11.7,15.4,8.2,5.6,14.2,2.7,14.3,2.6l1.6-.8,1,1c.4.2,2.4,1.1,7-.4,2.7-.9,3.4-2.3,3.4-2.4l.3-1.3,1.2-.1s4.7-1.4,7.9-4.1c1.9-1.6,3-3.4,3.5-4.5-1.5-2-4.8-6.3-7.8-8.7-5.6-4.5-11-9.2-11-9.3-1-.9-1.1-2.4-.2-3.4.9-1,2.4-1.1,3.4-.2.1,0,5.4,4.7,10.9,9.2.4.3.8.7,1.2,1,.1-2.2-.8-5.1-4.8-8.1-4.6-3.4-8.2-6.2-9.3-7.1l-40.4-10.4Z"/>
    <g>
      <path class="cls-14" d="M809.6,447.7s-3.3,3.7-6.3,5.6c-5.8,3.9-13,7.7-10.3,10,4,3.4,12.3,1.8,20.3-2.9,8.5-5,12-2.5,17.1-3.9,5-1.3,7-6.1,10-12.3,2.7-5.5,2.4-4.5,2.4-4.5,0,0-10.7-2.5-18.1-4.9-7.4-2.4-11.2-5.6-11.2-5.6,0,0-1.9,2.3-5.2,3.5-3.2,1.3-5.2,2.9-17.1,4.8-10.3,1.7-18.4,12.9-18.4,12.9,0,0,4.8.3,12.6.6,1.7-1.7,5-2.9,8.6-2.8,7.5.2,12.5,2.1,12.5,2.1"/>
      <path class="cls-12" d="M799,467.6c-3,0-5.6-.8-7.5-2.4-1-.8-1.5-2-1.4-3.2.2-2.9,3.4-5.1,9.1-8.8.8-.5,1.6-1,2.4-1.6-2-.4-4.6-.8-7.6-.9-3.1-.1-5.7,1-6.8,2.1l-.7.7h-1c-7.7-.3-12.6-.6-12.6-.6l-4.4-.3,2.6-3.5c.4-.5,8.8-12,19.9-13.9,9.5-1.5,12.3-2.8,14.8-3.9.6-.3,1.1-.5,1.8-.8,2.6-1,4.2-2.9,4.2-2.9l1.6-1.8,1.8,1.6s3.6,3,10.4,5.2c6.2,2,14.8,4.1,17.2,4.7.3,0,.6.1,1,.2l2.1.9-1.4,4.3-.4-.1c-.3.6-.8,1.5-1.4,2.8l-.7,1.4c-2.8,5.7-5.2,10.7-10.9,12.2-2,.5-3.8.6-5.4.6-3.1,0-5.9.1-11,3-5.8,3.3-11.3,5-15.7,5ZM795.3,462c3.3,1.8,10,.4,16.8-3.6,6.2-3.6,10.2-3.7,13.4-3.7,1.5,0,2.8,0,4.3-.4,3.4-.9,5-3.9,7.8-9.6l.7-1.5c.3-.7.6-1.3.9-1.8-3.7-.9-10.2-2.6-15.2-4.2-4.9-1.6-8.4-3.6-10.3-4.8-1,.9-2.6,1.9-4.5,2.7-.5.2-1,.4-1.6.7-2.6,1.2-5.9,2.7-16,4.3-5.6.9-10.7,5.2-13.7,8.4,1.8.1,4.1.2,6.7.3,2.4-1.8,6-2.9,9.5-2.8,5.7.2,10.1,1.3,12.1,1.9,1-1,1.6-1.7,1.6-1.7.9-1,2.4-1.1,3.4-.2s1.1,2.4.2,3.4c-.1.2-3.6,3.9-6.7,6-.9.6-1.9,1.3-2.9,1.9-2.2,1.4-5.3,3.4-6.5,4.7Z"/>
    </g>
    <path class="cls-12" d="M968.1,225.3c-1.1,0-2.1-.7-2.3-1.8l-4.4-17-34.1,4.3c-1.3.2-2.5-.8-2.7-2.1s.8-2.5,2.1-2.7l38.3-4.8,5.5,21.1c.3,1.3-.4,2.6-1.7,3-.3-.1-.5,0-.7,0Z"/>
    <path class="cls-12" d="M1018,274.7c-.8,0-1.4-.6-1.5-1.4,0-.6-.5-14.9,6.6-28.6,4.7-9,12.8-15.3,13.2-15.6.6-.5,1.5-.4,2,.3.5.6.4,1.5-.3,2-.1.1-8,6.3-12.4,14.6-6.8,13-6.3,27-6.3,27.1.2.8-.4,1.5-1.3,1.6.1,0,0,0,0,0Z"/>
    <path class="cls-12" d="M1019.9,236.9c-.2,0-.3,0-.5-.1l-45.4-16.4c-.8-.3-1.1-1.1-.9-1.9.3-.8,1.1-1.1,1.9-.9l45.4,16.4c.8.3,1.1,1.1.9,1.9-.2.6-.8,1-1.4,1Z"/>
    <path class="cls-12" d="M882.7,245.4c-.4,0-.8-.2-1.1-.5-.5-.6-.4-1.5.2-2,.8-.7,19.4-16.1,33-21.7.7-.3,1.6,0,1.9.8.3.7,0,1.6-.8,1.9-13.2,5.4-32.1,21.1-32.3,21.2-.2.2-.5.3-.9.3Z"/>
    <path class="cls-12" d="M630.3,572.2c-.3,0-.7-.1-1-.2-1.2-.6-1.7-2-1.2-3.2l54.1-114.2c.5-1,0-2.2-.9-2.6l-4.9-2.3c-.5-.2-1-.3-1.5-.1-.5.2-.9.5-1.1,1l-54.1,114.1c-.6,1.2-2,1.7-3.2,1.2-1.2-.6-1.7-2-1.2-3.2l54.1-114.1c.8-1.6,2.2-2.9,3.9-3.5s3.6-.5,5.2.3l4.9,2.3c3.4,1.6,4.9,5.7,3.2,9.1l-54.1,114.2c-.5.7-1.3,1.2-2.2,1.2Z"/>
    <path class="cls-2" d="M159.8,763.6c0-6.7,54.3-12.2,121.3-12.2s121.3,5.5,121.3,12.2-54.3,12.2-121.3,12.2-121.3-5.5-121.3-12.2"/>
    <g>
      <g>
        <rect class="cls-14" x="174.5" y="508.5" width="166.4" height="221.1"/>
        <path class="cls-12" d="M343.3,732.1h-171.2v-226h171.2v226h0ZM176.9,727.2h161.6v-216.3h-161.6v216.3Z"/>
      </g>
      <path class="cls-12" d="M340.9,544.7h-166.4c-1.3,0-2.4-1.1-2.4-2.4s1.1-2.4,2.4-2.4h166.4c1.3,0,2.4,1.1,2.4,2.4s-1,2.4-2.4,2.4Z"/>
      <path class="cls-12" d="M340.9,576.3h-166.4c-1.3,0-2.4-1.1-2.4-2.4s1.1-2.4,2.4-2.4h166.4c1.3,0,2.4,1.1,2.4,2.4s-1,2.4-2.4,2.4Z"/>
      <path class="cls-12" d="M340.9,635h-166.4c-1.3,0-2.4-1.1-2.4-2.4s1.1-2.4,2.4-2.4h166.4c1.3,0,2.4,1.1,2.4,2.4s-1,2.4-2.4,2.4Z"/>
      <path class="cls-12" d="M327.6,519.3h-139.8c-.7,0-1.2-.5-1.2-1.2s.5-1.2,1.2-1.2h139.8c.7,0,1.2.5,1.2,1.2s-.5,1.2-1.2,1.2Z"/>
      <g>
        <rect class="cls-14" x="179.5" y="729.6" width="12.4" height="21.2"/>
        <path class="cls-12" d="M193.5,752.6h-15.7v-24.6h15.7v24.6ZM181.2,749.2h9v-17.8h-9v17.8Z"/>
      </g>
      <g>
        <rect class="cls-14" x="323.6" y="729.6" width="12.4" height="21.2"/>
        <path class="cls-12" d="M337.7,752.6h-15.8v-24.6h15.8v24.6ZM325.3,749.2h9v-17.8h-9v17.8Z"/>
      </g>
      <path class="cls-12" d="M327.6,553h-139.8c-.7,0-1.2-.5-1.2-1.2s.5-1.2,1.2-1.2h139.8c.7,0,1.2.5,1.2,1.2s-.5,1.2-1.2,1.2Z"/>
      <path class="cls-12" d="M327.6,584.7h-139.8c-.7,0-1.2-.5-1.2-1.2s.5-1.2,1.2-1.2h139.8c.7,0,1.2.5,1.2,1.2s-.5,1.2-1.2,1.2Z"/>
      <path class="cls-12" d="M327.6,643.3h-139.8c-.7,0-1.2-.5-1.2-1.2s.5-1.2,1.2-1.2h139.8c.7,0,1.2.5,1.2,1.2s-.5,1.2-1.2,1.2Z"/>
      <g>
        <circle class="cls-12" cx="179.7" cy="753.4" r="12.3"/>
        <path class="cls-12" d="M179.7,768.1c-8.1,0-14.7-6.6-14.7-14.7s6.6-14.7,14.7-14.7,14.7,6.6,14.7,14.7-6.6,14.7-14.7,14.7ZM179.7,743.6c-5.4,0-9.8,4.4-9.8,9.8s4.4,9.8,9.8,9.8,9.8-4.4,9.8-9.8-4.4-9.8-9.8-9.8Z"/>
      </g>
      <g>
        <circle class="cls-14" cx="323.8" cy="753.4" r="12.3"/>
        <path class="cls-12" d="M323.8,767.4c-7.7,0-14-6.3-14-14s6.3-14,14-14,14,6.3,14,14-6.3,14-14,14ZM323.8,742.8c-5.8,0-10.6,4.7-10.6,10.6s4.7,10.6,10.6,10.6,10.6-4.7,10.6-10.6c0-5.8-4.8-10.6-10.6-10.6Z"/>
      </g>
    </g>
    <g>
      <path class="cls-14" d="M281.9,442.6l-16.1-12c-1.7-1.3-3.7-2.1-5.8-2.5v-8.4h-15.5v8.8c-2.4,1-4.1,3.4-4.1,6.2v67c0,3.7,3,6.8,6.8,6.8h33.6c3.7,0,6.8-3,6.8-6.8v-48.3c-.3-4.2-2.3-8.3-5.7-10.8Z"/>
      <path class="cls-12" d="M280.6,510.9h-33.6c-5.1,0-9.2-4.1-9.2-9.2v-67c0-3.1,1.6-5.9,4.1-7.6v-9.8h20.4v8.9c1.7.5,3.4,1.4,4.8,2.4l16.1,12c4,3,6.4,7.8,6.4,12.8v48.3c.1,5.1-4,9.2-9,9.2ZM246.8,422.2v8l-1.5.6c-1.6.7-2.6,2.2-2.6,4v67c0,2.4,1.9,4.3,4.3,4.3h33.6c2.4,0,4.3-1.9,4.3-4.3v-48.3c0-3.5-1.7-6.8-4.5-8.9l-16.1-12c-1.4-1-3.1-1.7-4.8-2l-2-.3v-8.1h-10.7Z"/>
    </g>
    <g>
      <g>
        <polygon class="cls-14" points="220.5 437.3 220.5 428.9 212.4 428.9 212.4 437.3 204.7 443.3 204.7 508.5 228.2 508.5 228.2 443.3 220.5 437.3"/>
        <path class="cls-12" d="M230.6,510.9h-28.3v-68.8l7.6-6v-9.6h13v9.6l7.6,6v68.8h.1ZM207.2,506.1h18.6v-61.6l-7.6-6v-7.2h-3.3v7.2l-7.6,6v61.6h-.1Z"/>
      </g>
      <path class="cls-12" d="M218.4,455.7h-13.6c-.7,0-1.2-.5-1.2-1.2s.5-1.2,1.2-1.2h13.6c.7,0,1.2.5,1.2,1.2s-.6,1.2-1.2,1.2Z"/>
      <path class="cls-12" d="M258.9,430.5h-13.6c-1.3,0-2.4-1.1-2.4-2.4s1.1-2.4,2.4-2.4h13.6c1.3,0,2.4,1.1,2.4,2.4s-1,2.4-2.4,2.4Z"/>
      <path class="cls-12" d="M211.9,434.1h-34.3c-.9,0-1.7-.8-1.7-1.7s.8-1.7,1.7-1.7h34.3c.9,0,1.7.8,1.7,1.7s-.8,1.7-1.7,1.7Z"/>
      <path class="cls-12" d="M218.4,463.6h-13.6c-.7,0-1.2-.5-1.2-1.2s.5-1.2,1.2-1.2h13.6c.7,0,1.2.5,1.2,1.2s-.6,1.2-1.2,1.2Z"/>
      <path class="cls-12" d="M218.4,471.4h-13.6c-.7,0-1.2-.5-1.2-1.2s.5-1.2,1.2-1.2h13.6c.7,0,1.2.5,1.2,1.2s-.6,1.2-1.2,1.2Z"/>
    </g>
    <path class="cls-12" d="M157.3,744.1h-17.7c-1.3,0-2.4-1.1-2.4-2.4s1.1-2.4,2.4-2.4h17.8c1.3,0,2.4,1.1,2.4,2.4s-1.1,2.4-2.5,2.4Z"/>
    <path class="cls-12" d="M826.1,501.1c-.2,0-.4,0-.6-.2-9.2-4.6-17.6-16.3-17.9-16.8-.5-.7-.3-1.6.3-2,.7-.5,1.6-.3,2,.3.1.1,8.3,11.6,16.9,15.9.7.4,1,1.2.6,1.9-.3.6-.8.9-1.3.9Z"/>
    <path class="cls-12" d="M838.5,497h-.3c-8.3-2-19.4-15.2-19.9-15.7-.5-.6-.4-1.5.2-2,.6-.5,1.5-.4,2,.2.1.1,10.9,13,18.3,14.8.8.2,1.3,1,1.1,1.8-.1.5-.7.9-1.4.9Z"/>
    <path class="cls-12" d="M843.7,492.5c-.3,0-.6-.1-.9-.3-6.8-5.3-17.4-14.8-17.5-14.9-.6-.5-.6-1.5-.1-2.1s1.5-.6,2.1-.1c.1.1,10.6,9.5,17.3,14.7.6.5.7,1.4.3,2-.4.5-.8.7-1.2.7Z"/>
  </g>
  <g id="Ebene_4" data-name="Ebene 4">
    <g>
      <path class="cls-14" d="M502.6,407.6s7.4-1.3,13.4-1.8,7.8-7.8,7.8-7.8l-41.1-4.8s-10-13.7-21.6-29.5l43.4-78.1c1.4-2.6-.4-5.7-3.3-5.8l-42.2-1.8-8.4-.3c-3-.1-5.8,1.4-7.2,4l-16.1,28.9-6.3-18.8,5.8-1s-3.3-49-11-68.5c-6.1-6.6-12.9-11.3-19.8-15.1-2.4-2.5-4.1-3.4-4.1-3.4l-9-3.5h0c-1.6-.8-3.2-1.6-4.7-2.5-1.2-.6-2.6-1.4-4.1-2.2-1.8-8.2,5.5-16,5.5-16h.5s3.9-.2,6.6-1.9c6-3.6,14.9-27.3,16.2-34.3,1.6-8.5-2-13.6-2-13.6l2.4-10.3c-.2-.1-.4-.3-.6-.4l-.6-8.8c-.3-4.4-.4-11.8-6.6-19.5-1.5-1.8-3.1-3.4-4.8-4.8.8.4,1.8,1.1,3.1,2.3,8-20.4-11.4-16.2-11.4-16.2,0,0-2.8-2.5-16.5-5.4s-37,1.6-37,16c-10.9,5-14.4,29.1-5.7,49,.1,4.7,4.3,15.1,4.3,15.1,0,0,4.3,1,6.9,1.1,2.1,22.8-6.3,27.9-11.7,30-2.4-.1-14.8,1.7-23.8,5.9-8.9,4.2-36,18.3-36,18.3,0,0-15.7,31.8-21.2,82.2l28.2,4.5-23-1.7c-.8,20.2-2,36.6.6,57.1,10.6,5.7,18.9,10.6,34.1,15.3l-5.6,94.2,8.8,140.1s-13.4,33.7-14.5,76c-1.1,40,4.9,85.3,4.9,85.3l-5.9,3.6,4.4,18.3s.8.1,2.2.1c-2.9,9.7-5.7.1-5.4,7.3,0,0,9.3,5,24.9,8.7,13.7,3.2,40.2,1.4,48.2.3,1.5-10.5,9.3-75.9,1.7-83.1-6.7-6.3-24.7,77.2-30.1,65.5.1,0,.2-.1.3-.1.3-.1.7-.2,1-.3.2,0,.3-.1.5-.1.5-.1.9-.3,1.3-.4l38.1-228,22.7,58.2s-7,10.9-13.2,34.2c-3.2,12.2-6.2,27.8-7.9,47.1-1.6,18.5-3.4,43.6-4.8,62.6-.1,1.1-.2,2.1-.2,3.2-.1,1-.1,2.1-.2,3-.3,4.5-.6,8.4-.8,11.7-.1,1.4-.2,2.7-.3,3.9-.2,3.4-.4,5.4-.4,5.4,0,0,.4.1,1.2.2.4.1.8.1,1.4.2-7.8,9.9-9-8.8-7,3,4.8,2.9,33,5.5,59.4,6.6,41.6,1.7,15.3,6.3-3.8-12.2.4-.1.9-.3,1.3-.4l3.4-15.2h0l-7.9-11.5s2.1-6.6,5.5-17.1c.4-1.3.9-2.7,1.3-4.1.5-1.4.9-2.9,1.4-4.4s1-3.1,1.5-4.7c1-3.2,2.1-6.6,3.2-10.2.6-1.8,1.1-3.6,1.7-5.4,1.2-3.7,2.3-7.4,3.5-11.3.5-1.7,1.1-3.4,1.6-5.2.4-1.2.7-2.4,1.1-3.5.6-2,1.2-3.9,1.8-5.9.5-1.7,1.1-3.4,1.6-5.1.4-1.2.8-2.5,1.1-3.7.3-1,.6-2,.9-2.9.6-2,1.2-3.9,1.8-5.8,1.5-4.8,2.9-9.6,4.3-14.1.3-1.1.7-2.2,1-3.3.4-1.4.8-2.8,1.3-4.2.4-1.3.7-2.5,1.1-3.7.4-1.3.7-2.5,1.1-3.7.1-.4.2-.7.3-1.1.7-2.2,1.3-4.4,1.9-6.5.4-1.5.8-2.9,1.2-4.2.9-3.4,1.8-6.4,2.4-9,.7-17,.3-37.1-1.3-58-.1-1.9-.3-3.8-.5-5.7-3.2-38.2-10-78.8-19.4-108.9l-9.5-48.6c4.1-.5,8.1-1.4,12.1-2.7,0,0,1.7-1.3,4.1-3.7,18,17.8,35.8,31.3,35.8,31.3l7.6,13.7s22.3,30.5,34.1,34.7c11.8,4.2,24.1-16.7,24.1-16.7l-26.4-35.6ZM324.9,124.4c-1,2.1-1.5,4.7-1.4,7.5-.3-3.3.3-5.8,1.4-7.5ZM333.6,119.9h1.6s-.6-.1-1.6,0Z"/>
      <path class="cls-14" d="M317.6,805c-8.6,0-17.5-.5-24.1-2.1-16.6-3.9-26.8-9.4-27.2-9.6l-4.8-2.6-.2-5.5c-.1-1.9-.3-6.1,2.6-9.4l-5.1-21.3,6.5-4c-1.6-14-5.1-48.6-4.2-80.5,1-37.9,11.4-68.9,14.4-77.2l-8.7-138.7,5.2-87.4c-10.6-3.9-18-7.9-25.7-12.1l-7.2-3.9-.6-4.9c-2.4-19.1-1.7-34.4-1-52.1h0l-5.9-.9,1-9.2c5.6-51.5,21.5-84,22.1-85.4l1.4-2.8,2.8-1.5c1.1-.6,27.4-14.3,36.4-18.5,8.4-3.9,19.6-6.2,25.5-6.7,1.9-1.1,4.4-3.7,4.7-12.2l-4.7-1.1-1.9-4.6c-1-2.5-4.1-10.4-4.8-16.4-8.1-20-6.7-46.1,6.2-57,1.2-4.6,3.9-8.6,8-12,3.5-2.9,7.9-5,12.5-6.4l8.8-1.9c6.5-.9,13.1-.6,18.6.5,7.1,1.5,12.6,3.1,16.4,4.9,4.7-.3,12.1.3,17.1,6.2,4,4.6,5,10.8,3.1,18.3,6.4,9,6.9,17.6,7.2,22.3v.7s.1,2,.3,4.1l2.2,1.5-3.2,13.4c1.4,3.7,2.6,9.3,1.3,16.5-.6,3.1-9.5,34.1-20.8,40.8-2.3,1.4-4.7,2.1-6.7,2.6-.3.4-.5.9-.7,1.4.9.5,1.7.9,2.6,1.4l9.2,3.6c.9.4,3.2,1.7,5.9,4.4,5.7,3.3,13.7,8.5,20.9,16.3l1.2,1.3.7,1.7c5.6,14.1,8.9,41.3,10.5,57.8,3.3-5.5,9.3-8.7,15.8-8.4l50.5,2.1c4.8.2,9,2.8,11.3,6.9s2.3,9.1,0,13.3l-40.4,72.6c6.6,9,12.3,16.8,15.4,21.1l47.9,5.5-2.7,10.7c-1.2,4.6-5.2,12.2-13,14.5l20.8,27.7-3.3,5.6c-1.5,2.5-13.5,22.1-29.2,22.1-2.1,0-4.3-.4-6.5-1.1-13.5-4.8-33-30.4-38.7-38.1l-.3-.5-7-12.5c-4.2-3.3-16-12.7-29-24.9l-.4.1c-1.2.4-2.5.8-3.8,1.1l7.5,38.6c9.1,29.1,16.2,69.3,19.7,110.5.2,1.9.3,3.9.5,5.8,1.6,21.5,2.1,42,1.3,59.1v1l-.2,1c-.7,2.6-1.5,5.7-2.5,9.2-.4,1.4-.8,2.8-1.2,4.3-.6,2.1-1.2,4.2-1.9,6.5l-2.5,8.6c-.4,1.4-.8,2.8-1.3,4.2l-1,3.3c-1.4,4.6-2.8,9.3-4.3,14.2l-10,32.2c-1.2,3.8-2.4,7.6-3.5,11.3l-1.7,5.4c-1.1,3.5-2.2,7-3.2,10.2l-4.2,13.3c-1.7,5.3-3.1,9.6-4,12.6l7.6,11.1-3.3,14.8c7.9,5.5,15.7,7.2,16.1,7.3l9.3,1.9-3.5,18.7-9.4-1.6c-.6-.1-6.3-1-20.9-1.6-14.9-.6-37.7-1.9-52.2-4.5-.2,1.6-.4,2.8-.5,3.5l-1,7.2-7.2,1c-4.8.3-16,1.3-27.7,1.3ZM325.1,783.1c-.9,1-1.9,1.8-2.9,2.4,4.8-.1,9.4-.4,13.2-.7,1.3-10.4,2.5-22.8,3.2-34.2-4.4,13.7-7.5,22.8-10.8,28.5l-.5,3-2.2,1ZM285.6,780.4c3.4,1.2,7.6,2.5,12.4,3.6,3.6.8,8.3,1.3,13.5,1.5-1.8-1.1-3.5-2.8-4.7-5.3l-4.9-10.7,8.3-2,42.8-256.6,37.3,95.5-2.7,4.2c0,.1-6.4,10.3-12,31.5-3.6,13.7-6.2,29-7.6,45.4-1.6,18.8-3.5,44.3-4.8,62.4l-.4,6.2c-.3,4.5-.6,8.4-.8,11.7v.5l10,1.6-3.3,4.2c5.9.6,13.2,1.3,21.8,1.8l-6.2-6,11.6-3.6,1.3-5.6-8.2-11.9,1.5-4.5s2.1-6.6,5.5-17.1l4.2-13.2c1-3.2,2.1-6.6,3.2-10.2l1.7-5.4c1.1-3.7,2.3-7.4,3.5-11.2l9.9-32.1c1.5-4.8,2.9-9.5,4.3-14.1l1-3.2c.4-1.4.8-2.8,1.3-4.2l2.5-8.5c.6-2.2,1.3-4.4,1.8-6.4.4-1.5.8-2.8,1.2-4.2.8-3,1.5-5.6,2.1-7.8.7-16.2.2-35.5-1.3-55.8-.1-1.9-.3-3.8-.4-5.6-3.4-40.1-10.3-79-19-106.8l-.2-.5-11.6-59.3,10.2-1.3c3-.4,5.9-1,8.6-1.8.5-.5,1.2-1.1,2-1.9l6.8-6.9,6.9,6.8c17.3,17.1,34.7,30.3,34.9,30.4l1.6,1.2,8.3,14.9c9.9,13.5,23.9,29,29.2,30.8,1.6.1,5.4-3.1,8.9-7.4l-30.1-39.9-10.1-1.2-2.5-3.4c-.1-.1-10.1-13.9-21.6-29.4l-3.7-5,41.9-75.4-40.1-1.7-26.2,47.1-16.9-50.2,8.2-1.5c-1.4-16-4.5-42.3-9-55.3-4.3-4.4-9.3-8.1-16.1-11.9l-1.3-.7-1-1.1c-.6-.7-1.1-1.1-1.4-1.3l-9.1-3.6c-1.7-.8-3.3-1.7-4.9-2.6-1.1-.6-2.4-1.3-3.9-2.1l-4.1-2.1-1-4.5c-2.7-12.8,6.9-23.5,8-24.7l3-3.2,4.2.2c.5-.1,1.2-.2,1.7-.4,3.6-3.9,10.8-21.9,12-28,.7-3.5-.2-5.8-.5-6.4l-3-3.6,1.6-4.1,1.7-7v-.8c0-.2-.6-8.5-.6-8.8l-.1-.8c-.2-3.9-.5-8.4-4.4-13.3-1-1.2-2-2.3-3.3-3.2l-22.3-17.6c-7.9-1.2-17.9.6-22.2,4.1-1.6,1.3-1.5,2.1-1.5,2.6v6.3l-5.7,2.6c-4,1.8-8.2,19.2-.9,36.2l1.3.7c-.2.4-.5,1.4-.4,3v.1c0,1,.8,3.7,1.8,6.7h.1l8.6.3.8,8.5c1.9,21.3-3.9,34.4-17.8,39.9l-1.9.7-1.9-.1c-2.3.1-12.6,1.7-19.5,4.9s-25.4,12.8-32.7,16.6c-3.4,7.9-13,32.2-17.9,67l19,3-2.2,19.2-13-.9c-.6,13.9-1,26.4.4,40.7,8.6,4.6,15.8,8.4,27.9,12.2l7.2,2.3-6,101.2,8.9,141.7-.8,2c-.1.3-12.8,32.7-13.8,72.6-1,38.7,4.8,83.3,4.9,83.8l.8,6.3-5.2,3.2,1.1,4.5,7.3.5-3.6,11.7c-.2.2-.2.3-.2.3ZM360.5,583.5l-19.7,117.9c.4-.2.9-.3,1.4-.4,1.8-.5,3.6-.4,5.3,0,.4-5.3.8-10.4,1.2-15.1,1.5-17.5,4.2-33.9,8.1-48.7,4.3-16.2,9.1-26.9,11.9-32.5l-8.2-21.2ZM387.8,212.6h0ZM393.1,135.5h0ZM386.5,94.8h0ZM334.5,129.5h-.7l-.6-19.4c1.6-.1,2.7,0,3.1.1l-1.8,19.3ZM412,109.8h0Z"/>
    </g>
    <g>
      <g>
        <g>
          <path class="cls-14" d="M450.2,350.4c-7.2-9.8-14.1-19.2-18.9-25.5l-18-54.1-38,16.8s15.6,38.7,19.3,51.8c4.5,9.2,11.8,19,19.9,28.2"/>
          <path class="cls-12" d="M414.5,370.1c-.7,0-1.3-.3-1.8-.8-9.3-10.6-16.2-20.2-20.3-28.8l-.2-.4c-3.6-12.8-19-51.2-19.2-51.6l-.9-2.2,42.6-18.8,18.7,56.2c4.2,5.6,10.5,14.1,18.7,25.2.8,1.1.6,2.6-.5,3.4s-2.6.6-3.4-.5c-8.3-11.3-14.7-19.9-18.9-25.5l-.2-.3-17.2-51.9-33.4,14.8c3.3,8.4,15.1,38.1,18.4,49.7,3.9,8.1,10.5,17.3,19.5,27.5.9,1,.8,2.5-.2,3.4-.5.4-1.1.6-1.7.6Z"/>
        </g>
        <g>
          <path class="cls-14" d="M432.9,386.7c15.1,14.1,29.4,25.1,29.4,25.1l7.6,13.7s22.2,30.6,34,34.8c11.8,4.2,30-11.3,30-11.3l-32.4-41s7.4-1.3,13.4-1.7c6-.5,7.8-7.8,7.8-7.8l-41.1-4.9s-7-9.7-16.1-22.1"/>
          <path class="cls-12" d="M508.3,463.5c-1.8,0-3.6-.3-5.2-.9-12.3-4.4-34.2-34.4-35.1-35.7l-.2-.2-7.3-13.3c-2.5-1.9-15.6-12.2-29.2-24.9-1-.9-1-2.4-.1-3.4s2.4-1,3.4-.1c14.8,13.9,29.1,24.8,29.2,24.9l.4.3,7.8,14c6.1,8.4,23.7,30.6,32.8,33.9,7.6,2.8,19.9-4.9,25.8-9.4l-33.5-42.3,4-.7c.3-.1,7.6-1.3,13.6-1.8,2.2-.2,3.7-1.8,4.5-3.4l-38.9-4.7-.6-.9s-7-9.7-16-22.1c-.8-1.1-.5-2.6.5-3.4,1.1-.8,2.6-.5,3.4.5,7.5,10.3,13.5,18.6,15.4,21.3l42.8,5.1-.7,2.7c-.1.4-2.4,9-10,9.6-3,.2-6.5.7-9.1,1.1l31.3,39.6-1.8,1.5c-.7.7-15,12.7-27.2,12.7Z"/>
        </g>
        <path class="cls-12" d="M528.3,454.6c-.4,0-.8-.2-1.1-.5l-20.6-21.9c-.6-.6-.5-1.5.1-2.1s1.5-.5,2.1.1l20.6,21.9c.6.6.5,1.5-.1,2.1-.3.3-.7.4-1,.4Z"/>
        <path class="cls-12" d="M520.8,458.3c-.4,0-.8-.2-1.1-.5l-20.2-21.3c-.6-.6-.5-1.5.1-2.1s1.5-.5,2.1.1l20.2,21.4c.6.6.5,1.5-.1,2.1-.3.2-.7.3-1,.3Z"/>
        <path class="cls-12" d="M512.6,461.4c-.4,0-.8-.2-1.1-.5l-19-20.2c-.6-.6-.5-1.5.1-2.1s1.5-.5,2.1.1l19.1,20.3c.6.6.5,1.5-.1,2.1-.3.2-.7.3-1.1.3Z"/>
      </g>
      <g>
        <path class="cls-14" d="M310.1,179.5c-9.5,1.8-47.3,22.3-47.3,22.3,0,0-15.8,31.8-21.5,82.1l41.1,6.6,2.7,143.4,123.2,5.6-1-145.2,18.8-3.3s-3.1-49-10.8-68.5c-11.4-12.5-25.2-17.9-37.5-24.6-12.3-6.8-42.5-23.1-67.7-18.4Z"/>
        <path class="cls-12" d="M410.7,442l-128-5.8-2.7-143.6-41.3-6.7.3-2.3c3-26.2,8.7-47.3,13-60.4,4.7-14.2,8.6-22.2,8.7-22.5l.3-.7.7-.4c1.6-.8,38.2-20.7,48-22.5,26.2-4.9,57.6,12.1,69.4,18.5,2.4,1.3,4.8,2.5,7.4,3.9,10.5,5.4,21.3,10.9,30.8,21.2l.3.3.2.4c7.7,19.6,10.8,67.3,10.9,69.3l.1,2.2-19,3.4.9,145.7ZM287.5,431.6l118.3,5.4-1-144.7,18.7-3.3c-.7-9.6-3.9-48.4-10.3-65.2-8.8-9.5-19.1-14.8-29.1-19.9-2.5-1.3-5-2.6-7.5-3.9-11.4-6.2-41.6-22.6-66.2-18h0c-7.3,1.4-34.9,15.7-45.9,21.7-2.2,4.8-15.4,34.3-20.7,78.3l40.8,6.6,2.9,143ZM310.1,179.5h0Z"/>
      </g>
      <path class="cls-1" d="M318.3,184.7c-9.5,1.8-47.3,22.3-47.3,22.3,0,0-15.4,29.7-21.1,80l42.9,4.2-5.3,24.4,6.1,121.4,123.2,5.6-8.9-94.7-.1-54.5,18.1-3s-2.8-48.6-10.5-68.1c-11.4-12.5-16.7-14.7-29-21.4-12.3-6.7-42.8-20.9-68.1-16.2Z"/>
      <path class="cls-12" d="M410.7,442l-128-5.8-2.7-143.6-41.3-6.7.3-2.3c3-26.2,8.7-47.3,13-60.4,4.7-14.2,8.6-22.2,8.7-22.5l.3-.7.7-.4c1.6-.8,38.2-20.7,48-22.5,26.2-4.9,57.6,12.1,69.4,18.5,2.4,1.3,4.8,2.5,7.4,3.9,10.5,5.4,21.3,10.9,30.8,21.2l.3.3.2.4c7.7,19.6,10.8,67.3,10.9,69.3l.1,2.2-19,3.4.9,145.7ZM287.5,431.6l118.3,5.4-1-144.7,18.7-3.3c-.7-9.6-3.9-48.4-10.3-65.2-8.8-9.5-19.1-14.8-29.1-19.9-2.5-1.3-5-2.6-7.5-3.9-11.4-6.2-41.6-22.6-66.2-18h0c-7.3,1.4-34.9,15.7-45.9,21.7-2.2,4.8-15.4,34.3-20.7,78.3l40.8,6.6,2.9,143ZM310.1,179.5h0Z"/>
      <g>
        <path class="cls-14" d="M361.7,203.8c-27.4-1.2-42.1-22.7-43.5-24.5,5.5-1,16.7-2.6,16.2-31.4-.9,0-6.9-.5-6.9-.5,0,0-9.3-25.5-.7-28,7.1-2.1,9.8,7.6,9.8,7.6,0,0,2.9.1,5.9-2.8,3-2.8-5.9-9.3-6.2-12.1-.3-3.9-3.3-8.7-1.8-13.6,4.8-15.5,17.7-19.8,31.4-19.7,13.7.1,23.2,3.8,29.7,12.1,6.2,7.7,6.8,23.8,7.1,28.3.1,1.6-1.9,10.7-1.9,10.7,0,0,3.6,5.1,1.9,13.6-1.4,7-10.4,30.7-16.4,34.3-3.4,2-10.8,2.3-10.8,2.3,0,0-4.9,9.3-.3,20"/>
        <path class="cls-12" d="M361.7,206.2h-.1c-25.9-1.2-41.1-19.7-45.2-25.4l-2.4-3.3,4.1-.8c4.9-.9,13.8-2.5,14-26.7-1.9-.1-4.3-.3-4.7-.3l-1.6-.1-.5-1.5c-.7-2-7.1-19.9-3.2-27.6.9-1.8,2.4-3.1,4.2-3.6,2.4-.7,4.7-.5,6.7.7,2.8,1.6,4.5,4.5,5.4,6.5.7-.3,1.6-.7,2.5-1.6-.2-1-2.2-3.2-3.2-4.5-1.9-2.2-3.4-3.9-3.5-5.8-.1-1.1-.5-2.4-.9-3.8-.9-3-2-6.8-.8-10.7,4.4-14.2,15.6-21.5,33.4-21.5h.4c14.6.1,24.6,4.2,31.6,13,6.3,7.9,7.2,23.1,7.6,28.9v.8c.1,1.6-1.1,7.3-1.7,10.5,1.1,2,3.1,7.2,1.7,14.5-1.2,6-10.1,31.5-17.5,35.9-2.9,1.8-7.9,2.4-10.4,2.6-1,2.7-2.9,9.4.3,16.7.5,1.2,0,2.7-1.3,3.2-1.2.5-2.7,0-3.2-1.3-5-11.6.2-21.7.4-22.1l.7-1.2,1.4-.1c1.9-.1,7.3-.6,9.6-2,4.8-2.9,13.7-24.7,15.2-32.7,1.4-7.3-1.4-11.6-1.5-11.8l-.6-.8.2-1c.9-4.2,1.8-9.2,1.8-10.2v-.7c-.3-4.8-1.1-19.4-6.5-26.1-6-7.5-14.8-11.1-27.8-11.2-15.8-.1-25.3,5.8-29.1,18-.8,2.5,0,5.2.8,7.9.5,1.5.9,3.1,1.1,4.7.2.6,1.5,2.1,2.4,3.1,2.8,3.2,6.5,7.6,3,11-3.6,3.4-7.2,3.5-7.6,3.4h-1.8l-.5-1.7c-.3-1.2-1.7-4.5-3.8-5.7-.9-.5-1.8-.6-3-.2-.4.1-.8.3-1.2,1.1-2.1,4.1.5,15.2,2.9,22.3,2.2.2,4.8.3,5.3.3l2.3.1v2.3c.4,25.2-8.1,31-14.4,32.9,5.7,6.9,18.9,19.7,39.3,20.6,1.3.1,2.4,1.2,2.3,2.5-.2,1.5-1.3,2.5-2.6,2.5Z"/>
      </g>
      <path class="cls-12" d="M389,145.2c-1.4,0-3.2-.2-5.2-.6-.8-.2-1.3-.9-1.1-1.7.2-.8.9-1.3,1.7-1.1,5.4,1.1,8.2.3,9.1-.8.4-.5.4-1.1,0-1.8-.3-.6-.6-1.2-.9-1.9-1.5-3.2-3.4-7.1-4.3-9.8-.2-.6-.4-1.1-.5-1.6-.9-2.5-1.5-4.3-.3-5.6.5-.6,1.4-.7,2-.1.6.5.7,1.3.2,1.9,0,.5.4,1.8.8,2.8.2.5.4,1,.5,1.6.8,2.5,2.7,6.4,4.2,9.5.3.7.6,1.4.9,2,.8,1.7.7,3.5-.4,4.8-.9,1.2-2.8,2.4-6.7,2.4Z"/>
      <path class="cls-12" d="M403.6,120.2c-.3,0-.6-.1-.8-.3l-.1-.1c-1.8-1.2-5.2-3.6-9.8-2-.8.3-1.6-.1-1.8-.9-.3-.8.1-1.6.9-1.8,6-2.1,10.5,1,12.4,2.3l.1.1c.7.5.8,1.4.4,2-.4.5-.9.7-1.3.7Z"/>
      <path class="cls-12" d="M367.9,123.3c-.3,0-.6-.1-.9-.4-.4-.5-.4-1.2.1-1.6,3.1-2.8,6.4-3,9.3-.6.5.4.6,1.1.2,1.6s-1.1.6-1.6.2c-2-1.6-4.1-1.5-6.3.6-.2.1-.5.2-.8.2Z"/>
      <ellipse class="cls-12" cx="373.01" cy="123.68" rx="3" ry="2.3" transform="translate(188.73 470.78) rotate(-80.38)"/>
      <path class="cls-12" d="M390.4,124.7c-.3,0-.6-.1-.8-.3-.5-.5-.5-1.2,0-1.6,1.4-1.4,3.6-2.2,5.6-2,1.6.1,2.9.9,3.8,2.1.4.5.3,1.2-.3,1.6-.5.4-1.2.3-1.6-.3-.5-.7-1.2-1.1-2.1-1.2-1.3-.1-2.8.5-3.7,1.4-.3.2-.6.3-.9.3Z"/>
      <ellipse class="cls-12" cx="394.5" cy="125.2" rx="2.9" ry="2" transform="translate(206.66 494.02) rotate(-80.62)"/>
      <path class="cls-12" d="M381.7,118.2c-.3,0-.6-.1-.9-.3-1.9-1.5-3.6-2.4-8.7-2.4h0c-3.9-.1-7.9,1.4-9.7,2.1-.6.2-.9.3-1.2.4-.8.1-1.5-.4-1.7-1.2-.1-.8.4-1.5,1.1-1.6.1,0,.4-.1.7-.3,1.9-.7,6.4-2.4,10.7-2.3h0c5.4,0,7.8,1,10.4,3,.6.5.8,1.4.3,2-.1.4-.5.6-1,.6Z"/>
      <path class="cls-12" d="M384.4,159.4c-2.1,0-4.8-.3-7.9-1.5-7.2-2.7-9-7.2-9-7.3l-1-2.5,2.6.6c.1,0,14.8,3.3,23.7,1.7.8-.1,1.5.4,1.7,1.2.1.8-.4,1.5-1.2,1.7-6.6,1.2-15.9-.1-21-1,1.1,1,2.8,2.1,5.2,3,3.4,1.3,6.3,1.4,8.2,1.2.8-.1,1.5.5,1.6,1.3s-.5,1.5-1.3,1.6c-.5-.1-1,0-1.6,0Z"/>
      <path class="cls-12" d="M379.8,182.1h-.1c-16.8-.9-28.5-11.6-31.6-14.8-.9-1-.9-2.5.1-3.4s2.5-.9,3.4.1c2.9,2.9,13.4,12.6,28.4,13.4,1.3.1,2.4,1.2,2.3,2.5-.1,1.2-1.2,2.2-2.5,2.2Z"/>
      <path class="cls-12" d="M380.5,164.7c-2.1,0-4.8-.8-5.1-1-.8-.2-1.2-1.1-.9-1.8.2-.8,1.1-1.2,1.8-.9,1.2.4,3.5.9,4.7.8.8-.1,1.5.4,1.6,1.2s-.4,1.5-1.2,1.6c-.3.1-.6.1-.9.1Z"/>
      <path class="cls-12" d="M351.6,87.7c-9,6.7.8,20.6.8,20.6,0,0-4.3,14.7-9,18.3l-5.8-.3-7.8-6.8s-7.3-1.3-6.5,12.2c-8.6-19.9-5.1-44.1,5.9-49,0-14.4,23.3-18.8,37-15.8s16.5,5.4,16.5,5.4c0,0,19.4-4.2,11.3,16.2-5.1-4.9-5-1.6-13.7-1.5-10.7.1-16.8-8.2-28.7.7Z"/>
      <g>
        <path class="cls-12" d="M274.5,774.9c-3.1,6.8-7.2,32.9-6.9,40.7,0,0,9.3,5.1,24.8,8.8,13.7,3.3,40.2,1.6,48.2.5,1.6-10.4,2.5-10.9-5.2-18.1-7.6-7.2-20.3-23.1-24.5-36-4-13-31.6-6.5-36.4,4.1Z"/>
        <path class="cls-12" d="M314.9,828.7c-8.3,0-16.9-.5-23.1-2-15.7-3.8-25-8.8-25.4-9l-1.2-.7-.1-1.4c-.3-8.3,3.9-34.6,7.1-41.8h0c3.7-8.2,17.4-13.3,27.3-12.7,7.1.4,12,3.5,13.7,8.8,4,12.3,16.3,27.9,23.8,35,7.7,7.2,7.6,9.1,6.3,17.7-.1.8-.3,1.6-.4,2.5l-.3,1.8-1.8.2c-4.2.8-14.9,1.6-25.9,1.6ZM270,814.1c3,1.5,11.2,5.1,23,8,12.2,2.9,35.6,1.8,45.5.7,0-.3.1-.5.1-.8q1.2-7.7-4.8-13.5c-7.3-6.9-20.7-23.2-25.1-37-1.3-4.1-5.8-5.2-9.3-5.4-8.9-.5-20.2,4.4-22.6,9.9h0c-2.8,6-6.6,29.2-6.8,38.1ZM274.5,774.9h0Z"/>
      </g>
      <g>
        <path class="cls-12" d="M388.4,758.7c18.1,33,53.9,35.4,72.4,42.7,1.1,24.7-15.9,18.3-57.5,16.4-26.3-1.2-54.5-3.9-59.4-6.8-2.2-13,.3-28,10-36.9l34.5-15.4Z"/>
        <path class="cls-12" d="M441.2,822.4c-5.1,0-11.2-.4-18.4-1-5.8-.4-12.3-.9-19.5-1.2-19.5-.9-54.3-3.4-60.5-7.2l-1-.6-.2-1.1c-2-12.3-.3-29,10.8-39.1l.3-.3.4-.2,36.4-16.3,1.1,2c13.7,25,37.6,31.7,56.8,37.1,5.3,1.5,10.2,2.9,14.4,4.5l1.5.6.1,1.6c.3,7.8-1.1,13-4.5,16.3-3.9,3.8-9.6,4.9-17.7,4.9ZM346.1,809.4c6,2.3,29.8,4.8,57.3,6,7.3.3,13.9.8,19.6,1.2,16.7,1.2,27.7,2,32.3-2.4,2.2-2.1,3.1-5.6,3.1-11.1-3.6-1.3-7.9-2.5-12.4-3.8-18.6-5.2-43.8-12.3-58.6-37.5l-32,14.4c-9.1,8.4-10.8,22.4-9.3,33.2Z"/>
      </g>
      <path class="cls-14" d="M349.1,776.1s27.3,6,52.4-2.3l3.5-15.2-7.9-11.5,2-41.3s18.9-24.4,24.1-40.7c9.7-30.6,12.7-40.6,17-57.1,2.4-49.6-5.6-124.4-20.6-172.7l-12.3-64.5s-1.1-79.3.4-112.9c2.1-45.5-16.2-54.2-16.2-54.2l-9.5-5.6s10,13.6,8.6,44.1l-48.5-2.9s-5.4-55.8-29.7-61.9l-13,4.8s14.2,4.4,22.2,43.4c3.6,17.9,9.4,96.8-38.2,95l-8.3,132.7,8.3,140.2s-13.5,33.6-14.8,75.9c-1.2,40,4.6,85.3,4.6,85.3l-5.9,3.5,4.3,18.3s32.2,2.6,44.5-1.9l38.9-227.6-20.5,51.1s-1,34.8-5.9,90.7c-3,33.9,20.5,87.3,20.5,87.3Z"/>
      <path class="cls-9" d="M313.3,177.8l-13.9,4.6s15.2,7.7,23.1,46.7c3,14.9,4.5,84.5-28.7,91,.2.4.3.8.5,1.2l-8.3,132.7,8.3,140.2s-13.5,33.6-14.8,75.9c-1.2,40,4.6,85.3,4.6,85.3l-5.9,3.5,4.3,18.3s.8.1,2.3.2c10.4.3,24.2,0,31.3-2.6l38.9-227.8,22.5,58.3s-16.5,25.3-21.4,81.2c-3,33.9-7.1,89.7-7.1,89.7,0,0,27.3,6,52.4-2.3l3.5-15.2-7.9-11.5s34.5-106,43.1-139.1c2.4-49.6-5.6-124.4-20.6-172.7l-12.3-64.5s-1.1-79.3.4-112.9c2.1-45.5-16.2-54.2-16.2-54.2l-9.5-5.6s10,13.6,8.6,44.1l-48.6-2.2c.1.1-4.3-56.1-28.6-62.3Z"/>
      <path class="cls-12" d="M371.6,780.7c-12.9,0-22.4-2-23.1-2.2l-2-.4.2-2.1c0-.6,4.1-56.2,7.1-89.7,4.4-50.2,17.9-75.8,21.1-81.3l-18.9-48.9-37.7,220.6-1.3.5c-12.7,4.7-44.2,2.2-45.6,2.1l-1.8-.1-5.1-21.8,6-3.6c-1-8.4-5.5-48.6-4.4-84.1,1.2-39.4,13.1-71.8,14.8-76.2l-8.3-139.8,8.5-135.2,2.4.1c9.2.4,17-2.9,23-10,9.5-11.1,13-29,14.4-42.1,1.7-16.3.5-31-.7-36.8-6-29.5-16.5-41.6-21.2-43.9l-3.8-1.8,3.5-2.4c.1-.1,2.3-1.5,5.8-2.9,4.7-1.8,9.5-2.2,9.7-2.2h.4l.4.1c23.1,5.9,28.3,50.8,29.3,61.4l44,2c.7-27.2-7.5-38-7.6-38.1l-5.6-7.1,17.5,6.9c.8.4,19.6,10,17.5,56.5-1.5,32.2-.4,107.9-.4,112.5l12.3,64.2c14.3,46.1,23.1,120.6,20.6,173.4v.2l-.1.2c-8,30.9-39,126.5-42.7,138.1l7.8,11.4-4,17.6-1.3.4c-10.6,3.5-21.5,4.5-30.7,4.5ZM351.7,774.2c6.6,1.1,27.9,4,47.8-2.2l2.9-12.8-7.9-11.6.4-1.1c.3-1.1,34.4-105.8,43-138.7,2.4-52.3-6.3-126-20.5-171.6l-.1-.3-12.4-64.7v-.2c0-.8-1.1-79.8.4-113,1.6-34.2-8.9-48.9-14.7-51.9l-2.7-1.1c2.8,6.5,6.1,18.5,5.2,37.5l-.1,2.4-53.2-2.4-.1-2.2c0-.1-.9-13.8-4.6-28-3.3-12.5-9.6-27.9-20.8-31.1-1.2.1-4.7.6-8,1.9-.6.2-1.2.5-1.7.7,5.1,4.5,14.5,16.3,20.3,44.8,2.4,11.7,4.7,60.3-14.7,83-6.5,7.6-14.8,11.5-24.5,11.7l-8.2,130.2,8.3,140.6-.2.5c-.1.3-13.4,33.8-14.6,75.1-1.2,39.3,4.5,84.5,4.6,84.9l.2,1.6-5.7,3.5,3.5,14.9c6.5.4,29.7,1.7,40.5-1.5l40.2-235.1,26.1,67.6-.7,1c-5.6,8.6-17.2,36.5-21,80.1-2.8,29.7-6.3,76.9-7,87.5Z"/>
      <path class="cls-12" d="M390.3,263.4s-.1,0,0,0l-35.4-1.6c-.8,0-1.4-.7-1.4-1.5s.7-1.4,1.5-1.4l35.3,1.6c.8,0,1.4.7,1.4,1.5,0,.8-.6,1.4-1.4,1.4Z"/>
      <path class="cls-12" d="M371.6,780.7c-12.9,0-22.4-2-23.1-2.2l-2-.4.2-2.1c0-.6,4.1-56.2,7.1-89.7,4.4-50.2,17.9-75.8,21.1-81.3l-18.9-48.9-37.7,220.6-1.3.5c-12.7,4.7-44.2,2.2-45.6,2.1l-1.8-.1-5.1-21.8,6-3.6c-1-8.4-5.5-48.6-4.4-84.1,1.2-39.4,13.1-71.8,14.8-76.2l-8.3-139.8,8.5-135.2,2.4.1c9.2.4,17-2.9,23-10,9.5-11.1,13-29,14.4-42.1,1.7-16.3.5-31-.7-36.8-6-29.5-16.5-41.6-21.2-43.9l-3.8-1.8,3.5-2.4c.1-.1,2.3-1.5,5.8-2.9,4.7-1.8,9.5-2.2,9.7-2.2h.4l.4.1c23.1,5.9,28.3,50.8,29.3,61.4l44,2c.7-27.2-7.5-38-7.6-38.1l-5.6-7.1,17.5,6.9c.8.4,19.6,10,17.5,56.5-1.5,32.2-.4,107.9-.4,112.5l12.3,64.2c14.3,46.1,23.1,120.6,20.6,173.4v.2l-.1.2c-8,30.9-39,126.5-42.7,138.1l7.8,11.4-4,17.6-1.3.4c-10.6,3.5-21.5,4.5-30.7,4.5ZM351.7,774.2c6.6,1.1,27.9,4,47.8-2.2l2.9-12.8-7.9-11.6.4-1.1c.3-1.1,34.4-105.8,43-138.7,2.4-52.3-6.3-126-20.5-171.6l-.1-.3-12.4-64.7v-.2c0-.8-1.1-79.8.4-113,1.6-34.2-8.9-48.9-14.7-51.9l-2.7-1.1c2.8,6.5,6.1,18.5,5.2,37.5l-.1,2.4-53.2-2.4-.1-2.2c0-.1-.9-13.8-4.6-28-3.3-12.5-9.6-27.9-20.8-31.1-1.2.1-4.7.6-8,1.9-.6.2-1.2.5-1.7.7,5.1,4.5,14.5,16.3,20.3,44.8,2.4,11.7,4.7,60.3-14.7,83-6.5,7.6-14.8,11.5-24.5,11.7l-8.2,130.2,8.3,140.6-.2.5c-.1.3-13.4,33.8-14.6,75.1-1.2,39.3,4.5,84.5,4.6,84.9l.2,1.6-5.7,3.5,3.5,14.9c6.5.4,29.7,1.7,40.5-1.5l40.2-235.1,26.1,67.6-.7,1c-5.6,8.6-17.2,36.5-21,80.1-2.8,29.7-6.3,76.9-7,87.5Z"/>
      <path class="cls-12" d="M355,549.4h-.4c-1.3-.2-2.2-1.5-2-2.8l7.4-43.9c.2-1.3,1.5-2.2,2.8-2s2.2,1.5,2,2.8l-7.4,43.9c-.2,1.2-1.2,2-2.4,2Z"/>
      <path class="cls-14" d="M458.5,366.8l45.2-80.7c1.4-2.6-.3-5.7-3.3-5.9l-50.5-2.3c-3-.1-5.8,1.4-7.2,4l-45.2,80.7c-1.4,2.6.3,5.7,3.3,5.9l50.5,2.3c3,.1,5.8-1.4,7.2-4Z"/>
      <path class="cls-6" d="M458.5,366.8l45.2-80.7c1.4-2.6-.3-5.7-3.3-5.9l-42.2-1.9c-3-.1-5.8,1.4-7.2,4l-45.1,80.7c-1.4,2.6.3,5.7,3.3,5.9l42.2,1.9c2.9.1,5.7-1.4,7.1-4Z"/>
      <path class="cls-12" d="M451.7,373.2h-.5l-50.5-2.3c-2.2-.1-4.2-1.3-5.3-3.3-1.1-1.9-1.1-4.3,0-6.2l45.2-80.7c1.9-3.4,5.5-5.4,9.4-5.3l50.5,2.3c2.2.1,4.2,1.3,5.3,3.3,1.1,1.9,1.1,4.3,0,6.2l-45.1,80.8c-1.9,3.3-5.3,5.2-9,5.2ZM449.7,280.4c-2,0-3.8,1.1-4.8,2.8l-45.2,80.7c-.4.7-.1,1.3,0,1.5s.5.7,1.3.8l50.5,2.3c2.1.1,4-1,5-2.8h0l45.2-80.7c.4-.7.1-1.3,0-1.5s-.5-.7-1.3-.8l-50.5-2.3c-.1,0-.2,0-.2,0Z"/>
      <path class="cls-14" d="M246.6,286.7c-.9,20.2-2.2,36.6.4,57.2,20.3,11,32.2,18.9,99.7,29.1,0,0,39.9,22.7,75.8,11.1,0,0,13.8-10.8,17.8-26.3l-36.4-9,5.8-8.4-22.6-3.9-26.8,13.9s-45.6-9.3-73.4-34.3c4.9-13.1,5.9-25.9,5.9-25.9"/>
      <path class="cls-12" d="M400.3,389.9c-27,0-50.9-12.6-54.4-14.5-64.4-9.8-78.1-17.3-97.2-27.7l-4-2.2-.2-1.2c-2.3-18.5-1.5-33.5-.7-50.9.1-2.2.2-4.4.3-6.7.1-1.3,1.2-2.4,2.5-2.3s2.4,1.2,2.3,2.5c-.1,2.3-.2,4.5-.3,6.7-.8,16.8-1.5,31.3.5,48.8l1.8,1c18.7,10.2,32.2,17.6,96,27.3l.4.1.4.2c.4.2,39.1,21.9,73.5,11.1,1.9-1.6,11.9-10.4,16-22.4l-37.4-9.3,5.6-8.1-18.1-3.1-26.9,13.9-.8-.2c-1.9-.4-46.5-9.7-74.5-34.9l-1.2-1.1.6-1.5c1.8-4.7,3.2-10,4.3-15.6.3-1.3,1.5-2.2,2.8-1.9,1.3.3,2.2,1.5,1.9,2.8-1,5.2-2.4,10.2-4,14.7,25.1,21.7,64.1,31.1,70.2,32.5l26.8-13.9,27.1,4.7-5.9,8.6,35.4,8.8-.6,2.4c-4.2,16.1-18.1,27.2-18.7,27.6l-.3.3-.4.1c-7.5,2.4-15.3,3.4-22.8,3.4Z"/>
      <path class="cls-12" d="M299.5,293.5l-53.1-6.3c-1.3-.2-2.3-1.4-2.1-2.7.2-1.3,1.4-2.3,2.7-2.1l49,5.8,10.6-39.4c.3-1.3,1.7-2.1,3-1.7,1.3.3,2.1,1.7,1.7,3l-11.8,43.4Z"/>
      <path class="cls-12" d="M435.1,368.1h-.3l-37.1-7.4c-.8-.2-1.3-.9-1.1-1.7.2-.8.9-1.3,1.7-1.1l37.1,7.4c.8.2,1.3.9,1.1,1.7-.1.6-.7,1.1-1.4,1.1Z"/>
      <path class="cls-12" d="M430.4,376.1h-.2l-36-5.7c-.8-.1-1.3-.9-1.2-1.7s.9-1.3,1.7-1.2l36,5.7c.8.1,1.3.9,1.2,1.7-.2.7-.8,1.2-1.5,1.2Z"/>
      <path class="cls-12" d="M424.8,383.8h-.1l-33.8-3.3c-.8-.1-1.4-.8-1.3-1.6.1-.8.8-1.4,1.6-1.3l33.8,3.3c.8.1,1.4.8,1.3,1.6-.1.7-.7,1.3-1.5,1.3Z"/>
      <path class="cls-12" d="M403.9,351.2c-.2,0-.3,0-.5-.1l-6.3-1.3c-1.3-.3-2.2-1.5-1.9-2.9.3-1.3,1.5-2.2,2.9-1.9l6.3,1.3c1.3.3,2.2,1.5,1.9,2.9-.3,1.2-1.3,2-2.4,2Z"/>
    </g>
  </g>
</svg>