<?xml version="1.0" encoding="UTF-8"?>
<svg id="Ebene_3" data-name="Ebene 3" xmlns="http://www.w3.org/2000/svg" xmlns:xlink="http://www.w3.org/1999/xlink" viewBox="0 0 1216 810">
  <defs>
    <style>
      .cls-1, .cls-2, .cls-3, .cls-4, .cls-5, .cls-6, .cls-7, .cls-8, .cls-9 {
        fill: none;
      }

      .cls-1, .cls-2, .cls-4, .cls-10, .cls-11, .cls-12, .cls-13, .cls-14, .cls-15, .cls-16, .cls-5, .cls-6, .cls-17, .cls-7, .cls-18, .cls-19, .cls-20, .cls-21, .cls-22, .cls-8, .cls-9, .cls-23, .cls-24 {
        stroke-miterlimit: 10;
      }

      .cls-1, .cls-2, .cls-4, .cls-10, .cls-11, .cls-12, .cls-13, .cls-14, .cls-15, .cls-5, .cls-6, .cls-17, .cls-7, .cls-20, .cls-21, .cls-22, .cls-8, .cls-9, .cls-23, .cls-24 {
        stroke-linecap: round;
      }

      .cls-1, .cls-2, .cls-4, .cls-11, .cls-12, .cls-13, .cls-5, .cls-6, .cls-20, .cls-21, .cls-8, .cls-9, .cls-23 {
        stroke: #454440;
      }

      .cls-1, .cls-20 {
        stroke-width: 3.71px;
      }

      .cls-2, .cls-21 {
        stroke-width: 3px;
      }

      .cls-25 {
        clip-path: url(#clippath);
      }

      .cls-3, .cls-26, .cls-27, .cls-28, .cls-29, .cls-30, .cls-31, .cls-32, .cls-33, .cls-34, .cls-35 {
        stroke-width: 0px;
      }

      .cls-26 {
        fill: #007b91;
        opacity: .7;
      }

      .cls-4 {
        stroke-width: 2.3px;
      }

      .cls-10, .cls-12, .cls-13, .cls-14, .cls-15, .cls-16, .cls-17, .cls-18, .cls-19, .cls-20, .cls-21, .cls-22, .cls-23, .cls-35, .cls-24 {
        fill: #fff;
      }

      .cls-10, .cls-14, .cls-15, .cls-16, .cls-17, .cls-7, .cls-18, .cls-19, .cls-22, .cls-24 {
        stroke: #fff;
      }

      .cls-10, .cls-16 {
        stroke-width: 16px;
      }

      .cls-11, .cls-13, .cls-5 {
        stroke-width: 4px;
      }

      .cls-11, .cls-27, .cls-30 {
        fill: #959a9f;
      }

      .cls-12, .cls-6 {
        stroke-width: 4.2px;
      }

      .cls-14, .cls-7 {
        stroke-width: 13px;
      }

      .cls-36 {
        clip-path: url(#clippath-1);
      }

      .cls-37 {
        clip-path: url(#clippath-3);
      }

      .cls-27, .cls-28 {
        opacity: .9;
      }

      .cls-28, .cls-33 {
        fill: #afcd5f;
      }

      .cls-15 {
        stroke-width: 10px;
      }

      .cls-17 {
        stroke-width: 11px;
      }

      .cls-18 {
        stroke-width: 17px;
      }

      .cls-19, .cls-24 {
        stroke-width: 14px;
      }

      .cls-22 {
        stroke-width: 12px;
      }

      .cls-8 {
        stroke-width: 2.5px;
      }

      .cls-29 {
        fill: #dedcd2;
        opacity: .6;
      }

      .cls-9 {
        stroke-width: 1.8px;
      }

      .cls-23 {
        stroke-width: 3.42px;
      }

      .cls-31 {
        fill: #454440;
      }

      .cls-32 {
        fill: #da2323;
      }

      .cls-34 {
        fill: #969ba0;
      }
    </style>
    <clipPath id="clippath">
      <polygon class="cls-3" points="982.73 566.49 903.92 569.81 896.27 596.42 93.85 596.42 93.85 -23.11 982.73 -23.11 982.73 566.49"/>
    </clipPath>
    <clipPath id="clippath-1">
      <path class="cls-3" d="M664.1,242.63l5.52,19.89,11.42,1.58,1.77-16.15,6.11,1.38-.39,8.67,5.12,8.08,25.41,5.71s1.38-19.7.79-20.09-32.5-20.29-32.5-20.29l-23.24,11.23Z"/>
    </clipPath>
    <clipPath id="clippath-3">
      <polygon class="cls-3" points="408.77 313.98 390.59 339.03 398.79 345.46 404.33 350.56 417.41 324.84 408.77 313.98"/>
    </clipPath>
  </defs>
  <rect class="cls-16" x="1012.81" y="568.82" width="13.38" height="38.57"/>
  <g>
    <path class="cls-22" d="M297.45,531.07l-116.8,4.75c-3.54.14-6.3,3.13-6.16,6.68l.09,2.27c.14,3.54,3.13,6.3,6.68,6.16l120.64-4.84c8.65,0,14.41-5.76,14.85-8.65"/>
    <polyline class="cls-15" points="205.92 550.86 162.35 663.59 152.05 663.26 196.94 545.87"/>
    <path class="cls-22" d="M986.5,349.01c-3.45,2.98-6.01,4.56-9.09,5.54-4.88,1.55-13.29,1.02-16.63-1.55-4.19-3.22-7.64-16.4-8.2-20.17-.74-4.99,1.77-9.75,1.77-9.75l-1.05-7.66c1.09-17.15,10.8-30.48,32.68-26.97,14.01,2.25,17.31,13.81,17.15,22.43-.1,5.18-2,9.31-2,9.31,1.55-.22,3.9.17,4.66,2.44,1.53,4.57-4.43,12.64-4.43,12.64l-5.08.02s-2,7.22-1.87,11.71c.27,8.8,4.63,10.8,4.63,10.8,0,0-5.14,7.74-16.88,10.26-15.25,3.27-20.69-.27-20.69-.27l1.98-13.22"/>
    <path class="cls-19" d="M1060.36,445.3h-23.66c-2.29,0-4.41.69-6.2,1.84-1.86-5.46-4.69-13.92-8.3-25.17-5.72-17.8,11.5-26.71-6.31-26.71h-70.58c-13.68,0-3.22,0-10.91,0-17.8,0-37.95,9.09-43.67,26.89-3.62,11.25-17.32,15.97-19.18,21.44-1.79-1.16-3.31,1.91-5.6,1.91h-23.66c-6.32,0-11.44,5.12-11.44,11.44l15.13,106.51c0,6.32,5.12,11.44,11.44,11.44h5.85v.32h174.82v-.32h5.85c6.32,0,11.44-5.12,11.44-11.44l16.41-106.72c0-6.32-5.12-11.44-11.44-11.44Z"/>
    <g class="cls-25">
      <rect class="cls-29" x="212.75" y="182.48" width="714.02" height="541.3" rx="73.17" ry="73.17"/>
    </g>
    <path class="cls-8" d="M450.46,252.61c.57-1.8,1.35-3.53,2.43-4.94,1.56-2.05,4.17-4.39,7.95-5.52,8.31,4.39,20.17.46,27.81,3.21,4.45,1.6,6.94,5.16,6.94,10.85,0,1.95-.89,4.98-.71,10.14.13,3.91.53,6.05.71,6.94,0,0,5.38-6.93,9.08-2.31,2.85,3.56-3.56,13.88-3.56,13.88l-4.67.93"/>
    <path class="cls-22" d="M496.44,285.79s.4,8.5,1.11,14.55c.71,6.05,1.73,11.12,1.73,11.12,0,0-3.27,3.63-9.21,7.03-8.94,5.12-19.35,3.38-19.35,3.38,0,0-.71-8.72-.04-15.66-3.74.18-9.34-1.42-9.34-1.42,0,0-3.64-3.26-8.02-11.21-3.2-5.81-3.77-9.99-3.77-13.86s2.11-7.87,2.11-7.87l-3.33-8.2s-.15-5.36,1.55-10.75"/>
    <polyline class="cls-16" points="575.62 390.92 575.62 135.38 768.57 135.38 768.57 416.77 605.57 416.77"/>
    <polyline class="cls-35" points="575.62 390.92 575.62 135.38 768.57 135.38 768.57 416.77 605.57 416.77"/>
    <polyline class="cls-1" points="575.29 377.23 575.29 135.38 768.57 135.38 768.57 416.77 648.2 416.77"/>
    <path class="cls-14" d="M553.64,520.51s27.62-.59,39.58,15.32c5.98,7.95,10.47,14.51,12.41,23.34s1.33,19.95,1.33,19.95c0,0-37.63-.43-49.59-16.34-11.96-15.9-3.73-42.28-3.73-42.28Z"/>
    <path class="cls-7" d="M627.06,490s15.97,17.44,12.49,34.12c-3.48,16.67-25.1,26.26-25.1,26.26,0,0-15.97-17.44-12.49-34.12,3.48-16.67,25.1-26.26,25.1-26.26Z"/>
    <path class="cls-13" d="M447.36,475.37s-29.32,176.94-29.71,180.69c-.73,7.05-9.92,5.15-8.52-1.23,1.4-6.38,28.71-177.46,28.71-177.46"/>
    <path class="cls-10" d="M796.38,490.91l20.42-1.61s-24.56-84.88-28.46-163.26c-.97-19.54-4.63-43.77-9.5-57.84l19.09-29.5s-19.25-19.86-22.29-29.04c-3.04-9.18-2.78-14.85-8.89-18.33-15.17-8.67-32.29-2.85-36.74,3.02-2.5,3.3-.32,7.47-.32,7.47,8.59-1.75,18.66-2.84,27.51,1.59,3.82,1.91,4.45,4.45,5.25,7.95.39,1.7,1.59,6.04,3.18,7.47,0,0,.49-3.84,2.54-5.41,1.67-1.27,4.38-.91,5.41.95,2.87,5.23-1.43,14.79-1.43,14.79l-5.73,2.39s-4.98,18.45-2.52,27.35c-7.1,2.92-18.85,8.66-25.24,16.69-9.55,12.02-17.18,31.51-19.57,38.08s-10.32,32.74-11.39,97.52c-.33,19.73,2.85,86.48,2.85,86.48l13.05-1.03,14.72,100.48,25.62,2.14,59.16-3.96-3.1-12.41s-4.81-24.2-14.42-49.29c-3.36-8.76-6.52-25.12-9.21-42.7Z"/>
    <path class="cls-13" d="M723.68,327.23l16.44,16.42-.37-38.32s-19.78-10.25-33.3-23.11c-1.51-1.43-3.26-4.22-3.74-6.5-1.16-5.49,1.35-9.19.85-12.51-.5-3.33-5.89-9.92-7.15-10.97-1-.83-9.27,3.59-9.27,3.59,0,0-1.35-1.54-1.67-1.7-1.94-1-4.27-.17-3.94,2.49.14,1.13,1.04,4.5,2.21,8.4.11,4.63,1.37,11.31,4.17,15.43,3.2,4.7,7.98,6.54,7.98,6.54l17.79,25.44"/>
    <g class="cls-36">
      <line class="cls-13" x1="671.98" y1="253.07" x2="709.21" y2="264.89"/>
    </g>
    <g>
      <path class="cls-17" d="M313.06,298.46l-.06-5s1.55-1.54,3.1-3.86,1.77-10.64,1.77-10.64l-18.84-5.32-14.63,16.85,8.07,9.58c12.88.29,20.59-1.6,20.59-1.6Z"/>
      <path class="cls-14" d="M433.24,413.84l-18.61-6.89-33.28,17.78c-15.68,1.47-42.13,3.07-59.42-.35l8.17-8.54-6.51-8.6,1.28-.87,15.01-3.7,9.25,4.98,5.69-1.07,6.41-3.56-3.91-8.54,3.56-2.49-3.56-8.19s-13.24-3.11-21.35-2.49-18.51,8.54-18.51,8.54l-5.23,2.37-4.76-6.29-8.27-37.73s-3.73-14.05-9.5-29.57c-1.19-3.21-5.15-8.71-8.2-11.86l7.21-6.32s19.4-1.91,19.51-2c.32-.25,2.33-7.09,2.33-7.09l-2.51-7.53c5.74,3.07,10.38.83,10.38.83l-.37-5.64s1.61-.37,3.2-.93c2.27-.8,4.54-2.8,4.54-2.8l-8.86-12.79,3.39-6.83c-.21-2.16-2-18.4-2-18.4,0,0,6.65-6.21-.22-15.08-5.19-6.7-13.49-4.12-18.18-5.32-3.11-.8-3.02-5.9-13.97-4.21-7.45,1.15-8.63,6.6-14.85,8.2-4.39,1.13-9.18,2.23-12.41,4.66-10.64,7.98-6.92,24.77-5.76,29.49,2.61,10.64,4.76,16.48,5.54,18.62l-5.51,14.29c-1.87-1-3-1.56-3-1.56l-6.2,11.71-6.2,3.45c-9.25,5.52-22.43,14.31-29.29,31.7-9.52,24.16-12.08,67.99-16.54,99.23-7.16,50.16-12.92,75.96-12.92,75.96.69,24.12,16.54,26.19,16.54,26.19,0,0,.38-.09,1.33-.37,1.12.99,5.76,3.74,32.16,3.74,23.33,0,47.66.42,54.17.26,3.42-.06,26.89,2.99,36.2,3.65,9.39.67,13.84,3.35,17.18,2.99-5.38,12.68-10.97,53.46-12.53,76.6-1.13,16.9-2.22,38.57-2.22,38.57,0,0,4.43,2.66,13.3,3.55,8.09.81,13.42,2.62,21.62.66,6.16.88,11.22,1.7,18.84-.66,9.64-2.99,11.42-13.52,11.42-13.52-.04-.15-2.66-7.32-2.66-7.32,0,0,1.68-24.41,7.09-49.66,3.7-17.26,8.44-46.55,9.75-50.55,6.54-19.95,5.56-39.33-10.64-45.56-12.97-4.99-42.83-9.75-67.39-12.97-8.11-1.06-15.36-1.76-21.87-2.17l-.85-3.41-11.2-7.86.84-13.46,3.04-2.92c7.96.51,16.82.8,24.42.36,41.98-2.46,65.43-12.74,65.43-12.74,0,0,1.73.54,9.61.36,12.42-.29,24.91-12.1,24.91-12.1,0,0,9.61,1.42,15.3.71,5.69-.71,7.12-7.47,7.12-7.47l-6.48-9.46Z"/>
    </g>
    <path class="cls-14" d="M565.73,626.35s22.05-108.02,20.63-127.95c-1.42-19.93-34.77-27.87-48.3-30.71l-57.34-3.68c-5.1-1.08-9.94-1.67-14.09-1.72l-52.76.89s-5.77,9.95-4.04,27.39c1.82,18.28,9.8,26.34,9.8,26.34h56.98l31.7,111.21s.34.14,1.08.31c.7,2.45,1.6,8.52-.53,21.53-.82,4.99,28.27,1,28.27,1,0,0,8.84,8.2,2.33-4.32-2.46-4.73-4.59-12.94-5.98-19.18,4.43-.6,7.64-1.1,7.64-1.1,0,0-.03-.25-.09-.73,2.12.39,4.07.67,5.41.73,10.64.44,19.29,0,19.29,0ZM534.91,566.93c-.11.74-.23,1.54-.35,2.41-.46-4.16-.93-8.51-1.43-13.05-1.8-16.6-2.96-29.2-4.1-39.11l.11.09h14.95s-5.19,23.5-9.18,49.66Z"/>
    <path class="cls-15" d="M576.37,656.61s-1.29-1.24-3.28-2.81c-2.45-1.94-5.95-5.39-9.36-11.16-5.32-8.98-2-19.95-2-19.95l-15.37-11.29-22.54,7.3,9.31,36.58,31.92,4.66,11.31-3.33Z"/>
    <path class="cls-27" d="M553.98,662.03c-51.04,0-90.01,4.22-108.82,9.66-35.05-3.08-79.22-4.92-127.21-4.92-113.96,0-206.33,10.35-206.33,23.11s92.38,23.11,206.33,23.11c106.47,0,194.09-9.03,205.15-20.63,8.77.36,17.96.56,27.45.56,59.9,0,108.45-7.69,108.45-17.17s-45.11-13.73-105.01-13.73Z"/>
    <path class="cls-35" d="M347.91,684.11l6.99.43s22.03,3.25,37.13.89c10.64-1.66,17.29-4.66,17.29-4.66,0,0,2.33-11.31-11.64-12.3-3.75-.27-10.81-.8-14.3-1.66-10.46-2.57-15.96-7.32-20.62-12.3-4.14-4.43-8.21-13.77-8.21-13.77l-25.98,10.94s-1.95-4.37-4.11,3.61-4.32,27.1-4.32,27.1l27.76,1.73Z"/>
    <path class="cls-12" d="M322.47,666.08c-1.31,6.1-2.33,16.29-2.33,16.29l16.96,1.05"/>
    <path class="cls-31" d="M370.41,650.07c-.04-.15-2.66-7.32-2.66-7.32,0,0,1.68-24.41,7.09-49.66,3.7-17.26,8.44-46.55,9.75-50.55,6.54-19.95,5.56-39.33-10.64-45.56-12.97-4.99-42.83-9.75-67.39-12.97-63.52-8.31-75.15,5.67-77.18,5.86l-.33.03-24.82,11.09-.2.16c-2.52,2-14.41,6.98-14.75,16.11-.06,1.63,6.19,15.87,7.32,16.9,1.01.94,5.32,3.79,32.22,3.79,23.33,0,47.66.42,54.17.26,3.42-.06,26.89,2.99,36.2,3.65,9.39.67,13.84,3.35,17.18,2.99-5.38,12.68-10.97,53.46-12.53,76.6-1.13,16.9-2.22,38.57-2.22,38.57,0,0,4.43,2.66,13.3,3.55s14.3-2.66,23.94-5.65c9.64-2.99,11.53-7.87,11.53-7.87Z"/>
    <path class="cls-14" d="M502.72,293.76c2.84-1.11,4.44-1.75,5.43-5.34,3.42-12.39,8.33-30.08-4.69-46.16-11.62-14.34-32.1-11.27-39.22-7.36-9.82,5.4-13.37,10.38-14.3,22.28s35.25,37.77,35.25,37.77"/>
    <path class="cls-24" d="M956.68,448.62h-37.54c-3.87,0-7.74-2.7-8.65-6.04l-14.41-52.73c-.91-3.34,1.48-6.04,5.35-6.04h37.54c3.87,0,7.74,2.7,8.65,6.04l14.41,52.73c.91,3.34-1.48,6.04-5.35,6.04Z"/>
    <path class="cls-24" d="M953.51,360.98c-9.06,1.02-26.81,3.51-33.97,7.88-9.8,5.99-27.23,37.84-27.23,37.84,0,0-19.33,13.89-25.86,19.06-6.53,5.17-13.61,30.91,12.53,30.32,9.88-.22,28.6-7.54,28.6-7.54l4.66,22.39,65.03,47.39,38.12,1.09,10.35-62.62s25.86-.27,31.04-3.54c0,0,2.99-13.61-1.09-34.85-4.08-21.24-12.84-47.58-23.69-55.27-11.9-8.44-51-5.18-66.52-3.49"/>
    <path class="cls-13" d="M802.61,594.98c2.88,4.88,1.55,7.6,1,12.75l23.94-9.31s.02-6.07-3.99-7.76c-6.32-2.66-7.21-6.54-8.76-11.08-2.68-7.86-2.77-12.64-2.77-12.64l-16.41,12.41"/>
    <path class="cls-15" d="M614.39,550.36s-2.78,9.98-3.44,20.45"/>
    <rect class="cls-14" x="402.53" y="517.26" width="144.67" height="14.57" rx="6" ry="6"/>
    <path class="cls-27" d="M1095.13,633c0-12.22-34.73-13.75-119.94-13.75-27.34,0-146.19,1.33-192.87,1.33-98.94,0-152.41,25.72-5.23,25.72,14.12,0,27.83-.18,41.01-.51-13.36,3.62-21.38,8.25-21.38,13.28,0,11.64,42.76,21.07,95.52,21.07s95.52-9.43,95.52-21.07c0-1.59-.82-3.14-2.34-4.63,79.6-.88,109.71-9.81,109.71-21.45Z"/>
    <path class="cls-23" d="M745.41,605.28c0,1.55.22,3.55-1.22,5.43-2.89,3.78-9.91,7.38-14.63,10.75-6.21,4.43,23.72,1.29,23.72,1.29l11.75.04s4.54,1.88,4.54-7.21c-1.7-3.03-3.23-7.1-4.21-10.64-1.45-5.25-1.99-11.45-2.48-17.43l-19.75,4.27"/>
    <rect class="cls-13" x="409.53" y="517.26" width="139.01" height="14.48" rx="5.87" ry="5.87"/>
    <path class="cls-35" d="M553.64,520.51s27.62-.59,39.58,15.32c11.96,15.9,3.73,42.28,3.73,42.28,0,0-27.62.59-39.58-15.32-11.96-15.9-3.73-42.28-3.73-42.28Z"/>
    <path class="cls-35" d="M627.06,490s15.97,17.44,12.49,34.12c-3.48,16.67-25.1,26.26-25.1,26.26,0,0-15.97-17.44-12.49-34.12,3.48-16.67,25.1-26.26,25.1-26.26Z"/>
    <polygon class="cls-7" points="638 599.08 555.44 596.2 555.44 570.98 642.21 570.98 638 599.08"/>
    <path class="cls-33" d="M559.08,521.39s22.84-1.4,34.8,14.5c11.96,15.9,2.22,43.01,2.22,43.01,0,0-21.33.67-33.29-15.24-11.96-15.9-3.73-42.28-3.73-42.28Z"/>
    <path class="cls-2" d="M553.64,520.51s27.62-.59,39.58,15.32c11.96,15.9,3.73,42.28,3.73,42.28,0,0-27.62.59-39.58-15.32-11.96-15.9-3.73-42.28-3.73-42.28Z"/>
    <line class="cls-2" x1="695.42" y1="606.39" x2="706.13" y2="606.39"/>
    <line class="cls-2" x1="467.96" y1="606.39" x2="687.44" y2="606.39"/>
    <line class="cls-2" x1="449.34" y1="606.39" x2="459.31" y2="606.39"/>
    <path class="cls-33" d="M630.1,494.54s13.27,15.38,9.87,32.07c-1.9,9.3-24.48,23.91-24.48,23.91,0,0-12.28-14.02-8.79-30.69,3.48-16.67,23.41-25.29,23.41-25.29Z"/>
    <line class="cls-21" x1="627.06" y1="490" x2="614.45" y2="550.38"/>
    <line class="cls-21" x1="553.64" y1="520.51" x2="596.95" y2="578.11"/>
    <path class="cls-2" d="M627.06,490s15.97,17.44,12.49,34.12c-3.48,16.67-25.1,26.26-25.1,26.26,0,0-15.97-17.44-12.49-34.12,3.48-16.67,25.1-26.26,25.1-26.26Z"/>
    <polygon class="cls-35" points="637.67 605.47 558.43 605.47 555.44 570.98 642.21 570.98 637.67 605.47"/>
    <polygon class="cls-2" points="636.89 606.47 560.76 606.47 555.44 570.98 642.21 570.98 636.89 606.47"/>
    <polygon class="cls-35" points="276.72 233.25 267.47 253.18 250.03 295.18 279.21 312.62 287.04 301.59 312.31 299.81 312.67 294.11 317.65 283.44 318.36 278.45 325.12 275.25 316.23 261.01 321.21 254.61 315.16 227.92 276.72 233.25"/>
    <path class="cls-13" d="M752.02,270.98l17.12-9.68s-2.5-14-.95-23.54c14.95-6.2,9.05-23.91,8.75-25.45-.53-2.67-19.99-27.76-38.15-20.29,0,0-8.55,5.88-10.15,13.89l-1.6,8.01.88,7.58s-1.11,6.89-.8,9.88c.61,5.97,7.21,13.88,7.21,13.88l9.16.8,5.14,14.48"/>
    <path class="cls-35" d="M713.81,430.03l25.59,166.57,26.16-.53s-.51-7.35-.79-61.06c-.28-53.72,6.61-106.18,6.61-106.18l-57.56,1.21Z"/>
    <path class="cls-13" d="M761.04,520.38l34.58,73.6s4.64-5.66,11.08-8.42,13.3-3.1,13.3-3.1c0,0-4.43-23.06-11.08-43.9-6.65-20.84-13.3-39.9-13.3-39.9l-7.67-77.52-46.43,2.59,19.51,96.66Z"/>
    <path class="cls-35" d="M755.31,422.41l-42.07,3.51,25.18,172.94s6.21,1.33,13.75,1.33,14.63-1.33,14.63-1.33c0,0,5.56-45.4.89-76.26-2.22-14.63-3.99-22.61-3.99-22.61l1.77-43.45-10.16-34.12Z"/>
    <path class="cls-34" d="M763.69,525.95l31.91,67.36s5.61-5.66,12.06-8.42,12.91-2.58,12.91-2.58c0,0-4.97-22.75-11.62-43.59-6.65-20.84-13.24-39.71-13.24-39.71l-2.77-79.88-46.43,2.59,17.18,104.23Z"/>
    <path class="cls-5" d="M796.21,500.36c-.38-1.11-.59-1.71-.59-1.71l-7.67-77.52-46.43,2.59,19.51,96.66,34.58,73.6s4.64-5.66,11.08-8.42,13.3-3.1,13.3-3.1c0,0-4.43-23.06-11.08-43.9-5.47-17.14-10.94-33.08-12.71-38.2"/>
    <path class="cls-34" d="M760.3,422.35l-39.15,4.33,24.23,173.14s4.25.31,11.78.31,9.5-1.35,9.5-1.35c0,0,6.29-44.36,1.61-75.23-2.22-14.63-4.84-24.54-4.84-24.54l7.03-42.55-10.16-34.12Z"/>
    <path class="cls-5" d="M724.02,505.3l14.41,93.55s6.21,1.33,13.75,1.33,14.63-1.33,14.63-1.33c0,0,5.56-45.4.89-76.26-2.22-14.63-3.99-22.61-3.99-22.61l1.77-43.45-10.16-34.12-42.07,3.51,9.04,62.06"/>
    <path class="cls-35" d="M769.81,256.7s-5.2-.61-13.65,6.06c-8.42,6.65-16.31,17.26-19.51,21.28-9.55,12.02-17.92,29.33-19.95,38.57-1.5,6.83-8.55,23.8-8.99,88.58-.33,48.43,2.85,86.48,2.85,86.48l106.24-8.39s-24.56-84.88-28.46-163.26c-1.52-30.47-9.56-72.32-18.53-69.33Z"/>
    <path class="cls-26" d="M771.96,257.61s-2.1.37-21.68,19.24c-8.18,7.88-22.25,29.48-27.6,48.22-6.21,21.73-7.98,48.92-7.98,85.8,0,34.14,2.99,85.8,2.99,85.8l97.51-8.42s-26.56-129.67-27.76-160.15c-1.2-30.48-6.52-73.46-15.48-70.47Z"/>
    <path class="cls-5" d="M708.05,396.89c-.05,2.82-.32,11.28-.34,14.31-.33,48.43,2.85,86.48,2.85,86.48l106.24-8.39s-24.56-84.88-28.46-163.26c-1.52-30.47-9.56-72.32-18.53-69.33,0,0-5.2-.61-13.65,6.06-8.42,6.65-16.31,17.26-19.51,21.28-9.55,12.02-17.92,29.33-19.95,38.57-1.24,5.65-6.27,18.22-8.23,59"/>
    <path class="cls-31" d="M799.37,237.3c-.19-.2-18.96-19.63-21.83-28.27-.75-2.28-1.31-4.37-1.8-6.23-1.51-5.7-2.71-10.2-7.99-13.22-15.36-8.78-33.84-3.68-39.32,3.55-3.23,4.26-.61,9.39-.5,9.61l.7,1.33,1.47-.3c7.74-1.58,17.71-2.84,26.22,1.42,2.91,1.46,3.39,3.08,4.19,6.61.34,1.5,1.62,6.57,3.79,8.52l2.84,2.56.48-3.8c.12-.94.73-3.27,1.77-4.07.39-.3.97-.42,1.51-.3.25.05.7.2.93.63,1.79,3.25-.05,9.42-1.2,12.3l-5.88,2.45-.26.95c-.7,2.58-6.63,25.4-.53,32.37,3.44,3.94,11.13,9.6,11.45,9.84l1.71,1.26,23.34-36.06-1.11-1.14Z"/>
    <path class="cls-13" d="M753.8,243.04s-5.78,3.83-13.61,2.76"/>
    <path class="cls-24" d="M402.23,405.23s18.51-73.68,35.01-86.56l16.02-2.49,8-6.28,3.92-2.98,23.26-3.94,4.32-1.4,13.52,1.6c3.92,3.25,11.9,10.73,11.9,10.73,0,0,23.47,8.24,26.69,15.1,3.36,7.16,9.66,30.66,12.32,53.27l-16.29,77.15-127.7.33-10.97-54.54Z"/>
    <path class="cls-24" d="M392.25,435.49c6.07.98,20.06-7.56,20.06-7.56,0,0-1.36-5.92-5.54-21.5s-8.46-28.55-8.46-28.55l4.7-12.68s.02-5.21.22-9.53c.22-4.66,3.77-11.75,3.77-11.75,0,0-.67-1.33-2.66-1.33s-3.33-.22-3.33-.22l.44-3.55s-3.33-2.83-7.54-.75-14.96,10.31-14.96,10.31c0,0-2.77,9.42-.55,17.04s6.65,11.97,6.65,11.97c0,0,.89,21.95,2.88,35.25s4.32,22.86,4.32,22.86Z"/>
    <path class="cls-12" d="M550.28,673.48l1.48-8.23c5.65,4.66,6.56,9.68,21.95,10.31,12.13.49,22.77-1.17,22.77-1.17l.67-8.31s-11.02-3.41-13.65-4.72c-4.1-2.05-14.26-8.29-20.43-18.72-5.32-8.98-2.66-20.95-2.66-20.95l-14.04-10.3"/>
    <path class="cls-35" d="M495.6,273.29s5.38-6.93,9.08-2.31c2.85,3.56-3.56,13.88-3.56,13.88l-4.67.93s.4,8.5,1.11,14.55c.71,6.05,1.73,11.12,1.73,11.12,0,0-3.27,3.63-9.21,7.03-8.94,5.12-19.35,3.38-19.35,3.38,0,0-.71-8.72-.04-15.66-3.74.18-9.34-1.42-9.34-1.42,0,0-2.54-2-7.47-9.61-4.13-6.36-4.27-9.08-4.27-12.95s1.73-8.94,1.73-8.94l-2.44-9.64s1.15-12.43,4-15.99c1.61-2.01,4.17-4.39,7.95-5.52,8.31,4.39,20.17.46,27.81,3.21,4.45,1.6,6.94,5.16,6.94,10.85,0,1.95-.89,4.98-.71,10.14.13,3.91.53,6.05.71,6.94Z"/>
    <path class="cls-33" d="M559.74,412.19s-3.93-57.83-15.96-83.8c-5-10.79-30.49-12.68-37.58-24.28l-14.3-2-18.37,1.6-6.41,1.22-13.97,11.64-7.95.38s-8.48,9.64-14.13,23.28-13.66,37.36-13.66,37.36l-10.64,31.92-10.64,37.91,148.68,30.22s17.83-36.58,14.93-65.47Z"/>
    <path class="cls-5" d="M480.81,459.84l68.66,18.22s8.97-18.84,9.59-54.8c.18-10.66-.54-23.28-1.89-35.9"/>
    <path class="cls-5" d="M506.95,304.11s-18.34,22.87-37.24,17.73c-12.02-3.27-3.65-14.02-3.65-14.02"/>
    <path class="cls-5" d="M518.96,360.85s-.35,18.04,1.76,36.71"/>
    <path class="cls-8" d="M440.69,330.59s-1.26,15.81,3.99,24.4"/>
    <path class="cls-13" d="M459.47,356.3s3.68-1.25,8.29-1.84c6.24-.8,9.67,0,9.67,0l7.48,4.19s-.39-3.14,1.57-5.1,4.71-.79,4.71-.79c0,0,2.16,7.93,4.71,13.35,3.14,6.68,3.51,12.75,3.51,12.75,0,0,13.83,13.16,22.62,17.61,13.29,6.73,26.07,11.57,26.07,11.57l-17.73,28.37s-13.11-5.81-19.11-13.35c-14.27-17.96-17.5-30.16-17.5-30.16,0,0-12.63-1.84-15.77-10.47-1.29-3.55-2.99-7.37-7.48-9.32-2.39-1.04-5.74-.97-6.33-1.04-4.07-.48-5.98-1.57-5.98-5.96s1.27-9.81,1.27-9.81Z"/>
    <path class="cls-3" d="M415.52,469.93s-4.27,8.54-5.69,20.64c-1.42,12.1,5.69,26.34,5.69,26.34h56.94l39.69,121.34s6.94,2.67,17.08,3.74c7.98.84,20.1-.51,20.1-.51l-22.07-122.43h14.95l-3.37,61.01"/>
    <path class="cls-12" d="M559.41,668.58s-13.44-9.42-19.95-21.95c-4.32-8.31-7.65-27.41-7.65-27.6l-23.28,3.66.33,4.32c0,.08,2.99,4.66,0,22.95-.82,4.99,1.45,12.3,2.99,17.62s2.99,9.98,2.99,9.98h5.99v-6.65l6.65,6.65c10.64,8.65,32.26,1.33,32.26,1.33l-.33-10.31Z"/>
    <path class="cls-3" d="M415.52,469.93s-4.27,8.54-5.69,20.64c-1.42,12.1,5.69,26.34,5.69,26.34h56.94l39.69,121.34s6.94,2.67,17.08,3.74c7.98.84,20.1-.51,20.1-.51l-22.07-122.43h14.95l-3.37,61.01"/>
    <path class="cls-11" d="M529.15,517.27h14.95s-5.19,23.5-9.18,49.66c-2.21,14.5-5.76,56.09-5.76,56.09,0,0,12.55,3.13,17.29,3.33,10.64.44,19.29,0,19.29,0,0,0,22.05-108.02,20.63-127.95-1.42-19.93-34.77-27.87-48.3-30.71l-77.19-4.95,68.28,54.54Z"/>
    <path class="cls-35" d="M413.87,463.18s-5.77,9.95-4.04,27.39,9.8,26.34,9.8,26.34h56.98l31.7,111.21s3.98,1.7,15.96.44c8.42-.89,16.85-2.22,16.85-2.22,0,0-3.26-26.51-7.98-70.06-3.99-36.8-4.83-53.96-9.31-65.62-6.65-17.29-38.81-28.19-57.2-28.38l-52.76.89Z"/>
    <path class="cls-30" d="M420.41,463.18s-5.77,9.95-4.04,27.39,9.8,26.34,9.8,26.34h56.98l31.7,111.21s2.43,1.7,14.41.44c8.42-.89,11.2-2.22,11.2-2.22,0,0-3.26-26.51-7.98-70.06-3.99-36.8-4.83-53.96-9.31-65.62-6.65-17.29-33.16-28.19-51.54-28.38l-51.21.89Z"/>
    <path class="cls-5" d="M413.87,463.18s-5.77,9.95-4.04,27.39,9.8,26.34,9.8,26.34h56.98l31.7,111.21s3.98,1.7,15.96.44c8.42-.89,16.85-2.22,16.85-2.22,0,0-3.26-26.51-7.98-70.06-3.99-36.8-4.83-53.96-9.31-65.62-6.65-17.29-38.81-28.19-57.2-28.38l-52.76.89Z"/>
    <path class="cls-5" d="M403.89,399.91s17.96-69.5,33.34-81.24l16.02-2.49,8-6.28,3.92-2.98,23.26-3.94,4.32-1.4,13.52,1.6c4.41,3.59,11.9,10.9,11.9,10.9,0,0,23.17,7.43,26.69,14.93,3.36,7.16,7.34,24.2,11.33,48.36"/>
    <path class="cls-18" d="M1060.08,445.3h.84c-2.29,0-4.41.69-6.2,1.84-1.86-5.46-4.69-13.92-8.3-25.17-5.72-17.8-12.72-28.57-30.52-28.57h-70.58c-13.68,0-15.85-.28-23.55-.28-17.8,0-20.44,13.9-26.16,31.7-3.62,11.25-22.19,13.31-24.05,18.78-1.79-1.16-3.31,1.91-5.6,1.91h-25.22c-6.32,0-11.97,3.7-10.97,13.01s15.63,101.31,15.63,101.31c0,6.32,4.65,14.3,10.97,14.3l13.3.35s2.33,10.6,3.66,19.58,2.66,15.96,2.66,15.96l32.59-.67-.67-34.14h85.09l50.66-.32c6.32,0,11.44-5.12,11.44-11.44l16.41-106.72c0-6.32-5.12-11.44-11.44-11.44Z"/>
    <path class="cls-8" d="M321.14,676.56s7.37.61,16.57,1.24"/>
    <path class="cls-13" d="M1026.02,575.23v51.51s-2.72,1.27-7.04,1.27-6.31-1.27-6.31-1.27v-51.51"/>
    <path class="cls-12" d="M349.53,654.44s-3.12,1.99-5.39,9.82-1.27,8.98-1.33,12.64-.55,9.98-.55,9.98l32.81,1.66s22.81,2.03,37.91-.33c10.64-1.66,17.29-4.66,17.29-4.66,0,0,2.33-11.31-11.64-12.3-3.75-.27-10.81-.8-14.3-1.66-10.46-2.57-15.96-7.32-20.62-12.3-4.14-4.43-8.21-13.77-8.21-13.77l-25.98,10.94Z"/>
    <path class="cls-5" d="M148.11,498.93s6.12,24.86,7.88,33.66c1.09,5.44,6.15,13.29,15.25,13.29h24.64"/>
    <path class="cls-5" d="M159.9,517.71c1.05,4.45,2.09,8.95,2.61,11.54.8,4.01,4.53,9.8,11.24,9.8h18.16"/>
    <path class="cls-12" d="M322.3,408.12l-26.08,17.78-13.96-20.06,35.21-15.99s10.39-7.92,18.51-8.54c8.12-.62,21.35,2.49,21.35,2.49l3.56,8.19-3.56,2.49,3.91,8.54-6.41,3.56-5.69,1.07-9.25-4.98-10.49,2.66"/>
    <path class="cls-35" d="M614.91,461.66h-91.73c-7.19,0-11.51-5.47-9.65-12.22l15.84-55.65c2-7.32,5.45-9.17,12.64-9.17h96.66c7.19,0,9.17,3.98,7.32,10.73l-14.7,54.1c-1.86,6.75-9.19,12.22-16.38,12.22Z"/>
    <path class="cls-5" d="M614.91,461.66h-91.73c-7.19,0-11.51-5.47-9.65-12.22l15.84-55.65c2-7.32,5.45-9.17,12.64-9.17h96.66c7.19,0,9.17,3.98,7.32,10.73l-14.7,54.1c-1.86,6.75-9.19,12.22-16.38,12.22Z"/>
    <path class="cls-32" d="M618.45,465.87h-91.73c-7.19,0-11.51-5.47-9.65-12.22l16.51-57.42c2-7.32,4.66-7.4,9.53-7.4h99.1c7.19,0,4.08,4.64,2.22,11.39l-14.85,54.76c-1.86,6.75-3.93,10.9-11.12,10.9Z"/>
    <path class="cls-5" d="M614.91,461.66h-91.73c-7.19,0-11.51-5.47-9.65-12.22l15.84-55.65c2-7.32,5.45-9.17,12.64-9.17h96.66c7.19,0,9.17,3.98,7.32,10.73l-14.7,54.1c-1.86,6.75-9.19,12.22-16.38,12.22Z"/>
    <path class="cls-13" d="M297.45,531.07l-116.8,4.75c-3.54.14-6.3,3.13-6.16,6.68l.09,2.27c.14,3.54,3.13,6.3,6.68,6.16l120.64-4.84c8.65,0,14.41-5.76,14.85-8.65"/>
    <rect class="cls-13" x="94.34" y="453.76" width="104.45" height="14.59" rx="5.75" ry="5.75" transform="translate(-279.01 691.13) rotate(-100.76)"/>
    <rect class="cls-13" x="266.05" y="453.55" width="410.42" height="14.15"/>
    <path class="cls-12" d="M285.73,302.45l3.1-2.44s7.1.19,14.58-.2c4.48-.24,9.64-1.35,9.64-1.35l-.06-5,1.72-2.28"/>
    <path class="cls-6" d="M308.04,283.84c5.74,3.07,10.38.83,10.38.83l-.37-5.64s1.61-.37,3.2-.93c2.27-.8,4.54-2.8,4.54-2.8l-8.86-12.79,3.39-6.83c-.34-3.5-3.03-22.07-3.03-22.07-26.31-17.96-51.91-20.32-63.74,4.86,1.15,10.36,6.09,33.58,6.09,33.58l-8.98,21.29,18.23,36.73,10.91-17.76"/>
    <path class="cls-13" d="M471.92,452.16h-47.98c-3.84,0-6.12-2.73-5.1-6.1l16.38-53.66c1.03-3.37,4.98-6.1,8.82-6.1h47.98c3.84,0,6.12,2.73,5.1,6.1l-16.38,53.66c-1.03,3.37-4.98,6.1-8.82,6.1Z"/>
    <path class="cls-13" d="M389.64,425.99c1.69,9.44,2.61,9.5,2.61,9.5,6.07.98,20.06-7.56,20.06-7.56,0,0-1.36-5.92-5.54-21.5s-8.46-28.55-8.46-28.55l4.7-12.68s.02-5.21.22-9.53c.22-4.66,3.99-11.53,3.99-11.53,0,0-.89-1.55-2.88-1.55s-3.1-.22-3.1-.22l1.11-3.33s-4.21-3.05-8.43-.97-14.96,10.31-14.96,10.31c0,0-2.77,9.42-.55,17.04s6.65,11.97,6.65,11.97c0,0,.44,17.96,2.88,35.25"/>
    <path class="cls-13" d="M374.87,444.31c0,.1-.03.19-.03.29,0,4.63,3.33,8.39,7.44,8.39h91.1c4.11,0,7.44-3.76,7.44-8.39,0-.1-.02-.19-.03-.29h-105.92Z"/>
    <path class="cls-31" d="M386.82,650.07c-.04-.15-2.66-7.32-2.66-7.32,0,0,1.68-24.41,7.09-49.66,3.7-17.26,8.44-46.55,9.75-50.55,6.54-19.95,5.56-39.33-10.64-45.56-12.97-4.99-42.83-9.75-67.39-12.97-63.52-8.31-75.15,5.67-77.18,5.86l-.33.03-24.82,11.09-.2.16c-2.52,2-24.65,19.8-24.99,28.93-.06,1.63.5,3.05,1.62,4.08,1.01.94,1.05.15,46.08,1.06,23.32.47,47.36.16,53.87,0,3.42-.06,29.26,5.99,38.57,6.65,9.39.67,13.84,3.35,17.18,2.99-5.38,12.68-10.97,53.46-12.53,76.6-1.13,16.9-2.22,38.57-2.22,38.57,0,0,2.99,2.33,11.86,3.21s15.85,3.33,25.49.33c9.64-2.99,11.42-13.52,11.42-13.52Z"/>
    <path class="cls-12" d="M321.64,425.16c22.28,2,46.56.8,59.72-.43l33.28-17.78,18.61,6.89,6.48,9.46s-1.42,6.76-7.12,7.47c-5.69.71-15.3-.71-15.3-.71,0,0-12.49,11.81-24.91,12.1-7.88.19-9.61-.36-9.61-.36,0,0-23.45,10.28-65.43,12.74-19.27,1.13-46.7-2.46-46.7-2.46l-1.41-16.89,19.98-21.36c.78,0,18.43,6,26.18,8.65"/>
    <path class="cls-31" d="M307.56,235.49c-5.07-.4-14.77,2.85-14.77,2.85,0,0,5.38,7.15,3.15,19.12-1.52,8.15-6.76,9.34-6.76,9.34,0,0-6.41-17.88-13.52-14.68-4.83,2.17-.9,18.08-.9,18.08,0,0,.8,2.66-2.3,5.76-3.1,3.1-14.59,1.78-14.59,1.78,0,0-2.73-6.92-5.96-20.11-1.16-4.72-3.07-10.23-2.18-17.53.76-6.22,2.64-11.21,8.01-15.66,3.11-2.58,7.62-3.85,12.01-4.98,6.23-1.6,7.32-7.3,14.77-8.45,10.94-1.69,13.26,3.83,16.37,4.63,4.69,1.21,12.9-1.07,18.24,5.52,8.34,10.29-.76,18.86-.76,18.86,0,0-5.73-4.13-10.8-4.53Z"/>
    <path class="cls-35" d="M178.79,508.41s5.76-25.8,12.92-75.96c4.46-31.24,7.02-75.07,16.54-99.23,6.85-17.38,20.04-26.18,29.29-31.7l6.2-3.45,6.2-11.71s31.35,14.98,38.44,29.62c4.3,8.88,10.83,32.23,10.83,32.23l8.27,37.73,22.62,29.9-30.96,32.39-9.25,8.9-.84,13.46,11.2,7.86,2.07,8.27s-51.17,25.84-75.97,36.18c-24.81,10.34-31.01,11.71-31.01,11.71,0,0-15.85-2.07-16.54-26.19Z"/>
    <path class="cls-26" d="M186.96,508.96s5.81-24.99,12.97-75.15c4.46-31.24,7.44-77.6,16.96-101.76,6.85-17.38,32.26-29.49,32.26-29.49l6.65-12.41s33.63,19.73,35.69,29.37c2.07,9.65,8.42,31.04,8.42,31.04l7.98,35.47,21.14,30.51-40.57,40.57,1.03,4.29-.89,8.42,11.97,8.65,2.66,8.87s-45.91,22.25-70.72,32.59-33.25,12.97-33.25,12.97c0,0-11.97-6.65-12.3-23.94Z"/>
    <path class="cls-6" d="M199.14,372.68c2.22-15.08,5.03-29.08,9.12-39.46,6.85-17.38,20.04-26.18,29.29-31.7l6.2-3.45,6.2-11.71s34.01,16.76,39.77,32.28,9.5,29.57,9.5,29.57l8.27,37.73,22.62,29.9-30.96,32.39-9.25,8.9-.84,13.46,11.2,7.86,2.07,8.27s-51.17,25.84-75.97,36.18c-24.81,10.34-31.01,11.71-31.01,11.71,0,0-15.85-2.07-16.54-26.19,0,0,5.76-25.8,12.92-75.96,2.08-14.57,3.75-31.87,5.9-48.65"/>
    <path class="cls-5" d="M286.05,256.74c-2.07-2.59-4.32-5.27-7.26-4.66-3.12.65-5.43,3.09-5.18,6.48.68,9.19,6.23,15.11,6.23,15.11l4.72-2.9"/>
    <path class="cls-8" d="M518.34,314.55s-6.82,28.3-32.13,31.41c-13.79,1.69-19.96-2.26-19.96-2.26"/>
    <ellipse class="cls-31" cx="311.57" cy="261.3" rx="2.4" ry="1.62" transform="translate(-30.12 481.75) rotate(-72.81)"/>
    <path class="cls-4" d="M308.46,260.36s.56-.69,1.39-1,2.36-.68,2.26.96"/>
    <path class="cls-2" d="M306.52,252.85s5.44.26,8.55.78"/>
    <path class="cls-5" d="M252.17,375.97s17.08,62.64,35.95,82.21l14.24-13.17"/>
    <line class="cls-2" x1="322.85" y1="261.14" x2="320.78" y2="271.51"/>
    <line class="cls-2" x1="291.23" y1="262.44" x2="321.29" y2="265.81"/>
    <polyline class="cls-4" points="413.74 415.47 429.4 419.39 439.72 423.3"/>
    <polyline class="cls-4" points="413.03 421.52 426.56 424.37 435.81 428.29"/>
    <line class="cls-12" x1="359.11" y1="362.45" x2="345.23" y2="391.98"/>
    <path class="cls-12" d="M337.05,387s8.54.36,16.37,1.78c0,0,.71,4.27-2.85,5.69s-9.25,2.14-9.25,2.14c0,0-3.56,6.41-7.83,7.47"/>
    <line class="cls-4" x1="349.15" y1="396.26" x2="355.55" y2="405.15"/>
    <path class="cls-4" d="M744.37,215.1s6.41-1.07,10.68.36"/>
    <path class="cls-4" d="M726.22,214.75s5.55-1.07,9.25.36"/>
    <path class="cls-4" d="M736.54,220.35s-.27,2.31-1.69,4.98c-.58,1.09-1.53,2.69-.89,3.74.98,1.6,2.76,1.6,3.65,1.6"/>
    <path class="cls-14" d="M839.13,495.01s-17.42,4.36-24.32,4.72c-6.9.36-15.61,1.82-16.7,8.71-1.09,6.9,9.08,22.87,27.95,19.97s25.05-5.08,25.05-5.08l10.16-14.88-11.62-16.7-10.53,3.27Z"/>
    <path class="cls-26" d="M1058.14,451.29h-23.66c-2.29,0-4.41.69-6.2,1.84-1.86-5.46-2.47-19.91-6.08-31.15-5.72-17.8,11.5-19.08-6.31-19.08h-98.56c-17.8,0-24.76,1.27-30.49,19.08-3.62,11.25-6.01,24.65-7.87,30.11-1.79-1.16-9.67-.64-11.95-.64h-20.63c-6.32,0-10.2,2.85-9.53,10.17s13.61,93.86,14.85,99.54,1.77,12.64,11.53,13.52,69.36.54,69.36.54h105.51v-.32h5.85c6.32,0,11.44-5.12,11.44-11.44l14.19-100.73c0-6.32-5.12-11.44-11.44-11.44Z"/>
    <path class="cls-5" d="M1060.36,445.3h-23.66c-6.32,0-11.44,5.12-11.44,11.44l-11.94,77.69s-1.28,7.36-9.55,7.36c-3.17,0,6.25,0-10.76,0h-95.38c-8.27,0-9.55-7.36-9.55-7.36l-11.94-77.69c0-6.32-5.12-11.44-11.44-11.44h-20.07c-11.31,0-15.63,5.39-14.63,14.33,1.33,11.97,14.28,95.72,16.01,103.84s7.71,11.44,16.8,11.44h177.53c6.32,0,13.53-2.94,15.08-11.44s16.41-106.72,16.41-106.72c0-6.32-5.12-11.44-11.44-11.44Z"/>
    <line class="cls-5" x1="1017.12" y1="507.46" x2="884.91" y2="507.46"/>
    <path class="cls-13" d="M804.16,600.3s-1.88,10.09-11.2,16.74c-9.31,6.65-7.54,11.08-7.54,11.08,0,0,10.2.89,20.84-.44,6.18-.77,17.29-14.63,21.28-18.18,3.99-3.55,7.09-6.21,6.65-9.31s-4.43-5.76-10.2-9.31c-6.21-1.77-12.86,10.86-12.86,10.86l-6.98-1.44Z"/>
    <path class="cls-13" d="M741.53,613.68s-11.3,2.73-19.96,6.01c-7.99,3.03-3.55,11.97-3.55,11.97h52.76s.89-5.76.44-10.2-3.99-10.64-3.99-10.64c0,0-5.9-1.49-10.64,2.66-3.55,3.1-6.21,7.09-6.21,7.09l-8.86-6.9Z"/>
    <path class="cls-35" d="M959.02,360.42s-29.68,2.45-39.48,8.44c-9.8,5.99-27.23,37.84-27.23,37.84,0,0-19.33,13.89-25.86,19.06-6.53,5.17-13.07,30.22,13.07,30.77,4.07.08,27.62-7.54,27.62-7.54l70.12,69.34,38.12,1.09,10.35-62.62s25.86-.27,31.04-3.54c0,0,2.99-13.61-1.09-34.85-4.08-21.24-12.84-47.58-23.69-55.27-14.97-10.62-72.97-2.72-72.97-2.72Z"/>
    <path class="cls-28" d="M967.88,359.2s-28.11,1.55-37.91,7.54c-9.8,5.99-32.59,42.12-32.59,42.12,0,0-19.33,13.89-25.86,19.06-6.53,5.17-13.05,28.24,13.09,28.79,3.23.07,22.53-8.61,22.53-8.61l3.55,13.75,81.82,56.48,23.14.82,10.09-62.18s24.98-.72,30.15-3.99c0,0,4.08-12.02,0-33.25-4.08-21.24-14.43-49.06-25.27-56.75-14.97-10.62-62.74-3.77-62.74-3.77Z"/>
    <path class="cls-5" d="M903.84,387.58c-6.32,9.61-11.53,19.12-11.53,19.12,0,0-19.33,13.89-25.86,19.06-6.53,5.17-13.61,30.91,12.53,30.32,9.88-.22,28.6-7.54,28.6-7.54l4.66,22.39,65.03,47.39,38.12,1.09,10.35-62.62s25.86-.27,31.04-3.54c0,0,2.99-13.61-1.09-34.85-4.08-21.24-12.84-47.58-23.69-55.27-11.9-8.44-51-5.18-66.52-3.49"/>
    <path class="cls-5" d="M953.51,360.98c-9.06,1.02-26.81,3.51-33.97,7.88-2.3,1.41-5.82,5.23-8.64,8.74"/>
    <path class="cls-13" d="M907.13,633.44l-4.47-5.21-16.59,7.42s-20.8,12.18-26.25,15.45-18.51,8.35-18.51,8.35l-.36,5.81s18.57,6.3,39.93,1.45c9.85-2.23,14.7-1.43,22.93-2.01,9.31-.67,12.41-2.44,12.41-2.44,0,0,.89-7.98-.67-13.97-.72-2.79-1.59-3.96-2.66-5.99"/>
    <path class="cls-13" d="M839.13,495.01s-17.42,4.36-24.32,4.72c-6.9.36-15.61,1.82-16.7,8.71-1.09,6.9,9.08,22.87,27.95,19.97s25.05-5.08,25.05-5.08l10.16-14.88-11.62-16.7-10.53,3.27Z"/>
    <path class="cls-13" d="M956.68,448.62h-37.54c-3.87,0-7.74-2.7-8.65-6.04l-14.41-52.73c-.91-3.34,1.48-6.04,5.35-6.04h37.54c3.87,0,7.74,2.7,8.65,6.04l14.41,52.73c.91,3.34-1.48,6.04-5.35,6.04Z"/>
    <path class="cls-35" d="M1001.76,485.12c-3.54-16.61-10.07-42.47-26.14-53.36-16.06-10.89-23.23-.64-51.55,17.15-12.17,7.64-42.38,26.95-42.38,26.95l-21.51,5.17-12.8,10.89s-.27,5.72,2.45,11.43c2.72,5.72,10.35,10.35,10.35,10.35,0,0,1.09,8.89,4.72,38.66,1.67,13.69,8.38,40.94,10.53,56.63,2.52,18.43,2.54,26.14,2.54,26.14,0,0,10.16,10.16,32.04,1.63l4.63-11.07-5.73-14.86s-1.25-51.2-2.62-61.74-4.37-15.2-4.37-15.2l21.97-15.57,81.95.82s-.54-17.42-4.08-34.03Z"/>
    <path class="cls-30" d="M1001.8,485.57c-3.54-16.61-7.35-39.04-23.33-50.05-9.98-6.87-14.97-4.21-43.29,13.58-12.17,7.64-51.21,31.92-51.21,31.92l-21.62,5.1-9.94,8.75s1,5.32,4.32,9.64,6.65,5.65,6.65,5.65l-3.33,3.99s9.29,48.59,15.92,96.22c2.56,18.42,2.99,25.94,2.99,25.94,0,0,9.61,8.75,31.48.22l3.77-11.08-5.54-15.08s-1-53.98-2.22-60.74-2.88-18.4-2.88-18.4c0,0,10.31-7.65,22.95-11.31,12.64-3.66,79.03-.78,79.03-.78,0,0-.23-16.97-3.77-33.58Z"/>
    <path class="cls-5" d="M1001.76,485.12c-3.54-16.61-10.07-42.47-26.14-53.36-16.06-10.89-23.23-.64-51.55,17.15-12.17,7.64-42.38,26.95-42.38,26.95l-21.51,5.17-12.8,10.89s-.27,5.72,2.45,11.43c2.72,5.72,10.35,10.35,10.35,10.35,0,0,.17,7.23,6.15,37.16,3.33,16.63,6.95,42.45,9.09,58.13,2.52,18.43,2.54,26.14,2.54,26.14,0,0,10.16,10.16,32.04,1.63l4.63-11.07-5.73-14.86s-.96-50.04-2.33-58.98-3.33-20.29-3.33-20.29c0,0,14.63-13.24,36.58-13.24s66.01.82,66.01.82c0,0-.54-17.42-4.08-34.03Z"/>
    <path class="cls-5" d="M970.54,470.32s-20.69,19.97-40.29,25.77c-19.6,5.81-41.02,7.62-54.45,10.89-13.43,3.27-14.52,5.81-14.52,5.81"/>
    <path class="cls-5" d="M951.12,517.51s-3.97-5.23-7.44-26.5"/>
    <path class="cls-13" d="M986.5,349.01c-3.45,2.98-6.01,4.56-9.09,5.54-4.88,1.55-13.29,1.02-16.63-1.55-4.19-3.22-7.64-16.4-8.2-20.17-.74-4.99,1.77-9.75,1.77-9.75l-1.05-7.66c1.09-17.15,10.8-30.48,32.68-26.97,14.01,2.25,17.31,13.81,17.15,22.43-.1,5.18-2,9.31-2,9.31,1.55-.22,3.9.17,4.66,2.44,1.53,4.57-4.43,12.64-4.43,12.64l-5.08.02s-2,7.22-1.87,11.71c.27,8.8,4.63,10.8,4.63,10.8,0,0-5.14,7.74-16.88,10.26-15.25,3.27-20.69-.27-20.69-.27l1.98-13.22"/>
    <path class="cls-4" d="M972.24,319.5s5.55-1.59,14.13.81"/>
    <path class="cls-4" d="M954.64,316.72c2.47,0,6.03.35,10.33,1.77"/>
    <ellipse class="cls-31" cx="978.6" cy="325.5" rx="1.33" ry="1.59" transform="translate(-52.63 338.32) rotate(-19.11)"/>
    <ellipse class="cls-31" cx="961.82" cy="324.08" rx="1.26" ry="1.51" transform="translate(-52.96 342.87) rotate(-19.68)"/>
    <path class="cls-9" d="M958.31,322.97s1.95-2.1,5.07-.15"/>
    <path class="cls-9" d="M975.94,324.63s2.17-2.1,5.34.13"/>
    <path class="cls-4" d="M966.88,322.33s.14,1.58-.33,3.32c-.52,1.94-1.7,4.14-2.66,5.98-1.33,2.54.81,4.45,6.18,3.85"/>
    <path class="cls-4" d="M960.4,338.63s8.58,2.93,17.08.75"/>
    <path class="cls-4" d="M965.89,343.87s3.06.95,5.51.68"/>
    <path class="cls-4" d="M986.89,298.13c1.07-.31,1.56-.47,2.58-.55,2.42-.2,4.74.78,6.31,3.49,2.25,3.88-1.3,9.14-2.41,14.24-1.97,9.05,2.66,11.75,2.66,11.75,0,0,1.27-2.77,2.44-4.21s1.33-1.77,3.33-2"/>
    <path class="cls-4" d="M961.92,293.08s-.1,7.65,13.33,7.7c2.26,0,4.92-.42,7.15-1.16"/>
    <path class="cls-13" d="M1001.7,458.62c2.7-.46,6.09-1.18,10.08-2.32,0,0,1.97-3.04-.75-9.03-2.72-5.99-7.62-11.43-7.62-11.43l-11.98-2.72-10.24,3.46s9.31,11.31,13.3,22.83"/>
    <polyline class="cls-5" points="1007.21 404.8 1016.46 430.94 1003.4 435.84"/>
    <path class="cls-5" d="M1007.21,435.84s17.97-9.8,29.4-7.08"/>
    <path class="cls-5" d="M864.54,641.3s9.08-1.09,15.97,6.9"/>
    <path class="cls-5" d="M860.19,646.02s5.08-.73,9.8,5.81"/>
    <path class="cls-4" d="M736.19,235.39s11.48-.53,13.61-.8c0,0-2.4,3.74-8.01,4.8"/>
    <ellipse class="cls-31" cx="749.4" cy="220.55" rx="1.8" ry="1.4" transform="translate(441.55 938.51) rotate(-83.19)"/>
    <ellipse class="cls-31" cx="733.64" cy="220.2" rx="1.83" ry="1.31" transform="translate(428 922.56) rotate(-83.19)"/>
    <path class="cls-4" d="M746.33,219.46s2.22-2.76,4.36-.27"/>
    <path class="cls-4" d="M730.67,219.29s1.45-2.76,2.85-.27"/>
    <path class="cls-13" d="M884.35,417.61c-2.65,7.33-3.24,19.78,14.27,20.11s27.8-8.24,27.8-8.24l-1.55-7.09s-1.24-4.51-6.43-7.54c-2.64-1.54-16.41-3.55-16.41-3.55l-1.55-5.32s-12.45,1.47-16.13,11.63Z"/>
    <path class="cls-4" d="M899.15,425.93s17.06-.83,25.27,1.55"/>
    <path class="cls-4" d="M900.71,432.14s17.29-2,24.51-.69"/>
    <path class="cls-4" d="M899.38,418.4s18.4.89,25.49,4.21"/>
    <path class="cls-8" d="M459.38,361.39s2.73-.61,7.34-1.18,6.56-.12,6.56-.12c0,0,4.34,2.12,7.14,3.68"/>
    <path class="cls-8" d="M458.99,366.5s2.55-.76,6.12-1.11,8.52-.35,14.16,4.37"/>
    <path class="cls-13" d="M502.72,293.76c2.84-1.11,4.44-1.75,5.43-5.34,3.42-12.39,7.95-29.78-4.69-46.16-11.55-14.96-34.17-9.64-39.82-6.65-9.91,5.24-14.3,12.3-13.77,21.31l35.32,38.03"/>
    <path class="cls-13" d="M496.44,285.79s.4,8.5,1.11,14.55c.71,6.05,1.73,11.12,1.73,11.12,0,0-3.27,3.63-9.21,7.03-8.94,5.12-19.35,3.38-19.35,3.38,0,0-.71-8.72-.04-15.66-3.74.18-9.34-1.42-9.34-1.42,0,0-4.41-5.01-7.68-10.76-2.2-3.87-3.48-7.81-4.06-11.79s1.4-10.27,1.4-10.27l-2.22-7.87s.06-6.3,1.78-11.65"/>
    <path class="cls-8" d="M451.03,253.72c.57-1.79.97-2.67,1.97-3.98,1.56-2.04,4.17-4.39,7.95-5.52,2.55,1.34,5.88,2.45,8.81,2.49,6.63.11,26.37-5.11,23.8,13.5-1.33,9.64,1.5,12.3,1.5,12.3,0,0,4.99-6.65,8.48-2.33,2.86,3.55-3.66,14.13-3.66,14.13l-6.15-.67"/>
    <path class="cls-8" d="M460.37,287.41c6.42,1.74,17.39,1.41,17.39,1.41,0,0-3.49,5.82-13.76,3.96"/>
    <path class="cls-8" d="M470.5,264.62s9.34-2.67,16.31,1.75"/>
    <path class="cls-8" d="M453.05,263.51s3.74-1.47,8.67,1.47"/>
    <path class="cls-8" d="M463.97,269.07s-.36,6.41-3.2,10.32,5.34,4.27,5.34,4.27"/>
    <ellipse class="cls-31" cx="476.57" cy="270.95" rx="1.58" ry="2.18" transform="translate(-5.28 9.5) rotate(-1.14)"/>
    <ellipse class="cls-31" cx="458.15" cy="270.5" rx="1.58" ry="2.18" transform="translate(-17.55 32.21) rotate(-3.95)"/>
    <path class="cls-4" d="M473.97,270.13s.75-1.63,2.8-1.38c.73.09,2.27.4,2.94,1.6"/>
    <path class="cls-4" d="M455.59,268.95s2.54-2.27,4,.4"/>
    <path class="cls-8" d="M466.02,296.78s5.34.8,6.67-.4"/>
    <path class="cls-13" d="M470.33,306.21s9.43-.53,14.77-5.34"/>
    <path class="cls-13" d="M384.82,377.16s3.55,2.66,6.65,2.66"/>
    <path class="cls-8" d="M383.94,354.99l3.33-1.55s1.55,1.55,3.1,3.55,5.76.89,5.76.89l-.44-2.22,4.21-1.11s.44-7.54-2-9.53c-1.67-1.36-5.3-4.05-7.98-4.43"/>
    <path class="cls-8" d="M385.93,344.13s6.94,2.58,7.98,4.88c1.11,2.44,2,7.54,2,7.54"/>
    <g class="cls-37">
      <line class="cls-5" x1="410.21" y1="323.76" x2="396.35" y2="352.11"/>
    </g>
    <path class="cls-8" d="M453.49,316.25s-1.33,3.06-1.33,7.65c0,6.65,2.49,13.14,8.31,16.96"/>
    <path class="cls-8" d="M524.82,673.9s13.63,4.99,34.25,0"/>
    <path class="cls-12" d="M509.19,657.6s1.62,2.47,4.32,4.99c3.72,3.46,9.26,7.85,13.3,13.63"/>
    <path class="cls-8" d="M596.65,669.58s-13.97,1.66-19.95,1.33-17.29-2.33-17.29-2.33"/>
    <path class="cls-8" d="M541.78,633.33s1.66,15.96,3.33,21.28"/>
    <path class="cls-5" d="M476.27,499.98s-1.33,9.64,3.33,27.27"/>
    <path class="cls-21" d="M614.39,550.36s-2.78,9.98-3.44,20.45"/>
    <path class="cls-13" d="M686.53,254.92s1.99,3.07,5.54,8.59"/>
    <path class="cls-1" d="M775.67,313.31l-6.65,59.86s-6,4.56-12.86,7.09-14.58,3.03-18.62.89c-7.54-3.99-14.63-15.08-14.63-15.08l3.99-4.88,11.08-2.22s0-43.23,4.32-63.18"/>
    <path class="cls-20" d="M724.31,365.41s-12.39,5.05-29.84,10.1c-4.16,1.2-11.02,5.97-11.02,5.97l-4.95,9.35s6.17,10.38,11.26,9.22c2.69-.61,11.38-3.85,11.38-3.85l8.02-11.52s11.48-.46,29.38-2.75c-4.59-4.59-8.26-7.8-14.23-16.52Z"/>
    <line class="cls-4" x1="685.77" y1="389.58" x2="683.45" y2="395.25"/>
    <line class="cls-4" x1="689.93" y1="392.74" x2="689.88" y2="398.46"/>
    <line class="cls-1" x1="683.45" y1="381.48" x2="672.9" y2="372.3"/>
    <line class="cls-8" x1="770.79" y1="626.35" x2="717.59" y2="626.35"/>
    <path class="cls-8" d="M831.54,597.53s-3.99-.44-13.3,8.42c-5.82,5.54-6.21,12.86-18.18,18.18h-12.86"/>
    <path class="cls-5" d="M906.25,437.91s-3.41,5.82-9.53,10.42-12.75,7.98-21.06,7.76"/>
    <path class="cls-5" d="M1012.44,456.31s9.75.89,19.95.44"/>
    <line class="cls-4" x1="990.94" y1="441.23" x2="985.84" y2="442.78"/>
    <line class="cls-4" x1="994.7" y1="448.33" x2="989.61" y2="449.66"/>
    <path class="cls-5" d="M905.14,449.66s3.1-.89,7.32-3.55"/>
    <path class="cls-8" d="M842.18,659.38s14.63,5.1,30.37,2.44c12.31-2.08,17.12-3.07,24.89-3.21,12.19-.22,18.79-2.83,18.79-2.83"/>
    <path class="cls-5" d="M828.77,491s6.98,7.32,7.98,19.95"/>
    <path class="cls-5" d="M822.12,493.99s5.65,4.32,5.99,15.96"/>
    <path class="cls-8" d="M853.21,518.6s-25.77,4.99-31.76,5.15-18.12-4.99-19.95-20.29"/>
    <path class="cls-6" d="M374.61,671.9s15.09-4.12,18.75-10.97"/>
    <path class="cls-6" d="M384.07,675.1s12.99-4.49,15.8-10.72"/>
    <path class="cls-8" d="M343.59,680.88s27.81,2.42,42.45,2.66c20.62.33,30.59-1,42.9-5.32"/>
    <path class="cls-35" d="M286.72,549.09s56.12,140.77,56.86,143.77c1.66,6.65,11.5,2.25,9.3-2.64s-54.19-141.68-54.19-141.68"/>
    <path class="cls-5" d="M286.72,549.09s56.12,140.77,56.86,143.77c1.66,6.65,11.5,2.25,9.3-2.64s-52.9-137.76-52.9-137.76"/>
    <path class="cls-13" d="M205.92,550.86s-51.02,132.1-52.21,134.68c-3.99,8.65-13.63,4.66-9.8-1.85,2.51-4.26,48.73-126.9,48.73-126.9"/>
    <rect class="cls-13" x="662.39" y="467.72" width="13.96" height="205.55"/>
  </g>
</svg>