<?xml version="1.0" encoding="UTF-8"?>
<svg id="Layer_1" data-name="Layer 1" xmlns="http://www.w3.org/2000/svg" viewBox="0 0 384 256">
  <defs>
    <style>
      .cls-1 {
        opacity: .2;
      }

      .cls-1, .cls-2, .cls-3, .cls-4, .cls-5, .cls-6, .cls-7, .cls-8 {
        stroke-width: 0px;
      }

      .cls-1, .cls-2, .cls-5, .cls-8 {
        isolation: isolate;
      }

      .cls-1, .cls-5 {
        fill: #007b91;
      }

      .cls-2 {
        fill: #969ba0;
      }

      .cls-2, .cls-5 {
        opacity: .6;
      }

      .cls-3 {
        fill: #afcd5f;
      }

      .cls-4 {
        fill: #ebaa3a;
      }

      .cls-6 {
        fill: #42423d;
      }

      .cls-7 {
        fill: #fff;
      }

      .cls-8 {
        fill: #dedcd2;
        opacity: .5;
      }
    </style>
  </defs>
  <g id="Ebene_10" data-name="Ebene 10">
    <path class="cls-8" d="M281,209.9v-113.2c0-24.7-20-44.7-44.7-44.7h-96.8c-24.7,0-44.7,20-44.7,44.7v113.1h186.2v.1Z"/>
  </g>
  <g id="Ebene_4" data-name="Ebene 4">
    <g>
      <polyline class="cls-7" points="248.9 209.3 105.4 209.3 105.4 33.4 253.1 33.4 253.1 40.9"/>
      <path class="cls-6" d="M248.9,210.3H104.4V32.4h149.7v8.5c0,.6-.4,1-1,1s-1-.4-1-1v-6.5H106.4v173.9h142.5c.6,0,1,.4,1,1s-.4,1-1,1Z"/>
    </g>
  </g>
  <g id="Ebene_6" data-name="Ebene 6">
    <path class="cls-6" d="M210,96.2c-.6,0-1-.4-1-1v-61.4c0-.6.4-1,1-1s1,.4,1,1v61.4c0,.5-.5,1-1,1Z"/>
    <rect class="cls-1" x="213.4" y="37.2" width="38.9" height="171.3"/>
  </g>
  <g id="Ebene_12" data-name="Ebene 12">
    <g>
      <path class="cls-7" d="M249.2,45.7c-4.4.6-5.3,2.5-6.2,4.4-.2.4.4,7.1.4,7.1,0,0-1.6,3.6-1.1,5.8.5,2.2,2.3,5.8,2.3,5.8l2,.3.1,2.4,9.1-.1s-.8-5.2,1.1-9.6,3.2-6.6,2-10.4c-1.1-3.8-5.3-6.3-9.7-5.7Z"/>
      <path class="cls-6" d="M245.3,73l-.1-2.6-1.5-.2-.3-.6c-.1-.2-2-3.8-2.4-6.2-.4-2.2.6-5.2,1.1-6.3-.6-6.8-.4-7.1-.2-7.5.9-2,2.1-4.5,7.3-5.2,5.1-.7,9.9,2.1,11.3,6.7,1.2,3.9.1,6.3-1.5,10-.2.4-.4.8-.6,1.3-1.7,4-1,8.8-1,8.9l.2,1.6-12.3.1ZM245.5,67.6l2.4.4.1,2.2,6.3-.1c-.1-2,0-5.6,1.4-8.8.2-.5.4-.9.6-1.3,1.5-3.5,2.3-5.2,1.4-8.1-1-3.2-4.6-5.2-8.2-4.7h0c-3.5.5-4.2,1.7-5,3.4,0,.8.2,3.9.4,6.6v.3l-.1.3c-.5,1.2-1.3,3.7-1,5,.1,1.3,1.1,3.5,1.7,4.8ZM244.4,50.4h0ZM249.2,45.7h0Z"/>
    </g>
    <path class="cls-6" d="M243,50.1v4.3l1.4,1.4s1-1.5,2-.3-.3,5-.3,5c0,0,1,2.3,3.9,2.5,2.9.1,7,0,7,0,0,0,5.9-8.6,1.2-13.7s-11.7-5.1-15.2.8Z"/>
    <g>
      <path class="cls-7" d="M275.2,58.9c-6-1.5-12.3-2.1-12.3-2.1,0,0-1.6-3-2.9-4.8s-5.5-2.4-5.5-2.4l-5,6.5,3.3,2.3,1.4,1.6-3.2,1.6,4.8,3.4,7.2-2.6,3.8.9,7.2,2.7-4.3,3.9,7.9,7.3s8.2-7.1,8.4-13c0-2.6-4.7-3.8-10.8-5.3Z"/>
      <path class="cls-6" d="M277.5,79.1l-10-9.2,3.7-3.4-5-1.8-3.3-.8-7.5,2.7-7.3-5.2,3.6-1.8-.1-.1-4.3-3,6.4-8.4.8.1c.8.1,4.9.9,6.4,3,1,1.3,2.1,3.3,2.6,4.3,1.9.2,6.8.8,11.7,2,6.4,1.6,12,2.9,11.8,6.7-.2,6.4-8.6,13.7-8.9,14l-.6.9ZM271.7,69.9l5.8,5.4c2.5-2.4,6.9-7.3,7-11.2.1-1.5-6-3-9.7-3.9h0c-5.9-1.4-12-2-12.1-2l-.8-.1-.4-.7s-1.5-2.9-2.8-4.6c-.6-.8-2.4-1.4-3.8-1.7l-3.6,4.7,2.3,1.7,2.6,3-2.7,1.3,2.3,1.6,6.9-2.5,4.4,1,9.4,3.5-4.8,4.5Z"/>
    </g>
    <rect class="cls-7" x="204.4" y="33.5" width="4.5" height="175.8"/>
    <path class="cls-6" d="M204.5,95.5c-.6,0-1-.4-1-1v-60.7c0-.6.4-1,1-1s1,.4,1,1v60.7c0,.6-.4,1-1,1Z"/>
  </g>
  <g id="Ebene_17" data-name="Ebene 17">
    <polygon class="cls-7" points="200.2 166.9 197.9 201.1 207 201.6 209.4 188.7 213 203.1 220.7 202.5 221.9 175.6 221.7 165.2 200.2 166.9"/>
    <polygon class="cls-4" points="203.5 167.2 203 184.3 200.8 201.8 206.3 201.6 209.7 188.3 211.7 201.8 220.7 202.5 219.9 201.6 221.9 175.6 221.7 165.2 203.5 167.2"/>
    <g>
      <path class="cls-7" d="M222.3,134.9s2,2.2,3.5,6.9c1.6,4.7.4,7.1-3.3,7.3s-8.6-2.9-8.6-2.9l2.7-9.8,5.7-1.5Z"/>
      <path class="cls-6" d="M222.1,150.5c-4.1,0-8.8-3-9-3.1l-.9-.6,3.1-11.5,7.4-2,.6.6c.1.1,2.2,2.5,3.8,7.4,1,3.1,1,5.4-.1,7-.9,1.3-2.4,2-4.5,2.2,0,0-.2,0-.4,0ZM215.5,145.5c1.7.9,4.7,2.3,6.9,2.2,1.2-.1,2-.4,2.3-.9.5-.8.5-2.4-.3-4.5-1-2.9-2.1-4.8-2.8-5.7l-4.1,1.1-2,7.8Z"/>
    </g>
    <g>
      <path class="cls-7" d="M195.9,137.5l-2.2,10.6s.7,4,4.4,4.2,8.4-7.1,8.4-7.1l-2.7-9.8-7.9,2.1Z"/>
      <path class="cls-6" d="M198.3,153.8h-.2c-3.9-.2-5.4-3.6-5.7-5.4v-.3l2.4-11.8,10.2-2.5,3.2,11.7-.3.5c-1,1.3-5.3,7.8-9.6,7.8ZM195.1,148.2c.2.7.9,2.7,3.1,2.8,1.9.1,5-3.2,6.8-5.9l-2.1-7.8-5.8,1.5-2,9.4Z"/>
    </g>
    <path class="cls-6" d="M204,207.2l-7.9-1.9,2.3-22,.3-17.7,24.3-2-.1,1.6c0,.1-.5,6.5-.5,14.3s-1.7,25.1-1.8,25.9l-.2,1.7-9.6-3-1.4-11.3-1.1,4.4-4.3,10ZM199.2,203.2l3.2.8,3.5-7.7,2.6-10.5c0-.1.1-.2.1-.3l-.8-6.5c-.1-.8.4-1.5,1.2-1.6s1.5.4,1.6,1.2l3,23.5,4.6,1.4c.4-4.6,1.6-17.5,1.6-23.9,0-5.6.2-10.5.4-12.9l-18.6,1.5-.3,15.3-2.1,19.7Z"/>
    <path class="cls-6" d="M193.3,142.6s3-15.9,6-18.4,8.3-2.6,8.3-2.6c0,0,9.3-1.8,13,4.4,4.4,7.3,6.9,13.7,6.9,13.7l-5.5,2.9,5.5,32.1-31.7,2.2,2-31.7-4.5-2.6Z"/>
    <g>
      <path class="cls-7" d="M204.9,100.7c-2.5,1.4-5.6,2.9-5.9,4.2-.3,1.3.2,4.2.2,4.2,0,0-.6,2.4-.3,4.4.4,3.5,3.8,5.1,3.8,5.1,0,0,7.2.7,9.4-2,4.6-5.9.2-20.1-7.2-15.9Z"/>
      <path class="cls-6" d="M204.7,120.2c-1.1,0-2-.1-2.2-.1h-.2l-.2-.1c-.2-.1-4-1.9-4.6-6.2-.2-1.8.1-3.9.3-4.6-.1-.9-.4-3.1-.1-4.5.4-1.7,2.7-3,5.3-4.4.4-.2.9-.5,1.3-.7,3-1.7,5.9-1.2,8.2,1.5,3.3,3.9,4.4,12,.7,16.5-2,2.2-6,2.6-8.5,2.6ZM203,117.3c2.5.2,6.7,0,7.9-1.5,2.7-3.3,1.9-10-.6-13-1.4-1.6-2.9-1.9-4.6-.8h0c-.4.2-.9.5-1.3.7-1.4.8-3.7,2-4,2.7-.2.7,0,2.5.2,3.5v.3l-.1.3s-.5,2.2-.3,3.9c.3,2.3,2.2,3.6,2.8,3.9ZM204.9,100.7h0Z"/>
    </g>
    <g>
      <path class="cls-7" d="M215.9,115.6s2,2.1,4.2,6.4c2.9,5.5,4.4,9.8,4.4,9.8,0,0-3.3,2-8.6,3.3s-10,1.6-10,1.6l1.2-11.1,8.8-10Z"/>
      <path class="cls-6" d="M204.3,138.1l1.4-13.2,10.1-11.4,1.1,1.1c.1.1,2.1,2.3,4.4,6.7,2.9,5.6,4.4,9.7,4.5,9.9l.4,1.1-1,.6c-.1.1-3.6,2.1-9,3.5-5.4,1.3-10.1,1.6-10.2,1.6l-1.7.1ZM208.5,126.1l-1,9c1.8-.2,4.8-.6,8.1-1.4,3.4-.8,5.9-2,7.2-2.6-.6-1.6-2-4.7-3.9-8.5-1.2-2.3-2.3-3.9-3-4.9l-7.4,8.4Z"/>
    </g>
    <path class="cls-7" d="M216.5,104.3c-3.3-3.3-6.1-4.6-8-4.8-7.3-1-9.6,5.5-9.6,5.5,0,0,.5,3.1,2.5,4.4,1.2-1.2,4.2.5,3.1,4,.7,3.2,4.6,5.6,4.6,5.6l6.9-5.3s.4-1.8.2-4.2"/>
    <path class="cls-6" d="M209.2,120.6l-.8-.5c-.2-.1-4.4-2.7-5.2-6.5l-.1-.4.1-.4c.4-1.3,0-1.9-.2-2.2-.3-.3-.6-.3-.6-.3l-.8.8-.9-.7c-2.4-1.6-3-5-3.1-5.3l-.1-.3.1-.3c.9-2.6,4.4-7.3,11.1-6.4,2.2.3,3,.8,4.3,1.8.6.5.7,1.4.2,2s-1.4.7-2,.2c-.9-.7-1.3-1-2.9-1.2-5.3-.7-7.4,3.1-7.9,4.2.2.7.6,1.8,1.2,2.6.8-.2,1.7-.1,2.6.4,1.3.8,2.5,2.6,1.8,5.2.5,1.6,2,3,3.1,3.9l5.7-4.4c.1-.7.2-1.9.1-3.4,0-.8.6-1.4,1.3-1.5.8,0,1.4.6,1.5,1.3.1,2.5-.3,4.5-.3,4.5l-.1.5-8.1,6.4Z"/>
    <g>
      <path class="cls-7" d="M219.6,93.2l-12.2,29.1-8,2-3.3,4.7s1.6,3.3,2.9,4c1.3.7,5.3.9,5.3.9l2.7-4.4,4.9-1.2,9.7-15,5.2-12.9-7.2-7.2Z"/>
      <path class="cls-6" d="M205.1,135.2h-.8c-.7,0-4.4-.3-5.9-1-1.6-.8-3.1-3.8-3.5-4.7l-.3-.7,4.1-5.7,7.8-1.9,12.7-30.3,9.4,9.1-5.7,14-10,15.5-4.9,1.2-2.9,4.5ZM197.8,129c.7,1.3,1.5,2.4,1.9,2.6.6.3,2.5.6,3.9.7l2.5-4.2,5-1.2,9.3-14.4,4.8-11.9-5.1-4.9-11.6,27.8-8.2,2-2.5,3.5Z"/>
    </g>
    <g>
      <path class="cls-7" d="M248.4,143.3s.2,24.5-.2,32.6c-.4,8.1-2.2,27.5-2.2,27.5l10.9.2s5.7-25.6,6-40c.3-14.3,3-26.3,3.1-33.1.1-6.8-1.6-8.3-1.6-8.3l-31.3-2.7s-3.2,24.6-4.1,43c-.9,18.3,3.5,40.7,3.5,40.7l12.7.3-1.5-34.1,4.8-26.8,7.3-2"/>
      <path class="cls-2" d="M249.7,143.4s.1,24.5-.3,32.6-3.4,27-3.4,27l10.6.7s6.1-25.6,6.4-39.9,2.8-26.3,3-33.1-1.5-8.3-1.5-8.3l-27-3.3s-4.6,32.4-4.9,46.3c-.2,8.4,4.2,38.4,4.2,38.4h8.2l-1.3-35.2,5.8-25.6,6.8-2"/>
      <path class="cls-6" d="M232,207.2l-.2-1.4c0-.3-4.7-29.4-3.8-47.7.9-18.2,3.6-38.6,3.7-38.8l.2-1.3,33.1,2.8.3.3c.5.4,2.2,2.4,2.1,9.4-.1,2.9-.7,7.5-1.4,12.8-1,7.7-2.3,17.2-2.4,25.7-.3,14.3-5.2,34.1-5.4,34.9l-.2.8-.8.2c-6.2,1.5-11.9.5-12.1.5l-1.2-.2-11.9,2ZM234.3,121c-.6,4.8-2.7,21.8-3.5,37.2-.8,15.7,2.6,39.7,3.5,45.7l9.4-1.6-1.2-34.1,4.7-26.7,8.2-2.2c.7-.2,1.5.2,1.7,1,.2.7-.2,1.5-1,1.7l-6.2,1.7c0,3.4.2,24.7-.2,32.3-.4,6.9-2.2,22.1-2.7,26.8,1.8.2,5.2.3,8.8-.4.9-4,4.8-21.1,5.1-33.4.2-8.6,1.4-18.2,2.5-26,.7-5.3,1.3-9.8,1.4-12.5.1-4.3-.6-6.2-1-6.9l-29.5-2.6ZM245.3,168.5l.6,18c.4-4.1.8-8,.9-10.7.2-3.7.3-11.1.3-17.8l-1.8,10.5Z"/>
    </g>
    <path class="cls-7" d="M230.2,88.4s1.6,17.5.8,24.2c-.6,5.3-1.2,11.9-1.2,11.9,0,0,16.6,3.3,36.9-1.4,0,0-3.5-21.4-2.7-26.1.9-4.7,3.7-12.8,3.7-12.8,0,0,8.5-4.3,11.4-8.9,0,0,.4-2.8-3.8-5.5-4.2-2.7-5.2-.7-5.2-.7,0,0-5.2,2.4-9.9,1.9-4.7-.5-5.5-3.1-15.1-2.3l-2,3.1s-18.1,7.3-18.6,8.2c-2.6,4.8-8.9,18.2-8.9,18.2,0,0,5.3,2.4,8.9,3.8,3.5,1.4,6.5,1,6.5,1"/>
    <path class="cls-5" d="M234.9,114c-.6,5.3-.7,10.9-.7,10.9,0,0,13.8,2.9,33-1.8,0,0-3.4-21.4-2.5-26.1.8-4.7,3.5-12.8,3.5-12.8,0,0,8-4.3,10.8-8.9,0,0-1.6-4.1-4.5-5.2s-2.7-1.8-2.7-1.8c0,0-6.3,3.2-10.8,2.7-4.4-.5-5.4-1.6-13-1.9,0,0-14.5,3.5-17.3,8.1s-11.3,21.7-11.3,21.7c0,0,4.3,1.8,7.7,3.2s7.4,1.3,7.4,1.3c0,0,1.2,3.9.4,10.6Z"/>
    <path class="cls-6" d="M244.2,127.1c-8.6,0-14.3-1.1-14.7-1.2l-1.2-.2.1-1.3c0-.1.6-6.7,1.2-11.9.2-1.9.2-4.8.2-7.9-1.3,0-3.4-.2-5.8-1.2-3.5-1.4-8.9-3.8-8.9-3.8l-1.3-.6.7-1.3c.3-.6,7.4-14.2,10.3-18.7,1.8-2.8,13.3-6.9,17.4-8.2l2.5-3,.5-.1c5.2-.7,9.9,0,10.1,0h.2l.2.1s3.5,1.7,5.7,2.3q1.8.5,3.5-.4l.4-.2c2.2-1.1,5.7-2.6,5.8-2.7l.6-.3.6.3c.1.1,2.8,1.4,4.7,3.1,1.9,1.7,3.6,4.4,3.7,4.5l.6.9-.7.8c-4.5,4.8-10.1,8.1-11.8,9-.6,1.9-2.7,8.2-3.4,12.1-.7,3.6,1.7,19.7,2.7,25.6l.2,1.3-1.3.3c-8.6,2.1-16.5,2.7-22.8,2.7ZM231.3,123.3c4.1.6,17.7,2.2,33.8-1.3-.8-5-3.2-21-2.4-25.3.9-4.7,3.6-12.7,3.7-13l.2-.5.5-.3c.1,0,6-3.1,10.8-7.9-.6-.9-1.6-2.1-2.6-3-1.1-1-2.7-1.9-3.6-2.4-1.1.5-3.5,1.6-5.1,2.4l-.3.2c-2.1,1.1-2.8,1.3-5.5.6-2.2-.6-5.2-2-6-2.4-.9-.1-4.6-.5-8.6,0l-2.3,2.8-.4.1c-7.1,2.3-15.4,5.8-16.3,7.2-2.3,3.6-7.6,13.6-9.5,17.2,1.8.8,5.1,2.2,7.4,3.2,1.9.7,3.6.9,4.7,1-.3-6.5-.9-13.1-.9-13.2-.1-.8.5-1.5,1.3-1.5.8-.1,1.5.5,1.5,1.3.1.7,1.6,17.7.8,24.5-.6,3.6-1,8.2-1.2,10.3Z"/>
    <g>
      <path class="cls-7" d="M197.9,202.5l-.7,2.5-1.2,4.4h10.4s.9-1.8,0-3.1c-.9-1.4-2.4-3.3-2.4-3.3l-6.1-.5Z"/>
      <path class="cls-6" d="M207.2,210.7h-13.1l2.7-9.8,7.8.6.4.5c.1.1,1.6,2,2.5,3.4,1.3,2,.2,4.3.1,4.5l-.4.8ZM197.8,207.9h7.5c0-.3,0-.7-.1-1-.6-.9-1.5-2.1-2-2.7l-4.3-.3-1.1,4Z"/>
    </g>
    <g>
      <path class="cls-7" d="M212.3,202.7s-1.6,3.1-1.3,4.4c.2,1.3.9,2.2.9,2.2h14.1s-.4-2.2-2.8-3.8c-2.4-1.6-4.2-2.7-4.2-2.7l-6.7-.1Z"/>
      <path class="cls-6" d="M227.8,210.7h-16.6l-.4-.6c-.1-.1-.9-1.2-1.1-2.8-.3-1.7,1-4.5,1.5-5.3l.4-.8,7.9.3.3.2c.1,0,1.9,1.1,4.3,2.7,2.8,1.9,3.4,4.5,3.4,4.6l.3,1.7ZM212.7,207.9h11c-.3-.4-.8-.8-1.3-1.2-1.8-1.2-3.2-2.1-3.8-2.4l-5.4-.2c-.5,1.2-.9,2.4-.8,2.8,0,.4.2.8.3,1Z"/>
    </g>
    <g>
      <path class="cls-7" d="M236,209.3s2.4-4,4.4-4.9,6.2-.7,6.2-.7l10-.2,1.8,5.8h-22.4Z"/>
      <path class="cls-6" d="M260.3,210.7h-26.8l1.3-2.1c.4-.7,2.8-4.4,5.1-5.4,2.2-1,6.1-.8,6.8-.8l11-.2,2.6,8.5ZM238.7,207.9h17.8l-.9-2.9-9,.2h-.1c-1.5-.1-4.3,0-5.6.5-.5.3-1.4,1.2-2.2,2.2Z"/>
    </g>
    <g>
      <path class="cls-7" d="M224.5,209.3s2.4-4,4.4-4.9,6.2-.7,6.2-.7l10-.2,1.8,5.8h-22.4Z"/>
      <path class="cls-6" d="M248.8,210.7h-26.8l1.3-2.1c.4-.7,2.8-4.4,5.1-5.4,2.2-1,6.1-.8,6.8-.8l11-.2,2.6,8.5ZM227.2,207.9h17.8l-.9-2.9-9,.2h-.1c-1.5-.1-4.3,0-5.6.5-.5.3-1.4,1.2-2.2,2.2Z"/>
    </g>
  </g>
  <g id="Ebene_18" data-name="Ebene 18">
    <g>
      <polygon class="cls-1" points="109.3 37 163.9 37 164.3 110.9 145.9 113.6 147.5 119.1 133.7 130.4 135.6 147 144.8 146.6 146.4 169.7 157.5 169.7 164.2 177.9 164.4 209.3 109.3 209.5 109.3 37"/>
      <path class="cls-6" d="M121.1,145.3c-.5,0-1-.4-1-1s.4-1,1-1l23.3-.8c.5-.1,1,.4,1,1s-.4,1-1,1l-23.3.8h0Z"/>
      <path class="cls-6" d="M130,209.2h0c-.6,0-1-.5-1-1l.6-31,15.7-11.2c.4-.3,1.1-.2,1.4.2.3.5.2,1.1-.2,1.4l-14.9,10.6-.6,30c0,.6-.5,1-1,1Z"/>
      <path class="cls-6" d="M164.1,174.2c-.3,0-.6-.1-.8-.4l-5.2-6.1h-13.1l-1.4-23-9.3.1-1.5-14.9,13.6-11.3-1.4-6.5,18.1-2.1c.5-.1,1,.3,1.1.9.1.5-.3,1-.9,1.1l-15.9,1.9,1.2,5.5-13.6,11.5,1.2,12,9.3-.1,1.4,23.1h12.1l5.8,6.8c.4.4.3,1.1-.1,1.4-.1.1-.4.1-.6.1Z"/>
      <path class="cls-6" d="M141.5,124.5c-.1,0-.3,0-.4-.1l-20.3-14.1c-.3-.2-.4-.7-.2-1,.2-.3.7-.4,1-.2l20.3,14.1c.3.2.4.7.2,1-.1.2-.4.3-.6.3Z"/>
      <rect class="cls-7" x="164.4" y="33.5" width="5.6" height="175.8"/>
      <path class="cls-6" d="M164.4,210.1c-.6,0-1-.4-1-1V33.8c0-.6.4-1,1-1s1,.4,1,1v175.3c0,.5-.4,1-1,1Z"/>
      <path class="cls-6" d="M170,210.1c-.6,0-1-.4-1-1V33.8c0-.6.4-1,1-1s1,.4,1,1v175.3c0,.5-.5,1-1,1Z"/>
    </g>
    <path class="cls-6" d="M305.5,210.9h-7.3c-.9,0-1.6-.7-1.6-1.6s.7-1.6,1.6-1.6h7.3c.9,0,1.6.7,1.6,1.6s-.7,1.6-1.6,1.6Z"/>
    <path class="cls-6" d="M290.2,210.9H81.7c-.9,0-1.6-.7-1.6-1.6s.7-1.6,1.6-1.6h208.5c.9,0,1.6.7,1.6,1.6s-.7,1.6-1.6,1.6Z"/>
    <path class="cls-6" d="M248.9,210.3H104.4V32.4h149.7v8.5c0,.6-.4,1-1,1s-1-.4-1-1v-6.5H106.4v173.9h142.5c.6,0,1,.4,1,1s-.4,1-1,1Z"/>
  </g>
  <g id="Ebene_20" data-name="Ebene 20">
    <circle class="cls-7" cx="137.6" cy="194.6" r="14"/>
    <ellipse class="cls-3" cx="139.8" cy="196" rx="11.8" ry="12.6"/>
    <path class="cls-6" d="M137.6,210c-8.5,0-15.4-6.9-15.4-15.4s6.9-15.4,15.4-15.4,15.4,6.9,15.4,15.4-6.9,15.4-15.4,15.4ZM137.6,182c-6.9,0-12.6,5.6-12.6,12.6s5.6,12.6,12.6,12.6,12.6-5.6,12.6-12.6-5.7-12.6-12.6-12.6Z"/>
  </g>
</svg>