<?xml version="1.0" encoding="UTF-8"?>
<svg id="Ebene_3" data-name="Ebene 3" xmlns="http://www.w3.org/2000/svg" viewBox="0 0 1216 810">
  <defs>
    <style>
      .cls-1 {
        fill: none;
      }

      .cls-1, .cls-2, .cls-3, .cls-4, .cls-5, .cls-6, .cls-7, .cls-8, .cls-9 {
        stroke-width: 0px;
      }

      .cls-2 {
        opacity: .8;
      }

      .cls-2, .cls-4 {
        fill: #969ba0;
      }

      .cls-2, .cls-4, .cls-6, .cls-9 {
        isolation: isolate;
      }

      .cls-3 {
        fill: #da2323;
      }

      .cls-4 {
        opacity: .4;
      }

      .cls-5 {
        fill: #afcd5f;
      }

      .cls-6 {
        fill: #007b91;
        opacity: .6;
      }

      .cls-7 {
        fill: #454440;
      }

      .cls-8 {
        fill: #fff;
      }

      .cls-9 {
        fill: #dedcd2;
        opacity: .5;
      }
    </style>
  </defs>
  <path class="cls-9" d="M934.9,581.8V213c0-75.2-60.9-136.1-136.1-136.1h-471c-75.2,0-136.1,60.9-136.1,136.1v368.7h743.2v.1Z"/>
  <path class="cls-8" d="M292.7,590.6c-.4,0-.9,0-1.3-.1-6.6-.7-11.4-6.6-10.7-13.2,4.8-45.4.9-112.7-5.6-148.9-3-16.7-21.5-27.8-36.6-34.2-6.1-2.6-9-9.7-6.4-15.8,2.6-6.1,9.7-9,15.8-6.4,29.4,12.5,47,30.5,50.9,52.1,6.7,37.9,10.9,108.1,5.8,155.7-.6,6.2-5.8,10.8-11.9,10.8Z"/>
  <path class="cls-8" d="M329.1,590.6h-.8c-6.6-.5-11.6-6.2-11.2-12.8,3.1-43.8,44.2-143.6,65.5-190.2,12-26.2,34.1-53.8,35-54.9l1.9-2.4,62.7-25.9,6.6-11,16-15.3,86.1-7.8,30.1,27.8,71.2,16.2,2.7,4c.9,1.4,22.4,34.1,50.2,107.2,2.4,6.2-.8,13.1-7,15.5s-13.1-.7-15.5-7c-21.4-56.3-39.1-88-45.3-98.5l-67.9-15.4-26.9-24.9-67.1,6-7.6,7.2-9,15-64.2,26.6c-5.4,7-21.2,28.1-30,47.5-23.1,50.6-60.8,144.8-63.4,181.9-.5,6.3-5.8,11.2-12.1,11.2Z"/>
  <g>
    <path class="cls-8" d="M607.4,221.6c-.6-5.2.9-7.8,1.4-13,.6-5.8-4.1-33.8-11.8-44.4-13.2-18.3-52.6-26.8-79.9-11.4-35.9,20.3-26.1,66.1-26.1,66.1,0,0-11.1-3-10.6,8.3.3,6.2,3,14.3,6.1,20.8,5,10.7,10.8,18.6,10.8,18.6l8.1,1.1,4.8,48.7s20.3,16.5,28,21.7c13.3,8.9,21.9,14.4,21.9,14.4l11.5-25.4,19.3-12.7-.6-16.7s5.2-6.9,7.8-11.5,14.6-25.4,14.4-39.2c-.1-12.1-4.6-20.2-5.1-25.4Z"/>
    <path class="cls-8" d="M565.3,370l-11.7-7.4c-.4-.2-8.9-5.7-22.2-14.6-8.1-5.5-28.1-21.6-28.9-22.3l-3.9-3.2-4.4-44.2-3.8-.5-3-4.1c-.3-.4-6.5-9-11.9-20.6-2-4.3-6.7-15.4-7.2-25.3-.4-9.6,4.2-14.8,6.9-17,.8-.7,1.7-1.2,2.5-1.7-.2-4.9-.1-10.9.8-17.3,3.2-22.1,14.5-39.2,32.5-49.4,15.2-8.6,34-11.6,53.1-8.4,18.6,3.1,34,11.5,42.4,23.2,9.6,13.3,14.9,44.2,14,52.6-.3,2.5-.7,4.6-1,6.2-.5,2.2-.6,2.9-.4,4.3h0c.1.7.7,2.8,1.2,4.4,1.6,5.3,3.9,12.6,4,22.1.2,11.2-4.9,25.8-15.6,44.7l-.3.6c-1.7,3-4.2,6.7-6.1,9.4l.7,19.3-22.1,14.5-15.6,34.7ZM521.6,310.2c7,5.6,18.4,14.6,23.3,17.9,3.7,2.5,7.1,4.8,10,6.7l7.2-15.8,16.6-10.9-.5-14.2,2.5-3.4c1.3-1.8,5.1-7,6.9-10.2l.3-.6c11-19.5,12.6-28.8,12.5-32.5-.1-6.1-1.6-11-3-15.4-.9-3-1.8-5.9-2.1-8.8-.6-5.2.2-8.9.8-11.8.3-1.3.5-2.3.6-3.6.2-5-4.2-28.8-9.6-36.3-9-12.4-41.3-20.9-64.2-8-27.9,15.8-20.4,52.7-20.3,53.1l4.4,20.7-13.7-4.7c.9,3.2,2.2,6.9,3.9,10.5,2.4,5.1,5,9.5,6.9,12.5l12.1,1.7,5.4,53.1ZM487.9,230.5h0Z"/>
  </g>
  <path class="cls-8" d="M777.4,547.6c-2,0-4.1-.5-6-1.6-15.3-8.8-11.9-23.6-10.3-30.8,1.5-6.8,1.3-7-.1-8.1l-5.2-3.9,4.9-76.9,19.3,22.8c6.9,8.1,27.5,28,47.8,33.2,12.6-20.8,49.9-82.7,65.1-107.3,3.5-5.7,10.9-7.4,16.5-3.9,5.7,3.5,7.4,10.9,3.9,16.5-18.2,29.6-68.6,113.2-69.1,114.1l-3.8,6.3-7.3-.5c-19.8-1.4-38.5-13.2-51.8-24.1l-.6,9.3c8.1,9.8,5.5,21.2,4,27.8-.3,1.5-.8,3.5-.9,4.7,5.6,3.4,7.5,10.6,4.2,16.3-2.4,3.9-6.4,6.1-10.6,6.1Z"/>
  <path class="cls-8" d="M777.4,547.6c-2,0-4.1-.5-6-1.6-15.3-8.8-11.9-23.6-10.3-30.8,1.5-6.8,1.3-7-.1-8.1l-5.2-3.9,4.9-76.9,19.3,22.8c6.9,8.1,27.5,28,47.8,33.2,12.6-20.8,49.9-82.7,65.1-107.3,3.5-5.7,10.9-7.4,16.5-3.9,5.7,3.5,7.4,10.9,3.9,16.5-18.2,29.6-68.6,113.2-69.1,114.1l-3.8,6.3-7.3-.5c-19.8-1.4-38.5-13.2-51.8-24.1l-.6,9.3c8.1,9.8,5.5,21.2,4,27.8-.3,1.5-.8,3.5-.9,4.7,5.6,3.4,7.5,10.6,4.2,16.3-2.4,3.9-6.4,6.1-10.6,6.1Z"/>
  <path class="cls-8" d="M777.4,547.6c-2,0-4.1-.5-6-1.6-15.3-8.8-11.9-23.6-10.3-30.8,1.5-6.8,1.3-7-.1-8.1l-2.6-2-41-99.1,19.6,1.6c1.6.1,16,1.6,30.8,13.5,5.1,4.1,15.2,13.2,17.6,23.3,6.8,6.8,24.7,23.7,44.1,35.1,13.9-23.1,48.8-80.9,63.4-104.5,3.5-5.7,10.9-7.4,16.5-3.9,5.7,3.5,7.4,10.9,3.9,16.5-18.2,29.6-68.6,113.2-69.1,114.1l-5.6,9.3-9.8-4.6c-32.3-15.2-62.5-47.1-63.7-48.4l-.2-.3,13.5,32.6c10.9,10.3,8,23.1,6.4,30.3-.3,1.5-.8,3.5-.9,4.7,5.6,3.4,7.5,10.6,4.2,16.3-2.5,3.8-6.5,6-10.7,6ZM760.5,447.5l.8,1.9.1-.5c-.1-.3-.4-.8-.9-1.4Z"/>
  <path class="cls-8" d="M870.9,538.9h-.7c-6.6-.4-11.7-6-11.3-12.7,2.9-52.2,11.5-127.4,51.4-178.6,42.1-53.9,78.7-60.4,80.2-60.7l7.5-1.2,3.4,5c1.2,1,5.8,4.8,19.1,12.7,45.2,27.1,80.3,74.9,81.8,76.9l1.3,1.8.6,2.1c.3,1.2,8.2,30.5,8.2,69.8,0,7.9-1.6,21.1-3.2,35.1-.8,6.8-1.5,13.2-2.1,18.8-.6,6.6-6.5,11.4-13.1,10.8-6.6-.6-11.4-6.5-10.8-13.1.6-5.8,1.4-12.6,2.1-19.2,1.4-12.1,3-25.8,3-32.3,0-30.1-5.1-54.2-6.8-61.3-6.7-8.7-37-46.9-73.3-68.7-7.8-4.6-14-8.7-18.5-12-3.3,1.2-8.2,3.4-14.2,7-10.8,6.5-27.6,19.4-46.3,43.3-35.8,45.8-43.6,116.2-46.4,165.1-.3,6.5-5.6,11.4-11.9,11.4ZM1001.1,290.5h0Z"/>
  <g>
    <path class="cls-7" d="M368.8,346.7c-1.3-31.5-1.2-62.7-6-76.4-4.8-13.7-22.1-41.4-62.2-41.1-13.6.1-24.2,2.5-36.6,9.6-39,22.2-41.6,65.9-50.7,80.2-4,6.2-12.8,13.5-22.1,20.1-24,16.9-9.7,53.4-9.7,53.4l25.6,10.6c24.8,8,44.4-2.9,50.2,6,8.2,12.8,10.7,17.3,12,34.4,1.4,17.5.8,46.4.8,46.4.1-.2,49,20,73.8-13.6s-.4-50.3,10.3-70c10.4-19.8,15.1-45.8,14.6-59.6Z"/>
    <path class="cls-8" d="M261.3,510.4l.4-20.8c0-.3.6-28.7-.8-45.6-1.2-15.2-2.9-18.4-10.6-30.3-1.7-.6-6.7-.2-10.4.1-9.1.6-21.6,1.5-35.6-3l-.6-.2-28.8-12-1.3-3.2c-.7-1.7-16.2-42.6,12.6-63,13.5-9.6,18.3-15.3,20-17.8,1.9-3,3.8-8.8,6-15.4,6.5-19.8,16.4-49.8,47.5-67.5,13.1-7.5,24.9-10.5,40.6-10.7,39.5-.3,62.4,24.9,70,46.6,4.3,12.3,5,34.7,5.9,60.7.2,5.9.4,12,.6,18.1.6,15.6-4.7,43.2-15.8,63.7-2.8,5.1-2,9.7-.2,18.1,2.6,12.6,6.2,29.8-10.7,52.8-22.5,30.6-61.3,23.2-78,18.2l-10.8,11.2ZM278.1,483.8c13.9,4,43,9.1,58.9-12.6,12.6-17.1,10.3-28.1,7.9-39.7-1.8-8.8-3.9-18.7,1.8-29.3,10.3-19.1,14.3-43.8,13.9-55.2h0c-.2-6.1-.4-12.3-.6-18.3-.8-23.6-1.5-45.9-4.9-55.8-2.1-6-14.6-35.7-53.9-35.7h-.6c-12.9.1-22,2.5-32.6,8.5-25.6,14.6-34,39.9-40.1,58.4-2.5,7.7-4.7,14.3-7.8,19.1-4.1,6.3-12.2,13.9-24.3,22.4-14.9,10.5-10.2,32.4-7.9,40.6l21.8,9.1c10.9,3.4,21,2.7,29.1,2.2,9.7-.7,19.6-1.4,25.1,7.1,8.7,13.6,11.8,19.2,13.3,38.2,1.1,12.9,1,31.5.9,41Z"/>
  </g>
  <path class="cls-8" d="M389.3,620.9c-22.7,0-42.4-9.6-53.6-15l-.7-.4c-4.8-2.3-6.8-8.1-4.5-12.8,2.3-4.8,8.1-6.8,12.8-4.5l.7.4c13.3,6.5,37.5,18.2,61.9,10.5l8.6-34.4,25.9-10.5-.8-2-34.7-15.7,38.1-81.6,32.3,139.1,207.3-1.2,37.9,7.6c5.2,1,8.6,6.1,7.5,11.3-1,5.2-6.1,8.6-11.3,7.5l-36-7.2-220.7,1.3-9.8-42.4-19.3,7.9-8.7,34.6-4.5,1.8c-9.6,4.2-19.2,5.7-28.4,5.7ZM430.7,527.1l10.5,4.7-4.2-18.1-6.3,13.4Z"/>
  <path class="cls-8" d="M859.5,615s3.9-102,16.4-150.7,12.7-70,51.9-121.1,87.1-34.2,87.1-34.2l78.6,77.7s13.6,39.2,9.6,87.3c-4.2,49.8-12,108.5-13.4,139.1-.8,17.6-8.6,26.9-8.6,26.9,0,0-96.7,7.6-143.9-4.8-58.5-15.4-77.7-20.2-77.7-20.2Z"/>
  <path class="cls-8" d="M691.2,313.3s53.1,75,75,182.2l-53.1,3.5-136.6-165.9,15.6-63.1,27.7,29.4,71.4,13.9Z"/>
  <path class="cls-8" d="M682.8,520.2l5.3,49.6,32.7,39.1c47.9-10,54.2-37,58.7-44.8s-38.8-114.1-55.5-162c-16.7-47.9-39.1-77-39.1-77l-69.7-15.8-28.5-26.4-69.7,6-15.9,8.9-12.1,16.4-62.1,26s-21.9,27.2-33.4,52.4c-21.8,47.8-39.9,104.7-54.4,135.9-17.2,37-5.6,65.8-5.6,65.8,0,0,39.1,26.2,77,10.6l12.1-32.9,30.1-12.3-5.6-14.5-29.4-13.3,22.2-47.5,27.7,119.4,214-1.2,36.9,7.4"/>
  <path class="cls-5" d="M696.6,530.6l5.3,49.6,38.7,10.9c50.8-2.9,15.9-26.8,20.3-34.6,4.5-7.8-15.2-95-31.9-142.9s-40.6-88.7-40.6-88.7l-69.7-15.8-18.1-16-69.2,7.1-22.1,5.8-11.7,20.1-56.7,24.3s-21.9,27.2-33.4,52.4c-21.8,47.8-39.9,104.7-54.4,135.9-17.2,37-5.6,65.8-5.6,65.8,0,0,49.2,17.5,87.1,1.9l2-24.2,30.1-12.3-5.6-14.5-42.1-22.4,22.2-47.5,28.6,121.9,191.2-23,48,6.7"/>
  <path class="cls-7" d="M389.4,615.5c-21.5,0-40.5-9.2-51.3-14.4l-.7-.4c-2.1-1-2.9-3.5-1.9-5.6s3.5-2.9,5.6-1.9l.7.4c13.5,6.5,41.4,20,68.9,9.8l8.7-34.6,28.3-11.5-3.5-9.1-31.7-14.3,29-62.2,29.7,127.9,142.9-.8h0c2.3,0,4.1,1.8,4.2,4.1,0,2.3-1.8,4.2-4.1,4.2l-149.6.9-10.3-44.4-27.8,11.3-8.7,34.6-1.9.8c-9.1,3.7-18,5.2-26.5,5.2ZM423.5,529.8l25.5,11.5-10.3-44.3-15.2,32.8Z"/>
  <path class="cls-7" d="M343.8,521.6c-.6,0-1.2-.1-1.7-.4-2.1-.9-3-3.4-2.1-5.5,6.3-13.9,12.7-31.1,19.5-49.4,8.6-23.2,18.4-49.5,30.3-75.5,11.6-25.3,33.1-52.1,34-53.3l.7-.8,63.2-26.1,5.7-10.2c1.1-2,3.7-2.7,5.7-1.6s2.7,3.7,1.6,5.7l-7.1,12.8-63.9,26.4c-3.7,4.7-22.2,28.7-32.2,50.7-11.8,25.8-21.5,51.9-30.1,75-6.8,18.4-13.3,35.7-19.7,49.9-.8,1.4-2.3,2.3-3.9,2.3Z"/>
  <path class="cls-7" d="M721.8,403.7c-1.6,0-3.2-1-3.8-2.6-18.2-43.5-32.1-66.8-35.7-72.5l-69.1-15.7-28-25.9-66.9,4.3-.6,5.8c-.2,2.3-2.3,3.9-4.6,3.7-2.3-.2-3.9-2.3-3.7-4.6l1.3-12.8,77.5-4.9,29,26.8,70.2,16,.9,1.4c.6,1,15.8,24.1,37.3,75.2.9,2.1-.1,4.6-2.2,5.4-.5.3-1.1.4-1.6.4Z"/>
  <path class="cls-7" d="M688.1,574c-2.1,0-3.9-1.6-4.1-3.7l-5.3-49.6c-.2-2.3,1.4-4.3,3.7-4.6,2.3-.2,4.3,1.4,4.6,3.7l5.3,49.6c.2,2.3-1.4,4.3-3.7,4.6h-.5Z"/>
  <g>
    <line class="cls-1" x1="678" y1="378.1" x2="679.6" y2="408.1"/>
    <path class="cls-7" d="M679.6,412.2c-2.2,0-4-1.7-4.2-3.9l-1.6-29.9c-.1-2.3,1.6-4.3,3.9-4.4,2.3-.1,4.3,1.6,4.4,3.9l1.6,29.9c.1,2.3-1.6,4.3-3.9,4.4h-.2Z"/>
  </g>
  <g>
    <path class="cls-8" d="M607.4,221.6c-.6-5.2.9-7.8,1.4-13,.6-5.8-4.1-33.8-11.8-44.4-13.2-18.3-52.6-26.8-79.9-11.4-35.9,20.3-26.1,66.1-26.1,66.1,0,0-11.1-3-10.6,8.3.3,6.2,3,14.3,6.1,20.8,5,10.7,10.8,18.6,10.8,18.6l8.1,1.1,4.8,48.7s20.3,16.5,28,21.7c13.3,8.9,21.9,14.4,21.9,14.4l11.5-25.4,19.3-12.7-.6-16.7s5.2-6.9,7.8-11.5,14.6-25.4,14.4-39.2c-.1-12.1-4.6-20.2-5.1-25.4Z"/>
    <path class="cls-7" d="M561.9,358.6l-4-2.6c-.1-.1-8.9-5.6-22-14.5-7.8-5.3-27.5-21.2-28.3-21.9l-1.3-1.1-4.6-47.2-6.6-.9-1-1.4c-.2-.3-6-8.3-11.2-19.3-1.8-3.9-6.1-13.8-6.4-22.3-.3-5.8,2-8.9,4-10.5,1.8-1.5,3.9-2.1,5.9-2.4-.5-4.9-1-12.8.3-21.6,2.9-19.6,12.7-34.7,28.6-43.7,30-17,71.2-7,85.3,12.6,8.4,11.6,13.2,40.8,12.6,47.3-.2,2.1-.6,3.8-.9,5.4-.5,2.4-.9,4.1-.6,6.7h0c.2,1.4.8,3.5,1.5,5.8,1.5,4.9,3.6,11.5,3.7,19.9.1,9.6-4.8,23.3-14.6,40.7l-.3.6c-2.1,3.7-5.6,8.6-7.2,10.8l.6,17.6-20.3,13.3-13.2,28.7ZM514.1,314.2c4.6,3.7,20,16.1,26.4,20.4,7.8,5.2,14,9.3,17.8,11.8l10-22.1,18.4-12.1-.5-15.9.9-1.2c.1-.1,5.1-6.8,7.5-11.1l.3-.6c11.4-20.1,13.6-31,13.6-36.5-.1-7.2-1.9-13-3.3-17.6-.9-2.8-1.6-5.2-1.8-7.4h0c-.4-3.9.1-6.7.7-9.3.3-1.4.6-2.8.8-4.5.5-5.2-4.2-32-11.1-41.6-5.8-8.1-17.8-14.3-32-16.7-15.2-2.5-30.7-.2-42.5,6.5-32.8,18.5-24.5,59.9-24.1,61.6l1.4,6.6-6.5-1.7c-.9-.2-3.4-.5-4.5.4-.9.7-1,2.6-.9,3.7.2,4.9,2.3,12,5.7,19.2,3.6,7.6,7.5,13.8,9.4,16.5l9.6,1.3,4.7,50.3Z"/>
  </g>
  <path class="cls-7" d="M565.8,307.6c-11.3,0-28.8-7.3-38-15.8-1.7-1.6-1.8-4.2-.2-5.9,1.6-1.7,4.2-1.8,5.9-.2,7.8,7.2,23.7,13.9,32.8,13.6,10.7-.3,19.3-4,25.1-10.6,1.5-1.7,4.1-1.9,5.9-.4s1.9,4.1.4,5.9c-7.3,8.4-18.1,13-31.1,13.4h-.8Z"/>
  <g>
    <line class="cls-1" x1="428.5" y1="423.1" x2="446.8" y2="513.4"/>
    <path class="cls-7" d="M446.8,517.5c-1.9,0-3.7-1.4-4.1-3.3l-18.3-90.3c-.5-2.3,1-4.4,3.2-4.9,2.3-.5,4.4,1,4.9,3.2l18.3,90.3c.5,2.3-1,4.4-3.2,4.9-.3.1-.5.1-.8.1Z"/>
  </g>
  <path class="cls-7" d="M368.3,545.8c-1.1,0-2-.7-2.3-1.8-.3-1.3.5-2.5,1.7-2.8l49.6-11.6c1.3-.3,2.5.5,2.8,1.7.3,1.3-.5,2.5-1.7,2.8l-49.6,11.6c-.2,0-.3.1-.5.1Z"/>
  <path class="cls-7" d="M381,529.9c-1.2,0-2.3-1-2.3-2.2-.1-1.3,1-2.4,2.2-2.4l26.4-1.1c1.3-.1,2.4,1,2.4,2.2.1,1.3-1,2.4-2.2,2.4l-26.5,1.1h0Z"/>
  <path class="cls-7" d="M508.9,239.1h-.4c-1.3-.2-2.1-1.4-1.9-2.7.4-2.2-.5-5.7-1.4-9.3l-.4-1.6c-2-7.9,2.6-9.7,5.6-10.9,2.1-.8,3.9-1.6,4.8-3.8,1.1-2.7.2-7.9-.8-12.9-1.3-7.3-2.7-14.8.5-20,5.3-8.4,12.5-15.6,43.5-10.2,28.6,5,37.6-3.5,37.7-3.6.9-.9,2.4-.9,3.3,0,.9.9.9,2.4.1,3.3-.4.4-10.4,10.4-41.9,4.9-28.1-4.9-34.2.7-38.7,8-2.3,3.7-1,10.6.1,16.7,1.1,5.9,2.1,11.5.5,15.5-1.7,4.1-5,5.4-7.4,6.4-3,1.2-3.8,1.5-2.8,5.5l.4,1.6c1.1,4.3,2.1,8.1,1.5,11.3-.2,1-1.2,1.8-2.3,1.8Z"/>
  <path class="cls-7" d="M504.7,246.6c-1,0-1.8-.6-2.2-1.5,0-.1-3.3-8.9-6.2-13.9-2.9-4.9-7-9.6-7.1-9.7-.9-1-.8-2.4.2-3.3s2.4-.8,3.3.2c.2.2,4.5,5.1,7.6,10.4s6.4,14.2,6.5,14.6c.4,1.2-.2,2.6-1.4,3-.1.1-.4.2-.7.2Z"/>
  <path class="cls-7" d="M581,259.3h-.3c-1.3,0-2.3-1.1-2.3-2.4s1.1-2.3,2.4-2.3c.2,0,10.1,0,10.4-5.9-.3-1.1-2.8-4.3-4.9-6.9-3.4-4.2-7.6-9.5-10-14.7-.5-1.2,0-2.6,1.1-3.1,1.2-.5,2.6,0,3.1,1.1,2.2,4.7,6.2,9.7,9.4,13.7,4.1,5.1,6,7.6,5.9,9.9-.2,8.5-9.6,10.6-14.8,10.6Z"/>
  <path class="cls-7" d="M559.1,271c-2.4,0-3.8-.1-4.1-.1-1.3,0-2.3-1.1-2.2-2.4,0-1.3,1.1-2.3,2.4-2.3.2,0,21.9.8,37.3-4,1.2-.4,2.5.3,2.9,1.5s-.3,2.5-1.5,2.9c-12.2,3.9-27.6,4.4-34.8,4.4Z"/>
  <path class="cls-7" d="M574.5,278.3c-1.2,0-2.2-.9-2.3-2.2-.1-1.3.9-2.4,2.2-2.5,1.1-.1,3.3-.3,4.4-.7,1.2-.4,2.6.3,3,1.5s-.3,2.6-1.5,3c-2,.7-5.2.9-5.5.9q-.2,0-.3,0Z"/>
  <g>
    <path class="cls-8" d="M545.8,222.3s7-6.1,10.4-1"/>
    <path class="cls-7" d="M545.8,223.9c-.4,0-.9-.2-1.2-.5-.6-.7-.5-1.6.2-2.2.5-.4,4.6-3.9,8.6-3.4,1.7.2,3.1,1.1,4.1,2.6.5.7.3,1.7-.4,2.2s-1.7.3-2.2-.4c-.5-.8-1.1-1.2-1.9-1.3-2.2-.3-5.2,1.8-6.2,2.6-.3.3-.7.4-1,.4Z"/>
  </g>
  <ellipse class="cls-7" cx="552" cy="223.6" rx="2.7" ry="4"/>
  <g>
    <path class="cls-8" d="M586,220.5c2.1-2.8,5.8-3.1,7.6-1.5"/>
    <path class="cls-7" d="M586,222c-.3,0-.6-.1-.9-.3-.7-.5-.8-1.5-.3-2.2,1.3-1.8,3.2-2.9,5.4-3.1,1.8-.2,3.4.3,4.5,1.3.6.6.7,1.6.1,2.2-.6.6-1.6.7-2.2.1-.4-.4-1.2-.6-2.1-.5-1.2.1-2.4.8-3.2,1.8-.3.5-.8.7-1.3.7Z"/>
  </g>
  <ellipse class="cls-7" cx="589.44" cy="221.87" rx="4" ry="2.7" transform="translate(281.61 771.33) rotate(-81.37)"/>
  <path class="cls-7" d="M537.3,216.4c-1.1,0-2-.7-2.3-1.8-.3-1.3.5-2.5,1.8-2.8,14.7-3.4,33-1.7,33.8-1.6,1.3.1,2.2,1.3,2.1,2.6-.1,1.3-1.3,2.2-2.6,2.1-.2,0-18.3-1.7-32.3,1.5-.2,0-.4,0-.5,0Z"/>
  <path class="cls-7" d="M586.2,214.2c-1,0-1.9-.6-2.2-1.6-.4-1.2.3-2.5,1.5-2.9.4-.1,10.4-3.3,21.2-1.2,1.3.3,2.1,1.5,1.8,2.8s-1.5,2.1-2.8,1.8c-9.5-1.9-18.8,1-18.9,1.1-.1-.1-.3,0-.6,0Z"/>
  <path class="cls-7" d="M533.3,271.9c-.3,0-.6-.1-.9-.2-14.4-5.9-21.1-23.1-21.4-23.8-.5-1.2.1-2.6,1.3-3,1.2-.5,2.6.1,3,1.3h0c.1.2,6.3,16,18.8,21.2,1.2.5,1.8,1.9,1.3,3.1-.3.9-1.2,1.4-2.1,1.4Z"/>
  <path class="cls-8" d="M777.4,535.6c-15.4-8.9,6.4-26.3-9.2-38l2.6-40.7s40.1,33.1,63,38.6l58.6-94s-20,192.9-14.7,184.2"/>
  <path class="cls-6" d="M1104.1,441.4c-1-27.8-7.7-56.6-7.7-56.6,0,0-25.4-24.3-37.4-35.5-27.1-25.4-59.5-47.2-59.5-47.2,0,0-22,3.1-62.6,53.1-35.4,43.5-46.5,116-51.1,162.1-1,9.9-1.3,20-1.2,29.8l-3.3-1.3-19.5,14.7-9.5,19,6.5,34.2s127.8,28,155.4,33.3c27.6,5.3,73.7-15.8,73.7-15.8,0,0,12.3-47.4,16.3-85.4,5.6-54.7.5-87.9-.1-104.4Z"/>
  <path class="cls-7" d="M833.8,499.7c-.7,0-1.5-.2-2.1-.6-2-1.2-2.6-3.7-1.4-5.7.5-.8,51-84.5,69.2-114.2,1.2-2,3.8-2.6,5.7-1.4,2,1.2,2.6,3.8,1.4,5.7-18.2,29.6-68.7,113.3-69.2,114.1-.8,1.3-2.2,2.1-3.6,2.1Z"/>
  <path class="cls-6" d="M873,577.1c-39.5-13.4-56.5-20.6-107.6-59l15.3-48.6s35.9,33,59.6,38.1c0,0,22.9-38.1,41.3-68,0,0-13.8,48.4-11.2,93.4,2.6,44.9,2.6,44.1,2.6,44.1Z"/>
  <g>
    <g>
      <path class="cls-8" d="M880.4,181.5c-16.6,25.4-14,37.8-14,37.8l.5,10.7s-8.3,12-16.7,23c-4.5,5.9-8.9,14.2-7.2,18.8,2.3,6.3,15.8,9.4,15.8,9.4,0,0,1.9,9.2,3.8,19.3,1.2,6.7,3.3,17.4,8.1,21.9,6.6,6.3,42.4,5.5,42.4,5.5,0,0,3.8,9.8,9.4,15.9,5.6,6.1,11.2,10.4,11.2,10.4l-7.4,16.4s28.9-3.6,46.3-24.2c18.6-22.1,32.7-36.9,32.7-36.9,0,0-10.5-22-9.8-29.4.9-10.7,10.7-20.7,14.8-36.6,2.4-9.3,2.6-20.8-.4-35.5-2.5-12.1-13.5-39.6-38.2-50.7-13-5.9-25.6-7.3-42.3-5.9-16.7,1.3-22.9,9.7-22.9,9.7,0,0-18.8,9.2-26.1,20.4Z"/>
      <path class="cls-8" d="M904.9,386.1l12.9-28.7c-1.6-1.5-3.3-3.2-5-5-3.3-3.6-6.1-8-8.1-11.7-3.3,0-7.2-.2-11.3-.4-17.3-1-26.5-3.5-31.9-8.7-7.3-7-9.9-18.6-11.9-28.9-.8-4.2-1.6-8.3-2.2-11.6-6.5-2.6-13.9-7.2-16.8-15-1.8-4.9-3-15.5,9.2-31.2,5.4-7,10.8-14.5,13.8-18.8l-.2-5.6c-.7-5.7-.4-20.9,16.1-46.2,7.6-11.6,22.9-20.8,28.8-24,4.1-4.1,13.4-10.9,30-12.2,19.8-1.6,34.3.5,48.7,7.1,29,13.1,42.3,43.9,45.5,60,3.3,15.9,3.3,29.5.2,41.3-2.4,9.2-6.3,16.6-9.5,22.6-2.5,4.7-4.6,8.7-5,11.6.3,3.4,4.3,14,8.6,23l3.8,8.1-6.1,6.5c-.1.1-14.1,14.9-32.2,36.3-20.4,24.2-53.2,28.6-54.6,28.7l-22.8,2.8ZM921.7,314.5l3.3,8.5c1.1,2.9,4,8.7,6.8,11.7,4.8,5.1,9.6,8.9,9.7,8.9l7,5.4c5-2.8,9.9-6.5,14-11.3,11.6-13.7,21.3-24.6,27.2-31-3.9-9.3-8-20.8-7.4-28,.7-8.1,4.4-15.1,7.9-21.8,2.8-5.3,5.6-10.7,7.3-17,2.1-7.9,1.9-17.6-.6-29.6-1.7-8.5-10.6-32.4-30.8-41.5-10.4-4.7-20.5-6-36-4.8-8.7.7-12.7,3.8-13.6,4.7l-1.8,3-2.6.6c-6,3.1-17.1,10.2-21,16.2l-10.9-7.1,10.9,7.1c-11.1,16.9-12,26.3-12,28.4l.5,1.4-.4.3.7,15-2.5,3.6c-.3.5-8.6,12.5-17.2,23.6-1.7,2.2-2.9,4.2-3.7,5.9,1.5.6,3.3,1.3,4.9,1.6l8.1,1.9,1.7,8.1c.1.4,2,9.5,3.9,19.5,1.6,8.8,3,12.6,3.9,14.3,4.9,1.7,19.8,2.8,33.4,2.5l9.3-.1ZM878.3,311.9h0ZM854,265.3h0ZM879.3,217.4h0ZM879.1,216.6h0ZM916.9,168.5h0Z"/>
    </g>
    <path class="cls-7" d="M834.6,498.4c-.7,0-1.5-.2-2.1-.6-2-1.2-2.6-3.7-1.4-5.7,5.2-8.6,51-84.5,68.5-113,1.2-2,3.8-2.6,5.7-1.4,2,1.2,2.6,3.8,1.4,5.7-17.5,28.4-63.3,104.3-68.4,112.9-.9,1.4-2.3,2.1-3.7,2.1Z"/>
    <path class="cls-1" d="M870.8,526.9c3.5-61.4,14.1-127.3,48.9-171.8,39.6-50.8,72.7-56.2,72.7-56.2,0,0,3.3,3.9,21.9,15,43.6,26.1,82.1,70,82.1,70,0,0,7.7,31,7.7,69.1,0,10.9-7.3,37-9,53.9"/>
    <path class="cls-7" d="M833.8,499.7c-.7,0-1.5-.2-2.1-.6-2-1.2-2.6-3.7-1.4-5.7.5-.8,51-84.5,69.2-114.2,1.2-2,3.8-2.6,5.7-1.4,2,1.2,2.6,3.8,1.4,5.7-18.2,29.6-68.7,113.3-69.2,114.1-.8,1.3-2.2,2.1-3.6,2.1Z"/>
    <path class="cls-7" d="M819.8,563.2c-.7,0-1.4-.2-2.1-.6l-3.1-1.8c-16.2-9.3-43.2-24.8-55.2-42.3l-1.4-2,18.5-37.8,14.4-17.6,3.2,2.5c7.5,5.9,27.4,20.9,38,26.4,9.8-16.5,54-91.5,71.6-118.6,1.2-1.9,3.8-2.5,5.8-1.2,1.9,1.2,2.5,3.8,1.2,5.8-19.5,30.3-72.8,120.6-73.3,121.5l-1.8,3-3.3-1.3c-10-3.8-31.8-20.3-40.1-26.6l-8.6,10.6-16,32.5c11.5,15.2,36.1,29.3,51,37.8l3.1,1.8c2,1.1,2.7,3.7,1.5,5.7-.6,1.5-2,2.2-3.4,2.2Z"/>
    <g>
      <path class="cls-8" d="M880.4,181.5c-16.6,25.4-14,37.8-14,37.8l.9,13.1s-9.9,12.1-16.7,20.1c-5.5,6.5-9.8,13.8-8.1,18.3,2.3,6.3,16.2,10.7,16.2,10.7,0,0,1.9,8.8,3.8,18.8,1.2,6.7,3.3,17.4,8.1,21.9,6.6,6.3,40.1,7,40.1,7l22.9,24.7-7.4,16.4s17.9-.9,32.7-9.5c5.9-3.4,8.5-4.7,13.4-10.6,18.6-22.1,36.1-41.6,36.1-41.6,0,0-11.1-20-10.5-27.5.9-10.7,8-22.1,12.1-38,2.4-9.3,2.6-20.8-.4-35.5-2.5-12.1-10.5-39.6-35.2-50.7-13-5.9-28.6-7.3-45.3-5.9-16.7,1.3-22.9,9.7-22.9,9.7,0,0-18.5,9.6-25.8,20.8Z"/>
      <path class="cls-7" d="M919.7,374.9l9-20.1-19.8-21.4c-9.8-.3-34.4-1.6-41.2-8.1-5.4-5.1-7.6-15.2-9.3-24.2-1.3-6.9-2.6-13.2-3.3-16.4-4.8-1.8-14.2-5.9-16.5-12.4-2.5-7,3.4-16.1,8.8-22.5,5.4-6.4,12.9-15.5,15.6-18.8l-.8-11.2c-.4-2.6-1.5-15.9,14.6-40.6,7.1-10.8,23.1-19.8,26.8-21.8,2.2-2.4,9.8-9.3,25.2-10.5,19.2-1.5,34.6.5,47.4,6.3,11.5,5.2,20.9,14.2,27.8,26.8,5.5,10,8.3,20.2,9.7,26.9,3,14.6,3.1,26.8.4,37.3-1.9,7.3-4.4,13.7-6.6,19.3-2.7,6.8-5,12.7-5.4,18-.4,4.3,5.6,17.3,9.9,25.1l1.4,2.6-2,2.2c-.2.2-17.7,19.7-36,41.5-5,6-8.1,7.8-13.3,10.8l-1.2.7c-15.5,9-33.8,10-34.6,10.1l-6.6.4ZM880.4,181.5l3.5,2.3c-15.1,23.2-13.4,34.6-13.4,34.7l.1.5,1,14.7-1,1.3c-.1.1-10,12.3-16.8,20.2-6.9,8.1-7.8,12.9-7.4,14.2,1,2.9,8.5,6.5,13.5,8.1l2.3.7.5,2.4c0,.1,2,9,3.8,19,.9,4.8,3,15.9,6.9,19.7,3.4,3.2,22,5.5,37.3,5.8h1.8l26,28-5.5,12.2c6.2-1,15.6-3.3,23.8-8.1l1.2-.7c4.9-2.9,7-4.1,11.1-8.9,14.8-17.6,29.2-33.8,34.3-39.5-3.3-6.3-10.1-20.2-9.5-27.2.6-6.6,3.1-13,6-20.4,2.2-5.7,4.5-11.6,6.3-18.4,2.4-9.3,2.3-20.3-.5-33.6-2.2-10.9-9.9-37.4-32.8-47.8-11.4-5.2-25.6-7-43.3-5.6-14.4,1.1-19.7,7.8-19.9,8.1l-.6.8-.8.4c-.2.1-17.8,9.1-24.4,19.3l-3.5-2.2Z"/>
    </g>
    <path class="cls-7" d="M874.9,303.5c-1.1,0-2.3-.1-3.5-.3-1.3-.2-2.2-1.4-2-2.7.2-1.3,1.4-2.2,2.7-2,7.1,1.1,10.6-2,12.2-4.5h-.7c-13.6,0-22.3-1.8-22.7-1.8-1.3-.3-2.1-1.5-1.8-2.8s1.5-2.1,2.8-1.8c.1,0,10.5,2.1,26,1.7l3-.1-.7,2.9c-.1.2-2.8,11.4-15.3,11.4Z"/>
    <path class="cls-7" d="M899.9,229.3c-.2,0-.5,0-.8-.1-11.6-3.9-24.5-3.1-24.7-3.1-1.3.1-2.4-.9-2.5-2.2-.1-1.3.9-2.4,2.2-2.5.6,0,14-.8,26.5,3.4,1.2.4,1.9,1.7,1.5,3-.4.9-1.3,1.5-2.2,1.5Z"/>
    <path class="cls-7" d="M921.3,264.8c-.2,0-.4,0-.5-.1l-7.8-1.7-1.5-23.3v-.2c0-.4,1.1-8.7,3.2-18.1,3-13,6.5-21.5,10.5-25.1,4.5-4,9.7-4.6,15.6-5.1,7.2-.7,16.2-1.6,28.8-8.6,3.6-2,4.8-3.6,4.7-4.4-.1-1.4-3.4-3.2-6.2-4.1-1.2-.4-1.9-1.7-1.6-2.9.4-1.2,1.7-1.9,2.9-1.6,1.5.4,8.9,2.9,9.5,8.1.5,4.8-5.2,8-7.1,9-13.5,7.5-23.4,8.4-30.6,9.2-5.6.6-9.6,1-13,4-6.6,5.9-11,30.7-12.2,40.1l1.3,19.4,4.3,1c1.3.3,2,1.5,1.8,2.8-.1.9-1.1,1.6-2.1,1.6Z"/>
    <path class="cls-7" d="M978.1,286.6c-5,0-9.9-.6-13.1-2.6-8-4.9-11.6-6.2-11.7-6.3-1.2-.4-1.8-1.8-1.4-3,.4-1.2,1.8-1.8,3-1.4.2.1,4,1.5,12.5,6.7,6.2,3.8,23.4,1,29.4-.4,1.3-.3,2.5.5,2.8,1.8s-.5,2.5-1.8,2.8c-1.4.3-10.8,2.4-19.7,2.4Z"/>
    <path class="cls-7" d="M952.9,281.9l-13.5-2.3c-1.3-.2-2.1-1.4-1.9-2.7s1.4-2.1,2.7-1.9l10,1.7c1.8-4,6.4-15,7.9-25.4,1.1-7.5-2-13.8-5.5-15-7.5-2.5-12.9,2.5-18.1,16.6-.4,1.2-1.8,1.8-3,1.4s-1.8-1.8-1.4-3c2.4-6.7,8.8-24.5,23.9-19.5,6.2,2.1,10,10.9,8.7,20.1-2,13.8-8.7,27.8-9,28.4l-.8,1.6Z"/>
    <path class="cls-7" d="M872.9,258.7c-1.2,0-2.2-.9-2.3-2l-4.4-32.2c-.2-1.3.7-2.5,2-2.6,1.3-.2,2.5.7,2.6,2l4.4,32.2c.2,1.3-.7,2.5-2,2.6h-.3Z"/>
    <path class="cls-7" d="M933.2,249.9h-.2l-59.3-3.9c-1.3-.1-2.3-1.2-2.2-2.5s1.2-2.3,2.5-2.2l59.3,3.9c1.3.1,2.3,1.2,2.2,2.5-.1,1.2-1.1,2.2-2.3,2.2Z"/>
    <ellipse class="cls-7" cx="884.41" cy="237.6" rx="3.2" ry="5.5" transform="translate(-.99 3.72) rotate(-.24)"/>
    <g>
      <path class="cls-8" d="M884.4,233.5s5.5-2,6.8,3"/>
      <path class="cls-7" d="M891.3,238.1c-.7,0-1.3-.5-1.5-1.2-.3-1-.7-1.6-1.4-1.9-1.2-.6-2.9-.2-3.4,0-.8.3-1.7-.1-2-.9s.1-1.7.9-2c.3-.1,3.3-1.1,5.9.2,1.4.7,2.5,2.1,3,3.9.2.8-.3,1.7-1.1,1.9h-.4Z"/>
    </g>
  </g>
  <path class="cls-7" d="M954.4,174.1h-.2c-31.9-2-50.5-5.5-52.2-9.8-.5-1.2.1-2.6,1.3-3.1,1-.4,2.2-.1,2.8.8.7.5,7.4,4.8,48.5,7.4,1.3.1,2.3,1.2,2.2,2.5-.1,1.3-1.2,2.2-2.4,2.2ZM906.4,162.5h0ZM906.4,162.5h0ZM906.3,162.5h0ZM906,162h0Z"/>
  <path class="cls-7" d="M905.6,330.3c-1,0-2-.7-2.3-1.8-.3-1.3.4-2.5,1.7-2.8,13-3.3,20.4-7.8,26.2-16.3,4.5-6.5,7.9-18.2,7.9-18.3.4-1.2,1.7-2,2.9-1.6s2,1.7,1.6,2.9c-.1.5-3.7,12.5-8.6,19.7-6.5,9.4-14.8,14.7-28.9,18.2-.2-.1-.4,0-.5,0Z"/>
  <path class="cls-7" d="M901.7,296c-.9,0-1.7-.5-2.1-1.3-.6-1.2-.1-2.6,1.1-3.1,10.1-4.8,18.7-21.3,18.8-21.4.6-1.1,2-1.6,3.2-1,1.1.6,1.6,2,1,3.2-.4.7-9.4,18.1-21,23.5-.3,0-.7.1-1,.1Z"/>
  <g>
    <path class="cls-8" d="M956.1,372.9l8.6,6.1s13.8-3.5,25.4-20.8,37-38,37-38l-12.1-22.4-12.1-1.9,3.8,8.3s-25.1,15.3-36.1,29.2c-11,13.8-27.7,30-27.7,30l-7.8,19.5"/>
    <path class="cls-7" d="M935,387.1c-.5,0-1-.1-1.6-.3-2.1-.9-3.2-3.3-2.3-5.4l8.2-20.3.6-.6c.2-.2,16.7-16.1,27.3-29.6,9-11.4,26.8-23.5,34.1-28.2l-5.6-12.1,21.9,3.5,14.8,27.2-2.7,2.2c-.2.2-25.1,20.5-36.1,37.1-12.3,18.4-27.2,22.3-27.8,22.5l-1.9.5-10.2-7.2c-1.9-1.3-2.3-3.9-1-5.8s3.9-2.3,5.8-1l6.9,4.9c3.8-1.5,13.1-6.3,21.2-18.4,9.6-14.5,28.2-30.8,35.1-36.7l-9.5-17.6-2.4-.4,2.1,4.6-3.2,1.9c-.2.1-24.6,15.1-35,28.2-9.9,12.5-24.2,26.6-27.4,29.8l-7.5,18.7c-.6,1.5-2.2,2.5-3.8,2.5Z"/>
  </g>
  <path class="cls-7" d="M368.8,346.7c-1.3-31.5-1.2-62.7-6-76.4-4.8-13.7-22.1-41.4-62.2-41.1-13.6.1-24.2,2.5-36.6,9.6-39,22.2-41.6,65.9-50.7,80.2-4,6.2-12.8,13.5-22.1,20.1-24,16.9-9.7,53.4-9.7,53.4l25.6,10.6c24.8,8,44.4-2.9,50.2,6,8.2,12.8,10.7,17.3,12,34.4,1.4,17.5.8,46.4.8,46.4.1-.2,49,20,73.8-13.6s-.4-50.3,10.3-70c10.4-19.8,15.1-45.8,14.6-59.6Z"/>
  <path class="cls-8" d="M117.4,613.7s-20.2-36-4-126c9.4-52.2,14.4-78.8,44.2-96.3,17.9-10.6,44.3-21.1,64.4-31.7,0,0-10.1,16.2,4.2,31.7,15.7,17,51.7-15.8,57,24.3s16.9,121.4,4.2,168.9c-6.9,25.8-21.9,44-21.9,44l-148.1-14.9Z"/>
  <path class="cls-7" d="M293.9,564.8h-.4c-2.3-.2-4-2.2-3.8-4.5,3.4-38.6.7-90.9-6.9-133.3-6.5-36.5-69.3-49-69.9-49.1l-5.7-1.1,4.1-7.1c-5.2,2.5-10.6,5-15.8,7.4-12.7,5.9-25.8,12-35.9,17.9-23.2,13.7-30.4,40.4-39.5,82.8-.5,2.2-2.7,3.7-4.9,3.2-2.2-.5-3.7-2.7-3.2-4.9,9.3-43.3,17.3-72.8,43.4-88.2,10.4-6.1,23.8-12.3,36.6-18.3,9.5-4.4,19.4-9,27.9-13.5l12.7-6.7-12.4,21.6c6.5,1.6,17.6,4.9,29.3,10.3,24.1,11.2,38.5,26.5,41.6,44.2,7.6,43,10.4,96.2,7,135.4-.2,2.3-2,3.9-4.2,3.9Z"/>
  <path class="cls-7" d="M219.5,602c-2.3,0-4.1-1.8-4.2-4.1,0-2.3,1.8-4.2,4.1-4.2l525.9-6.9h.1c2.3,0,4.1,1.8,4.2,4.1,0,2.3-1.8,4.2-4.1,4.2l-526,6.9q.1,0,0,0Z"/>
  <g>
    <path class="cls-8" d="M648.6,555.5s-31.6-2.8-44.1-.9-65.9,21.8-65.9,21.8l28.5,40.4s46.7-12.5,61.1-14.1,28.9-10.2,28.9-10.2l65.3-1.5s23.1-48.1-26.5-53.9l-47.3,18.4Z"/>
    <path class="cls-7" d="M565.3,621.5l-33.3-47.2,5.1-1.9c2.2-.8,53.9-20,66.7-22,11.7-1.8,38.6.3,44.1.8l47.3-18.5,1,.1c15.5,1.8,26.1,7.7,31.5,17.6,9.8,17.7-1.3,41.2-1.7,42.2l-1,2.4-66.8,1.5c-3.6,2-16.4,8.6-29.6,10.2-14,1.6-60.1,13.9-60.5,14l-2.8.8ZM545.1,578.4l23.7,33.6c10.4-2.7,46.2-12.1,58.9-13.5,13.4-1.5,27.1-9.5,27.3-9.6l.9-.5h1.1l62.6-1.4c2.2-5.8,7.2-21.1,1-32.3-4-7.2-12.1-11.6-24.2-13.2l-47.2,18.4-1-.1c-.3,0-31.3-2.7-43.1-.9-8.8,1.2-40.6,12.4-60,19.5Z"/>
  </g>
  <path class="cls-8" d="M388.5,579.7l8.4-8.6,45.5-23.3,68,16.5,39.7-1.7,44.8,22.4,8.4,39.2-33.3,10.2-16-1.2-23-9.5s-23,4.5-41.4-16.2c0,0-58.8,12.1-89.9,9.1"/>
  <path class="cls-7" d="M570.6,638.4h-.7c-.3,0-8.3-.5-16.2-6.3-6.5-4.7-14.6-6.7-16.9-7.1-5,.6-32.7,3.2-48.9-13.5-7.3.2-34.3.7-55.1-.8-2.3-.2-4-2.2-3.9-4.4.2-2.3,2.2-4,4.4-3.9,23.7,1.7,55.8.8,56.1.7l2-.1,1.3,1.5c14.2,16.3,43.1,12.2,43.4,12.1l.7-.1.7.1c.5.1,11.8,2.1,20.9,8.7,4.7,3.4,9.5,4.4,11.1,4.6l29.2-9c-.9-9.6-3.4-27.6-7.5-33.9-3.7-5.7-26.5-15.3-41.9-20.5l-39.6,1.7-67.1-16.2-25.7,8.9-10.7,7.4c-1.9,1.3-4.5.8-5.8-1-1.3-1.9-.8-4.5,1-5.8l11.6-8.1,29.1-10.1,68.6,16.6,39.9-1.7.7.2c6.7,2.2,40.3,13.7,47,24.1,6.6,10.3,8.9,38,9.1,41.1l.2,3.3-37,11.5Z"/>
  <path class="cls-8" d="M137.9,427.4s-27.1,70.6-30,143.4c-1,24.4,8.6,43.3,8.6,43.3,0,0,45.9,18,113.8,17.1s100.3-8.7,100.3-8.7c0,0-7.4-27.4,4.2-45.4,0,0-71.8-2.5-84.4-4.2-25-3.3-64.4-14.8-64.4-14.8l2.1-48.5,1.1-76"/>
  <g>
    <path class="cls-4" d="M219.7,375.8c.9-.5,1.8-.9,2.7-1.4,0,0-1.6.2-2.7,1.4Z"/>
    <path class="cls-2" d="M320.8,579.9s-9.4-2.3-31.7-3c10.4-50.4,6.3-146.6-9.6-169.6-3-4.4-18.5-12.1-18.5-12.1,0,0-22.1,10.2-35-3.7-8.8-9.5-8.1-13.8-6.4-15.6-18.3,9.7-28.7,13.8-51.5,25.7-12.9,6.7-19.5,15.1-26.5,33.1-26.8,68.1-32.8,150.7-32.8,150.7l7.6,27.9,19.9,4s38.8,6.1,92.4,7c24.1.4,69.4-2.2,69.4-2.2l7.7-2.2c0-.1,3.4-22.1,15-40Z"/>
  </g>
  <path class="cls-7" d="M243.1,632c-81.6,0-122-12.8-123.7-13.3l-1.6-.5-.8-1.5c-.5-1-12.3-24-12.3-49.2s1.6-53.9,4-73.9c.3-2.3,2.4-3.9,4.6-3.6,2.3.3,3.9,2.4,3.6,4.6-2.4,19.4-4,48.6-4,72.9,0,19.6,8.1,38.4,10.6,43.8,3.6,1,13.2,3.5,28.5,6,18.4,2.9,49.1,6.5,91,6.5,32.4,0,53.4-3.6,60.5-5l.3-2.4.2-.5c.3-.8,6.8-17.2,16.4-33.6-14.6-.8-48.7-2.9-70.6-5-39.4-3.9-64.6-14.6-65.6-15.1l-2.6-1.1,2.2-51.3,1.1-75.9c0-2.3,1.9-4.1,4.2-4.1h.1c2.3,0,4.1,1.9,4.1,4.2l-1.1,76.1-2,45.6c7.3,2.8,29.6,10.4,60.5,13.4,28.1,2.8,76.8,5.4,77.2,5.4l7.2.4-3.9,6c-10.3,15.9-17.9,34.6-19.2,37.7l-.9,7.1-2.7.7c-.9-.1-23.7,5.6-65.3,5.6Z"/>
  <g>
    <path class="cls-8" d="M322.8,578.5s36.1-6.3,44.4-6.3,26.1,3.3,32.9,5.8c8.5,3,.3,20.8.3,20.8,0,0,2,1.1,2.6,5.4,1,7-5.8,12.1-5.8,12.1,0,0-3.4,4.7-6.1,7-4.1,3.7-13.7,3.5-13.7,3.5,0,0-8.3,3.2-22.4,2.6-12.8-.6-32.6-7.7-32.6-7.7l-33.6,3.2s-3-10.8-3-23.6c0-13.8,7-24.3,7-24.3l30,1.5Z"/>
    <path class="cls-7" d="M358.7,633.7c-1.2,0-2.5,0-3.9-.1-11.9-.5-28.8-6.2-32.9-7.6l-36.1,3.4-.9-3.4c-.1-.5-3.1-11.5-3.1-24.7,0-14.9,7.4-26.1,7.7-26.6l1.3-2,31.7,1.6c4.4-.8,36.5-6.3,44.7-6.3,8.7,0,27,3.4,34.3,6,2.6.9,4.6,2.8,5.6,5.3,2.5,5.8-.2,14.3-1.9,18.6.8,1.3,1.5,3.1,1.9,5.6,1.1,8.1-5,14-6.8,15.6-1,1.3-3.8,5-6.4,7.3-4.6,4.1-13.1,4.5-15.8,4.6-2.2.7-9.1,2.7-19.4,2.7ZM323,617.5l.9.3c.2.1,19.4,6.9,31.4,7.4,12.9.6,20.6-2.3,20.7-2.3l.7-.3h.8c3.3.1,8.9-.7,10.9-2.5,1.9-1.7,4.6-5.2,5.5-6.4l.4-.5.5-.4s4.8-3.8,4.2-8.3c-.2-1.6-.7-2.3-.8-2.6l-3-1.7,1.6-3.5c1.9-4.1,4.1-11.5,2.8-14.4-.2-.5-.4-.6-.7-.7-6.6-2.3-23.7-5.5-31.6-5.5-6.5,0-33.8,4.5-43.7,6.3l-.5.1-27.8-1.4c-1.8,3.4-5.2,11-5.2,20,0,7.9,1.2,15.1,2,19.1l30.9-2.7Z"/>
  </g>
  <path class="cls-7" d="M293.9,564.8h-.4c-2.3-.2-4-2.2-3.8-4.5,3.4-38.6.7-90.9-6.9-133.3-3.6-20.1-24.4-32.9-41.3-40.1-2.1-.9-3.1-3.3-2.2-5.5.9-2.1,3.3-3.1,5.5-2.2,26.9,11.4,42.9,27.4,46.2,46.3,7.6,43,10.4,96.2,7,135.4-.1,2.3-1.9,3.9-4.1,3.9Z"/>
  <g>
    <line class="cls-1" x1="322.9" y1="524.6" x2="361.2" y2="572.2"/>
    <path class="cls-7" d="M361.2,576.3c-1.2,0-2.4-.5-3.2-1.6l-38.3-47.5c-1.4-1.8-1.2-4.4.6-5.9,1.8-1.4,4.4-1.2,5.9.6l38.3,47.5c1.4,1.8,1.2,4.4-.6,5.9-.8.7-1.8,1-2.7,1Z"/>
  </g>
  <path class="cls-7" d="M148,580.6c-.6,0-1.3-.3-1.7-.8-.9-1-.8-2.4.1-3.3l13-11.9,25.8-8.6c1.2-.4,2.6.3,3,1.5s-.3,2.6-1.5,3l-24.9,8.3-12.2,11.2c-.5.4-1,.6-1.6.6Z"/>
  <path class="cls-7" d="M141.7,571.1c-.7,0-1.5-.4-1.9-1-.7-1.1-.5-2.5.6-3.3l13.7-9.5c1.1-.7,2.5-.5,3.3.6.7,1.1.5,2.5-.6,3.3l-13.7,9.5c-.5.3-1,.4-1.4.4Z"/>
  <path class="cls-7" d="M596.7,627c-.9,0-1.8-.5-2.2-1.5l-9.2-22.4-20.6-16.4c-1-.8-1.2-2.3-.4-3.3s2.3-1.2,3.3-.4l21.6,17.2,9.7,23.5c.5,1.2-.1,2.6-1.3,3.1-.3.1-.6.2-.9.2Z"/>
  <path class="cls-7" d="M587.4,630.5c-.8,0-1.6-.4-2-1.1l-11.8-19.5-19.9-15.6c-1-.8-1.2-2.3-.4-3.3s2.3-1.2,3.3-.4l20.6,16.2,12.3,20.2c.7,1.1.3,2.5-.8,3.2-.4.1-.9.3-1.3.3Z"/>
  <path class="cls-7" d="M575.3,630.5c-.6,0-1.2-.2-1.7-.7l-12.2-12.2-17.6-14.1c-1-.8-1.2-2.3-.4-3.3s2.3-1.2,3.3-.4l17.9,14.4,12.3,12.3c.9.9.9,2.4,0,3.3-.4.4-1,.7-1.6.7Z"/>
  <path class="cls-7" d="M582,579.4c-.9,0-1.8-.5-2.1-1.4-.5-1.2,0-2.6,1.2-3.1l10.1-4.5c1.2-.5,2.6,0,3.1,1.2s0,2.6-1.2,3.1l-10.1,4.5c-.4.2-.7.2-1,.2Z"/>
  <path class="cls-7" d="M593.2,587.2c-1,0-1.9-.6-2.2-1.6-.4-1.2.3-2.5,1.5-2.9l12.9-4c1.2-.4,2.5.3,2.9,1.5s-.3,2.5-1.5,2.9l-12.9,4c-.2.1-.5.1-.7.1Z"/>
  <g>
    <path class="cls-8" d="M267.1,396.3l6.1,7.4s-14.1,24.9-39.5,15.1c-14.3-5.5-18.2-15.6-25.7-24.5-8.9-10.6-22.2-16.6-22.2-16.6,0,0,2.3-1,8.6-4.2,5.2-2.6,14.5-6.3,23.1-13.3,13.3-10.7,22.1-30.7,22.1-30.7l-8.3-5.2s3.1-12.4,4.7-21.3c1.5-8.3,6.7-14.2,13-15.4,16.6-3.1,11.5,23.7,11.5,23.7,0,0,7.4-1.5,13.2-10.4,16.1-24.6,25-21.9,47.8-15.1,12.5,3.7,18.4,4.3,27.6,1.1,1.2,3.3,2.2,12.2,2.2,18.6,0,24.3-7,36.4-7,36.4l-9,8s-3.4,18.1-13.1,27c-8.1,7.4-30.9,18.9-30.9,18.9,0,0-9.9,3-18.6,1.3-6-1.2-9.5-3.5-9.5-3.5l-12.1,12.1"/>
    <path class="cls-7" d="M245.2,425.2c-4,0-8.4-.8-13-2.5-12-4.6-17.3-12.1-22.5-19.3-1.6-2.2-3.1-4.4-4.9-6.4-8.1-9.7-20.6-15.4-20.7-15.5l-8.6-3.9,8.7-3.7s2.3-1,8.4-4.1c1-.5,2.2-1.1,3.4-1.7,5.2-2.5,12.3-5.8,18.9-11.1,9.2-7.4,16.4-20,19.4-25.9l-7.7-4.9.7-2.9c0-.1,3.1-12.3,4.7-21,1.8-9.8,8.2-17.2,16.3-18.8,6.3-1.2,10.1,1.1,12.2,3.2,4.3,4.3,5.1,11.6,5,17.3,1.6-1.3,3.2-3,4.8-5.5,17.8-27.2,29.4-23.7,52.5-16.8,12.5,3.7,17.2,3.9,25.1,1.2l3.9-1.4,1.4,3.8c1.5,4.1,2.5,13.6,2.5,20,0,25.2-7.3,38-7.6,38.5l-.3.6-8.4,7.5c-1.1,4.7-5,19.6-14.1,27.8-8.5,7.7-30.8,19.1-31.8,19.6l-.3.2-.3.1c-.4.1-7.7,2.3-15.7,2l1.1,1.4-1.4,2.5c-4.5,8-15.8,19.7-31.7,19.7ZM194.9,378c4.8,3,11.2,7.6,16.3,13.7,1.9,2.3,3.6,4.6,5.2,6.9,4.9,6.8,9.1,12.7,18.7,16.4,9.1,3.5,17.6,2.4,25.3-3.3,3.5-2.6,6-5.6,7.5-7.7l-4-4.9-9.7,9.7c-1.6,1.6-4.3,1.6-5.9,0-1.6-1.6-1.6-4.3,0-5.9l14.5-14.5,2.8,1.8s3,1.9,8.1,2.9c6.7,1.3,14.6-.6,16.3-1.1,2.9-1.5,22.5-11.6,29.6-18.1,8.6-7.8,11.8-24.5,11.8-24.7l.3-1.4,9.4-8.4c1.2-2.5,6.2-13.8,6.2-33.8,0-4.6-.5-9.7-1.1-13.3-8.3,2-15,.9-25.8-2.4-22.7-6.8-28.8-8.6-43.2,13.4-6.7,10.2-15.5,12.2-15.9,12.2l-6.1,1.3,1.2-6.1c.8-4.4,1.5-14.6-1.9-18-.6-.6-1.8-1.4-4.8-.9-4.7.9-8.6,5.6-9.7,12-1.1,6.4-3,14.4-4.1,18.6l8.8,5.6-1.5,3.3c-.4.9-9.4,21.1-23.3,32.2-7.4,5.9-15,9.5-20.6,12.2-1.2.6-2.3,1.1-3.2,1.6-.3.2-.7.4-1.2.7Z"/>
  </g>
  <path class="cls-7" d="M403,604.4c-.3,0-.6-.1-.9-.2l-24.7-9.8c-1.2-.5-1.8-1.8-1.3-3s1.8-1.8,3-1.3l24.7,9.8c1.2.5,1.8,1.8,1.3,3-.3.9-1.2,1.5-2.1,1.5Z"/>
  <path class="cls-7" d="M306.5,366.1c-4.8,0-9.2-2.6-9.4-2.7-1.1-.7-1.5-2.1-.8-3.2s2.1-1.5,3.2-.8c1.4.8,5.8,2.8,8.9,1.8,3.6-1.1,3.7-3.4,2.8-11.9-.1-.8-.2-1.7-.3-2.6-1.2-11.3,6.2-13.2,6.5-13.3,1.3-.3,2.5.5,2.8,1.8.3,1.2-.5,2.5-1.7,2.8-.2.1-3.7,1.2-2.9,8.2.1.9.2,1.7.3,2.5.9,7.5,1.7,14.5-6.1,16.9-1.2.4-2.3.5-3.3.5Z"/>
  <path class="cls-7" d="M307.6,326.8c-.5,0-1-.2-1.4-.5-7.4-5.6-20.7-9.5-20.8-9.5-1.2-.4-2-1.7-1.6-2.9s1.7-2,2.9-1.6c.6.2,14.2,4.1,22.3,10.3,1,.8,1.2,2.3.4,3.3-.4.6-1.1.9-1.8.9Z"/>
  <path class="cls-7" d="M343.1,341.5c-.5,0-1-.2-1.5-.5-5.3-4.2-13.9-4.8-14-4.8-1.3-.1-2.3-1.2-2.2-2.5.1-1.3,1.2-2.3,2.5-2.2.4,0,10.2.6,16.7,5.8,1,.8,1.2,2.3.4,3.3-.5.6-1.2.9-1.9.9Z"/>
  <path class="cls-7" d="M289.6,377.4c-.3,0-.6-.1-.8-.2-.6-.2-1.3-.5-1.8-.7-4.1-1.5-7-2.6-10.5-5.8-4.6-4.2-3.1-10.2-3-10.4l.7-2.9,2.6,1.5c.1.1,12.1,6.6,24.9,9.8,1.3.3,2,1.6,1.7,2.8-.3,1.3-1.6,2-2.8,1.7-9.3-2.3-17.9-6.2-22.5-8.5.2.9.7,1.8,1.6,2.5,2.8,2.6,5.1,3.4,9,4.9.6.2,1.2.5,1.9.7,1.2.5,1.8,1.8,1.3,3-.4,1-1.3,1.6-2.3,1.6Z"/>
  <path class="cls-7" d="M280.8,381.6h-.5l-3.4-.7c-1.3-.3-2.1-1.5-1.8-2.8.3-1.3,1.5-2.1,2.8-1.8l3.4.7c1.3.3,2.1,1.5,1.8,2.8-.2,1.1-1.2,1.8-2.3,1.8Z"/>
  <ellipse class="cls-7" cx="292.2" cy="330.3" rx="3.9" ry="2.8" transform="translate(-123.07 181.88) rotate(-28.84)"/>
  <ellipse class="cls-7" cx="324.1" cy="343.22" rx="3.7" ry="2.8" transform="translate(-141.96 268.19) rotate(-37.5)"/>
  <path class="cls-7" d="M297.5,333.2c-.7,0-1.3-.4-1.5-1.1-.8-2.2-2.5-2.9-4.1-3.4-2.7-.8-4.4-.1-4.4-.1-.8.3-1.7,0-2-.8s0-1.7.8-2c.3-.1,2.7-1.1,6.5-.1,1.5.4,4.9,1.4,6.3,5.4.3.8-.2,1.7-1,2-.2.1-.4.1-.6.1Z"/>
  <path class="cls-7" d="M329.8,345c-.5,0-1-.2-1.3-.6-3-4.1-6.9-1.7-7.4-1.5-.7.5-1.7.3-2.2-.4-.5-.7-.3-1.7.4-2.2,2.3-1.5,7.7-3.1,11.6,2.2.5.7.4,1.7-.3,2.2-.1.2-.4.3-.8.3Z"/>
  <path class="cls-7" d="M290.2,405.2h-.1c-21.3-.7-34.6-11.3-40.7-17.6-6.2-6.4-9.3-13.8-9.4-14.1-.9-2.1.1-4.6,2.3-5.4,2.1-.9,4.6.1,5.4,2.3.1.2,2.7,6.3,7.7,11.5,5.2,5.4,16.5,14.4,34.9,15,2.3.1,4.1,2,4,4.3,0,2.2-1.8,4-4.1,4Z"/>
  <path class="cls-7" d="M397.9,619.7c-.3,0-.5,0-.8-.1l-24.3-9c-1.2-.4-1.8-1.8-1.4-3s1.8-1.8,3-1.4l24.3,9c1.2.4,1.8,1.8,1.4,3-.4.9-1.3,1.5-2.2,1.5Z"/>
  <path class="cls-7" d="M453.4,660.7h-187l23.4-25.9c.9-1,2.3-1,3.3-.2,1,.9,1,2.3.2,3.3l-16.3,18h174l27-35.4c.8-1,2.3-1.2,3.3-.4s1.2,2.3.4,3.3l-28.3,37.3Z"/>
  <path class="cls-7" d="M833.5,638.2h-184l19.4-30.6h80c1.3,0,2.3,1,2.3,2.3s-1,2.3-2.3,2.3h-77.4l-13.5,21.4h167.2l-8.3-13.8c-.7-1.1-.3-2.5.8-3.2s2.5-.3,3.2.8l12.6,20.8Z"/>
  <path class="cls-7" d="M870.8,531.1h-.2c-2.3-.1-4-2.1-3.9-4.4,2.9-51.1,11.2-124.8,49.8-174.2,1.9-2.4,3.8-4.8,5.7-7.1,1.5-1.8,4.1-2,5.9-.5,1.8,1.5,2,4.1.5,5.9-1.9,2.2-3.7,4.5-5.5,6.9-28.3,36.2-43.5,90.1-48,169.5-.2,2.2-2.1,3.9-4.3,3.9Z"/>
  <path class="cls-7" d="M1027.2,652.1c-.9,0-1.7,0-2.5-.1-66-5.8-163.9-31.7-164.9-32l-1.3-.3-.8-1c-.5-.6-11.4-13.9-7.8-37.3,4.4-28.7,29.4-37.5,30.4-37.9l1.3-.4,29,9.5,87.8,2.9,28.7-125.4c.5-2.2,2.7-3.6,5-3.1,2.2.5,3.6,2.7,3.1,5l-30.2,131.9-95.8-3.2-27.4-8.9c-4.6,2-20.6,10.2-23.7,30.8-2.5,16.4,3.2,26.6,5.3,29.7,12.3,3.2,101.1,26,162.1,31.4,12.6,1.1,44.1-9.9,56.7-14.8,3.8-6.4,11.3-28.3,15.9-72.8,9.1-88.1-1.3-156-2.7-164.5-3.8-5.2-28.4-37.9-72.5-66.6-1.9-1.3-2.5-3.8-1.2-5.8,1.3-1.9,3.8-2.5,5.8-1.2,49.4,32.1,74.3,68,75.3,69.6l.5.7.2.9c.1.7,12.8,72.7,2.9,167.7-6.4,61.8-17.6,77.2-18.1,77.8l-.7.9-1.1.4c-1.8.8-40.5,16.1-59.3,16.1Z"/>
  <path class="cls-7" d="M1041.2,576.8c-.3,0-.6-.1-1-.2l-26.4-11.9-27.3-1.7c-1.3-.1-2.3-1.2-2.2-2.5s1.2-2.3,2.5-2.2l28.1,1.8,27.2,12.3c1.2.5,1.7,1.9,1.2,3.1-.3.8-1.2,1.3-2.1,1.3Z"/>
  <g>
    <path class="cls-8" d="M843.5,535.1c-7.9-6.7-16-22.4-16-22.4,0,0-13.4,3.2-10.2,16.6,1.4,5.8,5.8,10.7,7,14.7.9,2.8-1.3,5.8-1.3,5.8,0,0-9.1.9-20.5.6-13.7-.3-28-3.5-34.5-1.3-5.8,1.9-8.3,9.6-8.3,9.6,0,0-6.8-1-10.9.6s-5.4,5.8-5.1,9.6c.6,7.7,7,13.4,7,13.4,0,0,22.1,14.1,28.9,15.3,16.1,2.7,36,5,51,5.2s25-1.6,25-1.6l21.7,4.8s6.7-6.8,10.7-17.2,2.3-21.3,2.3-21.3l-32.8-8.2c.1.1-5.6-17.2-14-24.2Z"/>
    <path class="cls-7" d="M878.8,610.6l-23.2-5.1c-2.8.4-12.1,1.7-24.9,1.5-13.9-.2-33.7-2.2-51.6-5.3-7.3-1.2-26.7-13.4-30.5-15.8l-.3-.2-.3-.2c-.3-.3-7.6-7-8.4-16.2-.5-6.4,2.4-11.7,7.7-13.8,3.1-1.2,7-1.3,9.8-1.2,1.6-3.1,4.6-7.5,9.6-9.1,4.9-1.6,12.2-.9,20.7,0,5,.5,10.1,1,15.2,1.1,7.6.2,14.3-.2,17.7-.4,0-.2.1-.4,0-.6-.4-1.2-1.4-3-2.5-4.8-1.7-2.9-3.7-6.3-4.6-10.2-1.7-7,.2-13.2,5.3-17.5,3.6-3,7.6-4,8-4.1l3.2-.8,1.5,2.9c.1.1,7.8,15,15,21.1,7.3,6.2,12.6,18.9,14.5,24l33.4,8.3.4,2.7c.1.5,1.9,12.2-2.5,23.5-4.3,11.1-11.3,18.3-11.6,18.6l-1.6,1.6ZM855.8,597l20.1,4.4c2-2.5,5.8-7.5,8.3-14.1,2.4-6.3,2.5-12.9,2.3-16.5l-32.2-8-.7-2.2c-1.5-4.5-6.7-17.3-12.8-22.4h0c-6.2-5.2-12.2-15.1-15.2-20.3-.6.4-1.3.8-1.9,1.4-2.5,2.2-3.3,5.2-2.4,9,.6,2.7,2.2,5.3,3.7,7.9,1.3,2.3,2.6,4.4,3.3,6.6,1.4,4.7-1.6,8.9-1.9,9.4l-1.1,1.5-1.9.2c-.4,0-9.5.9-20.9.7-5.4-.1-11-.7-15.9-1.1-7.2-.7-14.1-1.4-17.3-.3-3,1-5.2,5.5-5.7,7l-1.1,3.3-3.4-.5c-2.2-.3-6.6-.5-8.8.4-2.6,1-2.6,4.1-2.5,5.4.4,5.2,4.5,9.5,5.5,10.5,8.9,5.7,23,13.7,27.1,14.4,17.5,3,36.8,5,50.4,5.2,14.4.2,24.1-1.5,24.2-1.5l.8-.4Z"/>
  </g>
  <path class="cls-7" d="M793,580.9h-.4c-.9-.2-20.9-3.7-21.8-3.8-.6-.1-16.2-2.6-25.8-5.2-1.2-.3-2-1.6-1.7-2.9.3-1.2,1.6-2,2.9-1.7,9.4,2.5,25.2,5,25.3,5.1,7.2,1.3,21,3.7,21.7,3.8,1.3.2,2.1,1.4,1.9,2.7,0,1.2-.9,2-2.1,2Z"/>
  <path class="cls-7" d="M794.8,593.5h-.3c-18-2.4-42.6-8.1-42.9-8.2-1.3-.3-2-1.6-1.7-2.8.3-1.3,1.6-2,2.8-1.7.2.1,24.7,5.7,42.4,8.1,1.3.2,2.2,1.3,2,2.6-.2,1.2-1.2,2-2.3,2Z"/>
  <g>
    <polygon class="cls-8" points="853.1 650 716 650 707.4 683.6 707.4 701.6 883.8 701.6 883.8 683.6 853.1 650"/>
    <polygon class="cls-3" points="861.3 658.6 723.3 658.7 716.9 687.7 716.9 703.4 883 703.4 883 687.7 861.3 658.6"/>
    <path class="cls-7" d="M888,705.8h-184.8v-22.7l9.6-37.3h142.2l33,36.2v23.8ZM711.5,697.5h168.1v-12.3l-28.4-31.1h-132l-7.7,30v13.4Z"/>
    <path class="cls-7" d="M883.8,688.1h-176.4c-1.3,0-2.3-1-2.3-2.3s1-2.3,2.3-2.3h176.5c1.3,0,2.3,1,2.3,2.3s-1.1,2.3-2.4,2.3Z"/>
  </g>
  <path class="cls-7" d="M1041.2,560.4h-.4l-21.6-3.9c-1.3-.2-2.1-1.4-1.9-2.7.2-1.3,1.4-2.1,2.7-1.9l21.6,3.9c1.3.2,2.1,1.4,1.9,2.7-.2,1.1-1.1,1.9-2.3,1.9Z"/>
  <g>
    <path class="cls-8" d="M790.4,194.4c10.3-14.1,16.4-31.5,16.1-50.4-.7-46-38.6-82.7-84.6-81.9-46,.7-82.7,38.6-81.9,84.6.7,46,38.6,82.7,84.6,81.9,12.4-.2,24-3.2,34.5-8.2,9.5,5.7,20.1,12,28.2,16.7,10,5.9,16.8,1.6,13.1-10.9-2.6-8.5-6.5-20.8-10-31.8Z"/>
    <path class="cls-8" d="M795,252.7c-4,0-8.8-1.1-14.4-4.4-5.8-3.4-13.3-7.9-22.5-13.3-10.7,4.2-21.9,6.4-33.4,6.6h-1.6c-25.1,0-48.9-9.6-66.9-27.1-18.5-17.9-28.9-41.9-29.3-67.6-.4-25.7,9.2-50,27.1-68.5,17.9-18.5,41.9-28.9,67.6-29.3h1.5c52.4,0,95.4,42.2,96.2,94.7.3,18.8-4.8,36.8-14.8,52.6,3.5,11.1,6.3,19.9,8.1,26.1,4.7,15.9-2.6,23.6-5.9,26.2-1.8,1.6-5.8,4-11.7,4ZM759.7,205.7l6,3.6c7.4,4.4,13.9,8.3,19.4,11.5-1.9-6.1-4.3-13.7-7.1-22.4l-2-6.3,3.9-5.3c9.1-12.5,13.8-27.2,13.6-42.5-.6-38.7-32.6-69.7-71.4-69.1-18.8.3-36.3,7.9-49.3,21.4s-20.1,31.2-19.8,50c.3,18.8,7.9,36.3,21.4,49.3,13.2,12.8,30.5,19.8,48.9,19.8h1.1c10.1-.2,19.9-2.5,29.1-6.9l6.2-3.1Z"/>
  </g>
  <g>
    <path class="cls-8" d="M801.8,172.6c3.1-9,4.8-18.6,4.6-28.6-.7-46-38.6-82.7-84.6-81.9-46,.7-82.7,38.6-81.9,84.6.7,46,38.6,82.7,84.6,81.9,12.4-.2,24-3.2,34.5-8.2,9.5,5.7,20.1,12,28.2,16.7,10,5.9,16.8,1.6,13.1-10.9-2.5-8.5-6.4-20.8-9.9-31.9,2-2.7,3.8-5.6,5.5-8.6"/>
    <path class="cls-7" d="M795.1,243.9c-3,0-6.4-1.1-10-3.2-6.6-3.9-15.4-9.1-26.3-15.6-10.9,4.9-22.4,7.4-34.2,7.6-23.3.4-45.4-8.4-62.2-24.6s-26.2-38.1-26.6-61.4c-.4-23.3,8.4-45.4,24.6-62.2,16.2-16.8,38.1-26.2,61.4-26.6h1.4c47.6,0,86.6,38.3,87.4,86,.2,10.3-1.5,20.4-4.9,30.1-.8,2.2-3.1,3.3-5.3,2.6-2.2-.8-3.3-3.1-2.6-5.3,3.1-8.7,4.5-17.9,4.4-27.2-.7-43.2-36-77.9-79.1-77.9h-1.3c-21.1.3-40.9,8.9-55.6,24.1-14.7,15.2-22.6,35.2-22.3,56.3.3,21.1,8.9,40.9,24.1,55.6,15.2,14.7,35.2,22.6,56.3,22.3,11.4-.2,22.4-2.8,32.8-7.8l2-1,1.9,1.1c11.7,7,21.2,12.6,28.1,16.7,3.9,2.3,6.3,2.3,7.1,1.7.6-.5,1.5-2.8,0-7.8-2.1-7.3-5.5-17.9-9.9-31.8l-.6-2,1.3-1.7c1.9-2.6,3.7-5.3,5.2-8.1,1.1-2,3.7-2.7,5.7-1.6s2.7,3.7,1.6,5.7c-1.4,2.5-2.9,4.9-4.5,7.2,4.1,12.9,7.3,23,9.3,30,3,10.3-.5,14.9-2.8,16.7-1.8,1.4-4,2.1-6.4,2.1Z"/>
  </g>
  <g>
    <path class="cls-7" d="M731.5,172.2c-1.9,0-3.7-1.4-4.1-3.3-.5-2.2,1-4.4,3.2-4.9.1,0,3.8-.9,7.3-3.2,4.1-2.8,5.9-6.5,5.4-11.2-1-8.9-5.7-11.6-19.2-17.9-1.3-.6-2.6-1.2-4-1.9-8-3.8-21.4-10.1-18.2-26.2,1.2-5.8,5.1-10.3,11.1-12.7,8.9-3.6,20.3-1.9,29.1,4.3,1.9,1.3,2.3,3.9,1,5.8-1.3,1.9-3.9,2.3-5.8,1-6.5-4.5-15-5.9-21.3-3.4-2.3.9-5.3,2.8-6,6.6-1.5,7.5,1.7,11.4,13.6,17.1,1.4.6,2.7,1.2,3.9,1.8,13,6.1,22.5,10.5,24,24.5,1.6,15-11.9,21.9-19.2,23.4-.2.2-.5.2-.8.2Z"/>
    <path class="cls-7" d="M723,201.3c-6.5,0-13.4-2.1-19.2-6.2-1.9-1.3-2.3-3.9-1-5.8s3.9-2.3,5.8-1c6.5,4.5,15,5.9,21.3,3.4,2.3-.9,5.3-2.8,6-6.6,1.5-7.5-1.7-11.4-13.6-17.1-1.4-.6-2.7-1.2-3.9-1.8-13-6.1-22.5-10.5-24-24.5-1.6-15,11.9-21.9,19.2-23.4,2.3-.5,4.5,1,4.9,3.2.5,2.2-1,4.4-3.2,4.9-.1,0-3.8.9-7.3,3.2-4.1,2.8-5.9,6.5-5.4,11.2,1,8.9,5.7,11.6,19.2,17.9,1.3.6,2.6,1.2,4,1.9,8,3.8,21.4,10.1,18.2,26.2-1.2,5.8-5.1,10.3-11.1,12.7-3,1.2-6.4,1.8-9.9,1.8Z"/>
  </g>
  <path class="cls-7" d="M383.8,629.5c-.3,0-.5,0-.8-.1l-16.2-5.5c-1.2-.4-1.9-1.7-1.5-3,.4-1.2,1.7-1.9,3-1.5l16.2,5.5c1.2.4,1.9,1.7,1.5,3-.3,1-1.2,1.6-2.2,1.6Z"/>
  <path class="cls-7" d="M799.4,570h0c-8.4-.3-34.6-6.2-35.7-6.5l-.8-.2-3.7-4.4c-.8-1-.7-2.5.3-3.3s2.5-.7,3.3.3l2.7,3.2c4.5,1,26.9,5.9,34,6.2,1.3,0,2.3,1.1,2.3,2.4-.1,1.4-1.1,2.3-2.4,2.3Z"/>
  <g>
    <path class="cls-8" d="M803.1,477.8l-29.6-28.5s-5-11.9-10.9-16.6c-12.4-9.9-31.8-16.8-43.9-17.6-12.1-.8-18.5,2.5-18.5,2.5,0,0,3.1,11.6,15.1,12.9,11.9,1.3,12.9,7.5,12.9,7.5,0,0-13.3,5.5-31.7,4.6-20.4-.9-25.2-6.4-40.7-2.6-9.2,2.3-12.1,13.9-12.1,13.9,0,0,16.1,24,27.7,27.3,39.2,11.1,84.8,8.1,84.8,8.1l18.8,23.7s25.9-14,28.1-35.2Z"/>
    <path class="cls-7" d="M773.9,518.3l-19.6-24.7c-9.7.5-49,1.5-84-8.4-12.7-3.6-28.3-26.4-30-29l-1-1.5.5-1.8c.1-.6,3.7-14,15.2-16.9,10.3-2.5,16.3-1.4,23.9.1,4.8.9,10.2,2,18,2.3,10.1.5,18.6-1.1,23.9-2.5-1.4-.6-3.2-1.1-5.8-1.4-14.7-1.6-18.5-15.3-18.7-15.9l-.9-3.3,3-1.5c.3-.2,7.6-3.8,20.7-2.9,12.2.8,32.5,7.5,46.2,18.5,5.8,4.6,10.4,14.4,11.8,17.5l30.5,29.3-.2,2c-2.5,23.1-29.2,37.8-30.3,38.4l-3.2,1.7ZM758.1,485.1l17.8,22.5c6.2-4,20.1-14.5,22.7-28.2l-28.6-27.6-.3-.8c-1.3-3-5.5-11.7-9.6-15-11.9-9.6-30.5-16-41.6-16.7-5.6-.3-9.8.2-12.6.9,1.6,2.6,4.7,5.6,9.8,6.2,14.7,1.6,16.4,10.1,16.6,11l.5,3.2-3,1.2c-.6.2-14.4,5.8-33.4,4.9-8.4-.4-14.4-1.5-19.2-2.5-7.1-1.4-11.9-2.3-20.3-.2-4.9,1.2-7.5,6.4-8.5,9.2,6.2,8.9,17.3,22,24.2,23.9,38,10.8,83,8,83.4,8h2.1Z"/>
  </g>
  <path class="cls-7" d="M698.3,459.7c-2.5,0-9.6-.3-21.3-3.2-18.7-4.6-30.2-.1-30.3-.1-1.2.5-2.6-.1-3-1.3s.1-2.6,1.3-3c.5-.2,12.9-5.1,33.2-.1,13.7,3.4,20.8,3.1,20.9,3.1,1.3-.1,2.4.9,2.5,2.2s-.9,2.4-2.2,2.5c-.2-.2-.5-.1-1.1-.1Z"/>
  <path class="cls-7" d="M705.7,472.5h0c-.5,0-11-.4-29.3-4.5-13.3-3-22.5.1-22.6.1-1.2.4-2.6-.2-3-1.4s.2-2.6,1.4-3c.4-.1,10.6-3.6,25.2-.3,17.8,4,28.2,4.4,28.3,4.4,1.3,0,2.3,1.1,2.3,2.4,0,1.3-1,2.3-2.3,2.3Z"/>
</svg>