<?xml version="1.0" encoding="UTF-8"?>
<svg id="Layer_1" data-name="Layer 1" xmlns="http://www.w3.org/2000/svg" viewBox="0 0 1381 920">
  <defs>
    <style>
      .cls-1 {
        fill: none;
      }

      .cls-1, .cls-2, .cls-3, .cls-4, .cls-5, .cls-6, .cls-7, .cls-8, .cls-9, .cls-10, .cls-11 {
        stroke-width: 0px;
      }

      .cls-2 {
        fill: #cacdcf;
      }

      .cls-3 {
        fill: #da2323;
      }

      .cls-4 {
        opacity: .9;
      }

      .cls-4, .cls-7 {
        fill: #969ba0;
        isolation: isolate;
      }

      .cls-5 {
        fill: #dedcd2;
      }

      .cls-6 {
        fill: #afcd5f;
      }

      .cls-7 {
        opacity: .5;
      }

      .cls-8 {
        fill: #eeede8;
      }

      .cls-9 {
        fill: #454440;
      }

      .cls-10 {
        fill: #fff;
      }

      .cls-11 {
        fill: #e3974c;
      }
    </style>
  </defs>
  <g id="Hintergrund">
    <path class="cls-8" d="M316,158.7h797.3c67.6,0,65.9,71.4,65.9,71.4v450.4H242.6V236.2c0-73.8,73.4-77.5,73.4-77.5Z"/>
    <polygon class="cls-10" points="1098.8 382.3 310.1 380.3 310.1 298.9 310.1 91.4 1098.8 91.3 1098.8 382.3"/>
    <g>
      <line class="cls-1" x1="975.1" y1="380.5" x2="395.1" y2="380.1"/>
      <path class="cls-9" d="M975.1,382.1h0l-580-.4c-.9,0-1.6-.7-1.6-1.6s.7-1.6,1.6-1.6h0l580,.4c.9,0,1.6.7,1.6,1.6,0,.9-.7,1.6-1.6,1.6Z"/>
    </g>
    <g>
      <polyline class="cls-10" points="309.8 149.6 309.9 380.4 378.9 380.4"/>
      <path class="cls-9" d="M378.9,382.2h-69.1c-.9,0-1.7-.8-1.7-1.7v-230.8c0-.9.8-1.7,1.7-1.7s1.7.8,1.7,1.7v229.1h67.3c.9,0,1.7.8,1.7,1.7s-.6,1.7-1.6,1.7Z"/>
    </g>
    <path class="cls-9" d="M597.4,353.8c-.6,0-1.1-.5-1.1-1.1s.5-1.1,1.1-1.1h481.3c.6,0,1.1.5,1.1,1.1s-.5,1.1-1.1,1.1h-481.3Z"/>
    <path class="cls-9" d="M330.2,353.8c-.6,0-1.1-.5-1.1-1.1s.5-1.1,1.1-1.1h261.2c.6,0,1.1.5,1.1,1.1s-.5,1.1-1.1,1.1h-261.2Z"/>
    <path class="cls-9" d="M598.2,327.2c-.6,0-1.1-.5-1.1-1.1s.5-1.1,1.1-1.1h480.5c.6,0,1.1.5,1.1,1.1s-.5,1.1-1.1,1.1h-480.5Z"/>
    <path class="cls-9" d="M330.2,327.2c-.6,0-1.1-.5-1.1-1.1s.5-1.1,1.1-1.1h211.8c.6,0,1.1.5,1.1,1.1s-.5,1.1-1.1,1.1h-211.8Z"/>
    <path class="cls-9" d="M597.7,300.5c-.6,0-1.1-.5-1.1-1.1s.5-1.1,1.1-1.1h481c.6,0,1.1.5,1.1,1.1s-.5,1.1-1.1,1.1h-481Z"/>
    <path class="cls-9" d="M450.5,300.5c-.6,0-1.1-.5-1.1-1.1s.5-1.1,1.1-1.1h123.8c.6,0,1.1.5,1.1,1.1s-.5,1.1-1.1,1.1h-123.8Z"/>
    <path class="cls-9" d="M596.6,273.9c-.6,0-1.1-.5-1.1-1.1s.5-1.1,1.1-1.1h482.1c.6,0,1.1.5,1.1,1.1s-.5,1.1-1.1,1.1h-482.1Z"/>
    <path class="cls-9" d="M330.2,273.9c-.6,0-1.1-.5-1.1-1.1s.5-1.1,1.1-1.1h244.1c.6,0,1.1.5,1.1,1.1s-.5,1.1-1.1,1.1h-244.1Z"/>
    <path class="cls-9" d="M596.7,247.2c-.6,0-1.1-.5-1.1-1.1s.5-1.1,1.1-1.1h482.1c.6,0,1.1.5,1.1,1.1s-.5,1.1-1.1,1.1h-482.1Z"/>
    <path class="cls-9" d="M346.5,247.2c-.6,0-1.1-.5-1.1-1.1s.5-1.1,1.1-1.1h232.5c.6,0,1.1.5,1.1,1.1s-.5,1.1-1.1,1.1h-232.5Z"/>
    <path class="cls-9" d="M330.6,247.2c-.6,0-1.1-.5-1.1-1.1s.5-1.1,1.1-1.1h172.5c.6,0,1.1.5,1.1,1.1s-.5,1.1-1.1,1.1h-172.5Z"/>
    <path class="cls-9" d="M597.1,220.6c-.6,0-1.1-.5-1.1-1.1s.5-1.1,1.1-1.1h244.8c.6,0,1.1.5,1.1,1.1s-.5,1.1-1.1,1.1h-244.8Z"/>
    <path class="cls-9" d="M330.2,220.6c-.6,0-1.1-.5-1.1-1.1s.5-1.1,1.1-1.1h256.2c.6,0,1.1.5,1.1,1.1s-.5,1.1-1.1,1.1h-256.2Z"/>
    <path class="cls-9" d="M330.2,193.9c-.6,0-1.1-.5-1.1-1.1s.5-1.1,1.1-1.1h247.1c.6,0,1.1.5,1.1,1.1s-.5,1.1-1.1,1.1h-247.1Z"/>
    <path class="cls-9" d="M851,167.3c-.6,0-1.1-.5-1.1-1.1s.5-1.1,1.1-1.1h229.2c.6,0,1.1.5,1.1,1.1s-.5,1.1-1.1,1.1h-229.2Z"/>
    <path class="cls-9" d="M330.2,167.3c-.6,0-1.1-.5-1.1-1.1s.5-1.1,1.1-1.1h260.3c.6,0,1.1.5,1.1,1.1s-.5,1.1-1.1,1.1h-260.3Z"/>
    <path class="cls-10" d="M321.6,370.9c-3.3,0-6-2.7-6-6l-.1-209.6c0-3.3,2.7-6,6-6h0c3.3,0,6,2.7,6,6l.1,209.5c.1,3.4-2.6,6.1-6,6.1h0Z"/>
    <path class="cls-10" d="M591.6,375.2c-3.3,0-6-2.7-6-6l-.1-217.7c0-3.3,2.7-6,6-6h0c3.3,0,6,2.7,6,6l.1,217.6c0,3.4-2.7,6.1-6,6.1h0Z"/>
    <polygon class="cls-5" points="1097.5 137.2 316.9 137.2 316.9 97.5 1097.3 97.4 1097.5 137.2"/>
    <path class="cls-9" d="M1098.3,383.1h-16.3c-.9,0-1.7-.8-1.7-1.7s.8-1.7,1.7-1.7h14.6V92.7l-743.9.1c-.9,0-1.7-.8-1.7-1.7s.8-1.7,1.7-1.7l745.7-.1c.5,0,.9.2,1.2.5s.5.8.5,1.2v290.4c0,.5-.2.9-.5,1.2-.4.3-.9.5-1.3.5Z"/>
    <path class="cls-9" d="M309.5,139.9c-.9,0-1.7-.8-1.7-1.7v-47c0-.9.8-1.7,1.7-1.7h22.7c.9,0,1.7.8,1.7,1.7s-.8,1.7-1.7,1.7h-21v43.6l785.7-.1c.9,0,1.7.8,1.7,1.7s-.8,1.7-1.7,1.7l-787.4.1Z"/>
    <path class="cls-9" d="M309.5,139.4c-.7,0-1.2-.5-1.2-1.2v-47c0-.7.5-1.2,1.2-1.2h11.4c.7,0,1.2.5,1.2,1.2s-.5,1.2-1.2,1.2h-10.2v44.6l394.8-.1c.7,0,1.2.5,1.2,1.2s-.5,1.2-1.2,1.2l-396,.1Z"/>
    <g id="nu9wge.tif">
      <path class="cls-10" d="M731,111.1l-17.7,14.1-11.5,3.8c-.9.3-1.9,0-2.5-.6-1.4-1.5-6.2-5.6-6.6-6.2.4-1,4.4,0,5.4.4,1,.5,2.1.6,3.2,1,4.1,1.4,7.6-1.1,10.7-4.9-5.5-2-10.7-3.9-16.1-5.8,1.8-2.3,1-2.1,4.4-1.9l15.8.1,4.1-.1c.9,0,1.8-.3,2.6-.9l9.6-6.7c1.8-1.4,3.8-1.8,6-1,1.4.5,1.7,1.6.8,2.4l-4.2,3.4"/>
    </g>
    <path class="cls-10" d="M842.7,377.9c-3.3,0-6-2.7-6-6l-.1-225.3c0-3.3,2.7-6,6-6h0c3.3,0,6,2.7,6,6l.1,225.3c0,3.3-2.7,6-6,6h0Z"/>
    <g id="nu9wge.tif-2" data-name="nu9wge.tif">
      <path class="cls-9" d="M698.8,128.6c-1,0-1.9-.4-2.6-1.1-1.8-1.8-3.9-4.1-4.4-4.7-.3-.3-.3-.8-.2-1.1.3-.8.8-1.3,1.4-1.5.6-.3,1.3-.2,2.2.2.5.2,1.1.4,1.7.5.5.1.9.2,1.3.4,2.8.9,5.4-.1,8.4-3.3l-14.5-5.3c-.3-.1-.6-.4-.7-.8-.1-.3,0-.7.2-1s.4-.6.6-.8c1.2-1.7,1.6-1.8,3.8-1.6.3,0,.6,0,1,.1l15.8.1,4.1-.1c.7,0,1.4-.3,2-.7l9.6-6.7c2.1-1.6,4.5-2,7-1.2,1.1.4,1.9,1.2,2,2.1.2.8-.2,1.7-.9,2.3l-4.2,3.4c-.5.4-1.2.3-1.6-.2-.4-.5-.3-1.2.2-1.6l4.2-3.4.1-.1s-.2-.2-.5-.3c-1.8-.6-3.4-.4-4.9.8l-9.6,6.8c-1,.7-2.1,1-3.2,1.1l-4.1.1-15.9-.1c-.5,0-.8,0-1.1-.1-.5,0-1.1-.1-1.2,0,0,0-.1.1-.2.3l14.6,5.3c.3.1.6.4.7.8.1.4,0,.7-.2,1-4,4.9-7.9,6.7-12,5.3l-1.2-.3c-.5-.1-1.1-.3-1.6-.5.8.8,1.8,1.9,3.1,3.3.4.4.9.5,1.4.3l10.1-3.2,17.5-14c.5-.4,1.2-.3,1.6.2.4.5.3,1.2-.2,1.6l-17.8,14.1c-.1.1-.2.2-.4.2l-10.3,3.3c-.4.1-.7.1-1.1.1Z"/>
    </g>
    <g>
      <path class="cls-9" d="M1195.6,700.6H373.6c-1,0-1.7-.8-1.7-1.7s.8-1.7,1.7-1.7h822.1c1,0,1.7.8,1.7,1.7s-.8,1.7-1.8,1.7Z"/>
      <path class="cls-9" d="M1214.6,700.6h-10.3c-1,0-1.7-.8-1.7-1.7s.8-1.7,1.7-1.7h10.3c1,0,1.7.8,1.7,1.7s-.8,1.7-1.7,1.7Z"/>
      <path class="cls-9" d="M535.6,700.6h-73.9c-1,0-1.7-.8-1.7-1.7s.8-1.7,1.7-1.7h73.9c1,0,1.7.8,1.7,1.7s-.7,1.7-1.7,1.7Z"/>
      <path class="cls-9" d="M351.1,697.6h-38.2c-1,0-1.7-.8-1.7-1.7s.8-1.7,1.7-1.7h38.2c1,0,1.7.8,1.7,1.7s-.8,1.7-1.7,1.7Z"/>
    </g>
    <path class="cls-9" d="M1117,700.6h-12.3c-1,0-1.7-.8-1.7-1.7s.8-1.7,1.7-1.7h12.3c1,0,1.7.8,1.7,1.7s-.8,1.7-1.7,1.7Z"/>
    <path class="cls-3" d="M1076.5,221.8h-220.7c-4.5,0-8.1-3.6-8.1-8.1v-14.2c0-4.5,3.6-8.1,8.1-8.1h220.7c4.5,0,8.1,3.6,8.1,8.1v14.2c0,4.5-3.6,8.1-8.1,8.1Z"/>
    <path class="cls-3" d="M826.3,194.4h-220.7c-4.5,0-8.1-3.6-8.1-8.1v-14.2c0-4.5,3.6-8.1,8.1-8.1h220.7c4.5,0,8.1,3.6,8.1,8.1v14.2c0,4.5-3.6,8.1-8.1,8.1Z"/>
    <g>
      <path class="cls-10" d="M674.7,170.8c2.8,0,4,1.1,4.6,1.6l-1.3,2.2c-.5-.4-1.3-1.1-3-1.1-2.2,0-4.2,1.5-4.2,5.1s1.8,5.1,4.1,5.1c1.7,0,2.6-.6,3.1-1l1.1,2.2c-.6.5-1.7,1.6-4.6,1.6-3.7,0-6.9-2.3-6.9-7.8s3.7-7.9,7.1-7.9Z"/>
      <path class="cls-10" d="M691.8,186c-.1.1-.6.3-1.4.3-1.2,0-2-.4-2.5-1.2-.5.5-1.3,1.2-2.8,1.2-2.6,0-4.1-1.8-4.1-5.5,0-4.2,2.6-5.8,5.7-5.8,2,0,3.2.6,3.8.9v7c0,.8.3,1,.8,1,.3,0,.4-.1.5-.1v2.2ZM687.6,183.1v-5.3c-.3-.1-.6-.2-1.2-.2-1.3,0-2.4.8-2.4,3.2,0,2.2.7,3,2,3,.9,0,1.4-.4,1.6-.7Z"/>
      <path class="cls-10" d="M697.2,176.4h0c.5-.5,1.2-1.3,3-1.3,2,0,3.3,1.2,3.3,4v6.9h-2.9v-6.5c0-1.4-.4-2-1.5-2-.8,0-1.4.5-1.7.8v7.6h-2.9v-10.7h2.8v1.2h-.1Z"/>
      <path class="cls-10" d="M713.7,178.2c-.4-.3-.9-.6-1.8-.6-1.4,0-2.6.9-2.6,3.1s1,3.1,2.6,3.1c1.1,0,1.6-.3,1.9-.6l.8,2.1c-.6.4-1.4,1-3.2,1-2.9,0-5-1.8-5-5.6s2.7-5.6,5.3-5.6c1.7,0,2.5.5,3.1.9l-1.1,2.2Z"/>
      <path class="cls-10" d="M720.9,175.1c2.6,0,4.2,1.6,4.2,5.4v1h-6c.2,1.7,1,2.4,2.6,2.4,1.4,0,2.2-.7,2.5-1l1,1.9c-.5.5-1.5,1.5-3.8,1.5-3,0-5.1-1.7-5.1-5.8-.1-3.6,2.1-5.4,4.6-5.4ZM719.1,179.6h3.4c0-1.3-.5-2.1-1.6-2.1-.9,0-1.7.7-1.8,2.1Z"/>
      <path class="cls-10" d="M731,186h-2.9v-15.4h2.9v15.4Z"/>
      <path class="cls-10" d="M737.5,186h-2.9v-15.4h2.9v15.4Z"/>
      <path class="cls-10" d="M745.1,175.1c2.6,0,4.2,1.6,4.2,5.4v1h-6c.2,1.7,1,2.4,2.6,2.4,1.4,0,2.2-.7,2.5-1l1,1.9c-.5.5-1.5,1.5-3.8,1.5-3,0-5.1-1.7-5.1-5.8-.1-3.6,2.1-5.4,4.6-5.4ZM743.3,179.6h3.4c0-1.3-.5-2.1-1.6-2.1-.9,0-1.7.7-1.8,2.1Z"/>
      <path class="cls-10" d="M761.2,186h-2.8v-1h0c-.3.4-.8,1.3-2.7,1.3-2.4,0-4-1.7-4-5.6s1.9-5.7,4.2-5.7c1.5,0,2.1.8,2.3,1.2h0v-5.6h2.9v15.4h.1ZM756.7,183.8c.9,0,1.3-.5,1.6-.8v-4.6c-.2-.3-.6-.8-1.5-.8-1.1,0-2,.9-2,3.1-.1,2.2.8,3.1,1.9,3.1Z"/>
    </g>
    <g>
      <path class="cls-10" d="M923.1,198.3c2.8,0,4,1.1,4.6,1.6l-1.3,2.2c-.5-.4-1.3-1.1-3-1.1-2.2,0-4.2,1.5-4.2,5.1s1.8,5.1,4.1,5.1c1.7,0,2.6-.6,3.1-1l1.1,2.2c-.6.5-1.7,1.6-4.6,1.6-3.7,0-6.9-2.3-6.9-7.8s3.6-7.9,7.1-7.9Z"/>
      <path class="cls-10" d="M940.1,213.5c-.1.1-.6.3-1.4.3-1.2,0-2-.4-2.5-1.2-.5.5-1.3,1.2-2.8,1.2-2.6,0-4.1-1.8-4.1-5.5,0-4.2,2.6-5.8,5.7-5.8,2,0,3.2.6,3.8.9v7c0,.8.3,1,.8,1,.3,0,.4-.1.5-.1v2.2ZM935.9,210.6v-5.3c-.3-.1-.6-.2-1.2-.2-1.3,0-2.4.8-2.4,3.2,0,2.2.7,3,2,3,.9,0,1.4-.4,1.6-.7Z"/>
      <path class="cls-10" d="M945.5,203.9h0c.5-.5,1.2-1.3,3-1.3,2,0,3.3,1.2,3.3,4v6.9h-2.9v-6.5c0-1.4-.4-2-1.5-2-.8,0-1.4.5-1.7.8v7.6h-2.9v-10.7h2.8v1.2h-.1Z"/>
      <path class="cls-10" d="M962,205.7c-.4-.3-.9-.6-1.8-.6-1.4,0-2.6.9-2.6,3.1s1,3.1,2.6,3.1c1.1,0,1.6-.3,1.9-.6l.8,2.1c-.6.4-1.4,1-3.2,1-2.9,0-5-1.8-5-5.6s2.7-5.6,5.3-5.6c1.7,0,2.5.5,3.1.9l-1.1,2.2Z"/>
      <path class="cls-10" d="M969.2,202.6c2.6,0,4.2,1.6,4.2,5.4v1h-6c.2,1.7,1,2.4,2.6,2.4,1.4,0,2.2-.7,2.5-1l1,1.9c-.5.5-1.5,1.5-3.8,1.5-3,0-5.1-1.7-5.1-5.8,0-3.6,2.1-5.4,4.6-5.4ZM967.4,207.1h3.4c0-1.3-.5-2.1-1.6-2.1-.9,0-1.6.8-1.8,2.1Z"/>
      <path class="cls-10" d="M979.3,213.6h-2.9v-15.4h2.9v15.4Z"/>
      <path class="cls-10" d="M985.8,213.6h-2.9v-15.4h2.9v15.4Z"/>
      <path class="cls-10" d="M993.4,202.6c2.6,0,4.2,1.6,4.2,5.4v1h-6c.2,1.7,1,2.4,2.6,2.4,1.4,0,2.2-.7,2.5-1l1,1.9c-.5.5-1.5,1.5-3.8,1.5-3,0-5.1-1.7-5.1-5.8,0-3.6,2.1-5.4,4.6-5.4ZM991.6,207.1h3.4c0-1.3-.5-2.1-1.6-2.1-.9,0-1.6.8-1.8,2.1Z"/>
      <path class="cls-10" d="M1009.5,213.6h-2.8v-1h0c-.3.4-.8,1.3-2.7,1.3-2.4,0-4-1.7-4-5.6s1.9-5.7,4.2-5.7c1.5,0,2.1.8,2.3,1.2h0v-5.6h2.9v15.4h.1ZM1005,211.3c.9,0,1.3-.5,1.6-.8v-4.6c-.2-.3-.6-.8-1.5-.8-1.1,0-2,.9-2,3.1-.1,2.3.8,3.1,1.9,3.1Z"/>
    </g>
  </g>
  <g id="Personengruppe_rechts" data-name="Personengruppe rechts">
    <g>
      <g>
        <g>
          <path class="cls-10" d="M1051.1,745h-2.3c-3.4.5-6.1,3.5-6.1,7.1,0,3.8,2.8,6.8,6.5,7.2h.7c4,0,7.2-3.2,7.2-7.2.1-3.5-2.6-6.5-6-7.1ZM1091,745h-2.3c-3.5.5-6.1,3.5-6.1,7.1,0,4,3.2,7.2,7.2,7.2s7.2-3.2,7.2-7.2c.1-3.5-2.6-6.5-6-7.1Z"/>
          <path class="cls-10" d="M1051.1,745c3.5.5,6.1,3.5,6.1,7.1,0,4-3.2,7.2-7.2,7.2h-.7c-3.6-.4-6.5-3.5-6.5-7.2s2.6-6.6,6.1-7.1h2.2M1091,745c3.5.5,6.1,3.5,6.1,7.1,0,4-3.2,7.2-7.2,7.2s-7.2-3.2-7.2-7.2c0-3.6,2.6-6.6,6.1-7.1h2.2M1051.1,737.8h-2.3c-.4,0-.8,0-1.1.1-7.1,1.1-12.2,7.1-12.2,14.3s5.6,13.7,13,14.4c.5,0,1,.1,1.5.1,8,0,14.5-6.5,14.5-14.5,0-7.2-5.1-13.2-12.2-14.3-.4-.1-.8-.1-1.2-.1h0ZM1091,737.8h-2.3c-.4,0-.8,0-1.1.1-7.1,1.1-12.2,7.1-12.2,14.3,0,8,6.5,14.5,14.5,14.5,3.9,0,7.5-1.5,10.3-4.2,2.7-2.7,4.2-6.4,4.2-10.3,0-7.2-5.1-13.2-12.2-14.3-.4-.1-.8-.1-1.2-.1h0Z"/>
        </g>
        <g>
          <path class="cls-10" d="M1004.1,680.5c.2-13.6,3-19.5,2-29.3-3.1-7.2-6.5-14.4-6.6-22.5.8-23.4-1.8-46.4-5.1-69.5-.3,1.7-1.7,23.3-3,44.5-.3,9.6-.7,19.3-1.7,29-.3,4.6-.5,8.2-.6,10.3.2,4.1,1.1,7.9,1.9,11.8,1.1,3.5,2.2,7.4,2.1,15.4v.9c.4,19.7-1.4,69.6-1.4,69.6l-1.7.3,1.6,10.2c.5.5.9,1.2,1.1,1.9l.9,5.6c3.9.1,7.7.2,11.5.4v-.2c0-.2,0-.4.1-.5.1-.4.1-.8.2-1.1,0-.1,0-.3.1-.4.1-.5.1-1,.2-1.4.3-2.1.5-3.6.5-3.8v-10.5l-2.7-.3c-.2-21.7.6-60.4.6-60.4ZM994.1,557.3c-.1.7-.2,1.4-.3,2.1l.5-.2c0-.6-.1-1.3-.2-1.9ZM848.7,717.9h-5.4c-.6.1-1.2.2-1.8.3l10.9-.1,1-.4c-1.4.2-2.9.2-4.7.2Z"/>
          <path class="cls-10" d="M1005.1,762.9h-.1c-3.8-.1-7.6-.3-11.5-.4-1.7-.1-3.2-1.3-3.5-3l-.9-5.3c0-.1-.1-.2-.2-.3-.5-.5-.8-1.2-1-2l-1.6-10.2c-.2-1.5.5-3,1.8-3.7.4-10.7,1.6-49.9,1.3-66.6v-1.1c.1-7.2-.8-10.8-1.9-14.2,0-.1-.1-.2-.1-.3l-.1-.5c-.8-3.8-1.6-7.7-1.9-11.9v-.4c.1-2.2.3-5.8.6-10.4v-.2c1-9.9,1.4-19.7,1.7-28.8v-.1c.8-13.6,2.2-35.4,2.8-42.6-.3-.6-.4-1.3-.3-2v-.1c.1-.7.2-1.3.2-2,.2-1.8,1.8-3.1,3.6-3.1h0c1.8,0,3.3,1.3,3.6,3.1l.3,1.8v.1c3.2,21.9,6,45.6,5.1,70,.1,6.6,2.8,12.7,5.6,19.2l.8,1.8c.1.3.2.7.3,1,.6,5.8,0,10.4-.7,15.3-.6,4-1.2,8.5-1.3,14.5h0v.1c-.1,3.8-.7,36.1-.8,57,1.6.4,2.7,1.8,2.7,3.5v10.9c0,.2-.2,1.7-.5,3.9l-.1.4c0,.3-.1.7-.1,1v.4c0,.4-.1.8-.2,1.1l-.1.5v.4c-.3,1.9-1.8,3.2-3.5,3.2ZM996.7,755.3c1.8.1,3.5.1,5.3.2l.1-.5c.2-1.8.4-3,.4-3.5v-7.1c-1.6-.4-2.7-1.8-2.7-3.5,0-20.7.7-56.4.8-60.4h3.6-3.6c.1-6.4.7-11.2,1.3-15.4.6-4.6,1.2-8.3.7-12.9l-.5-1.2c-3-6.9-6-14-6.2-22.1v-.2c.3-9.8.1-19.5-.6-29-.1,1.4-.2,2.9-.3,4.4-.3,9.2-.7,19.1-1.7,29.2-.2,4.4-.4,7.9-.5,10,.2,3.6,1,7,1.7,10.6l.1.3c1.2,3.7,2.3,8.1,2.2,16.3v.8c.4,19.6-1.4,69.2-1.4,69.7,0,1.1-.5,2-1.3,2.6l1,6.2c.5.7.9,1.5,1.2,2.4,0,.1.1.3.1.4l.3,2.7ZM841.4,721.8c-1.9,0-3.4-1.4-3.6-3.3-.2-1.9,1.1-3.6,3-3.9.6-.1,1.2-.2,1.9-.3h6c1.8,0,3.1,0,4.3-.2,1.8-.2,3.5,1,4,2.8.4,1.8-.6,3.6-2.3,4.2l-1,.4c-.4.1-.8.2-1.2.2l-11.1.1q.1,0,0,0Z"/>
        </g>
        <g>
          <path class="cls-10" d="M1058.6,457.3c-1.1.5-2.5-1.1-3-2-.6-1.1,6.6,8.9,13.7,7.7,4-.6,11.4-1.6,14.2-6.1,2.2-3.6.5-10.4.5-11.7.3-5.8-8.1-10.2-8.1-10.2l-4.6-24.9c-.6-.4-6.6-17.3-6.6-17.3l5.6-3s-4.1-29.9-29.4-49.2c-25.4-19.3-7.6,48.4-8.4,45.7-.9-3.2,11.5,44.3,10.9,41l-.4.5c1.2,10.8,2.6,23.3,3,26.3.7,3.7,1.4,7.5,2,11.3.1.7.2,1.4.3,2.1l2.7,15.4c.4,1,5.2,10.6,5.2,10.6l.6-34.9h2.1l-.3-1.3ZM1006.1,651.2c-3.1-7.2-6.5-14.4-6.6-22.5.8-23.4-1.8-46.4-5.1-69.5-.3,1.7-1.7,23.3-3,44.5-.3,9.6-.7,19.3-1.7,29-.3,4.6-.5,8.2-.6,10.3.2,4.1,1.1,7.9,1.9,11.8,1.1,3.5,2.2,7.4,2.1,15.4v.9c.4,19.7-1.4,69.6-1.4,69.6l-1.7.3,1.6,10.2c.5.5.9,1.2,1.1,1.9l.9,5.6c3.9.1,7.7.2,11.5.4v-.2c0-.2,0-.4.1-.5.1-.4.1-.8.2-1.1,0-.1,0-.3.1-.4.1-.5.1-1,.2-1.4.3-2.1.5-3.6.5-3.8v-10.5l-2.7-.3c0-21.7.8-60.4.8-60.4,0-13.6,2.9-19.5,1.8-29.3ZM994.1,557.3c-.1.7-.2,1.4-.3,2.1l.5-.2c0-.6-.1-1.3-.2-1.9ZM843.3,717.9c-.6.1-1.2.2-1.8.3l10.9-.1,1-.4c-1.4.2-2.9.2-4.7.2h-5.4Z"/>
          <path class="cls-10" d="M1011.3,766.9l-6.5-.2c-3.8-.1-7.6-.3-11.5-.4l-6.1-.2-1.7-10.3-1-1-3-19.8,3-.5c.5-13.9,1.5-47.9,1.2-63.1v-1.3c.1-7.2-.9-10.4-1.7-12.9l-.3-1.1c-.8-3.9-1.7-8-2-12.5v-.8c.1-2.2.3-5.8.6-10.4v-.4c1-9.7,1.4-19.4,1.7-28.5v-.2c1-16.9,1.7-27.4,2.2-34l-1,.3,1.3-11.3c.1-.7.2-1.4.3-2.1l7.1-51.6,1.3,8.7.1-.4,6.5,45.2c0,.3.1.6.1.9l.8,5.4h0c2.8,20.3,5,41.9,4.3,64.2.1,5.8,2.6,11.6,5.3,17.7l1.2,2.8.1,1.1c.7,6.3,0,11.1-.7,16.2-.6,4.1-1.2,8.2-1.2,14v.1c-.1,3.6-.7,32.7-.8,53.5l2.7.3v18c0,.2-.2,1.8-.5,4l-.1.4c0,.3-.1.7-.1,1.1v.4c0,.4-.1.8-.2,1.1l-.1,1-1.3,6.6ZM998.6,748.4h0v-.5h-.1l.1.5ZM998.2,653.1c.2.8.5,1.6.7,2.4,0-.8,0-1.6-.1-2.5l-.3-.7c-.3-.7-.6-1.4-.9-2.2.2.9.4,1.8.6,2.8v.2ZM841.5,725.6l-1.4-14.8c.6-.1,1.3-.2,1.9-.3l.6-.1h6c1.6,0,2.9,0,3.8-.1l65-7.5-63.8,22.7-12.1.1ZM1063,523.7l-13.6-26.8c-5-9.9-5.4-10.9-5.5-11.3l-.3-.7-2.8-16.3c0-.3-.1-.6-.1-.9s-.1-.7-.2-1c-.6-3.9-1.3-7.8-1.9-11.2l-.1-.5c-.3-3-1.7-15.5-3-26.3l-.3-2.4c-.2-.9-.5-1.9-.8-3-1-3.7-2.3-8.7-3.7-13.7-2.4-8.9-5.3-20.3-5.6-21.6l-1.6-7h.1c-1.7-7.8-2.6-13.8-3.1-17.8-2.2-17.5-.2-27.2,6.2-31.4,3.6-2.3,9.7-3.7,18.6,3.1,27.5,20.9,32.1,52.8,32.3,54.2l.7,5.1-4.5,2.4c1.3,3.6,2.6,6.9,3.3,8.8l.9.6,4.5,24.7c3.7,2.6,8.9,7.6,8.8,14.6,0,.2.1.4.1.7.5,3.5,1.4,10-1.7,15-4.5,7.2-13.9,8.6-18.9,9.4l-.5.1c-2.2.3-4.3.2-6.5-.4l-.8,53.6ZM1067.3,466.1h0ZM1065.7,454.6c1.6,1.1,2.4,1.2,2.5,1.2h0l.5-.1c6.1-1,7.9-1.9,8.5-2.5.3-1.2-.1-4.2-.3-5.2-.1-1-.3-1.9-.3-2.8-.5-1-2.6-2.7-4.1-3.5l-3.2-1.7-5-27.3c-1.2-2.6-3-7.4-6.5-17.2l-2.1-6,6.3-3.4c-2.3-8.6-8.8-26.8-25.5-39.4-.6-.4-1-.8-1.5-1-.9,5-.3,17.8,4.7,38.6.1.2.1.4.1.6.5,2.2,3.9,15.2,6.8,25.8l1-1.3,3.2,16.6c.2,1.2.2,2.3-.1,3.4.8,6.9,1.6,14.2,2.1,19,1.7-.7,4-.9,6.3.4l5.4-2.7,1.2,8.5ZM1077,453.3h0ZM1091.4,445.5v.2-.2Z"/>
        </g>
      </g>
      <ellipse class="cls-2" cx="910.5" cy="776.5" rx="236.7" ry="18.8"/>
      <path class="cls-9" d="M957.8,564.9h0c-1.3,0-2.3-1.1-2.3-2.3,0-.8.3-4.3.9-10.4.6-6.5,1.5-16.1,1.5-17.8-.4-1.6-2.4-8.9-6.6-25l-.6-2.2c-3-.3-6.2-.6-7.3-.6-.2.1-.5.1-.8.1-1.3,0-2.3-1-2.3-2.3,0-.7.3-1.3.8-1.7.8-.7,1.2-1.1,11.7.1l1.6.2,1.4,5.2c1.7,6.6,6.3,24.2,6.6,25.1.2.7.3.9-1.4,19.3-.4,4.6-.9,9.4-.9,10.1,0,1.2-1.1,2.2-2.3,2.2ZM957.9,534.6h0c.1,0,0,0,0,0ZM944.9,504.4s0,.1,0,0c0,.1,0,0,0,0ZM944.9,504.4h0Z"/>
      <g>
        <g>
          <path class="cls-10" d="M1091.9,745h-44.7c-8.1,0-14.7-6.6-14.7-14.7v-114.5c0-8.1,6.6-14.7,14.7-14.7h44.7c8.1,0,14.7,6.6,14.7,14.7v114.5c0,8.2-6.6,14.7-14.7,14.7Z"/>
          <path class="cls-10" d="M1091.9,753h-44.7c-12.5,0-22.7-10.2-22.7-22.7v-114.5c0-12.5,10.2-22.7,22.7-22.7h44.7c12.5,0,22.7,10.2,22.7,22.7v114.5c0,12.6-10.2,22.7-22.7,22.7ZM1047.2,609.2c-3.7,0-6.7,3-6.7,6.7v114.5c0,3.7,3,6.7,6.7,6.7h44.7c3.7,0,6.7-3,6.7-6.7v-114.6c0-3.7-3-6.7-6.7-6.7h-44.7v.1Z"/>
        </g>
        <g>
          <polyline class="cls-10" points="1056.6 482.1 1056.6 455.2 1061.3 455.2 1084.2 455.2 1084.2 600.9 1056.2 600.9 1057.7 457"/>
          <path class="cls-10" d="M1084.2,608.9h-28c-2.1,0-4.2-.9-5.7-2.4s-2.3-3.6-2.3-5.7l1.2-115.3c-.5-1-.8-2.2-.8-3.5v-26.8c0-4.4,3.6-8,8-8h27.5c4.4,0,8,3.6,8,8v145.7c.1,4.4-3.5,8-7.9,8ZM1064.3,592.9h11.9v-129.6h-10.5l-1.4,129.6Z"/>
        </g>
        <path class="cls-10" d="M955.2,429.4l-2.7-.2c-21.1-1.3-34.9-9-35.5-9.3l-6.2-3.5,2.7-6.6c.8-2.1,3.4-13.5,5.3-21.9,2.4-10.7,4.7-20.8,6.2-25.6,5.2-16.6,28.2-24,37.2-26.4,1-1.6,1.9-3.1,2.8-4.4-.5-.6-.9-1.2-1.3-1.9-1.6-3.1-3.4-6.9-4.3-11.1-.6-3-1.3-7-.8-11.1.3-2.8,1.9-7.5,3.2-10.8h-.2c-2.8.1-5.5-.9-7.6-2.7-3.5-3.1-4.9-8-3.7-12.7,1-3.7,3.9-8.7,9.2-11.7,2.8-1.6,5.7-2.4,8.8-2.4,7.3-8.3,16-15,16.4-15.3l1.4-1.1,1.8-.4c1.3-.3,13.4-2.8,23.4,1.1,12.5,4.8,18.1,12.1,23.4,23,5.3,9.5,4.3,22.7,1.1,33.3,1,1.1,2.1,2.8,2.9,5l.3.9c2.1,6.1,3.3,9.4,6.6,12.3h0c7.8,6.9,12.2,15.6,12.1,24.1-.1,5.4-3.3,16.7-8,21.9-4.3,4.8-9.4,5.1-12.4,5.3-.8,0-1.5.1-2,.2-6.4,3.2-51,32.4-78,50.4l-2.1,1.6ZM930.6,408.4c4.5,1.7,11.5,3.8,20.3,4.6,49-32.5,75.8-49.6,79.7-50.7,2.4-.7,4.5-.8,6-.9.5,0,1.1-.1,1.5-.1,1.4-1.8,3.7-8.5,3.8-11.4.1-4.2-3.3-8.8-6.6-11.6h0c-6.7-5.9-9-12.7-11.2-19.2l-.3-.7c-.1-.1-.3-.4-.5-.5-1-1-2.4-2.6-3.5-5.1l-1.4-3,1.1-3.1c2.9-7.7,4.5-18.6,1.3-24.2l-.3-.5c-4.5-9.3-7.6-12.4-14.9-15.3-3.9-1.5-9.4-1.2-12.6-.7-3.1,2.5-10.2,8.6-15.2,15l-1.1,1.4.8,4.5c1.7,10,.9,11.8.1,13.4-1,2.1-3,7.9-3.2,9.4-.2,1.7.2,4,.6,5.8.4,1.7,1.1,3.5,1.9,5.2.2,0,.4.1.5.1l13.1,1.5-7.4,10.9c0,.1-4.7,7-9,14.2l-1.9,3.1-3.5.7c-10.1,1.9-26.1,8.8-28.5,16.3-1.3,4.1-3.7,14.8-5.8,24.2-1.6,7.3-2.8,12.8-3.8,16.7Z"/>
        <g>
          <path class="cls-10" d="M960.2,562.3l-.2-.7c-.7-3-1.4-6.8-1.3-7.8.2-.4.1-.9,0-1.3.7-8.1,1.6-18.1,1.5-18.6-.2-.7-7.3-21.2-9.3-27.1.3-.2.5-.4.7-.6.7-1.1.4-2.5-.6-3.2l-2.4-1.6-1.2.8c-.7.4-9.2,5.6-18.1,10.9-.4,0-.8.1-1.1.3-.1.1-3.9,2.5-8.2,5.3-5.7,3.5-10.3,6.3-11.4,6.9-1.8,1.1-3.7,3.4-5.6,6.7-1,1.7-1.5,3.7-1.6,5.7,0,.8-.1,2.2-.3,3.9-.7,9.2-.9,15.9-.6,20.7,0,2.8.3,5.5,1.4,7.4.6,1.5,1.5,2.4,2.6,2.8,8.5,3.6,23.3,5.1,30.9,5.3,1.7.1,3.1.2,3.9.2.4,0,.7,0,.8-.1l.8-.2c.2-.1.4-.1.6-.2,3-.5,5.9-1.5,8.3-2.8,1.9-.9,3.5-1.9,4.6-3.2.8-.9,2.3-3.5,3.5-5.7,0,0,0-.1.1-.1.2-.4.5-.8.7-1.1s.3-.6.4-.9c.3-.5.5-.9.6-1.1l.5-.6Z"/>
          <path class="cls-10" d="M939.3,583.6c-1.2,0-3-.1-4.2-.2-2.6-.1-21.3-1-32.6-5.7-2.3-1-4-2.8-5.2-5.3-1.3-2.5-1.9-5.5-1.9-9.5-.3-4.8-.1-11.6.6-21.2.1-1.5.2-3,.2-3.7.1-2.8.9-5.6,2.2-8,2.4-4.1,4.8-6.9,7.3-8.5,1.2-.8,6.8-4.2,11.4-6.9,3.4-2.2,6.4-4.2,7.6-4.9l.5-.3c.6-.4,1.3-.7,2.1-.9,8.6-5.2,16.6-10,17.3-10.4l4-2.4,5.1,3.4c2.9,2,4,5.7,2.8,8.9,1.6,4.7,4.3,12.6,6.2,18.1,1.7,4.8,2.2,6.4,2.3,6.7.4,1.4.5,1.5-1.2,19.8.1.7.1,1.4,0,2.1.1,1.1.6,3.6,1.2,6.2l.6,2.6-1.2,2.3c-.1.1-.2.4-.3.6-.2.7-.6,1.4-1,2-.2.3-.4.6-.6.9v.1c-2.4,4.4-3.5,5.7-4.1,6.4-1.5,1.7-3.5,3.1-6.1,4.4-2.8,1.6-6.1,2.7-9.6,3.3l-1.2.3c-.8-.2-1.5-.2-2.2-.2ZM938.8,573.4c-.1,0-.1.1,0,0h0ZM906.7,568.3c7,2.9,19.8,4.5,28.8,4.8h.2c2.1.2,3.1.2,3.5.2l1.6-.4c2.4-.4,4.7-1.2,6.5-2.2l.4-.2c1.9-.9,2.6-1.6,2.9-1.9,0,0,.7-.9,2.9-4.8l.2-.4c.2-.3.3-.5.5-.8v-.2l.4-.8c-.5-2.1-1.3-6.1-1.2-7.9v-.2l-.1-.3.1-1.2c.5-5.6,1.3-14.6,1.5-17.2-.4-1.1-1.1-3.2-2-5.7-2.2-6.4-5.5-16-6.9-20.1-3.5,2.1-8.8,5.3-14.3,8.6l-1.3.8h-.5c-1.4.9-4.3,2.8-7.4,4.8l-.1.1c-6.4,3.9-10.4,6.3-11.3,6.9-.5.3-1.8,1.4-3.8,4.9-.6,1-.9,2.1-.9,3.3,0,.8-.1,2.1-.3,4.1-.7,9.3-.9,15.6-.6,20v.4c0,3.1.5,4.4.7,4.9l.2.4c.2-.1.3,0,.3.1ZM954.6,562.1h0Z"/>
        </g>
        <path class="cls-10" d="M953,429.8h-.5c-21.3-1.3-35.1-9.1-35.7-9.4l-6.6-3.7,2.9-7c.8-2.1,3.4-13.5,5.3-21.8,2.4-10.7,4.7-20.8,6.2-25.6,6.3-20,39.6-28.5,46.6-28.1,4.7.2,8.4,4.3,8.2,9s-4.1,8.3-8.8,8.2c-5.9.3-26.9,7.6-29.6,16.1-1.3,4.1-3.7,14.8-5.8,24.2-1.6,7.2-2.8,12.6-3.8,16.5,4.9,1.8,12.7,4,22.3,4.6,4.7.3,8.3,4.4,8,9.1-.4,4.4-4.2,7.9-8.7,7.9ZM970.3,351.2h.1s0,0-.1,0Z"/>
        <g>
          <path class="cls-10" d="M989.8,547.7l4.3,9.6,5,80.2,3.8,14.2.4,89.2,25,2.6s19.3-62.1,11.7-92.4c0,0,9.2-67,12.8-84.2,3.5-17.2,5.8-30.7,3.8-40l1-2.5-13.7-68"/>
          <path class="cls-10" d="M1034.4,752.8l-39.6-4.2-.5-95.8-3.7-13.9-4.9-79.5c-1.2-2.7-3.6-8.2-3.6-8.2-1.9-4.3,0-9.4,4.4-11.3,4.3-1.9,9.4,0,11.3,4.4l3.6,8.1c.6,1.3,1.2,2.8,1.4,4.5h0l4.9,79.3,3.9,14.4v1.1l.4,81.5,10.2,1.1c5.7-20.4,14.7-60.7,9.6-81l-.4-1.6.2-1.6c.4-2.7,9.3-67.4,12.9-84.7,2.9-14,5.6-28.4,3.8-36.4l-.6-2.6,1-2.6-13.2-65.6c-.9-4.6,2.1-9.2,6.7-10.1,4.7-.9,9.2,2.1,10.1,6.7l14.2,70.5-1,2.7c1.4,9.9-.5,22.3-4.3,40.8-3.2,15.3-11,71.8-12.5,82,3,13.8,1.9,33.8-3.3,59.6-3.9,19.5-8.7,35-8.9,35.7l-2.1,6.7Z"/>
        </g>
        <g>
          <path class="cls-10" d="M942.8,573.7c2.7,28.7,9,75,9,75,.1.7,14.4,85.7,16.5,94l23.4-1.9s9.7-58.1-2.7-95.5l5.4-86.1"/>
          <path class="cls-10" d="M961.7,751.9l-1.8-7.1c-2.2-8.7-16.6-94.2-16.7-94.9-.1-.5-6.3-46.9-9-75.4-.4-4.7,3-8.9,7.7-9.4s8.9,3,9.4,7.7c2.6,27.5,8.6,72.2,8.9,74.6.7,4.1,10.9,64.4,14.9,86.1l9-.7c2-15.9,5.9-57-3.3-84.8l-.5-1.6,5.5-87.7c.3-4.7,4.3-8.3,9.1-8,4.7.3,8.3,4.4,8,9.1l-5.3,84.5c12.1,38.9,2.9,95.6,2.5,98l-1.1,6.6-37.3,3Z"/>
        </g>
        <path class="cls-10" d="M942.8,573.7c2.7,28.7,9.2,60.4,9.2,60.4.1.7.1,19.7,1,26.6,3.6,27,13.5,75.7,15.6,84l23.1-3.9,1.4-70.5c.2-14.6-3.7-15.8-4.1-25-.1-1.8,5.1-88,5.4-86.1"/>
        <rect class="cls-10" x="970.3" y="734.77" width="20.1" height="21" transform="translate(-102.9 159.54) rotate(-8.84)"/>
        <rect class="cls-10" x="1006.1" y="734.8" width="19.1" height="21"/>
        <path class="cls-10" d="M1080.8,447.3c0-1.5-.6-5.6-2.7-4.4-.1.1-.2.1-.3.2"/>
        <path class="cls-10" d="M1079.4,442.1c-.1-.6-1.5.5-2.1.7"/>
        <path class="cls-10" d="M1046.7,400.9c-.1-.1-.1-.2-.2-.4"/>
        <g>
          <path class="cls-10" d="M1038.5,630.9c.2,1.8.4,3.5.8,5.3.1.3.1.6.2.8v.2c-.7-2.6-1.1-5.2-1.1-7.9,0,.5.1.9.1,1.4v.2ZM1037.4,592.6c.6,6.7,1,13.4,1,20.1-.3-10.1-1.1-20.2-2.2-30.3.4,3.4.9,6.8,1.2,10.2Z"/>
          <path class="cls-10" d="M1039.5,640.7c-1.5,0-2.9-1-3.3-2.6-.8-3-1.2-5.9-1.3-8.7,0-1.8,1.4-3.4,3.2-3.5s3.4,1.3,3.6,3.1v.1c0,.4.1.8.1,1.2v.3c.2,1.7.4,3.3.7,4.9l.2.8v.2c.4,1.8-.7,3.6-2.5,4-.2.1-.4.2-.7.2ZM1041.9,630.9h0ZM1038.4,616.1c-1.8,0-3.4-1.5-3.4-3.3-.3-9.3-1-19.2-2.2-30-.2-1.9,1.1-3.5,3-3.8,1.9-.2,3.5,1.1,3.8,2.9.5,3.7.9,7.1,1.2,10.3h0c.7,7.4,1,14.1,1,20.5,0,1.9-1.5,3.4-3.4,3.4h0Z"/>
        </g>
        <path class="cls-9" d="M959.7,388.5c-.4,0-.8-.3-1-.7-1.1-4.1-1.1-8.7,0-13.8.1-.5.7-.9,1.2-.8s.9.7.8,1.2c-1.1,4.7-1.1,9-.1,12.8.1.5-.2,1.1-.7,1.2-.1.1-.2.1-.2.1Z"/>
        <circle class="cls-9" cx="1049.96" cy="752.23" r="7.2"/>
        <circle class="cls-9" cx="1089.87" cy="752.23" r="7.2"/>
        <g>
          <path class="cls-10" d="M1091.9,745h-44.7c-8.1,0-14.7-6.6-14.7-14.7v-114.5c0-8.1,6.6-14.7,14.7-14.7h44.7c8.1,0,14.7,6.6,14.7,14.7v114.5c0,8.2-6.6,14.7-14.7,14.7Z"/>
          <path class="cls-9" d="M1091.9,747.2h-44.7c-9.3,0-16.9-7.6-16.9-16.9v-114.5c0-9.3,7.6-16.9,16.9-16.9h44.7c9.3,0,16.9,7.6,16.9,16.9v114.5c0,9.4-7.6,16.9-16.9,16.9ZM1047.2,603.3c-6.9,0-12.5,5.6-12.5,12.5v114.5c0,6.9,5.6,12.5,12.5,12.5h44.7c6.9,0,12.5-5.6,12.5-12.5v-114.5c0-6.9-5.6-12.5-12.5-12.5h-44.7Z"/>
        </g>
        <path class="cls-9" d="M1056.6,602.7c-1.2,0-2.2-1-2.2-2.2v-20.5c0-1.2,1-2.2,2.2-2.2s2.2,1,2.2,2.2v20.6c0,1.1-1,2.1-2.2,2.1Z"/>
        <path class="cls-10" d="M944.6,468.8l-4.4,37.7-13.8,9.7s-3.9-49.6-1.9-69.6c2-8.2.4-30.2.4-30.2l25.6,6.9-5.9,45.5Z"/>
        <path class="cls-11" d="M994.1,557.3c-3.5,25.6-1.6,52-4.8,78.9-1.3,10.8,2.3,18.1,3.4,28.9,1.2,11.4-1.1,75.7-1.1,75.7l-16.3.9s-10-55.8-17.1-91.3c-.5-2.4-.8-4.9-1-7.4-1.3-16.3-8.4-72.3-9.1-80.9-2.6-14.2-6.2-30.3-7.5-44.6.1-11.8-2-21.4-.7-33.1,26.7-.7,80.9-6,105.8-2.6,2.2,11.1,6.9,23.3,8.1,34.6.3,7.7,1.2,15.2,2.4,22.8-1.5,16.1-6.2,29-7.6,45.2-1.4,11.8-9,56.5-8.6,66.7.5,11.8,3.6,21.7.9,33.6-1.6,8.2-12.6,58.8-12.6,58.8l-25-2.8-1-87.8-3.6-14.7-3.6-70.1-1-10.8Z"/>
        <path class="cls-10" d="M926.9,527.2c-4.2,0-7.7-3.2-8-7.4-.2-3.5-.8-8.8-1.4-15-1.4-14.9-3.1-31.7-2.7-39.5.5-10.8,1.4-16,3-22.5,1.4-5.5,1.1-10.7.8-16.6-.2-3.3-.3-6.7-.3-10.4.1-4.4,3.7-7.8,8-7.8h.2c4.4.1,7.9,3.8,7.8,8.2-.1,3.1.1,6.1.2,9.2.3,6.6.7,13.5-1.2,21.3-1.4,5.6-2.1,9.9-2.6,19.4-.3,6.6,1.4,24.3,2.6,37.2.6,6.3,1.1,11.7,1.4,15.4.3,4.4-3,8.2-7.4,8.6-.1-.2-.3-.1-.4-.1Z"/>
        <path class="cls-9" d="M943.2,371.3l-1.1-.4c-1.6-.6-2.9-2-3.7-4-1.3-3.1-1.3-7.3,0-10.1,2.1-4.5,9.1-8.4,13.1-9.7l.4-.1c11.2-3.9,19.2-6.6,23.6-19.2,1.5-4.3,2-8.4,2.4-12.1,0-.2.2-.4.4-.4s.4.2.4.4c-.3,3.8-.8,7.9-2.4,12.3-4.5,12.9-12.8,15.7-24.1,19.6l-.4.1c-4.1,1.4-10.7,5.2-12.6,9.3-1.2,2.5-1.2,6.6,0,9.4.4,1,1.1,2.1,2.2,2.9-1.3-2.6-1.4-5.2-.4-7.7,2.1-5.2,8.6-9,13.9-10.4,9.2-2.4,15.9-6.8,23.1-15.1.1-.2.4-.2.6,0,.2.1.2.4,0,.6-7.3,8.5-14.1,12.9-23.5,15.4-5.1,1.3-11.4,5-13.3,9.9-1.1,2.7-.7,5.4,1,8.2l.4,1.1Z"/>
        <path class="cls-10" d="M961.6,344.6s-8.8,2.6-13.3,3.2h0c-23.1,11.9-23.4,66.6-28.3,65h0c6.4.8,14.3,6.4,21.2,7.1,2.5.6,6.5.3,8.8.1h0c-1.6,4.4-.4,8.6-.6,13.2h0c-3.6,11.2-3.8,24-6.2,35.4h0c-2.9,8.1-3.2,15.5-4,24.4-.7,8.5-6,18.2-3.6,26.6h0c6.7,15.1,30.4,19.6,45.4,17.3,19.7-3.3,39.7-5.4,59.4-8.6,4.5-.9,14.8-1.1,16.8-2.5h0c1.4-11.9-3.9-34.7-8.5-47.4h0c-2.3-15.8-7.6-47.1-10.6-64-1.2-6.7-2-11.2-2-11.4,0-22.1,27.1-14.4,28.1-14.1h0c0-2.8-1-7.9-1.2-10.7h0c-3.5-10.6-8.4-21.3-18.1-27.7l-83.3-5.9Z"/>
        <path class="cls-9" d="M936.3,523.1c-.2,0-.4,0-.6-.1-1.4-.3-2.2-1.7-1.9-3,6.7-29.4,10.4-65.8,12.9-89.8.3-3.2.6-6.2.9-8.9.1-1.4,1.4-2.4,2.8-2.2,1.4.1,2.4,1.4,2.2,2.8-.3,2.7-.6,5.7-.9,8.9-2.5,24.2-6.2,60.7-13,90.4-.2,1.1-1.3,1.9-2.4,1.9Z"/>
        <path class="cls-9" d="M926.9,521.7c-1.3,0-2.4-1-2.5-2.3-.3-3.6-.8-8.9-1.4-15.1-1.3-14-3-31.3-2.7-38.7.5-10.3,1.4-15.3,2.9-21.4,1.6-6.3,1.3-12.1.9-18.2-.2-3.2-.3-6.5-.3-10,0-1.4,1.2-2.5,2.5-2.5h.1c1.4,0,2.5,1.2,2.5,2.6-.1,3.3.1,6.5.2,9.6.3,6.2.7,12.7-1.1,19.7-1.4,5.8-2.2,10.5-2.7,20.5-.3,7,1.3,24.2,2.7,38,.6,6.2,1.1,11.6,1.4,15.2.1,1.4-.9,2.6-2.3,2.7-.1-.1-.2-.1-.2-.1Z"/>
        <path class="cls-9" d="M1037.4,406.7c-.9,0-1.8-.5-2.3-1.4-4.7-9.4-5.9-18.1-3.7-25.2.4-1.3,1.8-2.1,3.2-1.6,1.3.4,2.1,1.8,1.6,3.2-1.9,5.9-.7,13.3,3.4,21.5.6,1.2.1,2.8-1.1,3.4-.3.1-.7.1-1.1.1Z"/>
        <path class="cls-9" d="M953,423.7h-.2c-19.9-1.2-32.6-8.3-33.1-8.6l-1.9-1.1.9-2.1c.9-2.3,3.4-13.2,5.6-22.8,2.3-10.1,4.6-20.6,6.1-25.1,5.3-16.6,35.3-24.1,40.6-23.9,1.4.1,2.5,1.3,2.4,2.6-.1,1.4-1.3,2.5-2.6,2.4-3.9-.2-31.2,6.8-35.5,20.4-1.4,4.3-3.7,14.7-6,24.7-2.3,10.4-4,17.6-5.1,21.4,4.1,1.9,14.6,6.2,29.1,7.1,1.4.1,2.4,1.3,2.4,2.7-.2,1.3-1.3,2.3-2.7,2.3Z"/>
        <path class="cls-9" d="M1025,310.3c-.1,0-.3-.1-.3-.2-.1-.2,0-.4.2-.5.3-.2.7-.2,1.1-.3h.3c.2,0,.4.1.5.3,0,.2-.1.4-.3.5h-.3c-.3.1-.6.1-.8.2h-.4Z"/>
        <path class="cls-9" d="M1026,310.6h-.2c-.2-.1-.3-.3-.2-.5s.1-.4.2-.6l.4.1.4.1c-.1.2-.1.4-.2.7-.1.2-.3.2-.4.2Z"/>
        <path class="cls-9" d="M1026.6,310.2h-.1c-.2-.1-.3-.3-.3-.5,0-.1.1-.2.1-.3.1-.2.3-.3.5-.2.2.1.3.3.2.5h0c0,.1-.1.1-.1.2,0,.2-.2.3-.3.3Z"/>
        <path class="cls-9" d="M1000.9,310.4c-.1,0-.3,0-.4-.1h0c-.6-.1-1-.7-.8-1.4.1-.6.8-1,1.4-.8.1,0,.2,0,.2.1.6.2.9.9.7,1.5-.2.4-.6.7-1.1.7Z"/>
        <path class="cls-9" d="M1025,310.3c-.1,0-.3-.1-.3-.2-.1-.2,0-.4.2-.5.3-.2.7-.2,1.1-.3h.3c.2,0,.4.1.5.3,0,.2-.1.4-.3.5h-.3c-.3.1-.6.1-.8.2h-.4Z"/>
        <path class="cls-9" d="M1026,310.6h-.2c-.2-.1-.3-.3-.2-.5s.1-.4.2-.6l.4.1.4.1c-.1.2-.1.4-.2.7-.1.2-.3.2-.4.2Z"/>
        <path class="cls-9" d="M1000.9,310.4c-.1,0-.3,0-.4-.1h0c-.6-.1-1-.7-.8-1.4.1-.6.8-1,1.4-.8.1,0,.2,0,.2.1.6.2.9.9.7,1.5-.2.4-.6.7-1.1.7Z"/>
        <g>
          <path class="cls-9" d="M1027.8,311.3c-1.1-6.1-.9-12.6-1.2-18.8-.1-18.1-17.8-34.6-35.7-24.1-8.6,4-18.4,20.3-18.4,20.3l3,12s6.3,4.7,5.4,8.5c-1.4,5.1-3.7,15-5,18.6-2.8,7.9-15.1,13-3.8,23.6,14.4,11.7,4.4,17.3,7.2,30.4,4.7,12.4,23.7,14.2,30.9,3.4,7.1-1.9,10.2,3.7,15.1-3.5,2.2-3.3,2.8-10.5,7.6-11.9,4.1-1.3,7.8.4,11.1-3.3,2.9-3.3,5.8-12.3,5.9-16.7.2-6.9-4.3-13.5-9.3-17.8-5.3-4.7-7-10.2-9.2-16.7-1.8-5.4-6-10.5-5.6-16.1"/>
          <path class="cls-9" d="M995.9,393.3c-.8,0-1.6,0-2.3-.1-7-.8-12.8-5-15-10.9v-.1c-1-4.8-.4-8.7.2-12.1,1-5.9,1.8-10.6-7.1-17.9-8.5-8-4.2-13.5-.4-18.3,1.6-2,3.2-4,4-6.2.8-2.3,2.1-7.4,3.3-11.9.6-2.5,1.2-4.9,1.7-6.6.6-2.7-3.5-6.4-5.1-7.7l-.2-.2-3.1-12.6.2-.3c.4-.7,10-16.6,18.7-20.7,7.4-4.3,15.5-4.5,22.7-.4,8.5,4.8,14.2,15,14.2,25.2.1,1.8.1,3.7.2,5.5.1,2.6.1,5.2.3,7.8.5,1.2,1.1,2.5,1.8,3.8.9,1.8,1.8,3.7,2.5,5.6l.3.9c2,6,3.8,11.1,8.7,15.4,3,2.6,9.8,9.6,9.6,18.5-.1,4.7-3.1,13.9-6.1,17.2-2.4,2.6-5,2.8-7.5,2.9-1.3.1-2.6.2-4,.6-2.8.9-4,4.1-5.2,7.3-.6,1.6-1.2,3.2-2,4.3-3.3,4.8-6.1,4.3-9.1,3.8-1.7-.3-3.7-.6-6.2-.1-3.5,4.6-9,7.3-15.1,7.3ZM980,381.7c2.1,5.3,7.3,9.1,13.7,9.8,6.5.7,12.5-1.8,15.7-6.7l.2-.3.3-.1c2.9-.8,5.3-.4,7.1-.1,2.9.5,4.8.8,7.5-3.1.7-1,1.2-2.4,1.8-4,1.2-3.4,2.7-7.2,6.3-8.3,1.5-.5,3-.6,4.4-.6,2.4-.1,4.5-.3,6.4-2.4,2.8-3.1,5.6-11.9,5.7-16.2.1-5.7-3.3-12.1-9-17.2-5.2-4.6-7.1-9.9-9.2-16.1l-.3-.9c-.5-1.6-1.3-3.2-2.1-4.8v.2c.1.4-.2.9-.7.9-.4.1-.9-.2-.9-.7-.3-1.7-.5-3.5-.7-5.2-.9-2.2-1.5-4.5-1.4-6.9,0-.4.4-.8.9-.8h.2v-.5c0-1.8-.1-3.7-.2-5.5,0-9.7-5.4-19.3-13.4-23.8-6.7-3.8-14.2-3.7-21.1.4-7.8,3.6-16.6,17.6-17.9,19.8l2.8,11.4c1.3,1,6.4,5.3,5.4,9.2-.5,1.8-1.1,4.1-1.7,6.6-1.2,4.8-2.4,9.7-3.3,12.1-.9,2.5-2.6,4.6-4.2,6.7-3.9,4.9-7.2,9.1.2,16.1,9.6,7.8,8.7,13.2,7.6,19.4-.4,3.6-1,7.1-.1,11.6Z"/>
        </g>
        <path class="cls-9" d="M971.6,288.3l-10.2.4c-.7,0-1.4-.2-2-.7-.9-.8-1.8-2.2-1.2-4.4,1-3.7,5.8-10.1,13.5-7.9"/>
        <path class="cls-9" d="M975.9,328.7h0c-2.7,0-4.5-1-5.5-2.8-1.6-3.1-2.8-5.8-3.4-8.9-.5-2.6-1.1-5.6-.7-8.6.3-2.2.7-4.7,1.8-7.3.3-.6.6-1,1-1.5s.8-1,1-1.6c.3-.9.2-2.1.2-3.3,0-.6-.1-1.3,0-1.9.1-1.3.2-2.6,1.4-3.8.2-.1.4-.1.6,0,.1.2.1.4,0,.6-.9.9-1.1,1.8-1.2,3.2v1.8c.1,1.2.1,2.5-.2,3.6-.2.7-.7,1.3-1.1,1.8-.4.4-.7.9-.9,1.3-1.1,2.4-1.5,4.9-1.8,7.1-.3,2.9.2,5.8.7,8.3.6,3.1,1.8,5.7,3.3,8.7.8,1.6,2.4,2.4,4.8,2.4.2,0,.4.2.4.4,0,.3-.2.5-.4.5Z"/>
        <path class="cls-10" d="M1003,303.3l-.1-.1c3.9-5,11.9-7.7,17.4-6,4.4,1.1,6.5,3.4,6.8,6.5.2,1.8-.2,3.8-.9,5.9.1,0,.2,0,.3-.1h.1c3.8-9.4,6.5-20.6,1.1-30-4.3-5.9-7.6-17.8-24-21s-23,8-32.6,22.9c0-.2-.4.6-.4.4.2,15.3,30.1,26.9,30.1,26.9l2.2-5.4Z"/>
        <path class="cls-9" d="M961.3,289.1c-.8,0-1.5-.3-2.1-.8-.8-.7-2-2.3-1.3-4.8.6-2.4,2.6-5.5,5.8-7.3,2.5-1.4,5.3-1.7,8.2-.9.2.1.3.3.3.5s-.3.3-.5.3c-2.7-.8-5.3-.5-7.6.8-2.9,1.7-4.8,4.6-5.4,6.8-.5,2,.3,3.3,1.1,4,.5.4,1.1.6,1.7.6l10.2-.4c.3,0,.4.2.4.4s-.2.4-.4.4l-10.2.4h-.2Z"/>
        <path class="cls-9" d="M970.8,283.5c-.2,0-.4-.1-.4-.3-.6-3.3-.3-5.7,1-7.7,1.5-2.5,3.6-4.6,5.6-6.8.8-.8,1.6-1.6,2.3-2.5,1.1-1.2,2.3-2.1,3.6-3,.4-.3.9-.6,1.4-1,2-1.4,3.9-2.8,6-4,2.2-1.3,5.5-3,9.4-1.8,2.9.8,6.2,1.9,9.3,3.5,1.8.9,3.2,1.9,4.9,3.1.3.3.8.5,1.3.8,1.2.6,2.6,1.4,3.1,2.6.1.2,0,.4-.2.5s-.4,0-.5-.2c-.4-.9-1.6-1.6-2.7-2.2-.5-.3-1-.6-1.4-.8-1.6-1.2-3-2.2-4.8-3-3.1-1.5-6.4-2.6-9.2-3.4-2.7-.8-5.4-.3-8.7,1.8-2.1,1.3-4,2.6-5.9,4-.5.3-.9.7-1.4,1-1.3.9-2.4,1.7-3.5,2.8-.7.8-1.5,1.7-2.3,2.5-2,2.1-4,4.2-5.5,6.6-1.2,1.9-1.4,4.1-.9,7.2-.1.1-.3.3-.5.3h0Z"/>
        <path class="cls-9" d="M1028.1,312.8l-1.8-.7-3.8.5,1.4-3.9c.7-1.9.9-3.5.8-4.8-.2-1.5-.9-3.3-4.9-4.3h-.1c-4.6-1.4-11.4,1-14.7,5.1-.6.8-1.4,3.2-1.7,4.5l-.3,1.3-1.3.5c-1.7.6-16.4-2.9-23.7-9.9-12-11.4-10.7-23.7-8.2-27,7.4-9.4,18.8-17.2,19.3-17.6l.4-.3.5-.1c.4-.1,10.4-2.2,19.1,1.1,11.1,4.3,16.1,10.9,21,21,4.7,8.3,4.4,18.8-1,32.1l-1,2.5ZM991.4,261.1c-2.1,1.5-11.6,8.4-17.8,16.2-.7.9-2.8,10.2,7.7,20.2,5,4.7,13.6,7.2,17.5,8.2.5-1.4,1.1-3,1.9-4.1,4.5-5.8,13.5-8.9,20.1-6.9,3.2.8,5.2,2.2,6.5,3.7,1.5-7,.8-12.8-1.9-17.6l-.1-.2c-4.5-9.2-8.8-14.9-18.3-18.6-6.1-2.3-13.6-1.2-15.6-.9Z"/>
        <path class="cls-9" d="M975.9,330.6h0c-4.3,0-6.3-2.1-7.2-3.8-1.6-3.2-2.9-6-3.6-9.4-.5-2.6-1.1-5.9-.7-9.2.3-2.3.7-5.1,2-7.9.4-.8.8-1.4,1.3-1.9.3-.4.6-.7.7-1,.2-.6.1-1.6.1-2.5,0-.7-.1-1.4,0-2.1.1-1.7.4-3.5,2-5,.9-.9,2.4-.8,3.2.1.9.9.8,2.4-.1,3.2-.4.4-.5.7-.6,2v1.6c.1,1.3.2,2.8-.3,4.3-.3,1-1,1.8-1.5,2.4-.3.3-.5.7-.7.9-1,2.2-1.4,4.5-1.6,6.5-.3,2.6.2,5.3.7,7.7.6,2.8,1.7,5.3,3.2,8.2.2.4.7,1.3,3.1,1.3,1.3,0,2.3,1,2.3,2.3,0,1.2-1.1,2.3-2.3,2.3Z"/>
        <g>
          <path class="cls-10" d="M976.5,313c.1.7.4,1.7,1.1,2.2,4.2,0,3.2-11,2.4-14-.4-1.3-1.4-3-3-2.5-1.5.5-1.9,2.8-1.9,4.2,0,.6,0,1.3.2,1.9"/>
          <path class="cls-9" d="M977.6,316.9h-.6l-.4-.3c-1.3-.9-1.6-2.4-1.8-3.3s.4-1.8,1.3-2c.9-.2,1.8.4,2,1.3v.2c1.2-2.3.8-8.6.1-11.2-.2-.8-.6-1.3-.8-1.3-.3.1-.7.9-.8,2.7,0,.4,0,1,.1,1.5.2.9-.4,1.8-1.3,2-.9.2-1.8-.4-2-1.3-.2-.8-.2-1.6-.2-2.3.2-3.9,1.8-5.3,3.1-5.7.9-.3,1.9-.3,2.8.2,1.6.8,2.3,2.7,2.5,3.4.6,2.1,1.8,11-.9,14.5-.8,1-1.9,1.6-3.1,1.6Z"/>
        </g>
        <path class="cls-9" d="M972.4,758.5c-1.3,0-2.4-1-2.5-2.3l-1.1-12.7c-.1-1.4.9-2.6,2.3-2.7,1.4-.1,2.6.9,2.7,2.3l1.1,12.7c.1,1.4-.9,2.6-2.3,2.7h-.2Z"/>
        <path class="cls-9" d="M990.8,754.2h-.1c-1.4-.1-2.5-1.2-2.4-2.6l.4-9.9c.1-1.4,1.2-2.5,2.6-2.4,1.4.1,2.5,1.2,2.4,2.6l-.4,9.9c0,1.3-1.1,2.4-2.5,2.4Z"/>
        <path class="cls-9" d="M1006.1,756.9c-1.2,0-2.3-1-2.3-2.3l-.2-13.4c0-1.3,1-2.3,2.3-2.3h0c1.2,0,2.3,1,2.3,2.3l.2,13.4c0,1.2-1,2.2-2.3,2.3h0Z"/>
        <path class="cls-9" d="M1024.1,754.4h-.4c-1.2-.2-2.1-1.4-1.8-2.7l1.7-8.9c.2-1.2,1.5-2.1,2.7-1.8,1.2.2,2.1,1.4,1.8,2.7l-1.7,8.9c-.3,1-1.2,1.8-2.3,1.8Z"/>
        <path class="cls-9" d="M960.2,562.3l-.2-.7c-.7-3-1.4-6.8-1.3-7.8.2-.4.1-.9,0-1.3.7-8.1,1.6-18.1,1.5-18.6-.2-.7-7.3-21.2-9.3-27.1.3-.2.5-.4.7-.6.7-1.1.4-2.5-.6-3.2l-2.4-1.6-1.2.8c-.7.4-9.2,5.6-18.1,10.9-.4,0-.8.1-1.1.3-.1.1-3.9,2.5-8.2,5.3-5.7,3.5-10.3,6.3-11.4,6.9-1.8,1.1-3.7,3.4-5.6,6.7-1,1.7-1.5,3.7-1.6,5.7,0,.8-.1,2.2-.3,3.9-.7,9.2-.9,15.9-.6,20.7,0,2.8.3,5.5,1.4,7.4.6,1.5,1.5,2.4,2.6,2.8,8.5,3.6,23.3,5.1,30.9,5.3,1.7.1,3.1.2,3.9.2.4,0,.7,0,.8-.1l.8-.2c.2-.1.4-.1.6-.2,3-.5,5.9-1.5,8.3-2.8,1.9-.9,3.5-1.9,4.6-3.2.8-.9,2.3-3.5,3.5-5.7,0,0,0-.1.1-.1.2-.4.5-.8.7-1.1s.3-.6.4-.9c.3-.5.5-.9.6-1.1l.5-.6Z"/>
        <path class="cls-9" d="M1000.1,559c-1.8,0-3.5-.1-5-.1-.9-.1-1.7-.9-1.6-1.8.1-.9.9-1.7,1.8-1.6,3.4.2,8.3.2,11.9-.3.9-.1,1.8.5,1.9,1.5.1.9-.5,1.8-1.5,1.9-2.1.3-4.9.4-7.5.4Z"/>
        <path class="cls-9" d="M1030.1,746.2l-29.3-3.1-.5-91.2-3.8-14.1-5-80c-.8-1.8-4.1-9.2-4.1-9.2-.6-1.3,0-2.8,1.3-3.3,1.3-.6,2.8,0,3.3,1.3l2.1,4.8c1.5,3.3,2.1,4.8,2.3,5.7h0l5,79.9,3.8,14.2v.3l.4,87,20.6,2.2c3.2-10.8,17.7-62.8,11.1-89l-.1-.5.1-.5c.4-2.7,9.3-67.2,12.8-84.3,3.5-16.8,5.4-29.8,3.5-38.6-.3-1.4.6-2.7,1.9-3,1.4-.3,2.7.6,3,1.9,2.1,9.7.1,23.3-3.5,40.7-3.3,16.2-11.8,77.5-12.7,83.5,3.1,12.9,2.1,32.5-3.1,58.2-3.9,19.2-8.7,34.9-8.8,35.1l-.3,2Z"/>
        <path class="cls-9" d="M956.1,558.8l-.2-2.1c0-.2-.1-.5-.2-.8-.1-.4-.3-.9-.3-1.4-.1-.9.6-1.8,1.5-1.9.9-.1,1.8.6,1.9,1.5v.1c2.4-1,4.7-2.4,7-3.8.5-.3,1-.6,1.6-.9-.1-2.2-1.1-4.7-1.9-6.7-.4-.9.1-1.9,1-2.2.9-.4,1.9.1,2.2,1,1,2.6,2.3,5.9,2.1,9.1l-.1.9-.8.5c-.8.5-1.6.9-2.4,1.4-3,1.8-6.1,3.7-9.5,4.7l-1.9.6Z"/>
        <path class="cls-9" d="M1036.9,553.3l-.5-.1c-.4-.1-10.9-1.6-15.3-2.9l-.9-.3-.2-.9c-.7-2.5-1.9-5.4-3.1-8.1-.7-1.5-1.4-3.1-2-4.7-.3-.9.1-1.9,1-2.2s1.9.1,2.2,1c.6,1.5,1.3,3,1.9,4.6,1.1,2.5,2.3,5.1,3,7.6,4,1,11.4,2.2,13.4,2.5,1.7-.8,7.7-3.4,10.9-5,.3-3-.4-5.7-1.1-8.7-.3-1.5-.7-3-1-4.6-.1-.9.5-1.8,1.4-2s1.8.5,2,1.4c.2,1.5.6,2.9.9,4.4.8,3.4,1.6,6.9,1,10.8v.9s-.8.4-.8.4c-3.3,1.7-12,5.6-12.3,5.7l-.5.2Z"/>
        <path class="cls-9" d="M966.3,745.5l-.5-2.1c-2.2-8.6-16.5-93.6-16.6-94.3-.1-.5-6.3-46.8-9-75.2-.1-1.4.9-2.6,2.3-2.7,1.4-.1,2.6.9,2.7,2.3,2.7,28.3,8.9,74.5,8.9,74.9.1.7,12.9,76.3,16,91.7l19.2-1.6c1.5-10.3,7.9-59.8-2.9-92.4l-.2-.5,5.4-86.6c.1-1.4,1.3-2.5,2.7-2.4s2.4,1.3,2.4,2.7l-5.3,85.6c5.1,15.7,7.1,36.7,5.9,62.2-.9,19.1-3.3,33.9-3.3,34l-.3,1.9-27.4,2.5Z"/>
        <path class="cls-9" d="M944.7,577.8c-.9,0-1.8-.5-2.1-1.4-.5-1.2.1-2.5,1.3-3,9.3-3.7,12.1-9.9,12.6-11.1,1-9.4,2.2-25.1,1.5-27.8-1.2-5.3-6.2-17.9-8.9-24.7-1.4-3.6-1.9-4.8-2-5.3-.3-1.2.4-2.5,1.6-2.8,1.2-.3,2.5.4,2.8,1.6.1.4,1,2.6,1.9,4.8,2.9,7.4,7.8,19.8,9.1,25.4,1,4.4-1,25.5-1.5,29.6l-.1.5c-.1.4-3,9.2-15.3,14.1-.4.1-.7.1-.9.1ZM958.6,562.8h0Z"/>
        <path class="cls-10" d="M1030.2,784.3s3.8-7.8-1-18c-2.9-6.2-3.9-19.3-13-19.4-9.9-.1-10.2,4.8-10.2,4.8,0,0-1.3,11.1-2.9,18.1-1.6,7-.6,14.5-.6,14.5h27.7Z"/>
        <path class="cls-10" d="M1030.2,776.5s3.8-.1-1-10.2c-2.9-6.2-3.9-19.3-13-19.4-9.9-.1-10.2,4.8-10.2,4.8,0,0-1.3,11.1-2.9,18.1-1.6,7-.6,6.7-.6,6.7h27.7Z"/>
        <path class="cls-9" d="M1030.2,786.8h-27.7c-1.3,0-2.3-.9-2.5-2.2,0-.3-1-8,.7-15.4,1-4.2,1.8-10,2.3-14.1.6-4.4,4-8,8.4-8.7,1.7-.3,3.6-.4,5.8-.4,8.7.1,10.9,8,12.5,13.8.6,2,1.1,3.8,1.8,5.3,5.2,11.1,1.1,19.8.9,20.2-.3,1-1.2,1.5-2.2,1.5ZM1004.9,781.8h23.6c.7-2.5,1.6-7.8-1.5-14.4-.8-1.8-1.5-4-2-6-1.8-6.3-3.2-10.1-7.8-10.2-1.9,0-3.5.1-5,.3-2.2.3-3.9,2.1-4.2,4.4-.6,4.2-1.4,10.1-2.4,14.5-.9,4.2-.9,8.8-.7,11.4Z"/>
        <path class="cls-9" d="M1031.2,778.2h-28.3c-.9,0-1.7-.8-1.7-1.7s.8-1.7,1.7-1.7h28.3c.9,0,1.7.8,1.7,1.7s-.8,1.7-1.7,1.7Z"/>
        <path class="cls-10" d="M986.8,753.8s5.2,5.1,7.8,11.4,1.3,18,1.3,18l-46.3-.5s-3.2-7.9-.3-11.4,8.6-1,13.7-5.7,8.2-10.5,8.2-10.5l15.6-1.3Z"/>
        <path class="cls-10" d="M990.3,749.7s3.2,5.2,4.3,16.6c.7,6.8,1.3,10.2,1.3,10.2l-46.3-.5s-3.2-.1-.3-3.6,8.6-1,13.7-5.7l12.5-12.1,4.2-1.5,10.6-3.4Z"/>
        <path class="cls-9" d="M995.9,785.8h0l-46.3-.5c-1,0-1.9-.6-2.3-1.6-.4-1-3.6-9.4.1-13.9,1.9-2.3,4.6-3,7.2-3.6,2.5-.6,5.1-1.3,7.3-3.3,5-4.7,8.6-8.5,8.6-8.5l.1-.1,5-4.6c.3-.3.7-.5,1.1-.6.2-.1,5.8-1.4,9.5-1.2h0c4.9.2,7.8,4.2,8.8,7.5v.2l2,9.1c2.7,6.9,1.5,18.5,1.4,19-.1,1.1-1.2,2.1-2.5,2.1ZM951.4,780.2l42.2.5c.2-4,.2-10.7-1.3-14.5-.1-.1-.1-.3-.1-.4l-2-9.2c-.4-1.4-1.8-3.7-4.1-3.8-2.2-.1-5.7.6-7.5.9l-4.5,4.1c-.5.5-4,4.2-8.8,8.7-3.2,3-6.7,3.8-9.6,4.5-2.1.5-3.7.9-4.5,1.9-1,1.4-.5,4.9.2,7.3Z"/>
        <path class="cls-9" d="M994.5,776.8h-46.5c-.9,0-1.7-.8-1.7-1.7s.8-1.7,1.7-1.7h46.5c.9,0,1.7.8,1.7,1.7,0,1-.8,1.7-1.7,1.7Z"/>
        <path class="cls-9" d="M1037.2,405.6c-1.1,0-2.2-.8-2.4-1.9-1-4.2.9-8.6,5.3-12.5,6.3-5.5,17.7-9.5,24.5-6.8.2.1.4.2.7.3l-1.6-5.6c-3.2-10.2-10.1-19.7-11.6-21.2-1-1-1-2.6,0-3.6s2.6-1,3.6,0c1.7,1.7,9.4,12,12.9,23.3l3.6,12.5c.2.7.1,1.4-.3,2-.4.6-1,1-1.6,1.2l-2.5.5c-.7.1-1.4,0-2-.4s-.9-1.1-1-1.8c-.1-1.3-.7-2.1-1.9-2.5-4.4-1.8-13.7,1.1-19.3,5.9-1.7,1.5-4.5,4.4-3.7,7.5.3,1.4-.5,2.7-1.8,3-.5,0-.7.1-.9.1Z"/>
        <path class="cls-9" d="M966.6,539.8c-2.2,0-4.1-.1-5.6-.3-1.3-.2-2.1-1.3-2-2.6.2-1.3,1.3-2.1,2.6-2,16.1,2,80.8-8.7,93.9-10.9l-13.7-67.1c0-.2-.1-.3,0-.5l.3-13c0-1.3,1.1-2.3,2.3-2.2,1.3,0,2.3,1.1,2.2,2.3l-.3,12.7,14.1,69.2c.1.6,0,1.2-.4,1.7-.3.5-.9.9-1.5,1-2.8.6-67.1,11.7-91.9,11.7Z"/>
        <g>
          <path class="cls-9" d="M918.5,529.9s.9,22.3,1.7,28.9c.1.7.6,1.2,1.3,1.3,5.6.5,24.9,2.5,34.6,3"/>
          <path class="cls-10" d="M956.1,564.2s-.1,0,0,0c-6.7-.4-17.9-1.4-26.1-2.2-3.7-.4-6.8-.6-8.6-.8-1.2-.1-2.2-1.1-2.4-2.3-.8-6.5-1.6-28.1-1.7-29,0-.6.5-1.2,1.1-1.2s1.2.5,1.2,1.1c0,.2.9,22.4,1.6,28.8,0,.2.1.3.3.3,1.8.1,4.9.4,8.6.8,8.2.8,19.4,1.8,26,2.2.6,0,1.1.6,1.1,1.2,0,.6-.5,1.1-1.1,1.1Z"/>
        </g>
        <g>
          <path class="cls-9" d="M944.3,511c-13.5,11.2-26,18.5-26,18.5-4.3,1.8-12.4,5.8-12.4,5.8"/>
          <path class="cls-10" d="M905.8,536.6c-.4,0-.8-.2-1-.6-.3-.6-.1-1.3.5-1.5.3-.2,8.1-4.1,12.4-5.8,1-.6,13.1-7.8,25.8-18.4.5-.4,1.2-.3,1.6.1.4.5.3,1.2-.1,1.6-13.4,11.1-26,18.6-26.2,18.6l-.1.1c-4.2,1.7-12.3,5.8-12.4,5.8-.1,0-.3.1-.5.1Z"/>
        </g>
        <path class="cls-9" d="M1082.6,601.9c-1.2,0-2.2-1-2.2-2.2v-144.5c0-1.2,1-2.2,2.2-2.2s2.2,1,2.2,2.2v144.5c0,1.3-.9,2.2-2.2,2.2Z"/>
        <path class="cls-9" d="M1056.6,484.2c-1.2,0-2.2-1-2.2-2.2v-26.8c0-1.2,1-2.2,2.2-2.2h6.8c1.2,0,2.2,1,2.2,2.2s-1,2.2-2.2,2.2h-4.6v24.6c0,1.3-1,2.2-2.2,2.2Z"/>
        <path class="cls-9" d="M1078.8,462.3c-.9,0-1.8-.5-2.2-1.3-.7-1.2-.2-2.8,1-3.4,2.6-1.4,4.8-7.4,3.4-11-.5-.7-1.2-1.6-2-2.7-2.2-3-4.8-6.4-5.8-8.6l-.2-.4v-.4c-.6-7.5-2.1-15.5-4.2-22.6-2.4-6.9-7.1-22.3-7.3-22.9-.4-1.3.4-2.7,1.7-3.1s2.7.4,3.1,1.7c0,.2,4.8,16,7.2,22.8v.1c2.2,7.3,3.7,15.4,4.4,23.2.9,1.8,3.3,4.9,5,7.3.9,1.2,1.7,2.3,2.2,3.1l.2.4c2.5,5.6-.4,14.8-5.5,17.6-.2.1-.6.2-1,.2Z"/>
        <path class="cls-9" d="M1060.8,450.2c-1.5,0-2.9-.3-4.1-.7-6.1-1.8-13.4-13.2-14-17-.4-2-2.2-8.5-3.9-14.8-2-7.2-3.9-13.9-4.4-16.6-.3-1.4.7-2.7,2-2.9,1.4-.3,2.7.7,2.9,2,.4,2.4,2.4,9.4,4.3,16.1,1.9,6.7,3.6,13,4,15.3.4,2.4,6.8,12,10.5,13.1,2.2.6,3.6.6,5.1-.1.6-.3,3.7-2.5,6.1-4.4,1.1-.8,2.7-.6,3.5.5s.6,2.7-.5,3.5c-1.7,1.3-5.7,4.4-7,5-1.5.8-3.1,1-4.5,1Z"/>
        <g>
          <path class="cls-10" d="M1078.8,459.8s-3.5,2.3-7.3,2.4c-3.8,0-7.7-.8-7.7-1.8l-2.5-10.2"/>
          <path class="cls-9" d="M1071.4,464.7c-3.7,0-9.7-.5-10.1-3.9l-2.5-10c-.3-1.4.5-2.7,1.8-3s2.7.5,3,1.8l2.3,9.5c.9.3,3,.7,5.4.7h.1c3,0,5.8-1.9,5.9-1.9,1.2-.8,2.7-.5,3.5.7s.5,2.7-.7,3.5c-.1-.1-4.1,2.6-8.7,2.6q.1,0,0,0Z"/>
        </g>
        <g>
          <path class="cls-10" d="M1025,309.6c-7.1.5-17,1.3-23.6-1.7.2-2,1-3.8,2.2-5.4,10,2.6,18.3,1.2,21.4,1,.5-.1,1.5,5.5,0,6.1Z"/>
          <path class="cls-9" d="M1014.8,310.5c-4.8,0-9.7-.5-13.6-2.3l-.2-.1v-.3c.2-2,1-3.8,2.3-5.6l.2-.2.2.1c8.5,2.3,15.8,1.5,19.7,1.1.6-.1,1.2-.1,1.6-.1s.6.4.8,1.2c.3,1.3.8,5.1-.7,5.7h-.7c-2.9.2-6.2.5-9.6.5ZM1001.8,307.6c6.4,2.8,15.7,2.1,22.6,1.6h.5c.1-.1.3-.3.4-.6.4-1.4-.1-4.1-.3-4.8-.4,0-.9.1-1.4.1-3.9.4-11.2,1.1-19.7-1.1-1.2,1.6-1.9,3.2-2.1,4.8ZM1025,309.6h0ZM1025.1,303.8h0Z"/>
        </g>
      </g>
    </g>
    <path class="cls-10" d="M906.8,569.6c-.4,0-.8-.2-1-.6-.3-.5-.1-1.2.4-1.6l14.6-8.3c.6-.3,1.2-.1,1.6.4.3.5.1,1.2-.4,1.6l-14.6,8.3c-.2.1-.4.2-.6.2Z"/>
    <path class="cls-9" d="M946.9,518.5h-.4c-1.4-.2-2.3-1.5-2.1-2.8l24-171.7c.2-1.4,1.5-2.3,2.8-2.1,1.4.2,2.3,1.5,2.1,2.8l-24,171.7c0,1.2-1.1,2.1-2.4,2.1Z"/>
  </g>
  <g id="Mobiliar_Kundin" data-name="Mobiliar Kundin">
    <g>
      <path class="cls-9" d="M652,700.6h-12.3c-1,0-1.7-.8-1.7-1.7s.8-1.7,1.7-1.7h12.3c1,0,1.7.8,1.7,1.7s-.7,1.7-1.7,1.7Z"/>
      <g>
        <path class="cls-10" d="M876.5,763.7h-35.3c-7.7,0-14-6.2-14-14v-130.5c0-7.7,6.2-14,14-14h35.3c7.7,0,14,6.2,14,14v130.5c0,7.7-6.3,14-14,14Z"/>
        <path class="cls-10" d="M841.2,605.2h35.3c7.7,0,14,6.2,14,14v130.5c0,7.7-6.2,14-14,14h-35.3c-7.7,0-14-6.2-14-14v-130.5c.1-7.7,6.3-14,14-14M841.2,598c-5.7,0-11,2.2-15,6.2s-6.2,9.3-6.2,15v130.5c0,11.7,9.5,21.2,21.2,21.2h35.3c5.7,0,11-2.2,15-6.2s6.2-9.3,6.2-15v-130.5c0-11.7-9.5-21.2-21.2-21.2h-35.3Z"/>
      </g>
      <g>
        <ellipse class="cls-2" cx="765.2" cy="777" rx="164.3" ry="18.1"/>
        <g>
          <path class="cls-9" d="M872.8,601.9c-1.3,0-2.3-1-2.3-2.3l-1.4-153.3h-21.6v153.2c0,1.3-1,2.3-2.3,2.3s-2.3-1-2.3-2.3v-155.4c0-1.3,1-2.3,2.3-2.3h26.1c1.3,0,2.3,1,2.3,2.3l1.4,155.5c.1,1.2-.9,2.3-2.2,2.3q.1,0,0,0Z"/>
          <path class="cls-10" d="M714.9,558.9c2.4,4.8,1,9.6,6.9,11,6.7,1.6,13.4,3.5,20.1,5.3,4.6-2.4,6.9-5.6,11.5-8-.1-.9-.2-1.7-.3-2.6"/>
          <g>
            <path class="cls-10" d="M794.3,397.7h0c0,.1.1.1.1.2l-.1-.2M794.3,390.5c-1.3,0-2.7.4-3.9,1.1-2.9,1.8-4.1,5.4-3,8.6l.1.2c1,3,3.8,4.8,6.8,4.8.6,0,1.3-.1,1.9-.3,3.7-1,5.9-4.7,5.2-8.4v-.2c-.4-1.9-1.5-3.5-3-4.6-1.2-.8-2.7-1.2-4.1-1.2h0Z"/>
            <g>
              <path class="cls-10" d="M845.7,444.7h4.2c-.3-.6-.6-1.3-.8-1.9-2.5.9-5.6,0-7.1-2.2l-.6-.1c-.2,1.2-.3,2.4-.2,3.6-2.7.1-40-1.4-47.2-4.2-.9,3.8,2,27.3,2.3,31.6v-.3l.6,5.9c-1.3-8.3-2.6-20.1-3.2-29.5l-.1,2.1,3,29.7c8.9,2.6,30.5,2.2,27.4,16.9l-14.1,68.4c-2.2,10.5-13.3,9.2-21.2,6.8-3.1,11-30.6,144.8-26.1,168.9,1,1.2,1.7,2.6,2.6,3.9-14.6,2-28.1,4.1-40.4,6.5-.5-2,1.6-4.8,2.2-6.5-1.9-6.9-1.6-8.8-2.1-19.4-1.5-31.6,0-63.2,0-63.2l-5.7,37.7-25.5,20.2-4.8,23.9c-.2-.4,5.2,5.1,7.9,8.5-6.7,11.9-40.4,6.3-50.8-.8,3.9-4.4,5.3-14.5,5.3-14.5l5.7-12.6-.4-8.4s4.8-6.3,7.2-8.4c7.6-44.2,35-94.8,36.9-106.6s-2.4-36.1-4.9-48.5l-8.1-1.7c-7.9-.7-16.9-4.7-15-14.3l15.4-59.1-.7-.1,3.6-12.2c.3-2.8,4.4-6.1,4.4-6.1,1.4-3.7,1.3-11.5,1.3-11.5-15.2-84.5-13.1-111.9-13.1-111.9,0,0,2.5-6.6,12.2-16.2s18.8-16.2,18.8-16.2l6.6-15.7s-8.7-11.5-6.4-18c.5-1.1,2.2-1.9,2.9-.7l1.4-.3c-3.6-9.5-4-22.3,3.4-29.8,17.1-21,55.9-6.9,46.8,21.7,4.2.2,5.6,2.8,4.6,6.8-1.1,2.8-.4,12.1-3.4,12.5.7,8.4-2.2,17.1-7.7,23.5,4,4,9.6,8.1,10.8,13.8-.5,5.3-4.8,2.4-7.6,1.2,4.2,6.3,7.1,13.4,9,20.7l6.9,15c3.8,14.5,9.5,29,11.9,43.8h0l.1.2v-.2c1.7.9,54.3,27.7,54.3,27.7l2.7,3.4c10.1,4.4,18.1,1.9,17.5,15.9h3l1.4,155.5h-27.6l.5-155.2Z"/>
              <path class="cls-10" d="M744.4,228.6c15.9,0,31.3,12.7,25.2,31.8,4.2.2,5.6,2.8,4.6,6.8-1.1,2.8-.4,12.1-3.4,12.5.7,8.4-2.2,17.1-7.7,23.5,4,4,9.6,8.1,10.8,13.8-.2,2.3-1.2,3.1-2.4,3.1-1.6,0-3.6-1.2-5.2-1.9,4.2,6.3,7.1,13.4,9,20.7l6.9,15c3.8,14.5,9.5,29,11.9,43.8h0l.1.2v-.2c1.7.9,54.3,27.7,54.3,27.7l2.7,3.4c10.1,4.4,18.1,1.9,17.5,15.9h3l1.4,155.5h-27.6v-155.5h4.2c-.3-.6-.6-1.3-.8-1.9-.6.2-1.3.3-2,.3-2,0-4-.9-5.1-2.6l-.6-.1c-.2,1.2-.3,2.4-.2,3.6h-.5c-5.2,0-39.7-1.5-46.6-4.2-.9,3.8,2,27.3,2.3,31.6v-.3l.6,5.9c-1.3-8.3-2.6-20.1-3.2-29.5l-.1,2.1,3,29.7c8.9,2.6,30.5,2.2,27.4,16.9l-14.1,68.4c-1.4,6.5-6.1,8.5-11.4,8.5-3.3,0-6.7-.7-9.8-1.6-3.1,11-30.6,144.8-26.1,168.9,1,1.2,1.7,2.6,2.6,3.9-14.6,2-28.1,4.1-40.4,6.5-.5-2,1.6-4.8,2.2-6.5-1.9-6.9-1.6-8.8-2.1-19.4-1.5-31.6,0-63.2,0-63.2l-5.7,37.7-25.5,20.2-4.8,23.9h0c.3.1,5.3,5.3,7.9,8.6-2.8,5-10.4,6.9-19.1,6.9-11.9,0-25.7-3.6-31.7-7.8,3.9-4.4,5.3-14.5,5.3-14.5l5.7-12.6-.4-8.4s4.8-6.3,7.2-8.4c7.6-44.2,35-94.8,36.9-106.6s-2.4-36.1-4.9-48.5l-8.1-1.7c-7.9-.7-16.9-4.7-15-14.3l15.4-59.1-.7-.1,3.6-12.2c.3-2.8,4.4-6.1,4.4-6.1,1.4-3.7,1.3-11.5,1.3-11.5-15.2-84.5-13.1-111.9-13.1-111.9,0,0,2.5-6.6,12.2-16.2,9.6-9.6,18.8-16.2,18.8-16.2l6.6-15.7s-8.7-11.5-6.4-18c.3-.7,1.1-1.3,1.8-1.3.4,0,.8.2,1,.6l1.4-.3c-3.6-9.5-4-22.3,3.4-29.8,6.2-6.7,14.2-9.8,22.1-9.8M744.4,221.4c-10.6,0-20.4,4.5-27,12.5-4.5,4.7-7.1,11-7.7,18.5-.2,3.6,0,7.5.8,11.2-.9.9-1.6,1.9-2.1,3.1-.1.1-.1.3-.2.4-2.5,7.3,1.7,16.1,5,21.3l-4.3,10.3c-3.2,2.4-10.4,8.2-18,15.7-10.4,10.4-13.5,17.9-13.8,18.8-.3.7-.4,1.4-.5,2.1-.1,1.2-1.9,29.2,13.1,113.1,0,2.3-.2,5-.5,6.9-2,1.9-4.4,4.9-5.1,8.4l-3.5,11.7c-.3,1.2-.4,2.4-.2,3.5l-14.6,55.8c0,.1-.1.3-.1.4-1.1,5.2-.1,10.1,2.9,14,4.9,6.5,13.2,8.4,18.1,8.9.2,0,.6.1.9.2.6.1,1.3.3,2.1.4,3.6,19.3,5,34.2,3.9,41.2-.5,3.2-4.5,12.6-8.8,22.6-8.9,21-22.3,52.5-27.7,81.6-2.5,2.7-5.3,6.3-6.3,7.5-1,1.4-1.6,3-1.5,4.7l.3,6.6-5,11c-.3.6-.5,1.3-.6,2-.5,3.3-2,8.9-3.6,10.7-1.4,1.6-2,3.6-1.7,5.7.3,2.1,1.4,3.9,3.1,5.1,7.5,5.2,22.9,9,35.8,9,16,0,22.7-5.8,25.4-10.6,1.5-2.6,1.2-5.8-.7-8.1-1.7-2.1-4-4.6-5.2-5.9l-.5-.5,3.5-17.4,16.9-13.3c.1,4.9.3,9.9.5,15,.1,1.7.1,3.2.2,4.6.3,5.9.4,8.9,1.5,13.7-1.1,2.2-2.4,5.3-1.6,8.9.8,3.3,3.8,5.6,7.1,5.6.5,0,.9,0,1.4-.1,12.2-2.3,25.6-4.5,40-6.4,2.5-.3,4.6-1.9,5.6-4.2s.8-4.9-.6-7c-.3-.4-.5-.8-.8-1.2-.3-.5-.6-1-.9-1.5-2.5-22.8,17.9-128.1,24.5-157.5,1.5.2,3,.3,4.4.3,9.9,0,16.6-5.2,18.5-14.3l14.1-68.4c1.3-6.3-.5-10.7-2.3-13.3-5.2-7.6-15.6-9.4-24-10.8-.3-.1-.7-.1-1-.2l-.2-2.2v-.3c-.1-1.1-.3-3.2-.6-6-.4-3.5-1.1-10.6-1.6-16.2,12.4,1.7,30.7,2.4,37,2.6v149c0,4,3.3,7.3,7.3,7.3h27.6c1.9,0,3.8-.8,5.2-2.2s2.1-3.2,2.1-5.2l-1.4-155.5c0-2.5-1.3-4.8-3.3-6-1.8-10.6-9.8-12.8-15.3-14.4-1.5-.4-3.1-.9-4.6-1.4l-1.6-1.9c-.6-.8-1.4-1.4-2.3-1.9-17.4-8.9-42.5-21.6-51.1-26.1-1.7-8.7-4.4-17.3-6.9-25.6-1.6-5-3.2-10.3-4.5-15.3-.1-.4-.3-.8-.4-1.2l-6.7-14.4c-1.1-4.1-2.4-8.1-4.1-11.8,1.6-1.6,2.8-3.9,3.1-7,.1-.8,0-1.5-.1-2.3-1.3-5.6-4.9-9.8-8.4-13.2,3.5-5.9,5.4-12.7,5.5-19.6.6-1,1.2-2.3,1.6-3.8.5-2,.7-4.3.9-6.3.1-.9.2-2.3.3-2.8.1-.2.2-.5.2-.7,1.4-5.4-.2-9.1-1.8-11.1-.5-.6-1-1.2-1.5-1.7,1-7.7-.9-15.1-5.3-21.2-6.1-8.7-17-13.9-28.3-13.9h0Z"/>
            </g>
            <g>
              <path class="cls-10" d="M768,294.8l6.5,1.1s4.9,5.2,5.5,16.6c.6,12.6.5,21.8.5,21.8l-19.3-7.2"/>
              <path class="cls-9" d="M782.9,338l-22.7-8.5c-1.3-.5-2-1.9-1.5-3.2s1.9-2,3.2-1.5l15.9,6c0-3.8-.1-10.3-.5-18.1-.4-8.2-3.2-12.9-4.3-14.4l-5.5-1c-1.4-.2-2.3-1.5-2-2.9.2-1.4,1.6-2.3,2.9-2l7.3,1.3.6.6c.2.2,5.6,6,6.1,18.2.6,12.5.5,21.9.5,22v3.5Z"/>
            </g>
          </g>
          <g>
            <path class="cls-10" d="M718.1,283.3c-1.5-2.5-2.7-5.3-3.5-8.1-.6-2.1-1.5-6.4,4.4-7"/>
            <path class="cls-9" d="M718.1,285.8c-.9,0-1.7-.4-2.2-1.2-1.7-2.7-2.9-5.7-3.8-8.8-.3-1.2-1.2-4.5.6-7.1,1.2-1.7,3.2-2.8,6-3,1.4-.1,2.6.9,2.8,2.3s-.9,2.6-2.3,2.7c-1.2.1-2,.4-2.4.9-.3.5-.3,1.5.1,3,.7,2.6,1.8,5.1,3.2,7.5.7,1.2.3,2.7-.8,3.5-.3.1-.7.2-1.2.2Z"/>
          </g>
          <path class="cls-10" d="M716.4,303.2c-10.8,7.5-31.4,30.5-31.4,30.5,0,0-1.2,11.7-.1,32,1.1,20.3,11.4,68.4,10.8,75.5"/>
          <path class="cls-10" d="M796,470.8c-1.6-9.7-2.6-19.6-2.9-29.4"/>
          <g>
            <path class="cls-10" d="M768,260.5c3.2-.6,7,.4,6.7,6.1-.2,3.6-1.7,11.4-1.7,11.4l-3.2.4s.3,7.8-.8,12.8c-.9,4.1-3.6,8-6.8,11.5"/>
            <path class="cls-9" d="M762.2,305.2c-.6,0-1.2-.2-1.7-.7-1-.9-1.1-2.5-.1-3.6,3.4-3.7,5.5-7.1,6.2-10.3,1-4.6.7-12.1.7-12.1l-.1-2.3,3.7-.4c.4-2.5,1.2-7,1.3-9.3.1-1,0-2.4-.7-3-.6-.5-1.7-.7-3-.4-1.4.2-2.7-.7-2.9-2s.7-2.7,2-2.9c2.9-.5,5.5.1,7.3,1.6,1.2,1.1,2.6,3.2,2.4,7.1-.2,3.7-1.7,11.4-1.8,11.7l-.3,1.8-2.8.3c0,2.8-.1,7.5-.9,11-.9,4.1-3.3,8.3-7.4,12.7-.6.5-1.3.8-1.9.8Z"/>
          </g>
          <path class="cls-9" d="M752.6,231.2c-.4,0-.8-.2-1-.6-.1-.2-.2-.3-.4-.5l1.8-1.7-.9.8.9-.8c.2.2.4.4.6.8.4.6.2,1.3-.4,1.7-.2.3-.4.3-.6.3Z"/>
          <path class="cls-10" d="M798.9,440.5c-9-2.2-18-4.4-26.5-8.1s-16.4-9-21.9-16.5c-3.7-5-14.1-26.2-17-31.4-3.5-6.3-6.7-12.7-8.9-19.5-6.7-20.3-1.4-42.4,16.3-55.2,3.5-2.5,7.7-4.6,11.9-3.9,3.9.6,7,3.6,9.6,6.6,8.3,10,12.9,22.7,14.4,35.6.7,6.5.6,13.1,0,19.6-.5,5.1-.2,10.5-1,15.5-.3,1.5-1,3.1-2.4,3.8-1.4.7-3.4.2-3.9-1.3-.4,1-.5.9-.4-.2s1.5-1.7,2.6-1.4c1.1.3,1.9,1.1,2.6,1.9,11.8,11.9,27,20.4,43.4,24.1,2.7.6,5.5,1.1,8,2.1,9,3.6,15,13.3,24.6,14.7-2.1-.3-6,4.6-7,6.1-1.9,3-2.9,6.7-2.7,10.3.2.5-36.1-1.4-41.7-2.8Z"/>
          <path class="cls-5" d="M796,470.8c-1.6-9.7-2.6-19.6-2.9-29.4"/>
          <path class="cls-6" d="M848.6,427.1l-30.8-16.9s-11.6-4.5-23.4-10.7v-1.6l-12.2-41.5-6.9-17.6c-1.5-6.4-3.9-12.6-7.2-18.2l-3.1-7.8-3.3-1.2c-2.4-2.7-5.3-5.1-8.8-5.7-1.9-.3-3.8-.1-5.6.5l-9.5-3.4-10.5,1.7c-14.2,6.1-34.4,32.2-34.4,32.2,0,0-.9,17.4,1.5,36.2,4.1,31.8,9.2,63.6,9.2,63.6l-3.3,24.5-7.1,15,104,13.9-2.6-38.8v-14.7c21.7,4.1,44.5,6.7,44.5,6.7l9.5-16.2Z"/>
          <path class="cls-9" d="M693.5,423.5c-1.2,0-2.3-.9-2.5-2.1-.6-3.4-1.2-7-1.8-10.8-1.4-8.1-2.8-16.5-4-24.9-4.7-34.9-2.8-51.2-2.7-51.9,0-.3.1-.6.3-.9.4-.7,9.2-17,32.2-31.9,1.2-.8,2.7-.4,3.5.7.8,1.2.4,2.7-.7,3.5-19.9,12.9-28.8,27.1-30.3,29.7-.3,2.9-1.4,19.2,2.8,50.1,1.1,8.3,2.6,16.6,3.9,24.7.7,3.8,1.3,7.4,1.8,10.9.2,1.4-.7,2.7-2.1,2.9-.1,0-.3,0-.4,0Z"/>
          <g>
            <path class="cls-10" d="M794,397.3c-3.6-19-11.3-41.8-19.7-59.3"/>
            <path class="cls-9" d="M793.9,399.5c-1.1,0-2-.8-2.2-1.9-3.5-18.5-10.9-41-19.5-58.7-.5-1.1-.1-2.5,1.1-3.1,1.1-.5,2.5-.1,3.1,1.1,8.7,18.1,16.3,41.1,19.9,59.9.2,1.2-.6,2.4-1.8,2.7h-.6Z"/>
          </g>
          <path class="cls-9" d="M796.5,478.7c-.8,0-1.6-.4-2-1.1-.3-.5-.4-1.1-.3-1.7,0-1.7-.5-10.2-.9-17.7-.5-7.7-.9-15.7-1.1-20,0-1.3.9-2.3,2.2-2.4s2.3.9,2.4,2.2c.2,4.3.6,12.3,1.1,19.9.3,4.8.6,9.3.7,12.7.1,1.7.2,3.1.2,4.1.1,1.8.1,3.3-1.6,3.8-.2.2-.5.2-.7.2Z"/>
          <path class="cls-9" d="M766.9,324.2c-.6,0-1.2-.2-1.7-.6-1-.9-1.1-2.5-.2-3.6l3.2-3.6c-2.9-5.5-15.2-24.7-44.7-24.5l-5.3,9.5c6.1-.3,16.6-.5,22.2.8,7.9,1.8,11.4,3.4,11.5,3.5,1.3.6,1.8,2.1,1.2,3.3-.6,1.3-2.1,1.8-3.3,1.2,0,0-3.2-1.5-10.5-3.1-7.3-1.7-25.1-.5-25.3-.4l-4.6.3,11.2-20h1.4c20-.6,32.9,7.3,40.2,14,8,7.3,11.2,14.7,11.3,15l.6,1.5-5.4,6c-.4.4-1.1.7-1.8.7Z"/>
          <path class="cls-9" d="M695.8,468.1c-.3,0-.6,0-.9-.1-2.1-.5-3.5-2.6-3-4.8,1.3-5.6,10.8-70.6,19.3-129.6,1.8-12.7,11.4-24.8,23.9-30.1,2-.9,4.4.1,5.2,2.1.9,2-.1,4.4-2.1,5.2-9.9,4.2-17.7,14-19.1,23.9-4.1,28.7-17.7,122.9-19.4,130.3-.5,1.9-2.1,3.1-3.9,3.1Z"/>
          <path class="cls-9" d="M782.6,466.9h-.1c-.9-.1-1.7-.9-1.6-1.8.7-8.4.8-14.5.6-22.5,0-.9.7-1.7,1.7-1.8h0c.9,0,1.7.7,1.7,1.7.2,8.1.1,14.3-.6,22.8-.1.9-.8,1.6-1.7,1.6Z"/>
          <path class="cls-9" d="M873.6,777.5h.4c2.3,0,4.2-1.9,4.2-4.2v-10.8c0-2.3-1.9-4.2-4.2-4.2h-.4c-2.3,0-4.2,1.9-4.2,4.2v10.8c0,2.3,1.9,4.2,4.2,4.2Z"/>
          <path class="cls-9" d="M840.8,777.5h.4c2.3,0,4.2-1.9,4.2-4.2v-10.8c0-2.3-1.9-4.2-4.2-4.2h-.4c-2.3,0-4.2,1.9-4.2,4.2v10.8c.1,2.3,2,4.2,4.2,4.2Z"/>
          <path class="cls-9" d="M876.5,763.7h-35.3c-7.7,0-14-6.2-14-14v-130.5c0-7.7,6.2-14,14-14h35.3c7.7,0,14,6.2,14,14v130.5c0,7.7-6.3,14-14,14Z"/>
          <path class="cls-10" d="M653.9,739.7c3.1,7.5,14.7,8.4,21.8,6.9,6.3.1,17.3-25.4,17.3-25.4l32.4-59.8-.4,1.5c-1.9,15.2-1.1,18.6-.1,33.8,1.4,13.9-.3,37.6,1.8,46.9l-2.3,4.9c-.2,8.9,2.3,15.8,14.8,12.8,20.2-2.5,27-13,21.3-32.6-1-7.3,6.9-77.8,11.4-88.2,14.1-23.9,5.9-35,11.9-55.2.9-3.7,6.4-15.9,4.6-19.3-1.1-2-7.9-3.3-9.9-4-8.1-2.7-16-5.6-24.7-6.6-8.3.4-64.4-17.3-57.3-.2,1.5,15.1,6.1,31.6,4.8,46.9-5.7,16.9-16.7,39.7-25.7,61.9-2.8,6.1-7,24.1-7.3,30.8s-1.2,14.1-6.3,18.4c-14.5,9.9,3,8.9-8.1,26.5Z"/>
          <path class="cls-9" d="M763.8,755.3c-.3,0-.6-.1-.9-.2-1.3-.5-1.9-2-1.4-3.3,1.6-3.9-1.3-15.7-3.4-22.2-.1-.4-.2-.8-.1-1.2l27.3-157.4c.2-1.4,1.5-2.3,2.9-2,1.4.2,2.3,1.5,2,2.9l-27.3,156.8c1.2,3.6,5.7,18.6,3.1,25.1-.2.9-1.2,1.5-2.2,1.5Z"/>
          <path class="cls-9" d="M723.1,762.6c-1.2,0-2.2-.8-2.5-2-.8-4-.5-12.9-.4-13.9,0-.5.2-1,.5-1.4l3.1-4c-1.4-6.9-7.7-42.9-.6-92.6,1.3-9.4,3.5-19.9,4-22.3-1-5.5-8.9-51.2-10.2-61.8-.2-1.4.8-2.6,2.2-2.8s2.6.8,2.8,2.2c1.4,11,10.2,61.5,10.3,62.1.1.3,0,.6,0,1,0,.1-2.5,12-4,22.4-7.7,54.2.6,91.6.7,92,.2.7,0,1.5-.5,2.1l-3.3,4.3c-.1,3-.2,9.3.4,11.9.3,1.4-.6,2.7-2,3-.2-.3-.4-.2-.5-.2Z"/>
          <path class="cls-9" d="M685.9,740.9c-.7,0-1.4-.3-1.9-.8-.9-1-.8-2.6.2-3.6l6.6-6-.7-7.6c0-.4,0-.9.2-1.3.1-.3,15.1-33.2,31.7-60.8.7-1.2,2.3-1.6,3.5-.9,1.2.7,1.6,2.3.9,3.5-15.2,25.3-29.1,55.1-31.2,59.7l.8,8.2c.1.8-.2,1.6-.8,2.1l-7.6,6.8c-.5.5-1.1.7-1.7.7Z"/>
          <path class="cls-9" d="M651.1,742c-.2,0-.4,0-.7-.1-1.3-.4-2.1-1.8-1.8-3.1,1.9-7.1,4.9-12.8,5.9-14.7l-.7-6.8c-.1-.7.1-1.3.5-1.8l5.8-7.2c.9-3.6,6.1-24,9.8-35.1,5-15.1,12.4-32.4,18.3-46.3,4.9-11.5,9.5-22.3,9.8-25.2.7-6.6-1.3-28.7-2.4-39.4-.1-1.4.9-2.6,2.2-2.8,1.4-.1,2.6.9,2.8,2.2,1.3,11.7,3.2,33.5,2.4,40.5-.4,3.5-3.9,11.9-10.2,26.6-5.9,13.8-13.2,31-18.1,45.9-4,11.9-9.8,35-9.8,35.2-.1.4-.2.7-.5,1l-5.4,6.8.7,6.6c.1.5-.1,1.1-.3,1.5,0,.1-3.7,6.3-5.8,14.2-.4,1.3-1.4,2-2.5,2ZM662.5,709.4h0Z"/>
          <g>
            <path class="cls-10" d="M672.6,535.8l17.8-68c1.2-5.9,7-9.8,13-8.5l6.5,1.3h0l105.2,22c5.9,1.2,9.8,7,8.5,13l-14,68.4c-1.2,5.9-7,9.8-13,8.5l-108.9-22.4h0l-6.5-1.3c-6-1.3-9.8-7-8.6-13Z"/>
            <path class="cls-9" d="M798.8,575.3c-.9,0-1.8-.1-2.7-.3l-108.9-22.4c-.1,0-.2,0-.3-.1l-6.2-1.3c-3.5-.7-6.6-2.8-8.5-5.8s-2.7-6.6-1.9-10.1v-.1l17.8-67.9c.7-3.5,2.8-6.5,5.8-8.5s6.6-2.7,10.1-1.9l6.4,1.3h.1l105.2,22c3.5.7,6.6,2.8,8.5,5.8,2,3,2.7,6.6,1.9,10.1l-14.1,68.4c-.7,3.5-2.8,6.6-5.8,8.5-2.2,1.5-4.8,2.3-7.4,2.3ZM688.4,547.7l108.7,22.3c2.2.5,4.5,0,6.4-1.2s3.2-3.1,3.6-5.4l14.1-68.4c.5-2.2,0-4.5-1.2-6.4s-3.1-3.2-5.4-3.6l-105.1-21.9h-.1l-6.5-1.3c-2.2-.5-4.5,0-6.3,1.2-1.9,1.2-3.2,3.1-3.6,5.4v.1l-17.8,67.9c-.4,2.2,0,4.4,1.2,6.3,1.2,1.9,3.1,3.2,5.4,3.6l6.5,1.3q0,.1.1.1Z"/>
          </g>
          <path class="cls-9" d="M793.1,519.7h-.6c-23.7-.6-47.2-4.3-70-11.2-11.5-3.4-25.4-8.4-26.7-12.6-1.6-5,2.4-25.4,4-30.7.3-.9,1.3-1.4,2.2-1.1s1.4,1.3,1.1,2.2c-1.8,5.8-5.2,24.9-4,28.6.7,1.7,10,6,24.4,10.3,22.5,6.7,45.7,10.4,69.1,11,2,0,7.9-.2,11.2-.4.9,0,1.7-.6,2.1-1.5,2.2-5.9,5.6-16.7,7.4-25,.2-.9,1.1-1.5,2-1.3s1.5,1.1,1.3,2c-1.8,8.5-5.2,19.4-7.5,25.5-.8,2.2-2.8,3.6-5.1,3.7-3.8.3-8.6.5-10.9.5Z"/>
          <path class="cls-9" d="M845.3,614.4c-1.3,0-2.3-1-2.3-2.3v-167.4c0-1.2,1-2.3,2.2-2.3l26.1-.6c.6,0,1.2.2,1.6.6.4.4.7,1,.7,1.6l1.4,167.5c0,1.3-1,2.3-2.3,2.3h0c-1.3,0-2.3-1-2.3-2.3l-1.4-165.2-21.6.5v165.2c.2,1.4-.9,2.4-2.1,2.4Z"/>
          <g>
            <path class="cls-10" d="M834.7,436.6c.5,7.4,11.1,11.1,11.1,11.1l.4,9.4s11.1,2.6,14.9-.9,6.8-7.2,6.8-7.2l-2.4-15.9s-19.2-8.4-23.5-9.9"/>
            <path class="cls-9" d="M854,460.5c-3.8,0-7.3-.7-8.4-1l-1.9-.4-.4-9.6c-3.3-1.5-10.6-5.5-11.1-12.6-.1-1.4,1-2.6,2.3-2.7,1.4-.1,2.6.9,2.7,2.3.4,5.6,9.3,8.8,9.4,8.8l1.6.6.4,9.1c3.9.7,9.1.8,10.8-.6,2.6-2.3,4.8-4.8,5.8-6.1l-2-13.4c-4.4-1.9-18.5-8-22.1-9.3-1.3-.5-2-1.9-1.5-3.2.5-1.3,1.9-2,3.2-1.5,4.3,1.5,22.9,9.6,23.7,10l1.3.6,2.7,18.3-.7.9c-.1.2-3.2,4-7.1,7.6-2.1,1.7-5.5,2.2-8.7,2.2Z"/>
          </g>
          <g>
            <path class="cls-10" d="M791.1,759c-3.9-.5-23.8-11.6-24.9-12.6-1.3-1.2-1.7-3.2-2.6-4.7-1.5.3-7.5,1.8-8.6,3.1-1.4,1.8-2.5,7.6-7.6,9.1s-24.7,1.5-24.7,1.5c0,0-2,3.5-1.6,12.6s3,13.7,3,13.7c0,0,7.6.8,19.5.5,1,0,8.8-.5,9.8-.5,13.2.1,22.2.8,33.4,1,7.7.1,15.1-2.9,21.6-6.8,2.7-1.6,9.7-5.2,5.8-10.9-1.2-2-8.1-4.2-23.1-6Z"/>
            <path class="cls-9" d="M787.3,785.2h-.4c-5.1-.1-9.7-.2-14.5-.4-5.7-.2-11.7-.5-18.8-.5h0c-.6,0-3.8.2-5.9.3-1.8.1-3.4.2-3.8.2-11.9.3-19.5-.5-19.8-.5-.8-.1-1.5-.5-1.9-1.2-.1-.2-3-5.2-3.4-14.9-.4-9.6,1.7-13.6,1.9-14,.4-.8,1.3-1.3,2.2-1.3h0c5.4,0,20.1-.2,23.9-1.4,2.6-.8,3.8-3.4,4.9-5.6.5-1.1.9-2,1.5-2.7,2-2.4,10-4,10.1-4,1-.2,2.1.3,2.6,1.2.4.7.7,1.4,1,2.1.3.8.7,1.6,1.1,2,2.1,1.5,20.5,11.6,23.5,12,22,2.7,24.1,5.9,25,7.1,1.4,2.1,1.9,4.2,1.4,6.3-.9,4.1-5.2,6.6-7.6,7.9l-.5.3c-8.2,4.8-15.5,7.1-22.5,7.1ZM753.5,779.2h0c7.3.1,13.3.3,19,.5,4.8.2,9.4.4,14.4.4h.3c6.1,0,12.6-2.1,19.9-6.4l.5-.3c1.7-1,4.7-2.7,5.2-4.7.1-.3.2-1-.7-2.3-.1-.1-2.5-2.6-21.4-5h0c-4.7-.6-25.1-12.1-26.2-13.2-1.2-1.1-1.8-2.4-2.3-3.7-2.1.5-4.6,1.4-5.3,1.9-.2.3-.5,1-.8,1.6-1.2,2.6-3.2,6.9-8,8.3-4.5,1.4-18.5,1.5-23.6,1.6-.5,1.6-1.1,4.8-.8,10,.2,5.8,1.5,9.7,2.2,11.4,2.7.2,9.1.6,17.8.4.4,0,1.9-.1,3.6-.2,3.3-.2,5.5-.3,6.2-.3ZM756.9,746.5h0Z"/>
          </g>
          <g>
            <path class="cls-10" d="M645.6,754.9l-1.4,4.6c-.4,1.4.4,3,1.8,3.4,5.2,1.6,16.7,5,20.9,5.5,2.6.3,4.5.6,6.9.1,3.3-.7,17.7,1.8,17.7,1.8,3,.3,7.4.6,10.4-.3,3.1-.9,10.6-4.2,10.3-8.4,0-.4-.3-1.1-.6-1.7-.6-1.4-1.6-2.5-2.9-3.4-2.3-1.6-6.4-4.1-7.9-5.1-8.8-5.6-12.8-14.3-12.9-14.7-4.6,3.6-11.4,9.3-22.1,6.2-5.4-1.5-14.5-4.2-14.5-4.2,0,0-5.9,13.8-6,17.8"/>
            <path class="cls-9" d="M696.7,773.1c-1.6,0-3.4-.1-5.3-.3h-.2c-6.7-1.2-15-2.2-16.7-1.8-2.5.5-4.6.3-6.8.1l-.9-.1c-4.3-.4-15.3-3.7-21.4-5.6-2.8-.9-4.3-3.8-3.5-6.6l1.4-4.6c.1-.2.1-.3.2-.5,1.3-5.3,4.9-14,5.8-15.9.5-1.2,1.8-1.8,3-1.4,0,0,9,2.6,14.5,4.2,9.1,2.6,15.1-2,19.4-5.4l.4-.3c.7-.5,1.7-.7,2.5-.4.7.3,1.2.9,1.5,1.6.2.6,3.9,8.3,11.8,13.3l.3.2c1.8,1.1,5.4,3.4,7.6,4.9,1.6,1.1,3,2.6,3.8,4.4.5,1.2.8,2,.8,2.6.5,7.3-11.6,10.9-12.1,11-1.7.3-3.7.6-6.1.6ZM692,767.8c4.2.4,7.4.3,9.4-.2,3.9-1.1,8.5-3.9,8.5-5.7,0-.1-.1-.4-.4-1-.4-.9-1.1-1.7-2-2.3-2.2-1.4-5.8-3.7-7.5-4.8l-.3-.2c-6.2-3.9-10.3-9.4-12.4-13-4.7,3.5-11.9,7.7-21.9,4.8-3.8-1.1-9.3-2.7-12.3-3.6-2.2,5.3-4.9,12.6-5,14.8,0,.7-.3,1.3-.8,1.7l-.6,1.9c0,.1,0,.2.1.3,10,3.1,17.7,5.1,20.5,5.4l1,.1c2,.2,3.5.4,5.2,0,3.4-.7,15.8,1.3,18.5,1.8ZM690.5,736.3h0ZM690.5,736.3h0Z"/>
          </g>
          <path class="cls-9" d="M787.6,778.7h-2.2c-1.5,0-4.5-.2-8.3-.3-11.3-.4-30.2-1.1-38.2-1.2h-.6c-3.2,0-6,0-10.2-.6-5.8-.8-6.8-2.8-6.8-3.9,0-.9.7-1.7,1.7-1.8.8,0,1.4.5,1.7,1.1.2.2,1.2.8,4,1.2,4,.6,6.7.6,9.8.6h.6c8.1.1,27,.8,38.3,1.2,3.9.1,6.9.3,8.3.3,5.4.2,9.7-.3,12.1-1.3,4.4-1.9,8.8-4.5,13.4-7.8.7-.5,1.2-1.1,1.5-1.7.4-.9,1.4-1.2,2.3-.8.9.4,1.2,1.4.8,2.3-.7,1.5-1.9,2.5-2.6,2.9-4.8,3.5-9.4,6.1-14,8.2-3.2,1.3-7.7,1.6-11.6,1.6ZM724.8,772.5h0ZM724.8,772.5h0ZM724.8,772.5h0Z"/>
          <path class="cls-9" d="M703.3,769.1c-10.8,0-41-5.6-44.6-6.8-4.1-1.3-13.6-4.2-13.7-4.2-.9-.3-1.4-1.2-1.1-2.1.3-.9,1.2-1.4,2.1-1.1.1,0,9.6,2.9,13.7,4.2,2.2.7,12.5,2.7,23.2,4.3,19.3,3,22.1,2.2,22.4,2.2.9-.3,1.9.1,2.2,1s-.1,1.9-.9,2.2c-.7.2-1.8.3-3.3.3Z"/>
        </g>
      </g>
      <path class="cls-11" d="M721.1,254.8c.7,9.3,4.5,18.8,6.9,24.1,1.2,2.5,8.4,5.5,11.2,5.3l18.3-3.4s6.4-7.2,8.4-11.7c1.9-4.2,3.8-8.5,4.5-13.2,1-6.6-.8-13.7-4.6-18.9-2.9-4-6.8-6.6-11-7.9l-.3,1.1c2.4,3.8,1.8,9.6-1.5,12.5-2.5,2.1-5.8,2.6-8.9,2.7-2.3.1-6.1.9-8.4.8-1.6-.1-5.5-1.3-6.7-2.4-1.7-1.5-2-6-2-6-1.3,1.1-3.7,6.5-4.1,7.6-1.3,3-1.8,6.2-1.8,9.4Z"/>
      <path class="cls-9" d="M737.4,247.2c-1.3,0-2.5,0-3.8-.1-1.9-.1-4.2-.3-5.9-1.7-2.3-1.8-3.1-5.3-2.1-8.5.7-2.2,2.2-4.1,3.6-5.7l-.4-.7,1.6-.8c7.2-3.7,15.5-4.6,23-2.5l1.7.5-.6,2c2.7,4.5,1.8,10.9-2.3,14.2-3.1,2.5-7.1,3-10.7,3.2-1.4.1-2.8.1-4.1.1ZM732.6,232.4l-.1.1c-1.5,1.7-3,3.4-3.7,5.4-.5,1.6-.4,3.7.9,4.7h0c1,.8,2.6.9,4,1,2.5.1,5,.1,7.5,0,3-.2,6.4-.6,8.7-2.5,2.8-2.3,3.4-7.2,1.2-10.2l-.5-.7v-.2c-5.8-1.1-12.3-.3-18,2.4Z"/>
      <path class="cls-9" d="M736.1,285.5c-5.8,0-11.4-.9-12.9-3.2-1.4-2-2-4.3-2.7-6.5-.5-1.7-1-3.3-1.5-5-.5-1.5-.9-2.9-1.4-4.4-.3-.9.2-1.9,1.2-2.1.9-.3,1.9.2,2.1,1.2.4,1.5.9,2.9,1.4,4.3.5,1.7,1.1,3.4,1.6,5.1.6,2.1,1.1,4,2.2,5.5.5.6,5.1,2.2,14.2,1.5,5.3-.4,13.9-2.3,15.2-2.8h.1c3.7-2,5.9-6.2,8.1-11,.7-1.6,1.8-4.4,2.6-6.4l.4-1c.3-.9,1.3-1.3,2.2-1s1.3,1.3,1,2.2l-.4,1c-.8,2.1-1.9,4.9-2.7,6.6-1.9,4.2-4.5,9.9-9.6,12.6h0c-1.9,1-11.6,2.9-16.7,3.3-1.5,0-2.9.1-4.4.1ZM755.3,279.1h0Z"/>
      <path class="cls-9" d="M815,484.8c-1.9,0-3.6-1.3-3.9-3.3l-7.1-39.2c-.4-2.2,1-4.2,3.2-4.6s4.2,1,4.6,3.2l7.1,39.2c.4,2.2-1,4.2-3.2,4.6-.2.1-.5.1-.7.1Z"/>
      <path class="cls-9" d="M719.5,271c-1.1,0-2.1-.7-2.4-1.7-1.4-4.3-2.7-8.9-2.7-13.5-.1-3.4.5-6.9,1.7-10.2,1-2.9,2.2-5.9,4.2-8.3.8-.9,1.6-1.7,2.4-2.5l.4-.4c1.7-1.6,3.8-3.2,6.6-4.7,3.6-2,7.5-2.8,10.9-3.3,2.4-.4,4.8-.5,7.2-.3,1.2.1,2.5.2,3.7.5,6.4,1.2,12.1,4.4,16,9.2.8.9,2.1,2.9,2.2,3.1,0,.1.1.1.1.2,2.9,5.2,4,11.2,3.2,16.9-.3,2.2-1,4.2-1.6,5.9-.5,1.3-1.9,2-3.2,1.5s-2-1.9-1.5-3.2c.6-1.6,1.1-3.3,1.4-5,.7-4.6-.2-9.5-2.5-13.6l-.1-.1c-.2-.2-1.2-1.8-1.7-2.4-3.2-3.8-7.8-6.5-13.1-7.4-1-.2-2-.3-3.1-.4-2-.1-4,0-6.1.3-3.7.6-6.6,1.2-9.2,2.7-2.4,1.3-4.2,2.6-5.5,3.9l-.4.4c-.7.7-1.4,1.3-1.9,2-1.5,1.8-2.4,4.3-3.3,6.8-1,2.7-1.5,5.6-1.4,8.4.1,3.7,1,7.5,2.5,12.1.4,1.3-.3,2.7-1.6,3.2-.7-.1-1-.1-1.2-.1Z"/>
      <path class="cls-9" d="M830,445.9h-.4c-.2,0-23-3.9-38.5-6.9-15.6-3-33.5-9.3-34.2-9.6-.5-.2-.9-.4-1.2-.8-.2-.3-21.3-27.8-33.6-62.5-.3-1-.6-2-.9-2.8-.4-1.3.4-2.7,1.8-3.1,1.3-.4,2.7.4,3.1,1.8.2.8.5,1.7.8,2.5,11,31.2,29.3,56.4,32.3,60.5,3.5,1.2,19.3,6.5,32.8,9.2,13,2.5,31.1,5.7,36.7,6.6l10.4-17.3-59-28.4c-1-.5-1.6-1.6-1.4-2.7.7-4.3-3.5-36.4-5.3-46.5-1.4-8.2-6.5-20.7-14.4-30.3-1.5-1.8-9.4-7-16-5.5-1.4.3-2.7-.5-3-1.9s.5-2.7,1.9-3c8.9-2.1,18.6,4.3,21,7.2,9.1,11,14.1,24.5,15.5,32.6,1.2,6.9,5.4,36.9,5.4,46.2l60,28.9c.6.3,1.1.9,1.3,1.5.2.7.1,1.4-.3,2l-12.8,21.2c-.3.6-1.1,1.1-2,1.1Z"/>
      <path class="cls-9" d="M722,355.8c-.7,0-1.3-.5-1.4-1.2-2-19.7,4.6-36.6,17.6-45.2,1.8-1.2,5.6-2.5,7.2-2.8.7-.1,1.5.4,1.6,1.1s-.4,1.5-1.1,1.6c-1.5.3-4.8,1.5-6.2,2.4-12.1,8-18.3,23.9-16.4,42.6.1.8-.5,1.4-1.2,1.5,0,0-.1,0-.1,0Z"/>
      <path class="cls-9" d="M773.7,426.5c-.3,0-.6-.1-.8-.2-.8-.5-1.1-1.5-.7-2.3.6-1.1.4-2.8-.6-4.5-1.2-2.1-3.3-4-5.9-5.4-5.4-3-10.6-2.6-11.9-.3-.3.5-.4,1.2-.3,1.9.1.9-.6,1.8-1.5,1.9s-1.8-.6-1.9-1.5c-.2-1.5.1-2.8.7-4,2.4-4.4,9.7-4.8,16.6-1,3.1,1.7,5.7,4.1,7.2,6.7,1.7,2.9,1.9,5.7.7,7.9-.4.5-1,.8-1.6.8Z"/>
      <path class="cls-9" d="M855.1,458.4c-.7,0-1.3-.6-1.4-1.3l-.9-13.2c0-.8.5-1.4,1.3-1.5.8,0,1.4.5,1.5,1.3l.9,13.3c0,.7-.6,1.4-1.4,1.4h0Z"/>
      <path class="cls-9" d="M861.9,455c-.7,0-1.2-.5-1.4-1.1l-2.1-12.8c-.1-.7.4-1.5,1.1-1.6.7-.1,1.5.4,1.6,1.1l2.1,12.8c.1.7-.4,1.5-1.1,1.6h-.2Z"/>
    </g>
    <g>
      <line class="cls-1" x1="782.5" y1="355" x2="780.2" y2="326.5"/>
      <path class="cls-9" d="M782.5,357.5c-1.3,0-2.4-1-2.5-2.3l-2.3-28.4c-.1-1.4.9-2.6,2.3-2.7,1.4-.1,2.6.9,2.7,2.3l2.3,28.4c.1,1.4-.9,2.6-2.3,2.7h-.2Z"/>
    </g>
  </g>
  <g id="Ebene_5" data-name="Ebene 5">
    <g>
      <path class="cls-10" d="M329.4,589.9l.1-150.6,2.3.1c1.3,0,2.4-1,2.4-2.2v-10.4c0-1.2-1.1-2.2-2.4-2.2h-58.7c-1.3,0-2.4,1-2.4,2.2v10.4c0,1.2,1.1,2.2,2.4,2.2l1.8-.2.1,150.6-67.8.9c-11.8,0-23.1,10.8-23.1,22v178c0,8.7,5.9,16.1,14,19-22.3,3.9-36.2,9.4-36.2,15.4,0,12,54.3,21.6,121.2,21.6,11.8,0,23.2-.3,34-.9l26-255.8-13.7-.1ZM324.2,589.5h-43.9v-149.9h43.9v149.9h0Z"/>
      <path class="cls-10" d="M283,852.1c-32.6,0-63.3-2.3-86.5-6.4-18.6-3.3-40-8.7-40-20.7,0-9.4,13.3-14.8,28.1-18.2-3.8-4.5-6-10.1-6-16.1v-178c0-14.1,13.9-27.4,28.5-27.4l62.4-.8-.1-140.4c-2.5-1.3-4.2-3.9-4.2-6.8v-10.4c0-4.2,3.5-7.7,7.8-7.7h58.7c4.3,0,7.8,3.4,7.8,7.7v10.4c0,3.1-1.9,5.8-4.7,7l-.1,140.2h14.3l-27,266.5-4.7.2c-11.2.6-22.7.9-34.2.9t-.1,0ZM167.7,825.1c2,2,10.6,6.7,34.4,10.5,22.1,3.6,50.8,5.6,80.9,5.6h.1c9.7,0,19.5-.2,29-.6l24.9-245.2h-13.1v-.5h-43.5v.3l-73.2,1c-8.8,0-17.7,8.3-17.7,16.5v178c0,6.1,4.2,11.7,10.4,13.8l19.9,6.9-20.7,3.7c-23.8,4.1-30,8.5-31.4,10ZM285.8,584h33v-138.9h-33v138.9ZM280.3,434.2h43.8v-.6l4.6.2v-3.8h-52.6v3.6l4.2-.5v1.1Z"/>
    </g>
    <g>
      <path class="cls-10" d="M358.2,848.7c27.1,8.8,82,14.7,145.3,14.7,90.2,0,163.3-12.2,163.3-27.2,0-12.3-49.3-22.7-116.9-26-6.8-3.5-11.1-7.8-14.1-10.8-8.8-8.9-10.7-26.6-9.8-36.6l.7-8.2c3.9.3,11,2.3,14.5,2.4,24.7-159,27.6-267.6,26.7-329.7-.5-31.8-7.4-55.3-8.4-64l-2.3-6.9c-2-16.3-7.7-15.4-7.7-15.4,10.2,5.3,42.8-1.2,37.4-33.3l-7-23.4c-1.2-6.7-2.6-13.3-4.2-19.6,0-.3.1-.5.1-.8.4-3.5,3.2-7.7.5-13.3-.8-1.7-2.7-2.5-5.3-2.7-.6-1.8-1.1-3.5-1.7-5.3l.2-.4c.8-1.7,1.1-3.3-.5-3.9-5.2-14.1-15.4-34.8-21.7-40.4-4.7-4.1-10.7-7.8-20.4-12.2-9.5-4.3-53.3-16.8-53.3-16.8l-.2-8c8.1-4.6,13.1-12.3,14.9-25.5.8-6.1,0-12.2,0-12.2l8.2-14.8s-.3-2.4-1.2-6.3c-1.5-6.5-4.6-17.3-10.5-27.5-3.4-6-7.7-11.8-13.2-16.7-.8-.7-1.9-1.5-3.4-2.4-6.1-4.4-20.4-9-26.9-8.8-10.4.3-17.2,7.4-17.2,7.4,0,0-.3,0-.7.1l-1.9.8c-3.2,1-8.9,3.4-12.6,8.6-17.4,24.8-13,47.8-13,47.8,0,0,.1.2.3.4v.1s2.9,4.4,6.3,9h0c.2.3.4.6.6.8-.4-.1-.7-.1-.7-.1,0,0-1.6,1.3-3,3.1-.4.5-.8,1.1-1.2,1.7-1.4,2.6-2.7,7.5-2.7,7.5,2.3,6.5,3.9,10.6,5.1,13.4,1.4,3.1,2.2,4.6,2.8,6,.1.3.2.6.3.9.1.3.4.9.7,1.6,1.4,2.9,4.4,8.5,7.2,13.5,2,3.6,3.8,6.8,4.8,8.6-7.6,2-18.2,5.8-28.8,12.9l-3,1.9c-6.2,4.1-31,43.3-37.4,53.8-10.2,16.8-13.4,23.3-11.4,38,1.2,8.8,3.7,16.7,10.4,19.9,1,.5,2.2.8,3.4,1.1,1.2.4,2.4.5,3.9.5,6.2.2,13.7-1.7,20.8-5.4,6.5-2,22.4-20.2,24.6-22.7v.6c-.8,3.6.8,6.4,2.7,10.2.9,2.2-2.4,6.2-1.5,8.3,1,2.9.1,3.6.5,8.1-.7,10.2-4.1,25.9-9.1,51.8-4,20.5-12.8,55.7-13.5,80.2-1.5,52.2,7.5,120.8,16.8,173.6-2.1-.8,27.4,135.5,27.4,135.5"/>
      <path class="cls-10" d="M503.3,871.5c-62.2,0-118.7-5.8-147.5-15.1-4.2-1.4-6.5-5.9-5.2-10.1,1.4-4.2,5.9-6.5,10.1-5.2,27.4,8.8,82,14.3,142.6,14.3h.2c39.9,0,78.2-2.4,107.8-6.9,31.4-4.7,42.5-9.9,46.1-12.4-7.8-5.3-39.8-14.6-108-18l-1.7-.1-1.5-.8c-7.8-4-12.7-8.9-16-12.2l-.2-.2c-11.4-11.6-13-32.4-12.2-42.9l1.4-16.1,7.9.6c2.1.2,4.6.6,7.2,1.2,18.2-119.5,26.8-227.2,25.3-320.4-.4-22.7-4-40.8-6.4-52.8-.8-3.9-1.4-7-1.8-9.5l-2.3-6.9-.1-.8c-.6-5.1-1.6-7.6-2.1-8.6-.5-.2-.9-.4-1.3-.6l-21.6-11.1,24-3.9c1.1-.2,3.8-.4,6.8,1.3,3.8.6,11.1,0,17-4.3,6.1-4.4,8.4-11.4,7-20.6l-7-23.3-.1-.4c-1.2-6.5-2.6-12.9-4.1-19.1l-.4-1.5.2-1.5v-.6c.2-1.7.6-3.2,1-4.5s.6-2.1.6-2.8l-4.5-.4-1.6-5.1c-.6-1.9-1.1-3.6-1.7-5.1l-1.1-3.1.6-1.3c-5.5-14.8-15-33-19.4-36.8-4.3-3.7-9.8-7-18.4-10.9-7.4-3.3-40.2-12.9-52.2-16.3l-5.7-1.6-.4-18.7,4.2-2.4c4.2-2.3,9.2-6.7,10.9-19.6.7-4.9,0-10,0-10l-.4-2.6,8.1-14.7c-.2-.8-.4-1.9-.6-3-1.2-5.3-4-15.6-9.6-25.3-3.3-5.9-7.2-10.8-11.5-14.6-.1-.1-.7-.6-2.3-1.6l-.5-.4c-4.9-3.5-17.4-7.4-21.9-7.3-6.9.2-11.7,4.9-11.7,5l-1.8,1.8-2.8.5-1.4.4c-2.2.7-6,2.3-8.3,5.5-12.9,18.3-12.4,35.1-11.9,40.2l.2.2v.2c.7,1,1.7,2.5,2.9,4.2l2.3,3.2c.2.3.5.6.7,1l10.7,15-14.4-1.9-1.3,1.9c-.2.5-.4,1.1-.6,1.7,1.5,4.2,2.8,7.7,4,10.4.7,1.6,1.2,2.7,1.7,3.7.4.9.8,1.6,1.1,2.3.2.4.3.8.5,1.2v.1c.1.2.2.5.4.8,1.4,2.9,4.7,8.9,7,13.1,2,3.5,3.8,6.8,4.8,8.6l5.1,9-10,2.6c-6.6,1.7-16.5,5.2-26.4,11.8l-.2.1-2.8,1.8c-4.6,3.8-24.1,33.2-35.1,51.4-10.1,16.6-11.9,20.9-10.3,32.7,1.1,8,3,12.4,5.8,13.7.4.2,1,.4,1.7.5l.8.2c.3.1.7.1,1.1.1h.6c4.9.2,11-1.5,16.9-4.5l.6-.3.6-.2c2.6-1.1,11.1-9,20.9-20.3l15.5-17.9-1.4,23.3v1.3l-.2.9c-.1.5.6,2,1.7,4.1l.6,1.2c1.7,4.1.2,7.9-.6,10.2,0,.1-.1.2-.1.4.6,2.3.5,4,.4,5.4,0,.9-.1,1.7,0,3v1.2c-.7,9.2-3.3,22.3-7.2,42.1-.7,3.4-1.4,6.9-2.1,10.7-.9,4.5-2,9.7-3.2,15.3-4.3,20.1-9.6,45.1-10.1,63.6-1.6,57.5,9.7,132.4,16.6,172l2.4,13.5-.4-.1c4.7,25.1,17.1,83.4,25.4,121.8.9,4.3-1.8,8.6-6.1,9.5-4.3.9-8.6-1.8-9.5-6.1-.1-.3-7.4-33.9-14.3-67.3-4.1-19.6-7.3-35.3-9.5-46.6-1.3-6.8-2.3-12.1-2.9-15.7-.5-3-.9-5.4-.9-7.4-7-40.5-18.3-115.7-16.7-174,.6-20,6.1-45.8,10.5-66.5,1.2-5.5,2.3-10.6,3.1-15,.7-3.8,1.4-7.3,2.1-10.7,3.7-18.8,6.2-31.3,6.9-39.6-.1-2-.1-3.5,0-4.5v-.9c-.3-.9-.5-1.8-.6-2.7-6,5.8-10.8,9.5-14.5,10.9-8.1,4.1-16.6,6.2-24,6-2.2.1-4.1-.2-6-.7-1.7-.4-3.3-.9-4.7-1.6-12.1-5.6-14.2-20.4-15-26-2.5-17.7,2.3-26.5,12.5-43.2.3-.5,30.6-50.2,39.8-56.3l.2-.1,3-1.9c7.5-5,14.9-8.4,21.4-10.8v-.1c-3.9-7.1-6.2-11.4-7.4-13.8-.5-1.1-.8-1.8-1.1-2.4,0-.1-.1-.2-.1-.3v-.1c-.2-.5-.5-1-.8-1.7-.5-1-1.1-2.4-1.9-4.2-1.6-3.7-3.3-8.3-5.3-14l-.8-2.3.6-2.4c.3-1,1.6-6,3.3-9.2l.1-.1c.4-.7.8-1.3,1.2-1.9-1.7-2.5-2.9-4.3-3-4.4l-1.3-2v-.6l-.2-.8c-.2-1.1-4.9-26.7,14.3-53.9,5.1-7.2,12.7-10.4,16.8-11.7l.9-.3c3.3-2.8,10.7-7.7,20.8-8.1,8.3-.3,24,4.8,31.6,10.1,1.8,1.1,3.2,2.1,4.2,3,5.7,5,10.7,11.3,14.9,18.8,6.3,10.9,9.6,22.1,11.3,29.7.9,4.1,1.3,6.7,1.3,7l.3,2.6-8.3,14.9c.2,2.7.3,7.1-.3,11.5-1.6,11.9-5.8,20.8-12.7,27,13.4,3.9,39,11.5,46.6,14.9,10.2,4.6,16.8,8.6,22.4,13.5,8.3,7.3,18.6,29.7,23.1,41.4.7.8,1.3,1.7,1.7,2.7.8,1.9.9,3.8.7,5.4,3,1.5,4.6,3.6,5.6,5.5,3.3,6.8,1.7,12.5.7,15.9-.1.4-.3.9-.4,1.3,1.4,5.9,2.7,12,3.8,18.1l7.1,23.4.1.5c3.5,20.9-6.8,32-13.2,36.7-5.3,3.9-11.4,6.2-17.3,7.1.3,1.4.5,2.9.8,4.5l2.3,6.9.1.8c.2,1.9.9,5.1,1.7,9.1,2.4,11.8,6.4,31.5,6.8,55.7,1.5,96.1-7.5,207.5-26.7,331.1l-1.1,7-7.1-.2c-2-.1-4.5-.5-7-1-.6,8.7,1.3,23.4,7.6,29.8l.1.1c2.6,2.6,5.8,5.8,10.5,8.4,33.2,1.7,62,5,83.3,9.7,27.2,6,39.4,13.4,39.4,24.2,0,8.4-6.2,19.1-54.5,27.1-31.3,5.2-72.7,8.1-116.8,8.1.2.1.1.1.1.1ZM411.4,151.7h0c0,.1,0,0,0,0Z"/>
    </g>
    <g>
      <path class="cls-10" d="M477.2,179.1l.2.4-.2.3v-.7Z"/>
      <path class="cls-10" d="M474.4,188.9v-20.6l5.2,9.5c.3.6.5,1,.5,1.7v.9l-5.7,8.5ZM474.6,179.5h1.9-1.9Z"/>
    </g>
    <path class="cls-10" d="M476.8,158.1l19.2-50s-4.2-32.1-24.5-49.9c-4.1-3.5-19.1-10.4-30.3-10.4-10.4,0-17.1,6.6-17.1,6.6,0,0-9.7,1.6-15.1,9.2-17.4,24.8-13,47.8-13,47.8,0,0,41.5,52.4,45,53.2"/>
    <ellipse class="cls-2" cx="500.3" cy="831.6" rx="163.3" ry="27.2"/>
    <g>
      <polyline class="cls-10" points="480.1 179.6 479.2 152.9 428.6 157 426.8 189"/>
      <path class="cls-9" d="M474.9,184.7c-1.1,0-2.1-.7-2.3-1.8,0-.1-.7-2.6-1.9-9.5-1.3-7-1.2-12.8-1.2-13.1,0-1.3,1.1-2.3,2.4-2.3h.1c1.3,0,2.4,1.1,2.3,2.5,0,.1-.1,5.6,1.1,12.1,1.2,6.7,1.9,9.2,1.9,9.2.3,1.3-.5,2.6-1.7,2.9-.4,0-.6,0-.7,0Z"/>
      <path class="cls-9" d="M422.7,107c-.2,0-.5,0-.7-.1-.9-.4-1.3-1.4-1-2.3.2-.5,4.7-11.2,15.6-13.1,1-.2,1.9.5,2.1,1.4.2,1-.5,1.9-1.4,2.1-8.9,1.6-12.9,10.9-13,11-.3.5-.9,1-1.6,1Z"/>
      <path class="cls-9" d="M422.7,106.8c-.2,0-.4,0-.6-.1-.8-.3-1.2-1.3-.9-2.1.2-.5,4.7-11.1,15.5-13,.9-.2,1.7.4,1.9,1.3.2.9-.4,1.7-1.3,1.9-9,1.6-13.1,11-13.1,11.1-.3.5-.9.9-1.5.9Z"/>
      <path class="cls-9" d="M486.1,96.5c-2.8,0-8.2-1.4-13.7-10.5-8.9-14.6-24.6-15.8-24.8-15.8-.5,0-.9-.5-.8-1,0-.5.5-.9,1-.8.7,0,16.8,1.2,26.2,16.7,7,11.6,13.4,9.5,13.5,9.5.5-.2,1,.1,1.1.6.2.5-.1,1-.6,1.1-.1,0-.8.2-1.9.2Z"/>
      <path class="cls-9" d="M441.8,112.4c.7,1.4.5,3-.6,3.5-1,.5-2.5-.1-3.2-1.5s-.5-3,.6-3.5c1-.6,2.5.1,3.2,1.5"/>
      <path class="cls-9" d="M473.8,101.9c.7,1.4.5,3-.6,3.5-1,.5-2.5-.1-3.2-1.5s-.5-3,.6-3.5c1.1-.6,2.5.1,3.2,1.5"/>
      <path class="cls-9" d="M433.8,118.1c-.6,0-1.2-.4-1.2-1.1,0-.2-.2-2.1,1.1-4.5,1.5-2.7,4.8-4.8,8.2-3.5.6.2,1,1,.7,1.6s-1,1-1.6.7c-2.1-.8-4.1.6-5.1,2.3-.9,1.7-.8,2.9-.8,2.9.1.7-.4,1.3-1.1,1.4-.1.2-.2.2-.2.2Z"/>
      <path class="cls-9" d="M466.5,107.6s-.1,0,0,0c-.7,0-1.3-.6-1.3-1.3.1-2.7,1.7-7.9,7.6-8,.7,0,1.3.5,1.3,1.2s-.5,1.3-1.2,1.3c-4.9.1-5.1,5-5.2,5.6,0,.6-.6,1.2-1.2,1.2Z"/>
    </g>
    <path class="cls-9" d="M458.5,90.2c-.5,0-.9-.2-1.3-.5-.7-.7-.7-1.8,0-2.5.3-.3,6.3-6.1,18.9-1,.9.4,1.3,1.4,1,2.3-.4.9-1.4,1.3-2.3,1-10.3-4.1-14.9.1-15.1.3-.3.2-.8.4-1.2.4Z"/>
    <path class="cls-9" d="M458.5,90c-.4,0-.8-.2-1.1-.5-.6-.6-.6-1.6,0-2.2.2-.2,6.3-6,18.7-1,.8.3,1.2,1.3.9,2.1-.3.8-1.3,1.2-2.1.9-10.4-4.2-15.1.1-15.3.3-.3.3-.7.4-1.1.4Z"/>
    <g>
      <path class="cls-9" d="M496.3,108.7l-7.7,14.2h-.2c-1.8-8.8-9.2-26.8-14.8-33.6-5.4-6.7-11.4-12.7-16-15.3-4.9-2.8-14-1.9-21.9-.3s-14.5,3.8-14.5,3.8c-9.4,8.3-10.6,27.9-7.1,39.3,2.1,6.9,5.8,13.8,5.8,13.8l-2.8-2.6h0s.1-1-1.5-2.8c-1.3-1.6-2.3-2.2-3.9-2.8l.5-.4c-2-2.7-4-5.3-5.6-7.3-3.4-4.3-8.3-.8-5,3.4.5.6,1.1,1.3,1.7,2.2l-.1.7c-.4-.1-.7-.1-.7-.1l-.1.1c-3.4-4.6-6.3-9-6.3-9,0,0-3.6-28.1,13-47.8,6-7.2,15.1-9.2,15.1-9.2,22.4-12.7,43.4.3,47.4,3.8,14.8,12.9,21,33.4,23.4,43.6.9,3.9,1.3,6.3,1.3,6.3Z"/>
      <path class="cls-9" d="M425.1,137.3l-9-8.5-.4-.5.1-.3c0-.2-.3-.9-1.2-1.9-1.1-1.3-1.9-1.9-3.4-2.4l-2.3-.9,1.4-1c-2-2.6-3.6-4.7-4.8-6.2-1.2-1.5-2.5-1.7-3.2-1.2-.7.6-.5,1.7.4,2.9l2.1,2.6-.3,2.6-1.4-.2h-.1l-.8.7-.9-1.2c-3.4-4.6-6.3-9-6.3-9.1l-.2-.3v-.3c-.2-1.2-3.5-28.9,13.3-48.8,5.8-6.9,14.2-9.3,15.6-9.6,21.9-12.3,43.1-.9,48.8,4.1,14.9,13,21.3,33.4,23.8,44.3.9,3.9,1.2,6.3,1.2,6.4l.1.4-8.2,15.2-2.1.4-.3-1.3c-1.8-8.9-9.2-26.5-14.5-33-5.9-7.2-11.6-12.7-15.6-14.9-3.7-2.1-11-2.1-20.9-.2-6.8,1.4-12.8,3.3-14.1,3.7-6.7,6.2-11,23.1-6.5,37.7,2.1,6.7,5.7,13.5,5.7,13.5l4,7.3ZM415.8,128h0ZM413.8,121.7c.3.2.6.4.9.6-.6-1.6-1.3-3.3-1.8-5-1.9-6.1-2.4-14.1-1.4-21.4,1.2-8.5,4.3-15.3,8.8-19.3l.2-.2.3-.1c.1,0,6.8-2.3,14.7-3.9,10.8-2.2,18.4-2,22.8.4,5.9,3.3,12.8,11.2,16.4,15.6,5.1,6.2,11.6,21.2,14.2,30.9l5.9-11c-.1-.8-.5-2.9-1.1-5.7-2.4-10.6-8.6-30.4-22.9-42.9-.2-.2-21.7-17.4-45.9-3.6l-.2.1h-.2c-.1,0-8.7,2.1-14.3,8.8-15.1,17.9-13,43.4-12.7,46.4.3.4,1,1.4,1.8,2.7.2-.8.7-1.5,1.3-2,1.8-1.4,4.7-1.3,7,1.6,1.4,1.7,3.2,4.1,5.6,7.3l.6.7Z"/>
    </g>
    <path class="cls-4" d="M378.8,300.6c-21.4,6.7-27.5,8.3-35.4-1.6-5.8-7.3-2.3-32.5,8.7-47.9,7.1-10,34.1-49.7,40.2-53.8,0,0,10.3-5.2,23.1-10.5,12.8-5.3,18.5-6.4,18.5-6.4l-2.3,15.7,1.1.8c5.5,5.5,38.5,6.3,52.9.4,4.4-1.8,19.5-9.9,10.3-19.4,0,0,21.1,6.5,30.6,10.8,9.7,4.4,16.6,7.2,20.9,11.7,13.7,14.3,26,47,32.6,83.9l5.9,22.6c5.3,32.1-25.7,39.4-35.7,34.1l2.1,17.8-70.4,17.2-85.7-6.3c2.7-10.8,5-27.8,7.6-38.6,1.1-4.3,1.8-14.1,2-19.6.2-6.8.7-11.8-2-18.5-4.1-10.1-8.1-12.7-8.1-12.7,0,0,.9.3-3.3,6-3.3,4.3-8.1,12.6-13.6,14.3Z"/>
    <g>
      <g>
        <path class="cls-10" d="M352.8,592.4h-96.7c-11.1,0-20.2,9-20.2,20.2v178c0,11.1,9,20.2,20.2,20.2h92.7c11.1,0,20.2-9,20.2-20.2v-178.2c0-20.3-16.2-20-16.2-20Z"/>
        <path class="cls-10" d="M256.1,819.3c-15.9,0-28.8-12.9-28.8-28.8v-178c0-7.7,3-14.9,8.4-20.3,5.4-5.4,12.7-8.4,20.3-8.4h96.7c1.6,0,10.1.3,16.9,6.9,5.3,5.2,7.9,12.4,7.9,21.6v178.2c0,15.9-12.9,28.8-28.8,28.8h-92.6ZM352.8,601h-96.7c-3.1,0-6,1.2-8.2,3.4s-3.4,5.1-3.4,8.2v178c0,6.4,5.2,11.6,11.6,11.6h92.7c6.4,0,11.6-5.2,11.6-11.6v-178.2c0-9.6-4.7-11.2-7.5-11.3l-.1-.1h0ZM352.8,592.4h0Z"/>
      </g>
      <ellipse class="cls-2" cx="290.7" cy="826.5" rx="114.8" ry="21.6"/>
      <circle class="cls-9" cx="265.65" cy="817.47" r="12"/>
      <circle class="cls-9" cx="342.01" cy="818.16" r="11.3"/>
      <g>
        <path class="cls-10" d="M304.3,810.7h-93.4c-11,0-19.8-8.9-19.8-19.8v-178.7c0-11,8.9-19.8,19.8-19.8h93.4c11,0,19.8,8.9,19.8,19.8v178.7c.1,11-8.8,19.8-19.8,19.8Z"/>
        <path class="cls-9" d="M210.9,813.5c-6,0-11.7-2.4-16-6.6-4.3-4.3-6.6-9.9-6.6-16v-178.7c0-6,2.3-11.7,6.6-16,4.3-4.3,9.9-6.6,16-6.6h93.4c12.5,0,22.6,10.1,22.6,22.6v178.7c0,6-2.3,11.7-6.6,16s-9.9,6.6-16,6.6v-2.8,2.8h-93.4ZM304.3,595.2h-93.4c-4.6,0-8.8,1.8-12.1,5-3.2,3.2-5,7.5-5,12.1v178.7c0,4.6,1.8,8.8,5,12.1,3.2,3.2,7.5,5,12,5h93.4c4.6,0,8.8-1.8,12.1-5,3.2-3.2,5-7.5,5-12.1v-178.7c0-9.5-7.6-17.1-17-17.1Z"/>
      </g>
      <path class="cls-1" d="M326.8,810.7h-93.4c-11,0-19.8-8.9-19.8-19.8v-178.7c0-11,8.9-19.8,19.8-19.8h93.4c11,0,19.8,8.9,19.8,19.8v178.7c0,10.9-8.9,19.8-19.8,19.8Z"/>
      <g>
        <path class="cls-10" d="M352.8,592.4h-96.7c-11.1,0-20.2,9-20.2,20.2v178c0,11.1,9,20.2,20.2,20.2h92.7c11.1,0,20.2-9,20.2-20.2v-178.2c0-20.3-16.2-20-16.2-20Z"/>
        <path class="cls-9" d="M256.1,813.5c-12.7,0-23-10.3-23-23v-178c0-6.1,2.4-11.9,6.7-16.2s10.1-6.7,16.2-6.7h96.7c.7,0,7.5.1,12.8,5.3,4.1,4,6.2,9.9,6.2,17.4v178.2c0,12.7-10.3,23-23,23h-92.6ZM352.8,595.2h-96.7c-4.6,0-9,1.8-12.3,5.1s-5.1,7.7-5.1,12.3v178c0,9.6,7.8,17.4,17.4,17.4h92.7c9.6,0,17.4-7.8,17.4-17.4v-178.2c0-6-1.5-10.5-4.5-13.4-3.7-3.8-8.7-3.8-8.9-3.8ZM352.8,592.4h0Z"/>
      </g>
      <path class="cls-7" d="M368.3,622.2c0-20.3-6.3-19.5-6.3-19.5h-141.9c-11,0-19.8,8.9-19.8,19.8v178.7c0,11,2.9,10.6,13.9,10.6l134.8-1.1c11.1,0,20.6-6,20.6-17.1-.2-.1-1.3-151.1-1.3-171.4Z"/>
      <path class="cls-9" d="M210.9,813.5c-6,0-11.7-2.4-16-6.6-4.3-4.3-6.6-9.9-6.6-16v-178.7c0-6,2.4-11.7,6.6-16,4.3-4.3,9.9-6.6,16-6.6h93.4c1.5,0,2.8,1.2,2.8,2.8,0,1.5-1.2,2.8-2.8,2.8h-93.4c-4.6,0-8.8,1.8-12.1,5-3.2,3.2-5,7.5-5,12.1v178.7c0,4.6,1.8,8.8,5,12.1,3.2,3.2,7.5,5,12,5h93.4c1.5,0,2.8,1.2,2.8,2.8,0,1.5-1.2,2.8-2.8,2.8l-93.3-.2h0Z"/>
      <path class="cls-9" d="M213.5,764.8c-.9,0-1.7-.8-1.7-1.7v-150.8c0-5.8,2.2-11.2,6.3-15.2s9.5-6.3,15.2-6.3h78.2c.9,0,1.7.8,1.7,1.7s-.8,1.7-1.7,1.7h-78.2c-10,0-18.1,8.1-18.1,18.1v150.8c0,.9-.8,1.7-1.7,1.7Z"/>
      <path class="cls-9" d="M256.1,813.5c-12.7,0-23-10.3-23-23v-178c0-6.1,2.4-11.9,6.7-16.2s10.1-6.7,16.2-6.7h96.7c.7,0,7.5.1,12.8,5.3,4.1,4,6.2,9.9,6.2,17.4v178.2c0,12.7-10.3,23-23,23h-92.6ZM352.8,595.2h-96.7c-4.6,0-9,1.8-12.3,5.1s-5.1,7.7-5.1,12.3v178c0,9.6,7.8,17.4,17.4,17.4h92.7c9.6,0,17.4-7.8,17.4-17.4v-178.2c0-6-1.5-10.5-4.5-13.4-3.7-3.8-8.7-3.8-8.9-3.8ZM352.8,592.4h0Z"/>
      <path class="cls-9" d="M326.7,595.4c-1.6,0-2.9-1.3-2.9-2.9v-159.1h-43.2v157.6c0,1.6-1.3,2.9-2.9,2.9s-2.9-1.3-2.9-2.9v-160.4c0-.8.3-1.5.8-2s1.3-.8,2-.8h48.9c1.6,0,2.9,1.3,2.9,2.9v161.9c.1,1.5-1.1,2.8-2.7,2.8Z"/>
      <path class="cls-9" d="M332.7,439.4h-60.2c-1.2,0-2.2-1-2.2-2.2v-10.5c0-1.2,1-2.2,2.2-2.2h60.2c1.2,0,2.2,1,2.2,2.2v10.5c0,1.2-.9,2.2-2.2,2.2Z"/>
    </g>
    <path class="cls-10" d="M474.3,760.7c2.2,10.5,5.2,24.9,7.1,33.9,3.7,18.4,7,24.7,7.2,25.6,1.2,4.2,6.3,10-9.4,9.4-6.7-.3-46.6-.4-46.6-.4,0,0-1.8-4.8.3-10.7,2.2-5.7,6.7-7.1,9.4-8.6,10.9-6.2,8.9-18.7,4.5-32.8-.7-2.2-2.9-9.8-5.7-19.7"/>
    <path class="cls-9" d="M481.7,797.9c.3.1.8.3,1.2.3"/>
    <path class="cls-9" d="M439,126.8c-6.9,0-12.6-5.6-12.6-12.6s5.6-12.6,12.6-12.6,12.6,5.6,12.6,12.6-5.7,12.6-12.6,12.6ZM439,105.1c-5,0-9.2,4.1-9.2,9.2s4.1,9.2,9.2,9.2,9.2-4.1,9.2-9.2-4.2-9.2-9.2-9.2Z"/>
    <path class="cls-9" d="M472,116.2c-6.9,0-12.6-5.6-12.6-12.6s5.6-12.6,12.6-12.6,12.6,5.6,12.6,12.6-5.7,12.6-12.6,12.6ZM472,94.4c-5,0-9.2,4.1-9.2,9.2s4.1,9.2,9.2,9.2,9.2-4.1,9.2-9.2-4.2-9.2-9.2-9.2Z"/>
    <path class="cls-9" d="M411.1,120.9c-.8,0-1.5-.5-1.7-1.3-.2-.9.3-1.9,1.2-2.1l16.3-4.3c.9-.2,1.9.3,2.1,1.2s-.3,1.9-1.2,2.1l-16.3,4.3c-.1.1-.3.1-.4.1Z"/>
    <path class="cls-9" d="M447.3,109.1c-.6,0-1.1-.3-1.5-.8-.5-.8-.3-1.9.5-2.4,1-.6,9.5-5.9,15-3.4.9.4,1.3,1.4.9,2.3s-1.4,1.2-2.3.9c-3.3-1.5-9.7,1.9-11.7,3.1-.3.2-.6.3-.9.3Z"/>
    <path class="cls-9" d="M542.1,262.7c-.9,0-1.6-.6-1.7-1.5l-5.1-39.4c-.1-.9.5-1.8,1.5-1.9.9-.1,1.8.5,1.9,1.5l5.1,39.4c.1.9-.5,1.8-1.5,1.9h-.2Z"/>
    <path class="cls-9" d="M549.5,343.7c-.2,0-.5,0-.7-.1-9.2-2.4-16-7.9-19.3-15.5-3.8-8.8-2.4-20,3.8-31.4.8-1.4,2.5-1.9,3.9-1.1s1.9,2.5,1.1,3.9c-5.4,9.8-6.7,19.2-3.6,26.4,2.6,6,7.9,10.2,15.5,12.2,1.5.4,2.4,2,2,3.5-.3,1.3-1.5,2.1-2.7,2.1Z"/>
    <path class="cls-9" d="M473.9,377.9h-.3l-82-4.5.8-3.3c3.2-13,10.5-45,9.6-62.6-.2-4.1-3.4-16.9-7.3-24.2-.7-1.4-.2-3.1,1.2-3.9s3.1-.2,3.9,1.2c4.2,7.9,7.7,21.3,7.9,26.6.9,16.6-4.9,44.1-8.9,61l74.8,4.1,74.1-13.1-.8-21.9,3.7,1c.1,0,8,1.9,18-3,7.8-3.9,15.3-13.4,12.9-28.5l-5.9-22.7c-.2-.9-.3-1.7-.5-2.6-.3-1.5.7-3,2.3-3.3,1.6-.3,3,.7,3.3,2.3.2.8.3,1.7.5,2.5l5.9,22.7c3,18.3-6.3,29.9-16,34.7-7.7,3.8-14.4,4.2-18.3,3.9l.7,19.7-79.6,13.9Z"/>
    <path class="cls-9" d="M563.5,232.5c-1.1,0-2.2-.7-2.6-1.8-5.3-13-11.2-23.1-17-29.2-4-4.2-10.7-7.1-20-11.1-12.9-5.6-49.4-15.9-49.8-16-1.5-.4-2.4-2-2-3.5s2-2.4,3.5-2,37.3,10.6,50.5,16.3c9.5,4.1,17,7.4,21.8,12.4,6.3,6.6,12.6,17.4,18.2,31,.6,1.5-.1,3.1-1.6,3.7-.3.1-.7.2-1,.2Z"/>
    <path class="cls-9" d="M458.9,203.3c-12.4,0-24.3-2-27.3-5.1l-1.2-1.2,2.6-3c.6-.7,1.8-.8,2.5-.1.7.6.8,1.8.1,2.5l-.2.2c4.9,2.2,19.4,4.3,34.4,2.6,12.2-1.4,20.6-5,23.8-10.2,2-3.2,2.5-6.1,1.6-8.3-.5-1.3-1.5-2-2.2-2.2-1-.2-1.6-1.2-1.3-2.1s1.2-1.6,2.1-1.3c2,.4,3.8,2.1,4.7,4.3.8,1.9,1.6,5.9-1.8,11.5-4.9,7.9-17.1,10.8-26.4,11.9-3.7.3-7.6.5-11.4.5Z"/>
    <g>
      <path class="cls-10" d="M566.5,266.8l-23.7,3.6.3,31s1.3,6.5,8.8,10.4c5.8,3.1,20.9,2.4,20.9-16.6-2-4.7-4.5-18.3-4.4-22.8.4-8.2-1.9-5.6-1.9-5.6"/>
      <path class="cls-9" d="M557.5,315c-2.2,0-4.3-.5-6.3-1.6-8.1-4.3-9.6-11.3-9.7-11.6v-.3l-.3-32.5,24.7-3.8c.6-.4,1.4-.7,2.3-.3,1.7.7,2.3,2.8,2.1,7.6-.1,2.1.8,5.5,1.7,9.5.9,3.9,2,8.3,2.6,13.1.8,6-2.6,13-8.3,17-2.9,1.9-5.9,2.9-8.8,2.9ZM544.8,301.2c.2.9,1.7,5.9,7.9,9.1,4.9,2.6,9.3.4,11.5-1.1,4.6-3.2,7.5-9,6.9-13.7-.6-4.6-1.7-8.9-2.6-12.7-1.1-4.3-1.9-7.8-1.8-10.4.1-2,0-3.2-.1-3.8l-22.1,3.4.3,29.2ZM566.5,266.8h0Z"/>
      <path class="cls-10" d="M554.4,264.6l-42-3c-2.5-.2-3.7-2-2.8-4l8.6-18.9c.9-2.1,3.7-3.6,6.2-3.4l42,3c2.5.2,3.7,2,2.8,4l-8.6,18.9c-.9,2.1-3.7,3.6-6.2,3.4"/>
      <path class="cls-9" d="M554.8,266.3h-.5l-42-3c-1.8-.1-3.3-1-4.1-2.3-.7-1.2-.8-2.7-.1-4.2l8.6-18.9c1.2-2.7,4.7-4.6,7.9-4.4l42,3c1.8.1,3.3,1,4.1,2.3.7,1.2.8,2.7.1,4.2l-8.6,18.9c-1.2,2.6-4.3,4.4-7.4,4.4ZM554.5,262.9c1.8.1,3.9-1,4.5-2.4l8.6-18.9c.1-.3.2-.7.1-1-.2-.3-.7-.6-1.4-.6l-42-3c-1.8-.1-3.9,1-4.5,2.4l-8.6,18.9c-.1.3-.2.7-.1,1,.2.3.7.6,1.4.6l42,3Z"/>
      <path class="cls-3" d="M555,264.6l-36.9-1.9c-2.4-.2-3.6-2-2.7-4l8.3-18.9c.9-2.1,3.6-3.6,6-3.4l36.9,1.9c2.4.2,3.6,2,2.7,4l-8.3,18.9c-.9,2.1-3.6,3.6-6,3.4"/>
      <path class="cls-9" d="M554.8,266.3h-.5l-42-3c-1.8-.1-3.3-1-4.1-2.3-.7-1.2-.8-2.7-.1-4.2l8.6-18.9c1.2-2.7,4.7-4.6,7.9-4.4l42,3c1.8.1,3.3,1,4.1,2.3.7,1.2.8,2.7.1,4.2l-8.6,18.9c-1.2,2.6-4.3,4.4-7.4,4.4ZM554.5,262.9c1.8.1,3.9-1,4.5-2.4l8.6-18.9c.1-.3.2-.7.1-1-.2-.3-.7-.6-1.4-.6l-42-3c-1.8-.1-3.9,1-4.5,2.4l-8.6,18.9c-.1.3-.2.7-.1,1,.2.3.7.6,1.4.6l42,3Z"/>
      <path class="cls-10" d="M576.1,250.7c-1.6-3.2-6.9-3.1-14.2-2.1-4.2.6-8.1,1.1-11.7,2.1-4,1.1-3.6,5.9-3.6,5.9,0,0-7.4-.4-12.2.6-4.3.9-3.3,6.1-3.3,6.1l-3.9-.5s-1.3,1.3-1.7,3.1c-.9,4,3.6,5.2,3.6,5.2,0,0-.3,1.4,1.8,3.3,4.7,4.2,15.5,11,27.1,12.2,1.5.2,4.4,0,7.7-1.9,3.6-2,6.2-3.4,7.5-7.2.9-2.8,1.9-9.9,2.3-13.5.5-3.5,3.4-7.7.6-13.3"/>
      <path class="cls-9" d="M558.9,288.3h-1c-12.4-1.3-23.5-8.5-28.1-12.6-1.4-1.3-2-2.4-2.3-3.3-2.1-1-4.6-3.2-3.7-6.9.5-2.3,2-3.8,2.2-3.9l.6-.6,2.7.4c.2-2.4,1.3-5.1,4.8-5.8,3.5-.7,8.3-.8,10.9-.7.3-2.2,1.5-4.9,4.8-5.8,3.5-1,7.2-1.5,11.2-2.1l.8-.1c6.6-1,13.7-1.6,16,3h0c2.3,4.6,1.2,8.4.3,11.5-.3,1-.6,2-.7,2.8-.3,3.2-1.4,10.7-2.4,13.8-1.5,4.4-4.6,6.2-8.2,8.2-3.4,1.8-6.3,2.1-7.9,2.1ZM530.9,271.3c0,.2.2.8,1.3,1.8,4,3.5,14.6,10.5,26.1,11.7,1.5.2,4.1-.2,6.7-1.7,3.6-2,5.7-3.1,6.7-6.3.9-2.6,1.8-9.3,2.2-13.1.1-1.1.4-2.2.8-3.4.8-2.7,1.6-5.5-.1-9-1.2-2.5-7.7-1.8-12.4-1.1l-.8.1c-3.8.6-7.5,1.1-10.8,2-2.5.7-2.3,3.7-2.3,4.1l.2,2-2-.1c-.1,0-7.2-.4-11.7.6-2.5.5-2,3.8-2,4.1l.4,2.3-5.3-.7c-.3.4-.6,1-.8,1.7-.5,2.2,1.9,3.1,2.4,3.2l1.5.4-.1,1.4ZM530.8,271.4h0ZM530.9,271.3h0Z"/>
      <path class="cls-9" d="M559.8,259.2h-1c-5.7,0-12.1-.9-12.3-.9-.9-.1-1.6-1-1.5-1.9s1-1.6,1.9-1.5c.1,0,6.5.8,11.9.9,5.5,0,9.4-.2,9.4-.2,1,0,1.8.7,1.8,1.6.1.9-.7,1.8-1.6,1.8-.1,0-3.6.2-8.6.2Z"/>
      <path class="cls-9" d="M565.8,268.8s-.1,0,0,0c-.7,0-15.6-.7-20.6-1.3-5-.5-19.6-2.4-19.7-2.4-.9-.1-1.6-1-1.5-1.9s1-1.6,1.9-1.5c.1,0,14.7,1.8,19.7,2.4,4.9.5,20.2,1.2,20.3,1.2.9,0,1.7.8,1.6,1.8,0,1-.8,1.7-1.7,1.7Z"/>
      <path class="cls-9" d="M560.9,278.5h-.2c-.1,0-10.2-1.1-20.4-3.3-6.2-1.3-12.2-3.1-12.3-3.1-.9-.3-1.4-1.2-1.2-2.1s1.2-1.4,2.1-1.2c.1,0,6,1.7,12.1,3,10,2.2,19.9,3.3,20,3.3.9.1,1.6.9,1.5,1.9,0,.8-.7,1.5-1.6,1.5Z"/>
    </g>
    <path class="cls-9" d="M354.6,308.9c-3.5,0-6.8-.6-9.4-1.8-8.5-3.9-10.9-13.9-12-22.1-2.2-16,1.7-23.3,11.8-39.8.3-.5,30.5-49.5,38.3-54.7l3.2-2c5.1-2.8,10.1-5.2,16.1-7.7,1.5-.6,3.1.1,3.7,1.5.6,1.5-.1,3.1-1.5,3.7-5.8,2.4-10.5,4.7-15.4,7.4l-3,1.9c-4.8,3.2-26.3,36.1-36.5,52.9-9.9,16.3-13,22.1-11,36.1,1.4,10.1,4.1,15.5,8.8,17.7,5.7,2.7,16,1.1,25.6-3.8,5.8-3,14.6-11.7,22.2-22.2,11.2-15.3,17.3-29,18.8-32.7l-2.4-7.1c-.5-1.5.3-3.1,1.8-3.6s3.1.3,3.6,1.8l3.1,9.1-.4,1c-.3.7-6.4,16.5-19.9,34.9-8.3,11.3-17.6,20.5-24.2,23.9-7.5,3.6-14.9,5.6-21.3,5.6Z"/>
    <path class="cls-9" d="M460,165.4c-9.7,0-19.7-3.7-22.2-4.7-1.2-.5-1.8-1.9-1.4-3.1.5-1.2,1.9-1.8,3.1-1.4,8.5,3.4,21.1,6.1,28.6,3,5.7-2.4,7.7-6,10.3-10.5,4.1-7.1,6.2-13.4,6.7-19.8.6-8.1-3.4-22.4-3.5-22.5-.4-1.3.4-2.6,1.7-3,1.3-.4,2.6.4,3,1.7.2.6,4.3,15.2,3.6,24.2-.5,7.2-2.8,14.1-7.3,21.9-2.8,4.9-5.4,9.5-12.6,12.5-3,1.2-6.5,1.7-10,1.7Z"/>
    <path class="cls-9" d="M344.6,280.1h-.2c-.9-.1-1.6-.9-1.6-1.9,0-.4.9-9.8,6.7-20.5,6.4-11.9,35.1-42.6,36.4-43.9l.7-.8,1,.3c.2,0,4.3,1.2,11.3,4.2.9.4,1.3,1.4.9,2.3s-1.4,1.3-2.3.9c-4.8-2.1-8.2-3.3-9.8-3.8-4.6,4.9-29.5,32-35.1,42.4-5.4,10-6.3,19.1-6.3,19.2,0,.9-.8,1.6-1.7,1.6Z"/>
    <g>
      <path class="cls-10" d="M416.4,137.9s-11.3-14.4-14.9-19.1c-3.4-4.3,1.6-7.8,5.1-3.5,5.7,7.1,16.6,22.3,16.6,22.3"/>
      <path class="cls-9" d="M423.2,139.3c-.5,0-1.1-.2-1.4-.7-.1-.2-11-15.2-16.6-22.2-1.1-1.3-2.2-1.6-2.8-1.1-.6.4-.4,1.4.4,2.5,3.7,4.6,14.9,19.1,14.9,19.1l-2.7,2.1s-11.3-14.4-14.9-19.1c-2.3-2.9-1.7-5.9.1-7.3,1.9-1.5,5.2-1.4,7.6,1.7,5.6,7.1,16.6,22.2,16.7,22.3.6.8.4,1.8-.4,2.4-.2.2-.6.3-.9.3Z"/>
      <path class="cls-10" d="M425,147.9s2.7,3.8,6.7,7.6c3.2,2.9,7,5.6,9.1,9.1,1.7,2.8,1.5,8.5-1.3,17.7-2,6.4-30.8,62.6-30.8,62.6,0,0-9.9-.8-16.8-3.4s-12.4-9.2-12.4-9.2l37.9-52.7s-12.5-22.2-13.6-25.2c-1-3-2.9-5-8.2-20.3,0,0,1.3-4.9,2.7-7.5,1.4-2.6,4.1-4.8,4.1-4.8,0,0,7.7.9,9.4,1.5,1.7.6,2.7,1.3,4,2.9,1.6,1.9,1.5,2.9,1.5,2.9,0,0,11.9,16.4,13.7,19.8"/>
      <path class="cls-9" d="M409.1,248.5h-1c-.3,0-8.4,0-16.3-4-6.8-3.4-12.4-9.9-12.6-10.2l-.9-1,38-52.9c-2.8-4.8-13.2-22.7-14.2-25.6-.3-.8-.7-1.6-1.2-2.7-1.2-2.6-3.3-6.8-7-17.6l-.2-.5.1-.5c.1-.2,1.4-5.2,2.8-7.9,1.5-2.9,4.4-5.3,4.6-5.4l.6-.5.7.1c1.3.1,8,.9,9.8,1.6,2,.8,3.2,1.7,4.7,3.4,1.3,1.5,1.7,2.6,1.9,3.4,1.8,2.5,11.8,16.4,13.6,19.6.5.8.1,1.9-.7,2.3-.8.5-1.9.1-2.3-.7-1.4-2.6-9.5-14-13.6-19.6l-.4-.5v-.5c0-.2-.2-.8-1.1-1.8-1.1-1.3-1.8-1.9-3.3-2.4-.9-.3-5.1-.9-8.2-1.3-.8.7-2.3,2.2-3.2,3.8-1,1.9-2,5.4-2.4,6.6,3.5,10.2,5.5,14.3,6.7,16.7.5,1.1,1,2,1.3,3,.7,2.1,9.1,16.6,14.5,25.9l.6,1-37.7,52.5c1.8,1.9,5.9,6,10.6,8.3,5.6,2.8,11.4,3.4,13.7,3.6l27.6-52.8c3-6.3,3.9-8.6,4.2-9.4,2.5-8.2,2-14.8.5-17.3-1.4-2.3-3.8-4.4-6.2-6.4-.9-.8-1.8-1.6-2.7-2.4-4.1-3.8-6.8-7.7-7-7.8-.5-.8-.4-1.8.4-2.4.8-.5,1.8-.4,2.4.4,0,0,2.6,3.7,6.5,7.3.8.8,1.7,1.5,2.6,2.3,2.5,2.2,5.2,4.4,6.9,7.2,1.8,3,2.9,10.1-.1,20.1-.4,1.4-1.9,4.6-4.4,10l-28.6,55ZM415.6,129.1h0Z"/>
      <path class="cls-10" d="M429.1,145.6s11.5,14.2,15.3,18.8c3.5,4.2-1.5,7.8-5,3.6-5.8-7-17.5-22.1-17.5-22.1"/>
      <path class="cls-1" d="M429.1,145.6s11.5,14.2,15.3,18.8c3.5,4.2-1.5,7.8-5,3.6-5.8-7-17.5-22.1-17.5-22.1"/>
      <path class="cls-9" d="M412.3,124.5c-.5,0-1-.2-1.4-.7-2.4-3.1-4.3-5.6-5.7-7.4-1.1-1.3-2.2-1.6-2.8-1.1-.6.4-.4,1.4.4,2.5l1.8,2.2c.6.7.5,1.8-.3,2.4-.7.6-1.8.5-2.4-.3l-1.8-2.2c-2.3-2.9-1.7-5.9.1-7.3,1.9-1.5,5.2-1.4,7.6,1.7,1.4,1.8,3.4,4.3,5.8,7.5.6.8.4,1.8-.3,2.4-.3.2-.6.3-1,.3Z"/>
      <path class="cls-9" d="M442.9,171.6c-1.6,0-3.3-.8-4.8-2.6-5.7-7-17.4-22-17.5-22.1-.6-.7-.4-1.8.3-2.4.8-.6,1.8-.4,2.4.3.1.2,11.7,15.1,17.4,22.1,1.1,1.3,2.3,1.5,2.8,1.1.5-.5.4-1.4-.5-2.5-3.7-4.6-15.3-18.8-15.3-18.8l2.7-2.2s11.5,14.2,15.3,18.8c2.3,2.9,1.8,5.8,0,7.3-.7.7-1.7,1-2.8,1Z"/>
      <path class="cls-10" d="M400.2,144.5s1.2-10,2.1-12.7c.9-2.6,15.1-2.9,15.1-2.9l4.7,4.4s1.1,2.5.9,3.9-1.1,1.9-1.1,1.9"/>
      <path class="cls-9" d="M400.2,146.3h-.2c-.9-.1-1.6-1-1.5-1.9.1-1,1.3-10.3,2.2-13,.8-2.5,6.5-3.9,16.7-4h.3l.3.1c.2.1,5.7,2.3,6.7,9.7.3,1.9-1,3.3-2.3,3.7-.9.3-1.9-.2-2.2-1.1-.3-.9.2-1.9,1.1-2.2-.6-4.6-3.4-6.4-4.3-6.9-6,.1-12,1-13.1,1.8-.7,2.2-1.7,9.5-2,12.2-.1.9-.9,1.6-1.7,1.6Z"/>
      <path class="cls-10" d="M408.4,153.1s.7-4.6,1.3-8.7c.8-5.5.6-6.7,3.1-7s10.3-.8,10.3-.8c0,0,6.4,5.4,7.5,7.3,1.1,1.9-4.3,3.5-7.3.9,0,0-1.5.9-2.8,1.2-.6.2-1.6.3-1.6.3l1.5,4.2"/>
      <path class="cls-9" d="M408.4,154.8h-.3c-.9-.1-1.6-1-1.4-2,0,0,.7-4.6,1.3-8.7.1-.7.2-1.3.3-1.8.6-4,.9-6.2,4.3-6.7,2.5-.4,10.1-.8,10.4-.8h.7l.5.4c1.1.9,6.7,5.7,7.9,7.8.6,1.1.5,2.3-.3,3.2-1.5,1.8-5.4,2.3-9,1.2l-1.2.1.5,2.5c.2.9-.4,1.8-1.4,2-.9.2-1.8-.4-2-1.4l-1.2-6.2,5.7-.6.4.1c2.3.8,4.4.6,5.2.2-1-1.3-4-4-6.3-6-2,.1-7.5.5-9.5.7q-.9.1-1.4,3.7c-.1.6-.2,1.2-.3,1.9-.6,4.1-1.3,8.7-1.3,8.7,0,1.1-.8,1.7-1.6,1.7Z"/>
    </g>
    <path class="cls-9" d="M456.7,144.5c-4.8,0-8.5-1.6-10.6-4.7l-1.5-2.2,2.7-.3c10.2-1,14.9-1.7,22.9-4.4.8-.3,1.7.2,2,1s-.2,1.7-1,2c-7.2,2.4-12,3.3-20,4.2,3,1.5,7.7,1.5,13.4-.2.8-.3,1.7.2,2,1.1.3.8-.2,1.7-1.1,2-3.2,1-6.1,1.5-8.8,1.5Z"/>
    <path class="cls-9" d="M458.7,149.6c-.8,0-1.7-.1-2.3-.4-.8-.3-1.2-1.3-.9-2.1.3-.8,1.3-1.2,2.1-.9,1,.4,3.6-.1,5.1-.5.8-.3,1.7.2,2,1.1.3.8-.2,1.7-1.1,2-.6.2-2.8.8-4.9.8Z"/>
    <path class="cls-9" d="M458.8,130.3c-.9,0-1.7-.7-1.8-1.6-.1-1,.7-1.8,1.6-1.9,4.8-.4,5.5-1.6,6-3-.3-.4-1-1.3-1.6-2-2.7-3-7.1-8.1-8-15.6-.1-1,.6-1.8,1.5-2,1-.1,1.8.6,2,1.5.8,6.5,4.6,10.8,7.2,13.7,1.8,2,3,3.3,2.5,4.9-.8,2.6-2.2,5.4-9.2,5.9q-.1.1-.2.1ZM464.7,123.9h0Z"/>
    <path class="cls-9" d="M481.2,832.4h-2.1c-6.6-.3-46.1-.4-46.5-.4h-1.9l-.7-1.8c-.1-.2-2.1-5.8.3-12.5,2.3-5.9,6.6-8.1,9.4-9.5.5-.2.9-.4,1.3-.6,8.8-4.9,7.7-15,3.2-29.5-.3-1-1-3.4-1.9-6.9-1.3-4.6-3-11-4.7-16.7-.4-1.5.4-3,1.9-3.5,1.5-.4,3,.4,3.5,1.9,1.7,5.8,3.4,12.1,4.7,16.8.9,3.3,1.6,5.9,1.9,6.7,4.5,14.5,6.9,28.9-5.8,36.1-.5.3-1,.5-1.5.8-2.6,1.3-5.2,2.6-6.7,6.4-1,2.8-.9,5.3-.7,6.9,8.5,0,38.7.2,44.5.4,7.2.2,8.3-.9,8.3-1,.1-.4-.5-1.8-.9-2.6-.3-.7-.6-1.4-.8-2.2,0,0-.1-.2-.1-.3-2.6-6-5-14.6-7.2-25.6-.8-3.8-2.1-9.8-3.5-16.2-1.9-8.6-4-18.3-5.3-24.4-.3-1.5.7-3,2.2-3.3s3,.7,3.3,2.2c1.3,6,3.4,15.8,5.3,24.4,1.4,6.5,2.7,12.5,3.5,16.3,2.1,10.6,4.4,18.8,6.9,24.5.2.4.3.6.3.8v.1c.1.5.4,1.1.6,1.7.9,2.2,2.1,5.2.3,7.9-1.7,2.1-5.1,3.1-11.1,3.1Z"/>
    <path class="cls-9" d="M480.8,797.9c-.5,0-.9-.1-1.3-.3-9-4.8-23.7-2.4-28-1.5-.2,0-.3.1-.4.1-1.5.3-3-.8-3.3-2.3-.3-1.6.8-3,2.3-3.3h.2c6.1-1.2,21.5-3.5,31.9,2.1,1.4.7,1.9,2.5,1.2,3.9-.6.7-1.6,1.3-2.6,1.3Z"/>
    <path class="cls-9" d="M483.5,823.1h-51.3c-.9,0-1.7-.8-1.7-1.7s.8-1.7,1.7-1.7h51.3c.9,0,1.7.8,1.7,1.7s-.7,1.7-1.7,1.7Z"/>
    <g>
      <path class="cls-10" d="M529.3,724.2l-3.4,38.5c-.8,10,1.1,27.7,9.8,36.6,4,4,10,10.1,20.9,13.7,11.6,3.8,20.9,4.8,26.1,8.1,9,4.1,5.5,17.6,5.5,17.6h-89.2c-7.8,0-18.9.8-15.7-14.8,2.3-11.5,6.3-12.8,7.9-34,.5-7.5,3.8-77.3,3.8-77.3l34.3,11.6Z"/>
      <path class="cls-9" d="M496.6,841.5c-5,0-10.7-.3-14.2-4.5-2.5-3.1-3.2-7.5-1.9-13.6.9-4.3,2-7.3,3.1-10.2,1.9-5,3.8-10.2,4.8-23.5.5-7.4,3.8-76.6,3.8-77.3l.2-3.7,39.9,13.5-3.6,40.7c-.8,9.4,1,26.3,9.1,34.4l.2.2c3.8,3.8,9.5,9.5,19.6,12.8,4.6,1.5,8.9,2.6,12.7,3.5,5.8,1.4,10.4,2.6,13.9,4.7,4.6,2.2,7.2,6.5,7.6,12.6.3,4.3-.7,8-.7,8.2l-.5,2.1h-92.5c-.7.1-1.1.1-1.5.1ZM497.6,716.4c-.7,14.7-3.2,67.2-3.6,73.7-1.1,14-3.1,19.6-5.1,25-1,2.8-2,5.5-2.8,9.4-.9,4.3-.6,7.3.8,9,2,2.5,6.8,2.4,11.1,2.4h88c.5-3.4.7-10-4.3-12.3l-.3-.2c-2.7-1.7-7-2.8-12.4-4.1-3.9-1-8.3-2.1-13.1-3.6-11.4-3.7-17.6-10-21.8-14.1l-.2-.2c-10.1-10.3-11.4-29.9-10.7-38.8l3.2-36.4-28.8-9.8Z"/>
    </g>
    <path class="cls-9" d="M503.4,806.8l-13-12.2c-1.1-1.1-1.2-2.9-.1-4s2.9-1.2,4-.1l8.6,8.1,7.1-8.4,17.6-2.9c1.6-.2,3,.8,3.3,2.4s-.8,3-2.4,3.3l-15.5,2.5-9.6,11.3Z"/>
    <path class="cls-9" d="M588.4,832.4h-106.5c-.9,0-1.7-.8-1.7-1.7s.8-1.7,1.7-1.7h106.6c.9,0,1.7.8,1.7,1.7s-.8,1.7-1.8,1.7Z"/>
    <path class="cls-9" d="M553.3,357.1c1,8.7,11.8,37.5,12.3,69.3,1,62.1-3.1,169.9-27.8,328.8-22.8-.8-56.2-5.7-56.2-5.7,0,0,.8-205.6-5.8-269-7.4,87.9-8.2,148.7-8.2,148.7v10.7s4.9,79.8,7.4,101c-9.8,4.1-44,6.6-44,6.6,0,0-53-180.5-49.2-314.9.7-24.5,8.2-53.3,13.3-73.4,0,0,42.1,5.3,116.2,3.6,26-.8,42-5.7,42-5.7Z"/>
  </g>
</svg>