<?xml version="1.0" encoding="utf-8"?>
<!-- Generator: Adobe Illustrator 27.5.0, SVG Export Plug-In . SVG Version: 6.00 Build 0)  -->
<svg version="1.1" id="Ebene_2" xmlns="http://www.w3.org/2000/svg" xmlns:xlink="http://www.w3.org/1999/xlink" x="0px" y="0px"
	 viewBox="0 0 384 256" style="enable-background:new 0 0 384 256;" xml:space="preserve">
<style type="text/css">
	.st0{fill:#FFFFFF;}
	.st1{opacity:0.63;fill:#DEDCD2;}
	.st2{fill:#AFCD5F;}
	.st3{fill:#454440;}
	.st4{opacity:0.7;fill:#5B5D64;}
	.st5{opacity:0.8;fill:#FFFFFF;}
	.st6{opacity:0.8;fill:#007B91;}
	.st7{fill:#5B5D64;}
</style>
<g>
	<path class="st0" d="M212.5,213.3h-39V98.1H208c2.9,0,5.3,2.4,5.3,5.3s-2.4,5.3-5.3,5.3h-23.9v94h28.3c2.9,0,5.3,2.4,5.3,5.3
		S215.4,213.3,212.5,213.3z"/>
	<path class="st1" d="M283.1,212.7V81c0-25.3-20.5-45.9-45.9-45.9H134.3C109,35.1,88.4,55.6,88.4,81v131.7H283.1z"/>
	<g>
		<path class="st0" d="M248,133c-0.5-3.3-1.9-10.2-1.9-10.2l-0.1-0.1c1.7-0.9,2.6-2.7,2.6-2.7l0-5.4l-2.1-0.9c0,0-0.1-1.7-0.8-11.7
			c-0.3-5.1-4.6-13.7-4.6-13.7s-2.1-4.2-8.3-6.3c-1.9-0.6-4.1-1.3-5.9-1.8l0.3-5.1c0,0,0.7-0.4,1.5-1l7.1-2.1l0,0.3
			c0,0,2.2-0.3,4-1.8c0.6-0.4,1.3-0.9,1.8-1.6c1.7-2,2.1-4.9-0.2-6.8c-2.4-1.8,1-5.8-1.4-8.6c-2.1-2.5-3.2-1.4-5.2-1.9
			s-1.8-2.6-1.8-2.5c-0.5-1.3,2.1-3.7,0.1-5c-2-1.4-4-2.3-5.1-0.2c-1.1,2.1-4.8,3.2-6.8,1.3c-2-1.8-7.8-4.7-10.1-0.7
			c-2.3,4.1-2.1,8.4-5.5,7.8c-3-0.5-5.7,4.3-3.9,8c0.2,0.7,0.5,1.4,1.1,2c0.9,1.1,1.5,1.9,1.8,2.7c0.4,1.4-0.3,2.5-1.5,4.3
			c-0.3,0.4-0.2,0.9,0.1,1.4c-0.2,2.1,4.2,4.7,10.3,5.4c1.1,0.4,2.1,0.7,2.8,0.9l-0.4,3.7c0,0,0.1,0.2,0.3,0.4
			c-0.1,0-0.2,0.1-0.4,0.1c-6.3,2-14.2,5.9-14.2,5.9s-6.3,11.7-5,24.2c0.2,1.6,0.1,5.9,0.1,5.9l-2.4,2.3l-0.2,4.9l10.2,1.1
			c-1.1,3.9-2,9.9-2,19.3c0,17.6,2.5,54.6,2.5,54.6h5.3l0.1,4.1c0,0-2.2,0.7-4.1,1.7c-1.8,0.9-2.8,2.4-2.8,2.4l-0.8,1.7h17.7l2-8.9
			l-0.2-0.9c0,0,1.6-28.8,2.4-39.1c1.8,14.7,2.2,39.3,2.2,39.3l1.8,0l-0.1,10.2h14.4c0.6-1.3,0.5-1.5-0.9-2.9c-1.4-1.4-5.3-3-5.3-3
			l0.4-6l4.2-0.3c0,0,2.7-23.3,2-45.2c-0.1-2.4-0.2-4.8-0.4-7.1l6.2,0.2c0,0,1.5-2.3,2-5.8C251.8,137,248.5,136.3,248,133z"/>
		<path class="st0" d="M245.7,213.9h-21.1l0-4.3l-0.8,3.7h-27.2l3.5-7.9c0.1-0.2,0.7-1,1.6-1.9h-0.5l-0.3-3.8
			c-0.1-1.5-2.5-37.3-2.5-54.9c0-6.1,0.4-11.3,1.1-15.7l-9.5-1l0.4-10.3l2.3-2.3c0-1.5,0-3.1-0.1-3.8c-1.3-13.5,5.2-25.9,5.5-26.5
			l0.6-1.2l1.2-0.6c0.2-0.1,4.4-2.1,9.2-4.1c-5-1.3-9.4-3.9-9.9-7.7c-0.5-1.6-0.3-3.2,0.6-4.6c0.1-0.2,0.5-0.7,0.7-1.1
			c-0.2-0.3-0.4-0.6-0.8-1c-0.8-0.9-1.4-2-1.8-3.1c-1.5-3.3-1-7.4,1.2-10.3c1.6-2.1,3.7-3.2,6-3.2c0,0,0,0,0,0
			c0.1-0.4,0.3-0.8,0.4-1.2c0.5-1.3,1-2.9,1.9-4.5c1.2-2.2,3.2-3.6,5.7-4c4-0.6,8.4,1.7,10.5,3.5c0.2,0,0.5-0.1,0.7-0.2
			c1.1-2,2.7-2.8,3.8-3.1c3-0.8,5.7,1.1,7,1.9c1.7,1.1,3.3,3.3,2.1,7.1c1.7,0.1,3.6,0.7,5.6,3.1c2.4,2.8,1.9,6,1.6,8
			c0,0.2-0.1,0.4-0.1,0.7c1.4,1.3,2.2,3,2.4,4.9c0.3,2.4-0.5,5-2.2,7.1c-0.7,0.9-1.6,1.7-2.6,2.3c-2.6,2.1-5.4,2.5-5.9,2.6l-1.7,0.2
			l-2.9,0.8c0.9,0.3,1.6,0.5,2.4,0.7c7.5,2.5,10.3,7.7,10.6,8.3c0.5,1,4.6,9.5,5,15.2c0.3,4.7,0.5,7.5,0.6,9.3l2.2,1l0.1,9l-0.5,0.9
			c-0.1,0.3-0.7,1.3-1.7,2.4c0.5,2.4,1.2,6,1.5,8.2l0,0c0,0.3,0.3,0.6,0.9,1.3c1,1.1,3,3.3,2.5,6.6c-0.6,4.2-2.4,7.1-2.6,7.4
			l-1.2,1.9l-4-0.1c0.1,1,0.1,1.9,0.1,2.8c0.6,22-2,44.8-2.1,45.8l-0.4,3.4l-3.5,0.2c1.3,0.7,2.6,1.5,3.5,2.4
			c1.7,1.8,3.3,3.9,1.6,7.4L245.7,213.9z M232.9,195.6l-0.1,9.8l0.8-11.2l4.4-0.3c0.7-7.2,2.1-24.8,1.7-41.3
			c-0.1-2.2-0.2-4.5-0.4-6.9l-0.4-4.6l8.1,0.3c0.2-0.5,0.3-1.1,0.5-1.7c-0.1-0.1-0.3-0.3-0.4-0.4c-1-1.1-2.6-2.8-3-5.7l0,0
			c-0.3-2.3-1.1-6.4-1.6-8.5l-3.7-2.9l5.4-3c0.1-0.1,0.3-0.2,0.4-0.4l0-1.5l-1.9-0.9l-0.2-2.4c0,0-0.1-1.7-0.8-11.7
			c-0.2-3.1-2.7-9.1-4.1-12.1c0,0-1.6-2.8-5.9-4.2c-1.6-0.5-3.5-1.1-5.8-1.8l-2.8-0.8l-5.6,1.8c-4.5,1.4-10,3.9-12.4,5
			c-1.4,3.1-4.9,11.8-4,20.7c0.2,1.8,0.1,5.7,0.1,6.4l0,1.7l-2,1.9l10.8,1.2l-1.3,4.6c-0.9,3-1.9,8.7-1.9,18.2
			c0,14,1.6,40.7,2.3,50.6h5.5l0.2,9.8h2.8l1.1-5l-0.1-0.6l0-0.5c0.1-1.2,1.6-29,2.4-39.2l3.3-38.6l4.8,38.5
			c1.4,11.3,1.9,28,2.1,35.7L232.9,195.6z M247.6,139.9L247.6,139.9L247.6,139.9z M220.4,79.4l2.4,2.7l0.6-9.4l2.1-1c0,0,0,0,0,0
			c0,0,0.3-0.2,0.7-0.5l0.7-0.6l10.6-3.1l0.3-0.2c0.3-0.2,0.6-0.5,0.8-0.7c0.4-0.5,0.5-0.9,0.5-1c0,0,0,0-0.1-0.1
			c-3-2.4-2.5-5.8-2.2-7.7c0.1-0.5,0.2-1.2,0.2-1.5c-0.1-0.1-0.2-0.2-0.2-0.2c-0.1,0-0.1,0-0.2,0c-0.4,0-1,0-1.6-0.1l-1.8,4.5
			l-2.8-7.2c-0.6-0.9-1.1-2-1.2-3.3c-0.1-0.4-0.1-0.8-0.1-1.1c-1,0.7-2.2,1.2-3.5,1.4c-2.6,0.5-5.1-0.2-6.9-1.9
			c-1-0.9-3-1.7-3.8-1.7c-0.6,1.1-1,2.2-1.4,3.2c-0.8,2.4-2.5,7.2-7.7,6.6c-0.3,0.4-0.6,1.4-0.2,2.1l0.2,0.3l0.1,0.3
			c0.1,0.2,0.2,0.4,0.3,0.5c1.2,1.4,1.9,2.5,2.4,3.6l0.2,0.3l0.1,0.4c0.6,2.5-0.2,4.5-1.1,6c1,0.6,3.2,1.6,6.5,1.9l0.4,0l0.4,0.1
			c1.2,0.4,2.1,0.7,2.7,0.8l3.2,0.9L220.4,79.4z"/>
	</g>
	<g>
		<g>
			<rect x="76.6" y="103.4" class="st0" width="34.7" height="105"/>
			<path class="st0" d="M116.6,213.7H71.2V98.1h45.3V213.7z M81.9,203.1H106v-94.4H81.9V203.1z"/>
		</g>
		<g>
			<polygon class="st0" points="212.4,88.9 212.4,83.8 144.8,58.8 76.9,83.8 77,88.9 			"/>
			<path class="st0" d="M217.7,94.2h-146l-0.1-14.2l73.2-27l73,27L217.7,94.2z M92.7,83.6h104.1l-52-19.2L92.7,83.6z"/>
		</g>
		<g>
			<rect x="127.9" y="103.4" class="st0" width="33.7" height="104.6"/>
			<path class="st0" d="M166.8,213.3h-44.3V98.1h44.3V213.3z M133.2,202.7h23v-94h-23V202.7z"/>
		</g>
	</g>
	<g>
		<path class="st0" d="M316.4,125.4H267c-3.2,0-5.8-2.6-5.8-5.8V53.9c0-3.2,2.6-5.8,5.8-5.8h49.4c3.2,0,5.8,2.6,5.8,5.8v65.8
			C322.1,122.8,319.6,125.4,316.4,125.4z"/>
		<path class="st0" d="M316.4,130.7H267c-6.1,0-11.1-5-11.1-11.1V53.9c0-6.1,5-11.1,11.1-11.1h49.4c6.1,0,11.1,5,11.1,11.1v65.8
			C327.5,125.7,322.5,130.7,316.4,130.7z M267,53.4c-0.3,0-0.5,0.2-0.5,0.5v65.8c0,0.3,0.2,0.5,0.5,0.5h49.4c0.3,0,0.5-0.2,0.5-0.5
			V53.9c0-0.3-0.2-0.5-0.5-0.5H267z"/>
	</g>
	<rect x="76.9" y="103.4" class="st0" width="33.7" height="109.1"/>
	<rect x="82.1" y="108.4" class="st2" width="27.5" height="102.9"/>
	<path class="st3" d="M112.2,214.2h-37V101.7h37V214.2z M78.6,210.9h30.4V105H78.6V210.9z"/>
	<polygon class="st4" points="145,60 77.2,84.9 77.2,89.1 217.2,89.1 217.2,86.5 211,85.4 205.5,81.4 	"/>
	<path class="st3" d="M217.4,91H75.4l-0.1-8.4L144.8,57l66.5,25c0.9,0.3,1.3,1.3,1,2.1c-0.3,0.9-1.3,1.3-2.1,1l-65.4-24.5L78.6,84.9
		l0,2.8h138.8c0.9,0,1.7,0.7,1.7,1.6S218.4,91,217.4,91z"/>
	<rect x="127.9" y="103.4" class="st0" width="33.7" height="109.1"/>
	<rect x="129.2" y="104.9" class="st4" width="32" height="107.1"/>
	<rect x="178.8" y="103.4" class="st0" width="33.7" height="109.1"/>
	<path class="st3" d="M163.2,214.2h-37V101.7h37V214.2z M129.5,210.9h30.4V105h-30.4V210.9z"/>
	<rect x="178.9" y="103.9" class="st4" width="34.7" height="108.3"/>
	<path class="st3" d="M212.5,214.2h-35.3V101.7H208c0.9,0,1.7,0.7,1.7,1.6s-0.7,1.6-1.7,1.6h-27.5v105.8h32c0.9,0,1.7,0.7,1.7,1.7
		S213.4,214.2,212.5,214.2z"/>
	<g>
		<path class="st0" d="M202.7,211.9h16.2L219,193l-8.8,3.1l0.1,7.5c0,0-2.2,0.7-4.1,1.7s-2.8,2.4-2.8,2.4L202.7,211.9z"/>
		<path class="st3" d="M220.6,213.6h-19.8l1.2-6.6l0.2-0.3c0.1-0.2,1.2-1.9,3.4-3c1.1-0.5,2.3-1,3.1-1.3l-0.1-7.5l12.1-4.2
			L220.6,213.6z M204.7,210.3h12.6l0.1-14.9l-5.5,1.9l0.1,7.5l-1.1,0.4c0,0-2.1,0.7-3.9,1.6c-1,0.5-1.7,1.2-2,1.6L204.7,210.3z"/>
	</g>
	<g>
		<path class="st0" d="M243.1,212.5h-14.5l0.2-19.5c0,0,1.8,0.8,4.4,0.7c2.6-0.1,4.5-0.3,4.5-0.3l-0.4,3l-0.4,7.9
			c0,0,3.9,1.2,5.3,2.6C243.6,208.4,243.7,211.2,243.1,212.5z"/>
		<path class="st3" d="M244.2,214.1H227l0.2-23.6l2.3,1c0,0,1.5,0.6,3.7,0.6c2.5-0.1,4.3-0.3,4.3-0.3l2.1-0.3l-0.6,5l-0.3,6.7
			c1.4,0.5,3.7,1.5,4.8,2.7c1.9,2,2,5.6,1.2,7.4L244.2,214.1z M230.3,210.8h11.5c0-0.9-0.2-2.1-0.7-2.8c-0.7-0.8-3.1-1.8-4.6-2.2
			l-1.2-0.4l0.4-9.3l0.1-0.9c-0.7,0.1-1.6,0.1-2.5,0.1c-1.1,0-2-0.1-2.8-0.2L230.3,210.8z"/>
	</g>
	<g>
		<path class="st0" d="M246.1,122.5c0,0,1.4,6.9,1.9,10.3c0.5,3.3,3.8,4,3.4,6.8c-0.5,3.4-2,5.8-2,5.8l-8.9,0.2l-3-18.7l-0.4-3.5
			l5.9-3.1L246.1,122.5z"/>
		<path class="st3" d="M239.1,147.2l-3.2-20.1l-0.5-4.7l7.8-4.2l4.3,3.4l0.1,0.6c0.1,0.3,1.4,7,1.9,10.4c0.2,1.1,0.8,1.8,1.6,2.6
			c1,1.1,2.2,2.4,1.9,4.6c-0.6,3.8-2.2,6.3-2.3,6.4l-0.5,0.7L239.1,147.2z M238.9,124.3l0.3,2.4l2.7,17.2l6.5-0.1
			c0.4-0.9,1.1-2.4,1.4-4.4c0.1-0.6-0.1-0.9-1.1-1.9c-0.9-1-2.1-2.3-2.4-4.4c-0.4-2.7-1.4-7.8-1.8-9.6l-1.7-1.3L238.9,124.3z"/>
	</g>
	<g>
		<g>
			<line class="st0" x1="66.8" y1="212.5" x2="291" y2="212.5"/>
			<path class="st3" d="M291,214.1H66.8c-0.9,0-1.6-0.7-1.6-1.7s0.7-1.7,1.6-1.7H291c0.9,0,1.7,0.7,1.7,1.7S291.9,214.1,291,214.1z"
				/>
		</g>
		<g>
			<line class="st0" x1="51.5" y1="212.5" x2="60" y2="212.5"/>
			<path class="st3" d="M60,214.1h-8.6c-0.9,0-1.6-0.7-1.6-1.7s0.7-1.7,1.6-1.7H60c0.9,0,1.6,0.7,1.6,1.7S61,214.1,60,214.1z"/>
		</g>
		<g>
			<line class="st0" x1="297.9" y1="212.4" x2="309.2" y2="212.4"/>
			<path class="st3" d="M309.2,214.1h-11.3c-0.9,0-1.7-0.7-1.7-1.7s0.7-1.7,1.7-1.7h11.3c0.9,0,1.7,0.7,1.7,1.7
				S310.1,214.1,309.2,214.1z"/>
		</g>
	</g>
	<path class="st3" d="M245.4,152.6c-0.6-21.5-7.5-39.9-7.8-40.7l-0.6-1.6l-29.2,8.5l-0.3,0.3c-0.5,0.4-5.1,4.9-5.1,25.7
		c0,17.7,2.5,54.8,2.5,54.8h17.4c0,0,1.6-28.9,2.4-39.2c1.8,14.7,2.2,39.4,2.2,39.4l16.4-0.3C243.3,199.4,246,174.5,245.4,152.6z"/>
	<g>
		<path class="st0" d="M198.3,119.6c0,0-0.4,7.6-1.7,14.2c-0.7,3.4-2.8,7.8-2.8,7.8l0.2,6.5l2.6,3.3c0,0,3.3,0,4.3-0.4
			s2.6-1.8,2.6-1.8l-0.7-5.9l2.6-16.3l2-4.3L198.3,119.6z"/>
		<path class="st3" d="M196.7,153.1h-0.8l-3.4-4.4l-0.2-7.4l0.2-0.4c0,0,2-4.3,2.6-7.4c1.3-6.5,1.6-13.9,1.6-14l0.1-2.2l12.9,4.5
			l-2.7,5.7l-2.5,15.8l0.8,6.5l-0.6,0.6c-0.4,0.4-2,1.7-3.1,2.1C200.4,153,197.7,153.1,196.7,153.1z M195.7,147.5l1.8,2.3
			c1.3,0,2.5-0.1,2.9-0.2c0.3-0.1,0.9-0.5,1.4-1l-0.7-5.3l0-0.2l2.6-16.5l1.3-2.8l-5.3-1.8c-0.2,2.8-0.7,7.7-1.6,12.3
			c-0.6,3-2.2,6.6-2.7,7.8L195.7,147.5z"/>
	</g>
	<g>
		<path class="st0" d="M206.1,125.5l-11.8-1.2l0.2-5l2.4-2.3c0,0,0.1-4.3-0.1-6c-1.2-12.5,5.1-24.2,5.1-24.2s7.9-3.8,14.2-5.9
			c8.9-2.8,6.6-2.2,6.6-2.2s5.8,1.6,10.1,3c6.2,2,8.3,6.3,8.3,6.3s4.2,8.6,4.6,13.7c0.7,10,0.8,11.7,0.8,11.7l2.1,0.9v4.5
			c0,0-1.2,2.4-3.6,2.6c-2.4,0.2-4.4,0.8-4.4,0.8"/>
		<path class="st3" d="M206.1,127.1c-0.1,0-0.1,0-0.2,0l-13.4-1.4l0.3-7.2l2.4-2.3c0-1.5,0-4-0.1-5.1c-1.3-12.8,5-24.7,5.2-25.2
			l0.3-0.5l0.5-0.2c0.3-0.2,8.1-3.9,14.5-6c0.6-0.2,1.1-0.3,1.5-0.5l-0.7-0.2l5.8-1.6c0.8-0.2,1.4,0,1.7,0.2c1.8,0.5,6,1.7,9.3,2.8
			c6.8,2.2,9.2,6.9,9.3,7.1c0.2,0.4,4.4,8.9,4.7,14.3c0.4,6.4,0.6,9.4,0.7,10.7l2.1,1v6l-0.2,0.3c-0.1,0.1-1.6,3.2-4.9,3.5
			c-2.2,0.2-4,0.8-4.1,0.8c-0.9,0.3-1.8-0.2-2-1.1s0.2-1.8,1.1-2c0.1,0,2.1-0.6,4.7-0.9c1-0.1,1.8-1,2.1-1.4v-3l-2-0.9l-0.1-1
			c0,0-0.1-1.7-0.8-11.7c-0.3-4.7-4.4-13-4.4-13.1c-0.1-0.1-2-3.7-7.3-5.4c-3.5-1.1-7.9-2.4-9.5-2.8c-0.2,0.1-0.4,0.1-0.6,0.2
			c-1,0.3-2.7,0.9-5.7,1.8c-5.3,1.7-11.7,4.7-13.5,5.5c-1.1,2.3-5.7,12.4-4.6,22.8c0.2,1.7,0.1,6,0.1,6.2l0,0.7l-2.4,2.3l-0.1,2.8
			l10.3,1.1c0.9,0.1,1.6,0.9,1.5,1.8C207.7,126.5,206.9,127.1,206.1,127.1z"/>
	</g>
	<g>
		<path class="st5" d="M222.7,78.7C222.7,78.7,222.7,78.7,222.7,78.7C223.2,78.6,222.7,78.7,222.7,78.7z"/>
		<path class="st5" d="M246.5,113.4c0,0-0.1-1.7-0.8-11.7c-0.3-5.1-4.6-13.7-4.6-13.7s-2.1-4.3-8.3-6.3c-4.1-1.3-9.3-2.8-10-3
			c-0.5,0.2-2.1,0.7-6.7,2.2c-6.3,2-14.2,5.9-14.2,5.9s-6.3,11.7-5.1,24.2c0.2,1.6,0.1,6,0.1,6l-2.4,2.3l-0.2,5l11.6,1.2
			c-1.7,5.7-1.5,13.7-1.5,13.7s14.1-0.1,20-0.5c10.7-0.7,16.8-8.2,16.8-8.2l-1.4-7.9l0.9-0.1c0,0,2-0.6,4.4-0.8
			c2.4-0.2,3.6-2.6,3.6-2.6v-4.5L246.5,113.4z"/>
	</g>
	<g>
		<path class="st5" d="M222.7,78.7C222.7,78.7,222.7,78.7,222.7,78.7C223.2,78.6,222.7,78.7,222.7,78.7z"/>
		<path class="st5" d="M246.5,113.4c0,0-0.1-1.7-0.8-11.7c-0.3-5.1-4.6-13.7-4.6-13.7s-2.1-4.3-8.3-6.3c-4.1-1.3-9.3-2.8-10-3
			c-0.5,0.2-2.1,0.7-6.7,2.2c-6.3,2-14.2,5.9-14.2,5.9s-6.3,11.7-5.1,24.2c0.2,1.6,0.1,6,0.1,6l-2.4,2.3l-0.2,5l11.6,1.2
			c-1.7,5.7-1.5,13.7-1.5,13.7s14.1-0.1,20-0.5c10.7-0.7,16.8-8.2,16.8-8.2l-1.4-7.9l0.9-0.1c0,0,2-0.6,4.4-0.8
			c2.4-0.2,3.6-2.6,3.6-2.6v-4.5L246.5,113.4z"/>
	</g>
	<g>
		<path class="st6" d="M222.7,78.7C222.7,78.7,222.7,78.7,222.7,78.7C223.2,78.6,222.7,78.7,222.7,78.7z"/>
		<path class="st6" d="M246.5,113.4c0,0-0.1-1.7-0.8-11.7c-0.3-5.1-4.6-13.7-4.6-13.7s-2.1-4.3-8.3-6.3c-4.1-1.3-6.2-0.2-7-0.4
			c-0.5,0.2-1.5,1.1-6.1,2.6c-6.3,2-14.2,5.9-14.2,5.9s-5,8.4-4.2,21.5c0.1,1.6,0,7.5,0,7.5l-2.3,2l-0.2,3.4l7.1,1.2
			c-1.7,5.7-1.5,13.7-1.5,13.7s14.1-0.1,20-0.5c10.7-0.7,16.8-8.2,16.8-8.2l-0.8-8.1c0,0,2.3-0.4,4.7-0.7c2.4-0.2,3.6-2.6,3.6-2.6
			v-4.5L246.5,113.4z"/>
	</g>
	<path class="st3" d="M202.7,140.8l0-1.6c0-0.4-0.3-9.2,1.9-15c1.7-4.8,3.9-11.9,4.5-14l-4-10.4c-0.3-0.8,0.1-1.8,0.9-2.1
		c0.8-0.3,1.8,0.1,2.1,0.9l4.5,11.5l-0.2,0.5c0,0.1-2.7,9-4.7,14.7c-1.4,3.9-1.6,9.5-1.7,12.2c3.9,0,13.6-0.2,18.2-0.5
		c8.3-0.6,13.4-5.5,14.9-7.1l-2.1-13.2l0-0.2c0.2-2,0.9-7.6,0.8-9.2c-0.2-3.3-3-11.1-4.1-13.8c-0.3-0.8,0.1-1.8,0.9-2.1
		c0.8-0.3,1.8,0.1,2.1,0.9c0.2,0.4,4.2,10.4,4.4,14.9c0.1,2.1-0.6,8.1-0.8,9.6l2.2,14.2l-0.4,0.6c-0.3,0.3-6.4,8.1-17.7,8.9
		c-5.9,0.4-19.5,0.5-20.1,0.5L202.7,140.8z"/>
	<g>
		<g>
			<g>
				<path class="st3" d="M316.4,127.1H267c-4.1,0-7.4-3.3-7.4-7.4V53.9c0-4.1,3.3-7.4,7.4-7.4h49.4c4.1,0,7.4,3.3,7.4,7.4v65.8
					C323.8,123.7,320.5,127.1,316.4,127.1z M267,49.8c-2.3,0-4.1,1.8-4.1,4.1v65.8c0,2.3,1.8,4.1,4.1,4.1h49.4
					c2.3,0,4.1-1.8,4.1-4.1V53.9c0-2.3-1.8-4.1-4.1-4.1H267z"/>
				<path class="st3" d="M273,55.9c-0.9,0-1.7-0.7-1.7-1.6v-12c0-0.9,0.7-1.6,1.7-1.6s1.7,0.7,1.7,1.6v12
					C274.6,55.1,273.9,55.9,273,55.9z"/>
				<path class="st3" d="M285.4,55.9c-0.9,0-1.7-0.7-1.7-1.6v-12c0-0.9,0.7-1.6,1.7-1.6s1.7,0.7,1.7,1.6v12
					C287,55.1,286.3,55.9,285.4,55.9z"/>
				<path class="st3" d="M297.8,55.9c-0.9,0-1.7-0.7-1.7-1.6v-12c0-0.9,0.7-1.6,1.7-1.6s1.7,0.7,1.7,1.6v12
					C299.4,55.1,298.7,55.9,297.8,55.9z"/>
				<path class="st3" d="M310.1,55.9c-0.9,0-1.7-0.7-1.7-1.6v-12c0-0.9,0.7-1.6,1.7-1.6s1.7,0.7,1.7,1.6v12
					C311.8,55.1,311.1,55.9,310.1,55.9z"/>
				<path class="st3" d="M321.9,61.3h-58.8c-0.5,0-1-0.4-1-1s0.4-1,1-1h58.8c0.5,0,1,0.4,1,1S322.4,61.3,321.9,61.3z"/>
			</g>
			<g>
				<g>
					<path class="st3" d="M295.5,115.7c-3.5,0-5.2-2.6-5.2-5V90.2c0-0.8,0.6-1.4,1.4-1.4s1.4,0.6,1.4,1.4v20.4
						c0,0.5,0.2,2.3,2.4,2.3c2,0,2.6-1.9,2.6-2.6c0-0.8,0.6-1.4,1.4-1.4s1.4,0.6,1.4,1.4C300.8,112.5,299.1,115.7,295.5,115.7z"/>
					<path class="st3" d="M291.7,73.9c-0.8,0-1.4-0.6-1.4-1.4v-3.3c0-0.8,0.6-1.4,1.4-1.4s1.4,0.6,1.4,1.4v3.3
						C293.1,73.3,292.5,73.9,291.7,73.9z"/>
				</g>
				<path class="st3" d="M302.9,93.4h-0.2c-0.7,0-1.3-0.5-1.4-1.2c-0.3-2.1-2.1-3.5-4.1-3.5s-3.8,1.5-4.1,3.5
					c-0.1,0.7-0.7,1.2-1.4,1.2h-0.2c-0.7,0-1.3-0.5-1.4-1.2c-0.3-2.1-2.1-3.5-4.1-3.5s-3.8,1.5-4.1,3.5c-0.1,0.7-0.7,1.2-1.4,1.2
					h-0.2c-0.7,0-1.3-0.5-1.4-1.2c-0.3-2.1-2.1-3.5-4.1-3.5c-2.1,0-3.8,1.5-4.1,3.5c-0.1,0.7-0.7,1.2-1.4,1.2h-0.1
					c-0.4,0-0.8-0.2-1-0.5s-0.4-0.7-0.3-1.1c0-0.2,2.4-20.5,23.6-20.5c20.7,0,23.3,15.2,23.6,19.9c0,0.7-0.4,1.3-1.1,1.4
					c-0.7,0.1-1.4-0.3-1.6-1c-0.5-1.8-2.1-3-4-3c-2.1,0-3.8,1.5-4.1,3.5C304.2,92.9,303.6,93.4,302.9,93.4z M286.1,86
					c2.3,0,4.3,1.1,5.6,2.8C293,87,295,86,297.3,86s4.3,1.1,5.6,2.8c1.3-1.7,3.3-2.8,5.6-2.8c1.1,0,2.2,0.3,3.1,0.7
					c-1.7-5.6-6.5-12.6-20-12.6c-11.9,0-17.1,7.1-19.3,12.4c0.8-0.3,1.7-0.5,2.7-0.5c2.3,0,4.3,1.1,5.6,2.8
					C281.8,87,283.8,86,286.1,86z"/>
				<path class="st2" d="M291.6,76.2c-11.6,0.4-15.6,8.1-17.4,10.8c0.6-0.2,0.1,0.4,0.8,0.4c2.8,0,5.1,2,5.5,4.7h0.2
					c0.4-2.7,2.7-4.7,5.5-4.7c2.8,0,5.1,2,5.5,4.7h0.2c0.4-2.7,2.7-4.7,5.5-4.7s5.1,2,5.5,4.7h0.2c0.4-2.7,2.7-4.7,5.5-4.7
					c2.5,0,4.6,1.7,5.3,4C313.6,87.9,311.8,75.5,291.6,76.2z"/>
				<path class="st3" d="M302.9,93.4h-0.2c-0.7,0-1.3-0.5-1.4-1.2c-0.3-2.1-2.1-3.5-4.1-3.5s-3.8,1.5-4.1,3.5
					c-0.1,0.7-0.7,1.2-1.4,1.2h-0.2c-0.7,0-1.3-0.5-1.4-1.2c-0.3-2.1-2.1-3.5-4.1-3.5s-3.8,1.5-4.1,3.5c-0.1,0.7-0.7,1.2-1.4,1.2
					h-0.2c-0.7,0-1.3-0.5-1.4-1.2c-0.3-2.1-2.1-3.5-4.1-3.5c-2.1,0-3.8,1.5-4.1,3.5c-0.1,0.7-0.7,1.2-1.4,1.2h-0.1
					c-0.4,0-0.8-0.2-1-0.5s-0.4-0.7-0.3-1.1c0-0.2,2.4-20.5,23.6-20.5c6.7,0,18.6,1.9,22.6,14.3c0.5,1.7,0.9,3.8,1,6.2
					c0,0.7-0.4,1.3-1.1,1.4c-0.7,0.1-1.4-0.3-1.6-1c-0.5-1.8-2.2-3.7-4-3.7c-2.1,0-3.8,1.5-4.1,3.5
					C304.2,92.9,303.6,93.4,302.9,93.4z M286.1,86c2.3,0,4.3,1.1,5.6,2.8C293,87,295,86,297.3,86s4.3,1.1,5.6,2.8
					c1.3-1.7,3.3-2.8,5.6-2.8c1.2,0,2.2,0.4,3.2,0.9c0-0.1-0.1-0.3-0.1-0.4c-1.8-5.7-6.7-12.4-19.9-12.4c-11.9,0-17.1,7.1-19.3,12.4
					c0.8-0.3,1.7-0.5,2.7-0.5c2.3,0,4.3,1.1,5.6,2.8C281.8,87,283.8,86,286.1,86z"/>
			</g>
		</g>
	</g>
	<path class="st3" d="M205.2,127.1c-0.1,0-0.1,0-0.2,0l-12.4-1.4l0.3-7.2l2.4-2.3c0-1.5,0-4-0.1-5.1c-1.3-12.8,5-24.7,5.2-25.2
		l0.3-0.5l0.5-0.2c0.3-0.2,8.1-3.9,14.5-6c0.6-0.2,1.1-0.3,1.5-0.5l-0.7-0.2l5.8-1.6c0.8-0.2,1.4,0,1.7,0.2c1.8,0.5,6,1.7,9.3,2.8
		c6.8,2.2,9.2,6.9,9.3,7.1c0.2,0.4,4.4,8.9,4.7,14.3c0.4,6.4,0.6,9.4,0.7,10.7l2.1,1l0.1,6.9l-0.2,0.4c-0.2,0.3-1.7,3.2-4.7,3.9
		c-2.8,0.7-4.5,0.9-4.6,0.9c-0.9,0.1-1.7-0.6-1.8-1.5c-0.1-0.9,0.6-1.7,1.5-1.8c0,0,1.6-0.1,4.1-0.8c1.1-0.3,1.9-1.3,2.3-1.9l0-3.9
		l-2-0.9l-0.1-1c0,0-0.1-1.7-0.8-11.7c-0.3-4.7-4.4-13-4.4-13.1c-0.1-0.1-2-3.7-7.3-5.4c-3.5-1.1-7.9-2.4-9.5-2.8
		c-0.2,0.1-0.4,0.1-0.6,0.2c-1,0.3-2.7,0.9-5.7,1.8c-5.3,1.7-11.7,4.7-13.5,5.5c-1.1,2.3-5.7,12.4-4.6,22.8c0.2,1.7,0.1,6,0.1,6.2
		l0,0.7l-2.4,2.3l-0.1,2.8l9.4,1c0.9,0.1,1.6,0.9,1.5,1.8C206.7,126.5,206,127.1,205.2,127.1z"/>
	<line class="st7" x1="212.6" y1="79.2" x2="212.6" y2="79.2"/>
	<path class="st0" d="M216.6,78.4c-3.1-0.7-17-0.7-13.3-9.4c1.4-3.2,2.5-4-0.7-7.8c-3.2-3.8-0.2-9.8,3.1-9.2
		c3.4,0.6,3.2-3.7,5.5-7.8s8.1-1.1,10.1,0.7s5.7,0.8,6.8-1.4c1.1-2.1,5.2-0.6,5.2-0.6s-1.8,6.3,1.5,7.5c0,0,3.3-0.8,5.4,2.3
		s-0.8,7,1.5,8.9c2.4,1.9,1.7,5,0,7c-2,2.5-5.2,2.9-5.2,2.9"/>
	<path class="st3" d="M235.8,73.7c-0.8,0-1.5-0.6-1.6-1.5c-0.1-0.9,0.5-1.7,1.4-1.8c0,0,2.4-0.3,3.9-2.2c0.8-0.9,1.2-2.1,1.1-3
		c-0.1-0.6-0.3-1.1-0.8-1.5c-1.9-1.5-1.6-3.7-1.5-5.4c0.1-1.3,0.3-2.6-0.4-3.5c-0.7-1-1-1-1.8-0.9c-0.7,0.1-1.8,0.2-2.9-0.5
		c-2.2-1.4-2.4-3.9-1.6-5.6c0.4-0.8,1.4-1.1,2.2-0.7c0.8,0.4,1.1,1.4,0.7,2.2c0,0.1-0.4,0.8,0.4,1.3c0.1,0.1,0.4,0,0.7,0
		c1.2-0.1,3.1-0.4,4.9,2.3c1.3,1.9,1.1,4.1,0.9,5.8c-0.2,1.5-0.2,2.2,0.2,2.5c1.2,0.9,1.9,2.2,2.1,3.7c0.2,1.8-0.5,3.8-1.8,5.5
		c-2.4,2.9-6,3.4-6.1,3.4C236,73.7,235.9,73.7,235.8,73.7z"/>
	<path class="st3" d="M215.4,80c-8.4,0-13.4-3.8-14.1-7.9c-0.3-1.7,0.2-3.2,0.7-4.5c0.7-2,0.9-3-0.3-4.5c-2.3-2.8-2-6.4-0.7-8.7
		c1.2-2.1,3.3-3.2,5.3-2.9c0.7,0.1,0.9,0,1.9-2.8c0.4-1.2,0.9-2.6,1.7-4c0.9-1.5,2.2-2.5,3.9-2.8c3.2-0.5,6.9,1.6,8.4,3
		c0.5,0.4,1.1,0.5,1.6,0.4c1-0.1,2-0.7,2.5-1.4c2.1-3.2,5.9-2.3,7.7-1.3c0.8,0.4,1.1,1.5,0.6,2.2c-0.4,0.8-1.5,1.1-2.2,0.6
		c-0.2-0.1-2.3-1.2-3.3,0.2c-1,1.5-2.9,2.6-4.8,2.9c-1.6,0.2-3.2-0.2-4.3-1.3c-1.2-1.1-3.9-2.5-5.7-2.2c-0.7,0.1-1.2,0.5-1.5,1.1
		c-0.6,1.2-1.1,2.3-1.5,3.5c-0.9,2.5-2,5.5-5.6,4.9c-0.7-0.1-1.4,0.6-1.8,1.3c-0.8,1.3-1,3.4,0.3,4.9c2.5,3,1.6,5.7,0.9,7.7
		c-0.4,1.1-0.7,2-0.5,2.9c0.4,2.6,4.9,5.8,13.5,5c0.9-0.1,1.7,0.6,1.8,1.5c0.1,0.9-0.6,1.7-1.5,1.8C217.4,80,216.4,80,215.4,80z"/>
	<g>
		<path class="st0" d="M217.9,56.1c-2.2,2.2-2.8,7.2-2.8,7.2s-3.4-0.6-3,3.4c0.1,1.5,1.5,3.8,1.5,3.8l3.3,1.9l-0.8,7.9
			c0,0,1.2,2,4.9,2.9c2.2,0.6,5.7-0.5,5.7-0.5l0.5-8c0,0,3-1.5,3.8-4.5c0.5-1.7,1.8-8.8-0.6-12.7C227.6,53.2,220.6,53.4,217.9,56.1z
			"/>
		<path class="st3" d="M222.6,85.1c-0.7,0-1.3-0.1-1.9-0.2c-4.2-1.1-5.7-3.4-5.9-3.6l-0.3-0.5l0.7-7.4l-2.8-1.6l-0.2-0.4
			c-0.2-0.3-1.5-2.7-1.7-4.5c-0.2-1.9,0.3-3.3,1.3-4.2c0.6-0.6,1.3-0.8,2-0.9c0.3-1.8,1.2-5,3-6.8l0,0c1.8-1.8,4.9-2.7,8-2.3
			c3.1,0.4,5.6,1.8,7,4.2c3.1,5,0.9,13.6,0.8,14c-0.7,2.6-2.6,4.3-3.8,5.1l-0.5,8.3l-1.1,0.3C226.9,84.5,224.7,85.1,222.6,85.1z
			 M217.9,79.9c0.5,0.5,1.5,1.3,3.6,1.8c1,0.3,2.6,0,3.7-0.2l0.5-7.7l0.8-0.4c0,0,2.4-1.3,2.9-3.5c0.5-2,1.5-8.3-0.4-11.4
			c-1.3-2-3.4-2.5-4.6-2.7c-2.1-0.2-4.2,0.3-5.3,1.4c-1.5,1.4-2.1,5-2.3,6.2l-0.2,1.8l-1.8-0.3c-0.2,0-0.6,0-0.9,0.2
			c-0.2,0.2-0.3,0.8-0.2,1.5c0.1,0.7,0.6,1.9,1.1,2.8l3.9,2.2L217.9,79.9z"/>
	</g>
	<path class="st3" d="M224.5,75.9c-1.9,0-3.4-0.7-3.5-0.8c-0.5-0.3-0.8-0.9-0.5-1.5c0.3-0.5,0.9-0.8,1.5-0.5c0.1,0.1,3,1.4,5.4-0.4
		c0.5-0.4,1.2-0.3,1.6,0.2c0.4,0.5,0.3,1.2-0.2,1.6C227.3,75.6,225.8,75.9,224.5,75.9z"/>
</g>
</svg>
