<?xml version="1.0" encoding="UTF-8"?>
<svg id="Layer_1" data-name="Layer 1" xmlns="http://www.w3.org/2000/svg" viewBox="0 0 1381 920">
  <defs>
    <style>
      .cls-1 {
        fill: none;
      }

      .cls-1, .cls-2, .cls-3, .cls-4, .cls-5, .cls-6, .cls-7, .cls-8 {
        stroke-width: 0px;
      }

      .cls-2 {
        fill: #999;
        opacity: .6;
      }

      .cls-2, .cls-8 {
        isolation: isolate;
      }

      .cls-3 {
        fill: #afcd5f;
      }

      .cls-4 {
        fill: #ebaa3a;
      }

      .cls-5 {
        fill: #454440;
      }

      .cls-6 {
        fill: #d76b00;
      }

      .cls-7 {
        fill: #fff;
      }

      .cls-8 {
        fill: #dedcd2;
        opacity: .5;
      }
    </style>
  </defs>
  <g id="Ebene_4" data-name="Ebene 4">
    <path class="cls-8" d="M1072.5,690.7l3.5-461.9c.5-70.7-56.4-128.5-127.1-129.1l-504.5-3.8c-70.7-.5-128.5,56.4-129.1,127.1l-3.6,467.7h760.8Z"/>
  </g>
  <g id="Ebene_6" data-name="Ebene 6">
    <g>
      <path class="cls-7" d="M592,132.1s-.6,39.3,43.8,18.7c28.8-13.4,17.5-54.1,2.8-61.4-26.7-13.3-44.1,2.1-44.1,2.1l-2.5,40.6Z"/>
      <path class="cls-7" d="M613.5,163.3c-5.7,0-10.8-1.4-15-4.2-13.1-8.5-13-26.3-13-27.1v-.3l2.6-43.4,2-1.8c.8-.7,21.1-18.1,51.3-3,5.3,2.7,10.2,8.2,13.7,15.6,3.4,7.1,5.1,15.3,5,23-.2,15.7-8.1,28.3-21.6,34.5-9.4,4.5-17.8,6.7-25,6.7ZM598.5,132.3c0,1.2.4,11.7,7.1,15.9,5.6,3.6,15.1,2.4,27.5-3.3,11.4-5.3,14-15.4,14.1-22.9.1-9.9-4.7-23.4-11.5-26.8-17.6-8.8-30.2-3.2-34.9-.3l-2.3,37.4Z"/>
    </g>
    <g>
      <path class="cls-7" d="M597.2,178.2s-26.1-18.5-54.4-21.8-55.5-3.3-55.5-3.3l-38.6,5-27.4,11-19.7,8.2-16.9,60.8,101.5-44.7s15.2.1,27.7,11.5c12.5,11.4,32.1,41.8,32.1,41.8l13.5,37.2,37.7-105.7Z"/>
      <path class="cls-7" d="M559.6,303.1l-19.4-53.5c-2.8-4.3-19.8-30.1-30.6-39.9-8.5-7.7-18.7-9.4-22.2-9.7l-112.6,49.6,21.4-77,22.7-9.5,28.2-11.3,39.8-5.1h.4c1.1,0,27.9,0,56.2,3.3,29.6,3.4,56.3,22.1,57.4,22.9l4,2.8-45.3,127.4ZM484.9,186.9h1.4c.7,0,17.9.3,32.1,13.2,13,11.8,32.4,41.8,33.2,43.1l.4.6,7.6,20.9,29.9-83.9c-8.1-5-27.3-15.7-47.3-18-25.7-3-50.9-3.2-54.3-3.2l-37.3,4.8-26.6,10.6-16.7,7-12.4,44.5,90-39.6Z"/>
    </g>
    <g>
      <g>
        <polygon class="cls-7" points="392.5 185.1 348.2 197.4 324.4 218.9 321.7 236.3 340.4 250.9 377 234 404.4 223.9 392.5 185.1"/>
        <path class="cls-7" d="M339.6,258.4l-24.9-19.4,3.7-23.4,26.6-24,51.9-14.5,15.5,50.8-32.9,12.1-39.9,18.4ZM328.7,233.5l12.6,9.8,33.5-15.4,21.6-7.9-8.2-26.9-36.7,10.2-21,18.9-1.8,11.3Z"/>
      </g>
      <g>
        <path class="cls-7" d="M340,254.5l-21.7-16.9,3.2-20.3,25.1-22.7,48-13.4,13.7,44.6-30.1,11-38.2,17.7ZM325.1,234.9l15.8,12.3,35.1-16.2,24.6-9-10.1-33.1-40.7,11.3-22.4,20.2-2.3,14.5Z"/>
        <path class="cls-7" d="M339.1,262.1l-27.9-21.7,4.2-26.3,28-25.3,55.6-15.5,17.3,56.6-35.6,13.1-41.6,19.1ZM332.1,232.1l9.6,7.5,31.9-14.7,18.9-6.9-6.5-21.1-33.1,9.2-19.5,17.7-1.3,8.3Z"/>
      </g>
    </g>
    <g>
      <path class="cls-7" d="M545.4,431.1c-18,0-49.8-.5-95.5-3-25-1.4-61-13.4-62.5-13.9l-1.4-.5-.5-1.3c-1.3-3.1-28-69.5-36.4-98l-14.7,17.4-26.9-51.9.3-1.2c.2-1,6.2-23.8,16-37.8,3.6-5.1,4.8-8.2,5.7-10.7,1.8-4.7,3-7.1,11.3-11.5,11.4-6,29.4-10.4,34-11.4.8-1.1,2.5-3.9,4.3-9.1,2.6-7.9,4.5-16.9,4.5-17l.3-1.5,39.7-18.9,23.8-14.9,23.6,21.6,10.5,7.3-.8,9.5c8.6.5,30.1,2.3,37.5,6.6,40.1,23.6,59.7,49.2,60.5,50.3l1.4,1.9-45.3,60.9c-.4,1.2-2.7,8.2.3,23.4,3.6,17.9,30.7,98.4,31,99.2l1.3,4-4.2.2c-.2.1-6.1.3-17.8.3ZM390.8,408.8c6.9,2.2,38,11.9,59.5,13.1,60.6,3.3,96.7,3.1,108.4,2.8-5.6-16.8-26.6-79.8-29.8-96-3.8-18.8-.2-26.8.3-27.6l.3-.5,42.6-57.3c-5.2-6.2-24.3-27.4-57.2-46.8-6.3-3.7-29.5-5.6-37.9-6l-3.3-.2,1-12.4-8-5.6-20.2-18.5-20.2,12.6-37,17.6c-.6,3-2.2,9.8-4.3,16.2-2.9,8.7-5.9,11.9-6.2,12.2l-.7.7-.9.2c-.2,0-21.4,4.7-33.5,11.1-6.6,3.5-7,4.7-8.4,8.2-1,2.7-2.4,6.4-6.5,12.1-8,11.4-13.4,29.9-14.8,34.6l21.5,41.4,11.5-13.6c-.1-.2-.1-.5-.2-.7-4.1-20.5-5.5-42.7-5.5-42.9-.1-1.7,1.2-3.2,2.9-3.3,1.7-.1,3.2,1.2,3.3,2.9,0,.2,1.4,22,5.4,42.1,4,18.5,33.5,92.6,37.9,103.6Z"/>
      <path class="cls-7" d="M545.4,437.6c-18.7,0-50.5-.5-95.8-3-25.9-1.4-62.7-13.7-64.3-14.2l-4.2-1.4-1.7-4.1c-1-2.5-22.2-55.2-33-87.3l-13.4,15.9-32.5-62.7.9-3.6c.7-2.5,6.7-25.2,17-39.9,3.1-4.5,4.1-7.1,5-9.3,2.5-6.5,5-10,14.4-14.9,10.4-5.5,25.6-9.6,32.9-11.4.6-1.2,1.4-3,2.3-5.5,2.5-7.5,4.2-16.1,4.3-16.2l.9-4.7,42.3-20.1,27.7-17.3,26.9,24.6,13.2,9.2-.6,6.7c12.8,1.1,27.1,3.1,33.8,7.1,41.2,24.3,61.5,50.8,62.4,52l4.4,5.8-47.5,63.9c-.5,1.9-1.4,7.9.8,19.2,3.5,17.4,30.5,97.6,30.8,98.4l4.1,12.2-12.9.5c-.3-.1-6.2.1-18.2.1ZM395.7,403.5c9.9,3.1,36.4,10.9,55,11.9,49.2,2.7,82,3,99,2.9-8.1-24.4-24.3-73.9-27.2-88.3-4-20-.4-29.4.8-31.8l.9-1.4,39.5-53.1c-7.8-8.5-25.2-25.7-52.2-41.6-3.7-2.2-21.3-4.4-34.9-5.1l-10-.5,1.3-15.4-5.3-3.7-16.8-15.4-16.7,10.4-34.1,16.3c-.9,3.7-2.2,8.8-3.8,13.7-3.2,9.6-6.8,13.7-7.8,14.7l-2,2-2.8.6c-.2,0-20.6,4.6-31.9,10.5q-4.4,2.3-5.3,4.8c-1.1,2.8-2.7,7.1-7.2,13.5-6.4,9.1-11.2,23.9-13.1,30.2l15.8,30.5,3.2-3.8c-3.8-20-5.1-40.5-5.2-41.4-.2-2.6.7-5.1,2.4-7s4.1-3.1,6.6-3.2c2.6-.2,5,.7,7,2.4,1.9,1.7,3.1,4.1,3.3,6.6,0,.2,1.4,21.5,5.3,41.2,3.4,16.8,29.7,83.2,36.2,99.5Z"/>
    </g>
    <g>
      <g>
        <path class="cls-7" d="M470.2,104.2s2.3-19.7-13.3-34.7c-10.7-10.4-43.9-20.1-61.2,4.6-9.8,13.9-6,34.6-6,34.6,0,0-11.9-3.2-9.5,12,1.4,8.9,6,22.6,6,22.6l10.8,1.2s.4,10,1.4,21.1c1.1,12.7,3.1,27.7,3.1,27.7l12.4.4,13.1,10.1,15.4-14.4,14.5-4.7-1.1-20.3c4.8-9,10.6-19.5,11.2-25s-1.4-14.6-1.4-14.6l4.6-20.6Z"/>
        <path class="cls-7" d="M427.4,212.2l-15.8-12.2-15.9-.5-.7-5.5c0-.2-2-15.3-3.1-28-.5-6.1-.9-11.8-1.1-15.8l-9.4-1.1-1.3-3.9c-.2-.6-4.8-14.3-6.3-23.7-1.1-7.4.3-12.9,4.2-16.4,1.5-1.3,3.1-2.1,4.6-2.6-.4-8.2.4-21.7,7.8-32.3,7.4-10.6,18.2-16.8,31.2-18,16.1-1.5,32.3,5.2,39.9,12.5,17.6,17.1,15.3,39.2,15.2,40.1l-.1.7-4.3,19.2c.6,3.1,1.8,10,1.3,15.1-.6,5.8-4.5,13.5-10.4,24.6l-.7,1.2,1.2,23.5-17.9,5.8-18.4,17.3ZM407.2,186.9l9,.3,10.4,8,12.5-11.6,11.2-3.6-.9-17.1,2.4-4.4c3.6-6.8,8.6-16.1,8.9-19.7.3-3.3-.6-9.4-1.3-12.6l-.3-1.4,4.8-21.6c.2-2.3.8-17.3-11.3-29.1-4.6-4.4-16.8-10.1-29.6-8.9-9.2.9-16.5,5.1-21.8,12.6-8.1,11.4-5,29.5-4.9,29.7l1.9,10.5-9.9-3c-.5-.1-1.1-.1-1.4,0-.1.3-.5,1.6-.1,4.7.8,5.5,3.1,13.1,4.5,17.6l12.2,1.4.2,5.6c0,.1.4,10,1.3,20.7.5,7.7,1.5,16.4,2.2,21.9Z"/>
      </g>
      <g>
        <path class="cls-7" d="M427.2,207.9l-14.4-11.1-14.1-.4-.3-2.7c0-.2-2-15.2-3.1-27.8-.7-7.6-1.1-14.8-1.2-18.5l-10.1-1.2-.6-1.9c-.2-.6-4.7-14-6.1-23.1-1-6.2.1-10.7,3.1-13.4,1.9-1.7,4-2.3,5.9-2.5-.6-7-.8-21.9,7-33,6.9-9.8,16.8-15.5,28.8-16.6,15.1-1.4,30.2,4.8,37.2,11.6,16.5,16,14.3,36.5,14.2,37.4l-.1.3-4.4,19.9c.5,2.3,1.8,9.8,1.3,14.9-.5,5.6-5.4,14.6-10,23.4l-1.1,2.1,1.1,21.8-16.2,5.3-16.9,15.5ZM404.2,190.2l10.7.3,11.8,9.1,14-13,12.9-4.2-1-18.7,1.9-3.6c4-7.4,8.9-16.7,9.3-21,.5-4.9-1.4-13.5-1.4-13.6l-.1-.7,4.7-21c.1-1.7,1.2-18.9-12.3-32-5.9-5.7-19.2-11.1-32.2-9.9-10.2,1-18.4,5.7-24.2,14-8.9,12.6-5.5,32-5.5,32.2l.9,4.9-4.8-1.3s-3-.7-4.5.7c-1.3,1.2-1.7,3.9-1.1,7.8,1,6.6,4,16.2,5.2,20.2l11.5,1.3.1,2.7c0,.1.4,10,1.3,20.9.9,9.3,2.2,20,2.8,24.9ZM470.2,104.2h0ZM470.2,104.2h0Z"/>
        <path class="cls-7" d="M427.6,216.4l-17.1-13.2-17.5-.5-1.1-8.2c0-.1-2-15.3-3.1-28.1-.4-4.9-.8-9.5-1-13.3l-8.8-1-2-5.8c-.5-1.5-4.9-14.7-6.4-24.2-1.6-10.6,1.9-16.3,5.2-19.2,1.1-.9,2.2-1.7,3.5-2.4-.2-8.9,1.2-21.6,8.5-32,8-11.4,19.6-18.1,33.5-19.4,17.9-1.7,34.5,5.8,42.4,13.4,18.7,18.2,16.2,41.8,16.1,42.8l-.2,1-4.1,18.6c.7,3.7,1.7,10.3,1.2,15.4-.7,6.8-5.6,16-10.8,25.8l-.3.5,1.3,25-19.6,6.4-19.7,18.4ZM410,183.8l7.3.2,9.1,7,11-10.3,9.5-3.1-.8-15.6,2.8-5.2c2.9-5.4,8.3-15.6,8.6-18.6.3-2.9-.6-8.6-1.3-11.6l-.4-2.1,4.9-22c.1-2.5.3-16-10.4-26.4-4.1-4-15.3-9.2-27.1-8.1-8.4.8-14.7,4.5-19.5,11.3-7.2,10.3-4.4,27.2-4.4,27.4l2.7,14.9-12.3-3.3c0,.2,0,.4.1.6.7,4.6,2.4,10.7,3.8,15.2l12.9,1.5.3,8.3c0,.1.4,9.8,1.3,20.5.5,6.8,1.3,13.9,1.9,19.4Z"/>
      </g>
    </g>
    <g>
      <g>
        <path class="cls-7" d="M335,326.3s-5,6.3-10.7,15.7c-6.8,11.4-20.6,27.9-27.7,29.6-22.7,5.2-28.8-11-28.8-11l9.6-37s9.6-30.2,37-46.6l20.6,49.3Z"/>
        <path class="cls-7" d="M288.1,379.1c-15.8,0-24.1-10-26.4-16.2l-.7-1.9,10.2-39.3c.4-1.3,10.7-32.7,39.9-50.2l6.5-3.9,24.9,59.9-2.4,3c-.1.2-4.9,6.2-10.2,15-5.7,9.6-21.1,30.1-31.8,32.6-3.7.6-7,1-10,1ZM274.7,359.8c1.9,2.9,7.5,8.4,20.4,5.4,3.9-1,16.2-14.3,23.6-26.6,3.5-5.8,6.7-10.4,8.8-13.3l-16.1-38.6c-19.4,14.8-27.2,36.7-27.8,38.6l-8.9,34.5Z"/>
      </g>
      <g>
        <path class="cls-7" d="M288,375.7c-17.7,0-23.2-13.9-23.2-14.1l-.3-.9,9.9-38.1c.4-1.3,10.3-31.5,38.4-48.4l3.1-1.9,22.7,54.4-1.2,1.5c0,.1-5,6.2-10.4,15.3-5.9,9.8-20.6,28.9-29.7,31-3.4.9-6.5,1.2-9.3,1.2ZM271.1,360.3c1.5,2.9,7.8,12.1,24.8,8.2,5.1-1.2,18.1-15.4,25.7-28.1,4.1-6.9,7.9-12.1,9.8-14.5l-18.4-44.2c-23.1,15.6-32,41.3-32.5,42.8l-9.4,35.8Z"/>
        <path class="cls-7" d="M288,382.2c-17.8,0-27-12-29.3-18.3l-1.1-2.8,10.5-40.5c.4-1.4,11.1-33.8,41.3-52l9.6-5.7,27.1,64.9-3.6,4.5c0,.1-4.7,6-9.9,14.6-.2.3-18.9,30.6-33.8,34-3.8.9-7.4,1.3-10.8,1.3ZM278.1,359.1c2.1,2.4,6.7,5.2,16.1,3.1,3.1-1.3,14.3-12.7,21.8-25.2,3-5,5.8-9.2,7.9-12.1l-13.8-33c-16,13.8-22.8,32.2-23.5,34.4l-8.5,32.8ZM294.4,362.1h0Z"/>
      </g>
    </g>
    <g>
      <g>
        <path class="cls-7" d="M313,338.6c4.6-31.2,11-71.3,11-71.3,0,0,11.6-9.2,11.6-19.1,0-2.7-2-16-2-16,0,0,3.3-4.5,6-7.3,3-3.2,5.5-4.9,7.3-7.3,3.5-4.7-6.5-28.4-6.5-28.4l-22.8,3.8s-16.9,18.3-18,23.9c-1.2,6.4,3.5,28.9,3.5,28.9,0,0-8,20.1-16.8,36.9-12,22.8-25.7,46-24.1,64.3.9,10,6.5,19.7,12.3,21.7"/>
        <path class="cls-7" d="M272.5,374.9c-8.4-3-15.6-14.7-16.7-27.3-1.6-18.3,9.4-38.9,21-60.7,1.3-2.4,2.6-4.8,3.8-7.2,7.1-13.5,13.7-29.3,15.8-34.5-1.4-7.1-4.3-23-3.1-29.5s12.8-19.8,19.6-27.2l1.5-1.6,30.1-5,2,4.7c11.4,27.2,7.1,33,5.7,34.9s-3,3.3-4.5,4.7c-1,.9-2.1,1.9-3.2,3.1-1.3,1.4-2.8,3.2-3.9,4.6.7,4.5,1.7,11.8,1.7,14.2,0,10.2-8.1,18.9-12.1,22.5-1.4,9-6.7,42.3-10.6,68.9l-12.9-1.9c4.6-30.9,10.9-71,11-71.4l.4-2.5,2-1.6c2.4-1.9,9.1-8.5,9.1-14,0-1.5-1-8.9-1.9-15l-.4-2.7,1.6-2.2c.1-.2,3.6-4.8,6.5-7.9,1.5-1.5,2.8-2.7,3.9-3.8,1-.9,1.8-1.6,2.4-2.3.1-2.8-2-10.2-4.8-17.9l-15.4,2.6c-6.7,7.4-13.9,16.4-14.9,19.2-.5,3.3,1.4,16.2,3.5,26.3l.4,1.9-.7,1.8c-.3.8-8.2,20.6-17.1,37.5-1.3,2.4-2.6,4.8-3.9,7.3-10.2,19.2-20.8,39-19.5,53.5.8,8.9,5.7,15.3,8,16.1l-4.4,12.4Z"/>
      </g>
      <g>
        <path class="cls-7" d="M274.6,371.9c-.3,0-.7-.1-1-.2-7.1-2.5-13.5-13.2-14.4-24.4-1.5-17.3,9.7-38.4,20.6-58.8,1.3-2.4,2.6-4.8,3.8-7.2,7.6-14.5,14.7-31.7,16.3-35.8-1-4.8-4.5-22.9-3.3-29.2,1.1-6.1,14.6-21.1,18.7-25.5l.7-.8,26.3-4.4,1,2.3c4,9.5,10.1,26.2,6.1,31.5-1.2,1.6-2.6,2.9-4.1,4.3-1.1,1-2.2,2-3.4,3.3-1.8,1.9-3.9,4.5-5,6,.5,3.6,1.8,12.7,1.8,15.1,0,9.6-8.8,18.2-11.8,20.8-1.1,6.8-6.7,42.2-10.8,70.1-.3,1.7-1.9,2.9-3.6,2.7-1.7-.3-2.9-1.9-2.7-3.6,4.6-30.9,10.9-70.9,11-71.3l.2-1.2,1-.8c2.9-2.3,10.4-9.8,10.4-16.7,0-1.8-1.2-10.5-2-15.5l-.2-1.3.8-1.1c.1-.2,3.5-4.7,6.2-7.6,1.4-1.5,2.6-2.6,3.7-3.6,1.4-1.3,2.5-2.3,3.4-3.4,1-2.1-1.7-12.5-5.9-23l-19.3,3.2c-7.6,8.4-15.9,18.7-16.4,21.6-.8,4.2,1.7,19.2,3.5,27.7l.2.9-.3.9c-.1.2-8.1,20.5-17,37.2-1.3,2.4-2.6,4.8-3.8,7.3-10.4,19.6-21.2,39.9-19.9,55.3.8,9.4,6,17.5,10.2,19,1.6.6,2.5,2.4,1.9,4-.4,1.4-1.6,2.2-2.9,2.2Z"/>
        <path class="cls-7" d="M274.6,378.4c-1.1,0-2.2-.2-3.2-.5-9.7-3.4-17.6-16-18.8-30-1.7-19.2,10-41.2,21.3-62.4,1.3-2.4,2.6-4.8,3.8-7.2,6.7-12.7,13-27.7,15.3-33.4-1.8-9.1-4.1-23.3-3-29.7,1-5.6,7.9-15.3,20.4-28.8l2.2-2.4,33.6-5.6,3,7c10.9,25.9,8.2,34.1,5.3,38-1.6,2.1-3.3,3.7-4.9,5.2-1,1-2,1.9-3.1,3-.8.8-1.8,2-2.9,3.4,1,7,1.5,11.4,1.5,13.3,0,10.6-7.6,19.5-12.3,24-1.6,10.3-6.6,42.1-10.4,67.8-.4,2.5-1.7,4.8-3.8,6.3s-4.6,2.2-7.2,1.8c-5.3-.8-8.9-5.7-8.1-11,4.5-30.4,10.7-69.7,11-71.4l.6-3.7,3-2.3c3.3-2.6,7.9-8.3,7.9-11.6,0-1.3-.9-8.1-1.9-14.5l-.6-4,2.4-3.2c.1-.2,3.7-5,6.7-8.2,1.5-1.6,2.9-2.9,4.1-4,.5-.5.9-.9,1.3-1.2-.4-2.3-1.5-7-3.7-13.1l-11.8,2c-7.3,8.1-12.3,14.9-13.4,17-.2,2.9,1.2,13.7,3.5,24.9l.6,2.8-1.1,2.7c-.1.2-8.2,20.7-17.2,37.9-1.3,2.4-2.5,4.8-3.8,7.2-10,18.9-20.4,38.3-19.2,51.8.6,7.1,4.5,12.6,6,13.5,5,1.8,7.6,7.3,5.8,12.3-1.1,3.8-4.8,6.3-8.9,6.3ZM277.8,359.7h0ZM338.1,214.4h0Z"/>
      </g>
    </g>
    <g>
      <path class="cls-7" d="M664.2,176.6s-8.2,9.2-11.3,50.2c-2.1,28.4,18.8,52,18.8,52l15-17.1,47.9,56.2s-3.7,17.8,5.9,17.8c29.6,0,68.5-23.1,19.4-67.6-23.3-21.1-34-52.4-55.8-74.1-11.4-11.5-39.9-17.4-39.9-17.4Z"/>
      <path class="cls-7" d="M740.6,342.2c-3.8,0-7.2-1.6-9.5-4.4-1.2-1.5-4.8-7-3.3-18l-41.1-48.2-14.9,17-4.9-5.5c-.9-1-22.8-26-20.4-56.8,3.1-41.1,11.3-52.3,12.9-54.1l2.5-2.8,3.7.8c.3.1,7.6,1.6,16.5,4.6,12.3,4.2,21.3,9.1,26.8,14.6,10.8,10.8,19,23.8,26.9,36.3,8.8,13.9,17.1,27.1,28.7,37.6,14.9,13.5,31.2,33.8,23.6,53.5-6.9,17.4-29.4,25.4-47.5,25.4ZM686.8,251.7l54.9,64.4-.7,3.1c-.8,3.7-.8,8.3-.1,10,13.9-.1,30.6-6.1,34.9-17.1,3.8-10-3.3-23.9-20.2-39.1-12.9-11.7-22.1-26.2-30.9-40.3-7.9-12.5-15.3-24.3-25.1-34.1-6.9-6.9-22.8-12.1-32.1-14.6-2.3,5.3-6.2,17.8-8.1,43.3-1.3,17.3,7.2,33,12.7,41.2l14.7-16.8Z"/>
    </g>
    <g>
      <path class="cls-7" d="M507.5,588.8v-3.6c0-.9,1.3-90.4,32.6-235,3.9-17.8-1.9-34.7-8.5-54.2-3.4-9.9-6.8-20.2-9.3-31.3-6.4-29.3,28.2-96.1,29.7-99l.9-1.6h1.9c.4,0,37.2-1.1,56.9-6.4l.8-.2.8.2c1.3.3,31.4,8,45.8,12.8,28,9.3,40,19.7,40.4,20.1l1.4,1.3-.5,1.9c0,.1-1.4,6-4.4,26.3-.9,6.2-1.9,12.9-3,19.6-4.7,30.2-9.9,64.5-8.3,80.1.7,6.6,3.5,13.5,7.7,24,3.3,8.2,7.5,18.5,12.2,32.5.6,1.6-.3,3.4-2,4-1.6.6-3.4-.3-4-2-4.6-13.8-8.7-23.9-12.1-32.1-4.4-11-7.4-18.2-8.2-25.7-1.7-16.4,3.4-49.6,8.3-81.7,1-6.7,2.1-13.3,3-19.6,2.1-14.5,3.5-21.8,4.1-24.9-3.8-2.8-15.5-10.6-36.9-17.8-12.9-4.3-39.6-11.2-44.6-12.5-18.1,4.7-47.9,6.1-55.7,6.4-5.3,10.5-33.7,68.3-28.3,93.1,2.4,10.8,5.8,20.9,9.1,30.6,6.6,19.5,12.9,38,8.7,57.5-27.6,127.7-31.8,212.1-32.4,230.1,17.5-2.2,94.1-11,146.4-8.3,46.5,2.4,69.2,1.7,76.7,1.2-.2-9-1.9-40-15-105.2-.3-1.7.8-3.4,2.5-3.7,1.7-.3,3.4.8,3.7,2.5,16,79.8,15.2,108.3,15.2,109.5l-.1,2.7-2.7.3c-.8.1-21.4,2-80.5-1-58.5-3-148,8.6-148.9,8.7l-3.4.4Z"/>
      <path class="cls-7" d="M500.9,596.3l.1-11.1c0-.9,1.3-91,32.8-236.3,3.5-16.1-2-32.1-8.3-50.7-3.4-10.1-7-20.5-9.5-32-6.8-31.1,26.4-96,30.2-103.4l2.6-5,5.7-.2c.4,0,36.5-1,55.4-6.2l2.5-.7,2.5.6c1.3.3,31.6,8.1,46.3,12.9,28.7,9.6,41.3,20.2,42.7,21.4l4.4,3.9-1.4,5.7s-1.4,6.1-4.3,25.7c-.9,6.2-1.9,12.8-3,19.5l-6.2-.9h0l6.2,1c-4.6,29.8-9.8,63.7-8.2,78.4.6,5.7,3.3,12.3,7.3,22.2,3.4,8.3,7.6,18.7,12.3,32.8,1.7,5-1,10.5-6.1,12.2s-10.5-1-12.2-6.1c-4.6-13.6-8.6-23.6-11.9-31.7-4.6-11.5-7.7-19-8.6-27.5-1.8-17.2,3.4-50.9,8.4-83.4,1-6.5,2-13.3,3-19.5,1.5-10.2,2.6-16.9,3.4-21-5.2-3.4-15.6-9.2-31.7-14.6-11.7-3.9-34.9-10-42.5-11.9-16.4,4-40.3,5.5-51.6,6-15.7,31.8-29.5,69.6-26,85.3,2.3,10.4,5.7,20.3,8.9,29.9,6.9,20.4,13.5,39.7,8.9,61-4.7,21.9-27.9,132.8-31.9,221.4,27.9-3.2,93-9.9,139.9-7.4,36.8,1.9,58.5,1.8,69.5,1.5-.8-13.5-3.8-43.9-14.6-97.7-.5-2.5,0-5.1,1.4-7.2s3.6-3.6,6.1-4.1,5.1,0,7.2,1.4c2.1,1.4,3.6,3.6,4.1,6.1,16.1,80.4,15.3,109.8,15.3,111l-.3,8.4-8.4.8c-.9.1-22.1,2.1-81.4-1-58.1-3-146.8,8.6-147.7,8.7l-11.3,1.8Z"/>
    </g>
    <g>
      <g>
        <path class="cls-7" d="M592,162.4c-13.4,12.7-28.8,14.4-34.3,11s-20.9-17.3-22.8-28.6c-1.2-7.2-1.7-15-1.7-15l-4.6-11s-2.7-7.8-2.3-14.2c.9-15.5,7.1-27.6,22.9-33.8,17.4-6.9,36.6-5.9,48.7,9.6,11.1,14.2,8.5,27.4,8.5,27.4,0,0,8.3-1.7,10.5,7.3.5,2.2-5.1,22.6-5.1,22.6l-8.2,1c.7,32.4,31.8,31.1,41,33.8"/>
        <path class="cls-7" d="M564.7,181.5c-4.1,0-7.7-.9-10.4-2.5-5.8-3.6-23.3-18.8-25.7-33.1-1-5.9-1.5-12.1-1.7-14.6l-4.3-10.4c-.3-.9-3.1-9.2-2.6-16.7,1.2-19.6,10.2-32.9,27-39.5,22.5-8.9,43.6-4.6,56.2,11.6,7.7,9.8,9.7,19.3,10.1,25.6,4.3,1.4,8.5,4.9,10.2,11.6.4,1.5,1,3.9-5.2,25.9l-1.2,4.2-6.3.8c2.7,15,14.7,18.3,29,20.6,2.7.4,4.9.8,6.8,1.4l-3.7,12.5c-1.1-.3-3.1-.7-5.2-1-12.9-2.1-39.8-6.4-40.4-39l-.1-5.9,9.7-1.2c1.8-6.6,3.4-13.4,3.7-15.8-.3-.9-1-1.9-2.8-1.7l-9.8,2.5,2.3-10.1c.1-.4,1.7-10.7-7.3-22.2-12.8-16.4-33.1-10.7-41.2-7.5-12.1,4.8-17.9,13.5-18.7,28.2-.2,4,1.2,9.5,1.9,11.5l4.9,11.8.1,1.1c0,.1.5,7.5,1.6,14.3,1.4,8.2,14.4,20.8,19.8,24.2,2.3,1.4,14.5,1.1,26.4-10.2l8.9,9.4c-10.6,9.7-22.7,14.2-32,14.2Z"/>
      </g>
      <g>
        <path class="cls-7" d="M564.7,178.1c-3.5,0-6.5-.7-8.6-2-4.7-2.9-22-17.5-24.2-30.8-1.1-6.3-1.5-12.9-1.7-14.8l-4.4-10.7c-.1-.3-2.9-8.4-2.5-15.4,1.1-18.4,9.2-30.4,24.8-36.6,21.1-8.3,40.6-4.4,52.3,10.5,8.3,10.7,9.5,20.9,9.5,26.2,4.1.6,8.6,3.3,10.2,9.7.2.8.7,3-5.2,24.2l-.6,2-7.4.9c1.9,21.9,20,24.8,32.2,26.8,2.5.4,4.7.8,6.4,1.3s2.6,2.2,2.1,3.9-2.2,2.6-3.9,2.1c-1.3-.4-3.3-.7-5.7-1.1-12.9-2.1-37-6-37.6-35.7l-.1-2.8,8.9-1.1c2.2-8.2,4.4-17.2,4.5-19.2-1.4-5.2-5.5-4.9-6.8-4.7l-4.5.8.8-4.5c.1-.5,2.1-12.1-7.9-24.9-4.7-6.1-18.6-19-45-8.6-13.3,5.2-19.9,15.1-20.9,31.1-.3,5.4,1.8,12,2.1,12.9l4.7,11.4v.5c0,.1.5,7.7,1.6,14.7,1.6,9.7,15.7,23,21.3,26.5,4.2,2.6,17.9,1.3,30.4-10.6,1.3-1.2,3.3-1.1,4.5.1,1.2,1.3,1.1,3.3-.1,4.5-8.2,7.7-16.2,11-21.5,12.3-2.5.8-5.2,1.1-7.7,1.1ZM613.9,115.4h0Z"/>
        <path class="cls-7" d="M564.7,184.6c-4.7,0-8.9-1-12.1-3-3.9-2.4-24.4-18.4-27.2-35.2-1-5.7-1.5-11.6-1.7-14.4l-4.2-10.1c-.3-1-3.3-9.8-2.8-17.9,1.2-20.9,11-35.1,28.9-42.2,23.9-9.4,46.3-4.7,59.8,12.6,7.4,9.5,9.9,18.8,10.6,25.3,5.1,2.4,8.7,7,10.2,13,.5,2.2,1.1,4.7-5.2,27.4l-1.7,6.2-4.8.6c3.5,10.3,13.3,12.8,25.5,14.8,2.8.4,5.1.8,7.2,1.4,5.1,1.5,8,6.9,6.5,12s-6.9,8-12,6.5c-.9-.3-2.9-.6-4.9-.9-8.8-1.4-25.7-4.1-35.5-17.3-.2,2.3-1.3,4.4-3,5.9-9.2,8.7-18.3,12.4-24.4,13.9-2.9,1-6.1,1.4-9.2,1.4ZM562.8,165.2c2,.7,12.3.1,22.6-9.7,1.9-1.8,4.3-2.7,6.9-2.6,1.5,0,3,.4,4.3,1.1-1.5-4.3-2.4-9.3-2.5-15.1l-.2-8.7,10.4-1.3c1.3-5,2.3-9,2.7-11.3l-12.5,2.2,2.5-13.7c.1-.3,1.4-9.4-6.7-19.7-4.8-6.1-16-15-37.5-6.5-11,4.3-16,11.9-16.8,25.4-.2,3.3,1,8,1.7,10.2l5.1,12.1.1,1.6c0,.1.4,7.4,1.6,14,1.1,6.6,12.7,18.4,18.3,22ZM562.7,165.1h0Z"/>
      </g>
    </g>
    <g>
      <g>
        <path class="cls-7" d="M679.4,318.5l-13,18.3-1.4,17.3,9.3,15.8,7.5.3s5,.9,8.2-1.5c3.3-2.4,7.7-12.3,7.7-12.3,0,0,12.4-8.5,17.9-13.1s8.7-9.6,8.7-9.6c0,0,40.9-2,45.8-11.8,6.6-13.2-12.4-29.6-36.3-19.9-23.9,9.7-34.5,12.6-34.5,12.6l-19.9,3.9Z"/>
        <path class="cls-7" d="M684,376.8c-1.2,0-2.1-.1-2.8-.2l-10.7-.5-12.1-20.6,1.7-21.1,15.5-21.9,22.3-4.4c1.6-.5,12.2-3.6,33.6-12.3,12.6-5.1,30.1-5.2,40.6,6.2,6.1,6.6,7.6,15.3,3.9,22.6-3.2,6.3-12.3,10.3-29.6,13.1-7.5,1.2-14.7,1.8-18.6,2.1-1.7,2.2-4.4,5.3-8,8.3-4.6,3.8-13.4,10-16.9,12.4-1.9,4-5.4,10.6-9,13.2-3.3,2.6-7.2,3.1-9.9,3.1ZM678.1,363.5l4.4.2.4.1c1.1.2,2.8,0,3.3-.4,1-.9,3.8-5.6,5.6-9.8l.7-1.7,1.5-1c.1-.1,12.2-8.4,17.4-12.7,4.6-3.8,7.3-8.1,7.4-8.1l1.8-2.8,3.3-.2c18.5-.9,37.7-4.8,40.4-8.3,1.6-3.4-.5-6.4-1.8-7.9-4.6-4.9-14.4-7.8-26.2-3-24,9.8-34.8,12.8-35.2,12.9l-.5.1-17.5,3.4-10.5,14.7-1.1,13.5,6.6,11ZM764.4,318.8h0Z"/>
      </g>
      <g>
        <path class="cls-7" d="M683.9,373.5c-1.1,0-2-.1-2.4-.2l-9.1-.4-10.6-18.1,1.5-19.2,14.2-20,21.1-4.1c1.1-.3,11.9-3.5,34-12.5,11.5-4.7,27.4-4.9,36.9,5.4,5.2,5.6,6.4,12.7,3.3,18.8-5.1,10.3-37.2,12.9-47,13.4-1.4,1.9-4.3,5.5-8.4,9-4.8,4-14.6,10.9-17.4,12.8-1.3,2.8-5,10.3-8.3,12.8-2.4,1.9-5.5,2.3-7.8,2.3ZM676.1,366.8l6.2.3c1,.2,4.1.3,5.8-1,1.8-1.3,5-7.4,6.7-11.1l.4-.8.7-.5c.1-.1,12.3-8.5,17.6-12.9,5-4.2,8-8.8,8-8.9l.9-1.4,1.6-.1c18.8-.9,40.7-5,43.2-10.1,1.9-3.8,1-8.1-2.3-11.7-5.4-5.8-16.7-9.2-29.9-3.8-23.8,9.7-34.4,12.6-34.8,12.8l-.2.1-18.8,3.7-11.7,16.5-1.2,15.5,7.8,13.4Z"/>
        <path class="cls-7" d="M683.9,380h0c-1.2,0-2.3-.1-3-.2l-12.3-.6-13.4-22.9,1.8-23,16.8-23.6,23.4-4.6c2-.6,12.4-3.7,33.1-12.2,13.6-5.5,32.6-5.5,44.1,7,7,7.6,8.7,17.6,4.4,26.2-5.7,11.4-29.4,15.4-49.4,16.8-1.8,2.2-4.3,5-7.6,7.6-4.4,3.6-12.5,9.4-16.4,12.1-3.3,6.8-6.5,11.4-9.6,13.7-4,3.1-8.7,3.7-11.9,3.7ZM680,360.4l3.4.2h1c1.1-1.4,3.1-5,4.6-8.3l1.1-2.5,2.2-1.5c3.3-2.3,13-9,17.2-12.5,4.1-3.5,6.7-7.4,6.7-7.4l2.7-4.2,5-.3c21.6-1.1,35.1-5.2,37.9-7,.3-1.2-.2-2.5-1.5-3.9-3.7-4-12.4-6.4-22.7-2.2-24.1,9.8-35.1,12.9-35.6,13l-.7.2-16.2,3.2-9.2,13-.9,11.6,5,8.6Z"/>
      </g>
    </g>
    <path class="cls-7" d="M706.5,486.4l-34.3-4-.5-8c0-.3-.5-8.1-.8-17.3-.1-3.3-.2-6.9-.3-10.7-.2-8.8-.5-18.8-1.1-26.5-1.3-17.2-8.8-28.5-8.8-28.6l-2.2-3.2.7-3.8,2.7-15.3,16.7-1.4,4.4-29,46.5,7.4,1.2,6.7c.1.6,2.7,15.7-3.3,38.6h0c-2.6,9.9-1.9,16.4-.8,26.2.4,3.6.8,7.7,1.1,12.4,1.3,19.7-16.1,48.2-18,51.4l-3.2,5.1ZM690.2,465.4l6.3.7c5.9-10.6,12.8-26.2,12.2-35-.3-4.3-.7-8-1.1-11.7-1.1-10.6-2.1-19.8,1.4-33.1h0c2.7-10.3,3.3-18.6,3.3-23.9l-13.4-2.1-3.8,25-15.3,1.2c3.2,6.4,7.6,17.6,8.7,31.9.6,8.1.9,18.4,1.1,27.5.1,3.7.2,7.3.3,10.5.1,3.3.2,6.4.3,9Z"/>
  </g>
  <g id="Ebene_5" data-name="Ebene 5">
    <ellipse class="cls-2" cx="592.8" cy="838.5" rx="312.5" ry="31.3"/>
    <path class="cls-5" d="M876.9,725.3h-108.7c-1.7,0-3.2-1.4-3.2-3.2s1.4-3.2,3.2-3.2h108.7c1.7,0,3.2,1.4,3.2,3.2s-1.5,3.2-3.2,3.2Z"/>
    <path class="cls-5" d="M690.1,725.2h-296.2c-1.7,0-3.1-1.4-3.1-3.2s1.4-3.2,3.1-3.2h296.2c1.7,0,3.1,1.4,3.1,3.2s-1.4,3.2-3.1,3.2Z"/>
    <path class="cls-5" d="M296.7,725.2h-12.5c-1.7,0-3.1-1.4-3.1-3.2s1.4-3.2,3.1-3.2h12.5c1.7,0,3.1,1.4,3.1,3.2s-1.4,3.2-3.1,3.2Z"/>
    <polyline class="cls-7" points="267.8 703.8 267.8 432.6 979.4 432.6 979.4 722.1 766.8 722.1"/>
    <path class="cls-5" d="M982.5,725.2h-215.7c-1.7,0-3.2-1.4-3.2-3.2s1.4-3.2,3.2-3.2h209.4v-283H270.9v284.5c0,1.7-1.4,3.2-3.1,3.2s-3.1-1.4-3.1-3.2v-290.8h717.8v295.7Z"/>
    <g>
      <g>
        <path class="cls-7" d="M737.1,264.3s-11.4,40.8,7.7,64.9c19.1,24.2,61.4,22.6,61.4,22.6,0,0,11.4-40.8-7.7-64.9-19.1-24.1-61.4-22.6-61.4-22.6Z"/>
        <path class="cls-5" d="M804.4,355.1c-8.8,0-44.3-1.4-62-23.9-19.8-25.1-8.8-66-8.3-67.7l.6-2.2,2.3-.1c1.8-.1,44.1-1.3,63.9,23.8,19.8,25.1,8.8,66,8.3,67.7l-.6,2.2-2.3.1c-.2,0-.9.1-1.9.1ZM739.6,267.5c-2,8.7-7.6,40.4,7.7,59.9,15.3,19.4,47.4,21.3,56.4,21.4,2-8.7,7.6-40.4-7.7-59.9-15.4-19.5-47.5-21.3-56.4-21.4Z"/>
      </g>
      <path class="cls-3" d="M742.7,260.8s-10.2,36.6,6.9,58.3c17.1,21.7,55.1,20.3,55.1,20.3,0,0,10.2-36.6-6.9-58.3-17.1-21.7-55.1-20.3-55.1-20.3Z"/>
      <path class="cls-5" d="M804.4,355.1c-8.8,0-44.3-1.4-62-23.9-19.8-25.1-8.8-66-8.3-67.7l.6-2.2,2.3-.1c1.8-.1,44.1-1.3,63.9,23.8,19.8,25.1,8.8,66,8.3,67.7l-.6,2.2-2.3.1c-.2,0-.9.1-1.9.1ZM739.6,267.5c-2,8.7-7.6,40.4,7.7,59.9,15.3,19.4,47.4,21.3,56.4,21.4,2-8.7,7.6-40.4-7.7-59.9-15.4-19.5-47.5-21.3-56.4-21.4Z"/>
      <path class="cls-7" d="M920.9,262.6s-40.8-11.4-64.9,7.7-22.6,61.4-22.6,61.4c0,0,40.8,11.4,64.9-7.7,24.1-19.1,22.6-61.4,22.6-61.4Z"/>
      <path class="cls-3" d="M924.6,267.3s-37.7-10.5-60.1,7.1c-22.4,17.7-20.9,56.8-20.9,56.8,0,0,31.7,11.8,54.1-5.9,22.3-17.6,26.9-58,26.9-58Z"/>
      <path class="cls-5" d="M860.2,338.2c-14.8,0-26.8-3.3-27.7-3.5l-2.2-.6-.1-2.3c-.1-1.8-1.3-44.1,23.8-63.9s66-8.8,67.7-8.3l2.2.6.1,2.3c.1,1.8,1.3,44.1-23.8,63.9-11.8,9.3-27,11.8-40,11.8ZM836.4,329.2c8.7,2,40.4,7.6,59.8-7.7,19.5-15.4,21.3-47.5,21.4-56.4-8.7-2-40.4-7.6-59.9,7.7-19.3,15.3-21.1,47.5-21.3,56.4Z"/>
      <path class="cls-5" d="M806.2,353.9c-.3,0-.6-.1-.9-.2-.8-.4-21.1-10.6-42.6-39.2-21.5-28.5-27.3-48.9-27.6-49.7-.3-1.1.3-2.2,1.4-2.5,1.1-.3,2.2.3,2.5,1.4.1.2,5.9,20.5,26.9,48.3,20.9,27.7,40.9,37.9,41.1,38,1,.5,1.4,1.7.9,2.8-.2.7-1,1.1-1.7,1.1Z"/>
      <path class="cls-5" d="M833.3,333.8c-.2,0-.4,0-.6-.1-1.1-.3-1.7-1.5-1.4-2.6.2-.5,3.9-12.4,16.9-27.1,11.8-13.5,34-31.9,72.1-43.3,1.1-.3,2.2.3,2.6,1.4.3,1.1-.3,2.2-1.4,2.6-37.1,11.1-58.5,28.9-70,41.9-12.4,14.1-16.2,25.7-16.2,25.8-.3.8-1.1,1.4-2,1.4Z"/>
      <path class="cls-7" d="M832,193.4s-31.9,16.2-36.1,41.8c-4.2,25.7,20.9,51.2,20.9,51.2,0,0,31.9-16.2,36.1-41.8,4.2-25.7-20.9-51.2-20.9-51.2Z"/>
      <path class="cls-3" d="M835.7,199s-27.4,15.9-31.3,39.2,12.6,46.6,12.6,46.6c0,0,32.1-18.6,35.9-41.9,3.9-23.3-17.2-43.9-17.2-43.9Z"/>
      <path class="cls-5" d="M816.2,290.3l-1.6-1.6c-.3-.3-6.6-6.8-12.5-16.5-7.9-13.2-11.1-26.1-9.3-37.3,1.8-11.2,9-22.5,20.7-32.4,8.7-7.4,16.8-11.5,17.1-11.7l2.1-1,1.6,1.6c.3.3,6.6,6.8,12.5,16.5,7.9,13.2,11.1,26.1,9.3,37.3s-9,22.5-20.7,32.4c-8.7,7.4-16.8,11.5-17.1,11.7l-2.1,1ZM831.4,197.4c-6.9,4-29,18.3-32.3,38.4-3.3,20.1,13.1,40.7,18.4,46.7,6.9-4,29-18.3,32.3-38.4,3.3-20.1-13.1-40.7-18.4-46.7Z"/>
      <path class="cls-5" d="M816.8,288.5c-.8,0-1.5-.4-1.9-1.2-.7-1.6-17.9-39.4,15.3-94.9.6-1,1.9-1.3,2.8-.7,1,.6,1.3,1.9.7,2.8-16.7,28-19.9,51.3-19.7,65.9.3,15.8,4.5,25.1,4.6,25.2.5,1,0,2.3-1,2.7-.2.1-.5.2-.8.2Z"/>
    </g>
    <path class="cls-7" d="M859.4,384.9c-2-31.2-8-45.6-13.9-60.3-1.3-3.3-2.3-6.4-3-9.3h-53.7c-.7,2.8-1.6,5.9-3,9.3-5.9,14.8-11.9,29.2-13.9,60.3-1.3,20-1.3,36.9-1,47.1h89.6c.1-10.2.1-27-1.1-47.1Z"/>
    <path class="cls-4" d="M858.6,389.3c-2-31.2-2.5-39.4-8.4-54.1-1.3-3.3-5.1-10.9-5.8-13.7h-50c-.7,2.8-1.6,5.2-3,8.5-5.9,14.8-10.7,29.2-12.7,60.3-1.3,20-1.3,32.3-1,42.5h83.9c.2-10.2-1.8-23.5-3-43.5Z"/>
    <path class="cls-5" d="M863.5,435.2h-95.7l-.1-3.1c-.2-10.6-.2-27.4,1-47.3,2-30.9,7.9-45.8,13.7-60.2l.4-1.1c1.2-3,2.1-5.9,2.8-8.8l.6-2.4h58.7l.6,2.4c.7,3,1.6,5.9,2.8,8.8l.4,1.1c5.8,14.4,11.7,29.3,13.7,60.2h0c1.3,20,1.3,36.8,1,47.3l.1,3.1ZM773.9,428.9h83.4c.2-10.5.1-25.8-1.1-43.7h0c-1.9-29.9-7.4-43.7-13.3-58.3l-.4-1.1c-1-2.5-1.8-4.9-2.5-7.3h-48.8c-.7,2.4-1.5,4.8-2.5,7.3l-.4,1.1c-5.8,14.6-11.4,28.4-13.3,58.3-1.1,17.8-1.2,33.2-1.1,43.7Z"/>
    <path class="cls-5" d="M979.8,448.1H270.5c-1.1,0-2.1-.9-2.1-2.1s.9-2.1,2.1-2.1h709.3c1.1,0,2.1.9,2.1,2.1s-.9,2.1-2.1,2.1Z"/>
    <path class="cls-5" d="M864.7,612.6c-.8,0-1.5-.4-1.8-1.1-.6-1.1-13.5-27.7,11.1-64.2,18.8-28,46.2-38.2,65.9-41.8,21.2-3.9,37.8-1.3,38.5-1.1,1.1.2,1.9,1.2,1.7,2.4-.2,1.1-1.3,1.9-2.4,1.7-.2,0-16.7-2.6-37.2,1.2-18.9,3.5-45.1,13.3-63.1,40-23.3,34.6-11,59.8-10.8,60.1.5,1,.1,2.3-.9,2.8-.4,0-.7,0-1,0Z"/>
    <path class="cls-5" d="M912.2,651c-.5,0-1-.2-1.4-.6-.4-.4-9.5-9.3-16.6-24.4-6.6-13.9-12.7-35.8-4-61,7-20.2,24.7-33.1,51.2-37.5,19.8-3.2,37.2-.6,37.9-.5,1.1.2,1.9,1.2,1.7,2.4s-1.2,1.9-2.4,1.7c-.7-.1-68.9-10.1-84.6,35.2-15.8,45.8,19.2,80.7,19.6,81,.8.8.8,2.1,0,2.9-.3.6-.9.8-1.4.8Z"/>
    <path class="cls-5" d="M678.7,643.7h-.3c-1.1-.1-1.9-1.2-1.8-2.3,4-32.8,23.5-86.4,109.7-76.7,19.4,2.2,36.9-2.5,52.1-14,12.2-9.2,23-22.9,32.1-40.5,15.5-30.3,20.5-62.2,20.6-62.6.2-1.1,1.2-1.9,2.3-1.7,1.1.2,1.9,1.2,1.7,2.3,0,.3-5.1,32.9-20.9,63.7-21.1,41.3-51.6,61-88.3,56.8-36.3-4.1-63.9,3-82,21-15.8,15.7-21.3,37-23.1,52.1-.2,1.1-1.1,1.9-2.1,1.9Z"/>
    <path class="cls-5" d="M799.8,525.9c-12.1,0-22.1-4-29.8-12-8.8-9.2-14.4-23.3-16.5-41.9-1.6-13.7-.6-24.7-.5-25.1.1-1.1,1.1-2,2.2-1.9,1.1.1,2,1.1,1.9,2.2,0,.4-3.7,43.4,15.9,63.8,7.4,7.7,17.3,11.3,29.5,10.7,22-1.1,40.1-14,54-38.3,10.5-18.4,14.4-36.7,14.4-36.9.2-1.1,1.3-1.8,2.4-1.6,1.1.2,1.8,1.3,1.6,2.4-.2.8-4.1,19-14.9,38-14.4,25.3-34.3,39.3-57.4,40.5-1,0-1.9.1-2.8.1Z"/>
    <path class="cls-5" d="M269.6,505.7c-.4,0-.8-.1-1.1-.3-1-.6-1.3-1.9-.6-2.8.7-1,16.5-25.6,54.5-30.2,44.3-5.4,54.5,8.5,55,9.1.7.9.4,2.2-.5,2.9s-2.2.4-2.9-.5c-.1-.1-9.7-12.4-51.1-7.4-18.8,2.3-31.8,9.9-39.4,15.8-8.2,6.5-12.1,12.4-12.1,12.5-.5.5-1.1.9-1.8.9Z"/>
    <path class="cls-5" d="M266.9,534c-.5,0-.9-.1-1.3-.5-.9-.7-1-2-.3-2.9.4-.5,10.1-12.3,27.3-20.8,15.9-7.8,41.5-14,73,1,1,.5,1.5,1.7,1,2.7s-1.7,1.5-2.7,1c-24-11.4-47.3-11.8-69.2-1.1-16.5,8-26,19.6-26.1,19.7-.5.7-1.1.9-1.7.9Z"/>
    <path class="cls-5" d="M455.4,623.6c-15.1,0-28.2-4.1-39.2-12.2-.9-.7-1.1-2-.4-2.9s2-1.1,2.9-.4c11,8.2,24.5,12,40,11.4,1.1,0,2.1.8,2.1,2,0,1.1-.8,2.1-2,2.1-1.1,0-2.3,0-3.4,0Z"/>
    <path class="cls-5" d="M452.5,669.8c-18,0-33.9-4.6-47.5-13.8-.9-.6-1.2-1.9-.6-2.9.6-.9,1.9-1.2,2.9-.6,15.4,10.5,34.2,14.7,55.8,12.5,1.1-.1,2.1.7,2.3,1.8s-.7,2.1-1.8,2.3c-3.8.6-7.5.7-11.1.7Z"/>
    <path class="cls-5" d="M353.7,561.4c-.6,0-1.1-.2-1.5-.7-16.9-19.2-35.9-27.2-56.4-24-15.3,2.4-25.7,10.5-25.8,10.6-.9.7-2.2.6-2.9-.3-.7-.9-.6-2.2.3-2.9.5-.4,11.4-8.8,27.7-11.4,27.4-4.3,47.8,11.4,60.1,25.3.8.9.7,2.2-.2,2.9-.3.4-.8.5-1.3.5Z"/>
    <path class="cls-5" d="M978.9,641.9h-.2c-25.2-2.5-43.9-19.3-51.2-34.9-5.1-11-5-21.8.3-29.6,6.1-8.9,17-12.3,31.4-9.8,10.6,1.9,19.3,6.2,19.6,6.4,1,.5,1.4,1.7.9,2.8-.5,1-1.8,1.4-2.8.9-.3-.2-33.3-16.3-45.8,2.1-4.5,6.6-4.5,15.9,0,25.5,6.8,14.5,24.2,30.2,47.8,32.5,1.1.1,2,1.1,1.9,2.3.1,1-.8,1.8-1.9,1.8Z"/>
    <path class="cls-5" d="M825.1,664c-.9,0-1.7-.6-2-1.5-7-26.3-36.4-58.9-79.6-48.9-17.7,4.1-28.2,17.5-31.1,40.1-.1,1.1-1.2,1.9-2.3,1.8-1.1-.1-1.9-1.2-1.8-2.3,3.1-24.1,15-39.2,34.2-43.6,45.9-10.5,77.1,24,84.5,51.9.3,1.1-.4,2.2-1.5,2.5,0-.1-.2,0-.4,0Z"/>
    <g>
      <path class="cls-7" d="M540.6,778.8s5.5,16.5-5.5,27.4c-5.5,5.5-9.6,5.7-21.9,9.6-21.9,6.9-16.5,27.4-16.5,27.4,0,0,34.3,8.2,61.7,0,27.4-8.2,41.1-32.9,41.1-32.9l-20.6-46.6-38.3,15.1Z"/>
      <path class="cls-5" d="M530.2,850c-18.1,0-33.2-3.5-34.2-3.8l-1.8-.4-.5-1.8c-.1-.2-6-23.6,18.6-31.2,2.5-.8,4.6-1.4,6.5-1.9,7.5-2.2,10.3-3,14.2-6.9,9.4-9.4,4.8-24.1,4.7-24.2l-.9-2.8,2.8-1.1,41.2-16.2,22.4,50.8-.8,1.4c-.6,1.1-14.7,25.9-43,34.4-9.6,2.8-19.8,3.7-29.2,3.7ZM499.5,840.6c7.6,1.5,35.5,6.4,58.1-.4,22.3-6.7,35.3-25.1,38.5-30.1l-18.7-42.3-33,13c1.2,5.7,2.4,18.3-7,27.7-5,5-9.2,6.2-16.9,8.5-1.9.5-3.9,1.2-6.4,1.9-7.9,2.5-12.7,7.1-14.3,13.8-.7,3-.6,6-.3,7.9Z"/>
    </g>
    <g>
      <path class="cls-7" d="M333.6,814.4s-30.2,2.7-46.6-1.4c-16.5-4.1-26.1,23.3-26.1,23.3,0,0,37,17.8,82.3,15.1,30.6-1.9,35.6-6.9,35.6-6.9l-4.1-31.5-27.4-11"/>
      <path class="cls-5" d="M333.5,854.9c-40.9,0-72.5-15-74-15.7l-2.5-1.2.9-2.7c.4-1.2,10.8-30.1,29.8-25.3,15.7,3.9,45.3,1.3,45.6,1.3,1.7-.2,3.3,1.1,3.4,2.9.2,1.7-1.1,3.3-2.9,3.4-1.3.1-30.9,2.7-47.7-1.5-10.7-2.7-18.5,12.3-21.2,18.6,9.2,3.9,41,15.8,78,13.6,21.2-1.3,29.6-4,32.4-5.4l-3.6-27.7-25.6-10.2c-1.6-.6-2.4-2.5-1.8-4.1s2.5-2.4,4.1-1.8l29.1,11.7,4.6,34.9-1.1,1.1c-1,1-7.4,5.9-37.7,7.8-3.3.2-6.6.3-9.8.3Z"/>
    </g>
    <path class="cls-5" d="M592,132.1s-.6,39.3,43.8,18.7c28.8-13.4,17.5-54.1,2.8-61.4-26.7-13.3-44.1,2.1-44.1,2.1l-2.5,40.6Z"/>
    <path class="cls-5" d="M597.2,178.2s-26.1-18.5-54.4-21.8-55.5-3.3-55.5-3.3l-38.6,5-27.4,11-19.7,8.2-16.9,60.8,101.5-44.7s15.2.1,27.7,11.5c12.5,11.4,32.1,41.8,32.1,41.8l13.5,37.2,37.7-105.7Z"/>
    <g>
      <polygon class="cls-7" points="392.5 185.1 348.2 197.4 324.4 218.9 321.7 236.3 340.4 250.9 377 234 404.4 223.9 392.5 185.1"/>
      <path class="cls-5" d="M340,254.5l-21.7-16.9,3.2-20.3,25.1-22.7,48-13.4,13.7,44.6-30.1,11-38.2,17.7ZM325.1,234.9l15.8,12.3,35.1-16.2,24.6-9-10.1-33.1-40.7,11.3-22.4,20.2-2.3,14.5Z"/>
    </g>
    <path class="cls-7" d="M563,427.8s-37,1.4-112.9-2.7c-24.9-1.3-61.7-13.7-61.7-13.7l-37-94.6-16.5,9.6-24.2-46.6s11-23.3,20.6-37,19.2-20.6,19.2-20.6l26.1-11.9s2.7-2.7,5.5-11c2.7-8.2,4.6-17.4,4.6-17.4l38.4-18.3,21.9-13.7,21.9,20.1,9.1,6.4-.9,11s31,1.5,39.3,6.4c40,23.6,59.6,49.5,59.6,49.5l-44.1,59.3s-3.7,7.3,0,25.6c3.7,18.2,31.1,99.6,31.1,99.6Z"/>
    <path class="cls-2" d="M572.6,429.1s-37,1.4-112.9-2.7c-24.9-1.3-61.7-13.7-61.7-13.7l-15.4-21.4-32.6-80.1-15.5,14.4-20.6-42.9s7.4-34.7,17-48.5c9.6-13.7,16-16.6,16-16.6l35.7-12.8,2-7.1,2-17,11-4.3,37-11.4,16.2-9.7,20.9,17.1,5.1,4.1v9.3s32.5,4,40.8,8.9c40,23.6,67.9,49.9,67.9,49.9l-44,59.3s-3.7,7.3,0,25.6c3.7,18.3,31.1,99.6,31.1,99.6Z"/>
    <path class="cls-5" d="M545.4,431.1c-18,0-49.8-.5-95.5-3-25-1.4-61-13.4-62.5-13.9l-1.4-.5-.5-1.3c-1.3-3.1-28-69.5-36.4-98l-14.7,17.4-26.9-51.9.3-1.2c.2-1,6.2-23.8,16-37.8,3.6-5.1,4.8-8.2,5.7-10.7,1.8-4.7,3-7.1,11.3-11.5,11.4-6,29.4-10.4,34-11.4.8-1.1,2.5-3.9,4.3-9.1,2.6-7.9,4.5-16.9,4.5-17l.3-1.5,39.7-18.9,23.8-14.9,23.6,21.6,10.5,7.3-.8,9.5c8.6.5,30.1,2.3,37.5,6.6,40.1,23.6,59.7,49.2,60.5,50.3l1.4,1.9-45.3,60.9c-.4,1.2-2.7,8.2.3,23.4,3.6,17.9,30.7,98.4,31,99.2l1.3,4-4.2.2c-.2.1-6.1.3-17.8.3ZM390.8,408.8c6.9,2.2,38,11.9,59.5,13.1,60.6,3.3,96.7,3.1,108.4,2.8-5.6-16.8-26.6-79.8-29.8-96-3.8-18.8-.2-26.8.3-27.6l.3-.5,42.6-57.3c-5.2-6.2-24.3-27.4-57.2-46.8-6.3-3.7-29.5-5.6-37.9-6l-3.3-.2,1-12.4-8-5.6-20.2-18.5-20.2,12.6-37,17.6c-.6,3-2.2,9.8-4.3,16.2-2.9,8.7-5.9,11.9-6.2,12.2l-.7.7-.9.2c-.2,0-21.4,4.7-33.5,11.1-6.6,3.5-7,4.7-8.4,8.2-1,2.7-2.4,6.4-6.5,12.1-8,11.4-13.4,29.9-14.8,34.6l21.5,41.4,11.5-13.6c-.1-.2-.1-.5-.2-.7-4.1-20.5-5.5-42.7-5.5-42.9-.1-1.7,1.2-3.2,2.9-3.3,1.7-.1,3.2,1.2,3.3,2.9,0,.2,1.4,22,5.4,42.1,4,18.5,33.5,92.6,37.9,103.6Z"/>
    <path class="cls-5" d="M369.2,395.8s-56.9,174.8-58.8,242.3c-3.3,112.1,2.6,177.7,2.6,177.7,0,0,18.5,1.1,32.9,11,21.9,15.1,32.2-2.1,32.2-2.1,0,0-3.1-65.3,7.2-136.4,10.3-70.8,65.6-164.1,65.6-164.1,0,0,23.4,135.9,28.8,156.6,5.4,20.7,45.8,119.9,45.8,119.9,0,0,39.8,15.1,71.3-13.7,0,0-45.2-154.6-49.5-198.2-4.4-43.5,19.4-156.5,19.4-156.5l-33.8-105.1s-11.9,6.4-23.8-7.3c-11.9-13.7-12.8-37.5-12.8-37.5,0,0-17.6-8.4-69.5,0-42.5,6.9-66.7,15.5-66.7,15.5l9.1,97.9Z"/>
    <path class="cls-5" d="M362.8,316.2s-10.5-61.7-.9-98.7l19.2-10.1s-12.8,43.9,1.8,96l-20.1,12.8Z"/>
    <path class="cls-5" d="M477.1,294.3s-8.2-74,12.8-117l17.4,9.6s-21,50.7-8.2,115.6l-22-8.2Z"/>
    <g>
      <path class="cls-7" d="M470.2,104.2s2.3-19.7-13.3-34.7c-10.7-10.4-43.9-20.1-61.2,4.6-9.8,13.9-6,34.6-6,34.6,0,0-11.9-3.2-9.5,12,1.4,8.9,6,22.6,6,22.6l10.8,1.2s.4,10,1.4,21.1c1.1,12.7,3.1,27.7,3.1,27.7l12.4.4,13.1,10.1,15.4-14.4,14.5-4.7-1.1-20.3c4.8-9,10.6-19.5,11.2-25s-1.4-14.6-1.4-14.6l4.6-20.6Z"/>
      <path class="cls-5" d="M427.2,207.9l-14.4-11.1-14.1-.4-.3-2.7c0-.2-2-15.2-3.1-27.8-.7-7.6-1.1-14.8-1.2-18.5l-10.1-1.2-.6-1.9c-.2-.6-4.7-14-6.1-23.1-1-6.2.1-10.7,3.1-13.4,1.9-1.7,4-2.3,5.9-2.5-.6-7-.8-21.9,7-33,6.9-9.8,16.8-15.5,28.8-16.6,15.1-1.4,30.2,4.8,37.2,11.6,16.5,16,14.3,36.5,14.2,37.4l-.1.3-4.4,19.9c.5,2.3,1.8,9.8,1.3,14.9-.5,5.6-5.4,14.6-10,23.4l-1.1,2.1,1.1,21.8-16.2,5.3-16.9,15.5ZM404.2,190.2l10.7.3,11.8,9.1,14-13,12.9-4.2-1-18.7,1.9-3.6c4-7.4,8.9-16.7,9.3-21,.5-4.9-1.4-13.5-1.4-13.6l-.1-.7,4.7-21c.1-1.7,1.2-18.9-12.3-32-5.9-5.7-19.2-11.1-32.2-9.9-10.2,1-18.4,5.7-24.2,14-8.9,12.6-5.5,32-5.5,32.2l.9,4.9-4.8-1.3s-3-.7-4.5.7c-1.3,1.2-1.7,3.9-1.1,7.8,1,6.6,4,16.2,5.2,20.2l11.5,1.3.1,2.7c0,.1.4,10,1.3,20.9.9,9.3,2.2,20,2.8,24.9ZM470.2,104.2h0ZM470.2,104.2h0Z"/>
    </g>
    <path class="cls-5" d="M435.1,182.7c-3.2,0-6.8-.2-9.7-1-4.3-1.1-12.4-3.9-18.5-10.8-1.2-1.3-1-3.3.3-4.4,1.3-1.2,3.3-1,4.4.3,5,5.6,11.7,8,15.3,8.9,4.8,1.2,12.1.7,14.7.5l7-5.7c1.2-2,6-10,9.2-16.1.8-1.5,2.7-2.1,4.3-1.3,1.5.8,2.1,2.7,1.3,4.3-3.8,7-9.6,16.7-9.6,16.8l-.3.5-9.3,7.6-.9.1c-.4-.1-3.9.3-8.2.3Z"/>
    <path class="cls-5" d="M397.6,126l-7.3-13.6c-.5-1-.2-2.3.8-2.8s2.3-.2,2.8.8l5.3,9.9c2.1-1.7,5.4-5.9,5.4-14.4,0-2-.2-4.3-.3-6.8-.6-8.5-1.2-18.1,4.5-22.9,4.2-3.5,10.1-3.7,20.4-.7,23.1,6.8,33.8,1.5,33.9,1.5,1-.5,2.3-.1,2.8.9s.1,2.2-.9,2.8c-.5.3-12,6.2-37-1.2-10.9-3.2-14.5-1.9-16.6-.1-4.1,3.5-3.5,11.9-3,19.4.2,2.5.3,4.9.3,7.1,0,14.9-9.1,19.1-9.5,19.3l-1.6.8Z"/>
    <path class="cls-5" d="M460.2,205.4c-1.6,0-3.2-.1-4.6-.3-9.2-1.3-11.8-4-12.4-5.4-.8-1.6-.1-3.5,1.5-4.2,1.4-.7,3.1-.2,3.9,1,.3.3,2.1,1.5,7.9,2.3,4.2.6,10.3-.1,13.4-.6l4.1-18c.4-1.7,2.1-2.8,3.8-2.4,1.7.4,2.8,2.1,2.4,3.8l-5,22.1-2,.4c-.5.1-6.9,1.3-13,1.3ZM448.8,197q.1,0,0,0,.1,0,0,0ZM448.8,197h0ZM448.8,197h0ZM448.5,196.5h0Z"/>
    <path class="cls-5" d="M386,221.5l-1.3-2.6c-.1-.2-2.5-5.2-3.5-13.9-.9-8.5,0-12.9.1-13.4.4-1.7,2.1-2.8,3.8-2.4,1.7.4,2.8,2.1,2.4,3.8,0,0-.8,3.8.1,11.3.4,3.9,1.2,6.9,1.8,8.9,3.8-1.8,10.6-5.3,15.2-9.9,1.2-1.2,3.2-1.2,4.5,0,1.2,1.2,1.2,3.2,0,4.5-7.7,7.7-19.8,12.4-20.3,12.6l-2.8,1.1Z"/>
    <path class="cls-5" d="M571.2,320.3c-.4,0-.8-.1-1.2-.2l-51.2-21c-1.6-.7-2.4-2.5-1.7-4.1.7-1.6,2.5-2.4,4.1-1.7l51.2,21c1.6.7,2.4,2.5,1.7,4.1-.4,1.2-1.6,1.9-2.9,1.9Z"/>
    <ellipse class="cls-5" cx="429.68" cy="121.07" rx="3.1" ry="2.4" transform="translate(125.56 447.86) rotate(-62.79)"/>
    <ellipse class="cls-5" cx="456.43" cy="123.89" rx="2.7" ry="1.9" transform="translate(137.57 473.18) rotate(-62.79)"/>
    <g>
      <path class="cls-7" d="M335,326.3s-5,6.3-10.7,15.7c-6.8,11.4-20.6,27.9-27.7,29.6-22.7,5.2-28.8-11-28.8-11l9.6-37s9.6-30.2,37-46.6l20.6,49.3Z"/>
      <path class="cls-5" d="M288,375.7c-17.7,0-23.2-13.9-23.2-14.1l-.3-.9,9.9-38.1c.4-1.3,10.3-31.5,38.4-48.4l3.1-1.9,22.7,54.4-1.2,1.5c0,.1-5,6.2-10.4,15.3-5.9,9.8-20.6,28.9-29.7,31-3.4.9-6.5,1.2-9.3,1.2ZM271.1,360.3c1.5,2.9,7.8,12.1,24.8,8.2,5.1-1.2,18.1-15.4,25.7-28.1,4.1-6.9,7.9-12.1,9.8-14.5l-18.4-44.2c-23.1,15.6-32,41.3-32.5,42.8l-9.4,35.8Z"/>
    </g>
    <g>
      <path class="cls-7" d="M313,338.6c4.6-31.2,11-71.3,11-71.3,0,0,11.6-9.2,11.6-19.1,0-2.7-2-16-2-16,0,0,3.3-4.5,6-7.3,3-3.2,5.5-4.9,7.3-7.3,3.5-4.7-6.5-28.4-6.5-28.4l-22.8,3.8s-16.9,18.3-18,23.9c-1.2,6.4,3.5,28.9,3.5,28.9,0,0-8,20.1-16.8,36.9-12,22.8-25.7,46-24.1,64.3.9,10,6.5,19.7,12.3,21.7"/>
      <path class="cls-5" d="M274.6,371.9c-.3,0-.7-.1-1-.2-7.1-2.5-13.5-13.2-14.4-24.4-1.5-17.3,9.7-38.4,20.6-58.8,1.3-2.4,2.6-4.8,3.8-7.2,7.6-14.5,14.7-31.7,16.3-35.8-1-4.8-4.5-22.9-3.3-29.2,1.1-6.1,14.6-21.1,18.7-25.5l.7-.8,26.3-4.4,1,2.3c4,9.5,10.1,26.2,6.1,31.5-1.2,1.6-2.6,2.9-4.1,4.3-1.1,1-2.2,2-3.4,3.3-1.8,1.9-3.9,4.5-5,6,.5,3.6,1.8,12.7,1.8,15.1,0,9.6-8.8,18.2-11.8,20.8-1.1,6.8-6.7,42.2-10.8,70.1-.3,1.7-1.9,2.9-3.6,2.7-1.7-.3-2.9-1.9-2.7-3.6,4.6-30.9,10.9-70.9,11-71.3l.2-1.2,1-.8c2.9-2.3,10.4-9.8,10.4-16.7,0-1.8-1.2-10.5-2-15.5l-.2-1.3.8-1.1c.1-.2,3.5-4.7,6.2-7.6,1.4-1.5,2.6-2.6,3.7-3.6,1.4-1.3,2.5-2.3,3.4-3.4,1-2.1-1.7-12.5-5.9-23l-19.3,3.2c-7.6,8.4-15.9,18.7-16.4,21.6-.8,4.2,1.7,19.2,3.5,27.7l.2.9-.3.9c-.1.2-8.1,20.5-17,37.2-1.3,2.4-2.6,4.8-3.8,7.3-10.4,19.6-21.2,39.9-19.9,55.3.8,9.4,6,17.5,10.2,19,1.6.6,2.5,2.4,1.9,4-.4,1.4-1.6,2.2-2.9,2.2Z"/>
    </g>
    <path class="cls-5" d="M336.9,843.4c-40,0-71-13.3-71.4-13.4-1-.5-1.5-1.7-1.1-2.7.5-1,1.7-1.5,2.7-1.1.5.2,53.5,22.8,109.7,8.1,1.1-.3,2.2.4,2.5,1.5s-.4,2.2-1.5,2.5c-13.9,3.7-27.9,5.1-40.9,5.1Z"/>
    <path class="cls-5" d="M522.7,838.1c-19.3,0-25.1-2.4-25.5-2.6-1-.5-1.5-1.7-1.1-2.7.5-1,1.7-1.5,2.7-1.1.2.1,13.3,5.1,63.4-.2,1.1-.1,2.1.7,2.3,1.8.1,1.1-.7,2.1-1.8,2.3-17.3,1.9-30.3,2.5-40,2.5Z"/>
    <g>
      <path class="cls-7" d="M659.1,780.6c20.5,30.8,14.4,45.1,14.4,45.1,0,0-18.4,7.9-33.8,11.8-13.1,3.3-24.7,11.8-55.4,11.8-14.1,0-23.6-7.2-23.6-7.2l1-7.2s44.1-23.6,56.4-35.9-2.1-16.4-2.1-16.4l31.8-41s6.2,31.4,11.3,39Z"/>
      <path class="cls-5" d="M584.2,852.4c-14.9,0-25.1-7.5-25.5-7.8l-1.5-1.1,1.5-10.6,1.4-.8c.4-.2,43.8-23.5,55.7-35.3,3-3,4.4-5.7,4-7.4-.6-2.1-3.8-3.5-4.7-3.7l-4.5-1.3,38.9-50.2,1.3,6.8c1.7,8.6,7,32.1,10.8,37.8h0c8.8,13.2,13.9,25.1,15.4,35.4,1.1,8.1-.5,12.2-.7,12.7l-.5,1.2-1.2.5c-.8.3-18.8,8.1-34.3,11.9-3.4.8-6.8,2.1-10.4,3.4-10.1,3.8-22.7,8.5-45.7,8.5ZM564,840.6c3,1.8,10.5,5.6,20.2,5.6,21.9,0,33.9-4.5,43.6-8.1,3.8-1.4,7.3-2.7,11.1-3.7,12.5-3.1,27.4-9.1,31.9-11,.7-3.7,1.6-17.1-14.4-41.1h0c-3.9-5.9-8.2-23.5-10.3-33.4l-25.2,32.5c2,1.3,4.2,3.3,5,6.3,1.1,4.1-.8,8.7-5.6,13.5-11.4,11.4-47.9,31.5-55.7,35.7l-.6,3.7Z"/>
    </g>
    <g>
      <path class="cls-7" d="M659.1,780.6c20.5,30.8,14.4,45.1,14.4,45.1,0,0-18.4,7.9-33.8,11.8-13.1,3.3-24.7,11.8-55.4,11.8-14.1,0-23.6-7.2-23.6-7.2l1-7.2s44.1-23.6,56.4-35.9-2.1-16.4-2.1-16.4l31.8-41s6.2,31.4,11.3,39Z"/>
      <path class="cls-5" d="M584.2,852.4c-14.9,0-25.1-7.5-25.5-7.8l-1.5-1.1,1.5-10.6,1.4-.8c.4-.2,43.8-23.5,55.7-35.3,3-3,4.4-5.7,4-7.4-.6-2.1-3.8-3.5-4.7-3.7l-4.5-1.3,38.9-50.2,1.3,6.8c1.7,8.6,7,32.1,10.8,37.8h0c8.8,13.2,13.9,25.1,15.4,35.4,1.1,8.1-.5,12.2-.7,12.7l-.5,1.2-1.2.5c-.8.3-18.8,8.1-34.3,11.9-3.4.8-6.8,2.1-10.4,3.4-10.1,3.8-22.7,8.5-45.7,8.5ZM564,840.6c3,1.8,10.5,5.6,20.2,5.6,21.9,0,33.9-4.5,43.6-8.1,3.8-1.4,7.3-2.7,11.1-3.7,12.5-3.1,27.4-9.1,31.9-11,.7-3.7,1.6-17.1-14.4-41.1h0c-3.9-5.9-8.2-23.5-10.3-33.4l-25.2,32.5c2,1.3,4.2,3.3,5,6.3,1.1,4.1-.8,8.7-5.6,13.5-11.4,11.4-47.9,31.5-55.7,35.7l-.6,3.7Z"/>
    </g>
    <path class="cls-6" d="M660.5,787c18.6,27.9,13,40.9,13,40.9,0,0-16.7,7.2-30.6,10.7-11.8,3-22.4,10.7-50.3,10.7-12.7,0-21.4-6.5-21.4-6.5l.9-6.5s40-21.4,51.1-32.5-1.9-14.9-1.9-14.9l28.8-37.2c.2,0,5.8,28.5,10.4,35.3Z"/>
    <path class="cls-5" d="M584.2,852.4c-14.9,0-25.1-7.5-25.5-7.8l-1.5-1.1,1.5-10.6,1.4-.8c.4-.2,43.8-23.5,55.7-35.3,3-3,4.4-5.7,4-7.4-.6-2.1-3.8-3.5-4.7-3.7l-4.5-1.3,38.9-50.2,1.3,6.8c1.7,8.6,7,32.1,10.8,37.8h0c8.8,13.2,13.9,25.1,15.4,35.4,1.1,8.1-.5,12.2-.7,12.7l-.5,1.2-1.2.5c-.8.3-18.8,8.1-34.3,11.9-3.4.8-6.8,2.1-10.4,3.4-10.1,3.8-22.7,8.5-45.7,8.5ZM564,840.6c3,1.8,10.5,5.6,20.2,5.6,21.9,0,33.9-4.5,43.6-8.1,3.8-1.4,7.3-2.7,11.1-3.7,12.5-3.1,27.4-9.1,31.9-11,.7-3.7,1.6-17.1-14.4-41.1h0c-3.9-5.9-8.2-23.5-10.3-33.4l-25.2,32.5c2,1.3,4.2,3.3,5,6.3,1.1,4.1-.8,8.7-5.6,13.5-11.4,11.4-47.9,31.5-55.7,35.7l-.6,3.7Z"/>
    <g>
      <path class="cls-7" d="M717.1,674.7s15.8-4.1,28.9,4.4c6.2,4,8.2,17.4,6.2,39.2-.9,10.1,2.3,12.3,5.9,21.8,2.4,6.3,5,16.8,0,31.7-2.1,6.2-8.7,12.3-13.9,13.9-7.3,2.3-14.5-4.9-16.8-8.9-4-6.9,2.2-19.8-12.9-48.5-9.9-18.8-9.9-33.7-9.9-33.7l12.5-19.9Z"/>
      <path class="cls-5" d="M741.3,789.2c-7.8,0-14.4-7-16.7-10.9-1.7-3-1.9-6.5-2.2-10.9-.4-7.7-1.1-19.4-10.8-37.7-10.2-19.3-10.3-34.5-10.3-35.1v-.9l13.6-21.6,1.2-.3c.7-.2,17.3-4.3,31.4,4.8,2.7,1.7,10.8,7,7.7,42.2-.6,6.5.6,9,2.8,13.6.9,1.9,1.9,4,2.9,6.7,4,10.5,4,21.8,0,33.8-2.2,6.7-9.4,13.9-15.9,15.9-1.1.3-2.4.4-3.7.4ZM707.8,695.4c.2,3.3,1.4,16,9.5,31.4,10.3,19.6,11,32.1,11.5,40.3.2,3.7.4,6.4,1.3,8.1,1.9,3.3,7.9,9.1,13.2,7.5,4.1-1.3,10.1-6.6,11.8-11.9,3.6-10.7,3.6-20.4,0-29.6-1-2.5-1.9-4.5-2.8-6.3-2.3-4.9-4.1-8.7-3.4-16.9,2.5-27.3-1.9-34.5-4.8-36.3-9.8-6.3-21.5-4.9-25.2-4.2l-11.1,17.9Z"/>
    </g>
    <g>
      <path class="cls-7" d="M533,488.2s-4.4,94.7,15.2,137.1c12.5,27,40,51.4,70.7,64.2,35.5,14.8,79.1,23.4,79.1,23.4,0,0,15,3.5,26.1-8.7,10.9-12,4.4-30.5,4.4-30.5,0,0-17.1-3.9-42.8-17.2-26.3-13.7-45-16-45-16l-10.9-34.8,13.7-171.6-110.5,54.1Z"/>
      <path class="cls-5" d="M703.1,716.5c-3.2,0-5.3-.4-5.8-.5-1.6-.3-44.8-9.1-79.6-23.6-32.1-13.4-59.8-38.6-72.4-65.8-8.3-18-13.4-46.8-15.2-85.6-1.4-28.8-.3-52.7-.3-52.9l.1-1.9,117.1-57.4-14,176.5,10.1,32.4c5.6,1,22.2,4.6,44,16,24.9,13,41.8,16.9,42,17l1.7.4.6,1.6c.3.8,7,20.4-5,33.6-7.8,8.6-17.3,10.2-23.3,10.2ZM536.1,490.2c-.5,13.4-2.5,95.8,15,133.8,11.9,25.8,38.4,49.8,69.1,62.6,34.8,14.5,78,23.1,78.5,23.2h.1c.5.1,13.4,2.9,23.1-7.8,7.8-8.5,5.3-21.3,4.2-25.7-5.1-1.4-20.5-6-41.7-17.1-25.5-13.2-43.7-15.6-43.9-15.6l-2-.2-11.7-37.3,13.2-166.7-103.9,50.8Z"/>
    </g>
    <path class="cls-2" d="M533,488.2s-4.4,94.7,15.2,137.1c12.5,27,40,51.4,70.7,64.2,35.5,14.8,79.1,23.4,79.1,23.4,0,0,15,3.5,26.1-8.7,10.9-12,4.4-30.5,4.4-30.5,0,0-17.1-3.9-42.8-17.2-26.3-13.7-45-16-45-16l-10.9-34.8,13.7-171.6-110.5,54.1Z"/>
    <path class="cls-5" d="M703.1,716.5c-3.2,0-5.3-.4-5.8-.5-1.6-.3-44.8-9.1-79.6-23.6-32.1-13.4-59.8-38.6-72.4-65.8-8.3-18-13.4-46.8-15.2-85.6-1.4-28.8-.3-52.7-.3-52.9l.1-1.9,117.1-57.4-14,176.5,10.1,32.4c5.6,1,22.2,4.6,44,16,24.9,13,41.8,16.9,42,17l1.7.4.6,1.6c.3.8,7,20.4-5,33.6-7.8,8.6-17.3,10.2-23.3,10.2ZM536.1,490.2c-.5,13.4-2.5,95.8,15,133.8,11.9,25.8,38.4,49.8,69.1,62.6,34.8,14.5,78,23.1,78.5,23.2h.1c.5.1,13.4,2.9,23.1-7.8,7.8-8.5,5.3-21.3,4.2-25.7-5.1-1.4-20.5-6-41.7-17.1-25.5-13.2-43.7-15.6-43.9-15.6l-2-.2-11.7-37.3,13.2-166.7-103.9,50.8Z"/>
    <g>
      <path class="cls-7" d="M602.3,445.6s-23.9,99.1-16,175.4c2.2,21,26.6,166.8,26.6,166.8,0,0,13.3,2.1,26.7,0,13.3-2.1,20.5-7.2,20.5-7.2,0,0-1.2-16.2,1-73.8,1.6-43.7-14.9-76-14.9-76,0,0,1.1-29.4,20.7-77.2,17.7-43.3,45.9-96.7,44.6-119.7-.1-.1-64.8-4.2-109.2,11.7Z"/>
      <path class="cls-5" d="M626.7,791.8c-7.9,0-13.9-.9-14.3-1l-2.3-.3-.4-2.2c-1-6-24.5-146.1-26.7-167-7.8-76,15.8-175.5,16.1-176.5l.4-1.7,1.6-.6c44.5-15.9,107.7-12.1,110.4-11.9l2.8.2.2,2.8c1,17.5-13.5,49.9-28.9,84.3-5.5,12.3-11.2,25-16,36.7-17.4,42.6-20.1,70.5-20.4,75.4,2.6,5.4,16.4,36,14.9,76.8-2.1,56.7-1,73.3-1,73.5l.1,1.8-1.4,1c-.3.2-7.9,5.6-21.9,7.7-4.5.8-9.1,1-13.2,1ZM615.6,784.9c4.3.5,13.9,1.2,23.5-.3,9.1-1.4,15.2-4.3,17.7-5.8-.2-5.7-.7-25.1,1.1-72.2,1.6-42.3-14.4-74.1-14.6-74.4l-.4-.7v-.8c0-1.2,1.3-30.5,20.9-78.3,4.8-11.8,10.5-24.6,16-36.9,13.6-30.4,27.6-61.7,28.3-78.6-5.6-.2-18.7-.6-34.7.1-19.1.8-46.4,3.5-68.6,11.1-3,13.3-22.7,103.2-15.6,172.7,2.2,19.1,23.3,145.4,26.4,164.1Z"/>
    </g>
    <path class="cls-2" d="M612.5,444.6s-23.9,99.1-16,175.4c2.2,21,26.6,166.8,26.6,166.8,0,0,13.3,2.1,26.7,0,13.3-2.1,9.2-6.2,9.2-6.2,0,0,.9-17.2,3.1-74.9,1.6-43.7-14.4-76.9-14.4-76.9,0,0-.1-32.1,19.5-80,17.7-43.3,55.7-93,54.4-116,.1,0-64.7-4.1-109.1,11.8Z"/>
    <path class="cls-5" d="M626.7,791.8c-7.9,0-13.9-.9-14.3-1l-2.3-.3-.4-2.2c-1-6-24.5-146.1-26.7-167-7.8-76,15.8-175.5,16.1-176.5l.4-1.7,1.6-.6c44.5-15.9,107.7-12.1,110.4-11.9l2.8.2.2,2.8c1,17.5-13.5,49.9-28.9,84.3-5.5,12.3-11.2,25-16,36.7-17.4,42.6-20.1,70.5-20.4,75.4,2.6,5.4,16.4,36,14.9,76.8-2.1,56.7-1,73.3-1,73.5l.1,1.8-1.4,1c-.3.2-7.9,5.6-21.9,7.7-4.5.8-9.1,1-13.2,1ZM615.6,784.9c4.3.5,13.9,1.2,23.5-.3,9.1-1.4,15.2-4.3,17.7-5.8-.2-5.7-.7-25.1,1.1-72.2,1.6-42.3-14.4-74.1-14.6-74.4l-.4-.7v-.8c0-1.2,1.3-30.5,20.9-78.3,4.8-11.8,10.5-24.6,16-36.9,13.6-30.4,27.6-61.7,28.3-78.6-5.6-.2-18.7-.6-34.7.1-19.1.8-46.4,3.5-68.6,11.1-3,13.3-22.7,103.2-15.6,172.7,2.2,19.1,23.3,145.4,26.4,164.1Z"/>
    <path class="cls-7" d="M646.2,578.2c16.3-1.3,63,5.6,91.9-1.7,6.2-44.1-2.3-92.6-26.7-166.1-22.3-67.5-33.8-86.6-29.7-117.9,2.2-17.3,13.6-47.9,12.2-75.4-1.7-35.3-25-41.4-25-41.4-26.6-6.7-52-9.5-52-9.5-29.7,9.3-58.7,6.5-58.7,6.5-17.4,29.4-30.5,58.7-29.4,89.2.5,13,22.1,51.2,9.4,117.7-23.6,123.2-22.7,204.1-22.7,204.1,0,0,90.8-13.4,130.7-5.5Z"/>
    <path class="cls-4" d="M682.6,329.4c-8.3-18.9,13.3-78.5,11.9-106.1-1.7-35.3-23.8-46.3-23.8-46.3-18-4.9-49.2-14.4-49.2-14.4-46.3,6.6-52.7,4.7-52.7,4.7,0,0-31.8,56.5-29.8,89.3,2.1,33.8,18.5,51.3,18.5,76.9s-17.4,97.6-24.3,156.5c-7.1,60.8-9.8,94.3-9.8,94.3l75.6-8,140.3.4s-.3-34.6-10.5-101.8-46.2-145.5-46.2-145.5Z"/>
    <path class="cls-5" d="M664.2,176.6s-8.2,9.2-11.3,50.2c-2.1,28.4,18.8,52,18.8,52l15-17.1,47.9,56.2s-3.7,17.8,5.9,17.8c29.6,0,68.5-23.1,19.4-67.6-23.3-21.1-34-52.4-55.8-74.1-11.4-11.5-39.9-17.4-39.9-17.4Z"/>
    <path class="cls-5" d="M507.5,588.8v-3.6c0-.9,1.3-90.4,32.6-235,3.9-17.8-1.9-34.7-8.5-54.2-3.4-9.9-6.8-20.2-9.3-31.3-6.4-29.3,28.2-96.1,29.7-99l.9-1.6h1.9c.4,0,37.2-1.1,56.9-6.4l.8-.2.8.2c1.3.3,31.4,8,45.8,12.8,28,9.3,40,19.7,40.4,20.1l1.4,1.3-.5,1.9c0,.1-1.4,6-4.4,26.3-.9,6.2-1.9,12.9-3,19.6-4.7,30.2-9.9,64.5-8.3,80.1.7,6.6,3.5,13.5,7.7,24,3.3,8.2,7.5,18.5,12.2,32.5.6,1.6-.3,3.4-2,4-1.6.6-3.4-.3-4-2-4.6-13.8-8.7-23.9-12.1-32.1-4.4-11-7.4-18.2-8.2-25.7-1.7-16.4,3.4-49.6,8.3-81.7,1-6.7,2.1-13.3,3-19.6,2.1-14.5,3.5-21.8,4.1-24.9-3.8-2.8-15.5-10.6-36.9-17.8-12.9-4.3-39.6-11.2-44.6-12.5-18.1,4.7-47.9,6.1-55.7,6.4-5.3,10.5-33.7,68.3-28.3,93.1,2.4,10.8,5.8,20.9,9.1,30.6,6.6,19.5,12.9,38,8.7,57.5-27.6,127.7-31.8,212.1-32.4,230.1,17.5-2.2,94.1-11,146.4-8.3,46.5,2.4,69.2,1.7,76.7,1.2-.2-9-1.9-40-15-105.2-.3-1.7.8-3.4,2.5-3.7,1.7-.3,3.4.8,3.7,2.5,16,79.8,15.2,108.3,15.2,109.5l-.1,2.7-2.7.3c-.8.1-21.4,2-80.5-1-58.5-3-148,8.6-148.9,8.7l-3.4.4Z"/>
    <g>
      <line class="cls-1" x1="578.7" y1="179.2" x2="564.6" y2="160.8"/>
      <path class="cls-5" d="M578.7,182.4c-.9,0-1.9-.4-2.5-1.2l-14.1-18.5c-1.1-1.4-.8-3.4.6-4.4,1.4-1.1,3.4-.8,4.4.6l14.1,18.5c1.1,1.4.8,3.4-.6,4.4-.5.4-1.2.6-1.9.6Z"/>
    </g>
    <g>
      <path class="cls-7" d="M605.6,152.4c.8,3.4,18.6,12.8,23.9,15.3,7.1,3.3,17.2,4.1,17.2,4.1-11.3,15-14.4,50.9-14.4,50.9l-73.8,7.2s-4.1-18.5,3.1-40c10.2-30.7,8.2-25.6,8.2-25.6"/>
      <path class="cls-5" d="M556.1,233.3l-.6-2.7c-.2-.8-4.2-19.6,3.2-41.7,5.8-17.3,7.5-22.9,8-24.7,0-.4.1-.8.2-1.1,1-2.5,3.2-2.5,4.2-2.1,1.3.5,2.6,1.7,1.8,4.7-.2.7-.5,1.8-1.1,3.6-1.4,4.3-3.8,11.6-7.1,21.6-5.2,15.7-4.2,29.8-3.4,35.6l68.3-6.6c.9-7.9,4-31.2,11.9-45.5-3.8-.6-8.9-1.8-13.2-3.7-.2-.1-24.2-11.3-25.7-17.4-.4-1.7.6-3.4,2.3-3.8,1.6-.4,3.2.5,3.7,2,1.7,2.5,15,10.1,22.3,13.5,6.5,3,16.1,3.8,16.2,3.8l5.7.5-3.4,4.6c-10.6,14.1-13.7,48.9-13.7,49.3l-.2,2.6-79.4,7.5Z"/>
    </g>
    <g>
      <path class="cls-7" d="M592,162.4c-13.4,12.7-28.8,14.4-34.3,11s-20.9-17.3-22.8-28.6c-1.2-7.2-1.7-15-1.7-15l-4.6-11s-2.7-7.8-2.3-14.2c.9-15.5,7.1-27.6,22.9-33.8,17.4-6.9,36.6-5.9,48.7,9.6,11.1,14.2,8.5,27.4,8.5,27.4,0,0,8.3-1.7,10.5,7.3.5,2.2-5.1,22.6-5.1,22.6l-8.2,1c.7,32.4,31.8,31.1,41,33.8"/>
      <path class="cls-5" d="M564.7,178.1c-3.5,0-6.5-.7-8.6-2-4.7-2.9-22-17.5-24.2-30.8-1.1-6.3-1.5-12.9-1.7-14.8l-4.4-10.7c-.1-.3-2.9-8.4-2.5-15.4,1.1-18.4,9.2-30.4,24.8-36.6,21.1-8.3,40.6-4.4,52.3,10.5,8.3,10.7,9.5,20.9,9.5,26.2,4.1.6,8.6,3.3,10.2,9.7.2.8.7,3-5.2,24.2l-.6,2-7.4.9c1.9,21.9,20,24.8,32.2,26.8,2.5.4,4.7.8,6.4,1.3s2.6,2.2,2.1,3.9-2.2,2.6-3.9,2.1c-1.3-.4-3.3-.7-5.7-1.1-12.9-2.1-37-6-37.6-35.7l-.1-2.8,8.9-1.1c2.2-8.2,4.4-17.2,4.5-19.2-1.4-5.2-5.5-4.9-6.8-4.7l-4.5.8.8-4.5c.1-.5,2.1-12.1-7.9-24.9-4.7-6.1-18.6-19-45-8.6-13.3,5.2-19.9,15.1-20.9,31.1-.3,5.4,1.8,12,2.1,12.9l4.7,11.4v.5c0,.1.5,7.7,1.6,14.7,1.6,9.7,15.7,23,21.3,26.5,4.2,2.6,17.9,1.3,30.4-10.6,1.3-1.2,3.3-1.1,4.5.1,1.2,1.3,1.1,3.3-.1,4.5-8.2,7.7-16.2,11-21.5,12.3-2.5.8-5.2,1.1-7.7,1.1ZM613.9,115.4h0Z"/>
    </g>
    <path class="cls-5" d="M597.7,126.6s-5.8-3.6-6.4-10.5c-2.7-30.2-28.8-22.4-36.1-21.5s-10.1-3.7-10.1-3.7c0,0-3,6-5.5,6.9-9.1,3.2-12.3,7.8-12.3,7.8,0,0,.2-32.8,28.6-37.4s39.3,5.8,48.1,22.5c8.8,16.7-6.3,35.9-6.3,35.9Z"/>
    <path class="cls-5" d="M577,170.4l2.1,12.3,11.3,25.6,45.1-39,9.8,3.4-12.8,52-73.8,5.1s-1.7-22.7,2.1-36.9c4.2-16.7,16.2-22.5,16.2-22.5Z"/>
    <path class="cls-5" d="M590.3,840.2c-1,0-2.1,0-3.1-.1-19.6-1-25.2-5.1-25.8-5.6-.9-.7-1-2-.3-2.9s2-1,2.9-.3c0,0,5.2,3.7,23.4,4.7,12.7.7,22.5-3.2,33.8-7.6,5.8-2.3,11.8-4.6,18.8-6.7,17-5,30.2-12.1,30.4-12.1,1-.5,2.3-.2,2.8.8s.2,2.3-.8,2.8c-.6.3-13.7,7.3-31.2,12.5-6.9,2-12.8,4.3-18.5,6.6-10.9,4.1-20.4,7.9-32.4,7.9Z"/>
    <path class="cls-5" d="M554.5,252.5c-1,0-1.9-.8-2-1.9s.7-2.1,1.9-2.2l85.1-8.2c1.1-.1,2.1.7,2.2,1.9.1,1.1-.7,2.1-1.9,2.2l-85.1,8.2h-.2Z"/>
    <g>
      <path class="cls-7" d="M548.8,121.3s.7,4.8-1.4,13.7.7,10.3,8.2,9.6"/>
      <path class="cls-5" d="M552.8,146.6c-2.8,0-4.9-.5-6.4-2.2-1.7-1.9-1.9-4.9-.8-9.9,1.9-8.4,1.3-13,1.3-13-.1-1,.6-1.9,1.6-2.1,1-.1,1.9.6,2.1,1.6,0,.2.7,5.2-1.4,14.4-.8,3.5-.8,5.7,0,6.6.9,1.1,4.1.9,6.3.7,1-.1,1.9.7,2,1.7s-.7,1.9-1.7,2c-1,.2-2.1.2-3,.2Z"/>
    </g>
    <g>
      <path class="cls-7" d="M553,152.9s11-3.9,21.3-5.5c0,0-1.1,6.6-11.7,9.4"/>
      <path class="cls-5" d="M562.6,158.6c-.8,0-1.6-.6-1.8-1.4-.3-1,.3-2,1.3-2.3,4.9-1.3,7.5-3.4,8.8-5.1-8.8,1.8-17.2,4.7-17.3,4.8-1,.3-2-.2-2.4-1.1-.3-1,.2-2,1.1-2.4.5-.2,11.3-4,21.6-5.6l2.6-.4-.4,2.5c-.1.3-1.5,7.8-13,10.8-.2.2-.4.2-.5.2Z"/>
    </g>
    <g>
      <path class="cls-7" d="M558,112.9s9.6-3.2,17.7-2.4"/>
      <path class="cls-5" d="M558,114.7c-.8,0-1.5-.5-1.8-1.3-.3-1,.2-2,1.2-2.3.4-.1,10.1-3.3,18.5-2.5,1,.1,1.8,1,1.7,2-.1,1-1,1.8-2,1.7-7.6-.8-16.9,2.3-16.9,2.3-.3.1-.5.1-.7.1Z"/>
    </g>
    <g>
      <path class="cls-7" d="M531.5,120.2s1.8-2.7,9.6-2.7"/>
      <path class="cls-5" d="M531.5,122.1c-.4,0-.7-.1-1.1-.3-.9-.6-1.1-1.8-.5-2.6.4-.6,2.8-3.6,11.1-3.6,1,0,1.9.8,1.9,1.9s-.8,1.9-1.9,1.9c-6.4,0-8.1,2-8.1,2-.3.4-.8.7-1.4.7Z"/>
    </g>
    <g>
      <path class="cls-7" d="M568.5,160.8s2.7,0,4.6-1.4"/>
      <path class="cls-5" d="M568.5,162.7c-1,0-1.9-.8-1.9-1.9,0-1,.8-1.9,1.9-1.9.6,0,2.4-.2,3.5-1,.8-.6,2-.4,2.6.4.6.8.4,2-.4,2.6-2.3,1.8-5.4,1.8-5.7,1.8Z"/>
    </g>
    <ellipse class="cls-5" cx="567.43" cy="121.61" rx="1.9" ry="2.7" transform="translate(-12.89 121.99) rotate(-12.13)"/>
    <ellipse class="cls-5" cx="542.91" cy="127.62" rx="1.9" ry="2.7" transform="translate(-14.7 116.97) rotate(-12.13)"/>
    <path class="cls-5" d="M563.9,121.2c-.3,0-.6-.1-.8-.4-.3-.5-.2-1.1.2-1.4.2-.1,4.5-3.3,8.1-.4.4.4.5,1,.1,1.4s-1,.5-1.4.1c-2.4-1.9-5.5.3-5.6.4-.1.2-.4.3-.6.3Z"/>
    <path class="cls-5" d="M538.7,127.6c-.3,0-.6-.1-.8-.4-.3-.5-.2-1.1.2-1.4.2-.1,4.5-3.3,8.1-.4.4.4.5,1,.1,1.4s-1,.5-1.4.1c-2.4-1.9-5.5.3-5.6.4-.1.3-.4.3-.6.3Z"/>
    <g>
      <g>
        <path class="cls-7" d="M718.2,388.8c-4.1,15.7-1.1,24.4,0,41.7,1.1,17.3-16.6,45.7-16.6,45.7l-20.4-2.4s-.5-7.8-.8-17.1c-.4-11.2-.6-26.4-1.4-37.6-1.5-20.2-10.5-33.1-10.5-33.1l1.9-7.6,17.8-5.5,2.3-25.6,30.8,7s2.4,13.4-3.1,34.5Z"/>
        <path class="cls-5" d="M703.2,479.6l-25-2.9-.2-2.6c0-.1-.5-8-.8-17.2-.1-3.3-.2-6.9-.3-10.6-.2-8.9-.5-19-1.1-26.8-1.4-19.1-9.8-31.6-9.9-31.7l-.8-1.2,2.7-10.7,17.5-5.4,2.4-27.1,36.3,8.3.4,2c.1.6,2.5,14.3-3.2,35.8h0c-2.9,11-2.1,18.4-1,28.5.4,3.6.8,7.6,1.1,12.2,1.2,18.1-16.3,46.4-17.1,47.6l-1,1.8ZM684.2,471.1l15.8,1.8c3.7-6.3,16-28.4,15.1-42.2-.3-4.4-.7-8.2-1.1-11.9-1.1-10.4-2-18.6,1.2-30.8h0c4.1-15.5,3.7-26.7,3.3-31.1l-25.1-5.7-2.2,24.1-18.1,5.6-1.1,4.6c2.3,3.8,8.9,16,10.2,33.6.6,8,.9,18.2,1.1,27.1.1,3.7.2,7.3.3,10.5.1,5.9.4,11.3.6,14.4Z"/>
      </g>
      <path class="cls-6" d="M719.9,388.6c-2.8,15.5-4.4,21.2-2.9,38.4s-15.3,48-15.3,48l-8.8-2.6s-8.3,8.5-8.8-.8c-.7-11.2-5.1-43.2-6.1-54.3-1.8-20.3-8.3-35-8.3-35l-1.6-5.8,21.9-.5.2-25.4,31.1,3.7c0,.1,2.4,13.4-1.4,34.3Z"/>
      <path class="cls-5" d="M703.2,479.6l-25-2.9-.2-2.6c0-.1-.5-8-.8-17.2-.1-3.3-.2-6.9-.3-10.6-.2-8.9-.5-19-1.1-26.8-1.4-19.1-9.8-31.6-9.9-31.7l-.7-1.1,2.1-11.7,16.8-1.4,4.2-27.6,35.7,5.6.4,2.2c.1.6,2.5,14.3-3.2,35.8h0c-2.9,11-2.1,18.4-1,28.5.4,3.6.8,7.6,1.1,12.2,1.2,18.1-16.3,46.4-17.1,47.6l-1,1.7ZM684.2,471.1l15.8,1.8c3.7-6.3,16-28.4,15.1-42.2-.3-4.4-.7-8.2-1.1-11.9-1.1-10.4-2-18.6,1.2-30.8h0c4-15.3,3.7-26.5,3.3-30.9l-24.9-3.9-4,26.3-17,1.4-.8,4.4c2.3,3.7,9,15.9,10.3,33.7.6,8,.9,18.2,1.1,27.1.1,3.7.2,7.3.3,10.5.2,6,.5,11.4.7,14.5Z"/>
      <path class="cls-5" d="M690.7,477.1c-.3,0-.6-.1-.8-.2-1-.5-1.5-1.7-1.1-2.7.2-.4,15.7-36.3,15.2-48.3-.1-3.5-.6-6.7-1-9.8-1.1-7.9-2.2-16,1.5-30,4.8-18.4,3.6-30.1,3.6-30.2-.1-1.1.7-2.2,1.8-2.3,1.1-.1,2.2.7,2.3,1.8.1.5,1.4,12.5-3.7,31.7-3.4,13.2-2.4,20.6-1.4,28.4.4,3.2.9,6.5,1,10.2.5,12.9-14.9,48.6-15.6,50.1-.3.8-1,1.3-1.8,1.3Z"/>
      <path class="cls-5" d="M665.8,388c-2.3-1.4-2.7-4.1.9-16.9.7-2.3,12.7-1.9,13.3-5,3.7-21,11.5-30.1,16.5-17.4,3.2,8.2-1.4,27.5-3.7,32.4-2.2,4.9-16-.6-17.8,2.7-3.6,6.7-6.7,5.7-9.2,4.2Z"/>
    </g>
    <g>
      <path class="cls-7" d="M679.4,318.5l-13,18.3-1.4,17.3,9.3,15.8,7.5.3s5,.9,8.2-1.5c3.3-2.4,7.7-12.3,7.7-12.3,0,0,12.4-8.5,17.9-13.1s8.7-9.6,8.7-9.6c0,0,40.9-2,45.8-11.8,6.6-13.2-12.4-29.6-36.3-19.9-23.9,9.7-34.5,12.6-34.5,12.6l-19.9,3.9Z"/>
      <path class="cls-5" d="M683.9,373.5c-1.1,0-2-.1-2.4-.2l-9.1-.4-10.6-18.1,1.5-19.2,14.2-20,21.1-4.1c1.1-.3,11.9-3.5,34-12.5,11.5-4.7,27.4-4.9,36.9,5.4,5.2,5.6,6.4,12.7,3.3,18.8-5.1,10.3-37.2,12.9-47,13.4-1.4,1.9-4.3,5.5-8.4,9-4.8,4-14.6,10.9-17.4,12.8-1.3,2.8-5,10.3-8.3,12.8-2.4,1.9-5.5,2.3-7.8,2.3ZM676.1,366.8l6.2.3c1,.2,4.1.3,5.8-1,1.8-1.3,5-7.4,6.7-11.1l.4-.8.7-.5c.1-.1,12.3-8.5,17.6-12.9,5-4.2,8-8.8,8-8.9l.9-1.4,1.6-.1c18.8-.9,40.7-5,43.2-10.1,1.9-3.8,1-8.1-2.3-11.7-5.4-5.8-16.7-9.2-29.9-3.8-23.8,9.7-34.4,12.6-34.8,12.8l-.2.1-18.8,3.7-11.7,16.5-1.2,15.5,7.8,13.4Z"/>
    </g>
    <path class="cls-5" d="M674.1,370.3h-.1c-1.1-.1-2-1.1-1.9-2.2l1.3-21,8.5-13.7c.6-1,1.9-1.3,2.8-.7,1,.6,1.3,1.9.7,2.8l-8,12.8-1.3,20c0,1.2-.9,2-2,2Z"/>
    <path class="cls-5" d="M681.4,372.2h-.4c-1.1-.2-1.8-1.3-1.6-2.4l3.7-18.7,8.9-13.1c.6-.9,1.9-1.2,2.9-.5.9.6,1.2,1.9.5,2.9l-8.4,12.5-3.6,17.9c-.2.8-1.1,1.4-2,1.4Z"/>
    <path class="cls-5" d="M737.1,774.1c-1.2,0-2-.1-2.1-.1-1.1-.2-1.9-1.2-1.7-2.4.2-1.1,1.2-1.9,2.4-1.7.3,0,7.3,1.1,13.3-4.9.8-.8,2.1-.8,2.9,0,.8.8.8,2.1,0,2.9-5.4,5.4-11.6,6.2-14.8,6.2Z"/>
    <g>
      <path class="cls-7" d="M874.7,637.1s-18.3,8.2-10.1,45.7c5.8,26.4,22.6,77.2,27.5,77.2.5,0,134.3,20.1,134.3,20.1,0,0,42.8-29.1,38.8-62.3s-10.7-41.3-10.7-41.3c0,0-10.8-5-20-9.3-9.1-4.3-16.6-8-26.6-11.3-21-7-33.9-7.4-80.3-14.2-31-4.6-52.9-4.6-52.9-4.6Z"/>
      <path class="cls-7" d="M1029.4,793l-4.8-.7c-35.3-5.3-126.6-19-133.6-20-8.9-.7-12.9-9.6-15.6-15.6-2.4-5.3-5.3-12.7-8.3-21.4-5.9-17-11.5-36.5-14.5-49.9-10.1-46,14.3-58.4,17.1-59.6l2.4-1.1h2.7c.9,0,23.2.1,54.8,4.7,11.4,1.7,20.6,2.9,28.7,4.1,24.5,3.4,36.8,5.1,53.7,10.7,9.9,3.3,17.4,6.8,26,10.9l2,1c9,4.2,19.7,9.2,19.8,9.3l2.5,1.2,1.8,2.1c2.7,3.2,9.4,14.4,13.4,47.7,2.1,17.2-5.2,35.7-20.9,53.3-11.1,12.4-22.7,20.4-23.2,20.7l-4,2.6ZM892.1,772.4h0ZM898.7,748.5c10.8,1.6,40.4,6,124.5,18.6,11.6-9,31.9-29.1,29.7-47.9-2.4-19.6-5.6-29.3-7.3-33.2-4-1.8-10.5-4.9-16.3-7.6l-2-1c-8.2-3.9-14.7-7-23.2-9.8-14.7-4.9-24.8-6.3-49.2-9.7-8.2-1.1-17.4-2.4-28.9-4.1-22.1-3.2-39.5-4.1-47.1-4.4-3,3.7-5.9,13.1-2.1,30.6,5.2,24.3,16.8,57.9,21.9,68.5ZM892.2,747.6c.3,0,.7,0,2.3.3-.6-.2-1.4-.3-2.3-.3Z"/>
    </g>
    <ellipse class="cls-2" cx="1008.5" cy="776.5" rx="111.4" ry="28.7"/>
    <g>
      <path class="cls-7" d="M940.2,772.7c46.3.3,68.3-7.1,90.8-14.3,5.1-1.6,9.8-2.7,14-3.4l5.6-79.5c-4.1-1.3-8.6-3-13.4-5.4-21.3-10.3-41.9-20.7-87.9-26.9-29.5-4-59.5-5.9-74.7-6.6,0,0-18.7,27-18.7,85.5,0,35.3,14.5,47.3,14.5,47.3,15.2,1.3,40.1,3.1,69.8,3.3Z"/>
      <path class="cls-6" d="M941.7,771.9c48.4.3,60.5-5,84-12.5,5.3-1.7,17.5-5.5,22-6.3l4.7-67.1c-4.3-1.4-7.8-3.1-12.9-5.5-22.2-10.8-44-19.8-91.9-26.3-30.8-4.2-49.8-5.5-65.6-6.2,0,0-10.5,10.2-13.3,49.8s4.6,72.1,4.6,72.1c0,0,37.2,1.7,68.4,2Z"/>
      <g>
        <ellipse class="cls-5" cx="1050.03" cy="715.01" rx="38.9" ry="9.5" transform="translate(262.79 1712.05) rotate(-85.96)"/>
        <path class="cls-5" d="M1047.5,757h-.4c-4.3-.3-7.2-5-8.8-14.5-1.3-7.7-1.6-17.8-.9-28.4.8-10.6,2.5-20.5,4.9-28,2.9-9.1,6.4-13.4,10.7-13.1,4.3.3,7.2,5,8.8,14.5,1.3,7.7,1.6,17.8.9,28.4-.1,1.7-3.1,41.1-15.2,41.1ZM1047.8,750.7h0ZM1052.6,679.5c-.8.7-2.7,3.3-4.7,10.1s-3.5,15.7-4.1,25c-.7,9.3-.5,18.3.6,25.3,1,7,2.5,9.9,3.3,10.6.8-.7,2.7-3.3,4.7-10.1s3.5-15.7,4.1-25c.7-9.3.5-18.3-.6-25.3s-2.6-9.8-3.3-10.6Z"/>
      </g>
      <path class="cls-5" d="M943,775.9h-2.8c-29.6-.2-54.4-2-70.1-3.4h-.3c-.5-.1-1.5-.3-1.9-.3-13.3-.9-16.8-37.4-14.4-70.8,1.3-17.9,4.2-34.7,8.2-47.3,4.6-14.2,10-21.2,16-20.8h.1c7.2.5,44.5,3.1,72,6.8,45.3,6.1,66.6,16.5,87.3,26.5l1.5.8c4.4,2.1,8.6,3.8,13,5.2l2.4.7-6,84.4-2.5.4c-4.5.8-9,1.8-13.6,3.3l-1.6.5c-21.3,6.9-43.4,14-87.3,14ZM870.9,766.2c15.5,1.4,40.1,3.2,69.4,3.4,44.7.3,66.8-6.8,88.1-13.6l1.6-.5c4.1-1.3,8-2.3,12-3.1l5.3-74.6c-3.9-1.3-7.6-2.9-11.5-4.8l-1.5-.8c-20.2-9.8-41-19.9-85.3-25.9-27.3-3.7-64.4-6.3-71.5-6.8h-.2c-1.2,0-5.2,2.9-9.5,16.4-3.9,12.1-6.7,28.3-7.9,45.8-2.9,40.9,4.2,63.7,8.6,64.1.7.1,1.9.3,2.4.4Z"/>
    </g>
    <g>
      <polygon class="cls-7" points="1013.6 774 999.2 785.6 1012.3 796.6 1033.5 802.7 1044.5 788.3 1033.5 782.2 1030.8 771.2 1013.6 774"/>
      <path class="cls-5" d="M1034.7,806.4l-24-7-16.5-13.9,18-14.6,20.8-3.3,3.1,12.5,12.9,7.3-14.3,19ZM1013.8,793.7l18.5,5.4,7.5-9.8-9-5.1-2.4-9.5-13.5,2.2-10.8,8.7,9.7,8.1Z"/>
    </g>
    <polygon class="cls-6" points="1019.1 778.1 1004.7 789.7 1017.8 800.7 1033.5 803.4 1043.8 788.3 1039 786.3 1036.3 775.3 1019.1 778.1"/>
    <path class="cls-5" d="M1034.7,806.4l-24-7-16.5-13.9,18-14.6,20.8-3.3,3.1,12.5,12.9,7.3-14.3,19ZM1013.8,793.7l18.5,5.4,7.5-9.8-9-5.1-2.4-9.5-13.5,2.2-10.8,8.7,9.7,8.1Z"/>
    <g>
      <path class="cls-7" d="M1161.7,604.2s-41-10.4-64.7,9.3-21.1,61.9-21.1,61.9c0,0,41,10.4,64.7-9.3s21.1-61.9,21.1-61.9Z"/>
      <path class="cls-5" d="M1100.3,681.3c-13.6,0-24.4-2.6-25.3-2.9l-2.2-.6-.1-2.3c-.1-1.8-2.4-44.1,22.3-64.5,24.7-20.4,65.8-10.4,67.5-9.9l2.2.6.1,2.3c.1,1.8,2.4,44.1-22.3,64.5-12.3,10.2-28.6,12.8-42.2,12.8ZM1078.9,672.8c8.8,1.7,40.6,6.6,59.6-9.2,19.1-15.8,20.2-47.9,20.1-56.9-8.8-1.7-40.6-6.6-59.6,9.2-19.1,15.8-20.2,48-20.1,56.9Z"/>
    </g>
    <path class="cls-3" d="M1165.3,609.7s-36.8-9.3-58.1,8.4-19,55.6-19,55.6c0,0,36.8,9.3,58.1-8.4s19-55.6,19-55.6Z"/>
    <path class="cls-5" d="M1100.3,681.3c-13.6,0-24.4-2.6-25.3-2.9l-2.2-.6-.1-2.3c-.1-1.8-2.4-44.1,22.3-64.5,24.7-20.4,65.8-10.4,67.5-9.9l2.2.6.1,2.3c.1,1.8,2.4,44.1-22.3,64.5-12.3,10.2-28.6,12.8-42.2,12.8ZM1078.9,672.8c8.8,1.7,40.6,6.6,59.6-9.2,19.1-15.8,20.2-47.9,20.1-56.9-8.8-1.7-40.6-6.6-59.6,9.2-19.1,15.8-20.2,48-20.1,56.9Z"/>
    <path class="cls-5" d="M1075.8,677.5c-.3,0-.6-.1-.9-.2-1-.5-1.5-1.7-1-2.7.4-.9,10.1-21.3,38.1-43.5,28-22.2,48.2-28.5,49-28.8,1.1-.3,2.2.3,2.6,1.4.3,1.1-.3,2.2-1.4,2.6-.2.1-20.4,6.4-47.7,28-27.2,21.6-36.8,41.8-36.9,42-.3.7-1,1.2-1.8,1.2Z"/>
    <path class="cls-5" d="M1053.5,718s17.8-4.1,21.9,12.3c0,0,8.2-8.2,23.3-1.4s13.7,20.5,13.7,20.5c0,0-3.5.5-9.6,10-3,4.6-18.5-3.4-18.5-3.4,0,0-6.9,6.2-19.2,6.2-17,0-20.6-6.2-20.6-6.2l9-38Z"/>
    <path class="cls-5" d="M923.2,771.7c-.6,0-1.2-.3-1.6-.8-.7-.9-.6-2.2.3-2.9l39.6-32.2.3-.1,38.5-14.1,18.2,12.9,21.2-21.2c.8-.8,2.1-.8,2.9,0,.8.8.8,2.1,0,2.9l-23.6,23.6-19.3-13.6-36.2,13.2-39,31.8c-.4.3-.9.5-1.3.5Z"/>
    <path class="cls-5" d="M1052.5,714.9c-.6,0-1.1-.2-1.7-.5-1.5-.9-1.9-2.9-1-4.3l24.1-38.6c.9-1.5,2.9-1.9,4.3-1,1.5.9,1.9,2.9,1,4.3l-24.1,38.6c-.5.9-1.5,1.5-2.6,1.5Z"/>
    <path class="cls-5" d="M1094,704.2c-.4,0-.8-.1-1.2-.2-22.5-9.1-45.3-8.7-45.5-8.7h-.1c-1.7,0-3.1-1.4-3.1-3.1s1.3-3.2,3.1-3.2c1,0,24.3-.4,48,9.2,1.6.7,2.4,2.5,1.7,4.1-.5,1.2-1.6,1.9-2.9,1.9Z"/>
    <path class="cls-5" d="M979.8,757c-.6,0-1.3-.3-1.7-.8-.7-.9-.5-2.2.4-2.9l9.4-7-3.8-15.6c-.3-1.1.4-2.2,1.5-2.5s2.2.4,2.5,1.5l4.4,18.2-11.6,8.6c-.2.4-.7.5-1.1.5Z"/>
    <path class="cls-7" d="M1167.8,787.9s10.4-41-9.3-64.7-61.9-21.1-61.9-21.1c0,0-10.4,41,9.3,64.7,19.7,23.7,61.9,21.1,61.9,21.1Z"/>
    <path class="cls-3" d="M1167.5,787.7s5.3-33.9-12.9-55.9c-18.2-21.9-57.3-19.6-57.3-19.6,0,0-8.7,34,9.5,55.9,18.3,22,60.7,19.6,60.7,19.6Z"/>
    <path class="cls-5" d="M1163.8,791.1c-11.5,0-43.4-1.9-60.3-22.4-20.4-24.7-10.4-65.8-9.9-67.5l.6-2.2,2.3-.1c1.8-.1,44.1-2.4,64.5,22.3s10.4,65.8,9.9,67.5l-.6,2.2-2.3.1c-.3,0-1.8.1-4.2.1ZM1167.8,787.9h0ZM1099.2,705.1c-1.7,8.8-6.6,40.6,9.2,59.6,15.8,19.1,48,20.2,56.9,20.1,1.7-8.8,6.6-40.6-9.2-59.6-15.8-19.1-47.9-20.2-56.9-20.1Z"/>
    <path class="cls-5" d="M1167.8,789.9c-.9,0-1.7-.6-2-1.4-23-70.5-69.3-84.4-69.8-84.5-1.1-.3-1.7-1.5-1.4-2.5.3-1.1,1.5-1.7,2.5-1.4.5.1,12.5,3.6,27.5,16.2,13.8,11.5,32.7,33.2,45.1,71,.4,1.1-.2,2.2-1.3,2.6-.2,0-.4,0-.6,0Z"/>
    <path class="cls-7" d="M1234.8,697.4s-16.9-31.5-42.7-35.1c-25.8-3.6-50.6,22.1-50.6,22.1,0,0,16.9,31.5,42.7,35.1s50.6-22.1,50.6-22.1Z"/>
    <path class="cls-3" d="M1233.8,702.9s-15.4-28.6-38.8-31.8-46,20.1-46,20.1c0,0,15.4,28.6,38.8,31.8s46-20.1,46-20.1Z"/>
    <path class="cls-5" d="M1189.1,723c-1.8,0-3.6-.1-5.3-.4-11.3-1.6-22.7-8.4-32.9-19.9-7.6-8.5-11.9-16.5-12.1-16.8l-1.1-2,1.6-1.7c.3-.3,6.6-6.8,16.2-12.9,13-8.2,25.8-11.7,37.1-10.2,11.3,1.6,22.7,8.4,32.9,19.9,7.6,8.5,11.9,16.5,12.1,16.8l1.1,2-1.6,1.7c-.3.3-6.6,6.8-16.2,12.9-11,7-21.9,10.6-31.8,10.6ZM1145.5,685c4.2,6.8,19,28.6,39.2,31.4,20.2,2.8,40.3-14.1,46.2-19.5-4.2-6.8-19-28.6-39.2-31.4-20.2-2.8-40.3,14.1-46.2,19.5Z"/>
    <path class="cls-5" d="M1234.8,699.5c-.3,0-.7-.1-1-.3-54.4-30.8-91.1-13.1-91.4-12.9-1,.5-2.3.1-2.8-.9s-.1-2.3.9-2.8c1.6-.8,39-18.8,95.3,13,1,.6,1.3,1.8.8,2.8-.3.7-1,1.1-1.8,1.1Z"/>
    <path class="cls-5" d="M1078.7,763.3c-10.2,0-16.8,13.8,2.2,16.8,4.7.7,10-8.1,10.2-10.2.8-6.5-4.7-6.6-12.4-6.6Z"/>
    <path class="cls-7" d="M389.9,316.1c-.9,0-1.7-.6-2-1.5-.3-1.1.3-2.2,1.4-2.6.4-.1,42.7-12.5,84.5-10.3,1.1.1,2,1,2,2.2-.1,1.1-1,2-2.2,2-41.1-2.1-82.7,10.1-83.1,10.2-.2,0-.4,0-.6,0Z"/>
    <g>
      <path class="cls-7" d="M447.6,120.3s-3.7,4.1,3.5,17.7c4.1,7.7-8,10-11.1,7.7"/>
      <path class="cls-5" d="M443.5,148.4c-1.8,0-3.5-.4-4.7-1.3-.8-.6-1-1.8-.3-2.6.6-.8,1.8-1,2.6-.3,1.1.8,5.6.7,7.9-1.2.8-.7,1.7-1.8.4-4.1-7.5-14-4-18.9-3.2-19.8l2.7,2.5.1-.1s-2.6,3.8,3.7,15.6c1.8,3.3,1.3,6.5-1.3,8.7-2,1.7-5.1,2.6-7.9,2.6Z"/>
    </g>
    <g>
      <path class="cls-7" d="M447,154.2h-9.3c-5.1,0-7.4-.8-12.8.2,0,0,.5,2.9,3.2,4.2,2.7,1.4,10.3,1.4,10.3,1.4"/>
      <path class="cls-5" d="M438.5,161.9c-.8,0-8.1,0-11.1-1.6-3.6-1.8-4.2-5.4-4.2-5.6l-.3-1.8,1.8-.3c3.9-.7,6.3-.6,9.1-.4,1.2.1,2.5.1,4,.2h9.2c1,0,1.8.8,1.9,1.8,0,1-.8,1.9-1.8,1.9h-9.3c-1.6,0-3-.1-4.2-.2-2-.1-3.7-.2-5.9,0,.3.4.8.8,1.3,1.1,1.7.9,6.7,1.2,9.5,1.2,1,0,1.9.8,1.9,1.9-.1,1-.9,1.8-1.9,1.8Z"/>
    </g>
    <g>
      <path class="cls-7" d="M418.6,111s8.7-2.7,20.6,1.8"/>
      <path class="cls-5" d="M439.2,114.7c-.2,0-.4,0-.7-.1-11.1-4.3-19.3-1.8-19.3-1.8-1,.3-2-.2-2.3-1.2s.2-2,1.2-2.3c.4-.1,9.4-2.9,21.8,1.9,1,.4,1.4,1.4,1.1,2.4-.4.7-1.1,1.1-1.8,1.1Z"/>
    </g>
    <g>
      <path class="cls-7" d="M454.8,115s4.7-1,11.3.7"/>
      <path class="cls-5" d="M466.1,117.5c-.1,0-.3,0-.5-.1-6.1-1.5-10.5-.7-10.5-.7-1,.2-2-.4-2.2-1.4s.4-2,1.4-2.2c.2,0,5.2-1,12.2.7,1,.2,1.6,1.3,1.3,2.3-.1.8-.9,1.4-1.7,1.4Z"/>
    </g>
    <path class="cls-5" d="M431.3,120.6c-.5,0-1-.4-1-.9,0-.2-.2-.4-.5-.5-1-.4-2.9-.3-4.3.7-.5.3-1.1.2-1.4-.3s-.2-1.1.3-1.4c1.9-1.3,4.6-1.7,6.3-.9,1,.4,1.6,1.2,1.7,2.1.1.6-.3,1.1-.9,1.1q-.1.1-.2.1Z"/>
    <path class="cls-5" d="M457.4,124.2h-.1c-.6-.1-1-.6-.9-1.2.1-.4.1-1-.3-1.2-.6-.3-2.1.1-3.2,1-.4.4-1.1.3-1.5-.1-.4-.4-.3-1.1.1-1.5,1.5-1.3,3.9-2.2,5.5-1.3.6.3,1.6,1.2,1.3,3.3.1.6-.4,1-.9,1Z"/>
    <path class="cls-5" d="M436.1,166.7h-4.5c-1,0-1.9-.8-1.9-1.9s.8-1.9,1.9-1.9h4.5c1,0,1.9.8,1.9,1.9s-.9,1.9-1.9,1.9Z"/>
    <g>
      <polyline class="cls-7" points="315.8 215.2 325.4 204.3 343.2 200.2"/>
      <path class="cls-5" d="M315.8,217.1c-.4,0-.9-.2-1.2-.5-.8-.7-.8-1.8-.2-2.6l10-11.4,18.4-4.2c1-.2,2,.4,2.2,1.4s-.4,2-1.4,2.2l-17.2,4-9.2,10.5c-.4.4-.9.6-1.4.6Z"/>
    </g>
    <path class="cls-5" d="M318.5,229.4c-.4,0-.9-.2-1.2-.5-.8-.7-.8-1.8-.2-2.6l9.9-11.3,17.8-8.5c.9-.4,2,0,2.5.9.4.9,0,2-.9,2.5l-17.1,8.2-9.3,10.7c-.5.4-1,.6-1.5.6Z"/>
    <path class="cls-5" d="M823.8,316.5c-1.3,0-2.5-.8-2.9-2-.1-.4-3.7-9.7-5.4-14.8-2.1-6.2-3.4-16.1-3.5-16.5-.2-1.7,1-3.3,2.7-3.5s3.3,1,3.5,2.7c0,.1,1.3,9.8,3.2,15.4,1.7,5,5.2,14.4,5.3,14.5.6,1.6-.2,3.4-1.8,4.1-.4.1-.8.1-1.1.1Z"/>
  </g>
</svg>