<?xml version="1.0" encoding="UTF-8"?>
<svg id="Ebene_23" data-name="Ebene 23" xmlns="http://www.w3.org/2000/svg" xmlns:xlink="http://www.w3.org/1999/xlink" viewBox="0 0 384 256">
  <defs>
    <style>
      .cls-1 {
        clip-path: url(#clippath);
      }

      .cls-2 {
        fill: none;
      }

      .cls-2, .cls-3, .cls-4, .cls-5, .cls-6, .cls-7, .cls-8 {
        stroke-width: 0px;
      }

      .cls-3 {
        fill: #007b91;
        opacity: .6;
      }

      .cls-3, .cls-4 {
        isolation: isolate;
      }

      .cls-4 {
        fill: #dedcd2;
        opacity: .4;
      }

      .cls-5 {
        fill: #454440;
      }

      .cls-6 {
        fill: #da2323;
      }

      .cls-7 {
        fill: #afcd5f;
      }

      .cls-8 {
        fill: #fff;
      }
    </style>
    <clipPath id="clippath">
      <polygon class="cls-2" points="375.4 218.3 4.5 218.3 8.6 29.6 379.5 29.6 375.4 218.3"/>
    </clipPath>
  </defs>
  <g class="cls-1">
    <path class="cls-4" d="M254.4,246.1h-102.7c-18.6,0-33.6-20.6-33.6-20.6V67c0-18.6,15-33.6,33.6-33.6h102.7c18.6,0,33.6,15,33.6,33.6v145.5c0,18.6-15.1,33.6-33.6,33.6Z"/>
  </g>
  <g>
    <path class="cls-8" d="M201.6,93.6s1.6,1,7-.3,6-4.5,6-4.5c0,0-1.6-3.5-2-7.2-.4-3.3.1-6.3-1.4-11.4-1.4-4.8-5.1-5.4-8.1-5.1-3.1.2-5.6,2.1-6.7,5.3s-1,7.4-.5,10,3.8,8.4,3.8,8.4l1.9-.3,1.3-.3"/>
    <path class="cls-8" d="M203.8,99.6c-2.6,0-4.2-.6-5.2-1.2-1.7-1.1-2.7-2.9-2.7-4.8l-1.2-2c-1.1-2-3.9-7-4.5-10.1-.7-3.4-.9-8.7.7-13,1.9-5.3,6.2-8.7,11.7-9.1,7-.6,12.2,2.8,14.1,9.2,1.3,4.2,1.3,7.3,1.4,9.8,0,1,.1,1.8.1,2.6.3,2.2,1.2,4.7,1.6,5.5l.8,1.7-.4,1.8c-.2,1.1-1.8,6.8-10.3,8.8-2.5.6-4.5.8-6.1.8ZM202.9,82.4c1.6,0,3.2.7,4.2,1.9-.1-.7-.2-1.3-.3-2-.1-1.3-.2-2.4-.2-3.5-.1-2.1-.1-4.1-1-6.9-.3-.9-.3-1.2-2.2-1-.7.1-1.3.3-1.8,1.6-.7,1.9-.6,4.9-.2,6.9.1.5.6,1.7,1.4,3.2l.1-.2Z"/>
  </g>
  <g>
    <path class="cls-8" d="M194.5,145.7l.1,12.1,9.9,55.1s1.7.4,4.6.2c3-.2,3.9-.4,3.9-.4l-.9-51.6,4.4,27.1,2.3,23.1,9.1,1.1.8-26.1-1.9-41.6-15,.6-17.3.4Z"/>
    <path class="cls-8" d="M207.5,217.3c-2.3,0-3.7-.3-4-.4l-2.6-.6-10.5-58-.1-16.4,21.4-.5,19-.7,2.1,45.8-1,30.7-14.7-1.8v.7l-3.2.7c-.3.1-1.5.3-4.5.5-.7-.1-1.3,0-1.9,0ZM198.6,157.4l9.3,51.6h.9l-.8-47.8,8.1-.7,4.4,27.3,2,19.8,1.4.2.7-21.4-1.7-37.4-10.9.4-13.4.3v7.7Z"/>
  </g>
  <g>
    <path class="cls-8" d="M289.1,195.9s18.2,0,34.5-2.9c0,0,.5-4.6,0-10.9-.5-5.3-2.4-5.9-2.4-11.5s-.6-45.2-2.3-65.9c-1.9-21.7-10.7-23.2-15-23.2-26.5,0-95.5.3-142.6,3.8-8,.6-15.1.7-25.2,6.2-14.8,8-35.6,28-47.2,38.1-14,12.2-22.5,13.3-32,16.5-5.3,1.8-10.1,3.1-14.3,9.8-2.6,4.1-5.2,11-5.2,18.2l-1.5,1.8s-1.2,1.2-1.3,4.4c-.1,3.4.9,11.4.9,11.4,0,0,6.2,7.8,14.7,8.5s10.9.5,10.9.5l228-4.8Z"/>
    <path class="cls-8" d="M60.2,206.6c-1.6,0-4.7-.1-10.5-.6-10.7-.9-17.9-9.7-18.7-10.7l-1-1.3-.2-1.6c-.1-.9-1-8.6-.9-12.3.1-4.4,1.8-6.9,2.7-8l.2-.2c.4-7.8,3.3-14.9,6-19.1,5.1-8,11.1-10,16.4-11.8l.9-.3c1.7-.6,3.3-1.1,4.9-1.6,7.4-2.3,14.5-4.5,25.2-13.8,2.3-2,4.9-4.4,7.8-6.9,11.8-10.6,28-25.1,40.5-31.9,10.5-5.7,18.3-6.2,25.8-6.8l1.7-.1c41.8-3.2,100.8-3.8,143-3.8,8.3,0,18.6,4.9,20.6,28.5,1.7,20.3,2.3,59.5,2.3,66.4,0,2,.3,2.8.8,4.2.6,1.6,1.3,3.5,1.6,6.8.6,6.8,0,11.8,0,12.1l-.5,4.2-4.2.7c-16.3,2.9-34,3-35.4,3l-227.8,4.9c-.3-.1-.6,0-1.2,0ZM41,189.3c1.9,2,5.7,4.9,9.7,5.3,7.6.6,10,.5,10,.5h.3l228-4.9c.2,0,14.7,0,29-2.1,0-1.5,0-3.4-.2-5.5-.1-1.7-.5-2.5-.9-3.7-.7-1.8-1.5-4.1-1.5-8.2,0-6.8-.6-45.4-2.3-65.4-1-11.9-4.1-18-9.2-18-59.3,0-109.8,1.4-142.2,3.8l-1.8.1c-6.9.5-12.9.9-21.2,5.4-11.3,6.1-26.9,20.1-38.3,30.3-2.9,2.6-5.6,5-7.9,7-12.5,10.9-21.4,13.7-29.3,16.1-1.6.5-3,1-4.6,1.5l-1,.3c-4.7,1.6-7.5,2.6-10.4,7.1-2,3.1-4.3,8.9-4.3,15v2.1l-2.7,3.3c0,.2-.1.5-.1,1,.2,1.9.6,5.9.9,9Z"/>
  </g>
  <g>
    <circle class="cls-8" cx="84.2" cy="198.3" r="19.6"/>
    <path class="cls-8" d="M84.2,223.6c-14,0-25.3-11.4-25.3-25.3s11.4-25.3,25.3-25.3,25.3,11.4,25.3,25.3-11.3,25.3-25.3,25.3ZM84.2,184.4c-7.7,0-13.9,6.2-13.9,13.9s6.2,13.9,13.9,13.9,13.9-6.2,13.9-13.9-6.3-13.9-13.9-13.9Z"/>
  </g>
  <g>
    <circle class="cls-8" cx="268.7" cy="198.3" r="19.6"/>
    <path class="cls-8" d="M268.7,223.6c-14,0-25.3-11.4-25.3-25.3s11.4-25.3,25.3-25.3,25.3,11.4,25.3,25.3-11.3,25.3-25.3,25.3ZM268.7,184.4c-7.7,0-13.9,6.2-13.9,13.9s6.2,13.9,13.9,13.9,13.9-6.2,13.9-13.9-6.2-13.9-13.9-13.9Z"/>
  </g>
  <path class="cls-3" d="M296.1,195.9s10.2-.4,26.5-3.3c0,0,1.3-4.3.7-10.5-.5-5.3-1.8-4.6-1.8-10.2s-.5-42.2-2.2-62.8c-1.8-21.8-5.7-21.8-10-21.8-26.5,0-95.5.3-142.6,3.8-8,.6-15.1.7-25.2,6.2-14.8,8-35.6,26.2-47.2,36.3-14,12.2-22.5,13.3-32,16.5-5.3,1.8-10.1,3.1-14.3,9.8-2.6,4.1-5.2,11-5.2,18.2l-1.5,1.8s-1.2,1.2-1.3,4.4c-.1,3.4.9,11.4.9,11.4,0,0,6.4,4.4,14.9,5.1,8.5.7,10.9.5,10.9.5l34.9-2.9,194.5-2.5Z"/>
  <path class="cls-8" d="M319.9,172.3c-3.6.4-5.8-.7-5.8-.7,0,0-1.1-24,0-29.4s5.8-5.1,5.8-5.1"/>
  <path class="cls-8" d="M79,146.9c9.1-7.9,19.3-16.8,31.8-28,8.1-7.3,12.6-9.9,18.2-11.1,5.6-1.2,8.7-1.4,12.9-1.8,5.9-.5,6.5,3.4,5.9,8.5-.8,6.8-2,16.5-2.7,20.7-.3,1.7-1.5,4.1-2.5,5.2-1.7,1.8-5,4.2-12.7,5.4-15.8,2.4-45.4,6.9-49.1,6.9-1.7,0-4.3-3.5-1.8-5.8Z"/>
  <path class="cls-8" d="M42.4,164.1s5-.5,9.1-.9c4-.4,6-1.9,7-3.8.9-1.6,2-3.5,2.8-4.9,1.8-3.3,4-6.9-.7-6.2-4.1.6-12.9,1.9-17.2,5.8"/>
  <g>
    <path class="cls-8" d="M196.3,218.1c-1.2-.4-1.4-2.4.6-3.4.8-.4,8.9-3.5,8.9-3.5l5.5.1,1.6,2.5"/>
    <path class="cls-8" d="M196.3,223.8c-.7,0-1.3-.1-2-.4-2.7-1-4.5-3.5-4.6-6.4-.2-3.1,1.6-6,4.7-7.6.3-.1,1.1-.5,9.4-3.7l1-.4,9.7.2,3.3,5.1c1.7,2.7.9,6.2-1.8,7.9s-6.2.9-7.9-1.7h-1.3c-1.7.6-3.4,1.3-4.8,1.8-.1.4-.2.9-.3,1.3-.9,2.5-3.1,3.9-5.4,3.9ZM198.3,212.7h0Z"/>
  </g>
  <g>
    <path class="cls-8" d="M219.9,210.6c-1.7,3.1-.7,7.6-.7,7.6h13.6s-.5-3.4-2.4-4.9-4.6-2.5-4.6-2.5"/>
    <path class="cls-8" d="M239.5,223.9h-24.8l-1-4.4c-.3-1.1-1.4-6.8,1.2-11.7,1.5-2.8,5-3.8,7.8-2.2.1.1.2.1.3.2,1.4-.8,3.2-1,4.8-.3.4.1,3.6,1.4,6.1,3.4,3.4,2.7,4.4,7.2,4.6,8.5l1,6.5Z"/>
  </g>
  <circle class="cls-8" cx="84.2" cy="198.3" r="19.6"/>
  <circle class="cls-8" cx="268.7" cy="198.3" r="19.6"/>
  <path class="cls-5" d="M84.2,219.7c-11.8,0-21.4-9.6-21.4-21.4s9.6-21.4,21.4-21.4,21.4,9.6,21.4,21.4-9.6,21.4-21.4,21.4ZM84.2,180.5c-9.8,0-17.8,8-17.8,17.8s8,17.8,17.8,17.8,17.8-8,17.8-17.8-8-17.8-17.8-17.8Z"/>
  <path class="cls-5" d="M84.2,207.5c-5.1,0-9.2-4.1-9.2-9.2s4.1-9.2,9.2-9.2,9.2,4.1,9.2,9.2c0,5-4.1,9.2-9.2,9.2ZM84.2,191c-4,0-7.2,3.2-7.2,7.2s3.2,7.2,7.2,7.2,7.2-3.2,7.2-7.2-3.2-7.2-7.2-7.2Z"/>
  <path class="cls-5" d="M268.7,219.7c-11.8,0-21.4-9.6-21.4-21.4s9.6-21.4,21.4-21.4,21.4,9.6,21.4,21.4-9.6,21.4-21.4,21.4ZM268.7,180.5c-9.8,0-17.8,8-17.8,17.8s8,17.8,17.8,17.8,17.8-8,17.8-17.8-8-17.8-17.8-17.8Z"/>
  <path class="cls-5" d="M268.7,207.5c-5.1,0-9.2-4.1-9.2-9.2s4.1-9.2,9.2-9.2,9.2,4.1,9.2,9.2c0,5-4.1,9.2-9.2,9.2ZM268.7,191c-4,0-7.2,3.2-7.2,7.2s3.2,7.2,7.2,7.2,7.2-3.2,7.2-7.2-3.2-7.2-7.2-7.2Z"/>
  <path class="cls-5" d="M56.8,201.4c-.5,0-.9-.4-1-.9-.1-.7-.1-1.4-.1-2.1,0-15.8,12.8-28.7,28.5-28.7s28.5,12.9,28.5,28.7c0,.5-.4,1-1,1s-1-.4-1-1c0-14.7-11.9-26.7-26.5-26.7s-26.5,12-26.5,26.7c0,.7,0,1.3.1,2,0,.5-.4,1-1,1h0Z"/>
  <path class="cls-5" d="M297.6,197.2c-.5,0-1-.4-1-1,0-14.7-11.9-26.7-26.5-26.7s-26.5,12-26.5,26.7c0,.5-.4,1-1,1s-1-.4-1-1c0-15.8,12.8-28.7,28.5-28.7s28.5,12.9,28.5,28.7c0,.6-.4,1-1,1Z"/>
  <path class="cls-5" d="M103.8,200.1c-1,0-1.8-.8-1.8-1.8s.8-1.8,1.8-1.8l144.8-1.8h0c1,0,1.8.8,1.8,1.8s-.8,1.8-1.8,1.8l-144.8,1.8h0Z"/>
  <path class="cls-5" d="M57.7,202.4c-2.1,0-4.7-.1-7.6-.3-9.2-.8-15.7-8.9-16-9.2l-.3-.4-.1-.5c0-.3-1-8.2-.9-11.7.1-3.4,1.3-5.1,1.8-5.5l1-1.2c.1-7.5,2.8-14.4,5.5-18.5,4.4-6.8,9.2-8.5,14.3-10.2l.9-.3c1.6-.6,3.2-1.1,4.8-1.5,7.5-2.3,15.2-4.8,26.6-14.6,2.3-2,5-4.4,7.8-7,11.7-10.5,27.6-24.8,39.7-31.4,9.7-5.3,16.8-5.8,24.2-6.3l1.8-.1c11.9-.9,26.6-1.7,43.8-2.2,1,0,1.8.7,1.9,1.7,0,1-.7,1.8-1.7,1.9-17.2.6-31.9,1.3-43.7,2.2l-1.8.1c-7.4.5-13.7,1-22.7,5.9-11.7,6.3-27.5,20.5-39,30.9-2.9,2.6-5.6,5-7.9,7-11.9,10.4-20,12.9-27.9,15.4-1.5.5-3.1,1-4.7,1.5l-1,.3c-4.9,1.7-8.8,3-12.5,8.7-2.3,3.6-5,10.2-4.9,17.2v.7l-2,2.4h0s-.7.9-.8,3.1c-.1,2.7.6,8.8.8,10.6,1.3,1.5,6.5,6.9,13.1,7.5,8.2.7,13.5,0,13.6,0,1-.1,1.9.6,2,1.5.1,1-.6,1.9-1.5,2,0,0-2.5.3-6.6.3Z"/>
  <path class="cls-5" d="M289.1,197.7c-1,0-1.8-.8-1.8-1.8s.8-1.8,1.8-1.8c.2,0,17.2,0,32.8-2.6.1-1.8.2-5.1-.1-9.2-.2-2.2-.7-3.5-1.2-4.8-.6-1.7-1.3-3.5-1.3-6.8,0-6.8-.6-45.6-2.3-65.7-1.8-21.1-7.8-21.4-13.2-21.6-17.3-.7-45.6,0-83.8,1.1-1,0-1.8-.8-1.9-1.8,0-1,.8-1.8,1.8-1.9,38.3-1.1,66.7-1.8,84.1-1.1,7.7.3,14.7,2.4,16.6,24.9,1.7,20.2,2.3,59.2,2.3,66,0,2.7.5,4,1.1,5.6.5,1.4,1.1,3,1.4,5.7.6,6.4,0,11.1,0,11.3l-.2,1.3-1.3.2c-16.3,3-34.7,3-34.8,3Z"/>
  <path class="cls-5" d="M155.7,198c-.5,0-.9-.3-1-.8-2.5-16.9-1.9-107.4-1.8-111.3,0-.5.4-1,1-1h0c.5,0,1,.4,1,1,0,.9-.7,94.2,1.8,111,.1.5-.3,1-.8,1.1h-.2Z"/>
  <path class="cls-5" d="M313.4,142.1c-.3,0-.6-.1-.8-.3l-2.6-3.1c-.5-.5-3.8-4.2-3.9-13.5s-1.3-43.2-1.3-43.6c0-.5.4-1,.9-1h0c.5,0,1,.4,1,.9,0,.3,1.2,34.3,1.3,43.6.1,8.8,3.3,12.1,3.4,12.1l2.7,3.2c.3.4.3,1-.1,1.4-.2.2-.4.3-.6.3Z"/>
  <path class="cls-5" d="M318.5,173.4c-2.9,0-4.7-.9-4.8-.9l-.5-.3v-.6c0-1-1.1-24.1,0-29.6,1-5,4.9-6,6.8-5.9.5,0,.9.5.9,1.1,0,.5-.5.9-1.1.9-.4,0-3.9-.1-4.8,4.3-1,4.8-.2,24.7,0,28.5.8.3,2.5.7,4.8.4.6-.1,1,.3,1.1.9.1.5-.3,1-.9,1.1-.5,0-1.1.1-1.5.1Z"/>
  <path class="cls-5" d="M56.7,177.3c-14.1,0-19.4-2-19.7-2.1-.5-.2-.8-.8-.6-1.3s.8-.8,1.3-.6h0c.1,0,8.2,3,30.5,1.6.5-.1,1,.4,1,.9s-.4,1-.9,1c-4.4.4-8.3.5-11.6.5Z"/>
  <path class="cls-5" d="M284.7,173.5c-.5,0-1-.4-1-1,0-.5.4-1,1-1,13.9-.5,20.6-.8,25.6-1.1,1.2-.1,2.4-.1,3.5-.2.6,0,1,.4,1,.9s-.4,1-.9,1c-1.1.1-2.2.1-3.5.2-5,.4-11.8.8-25.7,1.2h0Z"/>
  <path class="cls-5" d="M103.9,179.6h-.2c-.5,0-1-.5-1-1s.5-.9,1-1c1.8,0,18.3-.5,41-1.4,29.4-1.1,69.6-2.5,109.4-3.7.6,0,1,.4,1,1s-.4,1-1,1c-39.8,1.2-80,2.7-109.4,3.7-22.7.8-38,1.4-40.8,1.4Z"/>
  <path class="cls-5" d="M80.9,153.7c-1.4,0-3-1.3-3.7-3-.6-1.7-.2-3.3,1.1-4.5l.7-.6c8.9-7.7,18.9-16.5,31-27.4,8-7.2,12.7-10.1,18.7-11.3,5.4-1.1,8.5-1.4,12.4-1.8l.6-.1c2.5-.2,4.3.3,5.5,1.5,1.9,2,1.8,5.4,1.4,8.1-1,8-2,16.8-2.7,20.7-.3,1.8-1.6,4.4-2.7,5.7-2.7,2.9-7,4.7-13.2,5.7l-1.8.3c-16.2,2.5-43.7,6.7-47.3,6.7ZM143,107h-1l-.6.1c-3.8.4-6.9.6-12.2,1.7-5.6,1.2-10.1,3.9-17.8,10.8-12.1,10.9-22.2,19.7-31.1,27.4l-.7.6c-.7.6-.9,1.4-.6,2.3.4,1.1,1.3,1.8,1.8,1.8,3.4,0,31.9-4.3,47.2-6.6l1.8-.3c5.8-.9,9.7-2.5,12.1-5.1.8-.9,1.9-3.1,2.2-4.7.8-4.4,2.1-15.4,2.7-20.6.4-3.4.1-5.5-.9-6.5-.6-.6-1.6-.9-2.9-.9ZM79,146.9h0Z"/>
  <path class="cls-5" d="M42.5,165.1l-.2-2s5-.5,9-.9c4.2-.4,5.6-2.1,6.3-3.3.9-1.6,2-3.5,2.8-4.9l.2-.3c.6-1.1,2.1-3.8,1.8-4.3,0,0-.3-.3-1.7-.1h-.2c-4.1.6-12.5,1.9-16.5,5.5-.4.4-1,.3-1.4-.1s-.3-1,.1-1.4c4.5-4,13.3-5.4,17.5-6h.2c.7-.1,2.7-.4,3.6.9,1.1,1.5-.3,3.9-1.7,6.4l-.2.3c-.8,1.5-1.9,3.4-2.8,5-1.4,2.5-4,3.9-7.8,4.3-3.9.5-9,.9-9,.9Z"/>
  <path class="cls-5" d="M154.1,141.7c-.5,0-1-.4-1-1s.4-1,1-1c2.7,0,12.7-.2,29-.7.5,0,1,.4,1,1s-.4,1-1,1c-11.3.3-25.6.7-29,.7Z"/>
  <path class="cls-5" d="M236.7,139.5c-.5,0-1-.4-1-1,0-.5.4-1,1-1,30-.9,46.4-1.8,48.2-1.8,10-.5,16.7-5.4,16.7-12.1,0-3.7-.1-7.1-.2-10.4s-.2-6.4-.2-9.8c0-1.6-.5-2.8-1.4-3.7-2.1-2-5.9-1.9-5.9-1.9-9.4,0-28.2.2-59.3.7-.5,0-1-.4-1-1s.4-1,1-1c31.1-.5,49.9-.7,59.3-.7.1,0,4.6-.2,7.3,2.4,1.3,1.3,2,3,2,5.1,0,3.4.1,6.5.2,9.8s.2,6.7.2,10.5c0,7.8-7.5,13.5-18.5,14.1-1.9,0-18.3.8-48.4,1.8h0Z"/>
  <path class="cls-5" d="M145.6,101.2c-.5,0-.9-.4-1-.9,0-.5.4-1,.9-1.1,4-.3,8.9-.6,15.1-.9,2.8-.1,5.1-.2,7.3-.3,4.2-.2,7.8-.4,13.2-.6.6,0,1,.4,1,1,0,.5-.4,1-1,1-5.4.2-9,.4-13.2.6-2.2.1-4.5.2-7.3.3-6.1.3-11,.6-15,.9.1,0,0,0,0,0Z"/>
  <path class="cls-5" d="M135.3,153.1c-.9,0-1.7-.7-1.8-1.7s.7-1.9,1.7-1.9l11.7-.8c1-.1,1.9.7,1.9,1.7.1,1-.7,1.9-1.7,1.9l-11.8.8h0Z"/>
  <path class="cls-5" d="M102.1,150.8c-1.8,0-4.3-.3-6.1-1.7-1.3-1-2-2.4-2.2-4.2-.4-4.6-.5-11-.5-11,0-.5.4-1,1-1h0c.5,0,1,.4,1,1,0,.1.1,6.3.5,10.9.1,1.2.6,2.1,1.4,2.8,2.4,1.9,6.9,1.1,7,1.1.5-.1,1,.3,1.1.8s-.3,1-.8,1.1c-.1,0-1.1.2-2.4.2Z"/>
  <path class="cls-5" d="M320.5,219.9h-10.1c-1,0-1.8-.8-1.8-1.8s.8-1.8,1.8-1.8h10.1c1,0,1.8.8,1.8,1.8s-.8,1.8-1.8,1.8Z"/>
  <path class="cls-5" d="M302.7,219.9H56.2c-1,0-1.8-.8-1.8-1.8s.8-1.8,1.8-1.8h246.4c1,0,1.8.8,1.8,1.8s-.7,1.8-1.7,1.8Z"/>
  <path class="cls-5" d="M196.1,219.6c-.2,0-.4,0-.5-.1-1.1-.4-1.8-1.4-1.9-2.6-.1-1.4.8-2.8,2.3-3.5.8-.4,7.3-2.9,8.6-3.4l.3-.1,6.4.1,2,3.1c.5.7.2,1.7-.5,2.1-.7.5-1.7.2-2.1-.5l-1.1-1.7-4.1-.1c-3.6,1.4-7.6,2.9-8,3.1-.4.2-.5.4-.6.5.7.4,1,1.2.8,1.9-.3.8-.9,1.2-1.6,1.2Z"/>
  <path class="cls-5" d="M234.6,219.7h-17.2l-.3-1.2c-.1-.2-1.2-5.2.9-9,.4-.8,1.4-1,2.1-.6.8.4,1,1.4.6,2.1-1,1.8-.9,4.2-.8,5.6h10.8c-.3-.9-.8-1.8-1.4-2.3-1.8-1.4-4.4-2.4-4.4-2.4-.8-.3-1.2-1.2-.9-2s1.2-1.2,2-.9c.1,0,3.1,1.2,5.2,2.9,2.4,1.9,3,5.6,3.1,6l.3,1.8Z"/>
  <path class="cls-8" d="M202,85l-13.6,9.4-5.3,11.7-3,7.9s.5,1.7,3.1,4.7,9.9,4.5,9.9,4.5l-3.9,15.8,2.7,3.5,34.5-1.3-1.9-13.6s5,.2,7.6-2.2c2.6-2.4,2.9-4.8,2.9-8.8s-2.8-13.3-8.6-24.5l-20.9-10-3.5,2.9Z"/>
  <path class="cls-7" d="M201.2,89.5c-5.8,3.5-10.2,8-10.2,8,0,0-2.5,4.7-4.3,9.1s-3.4,9.8-3.4,9.8l5.1,2.8,4,3.6-3.1,15.4,5.5,5.3,21.3-1.3,14.3-.7-3.5-14.1s4.2-.1,6.6-3.1c1-1.2,1.1-4.1,1.3-5.7.9-5.5-2.3-15-8.1-26.1l-15.4-7c.1,0-5.5,1.3-10.1,4Z"/>
  <path class="cls-5" d="M179.9,115.7c-.2,0-.3,0-.5-.1-.8-.3-1.3-1.1-1-2,.1-.2,1.8-5.7,3.8-10.4,1.9-4.3,4.4-8.5,4.5-8.7l.2-.3c.2-.2,4.8-4.9,10.9-8.3.8-.4,1.7-.1,2.1.6.4.8.1,1.7-.6,2.1-5.1,2.9-9.3,6.9-10.1,7.6-.5.8-2.6,4.4-4.2,8.1-2,4.5-3.7,10-3.7,10.1-.1.9-.8,1.3-1.4,1.3Z"/>
  <path class="cls-5" d="M191,144.4l-3.6-5,3.6-14.5-8.3.3c-.8,0-1.6-.6-1.6-1.5s.6-1.6,1.5-1.6l12.4-.4-4.3,17.1,1.8,2.5,35.7-1.2-3.2-13.1,6.2-2.2c.2-.2,1.1-1.4,1.7-5.3.8-5.2-2.1-14.6-8-26l-20.4-9.8c-.8-.4-1.1-1.3-.7-2.1.4-.8,1.3-1.1,2.1-.7l21.5,10.1.2.5c3.7,7.1,9.8,20.3,8.5,28.3-.9,6-2.7,7.4-3.6,7.7l-3.7,1.3,3.4,14.1-41.2,1.5ZM231.3,124.7h0ZM231.5,124.6h0Z"/>
  <g>
    <path class="cls-8" d="M201.6,93.6s1.6,1,7-.3,6-4.5,6-4.5c0,0-1.6-3.5-2-7.2-.4-3.3.1-6.3-1.4-11.4-1.4-4.8-5.1-5.4-8.1-5.1-3.1.2-5.6,2.1-6.7,5.3s-1,7.4-.5,10,3.8,8.4,3.8,8.4l1.9-.3,1.3-.3"/>
    <path class="cls-5" d="M199.8,94.9v-2.2s.1-.4.6-.5c.2-.1.6,0,1.1.1,1.5.2,4.5,0,6.7-.5,3.2-.8,4.3-2.2,4.7-2.9-.5-1.2-1.6-4.1-1.9-7-.1-1.1-.2-2.1-.2-3.2-.1-2.3-.1-4.6-1.1-8-.9-3.1-2.9-4.3-6.5-4-2.6.2-4.5,1.7-5.4,4.3-1,2.8-.9,6.6-.4,9.1.3,1.6,2.1,5,3.1,7l.8-.1,1.3-.3c.8-.2,1.7.4,1.8,1.2.2.8-.4,1.7-1.2,1.8l-1.3.3-3,.5-.5-.9c-.4-.6-3.5-6.1-4-8.8-.6-2.8-.7-7.3.5-10.8,1.3-3.7,4.3-6.1,8.1-6.4,6.4-.5,8.8,3.1,9.7,6.2,1.1,3.7,1.2,6.4,1.3,8.8,0,1,.1,2,.2,2.9.4,3.3,1.9,6.7,1.9,6.7l.2.5-.1.5c-.1.4-1,4.1-7.2,5.7-5.6,1.2-8.9.2-9.2,0Z"/>
  </g>
  <path class="cls-5" d="M200.5,88.9c-.5,0-.9-.3-1-.8s.3-1,.8-1.1c0,0,2.4-.4,4.5-1.4,2-1,2.6-1.6,2.6-1.6.4-.4,1-.4,1.4,0s.4,1,0,1.4c-.1.1-.8.8-3.1,1.9s-4.9,1.6-5,1.6h-.2Z"/>
  <path class="cls-5" d="M217.9,142.8c-.4,0-.8-.3-.9-.7-.2-.6-4.9-14.8-3.9-38.6.4-9.8,1.6-16.3,1.6-16.4.1-.5.6-.9,1.1-.8s.9.6.8,1.1c0,.1-1.1,6.5-1.6,16.1-1,23.4,3.7,37.7,3.8,37.9.2.5-.1,1.1-.6,1.2-.1.1-.2.2-.3.2Z"/>
  <path class="cls-5" d="M192.8,142.8l.1,12.6,10.3,57.3s1.8.4,4.8.2c3.1-.2,4-.4,4-.4l-.9-53.7,4.6,28.2,2.4,24,9.5,1.2.9-27.1-2-43.3-15.6.6-18.1.4Z"/>
  <g>
    <path class="cls-8" d="M226.1,117.1l-15.1.4-6-4.5-5.6-.8-8.1,7.6,11.6,2.7s23,6.1,28,3.6c0,0-.1-3.7-1.3-5.9-1.4-2.5-3.5-3.1-3.5-3.1Z"/>
    <path class="cls-5" d="M226.9,127.6c-8.1,0-22.3-3.7-24.3-4.2l-13.4-3.1,9.8-9.2,6.3.9,5.9,4.4,14.9-.4h.1c.1,0,2.5.7,4.1,3.5,1.3,2.3,1.4,6.2,1.4,6.3v.6l-.6.3c-.8.7-2.3.9-4.2.9ZM193.3,119.2l9.8,2.3c6,1.6,22,5.2,26.8,3.9-.1-1.1-.3-3.3-1.1-4.7-1-1.8-2.4-2.4-2.8-2.6l-15.3.4-6.1-4.5-4.9-.7-6.4,5.9Z"/>
  </g>
  <path class="cls-5" d="M203.1,113.5c-.3,0-.6-.1-.8-.4-.3-.4-.3-1,.2-1.4l6-4.8c.4-.3,1-.3,1.4.2.3.4.3,1-.2,1.4l-6,4.8c-.2.1-.4.2-.6.2Z"/>
  <path class="cls-5" d="M196.8,143.3h0c-.6,0-1-.5-1-1l.2-17.4c0-.5.4-1,1-1h0c.5,0,1,.5,1,1l-.2,17.4c0,.6-.5,1-1,1Z"/>
  <path class="cls-5" d="M193.9,115.5s-.1,0,0,0c-.6,0-1-.5-1-1.1,0-.3.5-6.3,2-11.2,2.3-7.1,4.9-10.6,5-10.7.3-.4.9-.5,1.4-.2.4.3.5.9.2,1.4,0,0-2.5,3.3-4.7,10.1-1.5,4.7-1.9,10.6-1.9,10.7-.1.6-.5,1-1,1Z"/>
  <g>
    <path class="cls-8" d="M205.8,128.9h-11.9c-2,0-4.5-1.3-5.5-2.8l-5-7.6c-1-1.6-.3-2.8,1.7-2.8h11.9c2,0,3.1.1,4.6,2,1.7,2.2,6,8.4,6,8.4.9,1.6.2,2.8-1.8,2.8Z"/>
    <path class="cls-5" d="M205.8,129.9h-11.9c-2.3,0-5.1-1.4-6.3-3.3l-5-7.6c-.9-1.4-.6-2.4-.4-2.9.5-.9,1.5-1.4,2.9-1.4h11.9c2.2,0,3.6.2,5.4,2.4,1.7,2.2,5.8,8.2,6,8.5.9,1.4.6,2.5.4,3-.6.8-1.7,1.3-3,1.3ZM185.1,116.7c-.7,0-1.1.2-1.2.4-.1.2,0,.5.3.9l5,7.6c.9,1.3,3,2.4,4.7,2.4h11.9c.7,0,1.1-.2,1.2-.4.1-.2,0-.5-.3-.9,0-.1-4.2-6.2-5.9-8.3-1.2-1.5-2-1.6-3.8-1.6l-11.9-.1h0Z"/>
  </g>
  <path class="cls-6" d="M205.9,129.2h-11.9c-2,0-4.5-1.3-5.5-2.8l-5-7.6c-1-1.6-.3-2.8,1.7-2.8h11.9c2,0,3.1.1,4.6,2,1.7,2.2,6,8.4,6,8.4.9,1.5.2,2.8-1.8,2.8Z"/>
  <path class="cls-5" d="M205.8,129.9h-11.9c-2.3,0-5.1-1.4-6.3-3.3l-5-7.6c-.9-1.4-.6-2.4-.4-2.9.5-.9,1.5-1.4,2.9-1.4h11.9c2.2,0,3.6.2,5.4,2.4,1.7,2.2,5.8,8.2,6,8.5.9,1.4.6,2.5.4,3-.6.8-1.7,1.3-3,1.3ZM185.1,116.7c-.7,0-1.1.2-1.2.4-.1.2,0,.5.3.9l5,7.6c.9,1.3,3,2.4,4.7,2.4h11.9c.7,0,1.1-.2,1.2-.4.1-.2,0-.5-.3-.9,0-.1-4.2-6.2-5.9-8.3-1.2-1.5-2-1.6-3.8-1.6l-11.9-.1h0Z"/>
  <g>
    <path class="cls-8" d="M180.7,123.4s.1,2.7,1.6,4.9c1.5,2.2,6.6,3,6.6,3l6.9-5.3s-1.1-2.6-3.4-3.3c-2-.6-5.7.5-5.7.5l-3-4.3-3,4.5Z"/>
    <path class="cls-5" d="M189.2,132.3l-.4-.1c-.6-.1-5.5-.9-7.2-3.4-1.7-2.4-1.8-5.3-1.8-5.5v-.3l4.1-5.9,3.4,4.9c1.3-.3,3.9-.8,5.6-.3,2.7.9,3.9,3.7,4,3.9l.3.7-8,6ZM181.7,123.6c.1.7.4,2.6,1.4,4.1,1,1.4,4.1,2.2,5.5,2.5l5.9-4.5c-.4-.7-1.2-1.7-2.4-2.1-1.4-.4-4.1.2-5.1.5l-.7.2-2.6-3.8-2,3.1ZM180.7,123.4h0Z"/>
  </g>
  <path class="cls-5" d="M222.2,117.8c-.5,0-.9-.4-1-.9l-1.4-13.3c-.1-.5.3-1,.9-1.1.5-.1,1,.3,1.1.9l1.4,13.3c.1.5-.3,1-.9,1.1h-.1Z"/>
  <path class="cls-5" d="M209.3,80.5c-.3,0-.7-.2-.8-.5-.3-.5-.1-1.1.3-1.3l1.9-1.1c.2-2.1,0-4.2-.4-4.5-.2-.1-1,1.2-1.4,2.6l-.2.7h-.8c-1.1,0-2.8-.8-2.9-2.8,0-.6-.2-.9-.3-1-.2-.1-.6-.1-1.3.3-3.9,1.9-7-.1-7.1-.2-.5-.3-.6-.9-.3-1.4.3-.4.9-.6,1.4-.3.1.1,2.3,1.5,5.2.1,1.3-.6,2.4-.7,3.2-.2s1.2,1.3,1.2,2.6c0,.3.1.6.3.7.5-1.4,1.6-3.5,3.5-3,2.2.5,2.1,4.7,1.8,7.1v.5l-2.7,1.7c-.3,0-.4,0-.6,0Z"/>
</svg>